<svg width="110" height="40" viewBox="0 0 110 40" fill="none" xmlns="http://www.w3.org/2000/svg">
<g clip-path="url(#clip0_598_5021)">
<path fill-rule="evenodd" clip-rule="evenodd" d="M45.6722 9.9375C44.2455 9.94881 43.5193 11.2585 43.5193 12.5508C43.5193 13.8407 44.243 15.1731 45.6722 15.1843C47.1052 15.1734 47.859 13.8799 47.859 12.5712C47.859 11.2617 47.1113 9.94881 45.6722 9.9375ZM45.6722 10.4454C46.8195 10.4511 47.3309 11.5884 47.3309 12.5914C47.3309 13.5909 46.823 14.6913 45.6857 14.697C44.5445 14.6911 44.0407 13.5278 44.0407 12.5372C44.0407 11.5474 44.5451 10.4511 45.6722 10.4454Z" fill="white"/>
<path fill-rule="evenodd" clip-rule="evenodd" d="M42.2322 14.1947C41.9345 14.4924 41.5435 14.6596 41.1219 14.6618C39.963 14.6564 39.3346 13.5953 39.3346 12.536C39.3346 11.4734 39.9655 10.4698 41.1151 10.4644C41.5301 10.4644 41.9415 10.6105 42.239 10.9044C42.3401 11.0011 42.5215 11.0187 42.6215 10.9112C42.7519 10.7744 42.6912 10.5789 42.564 10.4712C42.1705 10.1059 41.6722 9.9138 41.1355 9.91603C39.6533 9.92664 38.7862 11.1928 38.7862 12.5835C38.7862 13.9591 39.6349 15.1726 41.0948 15.1831C41.6405 15.181 42.1347 14.9793 42.5436 14.6212C42.6423 14.5314 42.6734 14.3713 42.6215 14.2489C42.5543 14.0967 42.3463 14.0805 42.2322 14.1947V14.1947Z" fill="white"/>
<path fill-rule="evenodd" clip-rule="evenodd" d="M33.7385 14.9263C33.7385 15.0885 33.8242 15.1835 33.9889 15.1835C34.1517 15.1835 34.2326 15.0844 34.2326 14.9263V11.1079L37.0052 14.9805C37.086 15.0933 37.1991 15.1835 37.3437 15.1835C37.5238 15.1835 37.5875 15.0474 37.5875 14.8857V10.4241C37.5875 10.2618 37.5018 10.1669 37.337 10.1669C37.1743 10.1669 37.0933 10.266 37.0933 10.4241V14.2899L34.3341 10.4039C34.2504 10.2858 34.1386 10.1602 33.9822 10.1602C33.8021 10.1602 33.7385 10.2964 33.7385 10.4581V14.9263V14.9263Z" fill="white"/>
<path fill-rule="evenodd" clip-rule="evenodd" d="M32.1669 15.0203C32.2187 15.1586 32.3643 15.2124 32.4986 15.1696C32.6478 15.1223 32.6681 14.9369 32.6138 14.8103L31.0296 10.4775C30.9641 10.299 30.835 10.1729 30.6369 10.1729C30.4387 10.1729 30.3097 10.299 30.2442 10.4775L28.7142 14.8103C28.6723 14.936 28.6721 15.1237 28.8258 15.1712C29.0079 15.2279 29.1503 15.0869 29.2084 14.9255L29.4859 14.1536H31.8148L32.1669 15.0203V15.0203ZM30.6436 10.8634L31.6321 13.6391H29.628L30.6436 10.8634Z" fill="white"/>
<path fill-rule="evenodd" clip-rule="evenodd" d="M24.6011 14.8519C24.6011 15.1338 24.7381 15.1836 24.9937 15.1836H26.3176C27.1099 15.1836 27.7529 14.5759 27.7529 13.7755C27.7529 13.1262 27.2348 12.5384 26.5952 12.435C27.0533 12.2917 27.3609 11.8385 27.3602 11.3653C27.3593 10.5957 26.6176 10.1738 25.9183 10.1738H24.8787C24.6792 10.1738 24.6011 10.3154 24.6011 10.4988V14.8519ZM25.102 12.2726V10.668H25.8776C26.3439 10.668 26.8332 10.957 26.8322 11.4669C26.8312 11.9018 26.3516 12.2726 25.9427 12.2726H25.102V12.2726ZM25.102 12.7328H25.8776C26.0446 12.7328 26.2071 12.7554 26.3627 12.8007C26.8247 12.9344 27.1915 13.2782 27.191 13.7823C27.1904 14.3841 26.6661 14.6894 26.1145 14.6894H25.102V12.7328Z" fill="white"/>
<path fill-rule="evenodd" clip-rule="evenodd" d="M24.7747 30.7154C24.7747 31.1156 24.983 31.3441 25.3884 31.3441C25.7865 31.3441 25.9856 31.1345 25.9856 30.7154V25.4242H31.9003V30.7154C31.9003 31.1345 32.0993 31.3441 32.4973 31.3441C32.9009 31.3441 33.1277 31.1195 33.1277 30.7154V19.0328C33.1277 18.624 32.9115 18.3867 32.4973 18.3867C32.0869 18.3867 31.9003 18.6391 31.9003 19.0328V24.132H25.9856V19.0328C25.9856 18.6282 25.7876 18.3867 25.3719 18.3867C24.9614 18.3867 24.7747 18.6391 24.7747 19.0328V30.7154Z" fill="white"/>
<path fill-rule="evenodd" clip-rule="evenodd" d="M39.8199 34.3782C39.8199 34.7728 39.9879 35.077 40.4171 35.077C40.7956 35.077 41.0403 34.7617 41.0474 34.3952V29.6741C41.537 30.7483 42.6203 31.3615 43.7844 31.3615C46.4242 31.3468 47.6493 28.7634 47.6493 26.4357C47.6493 24.1217 46.4404 21.4051 43.7844 21.3906C42.629 21.4021 41.4278 22.2582 41.0474 23.3507V22.0554C41.0474 21.649 40.8572 21.3906 40.4336 21.3906C40.0102 21.3906 39.8199 21.6489 39.8199 22.0554V34.3782V34.3782ZM43.9006 30.2025C41.9118 30.1877 41.147 28.1296 41.147 26.4357C41.147 24.7811 41.9134 22.6666 43.9006 22.6519C45.8212 22.6668 46.4052 24.9554 46.4052 26.5038C46.4052 28.0756 45.8164 30.1876 43.9006 30.2025Z" fill="white"/>
<path fill-rule="evenodd" clip-rule="evenodd" d="M53.3887 21.3906C50.6935 21.405 49.3744 23.9577 49.3744 26.3675C49.3744 28.7775 50.6933 31.3299 53.3887 31.3444C56.0634 31.3299 57.403 28.9094 57.403 26.4868C57.403 24.0919 56.1005 21.405 53.3887 21.3906ZM53.3887 22.6178C55.3369 22.6326 56.1257 24.9713 56.1257 26.5891C56.1257 28.2818 55.3263 30.1451 53.3887 30.1683C51.4198 30.1538 50.6682 27.8857 50.6682 26.2482C50.6682 24.565 51.4361 22.6324 53.3887 22.6178Z" fill="white"/>
<path fill-rule="evenodd" clip-rule="evenodd" d="M67.7738 21.3555C65.1144 21.3701 63.7595 23.9958 63.7595 26.3664C63.7595 28.9358 65.2608 31.3288 68.0391 31.3433C69.3649 31.3433 70.6092 30.8977 71.4396 29.8263C71.6267 29.6342 71.5802 29.222 71.401 29.0481C71.0804 28.7542 70.5702 28.9584 70.2951 29.2128C69.6258 29.8232 68.9456 30.0904 68.0391 30.0821C66.4975 30.0705 65.0808 28.507 65.07 26.9971H70.6766C71.5287 26.9971 71.6119 26.3172 71.6056 25.6164C71.6056 23.2614 70.261 21.3669 67.7738 21.3555ZM65.0865 25.7699C65.0967 24.1971 66.1261 22.6287 67.8236 22.6167C69.5324 22.629 70.3781 24.2369 70.3781 25.7699H65.0865V25.7699Z" fill="white"/>
<path fill-rule="evenodd" clip-rule="evenodd" d="M77.8976 22.8218C78.4944 22.8218 79.159 22.9774 79.7057 23.2138C79.9082 23.2833 80.1277 23.2382 80.2696 23.0633C80.6474 22.6086 80.2788 22.1866 79.855 21.9867C79.2348 21.7004 78.5593 21.6056 77.881 21.6116C75.2159 21.6243 73.5212 23.8911 73.5019 26.4181C73.5118 28.9497 75.2255 31.3316 77.9142 31.3439C78.7068 31.3439 79.4602 31.0951 80.1204 30.6621C80.4617 30.3929 80.7415 29.8757 80.253 29.5599C80.1785 29.5116 80.101 29.4861 80.0209 29.4861C79.9442 29.4861 79.8665 29.507 79.8052 29.5542C79.2546 29.928 78.6157 30.14 77.9474 30.1337C76.0212 30.1213 74.7722 28.2971 74.7625 26.5033C74.7717 24.6367 75.8625 22.8348 77.8976 22.8218V22.8218Z" fill="white"/>
<path fill-rule="evenodd" clip-rule="evenodd" d="M92.2299 30.7293C92.2299 31.1383 92.4289 31.3429 92.8271 31.3429C93.2251 31.3429 93.4407 31.1273 93.4407 30.7293V25.7991C93.4407 24.1142 95.0982 23.4976 96.1434 23.1498C96.4635 23.0432 96.6953 22.5845 96.5172 22.1895C96.0376 21.1256 93.9212 22.6951 93.4407 23.5639V22.4118C93.4407 22.0055 93.2506 21.7471 92.8271 21.7471C92.4289 21.7471 92.2299 21.9686 92.2299 22.4118V30.7293Z" fill="white"/>
<path fill-rule="evenodd" clip-rule="evenodd" d="M98.4568 30.714C98.4568 31.1205 98.6805 31.3447 99.0871 31.3447C99.4936 31.3447 99.7173 31.1205 99.7173 30.714V22.2942C99.7173 21.8843 99.4742 21.6636 99.0704 21.6636C98.6688 21.6636 98.4568 21.8982 98.4568 22.2942V30.714ZM98.2079 19.2741C98.2079 19.7447 98.5601 20.1262 99.0374 20.1262C99.5146 20.1262 99.8667 19.7447 99.8667 19.2741C99.8667 18.8035 99.5145 18.4219 99.0374 18.4219C98.5601 18.4219 98.2079 18.8034 98.2079 19.2741Z" fill="white"/>
<path fill-rule="evenodd" clip-rule="evenodd" d="M105.768 21.3906C103.073 21.405 101.754 23.9577 101.754 26.3675C101.754 28.7775 103.072 31.3299 105.768 31.3444C108.443 31.3299 109.782 28.9094 109.782 26.4868C109.782 24.0919 108.48 21.405 105.768 21.3906ZM105.768 22.6178C107.716 22.6326 108.505 24.9713 108.505 26.5891C108.505 28.2818 107.705 30.1451 105.768 30.1683C103.799 30.1538 103.047 27.8857 103.047 26.2482C103.047 24.565 103.815 22.6324 105.768 22.6178Z" fill="white"/>
<path fill-rule="evenodd" clip-rule="evenodd" d="M19.8046 39.4046H0.43335V31.39L8.69275 26.5727C9.3634 26.1815 9.67578 25.9469 10.119 25.9316C10.5622 25.9469 10.8745 26.1815 11.5453 26.5727L19.8046 31.39V39.4046V39.4046Z" fill="white"/>
<path fill-rule="evenodd" clip-rule="evenodd" d="M19.8046 0.649414H0.43335V28.2059L8.69275 23.3888C9.3634 22.9976 9.67578 22.763 10.119 22.7478C10.5622 22.763 10.8745 22.9976 11.5453 23.3888L19.8046 28.2059V0.649414V0.649414Z" fill="white"/>
<path fill-rule="evenodd" clip-rule="evenodd" d="M85.5909 21.3906C82.8956 21.405 81.5766 23.9577 81.5766 26.3675C81.5766 28.7775 82.8956 31.3299 85.5909 31.3444C86.6452 31.3387 87.6323 30.9411 88.3444 30.1584V30.5262C88.3444 30.9328 88.5683 31.1568 88.9748 31.1568C89.3813 31.1568 89.6051 30.9328 89.6051 30.5262V22.1065C89.6051 21.6966 89.3619 21.4758 88.9582 21.4758C88.5566 21.4758 88.3444 21.7104 88.3444 22.1065V22.6737C87.6478 21.8569 86.6698 21.3963 85.5909 21.3906V21.3906ZM85.5909 22.6178C87.5509 22.6326 88.3278 24.9738 88.3278 26.5891C88.3278 28.2966 87.4906 30.1456 85.5909 30.1683C83.6219 30.1538 82.8704 27.8857 82.8704 26.2482C82.8704 24.565 83.6384 22.6324 85.5909 22.6178Z" fill="white"/>
<path fill-rule="evenodd" clip-rule="evenodd" d="M58.9709 21.737C58.5645 21.737 58.3403 21.9609 58.3403 22.3675C58.3403 22.774 58.5644 22.9977 58.9709 22.9977H60.0184V30.7132C60.0184 31.1197 60.2423 31.3439 60.6488 31.3439C61.0552 31.3439 61.2791 31.1197 61.2791 30.7132V22.9977H62.3267C62.7365 22.9977 62.9574 22.7544 62.9574 22.3508C62.9574 21.9491 62.7226 21.737 62.3267 21.737H61.2791V19.3241C61.2791 18.9142 61.0358 18.6934 60.6322 18.6934C60.2305 18.6934 60.0184 18.928 60.0184 19.3241V21.737H58.9709V21.737Z" fill="white"/>
<path fill-rule="evenodd" clip-rule="evenodd" d="M35.8272 30.714C35.8272 31.1205 36.0511 31.3447 36.4575 31.3447C36.864 31.3447 37.0879 31.1205 37.0879 30.714V22.2942C37.0879 21.8843 36.8446 21.6636 36.4408 21.6636C36.0392 21.6636 35.8272 21.8982 35.8272 22.2942V30.714V30.714ZM35.5784 19.2741C35.5784 19.7447 35.9305 20.1262 36.4078 20.1262C36.885 20.1262 37.2371 19.7447 37.2371 19.2741C37.2371 18.8035 36.885 18.4219 36.4078 18.4219C35.9305 18.4219 35.5784 18.8034 35.5784 19.2741Z" fill="white"/>
</g>
<defs>
<clipPath id="clip0_598_5021">
<rect width="109.63" height="40" fill="white" transform="translate(0.202637)"/>
</clipPath>
</defs>
</svg>
