<svg width="201" height="40" viewBox="0 0 201 40" fill="none" xmlns="http://www.w3.org/2000/svg">
<g clip-path="url(#clip0_598_5041)">
<path d="M72.4752 11.209C73.4038 11.209 74.2609 11.2756 75.118 11.4756C75.9038 11.609 76.618 11.8757 77.2609 12.209V14.609C76.4752 14.3423 75.6895 14.0756 74.9038 13.9423C74.1895 13.809 73.4752 13.7423 72.7609 13.7423C71.9752 13.7423 71.1895 13.8757 70.4752 14.0757C69.6895 14.3423 68.9752 14.7423 68.4038 15.2756C67.7609 15.8756 67.2609 16.609 66.9038 17.4756C66.4752 18.5423 66.3323 19.6756 66.3323 20.809C66.3323 21.7423 66.4752 22.609 66.7609 23.4756C67.0466 24.2756 67.4038 24.9423 67.9752 25.609C68.5466 26.209 69.2609 26.6756 70.0466 27.009C70.9752 27.3423 71.9038 27.5423 72.9038 27.4756C73.6895 27.4756 74.4752 27.409 75.2609 27.209C76.0466 27.0757 76.8323 26.809 77.5466 26.5423V28.9423C77.2609 29.0756 76.9752 29.209 76.618 29.3423C76.1895 29.4756 75.8323 29.609 75.4038 29.6756C74.9038 29.7423 74.4752 29.8756 73.9752 29.8756C73.4752 29.9423 72.9752 29.9423 72.4752 29.9423C71.2609 29.9423 69.9752 29.7423 68.8323 29.409C67.6895 29.0756 66.6895 28.4756 65.8323 27.7423C64.9752 26.9423 64.2609 25.9423 63.8323 24.8757C63.3323 23.5423 63.0466 22.1423 63.118 20.809C63.118 19.7423 63.2609 18.6756 63.5466 17.609C63.7609 16.7423 64.118 15.8756 64.618 15.1423C65.0466 14.4756 65.618 13.8756 66.1895 13.3423C66.7609 12.8756 67.4038 12.409 68.118 12.1423C68.8323 11.809 69.5466 11.609 70.2609 11.4756C71.0466 11.3423 71.7609 11.209 72.4752 11.209Z" fill="white"/>
<path d="M94.0467 27.6087H93.9752C93.6895 27.9421 93.3324 28.2087 92.9752 28.4754C92.5467 28.8087 92.1181 29.0754 91.6181 29.2754C91.1181 29.5421 90.5467 29.6754 89.9752 29.8087C89.3324 29.9421 88.6895 30.0087 88.0467 30.0087C87.1895 30.0087 86.3324 29.8754 85.4752 29.6087C84.7609 29.3421 84.0467 29.0087 83.4752 28.4754C82.9038 27.9421 82.4752 27.3421 82.1895 26.6754C81.9038 25.8754 81.6895 25.0754 81.6895 24.2754C81.6895 23.4754 81.8324 22.6087 82.1895 21.8754C82.5467 21.2087 83.0467 20.6087 83.6181 20.0754C84.2609 19.5421 85.0467 19.2087 85.8324 18.9421C86.7609 18.6754 87.7609 18.5421 88.6895 18.5421C89.6181 18.5421 90.5467 18.6087 91.4752 18.8087C92.2609 18.9421 92.9752 19.1421 93.7609 19.4087H93.8324V18.1421C93.8324 17.6754 93.8324 17.2754 93.7609 16.8754C93.6895 16.5421 93.6181 16.2087 93.4038 15.8754C93.0467 15.2087 92.4038 14.7421 91.7609 14.4087C90.9752 14.0087 89.9752 13.8087 88.6181 13.8087C87.6895 13.8087 86.7609 13.8754 85.9038 14.0754C85.0467 14.2754 84.1895 14.4754 83.3324 14.8087V12.2754C83.6895 12.1421 84.0467 11.9421 84.4752 11.8754C84.9038 11.7421 85.4038 11.6087 85.8324 11.5421C86.3324 11.4754 86.8324 11.4087 87.4038 11.3421C87.9038 11.2754 88.4752 11.2754 89.0467 11.2754C90.9752 11.2754 92.5467 11.6087 93.7609 12.2087C94.9038 12.7421 95.8324 13.6754 96.4038 14.7421C96.6181 15.1421 96.7609 15.6087 96.8324 16.0754C96.9038 16.6087 96.9752 17.1421 96.9752 17.6754V29.6087H94.4038L94.0467 27.6087ZM93.9038 21.7421C93.3324 21.6087 92.6181 21.4754 91.8324 21.2754C90.9752 21.1421 90.1181 21.0754 89.1895 21.0754C87.8324 21.0754 86.8324 21.3421 86.0467 21.8754C85.3324 22.4087 84.9038 23.2087 84.9038 24.2754C84.9038 24.7421 84.9752 25.2754 85.1895 25.7421C85.3324 26.1421 85.6181 26.4754 85.9752 26.8087C86.3324 27.0754 86.6895 27.2754 87.1181 27.4087C87.6181 27.5421 88.0467 27.6087 88.5467 27.6087C89.1895 27.6087 89.8324 27.5421 90.4038 27.3421C90.9038 27.2087 91.4752 26.9421 91.9752 26.6754C92.4038 26.4754 92.7609 26.2087 93.1181 25.9421C93.4038 25.6754 93.6895 25.4754 93.8324 25.3421L93.9038 21.7421Z" fill="white"/>
<path d="M118.689 20.409C118.689 21.5423 118.547 22.609 118.261 23.7423C118.047 24.609 117.689 25.4757 117.189 26.2757C116.761 26.9423 116.261 27.5423 115.689 28.0757C115.118 28.5423 114.547 28.9423 113.904 29.209C113.332 29.4757 112.689 29.7423 112.047 29.8757C111.475 30.009 110.832 30.0757 110.261 30.0757C109.189 30.0757 108.189 29.9423 107.189 29.5423C106.332 29.1423 105.475 28.609 104.832 27.9423H104.761V38.2757H101.689V11.6756H104.047L104.689 13.6756H104.761C104.975 13.409 105.189 13.1423 105.404 12.9423C105.761 12.6757 106.118 12.409 106.547 12.209C107.047 11.9423 107.618 11.6756 108.189 11.4756C108.904 11.2756 109.618 11.209 110.332 11.209C111.404 11.209 112.475 11.409 113.475 11.7423C114.475 12.0757 115.404 12.609 116.118 13.3423C116.904 14.1423 117.547 15.1423 117.975 16.209C118.475 17.5423 118.689 19.009 118.689 20.409ZM115.404 20.4756C115.404 19.5423 115.261 18.609 115.047 17.6756C114.832 16.9423 114.475 16.209 113.975 15.5423C113.547 14.9423 112.904 14.5423 112.261 14.209C111.547 13.8757 110.689 13.7423 109.904 13.7423C109.332 13.7423 108.689 13.809 108.118 14.009C107.618 14.1423 107.118 14.3423 106.689 14.609C106.261 14.809 105.904 15.1423 105.547 15.409C105.261 15.6757 105.047 15.8757 104.761 16.209V25.5423C105.404 26.1423 106.189 26.6756 107.047 27.009C107.904 27.3423 108.832 27.5423 109.761 27.5423C110.404 27.5423 111.047 27.409 111.618 27.209C112.332 27.009 112.975 26.609 113.475 26.0757C114.118 25.4757 114.547 24.7423 114.832 23.8757C115.261 22.809 115.475 21.6756 115.404 20.4756Z" fill="white"/>
<path d="M123.261 7.54206V4.27539H126.404V7.54206H123.261ZM123.332 29.5421V11.6754H126.475V29.5421H123.332Z" fill="white"/>
<path d="M131.904 29.5428V2.34277H135.047V29.5428H131.904Z" fill="white"/>
<path d="M139.975 29.5428V2.34277H143.118V29.5428H139.975Z" fill="white"/>
<path d="M160.047 27.6087H159.975C159.689 27.9421 159.332 28.2087 158.975 28.4754C158.547 28.8087 158.118 29.0754 157.618 29.2754C157.118 29.5421 156.547 29.6754 155.975 29.8087C155.332 29.9421 154.689 30.0087 154.047 30.0087C153.189 30.0087 152.332 29.8754 151.475 29.6087C150.761 29.3421 150.047 29.0087 149.475 28.4754C148.904 27.9421 148.475 27.3421 148.189 26.6754C147.904 25.8754 147.689 25.0754 147.761 24.2754C147.761 23.4754 147.904 22.6087 148.261 21.8754C148.618 21.2087 149.118 20.6087 149.689 20.0754C150.332 19.5421 151.118 19.2087 151.904 18.9421C152.832 18.6754 153.832 18.5421 154.761 18.5421C155.689 18.5421 156.618 18.6087 157.547 18.8087C158.332 18.9421 159.047 19.1421 159.832 19.4087H159.904V18.1421C159.904 17.6754 159.904 17.2754 159.832 16.8754C159.761 16.5421 159.689 16.2087 159.475 15.8754C159.118 15.2087 158.475 14.7421 157.832 14.4087C157.047 14.0087 156.047 13.8087 154.689 13.8087C153.761 13.8087 152.832 13.8754 151.975 14.0754C151.118 14.2754 150.261 14.4754 149.404 14.8087V12.2754C149.761 12.1421 150.118 11.9421 150.547 11.8754C150.975 11.7421 151.475 11.6087 151.904 11.5421C152.404 11.4754 152.904 11.4087 153.475 11.3421C154.047 11.2754 154.547 11.2754 155.118 11.2754C157.047 11.2754 158.618 11.6087 159.832 12.2087C160.975 12.7421 161.904 13.6754 162.475 14.7421C162.689 15.1421 162.832 15.6087 162.904 16.0754C162.975 16.6087 163.047 17.1421 163.047 17.6754V29.6087H160.404L160.047 27.6087ZM159.904 21.7421C159.332 21.6087 158.618 21.4754 157.832 21.2754C156.975 21.1421 156.118 21.0754 155.189 21.0754C153.832 21.0754 152.832 21.3421 152.118 21.8754C151.332 22.4087 150.975 23.2087 150.975 24.2754C150.975 24.7421 151.047 25.2754 151.261 25.7421C151.404 26.1421 151.689 26.4754 152.047 26.7421C152.404 27.0087 152.761 27.2087 153.189 27.3421C153.618 27.4754 154.118 27.5421 154.618 27.5421C155.261 27.5421 155.904 27.4754 156.475 27.2754C156.975 27.1421 157.547 26.8754 158.047 26.6087C158.475 26.4087 158.832 26.1421 159.189 25.8754C159.475 25.6087 159.761 25.4087 159.904 25.2754V21.7421Z" fill="white"/>
<path d="M178.547 14.0754H178.332C177.618 14.0754 176.904 14.1421 176.189 14.2754C175.475 14.4087 174.832 14.6087 174.189 14.8754C173.618 15.1421 173.047 15.4087 172.475 15.8087C171.975 16.2087 171.547 16.6087 171.189 17.1421V29.6087H168.047V11.6754H170.475L171.118 14.5421H171.189C171.475 14.0754 171.904 13.6087 172.332 13.2754C173.261 12.4087 174.475 11.8087 175.689 11.5421C176.404 11.3421 177.118 11.2754 177.832 11.2754H178.261C178.404 11.2754 178.547 11.2754 178.618 11.2754L178.547 14.0754Z" fill="white"/>
<path d="M181.904 11.6758H185.047L190.975 25.6758H191.118L197.189 11.6758H200.332L188.475 38.2758H185.404L189.475 29.2091L181.904 11.6758Z" fill="white"/>
<path fill-rule="evenodd" clip-rule="evenodd" d="M29.6181 5.40958C30.6181 6.07625 31.9038 6.87625 32.9752 7.67625C46.5466 0.942916 55.1895 12.0762 46.7609 19.1429C45.6895 20.0096 44.4752 20.8096 43.1895 21.4096C38.9038 23.6763 32.4752 26.8096 31.0466 31.7429C30.2609 34.3429 31.1181 37.4096 33.4038 39.0096C35.1181 40.2096 37.4038 40.4762 39.4752 40.0762C47.3324 38.5429 49.4752 30.7429 47.1181 24.6096L47.0466 24.6762C48.1895 24.0096 49.2609 23.2763 50.3324 22.4763C69.0466 8.07625 51.0466 -8.05708 29.6181 5.40958ZM42.9752 26.8763C43.7609 34.0096 35.8324 38.0763 32.7609 35.9429C29.7609 33.8096 37.2609 29.7429 41.1895 27.8096L42.9752 26.8763Z" fill="white"/>
<path fill-rule="evenodd" clip-rule="evenodd" d="M42.2609 5.67507V0.608398C38.4038 1.14173 34.1181 2.67506 29.6181 5.47506C30.6181 6.14173 31.9038 6.94173 32.9752 7.74173C36.4038 5.94173 39.6181 5.4084 42.2609 5.67507Z" fill="white"/>
<path fill-rule="evenodd" clip-rule="evenodd" d="M47.1895 24.6084L42.9752 26.8751C43.1181 27.9417 42.9752 29.0751 42.6895 30.1417V38.9417C47.8324 36.2084 49.1895 29.8084 47.1895 24.6084Z" fill="white"/>
<path fill-rule="evenodd" clip-rule="evenodd" d="M33.4752 8.07571C32.1895 7.14237 31.0466 6.20904 29.6895 5.34237C7.18948 -8.92429 -11.6677 10.1424 12.4752 24.809C13.0466 23.3424 13.7609 21.8757 14.6181 20.4757C2.90377 13.6757 12.1181 0.475705 26.4752 7.67571C27.4752 8.14237 38.7609 14.409 41.6181 22.3424C42.7609 21.7424 43.9752 21.1424 45.1895 20.409C42.9752 16.5424 38.2609 11.6757 33.4752 8.07571Z" fill="white"/>
<path fill-rule="evenodd" clip-rule="evenodd" d="M39.4753 13.2754C39.3324 13.4087 39.1896 13.6087 38.9753 13.7421C38.761 13.9421 38.5467 14.0754 38.261 14.2754C38.0467 14.4087 37.761 14.6087 37.5467 14.7421L36.8324 15.2087H36.761C38.8324 17.2754 40.6896 19.7421 41.6181 22.2754C42.761 21.6754 43.9753 21.0754 45.1896 20.3421C43.9038 18.2087 41.9038 15.6754 39.4753 13.2754Z" fill="white"/>
<path fill-rule="evenodd" clip-rule="evenodd" d="M9.61799 14.9424C9.18942 15.3424 8.68942 15.6757 8.11799 15.9424C7.61799 16.2757 7.04656 16.5424 6.47513 16.809C6.18942 16.9424 5.9037 17.0757 5.68942 17.2757C5.54656 17.3424 5.4037 17.409 5.26085 17.4757C5.11799 17.5424 4.97513 17.609 4.83228 17.6757C4.68942 17.7424 4.47513 17.8757 4.33228 18.009C6.11799 20.2757 8.76085 22.5424 12.4037 24.7424C12.9751 23.2757 13.6894 21.809 14.5466 20.409C11.8323 18.8757 10.2608 16.8757 9.61799 14.9424Z" fill="white"/>
<path fill-rule="evenodd" clip-rule="evenodd" d="M18.2609 22.4091C18.3323 22.2091 18.4752 22.0758 18.5466 21.8758C20.6895 17.6091 25.3323 12.8091 29.8323 9.60911C29.6181 9.47578 29.1895 9.14245 28.9752 9.00911C28.1895 8.47578 27.4038 8.07578 26.6181 7.67578C23.4752 10.0758 19.9752 13.3424 17.8323 15.9424C14.9038 19.4758 11.4038 24.0091 11.4038 29.8091C11.4038 34.5424 14.0466 38.8758 20.0466 40.0091C22.1181 40.4758 24.5466 40.2091 26.3324 38.9424C28.6181 37.3424 29.5466 34.2091 28.6895 31.6758C26.9038 26.7424 18.2609 22.4091 18.2609 22.4091ZM26.9038 35.7424C24.4038 38.2091 16.9038 34.8091 16.4752 28.8091C16.4038 28.2091 16.4752 27.6091 16.6181 27.0091C17.8323 27.5424 29.6895 32.9424 26.9038 35.7424Z" fill="white"/>
<path fill-rule="evenodd" clip-rule="evenodd" d="M20.6894 13.4089C21.0466 13.6755 21.4751 13.9422 21.9037 14.2755C22.3323 14.5422 22.6894 14.8089 23.118 15.0755C23.1894 15.1422 23.3323 15.2089 23.4037 15.2755C25.3323 13.2089 27.4751 11.3422 29.7608 9.67552C29.5466 9.54219 29.118 9.20885 28.9037 9.07552C28.118 8.54219 27.3323 8.14219 26.5466 7.74219C24.3323 9.40885 22.2608 11.2755 20.3323 13.2089C20.4751 13.2089 20.618 13.3422 20.6894 13.4089Z" fill="white"/>
<path fill-rule="evenodd" clip-rule="evenodd" d="M18.2609 22.4092C17.5466 23.8758 16.9752 25.4092 16.6181 27.0092C17.2609 27.2758 21.0466 29.0092 23.9038 30.9425H28.2609C25.9038 26.2092 18.2609 22.4092 18.2609 22.4092Z" fill="white"/>
</g>
<defs>
<clipPath id="clip0_598_5041">
<rect width="200" height="40" fill="white" transform="translate(0.832275)"/>
</clipPath>
</defs>
</svg>
