<svg xmlns="http://www.w3.org/2000/svg" width="286.345" height="87.719002" viewBox="0 0 75.762114 23.208985">
  <path
    d="M222.11667 331.88741c-.12965-.32411-.25903-.42121-.45376-.42121-.12939 0-.22649.0323-.4535.12938-.42122.19473-.97208.35666-1.4904.35666-1.03664 0-1.68487-.32385-1.68487-1.45812v-5.92931h3.11045c.51832 0 .71305-.19421.71305-.71279v-1.03664c0-.51858-.19473-.71279-.71305-.71279h-3.11045v-1.97643c0-.51859-.1942-.71279-.71278-.71279h-1.29593c-.51832 0-.71279.1942-.71279.71279v10.30313c0 2.94852 1.78197 4.04998 4.2119 4.04998.90726 0 2.00898-.29157 2.78633-.68024.25929-.12965.35666-.25929.35666-.42122 0-.16192-.0325-.22701-.0974-.42122zm-47.27179-10.82172c-.1942-.19447-.32411-.25903-.48603-.25903-.19421 0-.32412.0646-.55087.29131l-1.97643 1.84706c-1.06919-.74534-2.39739-1.16655-3.82323-1.16655-3.53166 0-6.47991 2.6244-6.47991 6.35026 0 3.72613 2.94825 6.35053 6.47991 6.35053 3.53165 0 6.48017-2.6244 6.48017-6.35053 0-1.16628-.29157-2.23546-.77761-3.14245l2.00898-1.94416c.22649-.19447.25903-.38867.25903-.51859 0-.1942-.0648-.2913-.29157-.55059zm8.09996.71279c-3.53139 0-6.47991 2.6244-6.47991 6.35026 0 3.72613 2.94852 6.35053 6.47991 6.35053 3.53166 0 6.47991-2.6244 6.47991-6.35053 0-3.72586-2.94825-6.35026-6.47991-6.35026zm26.60041 5.1517c-1.68486-.61569-2.42993-.77761-2.42993-1.71741 0-.84217.68051-1.16628 1.62004-1.16628.74507 0 1.42558.19447 2.23573.74533.16193.0971.29157.22675.48604.22675.12938 0 .25903-.0648.38868-.2593l.61568-.87471c.16193-.25929.22675-.35639.22675-.48604 0-.19447-.0974-.29157-.32385-.45349-1.06918-.74534-2.07381-1.16655-3.75841-1.16655-2.0738 0-4.11506 1.2311-4.11506 3.62876 0 1.84679.9398 2.68922 3.30491 3.59648 1.45812.55086 2.6244.93953 2.6244 1.94416 0 .84243-.68024 1.26365-1.74969 1.26365-.93953 0-1.84679-.35666-2.88369-1.2962-.16193-.12964-.29131-.25929-.48604-.25929-.19421 0-.29131.0974-.4535.29184l-.74507.87471c-.0974.12965-.19446.25903-.19446.42122 0 .16192.0971.29157.29157.48604 1.134 1.134 2.68922 1.74942 4.40663 1.74942 2.81861 0 4.53575-1.52268 4.53575-3.7584 0-2.13837-1.45811-3.01308-3.59648-3.79069zm20.60655-5.1517c-3.53166 0-6.54474 2.6244-6.54474 6.35026 0 3.72613 3.01308 6.35053 6.54474 6.35053s6.54473-2.6244 6.54473-6.35053c0-3.72586-3.01307-6.35026-6.54473-6.35026zm-28.64168.32411h-1.29593c-.51832 0-.71305.19421-.71305.71279v6.35026c0 2.00899-1.19856 2.7866-2.65668 2.7866-1.49013 0-2.65695-.77761-2.65695-2.7866v-6.35026c0-.51858-.1942-.71279-.71252-.71279h-1.29593c-.51858 0-.71305.19421-.71305.71279v6.35026c0 3.4343 2.3331 5.31363 5.37845 5.31363 3.04562 0 5.37871-1.87933 5.37871-5.31363v-6.35026c0-.51858-.19473-.71279-.71305-.71279zm-33.5018 9.84965c-2.10609 0-3.82297-1.71741-3.82297-3.8235 0-2.10582 1.71688-3.82296 3.82297-3.82296 2.10608 0 3.82323 1.71714 3.82323 3.82296 0 2.10609-1.71715 3.8235-3.82323 3.8235zm14.93652 0c-2.10608 0-3.82323-1.71741-3.82323-3.8235 0-2.10582 1.71715-3.82296 3.82323-3.82296 2.10608 0 3.82323 1.71714 3.82323 3.82296 0 2.10609-1.71715 3.8235-3.82323 3.8235zm47.20696 0c-2.10609 0-3.82323-1.71741-3.82323-3.8235 0-2.10582 1.71714-3.82296 3.82323-3.82296 2.10608 0 3.82323 1.71714 3.82323 3.82296 0 2.10609-1.71715 3.8235-3.82323 3.8235zm-56.24672 3.23982h-1.36048c-.51859 0-.68078.19447-.68078.64796-.0971 2.04126-1.6846 3.72613-3.8555 3.72613-2.10609 0-3.75841-1.68487-3.85551-3.72613 0-.45349-.16193-.64796-.68025-.64796h-1.36101c-.48604 0-.64797.19447-.64797.61568 0 3.40202 2.85115 6.28545 6.54474 6.28545 3.69358 0 6.54473-2.88343 6.54473-6.28545 0-.42121-.16193-.61568-.64797-.61568z"
    style="fill:white;fill-rule:evenodd;stroke-width:.26458332" transform="translate(-161.199 -319.14879)" />
</svg>