<svg width="121" height="40" viewBox="0 0 121 40" fill="none" xmlns="http://www.w3.org/2000/svg">
<g clip-path="url(#clip0_598_4941)">
<path d="M4.68917 9.17796H9.2549V33.6426C9.2549 37.4467 6.47821 39.9996 2.62818 39.9996H0.840576V35.7021H2.1365C3.70356 35.7021 4.68917 34.9838 4.68917 33.2837V9.17796ZM4.68917 0H9.2549V4.56654H4.68917V0Z" fill="white"/>
<path d="M16.7679 18.4886C16.8566 15.0422 18.8717 13.2072 21.5588 13.2072C24.2457 13.2072 26.2147 15.0422 26.3473 18.4886H16.7679ZM30.9135 22.2473V18.4886C30.9135 12.6248 26.5695 8.90918 21.5592 8.90918C17.1694 8.90918 12.2021 11.7728 12.2021 20.5931C12.2021 29.9037 17.6178 32.1428 22.2747 32.1428C25.3166 32.1428 28.2276 31.0662 30.4642 28.4706L27.1546 25.6521C25.8095 27.0384 23.9305 27.8447 22.1848 27.8447C19.0506 27.8447 16.7681 25.9635 16.7681 22.2473H30.9135Z" fill="white"/>
<path d="M34.5333 2.2832H39.099V9.178H42.4092V12.6698H39.099V25.8742C39.099 27.1289 39.5905 27.5761 40.7065 27.5761H42.4092V31.8736H40.0377C36.8581 31.8736 34.5333 29.8556 34.5333 26.2776V12.6698H32.2465V9.178H34.5333V2.2832Z" fill="white"/>
<path d="M57.5874 17.728C61.168 17.728 62.7764 20.0099 62.7764 22.5165C62.7764 25.0247 61.1675 27.307 57.5874 27.307H50.1549V17.728H57.5874ZM45.318 31.8735H58.7491C63.5401 31.8735 67.6121 28.3367 67.6121 22.8315C67.6121 19.6082 65.9118 16.2957 62.4206 15.4878V15.3997C66.1362 13.7429 67.122 11.1914 67.122 8.55122C67.1216 3.53727 63.8953 0 57.6748 0H45.318V31.8735ZM57.137 4.29907C60.6293 4.29907 62.2852 6.40209 62.2852 8.86459C62.2852 11.3697 60.6293 13.4317 57.137 13.4317H50.1549V4.29907H57.137Z" fill="white"/>
<path d="M70.2366 0H74.8023V26.0088C74.8023 27.0383 75.3846 27.5761 76.5073 27.5761H78.0717V31.8735H76.0574C72.7425 31.8735 70.2366 30.442 70.2366 26.3663V0Z" fill="white"/>
<path d="M79.9957 9.17773H84.5621V22.6954C84.5621 25.7862 86.4862 27.5759 89.086 27.5759C91.6364 27.5759 93.5589 25.7864 93.5589 22.6954V9.17773H98.1266V31.8733H93.5589V29.4547H93.4732C92.0391 31.2464 89.9792 32.1426 87.6058 32.1426C84.0271 32.1426 79.9957 29.4102 79.9957 24.2641V9.17773Z" fill="white"/>
<path d="M105.146 18.4886C105.239 15.0422 107.25 13.2072 109.936 13.2072C112.622 13.2072 114.591 15.0422 114.729 18.4886H105.146ZM119.293 22.2473V18.4886C119.293 12.6248 114.951 8.90918 109.936 8.90918C105.549 8.90918 100.578 11.7728 100.578 20.5931C100.578 29.9037 105.997 32.1428 110.651 32.1428C113.699 32.1428 116.606 31.0662 118.845 28.4706L115.531 25.6523C114.188 27.0386 112.311 27.8451 110.564 27.8451C107.431 27.8451 105.146 25.9641 105.146 22.2475L119.293 22.2473Z" fill="white"/>
</g>
<defs>
<clipPath id="clip0_598_4941">
<rect width="119.31" height="40" fill="white" transform="translate(0.840576)"/>
</clipPath>
</defs>
</svg>
