<svg width="1464px" height="204px" viewBox="0 0 1464 204" version="1.1" xmlns="http://www.w3.org/2000/svg"
    xmlns:xlink="http://www.w3.org/1999/xlink">
    <title>About Nextdoor - logo</title>
    <g id="about-logo-dark" stroke="none" stroke-width="1" fill="none" fill-rule="evenodd">
        <g id="Nextdoor_logo_white-wordmark_RGB" transform="translate(1.000000, 0.000000)" fill="white"
            fill-rule="nonzero">
            <path
                d="M495.481109,60 L458.059643,60 C456.88387,59.9904164 455.782462,60.5770238 455.13037,61.5602423 L427.302274,103.139014 L399.474178,61.5602423 C398.82025,60.5790674 397.720027,59.9930912 396.544905,60 L359.518891,60 C358.222838,59.992337 357.028579,60.7048219 356.414841,61.851969 C355.801103,62.9991161 355.868347,64.3931526 356.589618,65.47527 L401.15851,131.912996 L355.666897,195.436528 C354.894798,196.503184 354.784405,197.915254 355.381276,199.089986 C355.978148,200.264718 357.181086,201.002938 358.493646,201 L396.237331,201 C397.366285,201.002902 398.426126,200.453914 399.078726,199.528174 L427.624494,159.259317 L456.170262,199.528174 C456.82452,200.451994 457.883298,201 459.011657,201 L496.506354,201 C497.818914,201.002938 499.021852,200.264718 499.618724,199.089986 C500.215595,197.915254 500.105202,196.503184 499.333103,195.436528 L453.84149,131.912996 L498.381089,65.47527 C499.099405,64.3975436 499.169216,63.0100233 498.562733,61.8649872 C497.956251,60.7199511 496.771907,60.0032363 495.481109,60 Z"
                id="Path"></path>
            <path
                d="M580.026493,143.620303 L580.026493,93.6671375 L610.809172,93.6671375 C612.738315,93.6671543 614.304462,92.109017 614.312534,90.1816923 L614.312534,63.498999 C614.312534,61.5659527 612.744025,59.9989091 610.809172,59.9989091 L580.026493,59.9989091 L580.026493,24.4854451 C580.018421,22.5581205 578.452274,21 576.523131,21 L544.611754,21 C542.6769,21 541.108392,22.5670436 541.108392,24.5000899 C541.108392,64.0408539 544.362561,59.9989091 515.558768,59.9989091 C514.353593,59.9950188 513.196233,60.4695977 512.341297,61.3182426 C511.486361,62.1668875 511.003881,63.3200808 511,64.5241299 L511,89.1419167 C511,90.3446215 511.479214,91.4978541 512.331824,92.3469198 C513.184434,93.1959856 514.340287,93.6710297 515.54411,93.6671375 L541.12305,93.6671375 L541.12305,151.191627 C541.12305,185.416355 565.236148,201.979541 595.359198,201.979541 C602.757665,202.139863 610.146413,201.357387 617.346826,199.65103 C618.900929,199.25194 619.990594,197.856547 620,196.253453 L620,169.629339 C619.989288,168.548406 619.481306,167.532524 618.622627,166.874818 C617.763947,166.217112 616.650099,165.990752 615.602474,166.261051 C611.826524,167.106273 607.964892,167.509277 604.095616,167.461919 C587.355702,167.461919 580.026493,160.725344 580.026493,143.620303 Z"
                id="Path"></path>
            <path
                d="M739.997296,75.2400173 C733.72506,66.2546032 718.61869,56.4190194 698.96274,56.4190194 C661.064303,56.4190194 632,89.839483 632,129.70951 C632,169.579536 661.064303,203 698.96274,203 C718.61869,203 733.72506,193.164416 739.997296,184.179002 L739.997296,195.363131 C739.997296,196.568277 740.478176,197.724064 741.334149,198.576231 C742.190122,199.428399 743.35107,199.907141 744.561599,199.907141 L775.48107,199.907141 C777.424521,199.907141 779,198.338667 779,196.403856 L779,3.50328544 C779,1.56847432 777.424521,0 775.48107,0 L743.501502,0 C742.569572,0 741.676025,0.369554019 741.018434,1.02697226 C740.360843,1.68439049 739.99338,2.57550684 739.997296,3.50328544 L739.997296,75.2400173 Z M707.222656,167.923171 C685.858774,167.923171 671.326623,151.623366 671.326623,129.724168 C671.326623,107.824969 685.858774,91.5251643 707.222656,91.5251643 C728.586538,91.5251643 743.11869,107.810311 743.11869,129.724168 C743.11869,151.638024 728.615986,167.923171 707.222656,167.923171 Z"
                id="Shape"></path>
            <path
                d="M1204.96903,58.0045072 C1189.09761,58.0045072 1174.64641,68.3908484 1169.82935,82.1465244 L1169.82935,63.1903532 C1169.82935,61.2567057 1168.26265,59.6891747 1166.33002,59.6891747 L1134.49933,59.6891747 C1132.5667,59.6891747 1131,61.2567057 1131,63.1903532 L1131,196.498822 C1131,198.432469 1132.5667,200 1134.49933,200 L1166.33002,200 C1168.26265,200 1169.82935,198.432469 1169.82935,196.498822 L1169.82935,132.920937 C1169.82935,109.906914 1182.01111,95.5799162 1200.43016,95.5799162 C1204.88288,95.5812224 1209.31516,96.1823599 1213.60754,97.3671286 C1214.65506,97.6499209 1215.77446,97.4283982 1216.63551,96.767912 C1217.49656,96.1074257 1218.00099,95.0833489 1218,93.9977937 L1218,62.4139412 C1217.99187,60.7416162 1216.81216,59.3044212 1215.17418,58.9713599 C1211.81732,58.2814442 1208.39566,57.9572703 1204.96903,58.0045072 Z"
                id="Path"></path>
            <path
                d="M872.507319,57 C831.418509,57 798,89.34 798,130.5 C798,171.66 831.418509,204 872.507319,204 C913.596129,204 947,171.66 947,130.5 C947,89.34 913.581491,57 872.507319,57 Z M872.507319,167.9703 C852.101975,167.9703 837.098045,152.1972 837.098045,130.5147 C837.098045,108.8322 852.101975,93.0591 872.507319,93.0591 C892.912663,93.0591 907.638471,108.8322 907.638471,130.5147 C907.638471,152.1972 892.898025,167.9703 872.507319,167.9703 L872.507319,167.9703 Z"
                id="Shape"></path>
            <path
                d="M1036.5,57 C995.429862,57 962,89.34 962,130.5 C962,171.66 995.429862,204 1036.5,204 C1077.57014,204 1111,171.66 1111,130.5 C1111,89.34 1077.48232,57 1036.5,57 Z M1036.5,167.9703 C1016.09666,167.9703 1001.0942,152.1972 1001.0942,130.5147 C1001.0942,108.8322 1016.00884,93.0591 1036.5,93.0591 C1056.99116,93.0591 1071.6277,108.8322 1071.6277,130.5147 C1071.6277,152.1972 1056.81552,167.9703 1036.5,167.9703 L1036.5,167.9703 Z"
                id="Shape"></path>
            <path
                d="M119.091879,55 C92.8658711,55 70.5251981,66.9735514 57.9861643,85.2998183 C56.9412448,86.7635776 55.1604665,90.0863113 52.776284,90.1009489 C41.311604,90.1887745 40.6051796,76.1220472 40.2372502,63.5776297 C40.1512305,61.7118653 38.612392,60.2392247 36.7345623,60.2256208 L3.53261348,60.0060569 C2.58554698,60.0059261 1.67810002,60.3840735 1.01398007,61.0556111 C0.34986013,61.7271486 -0.0152931888,62.6358153 0,63.5776297 C0.736350057,94.2141127 6.40246278,115.02877 43.739938,123.313648 C45.7893344,123.786949 47.2332251,125.612478 47.2131915,127.704926 L47.2131915,196.501615 C47.2131584,197.426775 47.5846777,198.313622 48.2451791,198.965055 C48.9056804,199.616487 49.8004399,199.978532 50.7305966,199.970725 L83.0053633,199.970725 C84.9479725,199.970725 86.5227683,198.404445 86.5227683,196.47234 L86.5227683,125.436099 C86.5227683,109.642136 97.7814079,91.7696346 119.13603,91.7696346 C139.46045,91.7696346 151.734575,109.686049 151.734575,125.436099 L151.734575,196.501615 C151.734575,198.43372 153.309371,200 155.25198,200 L187.497312,200 C189.434171,199.99194 191,198.428018 191,196.501615 L191,120.166566 C190.985283,83.6604078 159.667133,55 119.091879,55 Z"
                id="Path"></path>
            <path
                d="M281.928934,57 C238.620305,57 207,88.8223261 207,130.49267 C207,174.985132 240.048223,203.206318 282.488325,203.98534 C315.816244,204.602678 338.000508,185.553378 343.270558,178.880244 C343.834449,178.133868 344.072728,177.191818 343.931391,176.267604 C343.790055,175.343389 343.281071,174.51527 342.519797,173.970934 L320.364975,156.685458 C317.950761,154.289596 316.081218,155.583067 314.638579,156.75895 C311.090863,159.625164 304.33401,167.900439 282.782741,168.782351 C263.984264,169.546675 247.158376,158.36109 244.891371,139.488173 L348.20203,139.488173 C350.053502,139.476877 351.582185,138.040295 351.705584,136.195701 C352,132.036016 352,128.964022 352,126.259492 C351.985279,80.6646397 319.246193,57 281.928934,57 Z M246.304569,113.324782 C250.014213,96.142196 266.251269,88.8223261 280.780711,88.8223261 C295.310152,88.8223261 309.559898,96.7154388 312.975127,113.324782 L246.304569,113.324782 Z"
                id="Shape"></path>
        </g>
    </g>
</svg>