<svg width="1400" height="800" viewBox="0 0 1400 800" fill="none" xmlns="http://www.w3.org/2000/svg">
  <defs>
    <linearGradient id="bgGradient" x1="0%" y1="0%" x2="100%" y2="100%">
      <stop offset="0%" style="stop-color:#0a0f1a;stop-opacity:1" />
      <stop offset="50%" style="stop-color:#0d1829;stop-opacity:1" />
      <stop offset="100%" style="stop-color:#0a1628;stop-opacity:1" />
    </linearGradient>
    <linearGradient id="blueGlow" x1="0%" y1="0%" x2="100%" y2="0%">
      <stop offset="0%" style="stop-color:#0194E2;stop-opacity:0" />
      <stop offset="50%" style="stop-color:#0194E2;stop-opacity:0.25" />
      <stop offset="100%" style="stop-color:#0194E2;stop-opacity:0" />
    </linearGradient>
    <marker id="arr" markerWidth="12" markerHeight="8" refX="11" refY="4" orient="auto">
      <polygon points="0 0, 12 4, 0 8" fill="#94a3b8"/>
    </marker>
    <filter id="textGlow" x="-50%" y="-50%" width="200%" height="200%">
      <feGaussianBlur stdDeviation="5" result="coloredBlur"/>
      <feMerge><feMergeNode in="coloredBlur"/><feMergeNode in="SourceGraphic"/></feMerge>
    </filter>
  </defs>

  <!-- Background -->
  <rect width="1400" height="800" fill="url(#bgGradient)"/>

  <!-- Grid -->
  <g opacity="0.04">
    <pattern id="grid" width="40" height="40" patternUnits="userSpaceOnUse">
      <path d="M 40 0 L 0 0 0 40" fill="none" stroke="#0194E2" stroke-width="0.5"/>
    </pattern>
    <rect width="1400" height="800" fill="url(#grid)"/>
  </g>


  <!-- ── ARROWS (drawn before nodes so boxes render on top) ── -->

  <!-- Top: SKILL.md → Claude Code (→) -->
  <line x1="507" y1="90" x2="893" y2="90" stroke="#94a3b8" stroke-width="2.5" marker-end="url(#arr)"/>

  <!-- Right: Claude Code → Traces + Judges (↓) -->
  <line x1="1005" y1="127" x2="1005" y2="393" stroke="#94a3b8" stroke-width="2.5" marker-end="url(#arr)"/>

  <!-- Bottom: Traces + Judges → Claude Code refine (←) -->
  <line x1="863" y1="430" x2="507" y2="430" stroke="#94a3b8" stroke-width="2.5" marker-end="url(#arr)"/>

  <!-- Left: Claude Code refine → SKILL.md (↑) -->
  <line x1="395" y1="393" x2="395" y2="127" stroke="#94a3b8" stroke-width="2.5" marker-end="url(#arr)"/>

  <!-- ── NODES (drawn after arrows to cover overlapping line ends) ── -->

  <!-- Node 1: SKILL.md (top-left) -->
  <rect x="285" y="55" width="220" height="70" rx="10" fill="#F97316" stroke="#EA580C" stroke-width="2"/>
  <text x="395" y="97" text-anchor="middle" fill="white" font-family="ui-monospace,'Courier New',monospace" font-size="22" font-weight="700">SKILL.md</text>

  <!-- Node 2: Claude Code (top-right) -->
  <rect x="895" y="55" width="220" height="70" rx="10" fill="#F97316" stroke="#EA580C" stroke-width="2"/>
  <g transform="translate(930, 79) scale(1.4)">
    <path d="m3.127 10.604 3.135-1.76.053-.153-.053-.085H6.11l-.525-.032-1.791-.048-1.554-.065-1.505-.08-.38-.081L0 7.832l.036-.234.32-.214.455.04 1.009.069 1.513.105 1.097.064 1.626.17h.259l.036-.105-.089-.065-.068-.064-1.566-1.062-1.695-1.121-.887-.646-.48-.327-.243-.306-.104-.67.435-.48.585.04.15.04.593.456 1.267.981 1.654 1.218.242.202.097-.068.012-.049-.109-.181-.9-1.626-.96-1.655-.428-.686-.113-.411a2 2 0 0 1-.068-.484l.496-.674L4.446 0l.662.089.279.242.411.94.666 1.48 1.033 2.014.302.597.162.553.06.17h.105v-.097l.085-1.134.157-1.392.154-1.792.052-.504.25-.605.497-.327.387.186.319.456-.045.294-.19 1.23-.37 1.93-.243 1.29h.142l.161-.16.654-.868 1.097-1.372.484-.545.565-.601.363-.287h.686l.505.751-.226.775-.707.895-.585.759-.839 1.13-.524.904.048.072.125-.012 1.897-.403 1.024-.186 1.223-.21.553.258.06.263-.218.536-1.307.323-1.533.307-2.284.54-.028.02.032.04 1.029.098.44.024h1.077l2.005.15.525.346.315.424-.053.323-.807.411-3.631-.863-.872-.218h-.12v.073l.726.71 1.331 1.202 1.667 1.55.084.383-.214.302-.226-.032-1.464-1.101-.565-.497-1.28-1.077h-.084v.113l.295.432 1.557 2.34.08.718-.112.234-.404.141-.444-.08-.911-1.28-.94-1.44-.759-1.291-.093.053-.448 4.821-.21.246-.484.186-.403-.307-.214-.496.214-.98.258-1.28.21-1.016.19-1.263.112-.42-.008-.028-.092.012-.953 1.307-1.448 1.957-1.146 1.227-.274.109-.477-.247.045-.44.266-.39 1.586-2.018.956-1.25.617-.723-.004-.105h-.036l-4.212 2.736-.75.096-.324-.302.04-.496.154-.162 1.267-.871z" fill="white" opacity="0.95"/>
  </g>
  <text x="1020" y="97" text-anchor="middle" fill="white" font-family="system-ui,-apple-system,sans-serif" font-size="20" font-weight="700">Claude Code</text>

  <!-- Node 3: Traces + Judges (bottom-right) -->
  <rect x="865" y="395" width="280" height="70" rx="10" fill="#F97316" stroke="#EA580C" stroke-width="2"/>
  <text x="1005" y="437" text-anchor="middle" fill="white" font-family="system-ui,-apple-system,sans-serif" font-size="20" font-weight="700">Traces + Judges</text>

  <!-- Node 4: Claude Code (bottom-left) -->
  <rect x="285" y="395" width="220" height="70" rx="10" fill="#F97316" stroke="#EA580C" stroke-width="2"/>
  <g transform="translate(320, 419) scale(1.4)">
    <path d="m3.127 10.604 3.135-1.76.053-.153-.053-.085H6.11l-.525-.032-1.791-.048-1.554-.065-1.505-.08-.38-.081L0 7.832l.036-.234.32-.214.455.04 1.009.069 1.513.105 1.097.064 1.626.17h.259l.036-.105-.089-.065-.068-.064-1.566-1.062-1.695-1.121-.887-.646-.48-.327-.243-.306-.104-.67.435-.48.585.04.15.04.593.456 1.267.981 1.654 1.218.242.202.097-.068.012-.049-.109-.181-.9-1.626-.96-1.655-.428-.686-.113-.411a2 2 0 0 1-.068-.484l.496-.674L4.446 0l.662.089.279.242.411.94.666 1.48 1.033 2.014.302.597.162.553.06.17h.105v-.097l.085-1.134.157-1.392.154-1.792.052-.504.25-.605.497-.327.387.186.319.456-.045.294-.19 1.23-.37 1.93-.243 1.29h.142l.161-.16.654-.868 1.097-1.372.484-.545.565-.601.363-.287h.686l.505.751-.226.775-.707.895-.585.759-.839 1.13-.524.904.048.072.125-.012 1.897-.403 1.024-.186 1.223-.21.553.258.06.263-.218.536-1.307.323-1.533.307-2.284.54-.028.02.032.04 1.029.098.44.024h1.077l2.005.15.525.346.315.424-.053.323-.807.411-3.631-.863-.872-.218h-.12v.073l.726.71 1.331 1.202 1.667 1.55.084.383-.214.302-.226-.032-1.464-1.101-.565-.497-1.28-1.077h-.084v.113l.295.432 1.557 2.34.08.718-.112.234-.404.141-.444-.08-.911-1.28-.94-1.44-.759-1.291-.093.053-.448 4.821-.21.246-.484.186-.403-.307-.214-.496.214-.98.258-1.28.21-1.016.19-1.263.112-.42-.008-.028-.092.012-.953 1.307-1.448 1.957-1.146 1.227-.274.109-.477-.247.045-.44.266-.39 1.586-2.018.956-1.25.617-.723-.004-.105h-.036l-4.212 2.736-.75.096-.324-.302.04-.496.154-.162 1.267-.871z" fill="white" opacity="0.95"/>
  </g>
  <text x="410" y="437" text-anchor="middle" fill="white" font-family="system-ui,-apple-system,sans-serif" font-size="20" font-weight="700">Claude Code</text>

  <!-- ── CENTER TEXT ── -->
  <text x="700" y="252" text-anchor="middle" fill="#43C9ED" font-family="system-ui,-apple-system,sans-serif" font-size="32" font-weight="700" filter="url(#textGlow)">Auto Refinement</text>

  <!-- ── MLflow LOGO (centered at bottom) ── -->
  <g transform="translate(571, 570) scale(2.5)">
    <path d="M0 31.0316V15.5024H3.54258V17.4699C4.43636 15.8756 6.38278 15.045 8.13589 15.045C10.178 15.045 11.9636 15.9713 12.7943 17.7895C14.0096 15.7474 15.8278 15.045 17.8373 15.045C20.6469 15.045 23.3263 16.8325 23.3263 20.9493V31.0316H19.7531V21.5541C19.7531 19.7359 18.8268 18.3636 16.7522 18.3636C14.8057 18.3636 13.5292 19.8947 13.5292 21.8086V31.0297H9.89282V21.5541C9.89282 19.7684 8.99522 18.3732 6.88995 18.3732C4.91292 18.3732 3.66699 19.8412 3.66699 21.8182V31.0392Z" fill="#ffffff"/>
    <path d="M27.8546 31.0316V7.92917H31.5579V31.0316Z" fill="#ffffff"/>
    <path d="M30.0708 39.4871C30.9033 39.7187 31.6517 39.8699 33.2402 39.8699C36.1933 39.8699 39.6765 38.2048 40.5933 33.5311L44.3789 14.7923H50.0076L50.6947 11.6746H45.0086L45.7741 7.95023C46.3598 5.05837 47.9598 3.59234 50.5282 3.59234C51.1962 3.59234 51.0086 3.64975 51.6038 3.76267L52.4268 0.570327C51.6344 0.333006 50.9244 0.191379 49.378 0.191379C47.7454 0.166831 46.1514 0.688934 44.8497 1.67463C43.4086 2.78851 42.4574 4.42487 42.023 6.53779L40.9569 11.6746H35.9234L35.5119 14.7943H40.3349L36.8593 32.1206C36.4765 34.0861 35.3588 36.4364 32.1512 36.4364C31.4239 36.4364 31.688 36.3809 31.0297 36.2737Z" fill="#0194E2"/>
    <path d="M53.3416 30.9053H49.6402L54.7139 7.59616H58.4153Z" fill="#0194E2"/>
    <path d="M71.8067 16.4766C68.5762 14.2161 64.1778 14.6606 61.4649 17.5216C58.7519 20.3826 58.5416 24.7984 60.9703 27.9043L63.3952 26.1244C62.1915 24.6312 61.9471 22.5815 62.7658 20.8471C63.5845 19.1127 65.3224 17.9987 67.2402 17.979V19.8737Z" fill="#43C9ED"/>
    <path d="M62.6179 29.4717C65.8484 31.7322 70.2468 31.2877 72.9597 28.4267C75.6727 25.5657 75.883 21.1499 73.4543 18.044L71.0294 19.8239C72.2331 21.3171 72.4775 23.3668 71.6588 25.1012C70.8401 26.8356 69.1022 27.9496 67.1844 27.9693V26.0746Z" fill="#0194E2"/>
    <path d="M78.0919 15.4928H82.1359L82.9588 26.1053L88.7177 15.4928L92.5569 15.5483L94.0651 26.1053L99.1387 15.4928L102.84 15.5483L95.1617 31.0412H91.4603L89.6765 19.9349L83.7818 31.0412H79.9426Z" fill="#0194E2"/>
  </g>
</svg>
