<svg width="48" height="48" viewBox="0 0 48 48" fill="none" xmlns="http://www.w3.org/2000/svg">
<path fill-rule="evenodd" clip-rule="evenodd" d="M17.2501 3C16.0075 3 15.0001 4.00736 15.0001 5.25V23.5162C15.0001 24.6553 14.4823 25.7328 13.5927 26.4444L5.55541 32.8743C3.94024 34.1664 3 36.1227 3 38.1911C3 41.9516 6.04844 45 9.80889 45H38.1911C41.9516 45 45 41.9516 45 38.1911C45 36.1227 44.0598 34.1664 42.4446 32.8743L34.4075 26.4446C33.518 25.733 33.0001 24.6555 33.0001 23.5163V5.25C33.0001 4.00736 31.9928 3 30.7501 3H17.2501ZM19.5001 23.5162V7.5H28.5001V23.5163C28.5001 25.3341 29.0994 27.0804 30.1754 28.5H17.8247C18.9008 27.0804 19.5001 25.334 19.5001 23.5162ZM12.6018 33L8.36654 36.3882C7.81883 36.8263 7.5 37.4897 7.5 38.1911C7.5 39.4663 8.53372 40.5 9.80889 40.5H38.1911C39.4663 40.5 40.5 39.4663 40.5 38.1911C40.5 37.4897 40.1812 36.8263 39.6335 36.3882L35.3982 33H12.6018Z" fill="#43C9ED"/>
</svg>
