<svg width="48" height="48" viewBox="0 0 48 48" fill="none" xmlns="http://www.w3.org/2000/svg">
<path fill-rule="evenodd" clip-rule="evenodd" d="M18.0036 14.25C24.2151 14.2481 29.25 9.21201 29.25 3H33.75C33.75 9.2132 38.7868 14.25 45 14.25V18.75H44.9964C38.7849 18.7519 33.75 23.788 33.75 30L29.25 30C29.25 23.788 24.2151 18.7519 18.0036 18.75C18.0024 18.75 18.0012 18.75 18 18.75V14.25C18.0012 14.25 18.0024 14.25 18.0036 14.25ZM26.1171 16.5C28.3205 17.8277 30.1723 19.6795 31.5 21.8829C32.8277 19.6795 34.6795 17.8277 36.8829 16.5C34.6795 15.1723 32.8277 13.3205 31.5 11.1171C30.1723 13.3205 28.3205 15.1723 26.1171 16.5ZM9.75 27C9.75 30.7279 6.72792 33.75 3 33.75V38.25C6.72792 38.25 9.75 41.2721 9.75 45H14.25C14.25 41.2721 17.2721 38.25 21 38.25V33.75C17.2721 33.75 14.25 30.7279 14.25 27H9.75ZM12 38.2489C12.6397 37.3974 13.3974 36.6397 14.2489 36C13.3974 35.3603 12.6397 34.6026 12 33.7511C11.3603 34.6026 10.6026 35.3603 9.7511 36C10.6026 36.6397 11.3603 37.3974 12 38.2489Z" fill="#43C9ED"/>
</svg>
