<svg width="48" height="48" viewBox="0 0 48 48" fill="none" xmlns="http://www.w3.org/2000/svg">
<path fill-rule="evenodd" clip-rule="evenodd" d="M14.25 4.5C12.1789 4.5 10.5 6.17893 10.5 8.25C10.5 10.3211 12.1789 12 14.25 12C16.3211 12 18 10.3211 18 8.25C18 6.17893 16.3211 4.5 14.25 4.5ZM6 8.25C6 3.69365 9.69365 0 14.25 0C18.8063 0 22.5 3.69365 22.5 8.25C22.5 12.0263 19.9628 15.2101 16.5 16.1895V20.25H27.75C32.3064 20.25 36 23.9437 36 28.5V28.8106C39.4628 29.7899 42 32.9737 42 36.75C42 41.3064 38.3064 45 33.75 45C29.1937 45 25.5 41.3064 25.5 36.75C25.5 32.9737 28.0372 29.7899 31.5 28.8106V28.5C31.5 26.4289 29.8211 24.75 27.75 24.75H16.5V28.8106C19.9628 29.7899 22.5 32.9737 22.5 36.75C22.5 41.3064 18.8063 45 14.25 45C9.69365 45 6 41.3064 6 36.75C6 32.9737 8.53724 29.7899 12 28.8106V16.1895C8.53724 15.2101 6 12.0263 6 8.25ZM10.5 36.75C10.5 34.6789 12.1789 33 14.25 33C16.3211 33 18 34.6789 18 36.75C18 38.8211 16.3211 40.5 14.25 40.5C12.1789 40.5 10.5 38.8211 10.5 36.75ZM30 36.75C30 34.6789 31.6789 33 33.75 33C35.8211 33 37.5 34.6789 37.5 36.75C37.5 38.8211 35.8211 40.5 33.75 40.5C31.6789 40.5 30 38.8211 30 36.75Z" fill="#43C9ED"/>
</svg>
