<svg xmlns="http://www.w3.org/2000/svg" width="32" height="30" viewBox="0 0 32 30" fill="none">
  <path d="M15.9023 25.7679C19.0067 25.7679 21.984 24.5347 24.1792 22.3396C26.3743 20.1444 27.6075 17.1671 27.6075 14.0627C27.6075 10.9583 26.3743 7.98098 24.1792 5.78581C21.984 3.59065 19.0067 2.35742 15.9023 2.35742C12.7979 2.35742 9.82058 3.59065 7.62541 5.78581C5.43025 7.98098 4.19702 10.9583 4.19702 14.0627C4.19702 17.1671 5.43025 20.1444 7.62541 22.3396C9.82058 24.5347 12.7979 25.7679 15.9023 25.7679Z" fill="#FFD21E"/>
  <path d="M27.6076 14.0634C27.6076 10.9589 26.3744 7.98167 24.1792 5.7865C21.9841 3.59134 19.0068 2.35811 15.9024 2.35811C12.7979 2.35811 9.82065 3.59134 7.62549 5.7865C5.43033 7.98167 4.1971 10.9589 4.1971 14.0634C4.1971 17.1678 5.43033 20.1451 7.62549 22.3402C9.82065 24.5354 12.7979 25.7686 15.9024 25.7686C19.0068 25.7686 21.9841 24.5354 24.1792 22.3402C26.3744 20.1451 27.6076 17.1678 27.6076 14.0634ZM2.84973 14.0634C2.84973 12.3493 3.18735 10.652 3.8433 9.06835C4.49926 7.48473 5.46071 6.04582 6.67276 4.83377C7.88481 3.62172 9.32372 2.66027 10.9073 2.00431C12.491 1.34836 14.1883 1.01074 15.9024 1.01074C17.6165 1.01074 19.3138 1.34836 20.8974 2.00431C22.481 2.66027 23.9199 3.62172 25.132 4.83377C26.344 6.04582 27.3055 7.48473 27.9614 9.06835C28.6174 10.652 28.955 12.3493 28.955 14.0634C28.955 17.5251 27.5798 20.8451 25.132 23.293C22.6841 25.7408 19.3641 27.116 15.9024 27.116C12.4406 27.116 9.1206 25.7408 6.67276 23.293C4.22492 20.8451 2.84973 17.5251 2.84973 14.0634Z" fill="#FF9D0B"/>
  <path d="M19.7053 10.8798C20.1364 11.0281 20.3049 11.9106 20.7394 11.6815C21.0336 11.5253 21.2749 11.2854 21.4328 10.992C21.5906 10.6986 21.6579 10.3651 21.6262 10.0334C21.5944 9.70182 21.465 9.38708 21.2544 9.129C21.0437 8.87092 20.7613 8.68111 20.4428 8.58358C20.1242 8.48604 19.7839 8.48515 19.4649 8.58103C19.1458 8.67691 18.8624 8.86525 18.6504 9.12223C18.4384 9.3792 18.3074 9.69328 18.2739 10.0247C18.2405 10.3562 18.306 10.6901 18.4623 10.9843C18.6678 11.3716 19.3213 10.7417 19.7087 10.8765L19.7053 10.8798ZM11.7727 10.8798C11.3415 11.0281 11.1697 11.9106 10.7386 11.6815C10.4443 11.5253 10.203 11.2854 10.0452 10.992C9.88733 10.6986 9.82003 10.3651 9.85179 10.0334C9.88354 9.70182 10.0129 9.38708 10.2236 9.129C10.4342 8.87092 10.7167 8.68111 11.0352 8.58358C11.3537 8.48604 11.694 8.48515 12.0131 8.58103C12.3321 8.67691 12.6155 8.86525 12.8275 9.12223C13.0395 9.3792 13.1705 9.69328 13.204 10.0247C13.2375 10.3562 13.1719 10.6901 13.0156 10.9843C12.8101 11.3716 12.1533 10.7417 11.7693 10.8765L11.7727 10.8798Z" fill="#3A3B45"/>
  <path d="M15.8181 18.9613C19.1292 18.9613 20.197 16.0106 20.197 14.4948C20.197 13.7066 19.6682 13.9558 18.8193 14.3735C18.0345 14.7609 16.9802 15.2965 15.8215 15.2965C13.3996 15.2965 11.4425 12.979 11.4425 14.4948C11.4425 16.0106 12.5069 18.9613 15.8215 18.9613H15.8181Z" fill="#FF323D"/>
  <path fill-rule="evenodd" clip-rule="evenodd" d="M13.2817 18.1896C13.4595 17.8284 13.7097 17.5077 14.0169 17.2475C14.324 16.9873 14.6815 16.7932 15.067 16.6772C15.2017 16.6368 15.3398 16.8692 15.4847 17.1084C15.6194 17.3374 15.7609 17.5698 15.9024 17.5698C16.0539 17.5698 16.2055 17.3408 16.3504 17.1151C16.5019 16.8793 16.6502 16.6503 16.795 16.6941C17.5186 16.9238 18.1233 17.4281 18.4792 18.0987C19.7356 17.1084 20.1971 15.4915 20.1971 14.4945C20.1971 13.7063 19.6683 13.9555 18.8194 14.3732L18.7723 14.3968C17.9942 14.7842 16.9567 15.2962 15.8182 15.2962C14.6796 15.2962 13.6455 14.7842 12.8641 14.3968C11.9883 13.9623 11.4392 13.6894 11.4392 14.4945C11.4392 15.5218 11.931 17.2094 13.2817 18.1896Z" fill="#3A3B45"/>
  <path d="M23.8182 12.4629C24.1085 12.4629 24.387 12.3476 24.5923 12.1423C24.7976 11.937 24.9129 11.6585 24.9129 11.3682C24.9129 11.0778 24.7976 10.7994 24.5923 10.5941C24.387 10.3888 24.1085 10.2734 23.8182 10.2734C23.5278 10.2734 23.2494 10.3888 23.0441 10.5941C22.8388 10.7994 22.7234 11.0778 22.7234 11.3682C22.7234 11.6585 22.8388 11.937 23.0441 12.1423C23.2494 12.3476 23.5278 12.4629 23.8182 12.4629ZM8.155 12.4629C8.44535 12.4629 8.7238 12.3476 8.9291 12.1423C9.1344 11.937 9.24974 11.6585 9.24974 11.3682C9.24974 11.0778 9.1344 10.7994 8.9291 10.5941C8.7238 10.3888 8.44535 10.2734 8.155 10.2734C7.86466 10.2734 7.58621 10.3888 7.38091 10.5941C7.17561 10.7994 7.06027 11.0778 7.06027 11.3682C7.06027 11.6585 7.17561 11.937 7.38091 12.1423C7.58621 12.3476 7.86466 12.4629 8.155 12.4629ZM5.90153 16.1682C5.35585 16.1682 4.87079 16.3905 4.53058 16.7981C4.24048 17.1564 4.08231 17.6035 4.08258 18.0646C3.87049 18.0008 3.65056 17.9668 3.42911 17.9635C2.907 17.9635 2.43542 18.1623 2.10195 18.5227C1.80444 18.8316 1.61686 19.2299 1.56816 19.656C1.51946 20.0822 1.61234 20.5125 1.83248 20.8806C1.53437 21.124 1.32288 21.4571 1.22953 21.8305C1.14869 22.1336 1.06785 22.7736 1.499 23.4271C1.33737 23.6756 1.24119 23.9609 1.2194 24.2566C1.19761 24.5522 1.25092 24.8486 1.37437 25.1181C1.71795 25.8995 2.5769 26.5126 4.24427 27.1728C5.27837 27.5838 6.22827 27.8465 6.235 27.8499C7.43496 28.1823 8.67179 28.3634 9.91669 28.3888C11.8906 28.3888 13.302 27.7825 14.1137 26.5901C15.4207 24.6734 15.2354 22.9185 13.5411 21.2275C12.6081 20.2911 11.9849 18.9134 11.8569 18.6103C11.5942 17.7143 10.9003 16.7172 9.75164 16.7172C9.44606 16.7221 9.14605 16.7998 8.87655 16.9439C8.60705 17.088 8.37584 17.2944 8.20216 17.5459C7.86532 17.1214 7.53521 16.788 7.23879 16.596C6.84324 16.3282 6.37907 16.1797 5.90153 16.1682ZM5.90153 17.5155C6.07332 17.5155 6.28553 17.5896 6.51458 17.7345C7.23542 18.1926 8.61985 20.5741 9.12848 21.5004C9.2969 21.8103 9.58995 21.9416 9.84932 21.9416C10.3714 21.9416 10.7756 21.4263 9.89985 20.7694C8.57942 19.7825 9.0409 18.169 9.67079 18.0713C9.69774 18.0646 9.72806 18.0646 9.75164 18.0646C10.3243 18.0646 10.5769 19.0515 10.5769 19.0515C10.5769 19.0515 11.318 20.9109 12.5912 22.1842C13.8611 23.4541 13.9285 24.4747 13.0022 25.8322C12.3689 26.7585 11.1596 27.0381 9.91669 27.0381C8.63332 27.0381 7.3129 26.7349 6.57521 26.5463C6.53816 26.5362 2.04469 25.2663 2.61395 24.1884C2.70827 24.0065 2.86658 23.9324 3.06532 23.9324C3.867 23.9324 5.32216 25.1248 5.95206 25.1248C6.09016 25.1248 6.18785 25.0675 6.23164 24.9227C6.49774 23.9627 2.16932 23.5585 2.53311 22.1707C2.60048 21.9248 2.77227 21.8271 3.01816 21.8271C4.07585 21.8271 6.45395 23.6899 6.95248 23.6899C6.98953 23.6899 7.01985 23.6798 7.03332 23.6562C7.28258 23.252 7.14448 22.969 5.38279 21.9046C3.62785 20.8402 2.39164 20.2002 3.09227 19.4355C3.17311 19.348 3.28764 19.3075 3.42911 19.3075C4.4969 19.3075 7.01985 21.6048 7.01985 21.6048C7.01985 21.6048 7.70027 22.3122 8.11458 22.3122C8.2089 22.3122 8.28974 22.2785 8.34364 22.1842C8.63332 21.6924 5.62869 19.4153 5.46027 18.4755C5.34574 17.8355 5.54111 17.5155 5.90153 17.5155Z" fill="#FF9D0B"/>
  <path d="M13.0021 25.8321C13.9284 24.4713 13.8611 23.4507 12.5912 22.1808C11.3179 20.9109 10.5769 19.0481 10.5769 19.0481C10.5769 19.0481 10.3007 17.9702 9.67076 18.0713C9.04087 18.1724 8.5794 19.7825 9.89982 20.7694C11.2169 21.7564 9.63708 22.4267 9.12845 21.5004C8.62319 20.574 7.2354 18.1926 6.51455 17.7345C5.79708 17.2797 5.29182 17.5324 5.46024 18.4755C5.62866 19.4153 8.63666 21.6924 8.34361 22.1808C8.05055 22.6759 7.01982 21.6048 7.01982 21.6048C7.01982 21.6048 3.79624 18.6709 3.09224 19.4355C2.39161 20.2001 3.62782 20.8401 5.38276 21.9046C7.14445 22.969 7.28255 23.2519 7.03329 23.6561C6.78066 24.0604 2.89687 20.7829 2.53308 22.174C2.16929 23.5585 6.49771 23.9593 6.23161 24.9193C5.96213 25.8793 3.17982 23.1071 2.61392 24.185C2.04129 25.2662 6.53813 26.5361 6.57519 26.5462C8.02361 26.9235 11.712 27.7218 13.0021 25.8321Z" fill="#FFD21E"/>
  <path d="M26.0716 16.168C26.6173 16.168 27.1057 16.3903 27.4426 16.7979C27.7327 17.1562 27.8909 17.6033 27.8906 18.0644C28.1038 18.0003 28.3248 17.9663 28.5474 17.9633C29.0695 17.9633 29.5411 18.1621 29.8746 18.5225C30.1721 18.8314 30.3597 19.2297 30.4084 19.6558C30.4571 20.082 30.3642 20.5123 30.1441 20.8804C30.4409 21.1243 30.6512 21.4574 30.7436 21.8303C30.8245 22.1334 30.9053 22.7734 30.4742 23.4269C30.6358 23.6754 30.732 23.9607 30.7538 24.2564C30.7755 24.552 30.7222 24.8484 30.5988 25.1179C30.2552 25.8993 29.3963 26.5124 27.7323 27.1726C26.6948 27.5835 25.7449 27.8463 25.7382 27.8497C24.5382 28.1821 23.3014 28.3632 22.0565 28.3886C20.0826 28.3886 18.6712 27.7823 17.8594 26.5899C16.5525 24.6732 16.7377 22.9183 18.4321 21.2273C19.3685 20.2909 19.9916 18.9132 20.1196 18.6101C20.3824 17.7141 21.0729 16.717 22.2215 16.717C22.5271 16.7219 22.8271 16.7996 23.0966 16.9437C23.3661 17.0878 23.5973 17.2942 23.771 17.5457C24.1078 17.1212 24.438 16.7878 24.7377 16.5958C25.1323 16.3286 25.5953 16.1801 26.0716 16.168ZM26.0716 17.5153C25.8998 17.5153 25.691 17.5894 25.4586 17.7343C24.7411 18.1924 23.3533 20.5739 22.8447 21.5002C22.776 21.6324 22.6726 21.7433 22.5456 21.821C22.4186 21.8988 22.2728 21.9404 22.1238 21.9414C21.6051 21.9414 21.1975 21.4261 22.0767 20.7692C23.3937 19.7823 22.9323 18.1688 22.3024 18.0711C22.2756 18.0668 22.2486 18.0645 22.2215 18.0644C21.6489 18.0644 21.3963 19.0513 21.3963 19.0513C21.3963 19.0513 20.6552 20.9107 19.3853 22.184C18.1121 23.4539 18.0447 24.4745 18.9744 25.832C19.6043 26.7583 20.8169 27.0379 22.0565 27.0379C23.3432 27.0379 24.6603 26.7347 25.4013 26.5461C25.435 26.536 29.9318 25.2661 29.3626 24.1882C29.2649 24.0063 29.11 23.9322 28.9112 23.9322C28.1095 23.9322 26.651 25.1246 26.0245 25.1246C25.883 25.1246 25.7853 25.0673 25.7449 24.9225C25.4754 23.9625 29.8038 23.5583 29.4401 22.1705C29.3761 21.9246 29.2043 21.8269 28.955 21.8269C27.8973 21.8269 25.5192 23.6897 25.0207 23.6897C24.987 23.6897 24.9567 23.6795 24.9432 23.656C24.694 23.2518 24.8287 22.9688 26.587 21.9044C28.3487 20.84 29.5849 20.2 28.8775 19.4353C28.8001 19.3478 28.6855 19.3073 28.5474 19.3073C27.4763 19.3073 24.9533 21.6046 24.9533 21.6046C24.9533 21.6046 24.2729 22.312 23.8619 22.312C23.8156 22.314 23.7697 22.3032 23.7292 22.2805C23.6888 22.2579 23.6554 22.2245 23.6329 22.184C23.3398 21.6922 26.3445 19.4151 26.5129 18.4753C26.6274 17.8353 26.4321 17.5153 26.0716 17.5153Z" fill="#FF9D0B"/>
  <path d="M18.9744 25.8321C18.048 24.4713 18.112 23.4507 19.3853 22.1808C20.6552 20.9109 21.3962 19.0481 21.3962 19.0481C21.3962 19.0481 21.6725 17.9702 22.3057 18.0713C22.9322 18.1724 23.3937 19.7825 22.0767 20.7694C20.7562 21.7564 22.3394 22.4267 22.8447 21.5004C23.3533 20.574 24.7411 18.1926 25.4586 17.7345C26.176 17.2797 26.6847 17.5324 26.5129 18.4755C26.3445 19.4153 23.3398 21.6924 23.6329 22.1808C23.9226 22.6759 24.9533 21.6048 24.9533 21.6048C24.9533 21.6048 28.1802 18.6709 28.8809 19.4355C29.5815 20.2001 28.3487 20.8401 26.5904 21.9046C24.8287 22.969 24.6939 23.2519 24.9398 23.6561C25.1925 24.0604 29.0763 20.7829 29.44 22.174C29.8038 23.5585 25.4788 23.9593 25.7449 24.9193C26.0144 25.8793 28.7933 23.1071 29.3626 24.185C29.9318 25.2662 25.4384 26.5361 25.4013 26.5462C23.9495 26.9235 20.2611 27.7218 18.9744 25.8321Z" fill="#FFD21E"/>
</svg>