<svg xmlns="http://www.w3.org/2000/svg" width="32" height="16" viewBox="0 0 32 16" fill="none">
  <path d="M24.8949 13.303C24.9913 13.1972 25.0831 13.0915 25.1738 12.9845C25.1877 12.9683 25.2005 12.952 25.2145 12.9357C25.4051 12.7045 25.5817 12.4708 25.7398 12.2326C25.7421 12.2291 25.7456 12.2245 25.7479 12.221C25.8281 12.1001 25.9037 11.9781 25.9757 11.856C25.9792 11.8502 25.9815 11.8456 25.985 11.8398C26.6289 10.7322 26.8892 9.57807 26.5882 8.46931C26.5673 8.39028 26.5417 8.31241 26.515 8.23338C26.5127 8.22757 26.5104 8.22176 26.5092 8.21595C26.4836 8.14389 26.4557 8.07183 26.4255 7.99977C26.4209 7.98931 26.4162 7.97886 26.4116 7.9684C26.3825 7.90215 26.3511 7.8359 26.3186 7.77082C26.3116 7.75571 26.3035 7.7406 26.2953 7.72549C26.264 7.66505 26.2291 7.60346 26.1942 7.54302C26.1838 7.52443 26.1722 7.50583 26.1617 7.48724C26.1268 7.43029 26.0908 7.3745 26.0524 7.31755C26.0385 7.29663 26.0245 7.27571 26.0094 7.25363C25.9722 7.20017 25.9316 7.1467 25.8909 7.09324C25.8735 7.07116 25.8572 7.04791 25.8398 7.02583C25.7968 6.97237 25.7514 6.91891 25.7049 6.86545C25.6863 6.84453 25.6701 6.82361 25.6515 6.80269C25.5852 6.72947 25.5167 6.65624 25.4446 6.58419C24.8298 5.96937 24.172 5.58932 23.4944 5.40918C23.413 5.61606 23.3561 5.81712 23.3235 6.01121C23.2573 6.40753 23.2933 6.76666 23.4363 7.11067C23.7303 7.24665 24.0127 7.45353 24.2928 7.73363C24.3568 7.79755 24.4149 7.86031 24.4707 7.92423C24.4788 7.93353 24.4881 7.94283 24.4962 7.95329C24.5497 8.01605 24.6008 8.07997 24.6462 8.14273C24.6508 8.1497 24.6554 8.15668 24.6613 8.16365C24.7589 8.30079 24.8402 8.43793 24.9042 8.57856C25.0843 8.97372 25.1308 9.38514 25.0483 9.8326C24.996 10.1162 24.8937 10.4102 24.7449 10.7136C24.6392 10.9297 24.5102 11.1506 24.3579 11.3725C24.3533 11.3795 24.3486 11.3853 24.344 11.3923C24.2975 11.4597 24.2498 11.526 24.1999 11.5934C24.194 11.6003 24.1894 11.6073 24.1847 11.6143C24.0778 11.7561 23.9616 11.899 23.8372 12.0431C23.8221 12.0606 23.8059 12.0792 23.7896 12.0966C23.7431 12.1501 23.6943 12.2024 23.6455 12.2558C23.6269 12.2756 23.6094 12.2954 23.5909 12.3151C23.5258 12.3848 23.4584 12.4546 23.3886 12.5231C22.4577 13.4541 21.5267 14.0282 20.6981 14.1816C19.924 14.3246 19.2581 14.0852 18.6003 13.4274C17.9424 12.7695 17.6763 12.0652 17.81 11.2575C17.9494 10.416 18.5212 9.45604 19.422 8.55648C20.0344 7.94399 20.6737 7.48375 21.285 7.2083C21.1641 6.64811 21.1653 6.06584 21.2885 5.4731C20.2402 5.78574 19.2069 6.47145 18.2725 7.40588C16.0655 9.61294 15.2426 12.3709 17.4508 14.578C19.6591 16.785 22.3333 15.882 24.5416 13.6737C24.6473 13.568 24.7496 13.4611 24.8484 13.353C24.8646 13.3355 24.8809 13.3181 24.8972 13.3007L24.8949 13.303Z" fill="#C5CED4"/>
  <path d="M23.5537 2.1234C23.4479 2.22917 23.3456 2.33725 23.2457 2.44534C23.2294 2.46277 23.2131 2.48021 23.1969 2.4988C23.1016 2.60456 23.0086 2.71149 22.9203 2.81957C22.9063 2.83585 22.8935 2.85328 22.8796 2.86955C22.6901 3.10316 22.5158 3.34025 22.3601 3.58083C22.3577 3.58432 22.3554 3.5878 22.3531 3.59245C22.2741 3.71449 22.1997 3.83884 22.1299 3.96204C22.1265 3.96785 22.123 3.97366 22.1206 3.97947C21.9068 4.36068 21.7394 4.74887 21.6232 5.13937C21.4024 5.87738 21.3664 6.62237 21.5593 7.34527C21.5802 7.42546 21.6058 7.50682 21.6325 7.58585C21.6383 7.60329 21.6453 7.61956 21.6511 7.63699C21.6732 7.69975 21.6976 7.76251 21.7232 7.82527C21.7325 7.84851 21.7441 7.87176 21.7534 7.895C21.7778 7.95079 21.8034 8.00658 21.8312 8.06236C21.844 8.08909 21.858 8.11583 21.8719 8.14256C21.8987 8.19486 21.9277 8.24599 21.9579 8.29829C21.9742 8.32619 21.9905 8.35524 22.0079 8.38314C22.0381 8.43311 22.0707 8.48193 22.1032 8.5319C22.1218 8.56096 22.1416 8.58885 22.1613 8.61791C22.1962 8.66672 22.2322 8.71669 22.2694 8.76551C22.2903 8.7934 22.3112 8.82129 22.3333 8.84803C22.3752 8.90033 22.4182 8.95146 22.4635 9.0026C22.4844 9.02585 22.503 9.05025 22.5239 9.0735C22.5902 9.14788 22.6599 9.22226 22.7331 9.29548C23.3328 9.89519 23.9663 10.2636 24.6159 10.4403C24.7112 10.2183 24.7798 10.001 24.8193 9.79175C24.8879 9.41984 24.86 9.08163 24.7287 8.75621C24.4404 8.62488 24.1615 8.42265 23.8849 8.14604C23.821 8.08212 23.7617 8.0182 23.7048 7.95311C23.6966 7.94382 23.6873 7.93336 23.6792 7.92406C23.6246 7.86014 23.5723 7.79505 23.5246 7.72997C23.52 7.72416 23.5165 7.71834 23.5118 7.71253C23.4119 7.57307 23.3282 7.43244 23.2608 7.28948C23.0702 6.87806 23.0156 6.44804 23.0934 5.97617C23.1376 5.70654 23.2271 5.42528 23.3572 5.13705C23.3886 5.06615 23.4235 4.99642 23.4607 4.92436C23.4677 4.91158 23.4735 4.89879 23.4804 4.88717C23.5153 4.81976 23.5525 4.75351 23.592 4.68611C23.5955 4.68146 23.5978 4.67564 23.6013 4.671C23.6443 4.59661 23.6908 4.52339 23.7396 4.44901C23.7454 4.43971 23.7524 4.43042 23.7594 4.41996C23.8001 4.3572 23.8431 4.2956 23.8884 4.23284C23.9 4.21657 23.9116 4.19913 23.9244 4.18286C23.9721 4.11662 24.022 4.05037 24.0743 3.98528C24.079 3.97947 24.0825 3.97366 24.0871 3.96901C24.1429 3.89812 24.2022 3.82722 24.2626 3.75633C24.2777 3.73889 24.2928 3.72146 24.3079 3.70403C24.3556 3.6494 24.4032 3.59594 24.4532 3.54132C24.4707 3.52156 24.4893 3.5018 24.5078 3.48204C24.5729 3.41231 24.6392 3.34374 24.7077 3.274C25.6073 2.37444 26.5673 1.80147 27.4088 1.662C28.2165 1.52834 28.9057 1.77939 29.5786 2.45231C30.2516 3.12524 30.4759 3.77725 30.3329 4.55012C30.1795 5.37879 29.6065 6.30973 28.6744 7.24067C28.0608 7.85433 27.4483 8.31108 26.8648 8.59582C26.9904 9.16183 26.9845 9.74991 26.8486 10.3531C27.8771 10.0219 28.8929 9.32338 29.825 8.39127C32.0321 6.18421 32.9363 3.50877 30.7292 1.30055C28.5222 -0.906512 25.7642 -0.0848207 23.5571 2.12224L23.5537 2.1234Z" fill="#C5CED4"/>
  <path d="M15.1635 14.1015C15.4715 13.747 14.9067 13.747 14.2535 13.1636C14.5894 13.8191 14.1396 13.8005 13.3644 13.4576C12.5892 13.1148 9.58717 11.9619 7.1465 10.1604C3.4576 7.43849 4.14913 5.50106 4.34089 5.11404C4.34322 5.10823 4.3467 5.10242 4.34903 5.09777C4.36762 5.06174 4.38041 5.04315 4.38041 5.04315C4.36995 5.05942 4.35949 5.07801 4.34903 5.09777C4.3467 5.10242 4.34322 5.10823 4.34089 5.11404C3.99804 5.83113 4.47687 8.02657 7.1895 9.87799C9.9986 11.7945 11.893 12.5128 13.4516 13.238C14.3639 13.6622 14.1071 13.3368 13.5015 12.1699C9.95559 5.27908 8.07163 5.14077 6.70485 3.5892C6.02263 2.81516 5.11145 0.243164 3.01131 0.243164C0.911173 0.243164 0.962311 1.54137 0.962311 1.54137C-0.821701 2.69197 0.403282 4.62358 0.497422 4.61312C0.591562 4.60266 0.476502 4.21216 0.603184 3.82165C0.805411 3.37419 1.36793 3.05226 1.50972 2.84887C1.21684 2.47579 1.50972 2.12132 1.50972 2.12132C1.44463 2.59434 1.86885 3.05226 2.12221 3.40557C2.37557 3.75889 2.2303 3.96693 2.2303 3.96693C2.2303 3.96693 2.25587 3.82514 2.05596 3.59153C1.86768 3.37303 1.66778 3.04645 1.64221 3.00461C1.62362 3.0232 1.54458 3.0848 1.27495 3.27889C0.928607 3.52761 0.781004 3.8356 0.729866 3.97274C1.21103 4.426 2.16637 4.23308 2.16637 4.23308C2.16637 4.23308 2.78003 4.70029 3.04269 6.90386C3.37509 9.68971 4.76859 10.6032 5.66583 11.2413C5.48103 13.2252 6.08771 13.3995 6.08771 13.3995C6.11445 14.2177 5.44384 14.27 4.87435 14.0911C4.30486 13.9121 3.96085 13.8691 3.82952 14.1073C3.27514 14.1073 3.18564 14.4025 3.20192 14.714C3.37044 14.4874 3.69237 14.5559 3.69237 14.5559C3.69237 14.5559 3.69237 14.6187 3.92482 14.7675C3.81441 15.0208 4.01431 15.1742 4.01431 15.1742C4.01431 15.1742 4.05615 15.0162 4.31997 14.8256C4.61518 15.1638 4.88481 14.9999 5.04288 14.8779C5.20094 14.757 5.38573 14.6303 6.19813 14.6303C5.83435 14.9 5.99241 15.28 5.99241 15.28C5.99241 15.28 6.2144 14.9848 6.46195 14.9848C6.7095 14.9848 6.7467 15.1801 7.00587 15.1801C7.26505 15.1801 7.33827 14.9372 7.82408 14.8209C7.4603 15.0162 7.53352 15.4171 7.61836 15.5706C7.67647 15.423 7.87173 15.423 7.87173 15.423C7.87173 15.423 8.15647 15.6926 8.4203 15.3172C8.68412 14.943 9.22804 14.8372 9.50698 14.8372C9.78591 14.8372 10.109 15.28 10.2613 14.9848C10.4147 14.6896 10.6204 14.9743 10.8889 14.9313C10.6669 14.5559 10.2868 14.3886 10.0974 14.3886C9.90794 14.3886 9.81264 14.5466 9.59065 14.5466C9.36867 14.5466 9.08393 14.277 9.06765 13.9446C9.47908 13.897 9.55811 13.1845 9.55811 12.7254C9.87424 12.9474 10.8249 12.8684 12.3289 13.2635C12.9623 14.356 13.4376 14.6245 13.9281 14.6408C15.0206 15.1952 14.9892 14.7837 14.9892 14.7837C14.9892 14.7837 15.2425 14.9104 15.7969 14.9267C16.3513 14.943 15.6075 14.4037 15.1635 14.1038V14.1015ZM2.52434 2.12015C2.25354 2.12015 2.03388 1.90049 2.03388 1.6297C2.03388 1.3589 2.25354 1.13924 2.52434 1.13924C2.79514 1.13924 3.0148 1.3589 3.0148 1.6297C3.0148 1.90049 2.79514 2.12015 2.52434 2.12015ZM7.49517 14.456C7.25342 13.8307 7.02563 14.1968 6.7804 14.1712C6.45963 14.1375 6.52703 13.833 6.59328 13.6564C7.20229 13.7889 7.49517 12.2478 7.49517 12.2478C7.78107 13.3112 8.17042 13.7738 8.47841 13.9202C8.50049 14.5071 7.92054 14.4339 7.49517 14.456Z" fill="#43EDBC"/>
</svg>