<svg xmlns="http://www.w3.org/2000/svg" width="32" height="32" viewBox="0 0 32 32" fill="none">
  <path d="M11.7875 14.9347C11.9832 14.1727 12.3781 13.4766 12.9317 12.9177C13.3352 12.5132 13.8146 12.1926 14.3425 11.9741C14.8703 11.7556 15.4361 11.6436 16.0074 11.6445C17.2091 11.6445 18.2957 12.131 19.0831 12.9177C19.6368 13.4765 20.0317 14.1727 20.2273 14.9347H23.4312C23.5335 14.5213 23.6975 14.1256 23.9178 13.761L18.239 8.0822C17.5636 8.48339 16.7929 8.69597 16.0074 8.69779C15.4361 8.6987 14.8703 8.58669 14.3425 8.36819C13.8146 8.14969 13.3352 7.82902 12.9317 7.4246C12.5273 7.02111 12.2066 6.54167 11.9881 6.01383C11.7696 5.48599 11.6576 4.92017 11.6585 4.3489C11.6585 3.14722 12.1451 2.05981 12.9317 1.27319C13.3352 0.868775 13.8146 0.548099 14.3425 0.3296C14.8703 0.111102 15.4361 -0.000909856 16.0074 5.56596e-06C17.2091 5.56596e-06 18.2957 0.486574 19.0831 1.27319C19.4875 1.67668 19.8082 2.15612 20.0267 2.68396C20.2452 3.2118 20.3572 3.77762 20.3563 4.3489C20.3564 5.13471 20.1437 5.90588 19.7407 6.58048L25.4195 12.2593C26.0952 11.8583 26.8661 11.6459 27.6519 11.6445C28.8535 11.6445 29.9402 12.131 30.7268 12.9177C31.1312 13.3211 31.4518 13.8004 31.6703 14.3281C31.8888 14.8558 32.0008 15.4215 32 15.9926C32.0009 16.5639 31.8889 17.1297 31.6704 17.6576C31.4519 18.1854 31.1312 18.6648 30.7268 19.0683C30.3233 19.4727 29.8439 19.7934 29.3161 20.0119C28.7882 20.2304 28.2224 20.3424 27.6511 20.3415C26.8656 20.3418 26.0947 20.1293 25.4203 19.7267L19.7407 25.4203C20.127 26.0779 20.3563 26.8357 20.3563 27.6511C20.3572 28.2224 20.2452 28.7882 20.0267 29.316C19.8082 29.8439 19.4875 30.3233 19.0831 30.7268C18.6796 31.1312 18.2002 31.4519 17.6723 31.6704C17.1445 31.8889 16.5787 32.0009 16.0074 32C15.4361 32.0009 14.8703 31.8889 14.3425 31.6704C13.8146 31.4519 13.3352 31.1312 12.9317 30.7268C12.5273 30.3233 12.2066 29.8439 11.9881 29.316C11.7696 28.7882 11.6576 28.2224 11.6585 27.6511C11.6585 26.4494 12.1451 25.3628 12.9317 24.5761C13.3352 24.1717 13.8146 23.851 14.3425 23.6325C14.8703 23.414 15.4361 23.302 16.0074 23.303C16.7931 23.3026 17.5643 23.515 18.239 23.9178L23.9178 18.239C23.6976 17.8746 23.5336 17.4792 23.4312 17.066H20.2273C20.0317 17.828 19.6368 18.5242 19.0831 19.0831C18.6796 19.4875 18.2002 19.8082 17.6723 20.0267C17.1445 20.2452 16.5787 20.3572 16.0074 20.3563C15.4361 20.3572 14.8703 20.2452 14.3425 20.0267C13.8146 19.8082 13.3352 19.4875 12.9317 19.0831C12.3781 18.5242 11.9832 17.828 11.7875 17.066H8.58279C8.38713 17.828 7.99223 18.5242 7.43862 19.0831C7.03513 19.4875 6.55569 19.8082 6.02785 20.0267C5.50001 20.2452 4.93419 20.3572 4.36292 20.3563C3.79164 20.3572 3.22582 20.2452 2.69798 20.0267C2.17014 19.8082 1.6907 19.4875 1.28721 19.0831C0.878174 18.6823 0.553541 18.2037 0.332466 17.6754C0.111391 17.1472 -0.001648 16.58 1.81539e-05 16.0074C1.81539e-05 14.8057 0.486587 13.7183 1.27321 12.9317C1.67669 12.5273 2.15614 12.2066 2.68397 11.9881C3.21181 11.7696 3.77763 11.6576 4.34891 11.6585C5.55059 11.6585 6.63726 12.1451 7.42461 12.9317C7.97819 13.4906 8.37309 14.1868 8.56879 14.9487H11.7875V14.9347ZM14.4341 29.2251C14.8345 29.6254 15.3925 29.8827 16.0074 29.8827C16.6222 29.8827 17.1796 29.6394 17.5806 29.2251C17.9809 28.8248 18.239 28.2667 18.239 27.6511C18.239 27.0363 17.9957 26.4789 17.5806 26.0779C17.1642 25.6587 16.5983 25.4222 16.0074 25.4203C15.3918 25.4203 14.8345 25.6635 14.4334 26.0779C14.2258 26.2842 14.0608 26.5294 13.948 26.7994C13.8352 27.0695 13.7767 27.3591 13.7758 27.6518C13.7758 28.2667 14.0191 28.824 14.4334 29.2251H14.4341ZM29.2251 17.5806C29.6254 17.1803 29.8827 16.6222 29.8827 16.0074C29.8827 15.3918 29.6394 14.8344 29.2251 14.4334C29.0188 14.2258 28.7736 14.0608 28.5035 13.948C28.2335 13.8352 27.9438 13.7766 27.6511 13.7758C27.0363 13.7758 26.4789 14.0191 26.0779 14.4334C25.8702 14.6397 25.7053 14.8849 25.5925 15.155C25.4796 15.425 25.4211 15.7147 25.4203 16.0074C25.4203 16.6222 25.6636 17.1796 26.0779 17.5806C26.4782 17.9809 27.0363 18.239 27.6519 18.239C28.2415 18.2303 28.805 17.9944 29.2251 17.5806ZM17.5806 2.77492C17.1642 2.35577 16.5983 2.11922 16.0074 2.11732C15.3918 2.11732 14.8345 2.3606 14.4334 2.77492C14.2258 2.98122 14.0608 3.22641 13.948 3.49648C13.8352 3.76655 13.7767 4.0562 13.7758 4.3489C13.7758 4.96374 14.0191 5.52108 14.4334 5.92213C14.8345 6.32245 15.3918 6.58048 16.0074 6.58048C16.6222 6.58048 17.1796 6.33719 17.5806 5.92213C17.9809 5.52182 18.239 4.96374 18.239 4.3489C18.2305 3.75902 17.9946 3.19518 17.5806 2.77492ZM2.77493 14.4334C2.5673 14.6397 2.40236 14.8849 2.28952 15.155C2.17669 15.425 2.11818 15.7147 2.11733 16.0074C2.11733 16.6222 2.36061 17.1796 2.77493 17.5806C3.17598 17.9809 3.73333 18.239 4.34891 18.239C4.96375 18.239 5.5211 17.9957 5.92215 17.5806C6.32246 17.1656 6.58049 16.6222 6.58049 16.0074C6.58049 15.3918 6.3372 14.8344 5.92215 14.4334C5.50709 14.0331 4.96375 13.7758 4.34891 13.7758C3.73333 13.7758 3.17598 14.0191 2.77493 14.4334ZM14.4334 14.4334C14.2258 14.6397 14.0608 14.8849 13.948 15.155C13.8352 15.425 13.7767 15.7147 13.7758 16.0074C13.7758 16.6222 14.0191 17.1796 14.4334 17.5806C14.8345 17.9809 15.3918 18.239 16.0074 18.239C16.6222 18.239 17.1796 17.9957 17.5806 17.5806C17.9809 17.1803 18.239 16.6222 18.239 16.0074C18.239 15.3918 17.9957 14.8344 17.5806 14.4334C17.1642 14.0142 16.5983 13.7777 16.0074 13.7758C15.3918 13.7758 14.8345 14.0191 14.4334 14.4334Z" fill="#028CF0"/>
</svg>
