<svg xmlns="http://www.w3.org/2000/svg" width="30" height="32" viewBox="0 0 30 32" fill="none">
  <g clip-path="url(#clip0_716_209)">
    <path d="M17.0534 4.92285V9.84573L25.5808 14.7686V9.84573L17.0534 4.92285ZM0 9.84573V14.7686L4.26368 17.2301V12.3072L0 9.84573ZM12.7898 12.3072L8.52608 14.7686V29.5373L12.7898 32V22.1542L17.0534 24.6157V19.6928L12.7898 17.2313V12.3072Z" fill="#E55B2D"/>
    <path d="M17.0534 4.92285L4.26367 12.3072V17.2301L12.791 12.3072V17.2301L17.0547 14.7686V4.92285H17.0534ZM29.8432 7.38429L25.5795 9.84573V14.7686L29.8432 12.3072V7.38429ZM21.3171 17.2313L17.0534 19.6928V24.6157L21.3171 22.1542V17.2313ZM17.0534 24.6157L12.7898 22.1542V32L17.0534 29.5385V24.6157Z" fill="#ED8E24"/>
    <path d="M17.0534 0L0 9.84576L4.26368 12.3072L17.0534 4.92288L25.5808 9.84576L29.8445 7.38432L17.0534 0ZM17.0534 14.7686L12.7898 17.2301L17.0534 19.6915L21.3171 17.2301L17.0534 14.7686Z" fill="#F8BF3C"/>
  </g>
  <defs>
    <clipPath id="clip0_716_209">
      <rect width="29.8432" height="32" fill="white"/>
    </clipPath>
  </defs>
</svg>
