<svg width="106" height="100" viewBox="0 0 106 100" fill="none" xmlns="http://www.w3.org/2000/svg">
<path d="M84.1556 49.3896L85.4031 50.3509L85.3665 48.3824L84.1556 49.3896ZM64.2176 22.9552L63.2105 21.7443L60.7887 23.7586L61.7959 24.9695L64.2176 22.9552ZM61.7591 75.8734L60.7977 77.121L63.2928 79.0437L64.2542 77.7961L61.7591 75.8734ZM2 2V0.425H0.425V2H2ZM17.4713 2H19.0463V0.425H17.4713V2ZM17.4713 17.4713V19.0463H19.0463V17.4713H17.4713ZM2 17.4713H0.425V19.0463H2V17.4713ZM2 28.8429V27.2679H0.425V28.8429H2ZM17.4713 28.8429H19.0463V27.2679H17.4713V28.8429ZM17.4713 44.3142V45.8892H19.0463V44.3142H17.4713ZM2 44.3142H0.425V45.8892H2V44.3142ZM2 55.6858V54.1108H0.425V55.6858H2ZM17.4713 55.6858H19.0463V54.1108H17.4713V55.6858ZM17.4713 71.1571V72.7321H19.0463V71.1571H17.4713ZM2 71.1571H0.425V72.7321H2V71.1571ZM2 82.5287V80.9537H0.425V82.5287H2ZM17.4713 82.5287H19.0463V80.9537H17.4713V82.5287ZM17.4713 98V99.575H19.0463V98H17.4713ZM2 98H0.425V99.575H2V98ZM88.6294 41.8577V40.2827H87.0544V41.8577H88.6294ZM104.101 41.8577H105.676V40.2827H104.101V41.8577ZM104.101 57.3289V58.9039H105.676V57.3289H104.101ZM88.6294 57.3289H87.0544V58.9039H88.6294V57.3289ZM42.6711 69.514V67.939H41.0961V69.514H42.6711ZM58.1261 69.514H59.7011V67.939H58.1261V69.514ZM58.1261 84.969V86.544H59.7011V84.969H58.1261ZM42.6711 84.969H41.0961V86.544H42.6711V84.969ZM38.604 77.2415L39.5844 78.4741L39.549 75.9815L38.604 77.2415ZM42.6711 15.0147V13.4397H41.0961V15.0147H42.6711ZM58.1261 15.0147H59.7011V13.4397H58.1261V15.0147ZM58.1261 30.4698V32.0448H59.7011V30.4698H58.1261ZM42.6711 30.4698H41.0961V32.0448H42.6711V30.4698ZM38.604 22.7422L39.5844 23.9748L39.549 21.4822L38.604 22.7422ZM85.3665 48.3824L64.2176 22.9552L61.7959 24.9695L82.9447 50.3967L85.3665 48.3824ZM82.908 48.4282L61.7591 75.8734L64.2542 77.7961L85.4031 50.3509L82.908 48.4282ZM2 3.575H17.4713V0.425H2V3.575ZM15.8963 2V17.4713H19.0463V2H15.8963ZM17.4713 15.8963H2V19.0463H17.4713V15.8963ZM3.575 17.4713V2H0.425V17.4713H3.575ZM2 30.4179H17.4713V27.2679H2V30.4179ZM15.8963 28.8429V44.3142H19.0463V28.8429H15.8963ZM17.4713 42.7392H2V45.8892H17.4713V42.7392ZM3.575 44.3142V28.8429H0.425V44.3142H3.575ZM2 57.2608H17.4713V54.1108H2V57.2608ZM15.8963 55.6858V71.1571H19.0463V55.6858H15.8963ZM17.4713 69.5821H2V72.7321H17.4713V69.5821ZM3.575 71.1571V55.6858H0.425V71.1571H3.575ZM2 84.1037H17.4713V80.9537H2V84.1037ZM15.8963 82.5287V98H19.0463V82.5287H15.8963ZM17.4713 96.425H2V99.575H17.4713V96.425ZM3.575 98V82.5287H0.425V98H3.575ZM88.6294 43.4327H104.101V40.2827H88.6294V43.4327ZM102.526 41.8577V57.3289H105.676V41.8577H102.526ZM104.101 55.7539H88.6294V58.9039H104.101V55.7539ZM90.2044 57.3289V41.8577H87.0544V57.3289H90.2044ZM42.6711 71.089H58.1261V67.939H42.6711V71.089ZM56.5511 69.514V84.969H59.7011V69.514H56.5511ZM58.1261 83.394H42.6711V86.544H58.1261V83.394ZM44.2461 84.969V69.514H41.0961V84.969H44.2461ZM19.7637 65.08L37.659 78.5015L39.549 75.9815L21.6537 62.56L19.7637 65.08ZM37.6235 76.0089L19.7282 90.2438L21.6892 92.709L39.5844 78.4741L37.6235 76.0089ZM42.6711 16.5897H58.1261V13.4397H42.6711V16.5897ZM56.5511 15.0147V30.4698H59.7011V15.0147H56.5511ZM58.1261 28.8948H42.6711V32.0448H58.1261V28.8948ZM44.2461 30.4698V15.0147H41.0961V30.4698H44.2461ZM19.7637 10.5808L37.659 24.0022L39.549 21.4822L21.6537 8.06079L19.7637 10.5808ZM37.6235 21.5097L19.7282 35.7445L21.6892 38.2097L39.5844 23.9748L37.6235 21.5097Z" fill="#43C9ED"/>
</svg>
