<svg width="38" height="40" viewBox="0 0 38 40" fill="none" xmlns="http://www.w3.org/2000/svg">
<g clip-path="url(#clip0_598_4995)">
<path d="M19.0661 0C8.92958 0 0.712402 8.21717 0.712402 18.3537C0.712402 22.5665 2.13828 26.4497 4.51874 29.5542L5.14373 29.0606C3.78274 27.283 2.76328 25.2424 2.19293 23.0275C2.4559 22.7202 5.15569 23.6081 5.15569 23.6081C5.15569 23.6081 6.46203 23.8933 8.00745 23.1146C9.55457 22.336 11.2007 22.336 11.2007 22.336C10.7841 21.6666 10.4221 21.7878 8.86468 21.8646C7.30731 21.9312 11.2451 18.9685 10.6526 19.0231C10.072 19.0778 8.44802 19.9879 8.03136 20.1416C7.61469 20.2953 6.16661 20.1963 5.70555 20.2509C5.24448 20.3056 4.55289 20.7564 3.7742 21.2157C2.99552 21.6751 1.9641 21.8954 1.9641 21.8954C1.81042 21.5112 2.08535 18.977 3.27045 17.3531C4.45555 15.741 5.52966 14.9726 5.93608 15.0819C6.3425 15.1912 6.03512 15.7837 6.11197 15.9921C6.18881 16.2004 6.44154 16.1236 6.62767 16.3763C6.81381 16.629 6.74892 16.7383 6.74892 17.3309C6.74892 17.9115 6.04708 18.3076 5.63041 18.9873C5.22399 19.6669 5.7619 19.6123 6.03683 19.3817C6.31176 19.1512 8.37288 18.7567 8.90054 18.405C9.4265 18.0532 10.2274 17.2865 10.6236 17.0559C11.018 16.8254 13.1355 14.7626 13.5197 14.4996C13.9039 14.2366 14.6826 13.6663 15.0224 13.3691C15.3623 13.0737 15.9992 11.9876 16.4483 11.7674C16.8974 11.5488 17.9835 10.8128 18.6102 10.4183C19.2369 10.0239 19.5101 8.78411 19.9165 8.70727C20.323 8.63042 21.2331 9.4979 21.2434 9.73868C21.2536 9.97946 21.3202 10.6933 22.0989 10.946C22.8776 11.209 24.1498 12.1533 24.0303 12.4709C23.909 12.7783 21.7591 11.4514 21.8479 11.9774C21.935 12.5034 23.4053 13.6782 23.5709 13.9736C23.7348 14.2691 23.6802 14.7643 23.8663 15.5754C24.0525 16.3865 24.4367 16.2448 24.6774 16.9364C24.9182 17.628 24.6006 17.8039 25.0941 18.6474C25.5996 19.4927 25.8182 19.7233 26.7283 20.49C27.6385 21.2687 27.9356 20.7205 28.4172 20.9511C28.8885 21.1816 28.7246 20.7974 28.7246 20.7974C28.7246 20.7974 28.3625 20.3039 28.5162 20.0955C28.6802 19.877 29.1959 19.6567 29.9968 20.6112C30.7976 21.5658 30.2153 22.8824 30.2153 22.8824L29.7218 23.2888L29.3376 23.6286L29.0524 24.1768L28.9978 24.4517H29.2164L29.4349 24.3202L29.7304 24.2212L30.1914 24.1768H30.5978L31.0589 24.1221H31.6515L32.0459 24.0231L32.3977 23.7926L32.7819 23.4408L33.1764 23.0241L33.4513 22.7492L33.7365 22.6946L33.967 22.7168L34.131 22.838L34.1754 23.0788L34.131 23.5501L34.1412 23.7806H34.2727L34.5357 23.6269L34.8874 23.4084L35.3485 23.101L35.743 22.937H35.8967C35.3263 25.1758 34.3051 27.2488 32.9237 29.0367L33.5162 29.5627C35.9291 26.4582 37.3669 22.5528 37.3669 18.3179C37.4096 8.21717 29.2027 0 19.0661 0ZM35.4783 18.2444L34.9079 18.3213L34.2829 18.2547L33.8765 18.1232L33.4923 17.7834L33.1081 17.3992L32.6914 17.0047L32.3294 16.6529L31.8803 16.3011L31.5507 16.1799L31.2433 16.0262L30.6952 15.7188L30.2239 15.4559L29.7526 15.1485L29.3034 14.8855L28.7433 14.5901L28.4479 14.3152L28.1849 14.0522L27.9544 13.7448L27.7785 13.4596L27.6573 13.142L27.5036 12.879L27.2953 12.517L27.0101 12.1772L26.7796 11.8698L26.45 11.6068L26.2963 11.4856L26.0111 11.4088L25.7481 11.3422L25.3639 11.1885L24.8038 10.9477L24.4093 10.8162L23.9927 10.6523L23.576 10.4439L23.0825 10.2578L22.6983 10.0495L22.2594 9.78649L21.9077 9.55596L21.5559 9.34763L21.2041 9.10685L20.8643 8.83192L20.5023 8.61335L20.2171 8.5587L19.9319 8.48186L19.7458 8.54845L19.5596 8.75679L19.2642 9.26225L18.8476 9.94189L18.4855 10.2168L17.7939 10.6881L17.1792 11.0945L16.4876 11.4566L15.9394 11.7417L15.5347 12.0235L15.1505 12.3189L14.9644 12.6041L14.657 13.043L14.4384 13.3179L13.9449 13.6577L13.3968 13.9975L12.9477 14.2827L12.5088 14.5781L12.2783 14.7643L11.7045 15.0956L11.2998 15.4251L10.7294 15.8315L10.4887 16.1611L10.1591 16.4019L9.91659 16.6427L9.67581 16.8066L9.38039 16.7844L8.91933 16.6205L8.37118 16.4343L7.63689 16.0501L7.06483 15.7205L6.49448 15.2595L5.86948 14.7984L5.51771 14.9299L4.83806 15.3363L3.67516 16.2909L1.69942 18.1352C2.10584 9.12735 9.73046 1.95354 19.0661 1.95354C28.1935 1.95354 35.6866 8.82168 36.4004 17.5426L36.2911 17.6963L35.9069 18.0361L35.4783 18.2444Z" fill="white"/>
<path d="M24.3427 22.3805C23.1798 21.9092 22.2253 22.6213 21.754 21.3047C21.2826 19.9881 21.5132 19.8122 19.5716 18.4085C17.63 17.0048 17.3004 16.5318 17.268 15.8966C17.2236 15.2596 17.63 14.9096 17.9049 14.7439C18.1799 14.58 18.5419 14.3273 18.6392 14.1292C18.7383 13.943 18.7929 13.5486 18.8475 13.482C18.9022 13.4154 19.4623 13.0209 19.0115 12.9765C18.5624 12.9321 18.4855 12.8997 18.3096 13.0209C18.1338 13.1422 17.0921 14.1736 15.7857 14.7217C15.0839 15.0189 13.4275 15.4031 13.9978 15.567C14.5682 15.7309 15.6867 15.6114 16.6635 16.8614C17.6402 18.1114 18.4838 18.6937 18.4838 18.6937C18.4838 18.6937 18.868 18.9891 18.8458 19.539C18.8356 20.0871 19.1976 20.3177 19.6911 20.2084C20.1846 20.0991 20.4476 21.0537 20.0207 21.2944C19.5818 21.5352 18.9244 22.2046 18.4958 22.5888C18.0791 22.9731 16.0265 23.2907 16.0265 23.2907C16.0265 23.2907 15.27 23.3453 15.27 23.5093C15.27 23.6732 18.6819 24.4314 19.7355 24.0028C20.7994 23.5639 19.6587 23.2241 22.0067 23.3658C24.3547 23.4973 23.6956 22.7955 24.8482 22.9048C24.8038 22.886 25.5057 22.8518 24.3427 22.3805ZM13.4941 27.1756C11.8599 26.32 10.5313 27.5051 10.5313 27.5051L2.8196 33.9993L4.80559 35.5789L7.16385 33.4614C7.16385 33.4614 8.95175 35.4474 11.6515 35.8743L11.2127 39.001L13.5163 39.8463L14.8226 29.8514C14.8209 29.8412 15.3144 28.1284 13.4941 27.1756ZM12.6488 29.7302L12.0016 33.7995C10.0481 33.2838 8.79806 32.0116 8.79806 32.0116L11.7813 29.2691C11.7813 29.2691 12.1331 28.9737 12.4285 29.1598C12.7359 29.3477 12.6488 29.7302 12.6488 29.7302ZM23.3011 29.8412L24.6074 39.836L26.911 38.9907L26.4722 35.864C29.16 35.4252 30.9599 33.4511 30.9599 33.4511L33.3181 35.5686L35.3041 33.9891L27.6026 27.5051C27.6026 27.5051 26.2758 26.332 24.6399 27.1756C22.8178 28.1284 23.3011 29.8412 23.3011 29.8412ZM25.6935 29.1598C25.9889 28.9737 26.3407 29.2691 26.3407 29.2691L29.3239 32.0116C29.3239 32.0116 28.074 33.2838 26.1204 33.7995L25.4732 29.7302C25.4732 29.7302 25.3964 29.3477 25.6935 29.1598ZM17.8383 28.096H20.2307V40H17.8383V28.096Z" fill="white"/>
</g>
<defs>
<clipPath id="clip0_598_4995">
<rect width="36.8887" height="40" fill="white" transform="translate(0.712402)"/>
</clipPath>
</defs>
</svg>
