<svg width="140" height="40" viewBox="0 0 140 40" fill="none" xmlns="http://www.w3.org/2000/svg">
<g clip-path="url(#clip0_598_4975)">
<path d="M17.6953 0.0303008C10.0712 0.0152632 3.87572 6.19571 3.86068 13.8348C3.84565 21.4739 10.0261 27.6544 17.6652 27.6694C25.3043 27.6844 31.4847 21.504 31.4998 13.8649C31.4998 8.93255 28.8682 4.36113 24.5975 1.89496C22.5073 0.676917 20.1163 0.0303008 17.6953 0.0303008ZM17.6953 0.917519C24.8381 0.917519 30.6126 6.70699 30.6126 13.8498C30.6126 20.9927 24.8231 26.7671 17.6802 26.7671C10.5374 26.7671 4.76294 20.9777 4.76294 13.8348C4.76294 11.5792 5.36444 9.35361 6.49226 7.38368C8.80805 3.38368 13.0787 0.917519 17.6953 0.917519Z" fill="white"/>
<path d="M16.9885 3.91021C7.99599 3.91021 0.702759 11.2185 0.717797 20.211C0.717797 29.2034 8.02607 36.4967 17.0185 36.4967C26.011 36.4967 33.3043 29.1884 33.3043 20.1959C33.3043 17.3388 32.5524 14.5418 31.1238 12.0606C28.2216 7.00796 22.8231 3.89517 16.9885 3.91021ZM16.9885 6.57186C24.5223 6.55683 30.6276 12.6471 30.6426 20.1809C30.6576 27.7147 24.5674 33.835 17.0336 33.835C9.49975 33.835 3.39449 27.7598 3.37945 20.226C3.36442 15.3538 5.96592 10.8425 10.1915 8.40645C12.2667 7.21848 14.6125 6.5869 16.9885 6.57186Z" fill="white"/>
<path d="M23.9058 5.62402C14.4321 5.62402 6.76294 13.2932 6.76294 22.7669C6.76294 32.2406 14.4321 39.9097 23.9058 39.9097C33.3795 39.9097 41.0487 32.2406 41.0487 22.7669C41.0487 13.2932 33.3795 5.62402 23.9058 5.62402ZM23.9058 10.0601C30.9284 10.0601 36.6126 15.7443 36.6126 22.7669C36.6126 29.7894 30.9284 35.4736 23.9058 35.4736C16.8832 35.4736 11.199 29.7894 11.199 22.7669C11.2141 15.7594 16.8983 10.0601 23.9058 10.0601Z" fill="white"/>
<path d="M59.184 27.0071C59.184 26.6161 59.1088 26.2101 58.9735 25.8492C58.8382 25.4883 58.6276 25.1425 58.372 24.8417C58.1163 24.556 57.8156 24.3154 57.4697 24.15C57.1239 23.9846 56.7329 23.8943 56.3569 23.8943H50.2066V30.0898H56.1915C56.5975 30.0898 57.0036 29.9996 57.3795 29.8342C57.7404 29.6688 58.0562 29.4282 58.3118 29.1425C58.5825 28.8567 58.793 28.5109 58.9434 28.15C59.0938 27.7891 59.184 27.3981 59.184 27.0071ZM50.2066 16.9169V22.962H55.7554C56.1464 22.962 56.5374 22.8868 56.8833 22.7064C57.2141 22.541 57.5148 22.3154 57.7705 22.0297C58.0261 21.744 58.2216 21.4131 58.3569 21.0673C58.4923 20.7064 58.5675 20.3304 58.5675 19.9395C58.5675 19.5485 58.5073 19.1575 58.3569 18.7816C58.2366 18.4357 58.0412 18.1049 57.8006 17.8192C57.575 17.5485 57.2893 17.3229 56.9585 17.1575C56.6276 16.9921 56.2517 16.9019 55.8757 16.9169H50.2066ZM60.2667 27.1425C60.2667 27.6688 60.1615 28.1951 59.9509 28.6913C59.7404 29.1575 59.4397 29.5786 59.0787 29.9395C58.7028 30.3004 58.2667 30.5861 57.7855 30.7665C57.2893 30.962 56.7479 31.0673 56.2066 31.0673H49.1088V15.9395H56.1765C56.6727 15.9395 57.169 16.0447 57.6051 16.2853C58.0261 16.5109 58.387 16.8116 58.6878 17.1725C58.9885 17.5334 59.2291 17.9545 59.3795 18.4056C59.5449 18.8567 59.6201 19.3229 59.6201 19.8041C59.6201 20.541 59.4246 21.2778 59.0487 21.9094C58.6727 22.541 58.1163 23.0222 57.4547 23.3229C58.2818 23.5485 59.0036 24.0598 59.5148 24.7665C60.0111 25.4432 60.2818 26.2853 60.2667 27.1425Z" fill="white"/>
<path d="M62.9133 19.9847H63.981V31.0674H62.9133V19.9847ZM62.9133 15.5186H63.981V17.4734H62.9133V15.5186Z" fill="white"/>
<path d="M72.0562 30.33C72.5223 30.33 72.9885 30.2398 73.4246 30.0593C73.8607 29.8939 74.2667 29.6533 74.6426 29.3676C74.9885 29.0969 75.2892 28.7811 75.5449 28.4052C75.7704 28.0894 75.9208 27.7285 75.981 27.3375V23.6984C75.8156 23.2774 75.575 22.8713 75.3043 22.5104C75.0336 22.1495 74.7028 21.8488 74.3268 21.5781C73.9659 21.3225 73.575 21.127 73.1539 20.9766C72.7479 20.8262 72.3118 20.751 71.8908 20.751C71.2742 20.736 70.6577 20.8864 70.1013 21.1721C69.59 21.4428 69.1389 21.8187 68.7629 22.2849C68.402 22.751 68.1163 23.2774 67.9359 23.8338C67.7404 24.3901 67.6501 24.9766 67.6501 25.5781C67.6501 26.1947 67.7554 26.8112 67.996 27.3826C68.2216 27.939 68.5374 28.4503 68.9283 28.9014C69.3193 29.3375 69.8005 29.6984 70.3419 29.939C70.8682 30.1947 71.4547 30.33 72.0562 30.33ZM71.8005 31.2473C71.0637 31.2473 70.3569 31.0969 69.6953 30.7661C69.0637 30.4503 68.5073 30.0142 68.0411 29.4879C67.575 28.9465 67.199 28.33 66.9584 27.6683C66.7028 26.9916 66.5674 26.2849 66.5674 25.5631C66.5674 24.8262 66.6877 24.0894 66.9434 23.3826C67.184 22.7059 67.5298 22.0894 67.996 21.533C68.4471 21.0067 69.0035 20.5706 69.6351 20.2698C70.2968 19.9541 71.0186 19.7886 71.7404 19.8037C72.6426 19.7886 73.5298 20.0443 74.2667 20.5556C74.9735 21.0518 75.59 21.6834 76.0862 22.4052V19.9992H77.0637V31.2924C77.0787 31.9841 76.9283 32.6608 76.6426 33.2774C76.372 33.8338 75.981 34.315 75.4998 34.6909C75.0035 35.0819 74.4321 35.3676 73.8306 35.548C73.184 35.7435 72.5073 35.8338 71.8306 35.8338C71.2441 35.8338 70.6727 35.7736 70.1013 35.6533C69.6351 35.548 69.1689 35.3676 68.7479 35.142C68.3569 34.9315 68.0111 34.6458 67.7103 34.33C67.4096 34.0142 67.1389 33.6533 66.9133 33.2774L67.6351 32.7811C68.0411 33.5029 68.6727 34.0894 69.4246 34.4353C70.1765 34.7811 71.0035 34.9616 71.8306 34.9616C72.372 34.9616 72.9133 34.8864 73.4396 34.721C73.9208 34.5706 74.372 34.345 74.7629 34.0292C75.1389 33.7135 75.4547 33.3375 75.6652 32.8864C75.8908 32.3901 76.0111 31.8338 75.996 31.2924V28.8563C75.5449 29.5781 74.9283 30.1796 74.1915 30.6007C73.4396 31.0217 72.6276 31.2473 71.8005 31.2473Z" fill="white"/>
<path d="M85.3193 30.5412C85.2592 30.5713 85.169 30.6164 85.0336 30.7066C84.8682 30.7968 84.7028 30.872 84.5224 30.9322C84.2968 31.0073 84.0712 31.0675 83.8306 31.1276C83.56 31.1878 83.2742 31.2179 83.0036 31.2179C82.7178 31.2179 82.4321 31.1728 82.1615 31.0825C81.9058 31.0073 81.6652 30.872 81.4697 30.6916C81.2742 30.5261 81.1088 30.3156 81.0036 30.075C80.8833 29.8043 80.8231 29.5186 80.8381 29.2179V20.857H79.2742V19.9848H80.8231V16.1953H81.8908V19.9848H84.4772V20.857H81.8908V28.9622C81.8607 29.3231 82.0261 29.669 82.3118 29.8946C82.5825 30.1051 82.9284 30.2104 83.2742 30.2104C83.6652 30.2254 84.0562 30.1502 84.4171 29.9848C84.7329 29.8344 84.9284 29.7442 85.0036 29.6991L85.3193 30.5412Z" fill="white"/>
<path d="M87.184 19.9847H88.2517V31.0674H87.184V19.9847ZM87.184 15.5186H88.2517V17.4734H87.184V15.5186Z" fill="white"/>
<path d="M100.658 31.0669H99.59V24.8864C99.59 23.4578 99.3945 22.4052 98.9885 21.7586C98.5825 21.112 97.9509 20.7812 97.0637 20.7812C96.5825 20.7812 96.1163 20.8714 95.6652 21.0368C95.199 21.2022 94.7629 21.4578 94.372 21.7586C93.9659 22.0744 93.6201 22.4503 93.3344 22.8563C93.0336 23.2624 92.8231 23.7285 92.6727 24.2097V31.0669H91.605V19.9842H92.6126V22.6308C92.8381 22.2097 93.1238 21.8187 93.4547 21.4729C93.7855 21.127 94.1614 20.8263 94.5825 20.5857C95.0035 20.33 95.4396 20.1496 95.9208 20.0142C96.387 19.8789 96.8832 19.8037 97.3644 19.8037C98.5675 19.8037 99.4246 20.2248 99.9208 21.0669C100.417 21.909 100.673 23.127 100.673 24.706L100.658 31.0669Z" fill="white"/>
<path d="M103.109 25.488C103.109 24.7362 103.244 23.9843 103.515 23.2775C103.77 22.6008 104.146 21.9843 104.643 21.458C105.665 20.3753 107.079 19.7738 108.567 19.7888C109.5 19.7738 110.417 19.9993 111.229 20.4655C111.981 20.9016 112.583 21.5632 112.958 22.3602L111.906 22.7061C111.59 22.1046 111.109 21.6083 110.507 21.2625C109.906 20.9166 109.214 20.7362 108.522 20.7362C107.936 20.7362 107.349 20.8565 106.823 21.0971C106.297 21.3377 105.831 21.6835 105.44 22.1046C105.034 22.5407 104.718 23.0519 104.507 23.6083C103.816 25.4129 104.177 27.4429 105.455 28.9016C105.846 29.3377 106.312 29.6835 106.838 29.9392C107.725 30.3602 108.733 30.4354 109.665 30.1497C110.026 30.0444 110.387 29.8941 110.718 29.6986C111.019 29.5181 111.304 29.3076 111.545 29.0519C111.755 28.8264 111.921 28.5707 112.026 28.27L113.079 28.5707C112.928 28.9617 112.703 29.3377 112.432 29.6535C112.131 29.9993 111.786 30.285 111.395 30.5106C110.989 30.7662 110.537 30.9467 110.071 31.082C109.59 31.2174 109.079 31.2926 108.583 31.2926C107.831 31.3076 107.094 31.1422 106.402 30.8414C105.74 30.5407 105.154 30.1196 104.673 29.5783C103.665 28.4655 103.109 27.0068 103.109 25.488Z" fill="white"/>
<path d="M118.432 30.4355C119.214 30.4505 119.981 30.2851 120.703 29.9693C121.334 29.6986 121.876 29.2776 122.297 28.7362C122.507 28.4956 122.628 28.1949 122.643 27.8791V25.9242C122.131 25.7287 121.59 25.5783 121.049 25.4731C120.477 25.3678 119.906 25.3227 119.319 25.3227C118.808 25.3227 118.297 25.3829 117.801 25.5032C117.379 25.6084 116.989 25.7738 116.628 25.9994C116.312 26.1949 116.056 26.4656 115.876 26.7814C115.695 27.0821 115.605 27.443 115.605 27.7889C115.605 28.1498 115.68 28.5107 115.816 28.8415C115.951 29.1573 116.161 29.443 116.417 29.6836C116.673 29.9242 116.989 30.1047 117.319 30.24C117.68 30.3753 118.056 30.4355 118.432 30.4355ZM118.222 31.2926C117.259 31.2926 116.342 30.9468 115.635 30.3002C115.304 29.9994 115.034 29.6235 114.853 29.2174C114.673 28.7964 114.567 28.3302 114.583 27.8641C114.583 27.3979 114.688 26.9468 114.928 26.5408C115.169 26.1347 115.485 25.7738 115.876 25.5032C116.327 25.1874 116.808 24.9618 117.334 24.8265C117.951 24.6611 118.583 24.5708 119.214 24.5859C119.816 24.5859 120.417 24.646 121.019 24.7513C121.575 24.8415 122.131 24.9919 122.658 25.1874V24.1047C122.658 23.052 122.357 22.225 121.755 21.6084C121.154 20.9919 120.342 20.6761 119.319 20.6761C118.733 20.6911 118.146 20.7964 117.605 21.022C116.958 21.2776 116.342 21.6084 115.755 21.9994L115.349 21.2776C116.763 20.3152 118.116 19.834 119.395 19.834C120.733 19.834 121.786 20.225 122.552 20.9919C123.319 21.7588 123.71 22.8415 123.695 24.1949V29.6084C123.695 29.9693 123.846 30.1347 124.161 30.1347V31.0971C124.086 31.1122 124.011 31.1272 123.936 31.1272C123.861 31.1272 123.786 31.1423 123.74 31.1423C123.485 31.1573 123.229 31.052 123.064 30.8565C122.898 30.6611 122.793 30.4205 122.763 30.1648V29.2475C122.252 29.9092 121.575 30.4505 120.808 30.7814C119.981 31.1122 119.109 31.2926 118.222 31.2926Z" fill="white"/>
<path d="M135.996 31.0669H134.928V24.8864C134.928 23.4578 134.733 22.4052 134.327 21.7586C133.921 21.112 133.289 20.7812 132.402 20.7812C131.921 20.7812 131.455 20.8714 131.004 21.0368C130.537 21.2022 130.101 21.4578 129.71 21.7586C129.304 22.0744 128.958 22.4503 128.658 22.8563C128.357 23.2624 128.146 23.7285 127.996 24.2097V31.0669H126.928V19.9842H127.936V22.6308C128.161 22.2097 128.447 21.8187 128.778 21.4729C129.109 21.127 129.485 20.8263 129.906 20.5857C130.327 20.3451 130.778 20.1496 131.244 20.0142C131.71 19.8789 132.207 19.8037 132.688 19.8037C133.891 19.8037 134.748 20.2248 135.244 21.0669C135.74 21.909 135.996 23.127 135.996 24.706V31.0669Z" fill="white"/>
<path d="M137.831 15.4131C138.913 15.4131 139.71 16.2101 139.71 17.2928C139.71 18.3755 138.913 19.1725 137.831 19.1725C136.748 19.1725 135.951 18.3755 135.951 17.2928C135.951 16.2101 136.748 15.4131 137.831 15.4131ZM137.831 18.8868C138.733 18.8868 139.41 18.2101 139.41 17.2928C139.41 16.3755 138.733 15.6988 137.831 15.6988C136.928 15.6988 136.252 16.3755 136.252 17.2928C136.252 18.2101 136.928 18.8868 137.831 18.8868ZM138.402 18.2702L137.846 17.383H137.44V18.2702H137.139V16.2101H137.876C138.267 16.2101 138.537 16.4356 138.537 16.7965C138.537 17.0371 138.402 17.2326 138.176 17.3229L138.763 18.2702H138.402ZM137.846 17.0973C138.086 17.0973 138.222 16.992 138.222 16.7965C138.222 16.6011 138.086 16.4958 137.846 16.4958H137.44V17.0823L137.846 17.0973Z" fill="white"/>
</g>
<defs>
<clipPath id="clip0_598_4975">
<rect width="139.098" height="40" fill="white" transform="translate(0.687744)"/>
</clipPath>
</defs>
</svg>
