<svg width="80" height="40" viewBox="0 0 80 40" fill="none" xmlns="http://www.w3.org/2000/svg">
<path fill-rule="evenodd" clip-rule="evenodd" d="M48.0326 2.33233C48.6403 3.55687 48.2825 5.16529 47.65 6.2662L42.7402 17.3104L42.6985 17.3599L40.9235 6.15819C40.7817 5.0833 41.9321 4.62394 42.6074 4.10732C42.5736 3.94856 42.3979 3.95767 42.2899 3.88219L40.6307 3.86528L40.5813 3.81583C40.5891 2.42342 41.34 1.14033 42.6074 0.464951C43.9322 -0.301521 45.7996 -0.0933112 46.9486 0.89048C47.4158 1.3069 47.8075 1.78969 48.0326 2.33233Z" fill="white"/>
<path fill-rule="evenodd" clip-rule="evenodd" d="M38.9894 1.94825C39.3889 2.68999 39.6231 3.53194 39.4812 4.46498L37.4811 17.2933C37.4889 17.3102 37.472 17.3271 37.4564 17.3349L36.9385 16.3017L31.9206 5.09872C31.4548 3.65687 31.8881 2.14865 32.9383 1.11411C33.9962 0.0392226 35.7387 -0.252271 37.122 0.332018C37.8559 0.648236 38.556 1.23122 38.9894 1.94825Z" fill="white"/>
<path fill-rule="evenodd" clip-rule="evenodd" d="M55.292 7.34998C55.9674 8.50033 55.8178 10.2428 55.0669 11.3099C54.601 12.0594 53.8333 12.4342 53.1839 12.9261L42.7904 20.0612H42.7656L42.8814 19.7189L48.3912 7.28361C49.2162 5.81573 50.7908 5.07528 52.4591 5.29911C53.6003 5.50862 54.7416 6.25037 55.292 7.34998Z" fill="white"/>
<path fill-rule="evenodd" clip-rule="evenodd" d="M31.6797 7.28293L37.4146 20.0605H37.3222L25.7613 12.0913C24.5862 11.101 24.1034 9.61618 24.503 8.11577C24.8036 6.99144 25.7366 5.94128 26.8453 5.52486C28.6619 4.85729 30.7128 5.5652 31.6797 7.28293Z" fill="white"/>
<path fill-rule="evenodd" clip-rule="evenodd" d="M58.3096 16.3687C58.8848 17.5854 58.6596 19.2524 57.8346 20.2856C57.0174 21.2785 55.9256 21.8198 54.6412 21.786L42.3152 21.7951L52.6411 14.6093C53.6509 13.9599 55.1838 13.8428 56.2835 14.3685C57.1345 14.7017 57.9348 15.5345 58.3096 16.3687Z" fill="white"/>
<path fill-rule="evenodd" clip-rule="evenodd" d="M21.8107 16.3687C21.2356 17.5854 21.4607 19.2524 22.2857 20.2856C23.103 21.2785 24.1948 21.8198 25.4778 21.786L37.8065 21.7951L27.4793 14.6093C26.4707 13.9599 24.9365 13.8428 23.8356 14.3685C22.9858 14.7017 22.1855 15.5345 21.8107 16.3687Z" fill="white"/>
<path fill-rule="evenodd" clip-rule="evenodd" d="M18.0301 38.5751C15.4115 38.5751 13.2811 36.444 13.2811 33.8269C13.2811 31.2106 15.4115 29.0802 18.0301 29.0802C20.6486 29.0802 22.779 31.2106 22.779 33.8269C22.779 36.444 20.6486 38.5751 18.0301 38.5751ZM18.0301 27.915C14.7708 27.915 12.1189 30.5669 12.1189 33.8269C12.1189 37.0862 14.7708 39.7403 18.0301 39.7403C21.2893 39.7403 23.9412 37.0862 23.9412 33.8269C23.9412 30.5669 21.2893 27.915 18.0301 27.915Z" fill="white"/>
<path fill-rule="evenodd" clip-rule="evenodd" d="M69.0009 33.9027C68.6832 33.7361 66.755 32.7427 66.4772 32.5983C65.4654 32.0827 65.1061 31.6242 65.1061 30.8494C65.1061 29.7745 65.9898 29.079 67.3594 29.079C68.1639 29.079 68.9417 29.4331 69.3965 29.6894C69.4802 29.7353 69.5772 29.7597 69.6795 29.7597C69.9995 29.7597 70.2602 29.4997 70.2602 29.179C70.2602 28.9642 70.1432 28.776 69.9691 28.676C69.395 28.356 68.4157 27.916 67.3594 27.916C65.3476 27.916 63.9424 29.1227 63.9424 30.8494C63.9424 32.4012 64.9616 33.1331 65.9602 33.6427C66.2387 33.7849 68.1898 34.7909 68.4832 34.945C69.2535 35.3487 69.6795 35.9539 69.6795 36.6502C69.6795 37.5842 68.8891 38.5761 67.4246 38.5761C66.0017 38.5761 64.8957 37.6213 64.5898 37.3279L64.4994 37.2405L63.6387 38.0242L63.7402 38.1242C64.1216 38.5042 65.5179 39.7406 67.4246 39.7406C69.5632 39.7406 70.8417 38.1687 70.8417 36.6502C70.8417 35.5161 70.1713 34.5138 69.0009 33.9027Z" fill="white"/>
<path fill-rule="evenodd" clip-rule="evenodd" d="M5.91041 29.0795C7.17931 29.0795 8.37265 29.5728 9.26822 30.4684C9.48081 30.6802 9.88081 30.6802 10.0904 30.4684C10.2016 30.3602 10.2608 30.2143 10.2608 30.058C10.2608 29.9032 10.2016 29.7558 10.0904 29.6476L10.0201 29.5743C8.91266 28.5039 7.45191 27.915 5.91041 27.915C2.65113 27.915 0 30.5662 0 33.8262C0 37.0862 2.65113 39.7396 5.91041 39.7396C7.63117 39.7396 9.18081 39.001 10.2608 37.824L9.43859 37.0003C8.56821 37.9662 7.30968 38.5744 5.91041 38.5744C3.29262 38.5744 1.16223 36.444 1.16223 33.8262C1.16223 31.2099 3.29262 29.0795 5.91041 29.0795Z" fill="white"/>
<path fill-rule="evenodd" clip-rule="evenodd" d="M45.9837 29.0805C47.2518 29.0805 48.4459 29.5738 49.3407 30.4694C49.5541 30.6812 49.9541 30.6812 50.1637 30.4694C50.2748 30.3612 50.3356 30.2153 50.3356 30.059C50.3356 29.9042 50.2748 29.7568 50.1637 29.6486L50.0933 29.5753C48.9844 28.5049 47.5259 27.916 45.9837 27.916C42.7244 27.916 40.0725 30.5671 40.0725 33.8272C40.0725 37.0872 42.7244 39.7406 45.9837 39.7406C47.7029 39.7406 49.2533 39.002 50.3341 37.825L49.5111 37.0013C48.6415 37.9672 47.3829 38.5754 45.9837 38.5754C43.3651 38.5754 41.2347 36.445 41.2347 33.8272C41.2347 31.2109 43.3651 29.0805 45.9837 29.0805Z" fill="white"/>
<path fill-rule="evenodd" clip-rule="evenodd" d="M35.9705 27.915C35.7519 27.915 35.5801 28.0558 35.486 28.238C35.3904 28.4195 32.0075 36.7877 32.0075 36.7877C32.0075 36.7877 28.6245 28.4195 28.5289 28.238C28.4341 28.0558 28.263 27.915 28.0437 27.915C27.7889 27.915 27.5971 28.1017 27.5296 28.3387C27.4622 28.5765 25.5533 39.1092 25.5533 39.1092C25.5467 39.1433 25.543 39.1788 25.543 39.2151C25.543 39.5048 25.7793 39.7396 26.0682 39.7396C26.323 39.7396 26.537 39.5566 26.583 39.3151L28.2356 30.3047C28.2356 30.3047 31.4252 38.184 31.5186 38.3722C31.6126 38.5588 31.7852 38.704 32.0075 38.704C32.2289 38.704 32.4023 38.5588 32.4956 38.3722C32.5897 38.184 35.7786 30.3047 35.7786 30.3047L37.4971 39.6736H38.5631C38.5631 39.6736 36.5527 28.5765 36.4853 28.3387C36.4171 28.1017 36.2253 27.915 35.9705 27.915Z" fill="white"/>
<path fill-rule="evenodd" clip-rule="evenodd" d="M55.2305 34.1536L56.9875 29.8306L58.7475 34.1536H55.2305ZM56.9875 27.915C56.7668 27.915 56.5964 28.0587 56.4994 28.2469C56.4045 28.4343 52.1215 39.0107 52.1215 39.0107C52.0956 39.0736 52.0815 39.1433 52.0815 39.2151C52.0815 39.5055 52.3164 39.7403 52.606 39.7403C52.8267 39.7403 53.0164 39.6018 53.0934 39.407L54.7564 35.3173H59.2209L60.9942 39.6744H62.1268C62.1268 39.6744 57.5697 28.4343 57.4757 28.2469C57.3816 28.0587 57.2097 27.915 56.9875 27.915Z" fill="white"/>
<path fill-rule="evenodd" clip-rule="evenodd" d="M80.0004 28.56C80.0004 28.2385 79.7381 27.9785 79.4181 27.9785H72.8359C72.5151 27.9785 72.2551 28.2385 72.2551 28.56C72.2551 28.8807 72.5151 29.1407 72.8359 29.1407H75.5952V39.6742H76.6603V29.1407H79.4181C79.7381 29.1407 80.0004 28.8807 80.0004 28.56Z" fill="white"/>
</svg>
