<svg width="60" height="40" viewBox="0 0 60 40" fill="none" xmlns="http://www.w3.org/2000/svg">
<g clip-path="url(#clip0_598_4933)">
<path d="M13.7018 39.9592C12.2198 39.8096 10.8328 39.4291 9.61676 38.8428C7.62173 37.876 6.68439 36.5974 6.48805 34.5703C6.3827 33.5645 6.55559 32.5494 6.98839 31.6325C7.86874 29.7738 9.62942 28.4453 12.4668 27.491C16.9192 26.0003 21.7009 25.6946 28.0786 26.493C28.864 26.5928 30.2003 26.755 31.0553 26.861C33.3607 27.1479 34.7857 27.335 37.0404 27.6469C41.2458 28.2207 43.1458 28.3766 45.9705 28.3829C49.7009 28.3891 51.8923 28.0211 53.9823 27.0481C55.1476 26.4992 55.8126 26.0314 56.712 25.1146C57.0413 24.7777 57.358 24.4971 57.4087 24.4971C57.5797 24.4971 58.289 24.9586 58.65 25.3017C59.1204 25.7441 59.4672 26.2983 59.657 26.9109C59.8217 27.4099 59.8407 27.5346 59.8407 28.333C59.8407 29.5056 59.752 29.8736 59.3974 30.2104C59.0934 30.5036 58.0673 31.0212 57.3073 31.2645C56.0787 31.6574 54.5966 31.9444 52.7156 32.1502C51.1006 32.3248 46.3759 32.3061 43.9122 32.119C39.4471 31.776 35.4887 31.2957 30.6183 30.516C24.6903 29.568 20.6749 29.3434 17.3372 29.7738C13.0938 30.3164 10.4844 31.9631 10.3578 34.1711C10.3261 34.801 10.4781 35.1628 10.9784 35.6181C12.1058 36.6535 14.2275 37.0714 16.3112 36.6847C18.3062 36.3104 20.4342 35.0193 22.1062 33.1544C22.6762 32.5182 23.3603 31.6325 23.6263 31.1834C23.7339 31.0025 23.8163 30.9277 23.8923 30.9464C23.9493 30.9651 24.7789 31.0649 25.7353 31.1772C26.6916 31.2832 27.5023 31.4017 27.534 31.4267C27.61 31.4953 26.9323 32.8675 26.4826 33.5536C25.7226 34.7262 24.6016 35.9425 23.4489 36.8469C21.5362 38.35 19.0345 39.5102 16.9002 39.8719C16.1908 39.9967 14.4998 40.0403 13.7018 39.9592V39.9592Z" fill="white"/>
<path d="M1.06647 30.3597C0.952469 30.2412 0.958803 30.2162 1.12347 29.6861C2.37749 25.6755 5.24019 16.0826 5.20219 16.0389C5.18952 16.0264 4.30918 16.1824 3.24516 16.3882C1.35147 16.7562 1.31981 16.7624 1.16147 16.6439C1.0754 16.5829 1.01289 16.495 0.984136 16.3944C0.971469 16.3196 1.12347 15.7832 1.31981 15.1969C1.57948 14.4297 1.71881 14.1116 1.81381 14.0492C1.88981 14.0056 2.88416 13.7873 4.01784 13.5752L6.08887 13.1885L6.53854 11.6728C7.69122 7.8369 8.73623 4.89915 9.40758 3.57685C10.4146 1.60587 12.4033 0.289806 14.7656 0.0340782C15.9753 -0.0969045 17.2927 0.152586 18.4834 0.732652C19.275 1.11936 19.807 1.53726 20.1807 2.08614C20.5924 2.69116 20.7507 3.17766 20.7444 3.91366C20.7444 5.15488 20.1744 6.12789 19.1737 6.59569C18.154 7.07596 16.729 6.88884 16.2287 6.20274C15.836 5.66633 15.76 4.89915 16.045 4.32532C16.197 4.00722 16.6213 3.57685 16.8747 3.47081C16.976 3.43339 17.0583 3.37726 17.0583 3.35231C17.0583 3.32736 16.9063 3.24004 16.729 3.15895C16.2287 2.94065 15.3927 2.94688 14.905 3.17143C13.9106 3.63298 13.2076 4.62471 12.3399 6.7828C11.9663 7.69968 10.4716 12.0845 10.4716 12.2467C10.4716 12.2966 10.4906 12.334 10.5223 12.334C10.5476 12.334 11.1556 12.2217 11.8649 12.0845C13.5243 11.7664 13.594 11.7664 13.7586 12.0658C13.822 12.1905 13.7776 12.3714 13.4736 13.282C13.2773 13.8746 13.081 14.3985 13.0366 14.4484C12.986 14.4983 12.2323 14.673 11.2633 14.8601C10.3386 15.0347 9.55324 15.2094 9.52791 15.2405C9.42658 15.3403 8.5969 17.9849 7.39988 22.0017C6.75388 24.1786 6.14587 26.187 6.0572 26.4614C5.39219 28.4823 3.88484 29.8732 1.82648 30.3597C1.19947 30.5094 1.20581 30.5094 1.06647 30.3597V30.3597Z" fill="white"/>
<path d="M40.2702 26.461C38.9402 26.3051 38.2119 26.2053 38.1675 26.1554C38.1549 26.1429 38.5412 24.7895 39.0352 23.1491C39.5292 21.5024 40.4412 18.4337 41.0682 16.3255C41.6952 14.2173 42.2463 12.4521 42.2906 12.4022C42.4173 12.2775 45.8753 11.6475 46.0146 11.7161C46.2426 11.8347 46.2616 11.9843 46.097 12.4646C46.0083 12.7203 45.945 12.9574 45.9513 13.001C45.964 13.0384 46.2236 12.9137 46.5593 12.7079C48.2567 11.6538 49.612 11.4978 50.809 12.2214C52.101 13.001 52.7281 14.6414 52.5317 16.7122C52.3924 18.1967 51.9807 19.7809 51.4867 20.7352C51.0544 21.5764 50.4468 22.3184 49.7036 22.9127C48.9604 23.507 48.0984 23.9404 47.1737 24.1844C46.553 24.3528 45.3053 24.4215 44.7986 24.3154C44.0829 24.172 43.3356 23.6855 43.1519 23.2426C43.1076 23.1428 43.0506 23.0804 43.0253 23.1054C42.9999 23.1303 42.7403 23.935 42.4553 24.8893L41.9296 26.617L41.7332 26.6107C41.6256 26.6107 40.9669 26.5421 40.2702 26.461V26.461ZM46.3693 22.1012C48.5923 20.9473 50.0174 17.1675 49.023 15.0593C48.4087 13.7495 46.9203 13.6809 45.5396 14.8972C45.3053 15.1092 45.2926 15.1279 44.444 18.0594C43.6523 20.8101 43.5953 21.0284 43.6713 21.228C43.8393 21.6438 44.1481 21.9897 44.5453 22.2072C44.862 22.3694 44.9443 22.3819 45.4003 22.3632C45.8373 22.3382 45.9703 22.307 46.3693 22.1012V22.1012Z" fill="white"/>
<path d="M28.0469 25.0203C27.4579 24.9392 26.6662 24.8332 26.2989 24.7895L25.6276 24.7147L26.4762 21.8767C26.9449 20.3174 27.7619 17.5543 28.2939 15.7393C28.8323 13.9304 29.3009 12.4148 29.3326 12.3836C29.3959 12.3212 32.5753 11.71 32.9047 11.6975C33.12 11.6913 33.272 11.8098 33.272 11.9844C33.272 12.0655 33.2023 12.3337 33.1137 12.5832C33.025 12.8327 32.968 13.051 32.9807 13.0635C32.9933 13.0759 33.2087 12.9574 33.462 12.7953C34.0573 12.4148 34.9757 11.9969 35.4887 11.8659C35.7989 11.7887 36.1197 11.7613 36.4387 11.7848C36.9137 11.8035 37.0404 11.841 37.5344 12.078C38.2627 12.421 38.7821 12.92 39.1114 13.5812C39.5167 14.3982 39.5737 14.7039 39.5674 16.0761C39.5674 17.3797 39.4661 18.047 39.0671 19.413C38.3767 21.7707 36.6857 23.461 34.317 24.1596C33.804 24.3155 33.6457 24.3342 32.7653 24.3342C31.9103 24.3404 31.7393 24.3217 31.4226 24.2032C30.9033 24.0161 30.498 23.7105 30.2763 23.3612C30.156 23.1741 30.0673 23.0805 30.0483 23.1304C30.0356 23.1803 29.8899 23.6543 29.7253 24.1845C29.4529 25.0764 29.4213 25.1513 29.2756 25.1638C29.1933 25.17 28.6423 25.1014 28.0469 25.0203V25.0203ZM33.3353 22.1512C34.7857 21.4713 36.0334 19.544 36.35 17.4982C36.5907 15.9451 36.1727 14.6602 35.267 14.1862C35.0707 14.0801 34.8997 14.049 34.5007 14.049C34.0447 14.049 33.9497 14.0739 33.519 14.2797C33.2196 14.4318 32.9409 14.6204 32.6893 14.8411L32.3346 15.1717L31.4986 18.1157L30.6563 21.0596L30.8273 21.4027C31.0173 21.7832 31.448 22.1948 31.7646 22.3009C31.8786 22.3383 32.189 22.3632 32.4486 22.357C32.8287 22.3445 33.006 22.3071 33.3353 22.1512V22.1512Z" fill="white"/>
<path d="M22.5683 23.499C21.213 23.3306 20.3389 22.501 20.2439 21.2972C20.1996 20.686 20.2946 20.1932 20.6746 19.058C21.1243 17.7295 21.5423 16.3386 22.125 14.2741C22.4036 13.2948 22.6506 12.4777 22.6823 12.4465C22.714 12.4153 23.5183 12.2407 24.4747 12.0536C26.0327 11.7542 26.2227 11.7292 26.3557 11.8103C26.4 11.8398 26.436 11.8799 26.4604 11.9268C26.4848 11.9737 26.4967 12.0259 26.495 12.0785C26.495 12.1783 26.2353 13.1264 25.9187 14.1805C24.69 18.2971 23.8983 21.1288 23.8983 21.397C23.8983 21.5841 23.9363 21.7026 24.0123 21.7713C24.1643 21.9085 24.5317 21.9085 24.8103 21.7713C25.013 21.6777 25.0383 21.6777 25.1903 21.7775C25.412 21.9147 25.4057 22.1642 25.1777 22.4761C24.595 23.2682 23.6513 23.6362 22.5683 23.499V23.499Z" fill="white"/>
<path d="M15.4178 23.3993C14.5818 23.181 13.8218 22.5635 13.5938 21.9273C13.5052 21.6716 13.4798 21.4284 13.4862 20.8795C13.4925 20.2682 13.5178 20.0749 13.6825 19.5696C14.4678 17.1184 14.8605 15.8398 15.8232 12.534C16.5579 9.98921 16.9569 8.72928 17.0329 8.65444C17.1215 8.57959 17.6535 8.45484 18.8506 8.22407C20.6492 7.88725 20.7569 7.88725 20.8266 8.17417C20.8519 8.25525 20.4086 9.83952 19.7182 12.1473C17.8625 18.3471 17.1152 20.9481 17.0772 21.3348C17.0202 21.9086 17.2545 22.0521 17.9829 21.8712C18.8442 21.6529 18.4642 22.7257 17.5015 23.2184C16.9505 23.4991 16.0828 23.574 15.4178 23.3993V23.3993Z" fill="white"/>
<path d="M25.1333 10.6934C24.709 10.5499 24.4937 10.4189 24.2277 10.1195C24.0641 9.93549 23.9408 9.72031 23.8653 9.48735C23.7897 9.25439 23.7636 9.00862 23.7886 8.76531C23.8135 8.522 23.889 8.28634 24.0103 8.07295C24.1316 7.85956 24.2961 7.67299 24.4937 7.52484C25.431 6.82003 26.7357 7.14437 27.2677 8.21094C27.5654 8.79724 27.426 9.6268 26.9447 10.1694C26.533 10.6248 25.6843 10.868 25.1333 10.6934V10.6934Z" fill="white"/>
</g>
<defs>
<clipPath id="clip0_598_4933">
<rect width="58.8571" height="40" fill="white" transform="translate(0.983398)"/>
</clipPath>
</defs>
</svg>
