<svg width="160" height="39" viewBox="0 0 160 39" fill="none" xmlns="http://www.w3.org/2000/svg">
    <path
        d="M49.2964 10.5984H51.8778V17.7569C52.6568 16.296 54.1663 15.37 55.92 15.37C58.2583 15.37 59.7435 16.6364 59.7435 19.1692V27.8383H57.1621V19.9726C57.1621 18.4144 56.5046 17.611 55.1167 17.611C53.4856 17.611 51.8778 19.2421 51.8778 22.6269V27.8383H49.2964V10.5984Z"
        fill="white" />
    <path
        d="M61.4414 21.7032C61.4414 18.5858 63.268 15.3723 67.1634 15.3723C70.9868 15.3723 72.7881 18.4156 72.7881 21.3141V22.386H64.0704C64.2892 24.5773 65.5069 25.7951 67.3336 25.7951C68.6242 25.7951 69.5492 25.2835 70.2553 24.2856L72.3008 25.2348C71.2775 27.0372 69.6708 28.035 67.212 28.035C63.3156 28.035 61.4414 24.8691 61.4414 21.7042V21.7032ZM70.1591 20.2909C69.8674 18.8057 68.9414 17.6123 67.1644 17.6123C65.7765 17.6123 64.583 18.5129 64.194 20.2909H70.1602H70.1591Z"
        fill="white" />
    <path
        d="M74.1973 21.7032C74.1973 17.904 76.1455 15.3723 79.4573 15.3723C80.9668 15.3723 82.2332 16.0541 82.9879 17.1989V16.274V15.5679H85.5693V27.8405H82.9879V27.1587V26.0869C82.4034 27.2317 80.9911 28.035 79.3357 28.035C76.1212 28.035 74.1983 25.4537 74.1983 21.7042L74.1973 21.7032ZM80.0662 25.794C82.0387 25.794 83.2321 24.1143 83.2321 21.7032C83.2321 19.292 82.0387 17.6123 80.0662 17.6123C78.0937 17.6123 76.8759 19.292 76.8759 21.7032C76.8759 24.1143 78.0937 25.794 80.0662 25.794Z"
        fill="white" />
    <path
        d="M87.2705 21.7029C87.2705 17.9038 89.2187 15.3721 92.5305 15.3721C94.113 15.3721 95.355 16.1025 96.0612 17.1987V16.1025V10.5994H98.6425V27.8392H96.0612V27.2547V26.0856C95.4766 27.2304 94.1373 28.0337 92.6035 28.0337C89.243 28.0337 87.2705 25.501 87.2705 21.7029ZM93.1394 25.7938C95.1119 25.7938 96.3053 24.1141 96.3053 21.7029C96.3053 19.2917 95.1119 17.612 93.1394 17.612C91.1669 17.612 89.9491 19.2917 89.9491 21.7029C89.9491 24.1141 91.1669 25.7938 93.1394 25.7938Z"
        fill="white" />
    <path
        d="M100.135 25.0382L102.229 23.8934C102.692 25.0868 103.471 25.7929 104.786 25.7929C105.687 25.7929 106.417 25.3056 106.417 24.3077C106.417 23.3585 105.224 22.8226 103.836 22.2866C102.107 21.6291 100.865 20.6555 100.865 18.7317C100.865 16.8078 102.448 15.3712 104.616 15.3712C106.222 15.3712 107.489 16.0773 108.268 17.2465L106.637 18.5615C106.077 17.8067 105.419 17.6122 104.64 17.6122C103.91 17.6122 103.276 18.0266 103.276 18.7813C103.276 19.4875 103.837 19.9505 105.858 20.7052C107.563 21.3141 108.852 22.3363 108.852 24.1629C108.852 26.5488 107.196 28.035 104.786 28.035C102.205 28.035 100.695 26.5984 100.135 25.0403V25.0382Z"
        fill="white" />
    <path
        d="M110.656 15.5668H113.238V16.2486V17.3205C113.822 16.1757 115.162 15.3723 116.695 15.3723C120.056 15.3723 122.028 17.9051 122.028 21.7032C122.028 25.5012 120.08 28.034 116.768 28.034C115.259 28.034 113.944 27.3279 113.238 26.183V27.2549V32.8067H110.656V15.5668ZM116.159 25.794C118.132 25.794 119.35 24.1143 119.35 21.7032C119.35 19.292 118.132 17.6123 116.159 17.6123C114.187 17.6123 112.993 19.292 112.993 21.7032C112.993 24.1143 114.187 25.794 116.159 25.794Z"
        fill="white" />
    <path
        d="M123.367 21.7032C123.367 17.904 125.315 15.3723 128.627 15.3723C130.137 15.3723 131.403 16.0541 132.158 17.1989V16.274V15.5679H134.739V27.8405H132.158V27.1587V26.0869C131.573 27.2317 130.161 28.035 128.506 28.035C125.291 28.035 123.368 25.4537 123.368 21.7042L123.367 21.7032ZM129.236 25.794C131.209 25.794 132.402 24.1143 132.402 21.7032C132.402 19.292 131.209 17.6123 129.236 17.6123C127.264 17.6123 126.046 19.292 126.046 21.7032C126.046 24.1143 127.264 25.794 129.236 25.794Z"
        fill="white" />
    <path
        d="M136.307 21.7032C136.307 18.3184 138.255 15.3723 142.126 15.3723C144.756 15.3723 146.607 16.5414 147.508 18.83L145.219 19.7793C144.586 18.3913 143.637 17.6123 142.127 17.6123C140.009 17.6123 138.986 19.3903 138.986 21.7032C138.986 24.016 140.009 25.794 142.127 25.794C143.637 25.794 144.563 25.015 145.219 23.627L147.508 24.552C146.607 26.8406 144.756 28.034 142.126 28.034C138.254 28.034 136.307 25.0879 136.307 21.7032Z"
        fill="white" />
    <path
        d="M148.653 21.7021C148.653 18.5847 150.48 15.3712 154.375 15.3712C158.199 15.3712 160 18.4145 160 21.313V22.3849H151.282C151.501 24.5762 152.719 25.794 154.545 25.794C155.836 25.794 156.761 25.2824 157.467 24.2845L159.513 25.2338C158.489 27.0361 156.883 28.034 154.424 28.034C150.528 28.034 148.653 24.868 148.653 21.7031V21.7021ZM157.371 20.2898C157.079 18.8046 156.153 17.6112 154.376 17.6112C152.988 17.6112 151.795 18.5118 151.406 20.2898H157.372H157.371Z"
        fill="white" />
    <path
        d="M38.741 18.9484C39.185 25.2401 36.2802 28.7898 34.5064 31.2908C31.7633 34.1745 28.295 38.1068 19.5022 38.3288C12.0403 38.6312 8.35005 35.3436 5.26444 32.48C1.25072 28.0646 0.202097 25.4431 0.000194933 18.9484C-0.0198895 14.9558 1.51287 10.9822 4.21476 7.47379C7.98642 2.15035 13.9758 0.375515 19.5022 0.0118799C25.3098 -0.210106 29.9282 2.71377 33.074 5.86069C37.1079 10.1154 38.3372 13.7666 38.741 18.9494"
        fill="white" />
</svg>