<svg xmlns="http://www.w3.org/2000/svg" width="254" height="61" viewBox="0 0 254 61" fill="none" class="h-full w-auto">
    <g clip-path="url(#clip0_366_229)">
        <path
            d="M65.8 29.2001C62 28.2001 60.4 27.6001 60.4 25.4001C60.4 23.8001 61.8 22.6001 64.3 22.6001C66.8 22.6001 68.4 23.7001 69.6 25.2001L72.7 22.6001C70.7 20.0001 68.1 18.6001 64.2 18.6001C59.3 18.6001 56.1 21.4001 56.1 25.5001C56.1 29.9001 59 31.8001 63.9 33.1001C68.2 34.3001 69.9 35.2001 69.9 37.4001C69.9 39.4001 68.1 40.7001 64.9 40.7001C61.7 40.7001 59.1 39.2001 57.6 36.7001L54.3 39.0001C56.6 42.5001 60.2 44.6001 64.9 44.6001C70.8 44.6001 74.3 41.8001 74.3 37.1001C74.4 32.7001 71.1 30.6001 65.8 29.2001Z"
            fill="white"></path>
        <path
            d="M99.7 23.5998C98 20.4998 95 18.7998 91 18.7998C84.1 18.7998 78.9 24.3998 78.9 31.7998C78.9 39.1998 84.1 44.7998 91 44.7998C95.1 44.7998 98 43.0998 99.7 39.9998V44.1998H104.3V19.2998H99.7V23.5998ZM91.9 40.6998C87 40.6998 83.8 36.9998 83.8 31.7998C83.8 26.5998 87 22.7998 91.9 22.7998C96.8 22.7998 99.9 26.4998 99.9 31.7998C99.9 37.0998 96.7 40.6998 91.9 40.6998Z"
            fill="white"></path>
        <path
            d="M140.2 18.7002C136.2 18.7002 133.4 20.2002 131.5 23.3002C130 20.2002 127.4 18.7002 124 18.7002C120.6 18.7002 118 20.1002 116.6 22.7002V19.3002H112V44.1002H116.6V29.9002C116.6 25.4002 118.9 22.9002 123 22.9002C126.5 22.9002 128.3 25.0002 128.3 28.9002V44.1002H132.9V29.7002C132.9 25.3002 135.2 22.8002 139.3 22.8002C142.8 22.8002 144.6 24.8002 144.6 28.7002V44.0002H149.2V28.3002C149.1 22.3002 145.4 18.7002 140.2 18.7002Z"
            fill="white"></path>
        <path
            d="M165.7 29.2001C161.9 28.2001 160.3 27.6001 160.3 25.4001C160.3 23.8001 161.7 22.6001 164.2 22.6001C166.7 22.6001 168.3 23.7001 169.5 25.2001L172.6 22.6001C170.6 20.0001 168 18.6001 164.1 18.6001C159.2 18.6001 156 21.4001 156 25.5001C156 29.9001 158.9 31.8001 163.8 33.1001C168.1 34.3001 169.8 35.2001 169.8 37.4001C169.8 39.4001 168 40.7001 164.8 40.7001C161.6 40.7001 159 39.2001 157.5 36.7001L154.2 39.0001C156.5 42.5001 160.1 44.6001 164.8 44.6001C170.7 44.6001 174.2 41.8001 174.2 37.1001C174.3 32.7001 171 30.6001 165.7 29.2001Z"
            fill="white"></path>
        <path
            d="M199.6 23.5998C197.9 20.4998 194.9 18.7998 190.9 18.7998C184 18.7998 178.8 24.3998 178.8 31.7998C178.8 39.1998 184 44.7998 190.9 44.7998C195 44.7998 197.9 43.0998 199.6 39.9998V44.1998H204.2V19.2998H199.6V23.5998ZM191.7 40.6998C186.8 40.6998 183.6 36.9998 183.6 31.7998C183.6 26.5998 186.8 22.7998 191.7 22.7998C196.6 22.7998 199.7 26.4998 199.7 31.7998C199.7 37.0998 196.6 40.6998 191.7 40.6998Z"
            fill="white"></path>
        <path
            d="M249.2 19.3002V23.5002C247.5 20.4002 244.5 18.7002 240.5 18.7002C233.6 18.7002 228.4 24.3002 228.4 31.7002C228.4 39.1002 233.6 44.7002 240.5 44.7002C244.6 44.7002 247.5 43.0002 249.2 39.9002V44.1002H253.8V19.3002H249.2ZM241.4 40.7002C236.5 40.7002 233.3 37.0002 233.3 31.8002C233.3 26.6002 236.5 22.8002 241.4 22.8002C246.3 22.8002 249.4 26.5002 249.4 31.8002C249.4 37.1002 246.2 40.7002 241.4 40.7002Z"
            fill="white"></path>
        <path d="M223.6 18.7002L216.4 25.1002V19.3002H211.9V44.1002H216.4V31.2002L226.6 22.2002L223.6 18.7002Z"
            fill="white"></path>
        <path
            d="M25.5 6.1001C24.4 6.1001 23.2 6.3001 22 6.7001C21.5 6.9001 20.9 6.9001 20.4 6.7001C19.2 6.3001 18.1 6.1001 16.9 6.1001C10.3 6.1001 4.79999 12.7001 4.79999 20.4001C4.79999 29.0001 11.4 36.7001 20.9 39.0001H21.5C31 36.7001 37.6 29.1001 37.6 20.4001C37.6 12.6001 32 6.1001 25.5 6.1001ZM33.1 19.6001C32.6 20.8001 31.8 21.7001 30.7 22.3001C29.8 22.9001 28.7 23.2001 27.6 23.2001C27.1 23.2001 26.7 22.8001 26.7 22.4001C26.7 21.9001 27.1 21.5001 27.5 21.5001C28.3 21.5001 29 21.2001 29.7 20.8001C30.5 20.3001 31 19.7001 31.4 18.8001C31.6 18.3001 31.6 17.7001 31.3 17.3001C31 16.8001 30.5 16.6001 30 16.5001C28.8 16.4001 27.9 16.8001 27.1 17.5001C25.9 18.7001 25.4 20.9001 25.2 21.8001C25 22.6001 23 31.1001 22.2 34.6001C22.1 35.1001 21.6 35.5001 21 35.5001C20.4 35.5001 20 35.1001 19.8 34.6001L19.5 33.3001C18.6 29.4001 16.9 22.5001 16.8 21.8001C16.6 20.9001 16.1 18.7001 14.9 17.5001C14.2 16.8001 13.2 16.4001 12 16.5001C11.5 16.5001 11 16.8001 10.7 17.3001C10.4 17.8001 10.4 18.3001 10.6 18.8001C11 19.6001 11.6 20.3001 12.3 20.8001C13 21.2001 13.7 21.4001 14.5 21.5001C15 21.5001 15.3 21.9001 15.3 22.4001C15.3 22.9001 14.9 23.2001 14.4 23.2001C13.3 23.2001 12.3 22.8001 11.3 22.3001C10.3 21.6001 9.49999 20.7001 8.89999 19.6001C8.49999 18.6001 8.49999 17.4001 9.09999 16.5001C9.69999 15.6001 10.7 15.0001 11.7 14.9001C13.3 14.8001 14.8 15.3001 15.9 16.4001C17.5 18.0001 18 20.5001 18.3 21.5001C18.5 22.2001 19.9 28.2001 20.8 32.2001C21.7 28.2001 23.2 22.2001 23.3 21.5001C23.5 20.4001 24.1 17.9001 25.7 16.4001C26.8 15.3001 28.2 14.8001 29.9 14.9001C31 15.0001 32 15.6001 32.5 16.5001C33.5 17.4001 33.5 18.6001 33.1 19.6001Z"
            fill="white"></path>
        <path
            d="M21.2 0C9.5 0 0 9.5 0 21.2V39.5C0 51.2 9.5 60.7 21.2 60.7C32.9 60.7 42.4 51.2 42.4 39.5V21.2C42.4 9.5 32.9 0 21.2 0ZM5.8 43.7C5.8 44.2 5.4 44.6 4.9 44.6C4.4 44.6 4 44.2 4 43.7V42.5C4 42 4.4 41.6 4.9 41.6C5.4 41.6 5.8 42 5.8 42.5V43.7ZM5.8 38.3C5.8 38.8 5.4 39.2 4.9 39.2C4.4 39.2 4 38.8 4 38.3V37.1C4 36.6 4.4 36.2 4.9 36.2C5.4 36.2 5.8 36.6 5.8 37.1V38.3ZM11.2 51.8C11.2 52.3 10.8 52.7 10.3 52.7C9.8 52.7 9.4 52.3 9.4 51.8V50.6C9.4 50.1 9.8 49.7 10.3 49.7C10.8 49.7 11.2 50.1 11.2 50.6V51.8ZM11.2 46.4C11.2 46.9 10.8 47.3 10.3 47.3C9.8 47.3 9.4 46.9 9.4 46.4V45.2C9.4 44.7 9.8 44.3 10.3 44.3C10.8 44.3 11.2 44.7 11.2 45.2V46.4ZM16.6 54.5C16.6 55 16.2 55.4 15.7 55.4C15.2 55.4 14.8 55 14.8 54.5V53.3C14.8 52.8 15.2 52.4 15.7 52.4C16.2 52.4 16.6 52.8 16.6 53.3V54.5ZM16.6 49.1C16.6 49.6 16.2 50 15.7 50C15.2 50 14.8 49.6 14.8 49.1V47.9C14.8 47.4 15.2 47 15.7 47C16.2 47 16.6 47.4 16.6 47.9V49.1ZM22 51.8C22 52.3 21.6 52.7 21.1 52.7C20.6 52.7 20.2 52.3 20.2 51.8V50.6C20.2 50.1 20.6 49.7 21.1 49.7C21.6 49.7 22 50.1 22 50.6V51.8ZM22 46.4C22 46.9 21.6 47.3 21.1 47.3C20.6 47.3 20.2 46.9 20.2 46.4V45.2C20.2 44.7 20.6 44.3 21.1 44.3C21.6 44.3 22 44.7 22 45.2V46.4ZM27.5 54.5C27.5 55 27.1 55.4 26.6 55.4C26.1 55.4 25.7 55 25.7 54.5V53.3C25.7 52.8 26.1 52.4 26.6 52.4C27.1 52.4 27.5 52.8 27.5 53.3V54.5ZM27.5 49.1C27.5 49.6 27.1 50 26.6 50C26.1 50 25.7 49.6 25.7 49.1V47.9C25.7 47.4 26.1 47 26.6 47C27.1 47 27.5 47.4 27.5 47.9V49.1ZM32.9 51.8C32.9 52.3 32.5 52.7 32 52.7C31.5 52.7 31.1 52.3 31.1 51.8V50.6C31.1 50.1 31.5 49.7 32 49.7C32.5 49.7 32.9 50.1 32.9 50.6V51.8ZM32.9 46.4C32.9 46.9 32.5 47.3 32 47.3C31.5 47.3 31.1 46.9 31.1 46.4V45.2C31.1 44.7 31.5 44.3 32 44.3C32.5 44.3 32.9 44.7 32.9 45.2V46.4ZM38.3 43.7C38.3 44.2 37.9 44.6 37.4 44.6C36.9 44.6 36.5 44.2 36.5 43.7V42.5C36.5 42 36.9 41.6 37.4 41.6C37.9 41.6 38.3 42 38.3 42.5V43.7ZM38.3 38.3C38.3 38.8 37.9 39.2 37.4 39.2C36.9 39.2 36.5 38.8 36.5 38.3V37.1C36.5 36.6 36.9 36.2 37.4 36.2C37.9 36.2 38.3 36.6 38.3 37.1V38.3ZM21.9 40.6C21.7 40.7 21.4 40.7 21.2 40.7C21 40.7 20.7 40.7 20.5 40.6C10.3 38.2 3.1 29.9 3.1 20.4C3.1 11.7 9.4 4.4 16.9 4.4C18.2 4.4 19.6 4.6 20.9 5.1C21.1 5.2 21.3 5.2 21.4 5.1C22.7 4.7 24.1 4.4 25.4 4.4C32.9 4.4 39.2 11.7 39.2 20.4C39.3 29.9 32.1 38.2 21.9 40.6Z"
            fill="white"></path>
    </g>
    <defs>
        <clipPath id="clip0_366_229">
            <rect width="253.8" height="60.7" fill="white"></rect>
        </clipPath>
    </defs>
</svg>