<svg width="111" height="40" viewBox="0 0 111 40" fill="none" xmlns="http://www.w3.org/2000/svg">
<g clip-path="url(#clip0_598_4949)">
<path fill-rule="evenodd" clip-rule="evenodd" d="M28.8156 20.2682C28.8156 12.31 31.6465 7.34705 35.1528 6.75973C31.6289 2.58383 25.8496 0.299127 20.593 0.299127C17.829 0.283889 15.0928 0.851362 12.5628 1.96455C10.0329 3.07773 7.76592 4.71163 5.90979 6.75973C9.43376 7.43515 10.4909 10.4012 10.4909 14.8472H6.29156C6.29156 12.1514 5.75122 10.8064 4.13019 10.8064C3.81965 10.8094 3.51621 10.8997 3.2545 11.0669C2.99279 11.2341 2.78337 11.4715 2.65013 11.752C2.63484 11.8524 2.58745 11.9451 2.51504 12.0163C2.36121 12.4047 2.27002 12.8151 2.24487 13.2321C2.24487 18.6237 11.278 18.3536 11.278 26.8522C11.278 30.0825 8.71722 33.1836 5.8863 33.1836C7.72729 35.2107 9.96965 36.8328 12.471 37.9471C14.9724 39.0613 17.6781 39.6432 20.4164 39.6559C23.1547 39.6686 25.8657 39.1118 28.3773 38.0209C30.8889 36.9299 33.1463 35.3286 35.006 33.3187C31.6347 32.514 28.8038 27.7919 28.8038 20.2448L28.8156 20.2682ZM26.9302 33.1894H22.3432V22.0185H17.4919V33.2071H13.0399V7.32356H17.4919V17.8426H22.3432V7.32356H26.9302V33.2071V33.1894Z" fill="white"/>
<path fill-rule="evenodd" clip-rule="evenodd" d="M4.81736 29.1711C6.03313 29.1711 6.97285 27.9553 6.97285 26.3402C6.97285 23.104 4.00685 22.4286 0.905762 19.5977V20.6783C1.00561 25.747 2.80283 29.1711 4.81736 29.1711Z" fill="white"/>
<path fill-rule="evenodd" clip-rule="evenodd" d="M33.2678 19.8635C33.2678 15.4116 34.4777 11.1006 36.7918 11.1006C39.6227 11.1006 40.3157 17.8431 40.3157 19.9986C40.3157 24.5797 38.8357 28.8966 36.7918 28.8966C34.4953 28.8966 33.2678 24.4447 33.2678 19.8635Z" fill="white"/>
<path fill-rule="evenodd" clip-rule="evenodd" d="M78.2983 7.72852H59.2866L57.4012 22.5585L55.3808 7.72852H51.1991L49.0377 22.5585H48.9085L47.2875 7.72852H43.1116L46.477 32.9425H50.5236L52.8142 16.8967H52.9493L55.1048 32.9425H59.2866L61.9824 11.6401H65.894V32.9425H70.4751V11.6401H74.6569V32.9425H79.379V7.72852H78.2983Z" fill="white"/>
<path fill-rule="evenodd" clip-rule="evenodd" d="M81.5344 7.72852H87.7366L89.757 20.6732L91.9125 7.72852H97.9796V32.9425H93.8037V14.471L90.7026 32.9425H88.1419L85.0408 14.471H84.9057V32.9425H81.5344V7.72852Z" fill="white"/>
<path fill-rule="evenodd" clip-rule="evenodd" d="M100.14 7.72852H110.518V11.6401H104.722V17.9774H109.038V22.1533H104.722V29.0309H110.789V32.9425H100.14V7.72852Z" fill="white"/>
</g>
<defs>
<clipPath id="clip0_598_4949">
<rect width="110.639" height="40" fill="white" transform="translate(0.150391)"/>
</clipPath>
</defs>
</svg>
