<svg width="325" height="40" viewBox="0 0 325 40" fill="none" xmlns="http://www.w3.org/2000/svg">
<path d="M60.703 35.3517C55.833 35.3517 53.4207 32.5714 53.4207 27.9325V15.6854H49.0136V10.9051H53.4207V4.7849L59.2202 3.3457V10.9051H65.2984V15.6854H59.2201V27.4193C59.2201 29.2771 60.055 30.0662 61.9089 30.0662C63.1155 30.0662 64.0912 30.0193 65.6692 29.8325V34.7051C64.0446 35.121 62.4214 35.3517 60.703 35.3517Z" fill="white"/>
<path d="M83.0153 35.0294V20.138C83.0153 17.356 82.0892 15.6393 79.0284 15.6393C75.5444 15.6393 74.0634 19.3497 74.0634 22.3185V35.0294H68.265V1.53906H74.0634V13.4577C75.4566 11.4165 78.145 10.3032 80.6483 10.3032C85.799 10.3032 88.8161 13.968 88.8161 18.9342V35.0294H83.0153Z" fill="white"/>
<path d="M113.722 24.7773H97.5808C97.5358 26.6315 98.1828 28.3951 99.3402 29.5074C100.174 30.2965 101.336 30.9944 102.914 30.9944C104.583 30.9944 105.603 30.6686 106.442 29.8318C106.948 29.3221 107.367 28.674 107.599 27.7912H113.164C113.025 29.2315 112.052 31.1345 111.123 32.2463C109.087 34.6569 106.068 35.6308 103.009 35.6308C99.7148 35.6308 97.2988 34.4726 95.3992 32.6613C92.9879 30.3433 91.688 26.9567 91.688 23.0163C91.688 19.1624 92.8474 15.7331 95.1678 13.3637C96.9767 11.5111 99.5727 10.3037 102.866 10.3037C106.442 10.3037 109.686 11.7423 111.678 14.7561C113.443 17.4006 113.86 20.1378 113.769 23.1534C113.769 23.1534 113.722 24.2693 113.722 24.7773ZM106.487 16.3364C105.697 15.4997 104.49 14.9425 102.819 14.9425C101.057 14.9425 99.6221 15.6847 98.7825 16.7997C97.953 17.8652 97.5806 18.9797 97.5355 20.5549H107.971C107.927 18.7476 107.413 17.3551 106.487 16.3364Z" fill="white"/>
<path d="M125.922 7.70544V35.0289H119.939V7.70544H110.198V2.13965H135.662V7.70544H125.922Z" fill="white"/>
<path d="M145.582 16.0553C141.503 16.0553 139.367 18.9789 139.367 22.8759V35.0292H133.526V10.9055H138.441L138.951 14.5257C140.063 11.7428 142.938 10.584 145.77 10.584C146.372 10.584 146.977 10.6303 147.579 10.722V16.2881C146.929 16.1485 146.234 16.0553 145.582 16.0553Z" fill="white"/>
<path d="M167.198 35.3991C164.694 35.3991 163.303 33.8215 163.116 32.0146C162.003 33.9611 159.22 35.6308 155.787 35.6308C150.038 35.6308 147.066 32.0146 147.066 28.0701C147.066 23.4779 150.639 20.8357 155.23 20.5115L162.331 19.9969V18.5149C162.331 16.2405 161.538 14.7129 158.245 14.7129C155.555 14.7129 153.978 15.9167 153.839 18.1435H148.227C148.549 12.7122 152.864 10.3037 158.245 10.3037C162.376 10.3037 165.901 11.6035 167.291 15.2207C167.893 16.7526 167.988 18.4688 167.988 20.0917V29.0444C167.988 30.1573 168.359 30.5763 169.334 30.5763C169.703 30.5763 170.076 30.4821 170.076 30.4821V34.7485C169.1 35.1689 168.591 35.3991 167.198 35.3991ZM162.331 24.3118L156.204 24.777C154.442 24.916 152.727 25.9846 152.727 27.9319C152.727 29.7866 154.349 30.9458 156.158 30.9458C159.778 30.9458 162.331 28.9984 162.331 25.4261V24.3118Z" fill="white"/>
<path d="M188.443 35.0292L188.074 32.3858C186.633 34.6121 183.943 35.5856 181.3 35.5856C178.887 35.5856 176.893 34.7466 175.409 33.5466C172.531 31.1793 171.141 27.5605 171.141 23.0162C171.141 18.282 172.578 14.6196 175.454 12.251C176.938 11.0471 178.887 10.3036 181.347 10.3036C184.409 10.3036 186.633 11.3246 187.655 12.5752V1.53809H193.451V35.0292H188.443ZM182.461 15.1766C180.653 15.1766 179.397 16.0082 178.564 17.0764C177.357 18.6545 177.034 20.8359 177.034 22.9253C177.034 25.0086 177.357 27.2344 178.564 28.8121C179.397 29.8771 180.653 30.7137 182.461 30.7137C187.005 30.7137 187.934 26.3985 187.934 22.9253C187.934 19.4406 187.005 15.1766 182.461 15.1766Z" fill="white"/>
<path d="M218.733 24.7773H202.591C202.545 26.6315 203.194 28.3951 204.354 29.5074C205.185 30.2965 206.347 30.9944 207.923 30.9944C209.595 30.9944 210.613 30.6686 211.45 29.8318C211.959 29.3221 212.378 28.674 212.607 27.7912H218.177C218.036 29.2315 217.061 31.1345 216.137 32.2463C214.095 34.6569 211.08 35.6308 208.017 35.6308C204.725 35.6308 202.312 34.4726 200.41 32.6613C197.997 30.3433 196.7 26.9567 196.7 23.0163C196.7 19.1624 197.857 15.7331 200.179 13.3637C201.988 11.5111 204.584 10.3037 207.877 10.3037C211.451 10.3037 214.698 11.7423 216.691 14.7561C218.454 17.4006 218.87 20.1378 218.779 23.1534C218.779 23.1534 218.733 24.2693 218.733 24.7773ZM211.498 16.3364C210.708 15.4997 209.502 14.9425 207.83 14.9425C206.069 14.9425 204.632 15.6847 203.798 16.7997C202.961 17.8652 202.591 18.9797 202.545 20.5549H212.98C212.933 18.7476 212.423 17.3551 211.498 16.3364Z" fill="white"/>
<path d="M244.151 31.5029C241.971 33.7775 238.678 35.0275 234.919 35.0275H222.119V2.14062H234.919C238.678 2.14062 241.971 3.39059 244.151 5.66522C247.535 9.14449 248.002 14.0165 248.002 18.5629C248.002 23.1087 247.535 28.0222 244.151 31.5029ZM239.558 9.37553C238.447 8.26295 236.822 7.51942 234.919 7.51942H228.102V29.6466H234.919C236.822 29.6466 238.447 28.9058 239.558 27.7908C241.878 25.4714 241.923 21.5766 241.923 18.5628C241.923 15.5441 241.878 11.6936 239.558 9.37553Z" fill="white"/>
<path d="M271.656 24.7773H255.513C255.466 26.6315 256.115 28.3951 257.278 29.5074C258.112 30.2965 259.269 30.9944 260.848 30.9944C262.518 30.9944 263.538 30.6686 264.374 29.8318C264.885 29.3221 265.3 28.674 265.534 27.7912H271.099C270.961 29.2315 269.986 31.1345 269.057 32.2463C267.018 34.6569 264.002 35.6308 260.939 35.6308C257.644 35.6308 255.235 34.4726 253.33 32.6613C250.92 30.3433 249.621 26.9567 249.621 23.0163C249.621 19.1624 250.782 15.7331 253.099 13.3637C254.908 11.5111 257.508 10.3037 260.8 10.3037C264.374 10.3037 267.619 11.7423 269.615 14.7561C271.376 17.4006 271.795 20.1378 271.702 23.1534C271.702 23.1534 271.656 24.2693 271.656 24.7773ZM264.421 16.3364C263.631 15.4997 262.424 14.9425 260.757 14.9425C258.994 14.9425 257.553 15.6847 256.719 16.7997C255.884 17.8652 255.513 18.9797 255.466 20.5549H265.903C265.859 18.7476 265.346 17.3551 264.421 16.3364Z" fill="white"/>
<path d="M296.657 1.53906V35.0294H302.455V28.6752L306.304 24.5016L313.076 35.0294H319.802L310.247 20.2331L318.875 10.9052H311.594L302.455 20.696V1.53906H296.657Z" fill="white"/>
<path d="M286.962 20.7404C284.595 20.3702 283.991 20.3246 281.812 20.043C280.512 19.8587 279.03 19.3492 279.03 17.6354C279.03 16.3791 279.866 15.4995 280.885 15.079C281.768 14.7127 282.556 14.7127 283.388 14.7127C284.595 14.7127 285.851 15.1282 286.543 15.8253C287.101 16.4286 287.518 17.1713 287.518 18.0977H293.036C293.036 16.3362 292.206 14.5255 290.904 13.1309C289.143 11.2313 286.219 10.3027 283.343 10.3027C280.329 10.3027 277.777 11.1865 276.015 12.7119C274.577 13.969 273.559 15.6846 273.559 18.1448C273.559 21.2047 275.783 23.8958 279.079 24.5929C281.21 25.0562 283.62 25.1947 285.755 25.5194C287.243 25.7525 288.169 26.6818 288.169 28.0691C288.169 30.7125 285.2 31.1344 283.251 31.1344C281.582 31.1344 280.512 30.8041 279.588 30.0658C278.966 29.5623 278.499 28.6684 278.351 27.7674H272.893C273.06 29.8155 274.129 31.6082 275.412 32.848C277.407 34.7464 280.143 35.6306 283.207 35.6306C286.5 35.6306 289.513 34.7992 291.461 32.848C292.713 31.5966 293.549 29.8769 293.549 27.5605C293.549 23.7563 290.769 21.3442 286.962 20.7404Z" fill="white"/>
<path d="M10.2941 0V6.23257H16.6683V22.4987H22.8034V6.13509V0H10.2941Z" fill="white"/>
<path d="M6.9267 21.0521C6.9267 16.2001 9.62288 11.9781 13.5987 9.80435L4.49507 9.80371C2.16683 12.9494 0.789062 16.8382 0.789062 21.0521C0.789062 29.413 6.20535 36.507 13.719 39.0222V32.3633C9.67776 30.2077 6.9267 25.9525 6.9267 21.0521Z" fill="white"/>
<path d="M25.8747 3.125V9.80242C29.8513 11.9773 32.5506 16.1987 32.5506 21.0524C32.5506 28.1257 26.8124 33.8625 19.7369 33.8625C18.6815 33.8625 17.6562 33.7341 16.6753 33.4939V39.7524C17.6727 39.913 18.6942 39.9997 19.7369 39.9997C30.201 39.9997 38.6851 31.5164 38.6851 21.0525C38.6849 12.7351 33.3264 5.67518 25.8747 3.125Z" fill="white"/>
<path d="M322.455 12.3591C321.175 12.3591 320.222 11.3572 320.222 10.0894C320.222 8.82155 321.175 7.81348 322.455 7.81348C323.735 7.81348 324.688 8.81549 324.688 10.0832C324.688 11.3512 323.735 12.3591 322.455 12.3591ZM322.455 8.20933C321.36 8.20933 320.637 9.00695 320.637 10.0894C320.637 11.1717 321.36 11.9632 322.455 11.9632C323.55 11.9632 324.273 11.1656 324.273 10.0832C324.273 9.00105 323.55 8.20933 322.455 8.20933ZM322.956 11.2336L322.56 10.3616H322.096V11.2336H321.682V8.86511H322.553C323.005 8.86511 323.395 9.12471 323.395 9.6072C323.395 9.91642 323.258 10.1639 322.968 10.2936L323.407 11.2337L322.956 11.2336ZM322.553 9.2482H322.09V9.97817H322.553C322.801 9.97817 322.962 9.8668 322.962 9.60704C322.962 9.3658 322.777 9.2482 322.553 9.2482Z" fill="white"/>
</svg>
