<svg xmlns="http://www.w3.org/2000/svg" viewBox="0 0 1020 476" font-family="Segoe UI, system-ui, -apple-system, sans-serif">
  <text x="510" y="28" font-size="22" fill="#1971c2" text-anchor="middle" font-weight="600">uv Dependency Flow in MLflow</text>

  <!-- Column headers -->
  <text x="220" y="60" font-size="14" fill="#495057" text-anchor="middle" font-weight="600">LOG TIME</text>
  <text x="760" y="60" font-size="14" fill="#495057" text-anchor="middle" font-weight="600">RESTORE TIME</text>

  <!-- Divider -->
  <line x1="490" y1="48" x2="490" y2="460" stroke="#dee2e6" stroke-width="1" stroke-dasharray="6,4"/>

  <!-- LOG TIME (left side) -->
  <!-- Box 1: log_model / save_model -->
  <rect x="100" y="78" width="240" height="40" rx="8" fill="#1971c2"/>
  <text x="220" y="103" font-size="14" fill="#f8f9fa" text-anchor="middle">log_model() / save_model()</text>

  <!-- Arrow -->
  <line x1="220" y1="118" x2="220" y2="142" stroke="#495057" stroke-width="2" marker-end="url(#arrow)"/>

  <!-- Box 2: detect_uv_project -->
  <rect x="100" y="142" width="240" height="40" rx="8" fill="#3b5bdb"/>
  <text x="220" y="167" font-size="14" fill="#f8f9fa" text-anchor="middle">detect_uv_project()</text>

  <!-- Arrow -->
  <line x1="220" y1="182" x2="220" y2="206" stroke="#495057" stroke-width="2" marker-end="url(#arrow)"/>

  <!-- Box 3: export_uv_requirements -->
  <rect x="100" y="206" width="240" height="40" rx="8" fill="#3b5bdb"/>
  <text x="220" y="226" font-size="13" fill="#f8f9fa" text-anchor="middle">export_uv_requirements()</text>
  <text x="220" y="241" font-size="10" fill="#c3cfe2" text-anchor="middle">uv export --frozen --no-dev</text>

  <!-- Arrow -->
  <line x1="220" y1="246" x2="220" y2="270" stroke="#495057" stroke-width="2" marker-end="url(#arrow)"/>

  <!-- Box 4: Write requirements.txt -->
  <rect x="100" y="270" width="240" height="40" rx="8" fill="#3b5bdb"/>
  <text x="220" y="295" font-size="14" fill="#f8f9fa" text-anchor="middle">Write requirements.txt</text>

  <!-- Arrow -->
  <line x1="220" y1="310" x2="220" y2="334" stroke="#495057" stroke-width="2" marker-end="url(#arrow)"/>

  <!-- Box 5: Save uv.lock + pyproject.toml -->
  <rect x="100" y="334" width="240" height="40" rx="8" fill="#087f5b"/>
  <text x="220" y="359" font-size="13" fill="#f8f9fa" text-anchor="middle">Save uv.lock + pyproject.toml</text>

  <text x="220" y="396" font-size="11" fill="#868e96" text-anchor="middle">as model artifacts</text>

  <!-- RESTORE TIME (right side) -->
  <!-- Box R1: prepare_env -->
  <rect x="640" y="78" width="240" height="40" rx="8" fill="#1971c2"/>
  <text x="760" y="103" font-size="14" fill="#f8f9fa" text-anchor="middle">prepare_env()</text>

  <!-- Arrow -->
  <line x1="760" y1="118" x2="760" y2="142" stroke="#495057" stroke-width="2" marker-end="url(#arrow)"/>

  <!-- Diamond: uv.lock artifact? -->
  <polygon points="760,142 840,178 760,214 680,178" fill="#fab005" stroke="#fab005"/>
  <text x="760" y="174" font-size="12" fill="#212529" text-anchor="middle" font-weight="600">uv.lock</text>
  <text x="760" y="188" font-size="12" fill="#212529" text-anchor="middle" font-weight="600">artifact?</text>

  <!-- No branch (left) -> pip install -->
  <line x1="680" y1="178" x2="580" y2="178" stroke="#495057" stroke-width="2" marker-end="url(#arrow)"/>
  <text x="630" y="170" font-size="13" fill="#e8590c" font-weight="600">No</text>

  <rect x="510" y="158" width="66" height="40" rx="8" fill="#495057"/>
  <text x="543" y="183" font-size="12" fill="#f8f9fa" text-anchor="middle">pip install</text>

  <!-- Yes branch (right) -->
  <line x1="840" y1="178" x2="910" y2="178" stroke="#495057" stroke-width="2"/>
  <text x="870" y="170" font-size="13" fill="#0ca678" font-weight="600">Yes</text>
  <line x1="910" y1="178" x2="910" y2="248" stroke="#495057" stroke-width="2"/>
  <line x1="910" y1="248" x2="760" y2="248" stroke="#495057" stroke-width="2" marker-end="url(#arrow)"/>

  <!-- Box R2: run_uv_sync -->
  <rect x="640" y="248" width="240" height="40" rx="8" fill="#3b5bdb"/>
  <text x="760" y="268" font-size="13" fill="#f8f9fa" text-anchor="middle">run_uv_sync()</text>
  <text x="760" y="283" font-size="10" fill="#c3cfe2" text-anchor="middle">uv sync --frozen</text>

  <!-- Arrow -->
  <line x1="760" y1="288" x2="760" y2="312" stroke="#495057" stroke-width="2" marker-end="url(#arrow)"/>

  <!-- Diamond: Sync OK? -->
  <polygon points="760,312 830,344 760,376 690,344" fill="#fab005" stroke="#fab005"/>
  <text x="760" y="340" font-size="12" fill="#212529" text-anchor="middle" font-weight="600">Sync</text>
  <text x="760" y="354" font-size="12" fill="#212529" text-anchor="middle" font-weight="600">OK?</text>

  <!-- Fail branch (left) -> Error -->
  <line x1="690" y1="344" x2="580" y2="344" stroke="#495057" stroke-width="2" marker-end="url(#arrow)"/>
  <text x="635" y="336" font-size="13" fill="#e8590c" font-weight="600">Fail</text>

  <rect x="510" y="324" width="66" height="40" rx="8" fill="#c92a2a"/>
  <text x="543" y="349" font-size="12" fill="#f8f9fa" text-anchor="middle">Error</text>

  <!-- OK branch (right) -> Environment Ready -->
  <line x1="830" y1="344" x2="910" y2="344" stroke="#495057" stroke-width="2"/>
  <text x="870" y="336" font-size="13" fill="#0ca678" font-weight="600">OK</text>
  <line x1="910" y1="344" x2="910" y2="420" stroke="#495057" stroke-width="2"/>
  <line x1="910" y1="420" x2="760" y2="420" stroke="#495057" stroke-width="2" marker-end="url(#arrow)"/>

  <rect x="640" y="400" width="240" height="40" rx="8" fill="#087f5b"/>
  <text x="760" y="425" font-size="14" fill="#f8f9fa" text-anchor="middle">Environment Ready</text>

  <!-- Legend -->
  <circle cx="240" cy="450" r="6" fill="#1971c2"/>
  <text x="252" y="454" font-size="11" fill="#495057">Entry</text>
  <circle cx="310" cy="450" r="6" fill="#3b5bdb"/>
  <text x="322" y="454" font-size="11" fill="#495057">Internal</text>
  <circle cx="390" cy="450" r="6" fill="#087f5b"/>
  <text x="402" y="454" font-size="11" fill="#495057">Output</text>
  <polygon points="470,444 480,450 470,456 460,450" fill="#fab005"/>
  <text x="486" y="454" font-size="11" fill="#495057">Decision</text>
  <circle cx="550" cy="450" r="6" fill="#c92a2a"/>
  <text x="562" y="454" font-size="11" fill="#495057">Error</text>

  <!-- Arrow marker -->
  <defs>
    <marker id="arrow" markerWidth="10" markerHeight="7" refX="9" refY="3.5" orient="auto">
      <polygon points="0 0, 10 3.5, 0 7" fill="#495057"/>
    </marker>
  </defs>
</svg>
