<svg xmlns="http://www.w3.org/2000/svg" viewBox="0 0 1020 500" font-family="Segoe UI, system-ui, -apple-system, sans-serif">
  <!-- Arrow marker -->
  <defs>
    <marker id="arrow" markerWidth="10" markerHeight="7" refX="9" refY="3.5" orient="auto">
      <polygon points="0 0, 10 3.5, 0 7" fill="#495057"/>
    </marker>
  </defs>

  <text x="510" y="28" font-size="22" fill="#1971c2" text-anchor="middle" font-weight="600">uv Dependency Flow in MLflow</text>

  <!-- Column headers -->
  <text x="220" y="60" font-size="14" fill="#495057" text-anchor="middle" font-weight="600" letter-spacing="1">LOG TIME</text>
  <text x="760" y="60" font-size="14" fill="#495057" text-anchor="middle" font-weight="600" letter-spacing="1">RESTORE TIME</text>

  <!-- Divider -->
  <line x1="490" y1="48" x2="490" y2="480" stroke="#dee2e6" stroke-width="1" stroke-dasharray="6,4"/>

  <!-- ==================== LOG TIME (left) ==================== -->

  <!-- Box 1: log_model / save_model -->
  <rect x="100" y="80" width="240" height="40" rx="8" fill="#1971c2"/>
  <text x="220" y="105" font-size="14" fill="#f8f9fa" text-anchor="middle">log_model() / save_model()</text>

  <line x1="220" y1="120" x2="220" y2="148" stroke="#495057" stroke-width="2" marker-end="url(#arrow)"/>

  <!-- Box 2: detect_uv_project -->
  <rect x="100" y="148" width="240" height="40" rx="8" fill="#3b5bdb"/>
  <text x="220" y="173" font-size="14" fill="#f8f9fa" text-anchor="middle">detect_uv_project()</text>

  <line x1="220" y1="188" x2="220" y2="216" stroke="#495057" stroke-width="2" marker-end="url(#arrow)"/>

  <!-- Box 3: export_uv_requirements -->
  <rect x="100" y="216" width="240" height="48" rx="8" fill="#3b5bdb"/>
  <text x="220" y="237" font-size="13" fill="#f8f9fa" text-anchor="middle">export_uv_requirements()</text>
  <text x="220" y="254" font-size="10" fill="#c3cfe2" text-anchor="middle">uv export --frozen --no-dev</text>

  <line x1="220" y1="264" x2="220" y2="292" stroke="#495057" stroke-width="2" marker-end="url(#arrow)"/>

  <!-- Box 4: Write requirements.txt -->
  <rect x="100" y="292" width="240" height="40" rx="8" fill="#3b5bdb"/>
  <text x="220" y="317" font-size="14" fill="#f8f9fa" text-anchor="middle">Write requirements.txt</text>

  <line x1="220" y1="332" x2="220" y2="360" stroke="#495057" stroke-width="2" marker-end="url(#arrow)"/>

  <!-- Box 5: Save uv.lock + pyproject.toml -->
  <rect x="100" y="360" width="240" height="40" rx="8" fill="#087f5b"/>
  <text x="220" y="385" font-size="13" fill="#f8f9fa" text-anchor="middle">Save uv.lock + pyproject.toml</text>

  <text x="220" y="420" font-size="11" fill="#868e96" text-anchor="middle">as model artifacts</text>

  <!-- ==================== RESTORE TIME (right) ==================== -->

  <!-- Box R1: prepare_env -->
  <rect x="660" y="80" width="200" height="40" rx="8" fill="#1971c2"/>
  <text x="760" y="105" font-size="14" fill="#f8f9fa" text-anchor="middle">prepare_env()</text>

  <line x1="760" y1="120" x2="760" y2="148" stroke="#495057" stroke-width="2" marker-end="url(#arrow)"/>

  <!-- Diamond: uv.lock artifact? -->
  <polygon points="760,148 848,188 760,228 672,188" fill="#fab005"/>
  <text x="760" y="184" font-size="12" fill="#212529" text-anchor="middle" font-weight="600">uv.lock</text>
  <text x="760" y="198" font-size="12" fill="#212529" text-anchor="middle" font-weight="600">artifact?</text>

  <!-- No branch (left) -> pip install -->
  <line x1="672" y1="188" x2="604" y2="188" stroke="#495057" stroke-width="2" marker-end="url(#arrow)"/>
  <text x="638" y="180" font-size="13" fill="#e8590c" font-weight="600">No</text>
  <rect x="520" y="168" width="80" height="40" rx="8" fill="#495057"/>
  <text x="560" y="193" font-size="13" fill="#f8f9fa" text-anchor="middle">pip install</text>

  <!-- Yes branch (down) -->
  <line x1="760" y1="228" x2="760" y2="268" stroke="#495057" stroke-width="2" marker-end="url(#arrow)"/>
  <text x="775" y="252" font-size="13" fill="#0ca678" font-weight="600">Yes</text>

  <!-- Box R2: run_uv_sync -->
  <rect x="660" y="268" width="200" height="48" rx="8" fill="#3b5bdb"/>
  <text x="760" y="289" font-size="13" fill="#f8f9fa" text-anchor="middle">run_uv_sync()</text>
  <text x="760" y="306" font-size="10" fill="#c3cfe2" text-anchor="middle">uv sync --frozen --no-dev</text>

  <line x1="760" y1="316" x2="760" y2="348" stroke="#495057" stroke-width="2" marker-end="url(#arrow)"/>

  <!-- Diamond: Sync OK? -->
  <polygon points="760,348 836,380 760,412 684,380" fill="#fab005"/>
  <text x="760" y="377" font-size="12" fill="#212529" text-anchor="middle" font-weight="600">Sync</text>
  <text x="760" y="391" font-size="12" fill="#212529" text-anchor="middle" font-weight="600">OK?</text>

  <!-- Fail branch (left) -> Error -->
  <line x1="684" y1="380" x2="604" y2="380" stroke="#495057" stroke-width="2" marker-end="url(#arrow)"/>
  <text x="644" y="372" font-size="13" fill="#e8590c" font-weight="600">Fail</text>
  <rect x="520" y="360" width="80" height="40" rx="8" fill="#c92a2a"/>
  <text x="560" y="385" font-size="13" fill="#f8f9fa" text-anchor="middle">Error</text>

  <!-- OK branch (down) -> Environment Ready -->
  <line x1="760" y1="412" x2="760" y2="440" stroke="#495057" stroke-width="2" marker-end="url(#arrow)"/>
  <text x="775" y="432" font-size="13" fill="#0ca678" font-weight="600">OK</text>

  <rect x="660" y="440" width="200" height="40" rx="8" fill="#087f5b"/>
  <text x="760" y="465" font-size="14" fill="#f8f9fa" text-anchor="middle">Environment Ready</text>

  <!-- Legend -->
  <circle cx="240" cy="470" r="6" fill="#1971c2"/>
  <text x="254" y="474" font-size="11" fill="#495057">Entry</text>
  <circle cx="320" cy="470" r="6" fill="#3b5bdb"/>
  <text x="334" y="474" font-size="11" fill="#495057">Internal</text>
  <circle cx="410" cy="470" r="6" fill="#087f5b"/>
  <text x="424" y="474" font-size="11" fill="#495057">Output</text>
  <polygon points="500,464 510,470 500,476 490,470" fill="#fab005"/>
  <text x="516" y="474" font-size="11" fill="#495057">Decision</text>
  <circle cx="590" cy="470" r="6" fill="#c92a2a"/>
  <text x="604" y="474" font-size="11" fill="#495057">Error</text>
</svg>
