<svg xmlns="http://www.w3.org/2000/svg" width="880" height="760" viewBox="60 -10 880 760">
<defs>
  <marker id="arrow-495057" markerWidth="10" markerHeight="7" refX="9" refY="3.5" orient="auto"><polygon points="0 0, 10 3.5, 0 7" fill="#495057" /></marker>
  <marker id="arrow-0ca678" markerWidth="10" markerHeight="7" refX="9" refY="3.5" orient="auto"><polygon points="0 0, 10 3.5, 0 7" fill="#0ca678" /></marker>
  <marker id="arrow-e8590c" markerWidth="10" markerHeight="7" refX="9" refY="3.5" orient="auto"><polygon points="0 0, 10 3.5, 0 7" fill="#e8590c" /></marker>
  <style>text { font-family: "Segoe UI", system-ui, -apple-system, sans-serif; }</style>
</defs>

<!-- Title -->
<text x="500" y="32" font-size="22" fill="#228be6" text-anchor="middle" font-weight="600">Guardrails AI Scorer Pipeline</text>

<!-- MLflow container (input): y=52, h=192, bottom=244 -->
<rect x="140" y="52" width="720" height="192" rx="8" stroke="#228be6" fill="none" stroke-width="1.5" stroke-dasharray="8,4" />
<text x="156" y="72" font-size="11" fill="#228be6" font-weight="600">MLflow</text>

<!-- Step 1: scorer call: y=84, bottom=132 -->
<rect x="260" y="84" width="480" height="48" rx="8" fill="#228be6" />
<text x="500" y="112" font-size="15" fill="#f8f9fa" text-anchor="middle">scorer(inputs, outputs, trace)</text>

<!-- Arrow 1 to 2: 132 to 164 -->
<path d="M 500 132 L 500 164" stroke="#495057" fill="none" stroke-width="2" marker-end="url(#arrow-495057)" />

<!-- Step 2: map_scorer_inputs_to_text: y=168, bottom=216 -->
<rect x="260" y="168" width="480" height="48" rx="8" fill="#5c7cfa" />
<text x="500" y="196" font-size="14" fill="#f8f9fa" text-anchor="middle">map_scorer_inputs_to_text()</text>

<!-- Arrow exits MLflow (bottom=244), gap, enters Guardrails (top=296) -->
<path d="M 500 216 L 500 312" stroke="#495057" fill="none" stroke-width="2" marker-end="url(#arrow-495057)" />

<!-- Guardrails AI container: y=296, h=88, bottom=384 -->
<rect x="200" y="296" width="600" height="88" rx="8" stroke="#39ffc0" fill="none" stroke-width="1.5" stroke-dasharray="8,4" />
<text x="216" y="314" font-size="11" fill="#2db89a" font-weight="600">Guardrails AI</text>

<!-- Step 3: Guard.validate: y=320, bottom=368 -->
<rect x="260" y="320" width="480" height="48" rx="8" fill="#2db89a" />
<text x="500" y="348" font-size="15" fill="#f8f9fa" text-anchor="middle">Guard().use(validator).validate(text)</text>

<!-- Arrow exits Guardrails (bottom=384), gap, enters MLflow output (top=440) -->
<path d="M 500 368 L 500 460" stroke="#495057" fill="none" stroke-width="2" marker-end="url(#arrow-495057)" />

<!-- MLflow container (output): y=440, h=232, bottom=672 -->
<rect x="100" y="440" width="800" height="232" rx="8" stroke="#228be6" fill="none" stroke-width="1.5" stroke-dasharray="8,4" />
<text x="116" y="458" font-size="11" fill="#228be6" font-weight="600">MLflow</text>

<!-- Decision diamond: top=464, center=500, bottom=536 -->
<polygon points="500,464 580,500 500,536 420,500" fill="#fab005" />
<text x="500" y="504" font-size="14" fill="#212529" text-anchor="middle" font-weight="600">passed?</text>

<!-- Arrow Yes (left) -->
<path d="M 420 500 L 268 500" stroke="#0ca678" fill="none" stroke-width="2" marker-end="url(#arrow-0ca678)" />
<text x="342" y="488" font-size="13" fill="#0ca678" text-anchor="middle" font-weight="600">Yes</text>

<!-- Arrow No (right) -->
<path d="M 580 500 L 732 500" stroke="#e8590c" fill="none" stroke-width="2" marker-end="url(#arrow-e8590c)" />
<text x="658" y="488" font-size="13" fill="#e8590c" text-anchor="middle" font-weight="600">No</text>

<!-- Feedback YES -->
<rect x="140" y="480" width="128" height="40" rx="8" fill="#087f5b" />
<text x="204" y="504" font-size="12" fill="#f8f9fa" text-anchor="middle">Feedback(YES)</text>

<!-- Feedback NO -->
<rect x="732" y="480" width="128" height="40" rx="8" fill="#e03131" />
<text x="796" y="504" font-size="12" fill="#f8f9fa" text-anchor="middle">Feedback(NO)</text>

<!-- Converge arrow: YES down and right -->
<path d="M 204 520 L 204 580 L 392 580" stroke="#495057" fill="none" stroke-width="2" marker-end="url(#arrow-495057)" />

<!-- Converge arrow: NO down and left -->
<path d="M 796 520 L 796 580 L 608 580" stroke="#495057" fill="none" stroke-width="2" marker-end="url(#arrow-495057)" />

<!-- Final output: MLflow Feedback -->
<rect x="396" y="556" width="208" height="52" rx="8" fill="#087f5b" />
<text x="500" y="578" font-size="14" fill="#f8f9fa" text-anchor="middle">MLflow Feedback</text>
<text x="500" y="596" font-size="11" fill="#c3fae8" text-anchor="middle">source_type = CODE</text>

<!-- Legend -->
<rect x="260" y="716" width="16" height="16" rx="3" stroke="#228be6" fill="none" stroke-width="1.5" stroke-dasharray="4,2" />
<text x="284" y="729" font-size="11" fill="#495057">MLflow</text>
<rect x="420" y="716" width="16" height="16" rx="3" stroke="#39ffc0" fill="none" stroke-width="1.5" stroke-dasharray="4,2" />
<text x="444" y="729" font-size="11" fill="#495057">Guardrails AI</text>
</svg>