<svg xmlns="http://www.w3.org/2000/svg" width="880" height="780" viewBox="60 -10 880 780">
<defs>
  <marker id="arrow-495057" markerWidth="10" markerHeight="7" refX="9" refY="3.5" orient="auto"><polygon points="0 0, 10 3.5, 0 7" fill="#495057" /></marker>
  <style>text { font-family: "Segoe UI", system-ui, -apple-system, sans-serif; }</style>
</defs>

<!-- Title -->
<text x="500" y="32" font-size="22" fill="#228be6" text-anchor="middle" font-weight="600">TruLens Agent Trace Evaluation Pipeline</text>

<!-- MLflow container (input) -->
<rect x="240" y="52" width="520" height="96" rx="8" stroke="#228be6" fill="none" stroke-width="1.5" stroke-dasharray="8,4" />
<text x="256" y="72" font-size="11" fill="#228be6" font-weight="600">MLflow</text>

<!-- Step 1: MLflow Agent Trace -->
<rect x="300" y="80" width="400" height="48" rx="8" fill="#228be6" />
<text x="500" y="108" font-size="15" fill="#f8f9fa" text-anchor="middle">MLflow Agent Trace</text>

<!-- Arrow 1 to TruLens container -->
<path d="M 500 128 L 500 180" stroke="#495057" fill="none" stroke-width="2" marker-end="url(#arrow-495057)" />

<!-- TruLens container -->
<rect x="120" y="184" width="760" height="400" rx="8" stroke="#305e7f" fill="none" stroke-width="1.5" stroke-dasharray="8,4" />
<text x="136" y="204" font-size="11" fill="#305e7f" font-weight="600">TruLens</text>

<!-- Step 2: Serialize -->
<rect x="300" y="216" width="400" height="48" rx="8" fill="#305e7f" />
<text x="500" y="244" font-size="14" fill="#f8f9fa" text-anchor="middle">Serialize trace to JSON</text>

<!-- Arrow 2 to 3 -->
<path d="M 500 264 L 500 300" stroke="#495057" fill="none" stroke-width="2" marker-end="url(#arrow-495057)" />

<!-- Step 3: GPA Provider -->
<rect x="280" y="304" width="440" height="48" rx="8" fill="#3d7ca8" />
<text x="500" y="332" font-size="15" fill="#f8f9fa" text-anchor="middle">GPA Provider + Model</text>

<!-- Arrow 3 to scorer grid -->
<path d="M 500 352 L 500 392" stroke="#495057" fill="none" stroke-width="2" marker-end="url(#arrow-495057)" />

<!-- GPA Scorer Dimensions sub-container -->
<rect x="148" y="396" width="704" height="172" rx="6" stroke="#adb5bd" fill="none" stroke-width="1" stroke-dasharray="6,3" />
<text x="164" y="416" font-size="11" fill="#868e96" font-weight="600">GPA (Goal-Plan-Action) Scorer Dimensions</text>

<!-- Row 1: Goal-Plan label -->
<text x="296" y="440" font-size="11" fill="#495057" text-anchor="middle" font-weight="600">Goal-Plan</text>
<!-- PlanQuality -->
<rect x="188" y="448" width="124" height="34" rx="6" fill="#305e7f" />
<text x="250" y="469" font-size="11" fill="#f8f9fa" text-anchor="middle">PlanQuality</text>
<!-- ToolSelection -->
<rect x="324" y="448" width="124" height="34" rx="6" fill="#305e7f" />
<text x="386" y="469" font-size="11" fill="#f8f9fa" text-anchor="middle">ToolSelection</text>

<!-- Plan-Action label -->
<text x="680" y="440" font-size="11" fill="#495057" text-anchor="middle" font-weight="600">Plan-Action</text>
<!-- PlanAdherence -->
<rect x="572" y="448" width="124" height="34" rx="6" fill="#305e7f" />
<text x="634" y="469" font-size="11" fill="#f8f9fa" text-anchor="middle">PlanAdherence</text>
<!-- ToolCalling -->
<rect x="708" y="448" width="112" height="34" rx="6" fill="#305e7f" />
<text x="764" y="469" font-size="11" fill="#f8f9fa" text-anchor="middle">ToolCalling</text>

<!-- Row 2: Holistic label -->
<text x="500" y="504" font-size="11" fill="#495057" text-anchor="middle" font-weight="600">Holistic</text>
<!-- LogicalConsistency -->
<rect x="344" y="512" width="144" height="34" rx="6" fill="#305e7f" />
<text x="416" y="533" font-size="11" fill="#f8f9fa" text-anchor="middle">LogicalConsistency</text>
<!-- ExecutionEfficiency -->
<rect x="504" y="512" width="156" height="34" rx="6" fill="#305e7f" />
<text x="582" y="533" font-size="11" fill="#f8f9fa" text-anchor="middle">ExecutionEfficiency</text>

<!-- Arrow scorer grid to MLflow output -->
<path d="M 500 568 L 500 616" stroke="#495057" fill="none" stroke-width="2" marker-end="url(#arrow-495057)" />

<!-- MLflow container (output) -->
<rect x="280" y="620" width="440" height="80" rx="8" stroke="#228be6" fill="none" stroke-width="1.5" stroke-dasharray="8,4" />
<text x="296" y="640" font-size="11" fill="#228be6" font-weight="600">MLflow</text>

<!-- Final output -->
<rect x="340" y="648" width="320" height="40" rx="8" fill="#087f5b" />
<text x="500" y="672" font-size="14" fill="#f8f9fa" text-anchor="middle">MLflow Feedback (score + rationale)</text>

<!-- Legend -->
<rect x="280" y="724" width="16" height="16" rx="3" stroke="#228be6" fill="none" stroke-width="1.5" stroke-dasharray="4,2" />
<text x="304" y="737" font-size="11" fill="#495057">MLflow</text>
<rect x="420" y="724" width="16" height="16" rx="3" stroke="#305e7f" fill="none" stroke-width="1.5" stroke-dasharray="4,2" />
<text x="444" y="737" font-size="11" fill="#495057">TruLens evaluation</text>
</svg>