<svg width="230" height="229" viewBox="0 0 230 229" fill="none" xmlns="http://www.w3.org/2000/svg">
<rect x="1.5" y="1" width="227" height="227" rx="113.5" stroke="#43C9ED" stroke-width="2"/>
<path d="M163.083 46.3914C142.958 31.8189 117.447 27.2019 93.778 33.8389C58.7712 43.9386 33.1186 77.1233 33.6855 115.935C33.9689 135.124 40.4884 152.582 51.118 166.578L76.2038 147.821C69.1174 139.02 64.8655 127.766 64.7238 115.502C64.4403 86.3573 87.2586 62.5509 115.888 62.118L115.321 82.0289L163.083 46.3914Z" fill="#43C9ED"/>
<path d="M181.513 65.0086C180.663 63.8544 179.812 62.7001 178.962 61.5459L154.868 79.5811C163.088 88.8151 168.191 100.935 168.332 114.353C168.616 143.498 145.797 167.304 117.168 167.737L117.735 147.826L69.4062 183.897C97.3266 203.086 135.31 203.519 164.08 182.021C200.504 154.607 208.441 102.233 181.513 65.0086Z" fill="#0194E2"/>
</svg>
