<svg xmlns="http://www.w3.org/2000/svg" width="48" height="48" viewBox="0 0 48 48" fill="none">
  <path d="M10.5056 26.8254H14.6656C14.8744 26.8254 15.0746 26.9083 15.2222 27.056C15.3699 27.2036 15.4528 27.4038 15.4528 27.6126V30.5694C13.9543 30.6858 12.5417 31.3147 11.4524 32.3503C10.3632 33.386 9.66383 34.7651 9.47201 36.2558C8.95856 36.1436 8.42722 36.1407 7.91257 36.2473C7.39793 36.354 6.9115 36.5678 6.48494 36.8748C6.05839 37.1819 5.70127 37.5753 5.43681 38.0295C5.17235 38.4838 5.00649 38.9885 4.95001 39.5111C4.89353 40.0336 4.9477 40.5622 5.109 41.0624C5.2703 41.5626 5.53511 42.0233 5.8862 42.4144C6.23729 42.8055 6.6668 43.1184 7.14677 43.3325C7.62675 43.5467 8.14643 43.6574 8.67202 43.6574H19.9104V42.6974H8.67202C8.26755 42.6979 7.86784 42.6103 7.50069 42.4406C7.13353 42.2709 6.80776 42.0233 6.54603 41.715C6.2843 41.4066 6.0929 41.0449 5.98516 40.6551C5.87741 40.2652 5.8559 39.8566 5.92213 39.4576C5.98835 39.0586 6.14072 38.6788 6.36863 38.3447C6.59654 38.0105 6.89452 37.7301 7.24184 37.5228C7.58915 37.3155 7.97745 37.1864 8.37973 37.1444C8.78201 37.1025 9.1886 37.1487 9.57121 37.2798L9.74401 37.3438L10.384 37.5678V36.851C10.4325 35.5815 10.9114 34.3662 11.7421 33.4049C12.5728 32.4437 13.7058 31.7937 14.9549 31.5617C16.204 31.3298 17.4949 31.5297 18.6153 32.1286C19.7357 32.7276 20.619 33.6899 21.12 34.8574L21.9968 34.4702C21.5138 33.368 20.7367 32.42 19.7506 31.7302C18.7645 31.0404 17.6074 30.6355 16.4064 30.5598V27.6126C16.4056 27.1495 16.2212 26.7056 15.8937 26.3781C15.5663 26.0506 15.1223 25.8663 14.6592 25.8654H10.4992C9.1159 25.8314 7.80068 25.258 6.83433 24.2676C5.86798 23.2773 5.32707 21.9483 5.32707 20.5646C5.32707 19.1809 5.86798 17.852 6.83433 16.8616C7.80068 15.8712 9.1159 15.2978 10.4992 15.2638C11.0896 15.2624 11.676 15.3608 12.2336 15.555C12.3264 15.587 12.416 15.619 12.5056 15.6574L13.1456 15.9134V15.2094C13.144 15.1817 13.144 15.1539 13.1456 15.1262C13.2519 12.7081 14.2078 10.4049 15.8452 8.62229C17.4826 6.83967 19.6964 5.69188 22.0969 5.38102C24.4973 5.07017 26.9305 5.61617 28.9679 6.9229C31.0054 8.22962 32.5165 10.2133 33.2352 12.5246C32.4025 12.9033 31.6457 13.4303 31.0016 14.0798L31.68 14.7518C32.2818 14.1422 32.9988 13.6585 33.7894 13.3289C34.58 12.9993 35.4283 12.8303 36.2848 12.8318C37.9865 12.8695 39.6058 13.572 40.7959 14.7889C41.986 16.0057 42.6525 17.6401 42.6525 19.3422C42.6525 21.0443 41.986 22.6787 40.7959 23.8956C39.6058 25.1124 37.9865 25.8149 36.2848 25.8526H33.3408C32.8777 25.8535 32.4338 26.0378 32.1063 26.3653C31.7788 26.6928 31.5945 27.1367 31.5936 27.5998V31.5038H32.0736C33.2359 31.5048 34.3691 31.8673 35.3163 32.541C36.2635 33.2146 36.9777 34.1662 37.36 35.2638C36.9305 35.4796 36.5374 35.7614 36.1952 36.099L36.8736 36.7806C37.1944 36.4562 37.5767 36.199 37.9982 36.0243C38.4197 35.8495 38.8718 35.7607 39.328 35.763C40.2293 35.7904 41.0846 36.1677 41.7124 36.8149C42.3403 37.4622 42.6915 38.3285 42.6915 39.2302C42.6915 40.132 42.3403 40.9983 41.7124 41.6455C41.0846 42.2927 40.2293 42.67 39.328 42.6974H24.7712C24.3668 42.6979 23.967 42.6103 23.5999 42.4406C23.2327 42.2709 22.907 42.0233 22.6452 41.715C22.3835 41.4066 22.1921 41.0449 22.0844 40.6551C21.9766 40.2652 21.9551 39.8566 22.0213 39.4576C22.0876 39.0586 22.2399 38.6788 22.4678 38.3447C22.6957 38.0105 22.9937 37.7301 23.341 37.5228C23.6883 37.3155 24.0767 37.1864 24.4789 37.1444C24.8812 37.1025 25.2878 37.1487 25.6704 37.2798L25.8432 37.3438L26.4832 37.5678V36.851C26.5249 35.8393 26.8411 34.858 27.3981 34.0124C27.9551 33.1668 28.7318 32.4888 29.6448 32.051L29.2288 31.1838C28.2448 31.6575 27.3948 32.3697 26.7561 33.2554C26.1173 34.1412 25.71 35.1726 25.5712 36.2558C25.0578 36.1436 24.5264 36.1407 24.0118 36.2473C23.4971 36.354 23.0107 36.5678 22.5841 36.8748C22.1576 37.1819 21.8005 37.5753 21.536 38.0295C21.2716 38.4838 21.1057 38.9885 21.0492 39.5111C20.9927 40.0336 21.0469 40.5622 21.2082 41.0624C21.3695 41.5626 21.6343 42.0233 21.9854 42.4144C22.3365 42.8055 22.766 43.1184 23.246 43.3325C23.7259 43.5467 24.2456 43.6574 24.7712 43.6574H39.328C39.9574 43.6616 40.5805 43.5316 41.1557 43.276C41.7309 43.0204 42.245 42.6452 42.6638 42.1753C43.0826 41.7054 43.3963 41.1516 43.5843 40.5509C43.7722 39.9501 43.8299 39.3163 43.7535 38.6915C43.6772 38.0667 43.4685 37.4654 43.1415 36.9276C42.8144 36.3898 42.3765 35.9279 41.8569 35.5727C41.3373 35.2174 40.748 34.977 40.1282 34.8675C39.5083 34.758 38.8723 34.7818 38.2624 34.9374C37.8406 33.7313 37.0755 32.6748 36.0613 31.8976C35.0471 31.1205 33.8279 30.6566 32.5536 30.563V27.6126C32.5536 27.4038 32.6366 27.2036 32.7842 27.056C32.9318 26.9083 33.132 26.8254 33.3408 26.8254H36.2848C37.3582 26.8279 38.4196 26.599 39.3967 26.1544C40.3737 25.7098 41.2435 25.0599 41.9468 24.249C42.6501 23.4381 43.1704 22.4851 43.4723 21.455C43.7742 20.4249 43.8506 19.3418 43.6964 18.2795C43.5421 17.2172 43.1607 16.2007 42.5783 15.299C41.9958 14.3973 41.2259 13.6317 40.321 13.0544C39.416 12.477 38.3973 12.1014 37.3342 11.9531C36.271 11.8048 35.1884 11.8873 34.16 12.195C33.378 9.71977 31.7635 7.59143 29.5906 6.17131C27.4177 4.7512 24.8203 4.12684 22.2393 4.40423C19.6584 4.68163 17.2529 5.84368 15.4314 7.6931C13.6099 9.54252 12.4845 11.9653 12.2464 14.5502C11.3847 14.2994 10.4791 14.2367 9.59104 14.3664C8.70297 14.4961 7.85315 14.8151 7.09916 15.302C6.34517 15.7888 5.70463 16.432 5.22094 17.188C4.73724 17.944 4.4217 18.7951 4.29568 19.6837C4.16966 20.5723 4.23612 21.4776 4.49055 22.3383C4.74497 23.199 5.18142 23.9949 5.77032 24.6722C6.35923 25.3495 7.08683 25.8922 7.90382 26.2637C8.72082 26.6352 9.60812 26.8268 10.5056 26.8254Z" fill="#43EDBC"/>
  <path d="M29.6513 25.8652H18.2913V26.8252H29.6513V25.8652Z" fill="#43EDBC"/>
</svg>