<svg xmlns="http://www.w3.org/2000/svg" width="34" height="33" viewBox="0 0 34 33" fill="none">
  <path fill-rule="evenodd" clip-rule="evenodd" d="M0.859863 2.84067C0.859863 1.67463 1.80696 0.727539 2.973 0.727539H31.5583C32.7244 0.727539 33.6715 1.67463 33.6715 2.84067V19.6221H1.81986V22.6778C1.81986 23.3137 2.33715 23.831 2.973 23.831H14.8768V24.791H2.973C1.80696 24.791 0.859863 23.8439 0.859863 22.6778V18.6621H32.7115V2.84067C32.7115 2.20482 32.1942 1.68754 31.5583 1.68754H2.973C2.33715 1.68754 1.81986 2.20482 1.81986 2.84067V17.1751H0.859863V2.84067Z" fill="#43EDBC"/>
  <path fill-rule="evenodd" clip-rule="evenodd" d="M33.6687 20.8887V22.6779C33.6687 23.8439 32.7216 24.791 31.5556 24.791H17.7429V29.0018H10.9046C9.81656 29.0018 8.93217 29.8842 8.93217 30.9742V31.8797H25.5964V30.9742C25.5964 29.8862 24.7141 29.0018 23.624 29.0018H19.2408V28.0418H23.624C25.2449 28.0418 26.5564 29.3567 26.5564 30.9742V32.8397H7.97217V30.9742C7.97217 29.3533 9.28706 28.0418 10.9046 28.0418H16.7829V23.831H31.5556C32.1914 23.831 32.7087 23.3138 32.7087 22.6779V20.8887H33.6687Z" fill="#43EDBC"/>
</svg>
