<svg xmlns="http://www.w3.org/2000/svg" width="32" height="30" viewBox="0 0 32 30" fill="none">
  <path fill-rule="evenodd" clip-rule="evenodd" d="M1.90566 3.12045C1.76298 3.25299 1.75993 3.32337 1.75993 3.33265C1.75993 3.34194 1.76298 3.41231 1.90566 3.54485C2.04786 3.67694 2.28446 3.82709 2.63346 3.98393C3.32832 4.29619 4.3639 4.58921 5.68097 4.83956C8.30721 5.33875 11.9558 5.65062 16 5.65062C20.0442 5.65062 23.6928 5.33875 26.319 4.83956C27.6361 4.58921 28.6717 4.29619 29.3665 3.98393C29.7155 3.82709 29.9521 3.67694 30.0943 3.54485C30.237 3.41231 30.2401 3.34194 30.2401 3.33265C30.2401 3.32337 30.237 3.25299 30.0943 3.12045C29.9521 2.98837 29.7155 2.83822 29.3665 2.68138C28.6717 2.36911 27.6361 2.0761 26.319 1.82575C23.6928 1.32656 20.0442 1.01469 16 1.01469C11.9558 1.01469 8.30721 1.32656 5.68097 1.82575C4.3639 2.0761 3.32832 2.36911 2.63346 2.68138C2.28446 2.83822 2.04786 2.98837 1.90566 3.12045ZM5.5017 0.882635C8.20308 0.369163 11.9145 0.0546875 16 0.0546875C20.0855 0.0546875 23.7969 0.369163 26.4983 0.882635C27.845 1.13862 28.9651 1.44852 29.76 1.80574C30.1559 1.98364 30.4977 2.18488 30.7477 2.41708C30.9972 2.64882 31.2001 2.95562 31.2001 3.33265C31.2001 3.70969 30.9972 4.01648 30.7477 4.24823C30.4977 4.48042 30.1559 4.68166 29.76 4.85957C28.9651 5.21679 27.845 5.52668 26.4983 5.78267C23.7969 6.29614 20.0855 6.61062 16 6.61062C11.9145 6.61062 8.20308 6.29614 5.5017 5.78267C4.15496 5.52668 3.03484 5.21679 2.23995 4.85957C1.84407 4.68166 1.50228 4.48042 1.25231 4.24823C1.00283 4.01648 0.799927 3.70969 0.799927 3.33265C0.799927 2.95562 1.00283 2.64882 1.25231 2.41708C1.50228 2.18488 1.84407 1.98364 2.23995 1.80574C3.03484 1.44852 4.15496 1.13862 5.5017 0.882635Z" fill="#43EDBC"/>
  <path fill-rule="evenodd" clip-rule="evenodd" d="M31.2001 3.18066V8.01135C31.2001 8.38837 30.9971 8.69514 30.7477 8.92686C30.4977 9.15903 30.1559 9.36026 29.7601 9.53816C28.9652 9.89537 27.8451 10.2053 26.4984 10.4613C23.7971 10.9748 20.0856 11.2893 16 11.2893C11.9144 11.2893 8.20291 10.9748 5.50158 10.4613C4.15486 10.2053 3.03476 9.89537 2.2399 9.53816C2.06879 9.46126 1.90778 9.38 1.75993 9.29377V12.69C1.75993 12.6992 1.76295 12.7696 1.90564 12.9021C2.04783 13.0342 2.28443 13.1843 2.63341 13.3412C3.32825 13.6534 4.3638 13.9464 5.68085 14.1968C8.30705 14.696 11.9556 15.008 16 15.008C20.0443 15.008 23.6929 14.696 26.3191 14.1968C27.6362 13.9464 28.6717 13.6534 29.3666 13.3412C29.7156 13.1843 29.9521 13.0342 30.0943 12.9021C30.237 12.7696 30.2401 12.6992 30.2401 12.69H31.2001V17.3686C31.2001 17.7457 30.9971 18.0524 30.7477 18.2842C30.4977 18.5163 30.1559 18.7176 29.7601 18.8955C28.9652 19.2527 27.8451 19.5626 26.4984 19.8186C23.7971 20.3321 20.0856 20.6466 16 20.6466C11.9144 20.6466 8.20291 20.3321 5.50158 19.8186C4.15486 19.5626 3.03476 19.2527 2.2399 18.8955C2.06879 18.8186 1.90778 18.7373 1.75993 18.6511V22.0473C1.75993 22.0565 1.76295 22.1269 1.90564 22.2594C2.04783 22.3915 2.28443 22.5416 2.63341 22.6985C3.32825 23.0107 4.3638 23.3037 5.68085 23.5541C8.30705 24.0533 11.9556 24.3653 16 24.3653C20.0443 24.3653 23.6929 24.0533 26.3191 23.5541C27.6362 23.3037 28.6717 23.0107 29.3666 22.6985C29.7156 22.5416 29.9521 22.3915 30.0943 22.2594C30.237 22.1269 30.2401 22.0565 30.2401 22.0473H31.2001V26.7259C31.2001 27.103 30.9971 27.4097 30.7477 27.6414C30.4977 27.8736 30.1559 28.0749 29.7601 28.2528C28.9652 28.61 27.8451 28.9199 26.4984 29.1759C23.7971 29.6894 20.0856 30.0039 16 30.0039C11.9144 30.0039 8.20291 29.6894 5.50157 29.1759C4.15486 28.9199 3.03476 28.61 2.2399 28.2528C1.84404 28.0749 1.50227 27.8736 1.25231 27.6414C1.00284 27.4097 0.799927 27.103 0.799927 26.7259V25.1467H1.75993V26.7259C1.75993 26.7352 1.76295 26.8055 1.90564 26.9381C2.04783 27.0701 2.28443 27.2203 2.63341 27.3771C3.32825 27.6894 4.3638 27.9824 5.68085 28.2328C8.30705 28.732 11.9556 29.0439 16 29.0439C20.0443 29.0439 23.6929 28.732 26.3191 28.2328C27.6362 27.9824 28.6717 27.6894 29.3666 27.3771C29.7156 27.2203 29.9521 27.0701 30.0943 26.9381C30.237 26.8055 30.2401 26.7352 30.2401 26.7259V23.3297C30.0922 23.416 29.9312 23.4972 29.7601 23.5741C28.9652 23.9313 27.8451 24.2412 26.4984 24.4972C23.7971 25.0107 20.0856 25.3253 16 25.3253C11.9144 25.3253 8.20291 25.0107 5.50158 24.4972C4.15486 24.2412 3.03476 23.9313 2.2399 23.5741C1.84404 23.3962 1.50227 23.195 1.25231 22.9628C1.00284 22.7311 0.799927 22.4243 0.799927 22.0473V17.3686H1.75993C1.75993 17.3779 1.76295 17.4482 1.90564 17.5808C2.04783 17.7128 2.28443 17.863 2.63341 18.0198C3.32825 18.3321 4.3638 18.6251 5.68085 18.8755C8.30705 19.3747 11.9556 19.6866 16 19.6866C20.0443 19.6866 23.6929 19.3747 26.3191 18.8755C27.6362 18.6251 28.6717 18.3321 29.3666 18.0198C29.7156 17.863 29.9521 17.7128 30.0943 17.5808C30.237 17.4482 30.2401 17.3779 30.2401 17.3686V13.9724C30.0922 14.0587 29.9312 14.1399 29.7601 14.2168C28.9652 14.574 27.8451 14.8839 26.4984 15.1399C23.7971 15.6534 20.0856 15.968 16 15.968C11.9144 15.968 8.20291 15.6534 5.50158 15.1399C4.15486 14.8839 3.03476 14.574 2.2399 14.2168C1.84404 14.0389 1.50227 13.8377 1.25231 13.6055C1.00284 13.3738 0.799927 13.067 0.799927 12.69V8.01135H1.75993C1.75993 8.02059 1.76295 8.09094 1.90564 8.22347C2.04783 8.35554 2.28443 8.50568 2.63341 8.66252C3.32825 8.97478 4.3638 9.2678 5.68085 9.51816C8.30705 10.0174 11.9556 10.3293 16 10.3293C20.0443 10.3293 23.6929 10.0174 26.3191 9.51816C27.6362 9.2678 28.6717 8.97478 29.3666 8.66252C29.7156 8.50568 29.9521 8.35554 30.0943 8.22347C30.237 8.09094 30.2401 8.02059 30.2401 8.01135V3.18066H31.2001Z" fill="#43EDBC"/>
</svg>