<svg xmlns="http://www.w3.org/2000/svg" width="44" height="48" viewBox="0 0 44 48" fill="none">
  <path d="M41.4138 19.7872L22.0208 30.9787L1.2544 19.0213L0.255615 19.5745V28.2553L22.0208 40.766L41.4138 29.617V34.2128L22.0208 45.4043L1.2544 33.4468L0.255615 34V35.4894L22.0208 48L43.7443 35.4894V26.8085L42.7456 26.2553L22.0208 38.1702L2.58611 27.0213V22.4255L22.0208 33.5745L43.7443 21.0638V12.5106L42.6623 11.8723L22.0208 23.7447L3.5849 13.1915L22.0208 2.59574L37.169 11.3191L38.5007 10.5532V9.48936L22.0208 0L0.255615 12.5106V13.8723L22.0208 26.383L41.4138 15.1915V19.7872Z" fill="#FF3621"/>
</svg>
