<svg xmlns="http://www.w3.org/2000/svg" width="32" height="32" viewBox="0 0 32 32" fill="none">
  <g clip-path="url(#clip0_716_197)">
    <path d="M30.9391 15.2162C31.2862 15.9897 31.5064 16.8166 31.5965 17.6601C31.6833 18.5036 31.6399 19.3571 31.4597 20.1873C31.2829 21.0174 30.9758 21.8143 30.5487 22.5478C30.2684 23.0379 29.9381 23.498 29.5576 23.9214C29.1806 24.3415 28.7601 24.7216 28.3029 25.055C27.8424 25.3884 27.3519 25.6684 26.8313 25.8985C26.3141 26.1252 25.7735 26.2985 25.2196 26.4119C24.9593 27.2187 24.5722 27.9822 24.0716 28.669C23.5744 29.3559 22.9704 29.9593 22.283 30.4561C21.5956 30.9562 20.8348 31.3429 20.0272 31.603C19.2197 31.8664 18.3754 31.9964 17.5245 31.9964C16.9605 31.9997 16.3932 31.9397 15.8393 31.8264C15.2887 31.7097 14.7481 31.533 14.2309 31.3029C13.7137 31.0729 13.2231 30.7861 12.766 30.4527C12.3121 30.1193 11.8917 29.7359 11.5179 29.3125C10.6837 29.4925 9.82941 29.5359 8.98515 29.4492C8.1409 29.3592 7.31333 29.1391 6.53581 28.7924C5.76163 28.449 5.04418 27.9822 4.41349 27.4121C3.7828 26.842 3.24555 26.1752 2.82175 25.4417C2.53811 24.9516 2.30452 24.4348 2.12766 23.898C1.9508 23.3613 1.83401 22.8078 1.77394 22.2444C1.71388 21.6843 1.71721 21.1175 1.77728 20.554C1.83734 19.9939 1.96081 19.4405 2.13767 18.9037C1.57039 18.2735 1.10321 17.5567 0.756162 16.7832C0.412453 16.0064 0.188876 15.1829 0.102114 14.3394C0.0120156 13.4959 0.0587333 12.6424 0.235593 11.8122C0.412453 10.982 0.719455 10.1852 1.14659 9.4517C1.4269 8.9616 1.75726 8.49817 2.13433 8.07808C2.51141 7.658 2.93521 7.27792 3.39238 6.94452C3.84954 6.61111 4.34342 6.32772 4.86065 6.10101C5.38122 5.87096 5.92181 5.70092 6.47575 5.58757C6.73603 4.7774 7.12312 4.01724 7.62033 3.33043C8.12088 2.64362 8.72487 2.04016 9.41229 1.54006C10.0997 1.04329 10.8605 0.656538 11.6681 0.39315C12.4756 0.133096 13.3199 -0.000265423 14.1708 0.00306861C14.7348 -0.000265423 15.3021 0.0564131 15.856 0.173104C16.4099 0.289795 16.9505 0.463165 17.4678 0.693213C17.985 0.926594 18.4755 1.20999 18.9327 1.54339C19.3899 1.88013 19.8103 2.26021 20.1841 2.68363C21.015 2.50692 21.8692 2.46358 22.7135 2.55027C23.5577 2.63695 24.382 2.86033 25.1595 3.20374C25.9337 3.55047 26.6511 4.0139 27.2818 4.58402C27.9125 5.15081 28.4498 5.81428 28.8736 6.5511C29.1572 7.03787 29.3908 7.55464 29.5676 8.09476C29.7445 8.63153 29.8646 9.18498 29.9214 9.74843C29.9814 10.3119 29.9814 10.8787 29.918 11.4421C29.858 12.0056 29.7345 12.559 29.5576 13.0958C30.1283 13.7259 30.5921 14.4394 30.9391 15.2162ZM19.8203 29.4492C20.5478 29.1491 21.2085 28.7057 21.7658 28.1489C22.3231 27.5922 22.7669 26.932 23.0672 26.2019C23.3675 25.475 23.5244 24.6949 23.5244 23.9081V16.4732C23.5222 16.4665 23.5199 16.4587 23.5177 16.4498C23.5155 16.4432 23.5121 16.4365 23.5077 16.4298C23.5032 16.4232 23.4977 16.4176 23.491 16.4132C23.4843 16.4065 23.4777 16.402 23.471 16.3998L20.778 14.8462V23.828C20.778 23.9181 20.7647 24.0114 20.7413 24.0981C20.718 24.1881 20.6846 24.2715 20.6379 24.3515C20.5912 24.4315 20.5378 24.5048 20.471 24.5682C20.4062 24.6328 20.3333 24.6888 20.2541 24.7349L13.8772 28.4123C13.8238 28.4457 13.7337 28.4923 13.687 28.519C13.9506 28.7424 14.2376 28.9391 14.5379 29.1125C14.8416 29.2858 15.1552 29.4325 15.4823 29.5526C15.8093 29.6693 16.1463 29.7593 16.4867 29.8193C16.8304 29.8793 17.1774 29.9093 17.5245 29.9093C18.312 29.9093 19.0929 29.7526 19.8203 29.4492ZM4.63373 24.4015C5.03083 25.085 5.55474 25.6784 6.17875 26.1585C6.80611 26.6386 7.51688 26.9887 8.27771 27.1921C9.03855 27.3954 9.83275 27.4488 10.6136 27.3454C11.3945 27.2421 12.1453 26.9887 12.8294 26.5953L19.2764 22.8778L19.2931 22.8612C19.2975 22.8567 19.3009 22.8501 19.3031 22.8412C19.3075 22.8345 19.3109 22.8278 19.3131 22.8212V19.6872L11.5313 24.1848C11.4512 24.2315 11.3678 24.2648 11.281 24.2915C11.1909 24.3148 11.1008 24.3248 11.0074 24.3248C10.9173 24.3248 10.8272 24.3148 10.7371 24.2915C10.6503 24.2648 10.5635 24.2315 10.4835 24.1848L4.10649 20.504C4.04976 20.4707 3.96634 20.4207 3.91962 20.3907C3.85955 20.7341 3.82952 21.0808 3.82952 21.4275C3.82952 21.7743 3.86289 22.121 3.92296 22.4644C3.98302 22.8045 4.07646 23.1412 4.19325 23.468C4.31338 23.7947 4.46021 24.1081 4.63373 24.4082V24.4015ZM2.95857 10.4986C2.56481 11.1821 2.31119 11.9356 2.20775 12.7157C2.1043 13.4959 2.15769 14.286 2.36125 15.0495C2.56481 15.8097 2.91519 16.5198 3.39571 17.1466C3.87624 17.7701 4.47356 18.2935 5.1543 18.687L11.598 22.4077C11.6047 22.41 11.6125 22.4122 11.6214 22.4144H11.6447C11.6536 22.4144 11.6614 22.4122 11.6681 22.4077C11.6748 22.4055 11.6814 22.4022 11.6881 22.3977L14.3911 20.8374L6.60922 16.3498C6.53247 16.3031 6.45906 16.2465 6.39232 16.1831C6.32766 16.1183 6.27159 16.0455 6.22547 15.9664C6.18209 15.8864 6.14538 15.803 6.12203 15.713C6.09867 15.6263 6.08532 15.5363 6.08866 15.443V7.87138C5.76163 7.9914 5.44462 8.1381 5.14429 8.31147C4.84396 8.48817 4.56032 8.68821 4.29336 8.91159C4.02974 9.13497 3.7828 9.38169 3.55923 9.64841C3.33565 9.9118 3.13877 10.1985 2.96524 10.4986H2.95857ZM25.0928 15.6463C25.1728 15.693 25.2463 15.7464 25.313 15.813C25.3764 15.8764 25.4331 15.9497 25.4798 16.0297C25.5232 16.1098 25.5599 16.1964 25.5833 16.2831C25.6033 16.3731 25.6167 16.4632 25.6133 16.5565V24.1281C26.6845 23.7347 27.6188 23.0445 28.3096 22.1377C29.0037 21.2308 29.4208 20.1473 29.5176 19.0137C29.6144 17.8801 29.3874 16.7399 28.8602 15.7297C28.333 14.7195 27.5288 13.8793 26.541 13.3125L20.0973 9.59173C20.0906 9.58951 20.0828 9.58729 20.0739 9.58507H20.0506C20.0439 9.58729 20.0361 9.58951 20.0272 9.59173C20.0205 9.59396 20.0139 9.59729 20.0072 9.60174L17.3176 11.1554L25.0994 15.6463H25.0928ZM27.779 11.6122H27.7757V11.6155L27.779 11.6122ZM27.7757 11.6088C27.9692 10.4886 27.8391 9.33501 27.3986 8.28479C26.9615 7.23458 26.2307 6.33105 25.2963 5.67758C24.362 5.02745 23.2608 4.65404 22.1228 4.60403C20.9816 4.55735 19.8537 4.83408 18.866 5.40086L12.4222 9.1183C12.4156 9.12275 12.41 9.1283 12.4056 9.13497L12.3922 9.15498C12.39 9.16164 12.3878 9.16943 12.3855 9.17832C12.3833 9.18498 12.3822 9.19276 12.3822 9.20165V12.309L20.164 7.81803C20.2441 7.77135 20.3309 7.73801 20.4176 7.71134C20.5077 7.688 20.5978 7.678 20.6879 7.678C20.7814 7.678 20.8715 7.688 20.9616 7.71134C21.0483 7.73801 21.1318 7.77135 21.2118 7.81803L27.5888 11.4988C27.6455 11.5321 27.729 11.5788 27.7757 11.6088ZM10.9139 8.1681C10.9139 8.07808 10.9273 7.98807 10.9506 7.89805C10.974 7.81136 11.0074 7.72468 11.0541 7.64466C11.1008 7.56798 11.1542 7.49463 11.2209 7.42795C11.2843 7.3646 11.3577 7.30792 11.4378 7.26458L17.8148 3.58715C17.8749 3.55047 17.9583 3.5038 18.005 3.48046C17.1307 2.75031 16.0629 2.28354 14.9317 2.14018C13.8004 1.99348 12.6525 2.17352 11.6214 2.65696C10.5869 3.14039 9.71262 3.91055 9.10195 4.87075C8.49128 5.83428 8.16759 6.94785 8.16759 8.08809V15.523C8.16982 15.5319 8.17204 15.5396 8.17427 15.5463C8.17649 15.553 8.17983 15.5596 8.18428 15.5663C8.18873 15.573 8.19429 15.5796 8.20096 15.5863C8.20541 15.5908 8.21209 15.5952 8.22099 15.5997L10.9139 17.1533V8.1681ZM12.3755 17.9935L15.8426 19.9939L19.3098 17.9935V13.996L15.846 11.9956L12.3789 13.996L12.3755 17.9935Z" fill="white"/>
  </g>
  <defs>
    <clipPath id="clip0_716_197">
      <rect width="31.6952" height="32" fill="white"/>
    </clipPath>
  </defs>
</svg>