<svg width="48" height="48" viewBox="0 0 48 48" fill="none" xmlns="http://www.w3.org/2000/svg">
<path d="M37.0613 24V32.8448H14.7165C13.628 32.8448 12.5841 33.2863 11.8144 34.072C11.0447 34.8577 10.6123 35.9233 10.6123 37.0345C10.6123 38.1457 11.0447 39.2113 11.8144 39.997C12.5841 40.7827 13.628 41.2242 14.7165 41.2242H20.1887M17.9086 14.6897H29.765M17.9086 22.1379H24.2928M14.2604 6.77588H37.0613V41.2242H14.2604C13.2929 41.2242 12.365 40.8318 11.6808 40.1334C10.9967 39.435 10.6123 38.4877 10.6123 37.5V10.5C10.6123 9.51231 10.9967 8.56506 11.6808 7.86665C12.365 7.16824 13.2929 6.77588 14.2604 6.77588Z" stroke="white" stroke-width="2" stroke-linecap="round" stroke-linejoin="round"/>
</svg>
