<svg width="48" height="48" viewBox="0 0 48 48" fill="none" xmlns="http://www.w3.org/2000/svg">
<path d="M24 3.90137C35.05 3.90137 44 12.8514 44 23.9014C43.999 28.0918 42.6838 32.1766 40.2396 35.5804C37.7954 38.9844 34.3454 41.536 30.375 42.8764C29.375 43.0764 29 42.4514 29 41.9264C29 41.2514 29.025 39.1014 29.025 36.4264C29.025 34.5514 28.4 33.3514 27.675 32.7264C32.125 32.2264 36.8 30.5264 36.8 22.8514C36.8 20.6514 36.025 18.8764 34.75 17.4764C34.95 16.9764 35.65 14.9264 34.55 12.1764C34.55 12.1764 32.875 11.6264 29.05 14.2264C27.45 13.7764 25.75 13.5514 24.05 13.5514C22.35 13.5514 20.65 13.7764 19.05 14.2264C15.225 11.6514 13.55 12.1764 13.55 12.1764C12.45 14.9264 13.15 16.9764 13.35 17.4764C12.075 18.8764 11.3 20.6764 11.3 22.8514C11.3 30.5014 15.95 32.2264 20.4 32.7264C19.825 33.2264 19.3 34.1014 19.125 35.4014C17.975 35.9264 15.1 36.7764 13.3 33.7514C12.925 33.1514 11.8 31.6764 10.225 31.7014C8.55 31.7264 9.55 32.6514 10.25 33.0264C11.1 33.5014 12.075 35.2764 12.3 35.8514C12.7 36.9764 14 39.1264 19.025 38.2014C19.025 39.8764 19.05 41.4514 19.05 41.9264C19.05 42.4514 18.675 43.0514 17.675 42.8764C13.6916 41.5504 10.2268 39.004 7.77222 35.598C5.31762 32.192 3.9978 28.0996 4 23.9014C4 12.8514 12.95 3.90137 24 3.90137Z" fill="white"/>
</svg>
