<svg width="48" height="48" viewBox="0 0 48 48" fill="none" xmlns="http://www.w3.org/2000/svg">
<path d="M39.3 6H8.7C7.98392 6 7.29716 6.28446 6.79082 6.79082C6.28446 7.29716 6 7.98392 6 8.7V39.3C6 40.016 6.28446 40.7028 6.79082 41.2092C7.29716 41.7156 7.98392 42 8.7 42H39.3C40.016 42 40.7028 41.7156 41.2092 41.2092C41.7156 40.7028 42 40.016 42 39.3V8.7C42 7.98392 41.7156 7.29716 41.2092 6.79082C40.7028 6.28446 40.016 6 39.3 6ZM16.8 36.6H11.4V20.4H16.8V36.6ZM14.1 17.25C13.4811 17.2323 12.8812 17.0326 12.3752 16.6759C11.8691 16.3192 11.4794 15.8213 11.2547 15.2444C11.0301 14.6675 10.9804 14.0371 11.1119 13.4321C11.2434 12.8272 11.5503 12.2743 11.9942 11.8428C12.4381 11.4112 12.9994 11.12 13.6078 11.0056C14.2163 10.8911 14.845 10.9585 15.4153 11.1994C15.9857 11.4402 16.4724 11.8438 16.8147 12.3597C17.1571 12.8756 17.3397 13.4809 17.34 14.1C17.3258 14.9466 16.977 15.7532 16.3699 16.3435C15.7628 16.9337 14.9467 17.2596 14.1 17.25ZM36.6 36.6H31.2V28.068C31.2 25.512 30.12 24.594 28.716 24.594C28.3044 24.6214 27.9022 24.7298 27.5326 24.9132C27.163 25.0964 26.8332 25.351 26.5622 25.662C26.2914 25.9732 26.0844 26.3348 25.9536 26.726C25.8228 27.1172 25.7706 27.5304 25.8 27.942C25.791 28.0258 25.791 28.1102 25.8 28.194V36.6H20.4V20.4H25.62V22.74C26.1466 21.939 26.87 21.2866 27.721 20.8454C28.572 20.4042 29.522 20.1888 30.48 20.22C33.27 20.22 36.528 21.768 36.528 26.808L36.6 36.6Z" fill="white"/>
</svg>
