<svg width="48" height="48" viewBox="0 0 48 48" fill="none" xmlns="http://www.w3.org/2000/svg">
<path d="M12.7369 29.1205C12.7369 31.3854 10.9063 33.2159 8.64139 33.2159C6.37646 33.2159 4.5459 31.3854 4.5459 29.1205C4.5459 26.8555 6.37646 25.025 8.64139 25.025H12.7369V29.1205ZM14.7846 29.1205C14.7846 26.8555 16.6152 25.025 18.8801 25.025C21.1451 25.025 22.9756 26.8555 22.9756 29.1205V39.3592C22.9756 41.6241 21.1451 43.4547 18.8801 43.4547C16.6152 43.4547 14.7846 41.6241 14.7846 39.3592V29.1205Z" fill="white"/>
<path d="M18.8809 12.6764C16.6159 12.6764 14.7854 10.8458 14.7854 8.58091C14.7854 6.31597 16.6159 4.48541 18.8809 4.48541C21.1458 4.48541 22.9764 6.31597 22.9764 8.58091V12.6764H18.8809ZM18.8809 14.7552C21.1458 14.7552 22.9764 16.5857 22.9764 18.8507C22.9764 21.1156 21.1458 22.9462 18.8809 22.9462H8.61112C6.34619 22.9462 4.51562 21.1156 4.51562 18.8507C4.51562 16.5857 6.34619 14.7552 8.61112 14.7552H18.8809Z" fill="white"/>
<path d="M35.2934 18.8507C35.2934 16.5857 37.124 14.7552 39.3889 14.7552C41.6538 14.7552 43.4844 16.5857 43.4844 18.8507C43.4844 21.1156 41.6538 22.9462 39.3889 22.9462H35.2934V18.8507ZM33.2457 18.8507C33.2457 21.1156 31.4151 22.9462 29.1502 22.9462C26.8852 22.9462 25.0547 21.1156 25.0547 18.8507V8.58091C25.0547 6.31597 26.8852 4.48541 29.1502 4.48541C31.4151 4.48541 33.2457 6.31597 33.2457 8.58091V18.8507Z" fill="white"/>
<path d="M29.1502 35.2637C31.4151 35.2637 33.2457 37.0943 33.2457 39.3592C33.2457 41.6241 31.4151 43.4547 29.1502 43.4547C26.8852 43.4547 25.0547 41.6241 25.0547 39.3592V35.2637H29.1502ZM29.1502 33.2159C26.8852 33.2159 25.0547 31.3854 25.0547 29.1205C25.0547 26.8555 26.8852 25.025 29.1502 25.025H39.4199C41.6849 25.025 43.5154 26.8555 43.5154 29.1205C43.5154 31.3854 41.6849 33.2159 39.4199 33.2159H29.1502Z" fill="white"/>
</svg>
