<svg xmlns="http://www.w3.org/2000/svg" id="Layer_1" viewBox="0 0 375.28 163.07"><defs><style>.cls-1{stroke:#fff;}.cls-1,.cls-2,.cls-3{fill:none;stroke-linejoin:round;}.cls-4{fill:#fff;}.cls-2{stroke-width:6px;}.cls-2,.cls-3{stroke:#9acb48;}.cls-3{stroke-width:3px;}</style></defs><path class="cls-2" d="M236.48,84.37c-7.76-28.95,14.48-60.07,49.68-69.5,35.2-9.43,70.02,6.4,77.77,35.35,7.76,28.95-14.48,60.07-49.68,69.5-35.19,9.43-70.01-6.39-77.77-35.35Z"></path><path class="cls-3" d="M244.31,82.65c-6.82-25.46,12.74-52.81,43.68-61.11,30.94-8.29,61.56,5.62,68.38,31.08,6.82,25.46-12.73,52.81-43.68,61.11-30.94,8.29-61.56-5.62-68.38-31.08Z"></path><path class="cls-4" d="M47.57,65.09h3.74l33.18,84.61h-6.62l-11.69-29.85H31.96l-11.75,29.85h-6.51L47.57,65.09Zm217.28,6.84h2.94v15.1h18.38v4.96h-18.38v39.77c0,4.82,.85,8.38,2.54,10.69,1.69,2.31,4.34,3.47,7.95,3.47s6.76-.31,9.45-.92v4.53c-2.77,.9-5.95,1.35-9.57,1.35-5.53,0-9.61-1.48-12.24-4.44-2.63-2.96-3.95-7.61-3.95-13.96v-40.48h-9.28v-3.34l9.28-2.59,2.88-14.12Zm-215.55,2.43c-1.04,3.69-2.17,7.03-3.4,10.03l-11.81,30.25h30.13l-11.46-30.37c-.96-2.38-2.11-5.69-3.46-9.91Zm71.56,11.49c5.41,0,10.6,.94,15.55,2.83l-1.56,5.07c-5.41-1.8-10.12-2.71-14.11-2.71-7.68,0-13.5,2.37-17.45,7.12-3.96,4.74-5.93,11.57-5.93,20.49,0,8.45,1.98,15.07,5.93,19.85,3.96,4.78,9.49,7.18,16.59,7.18,5.68,0,10.96-1.02,15.84-3.05v5.3c-3.99,1.96-9.24,2.94-15.73,2.94-8.95,0-15.96-2.82-21.03-8.47-5.07-5.65-7.6-13.53-7.6-23.63s2.63-18.45,7.89-24.24c5.26-5.78,12.46-8.67,21.6-8.67Zm53.83,0c7.38,0,13.2,2.56,17.46,7.69,4.27,5.12,6.4,12.09,6.4,20.88v4.59h-45.13c.08,8.66,2.08,15.27,6.02,19.83,3.94,4.56,9.58,6.84,16.92,6.84,3.57,0,6.72-.25,9.42-.75,2.71-.5,6.14-1.58,10.29-3.23v5.19c-3.54,1.54-6.8,2.59-9.8,3.14-3,.56-6.3,.84-9.91,.84-9.11,0-16.21-2.8-21.3-8.42-5.09-5.61-7.64-13.47-7.64-23.57s2.46-17.99,7.38-24.01c4.92-6.01,11.55-9.02,19.88-9.02Zm65.77,0c2.65,0,5.49,.27,8.52,.81l-1.09,5.48c-2.61-.65-5.32-.98-8.12-.98-5.34,0-9.71,2.27-13.13,6.8-3.42,4.53-5.12,10.25-5.12,17.17v34.56h-5.7v-62.66h4.84l.58,11.32h.4c2.57-4.61,5.32-7.85,8.23-9.71,2.92-1.86,6.45-2.79,10.6-2.79Zm82.54,.12c6.88,0,12.02,1.79,15.42,5.36,3.4,3.57,5.1,9.14,5.1,16.71v41.65h-4.21l-1.44-9.91h-.46c-3.15,4.04-6.39,6.9-9.71,8.58-3.32,1.67-7.25,2.51-11.79,2.51-6.15,0-10.93-1.58-14.35-4.73-3.42-3.15-5.13-7.51-5.13-13.09,0-6.11,2.55-10.86,7.64-14.24,5.09-3.38,12.46-5.17,22.11-5.36l11.93-.35v-4.15c0-5.95-1.21-10.45-3.63-13.48-2.42-3.04-6.32-4.55-11.7-4.55-5.8,0-11.82,1.61-18.04,4.84l-2.13-4.96c6.88-3.23,13.68-4.84,20.41-4.84Zm-148.31,4.84c-6.03,0-10.88,2-14.53,5.99-3.65,3.99-5.78,9.74-6.4,17.26h38.73c0-7.29-1.58-12.98-4.73-17.09-3.15-4.11-7.51-6.16-13.08-6.16Zm163.18,27.02l-10.95,.46c-8.8,.42-15.08,1.8-18.82,4.12-3.75,2.33-5.62,5.95-5.62,10.87,0,3.92,1.2,6.97,3.6,9.14,2.4,2.17,5.79,3.26,10.17,3.26,6.69,0,11.96-1.91,15.82-5.74,3.86-3.83,5.79-9.14,5.79-15.94v-6.17Z"></path><path class="cls-1" d="M47.57,65.09h3.74l33.18,84.61h-6.62l-11.69-29.85H31.96l-11.75,29.85h-6.51L47.57,65.09Zm217.28,6.84h2.94v15.1h18.38v4.96h-18.38v39.77c0,4.82,.85,8.38,2.54,10.69,1.69,2.31,4.34,3.47,7.95,3.47s6.76-.31,9.45-.92v4.53c-2.77,.9-5.95,1.35-9.57,1.35-5.53,0-9.61-1.48-12.24-4.44-2.63-2.96-3.95-7.61-3.95-13.96v-40.48h-9.28v-3.34l9.28-2.59,2.88-14.12Zm-215.55,2.43c-1.04,3.69-2.17,7.03-3.4,10.03l-11.81,30.25h30.13l-11.46-30.37c-.96-2.38-2.11-5.69-3.46-9.91Zm71.56,11.49c5.41,0,10.6,.94,15.55,2.83l-1.56,5.07c-5.41-1.8-10.12-2.71-14.11-2.71-7.68,0-13.5,2.37-17.45,7.12-3.96,4.74-5.93,11.57-5.93,20.49,0,8.45,1.98,15.07,5.93,19.85,3.96,4.78,9.49,7.18,16.59,7.18,5.68,0,10.96-1.02,15.84-3.05v5.3c-3.99,1.96-9.24,2.94-15.73,2.94-8.95,0-15.96-2.82-21.03-8.47-5.07-5.65-7.6-13.53-7.6-23.63s2.63-18.46,7.89-24.24c5.26-5.78,12.46-8.67,21.6-8.67Zm53.83,0c7.38,0,13.2,2.56,17.46,7.69,4.27,5.12,6.4,12.09,6.4,20.88v4.59h-45.13c.08,8.66,2.09,15.27,6.02,19.83,3.94,4.56,9.58,6.84,16.92,6.84,3.57,0,6.72-.25,9.42-.75,2.71-.5,6.14-1.58,10.29-3.23v5.19c-3.54,1.54-6.8,2.59-9.8,3.14-3,.56-6.3,.84-9.91,.84-9.11,0-16.21-2.8-21.3-8.42-5.09-5.61-7.64-13.47-7.64-23.57s2.46-17.99,7.38-24.01c4.92-6.01,11.55-9.02,19.88-9.02Zm65.77,0c2.65,0,5.49,.27,8.52,.81l-1.09,5.48c-2.61-.65-5.32-.98-8.12-.98-5.34,0-9.71,2.27-13.13,6.8-3.42,4.53-5.12,10.25-5.12,17.17v34.56h-5.7v-62.66h4.84l.58,11.32h.4c2.57-4.61,5.32-7.85,8.23-9.71,2.92-1.86,6.45-2.79,10.6-2.79Zm82.54,.12c6.88,0,12.02,1.79,15.42,5.36,3.4,3.57,5.1,9.14,5.1,16.71v41.65h-4.21l-1.44-9.91h-.46c-3.15,4.04-6.39,6.9-9.71,8.58-3.32,1.67-7.25,2.51-11.79,2.51-6.15,0-10.93-1.58-14.35-4.73-3.42-3.15-5.13-7.51-5.13-13.09,0-6.11,2.55-10.86,7.64-14.24,5.09-3.38,12.46-5.17,22.11-5.36l11.93-.35v-4.15c0-5.95-1.21-10.45-3.63-13.48-2.42-3.04-6.32-4.55-11.7-4.55-5.8,0-11.82,1.61-18.04,4.84l-2.13-4.96c6.88-3.23,13.68-4.84,20.41-4.84Zm-148.31,4.84c-6.03,0-10.88,2-14.53,5.99-3.65,3.99-5.78,9.74-6.4,17.26h38.73c0-7.29-1.58-12.98-4.73-17.09-3.15-4.11-7.51-6.16-13.08-6.16Zm163.18,27.02l-10.95,.46c-8.8,.42-15.07,1.8-18.82,4.12-3.75,2.33-5.62,5.95-5.62,10.87,0,3.92,1.2,6.97,3.6,9.14,2.4,2.17,5.79,3.26,10.18,3.26,6.69,0,11.96-1.91,15.82-5.74,3.86-3.83,5.79-9.14,5.79-15.94v-6.17Z"></path></svg>