<svg width="68" height="40" viewBox="0 0 68 40" fill="none" xmlns="http://www.w3.org/2000/svg">
<g clip-path="url(#clip0_598_4998)">
<path d="M40.1843 0.0151396C37.7524 0.198188 35.8659 2.24908 35.8659 4.71462C35.8659 5.9997 36.3441 7.14655 37.263 8.05806C37.8421 8.62961 38.4734 9.00692 39.2205 9.23106C39.7585 9.39169 40.1544 9.43652 40.797 9.41037C41.5292 9.38049 42.0111 9.26094 42.6387 8.95088C44.0134 8.27472 44.9623 7.00459 45.2275 5.49912C45.3171 4.97612 45.2835 4.08329 45.1528 3.57524C44.7643 2.05482 43.6921 0.848196 42.2352 0.295315C41.6114 0.0599677 40.8941 -0.0408956 40.1843 0.0151396Z" fill="white"/>
<path d="M56.8604 4.75578C56.3113 4.81929 55.6388 5.06211 55.1793 5.35723C54.3426 5.90264 53.7747 6.70581 53.4908 7.73312C53.4236 7.9722 53.4124 8.12537 53.4086 8.65583C53.4086 9.22739 53.4198 9.32825 53.5095 9.66073C53.8793 11.0392 54.944 12.1001 56.3337 12.4774C56.6512 12.5634 56.7633 12.5746 57.3087 12.5746C57.8616 12.5746 57.9662 12.5634 58.2986 12.4737C59.0047 12.2832 59.636 11.9133 60.1216 11.4053C60.5961 10.9084 60.9024 10.378 61.1041 9.70182C61.1975 9.39176 61.2087 9.31331 61.2087 8.69319C61.2125 8.09922 61.2013 7.98341 61.1265 7.70323C60.9958 7.23254 60.8352 6.87018 60.5811 6.49287C59.9237 5.50292 58.9038 4.89027 57.7009 4.75205C57.3236 4.71095 57.2564 4.71095 56.8604 4.75578Z" fill="white"/>
<path d="M63.7602 17.9797C62.6096 18.1329 61.6309 18.9809 61.2834 20.124C61.1938 20.4191 61.1826 20.52 61.1826 20.9645C61.1826 21.7004 61.3283 22.1637 61.7355 22.7389C62.4826 23.7924 63.8909 24.2519 65.1162 23.8447C66.151 23.4973 66.9168 22.6456 67.1335 21.5958C67.2568 21.0056 67.2157 20.4751 67.0065 19.8961C66.689 19.0219 65.8858 18.301 64.9519 18.0507C64.6269 17.9647 64.1001 17.9349 63.7602 17.9797Z" fill="white"/>
<path d="M5.19596 18.2151C5.19596 18.2226 4.94941 18.9324 4.65055 19.7916C4.3517 20.6545 3.83244 22.1451 3.49623 23.1126C3.16001 24.0764 2.53989 25.8695 2.11402 27.0911C1.68816 28.3127 1.17637 29.7883 0.978378 30.371L0.612282 31.4245L2.27466 31.417L3.93704 31.4058L4.17986 30.6587C4.3106 30.2478 4.52727 29.5716 4.66176 29.1532L4.90458 28.3986H9.5555L9.73855 28.9664C9.83941 29.2802 10.0561 29.9564 10.2204 30.4719L10.523 31.4058L12.1742 31.417C13.1231 31.4208 13.8254 31.4096 13.8254 31.3909C13.8254 31.3722 13.5564 30.5802 13.2239 29.6276C12.8952 28.675 12.4731 27.4572 12.2863 26.923C12.1032 26.3888 11.7483 25.3727 11.5018 24.6629C11.2552 23.9531 10.9153 22.9707 10.7434 22.4775C10.4595 21.6482 9.57044 19.0968 9.35377 18.4692L9.25664 18.2002H7.22817C6.1112 18.2002 5.19596 18.2077 5.19596 18.2151ZM7.5457 22.1301C7.66898 22.5074 7.89686 23.2097 8.05002 23.6916C8.44226 24.9169 8.73365 25.8285 8.76353 25.9032C8.78968 25.9667 8.70003 25.9704 7.2319 25.9704C5.99913 25.9704 5.67786 25.9592 5.69281 25.9218C5.70775 25.8845 6.78362 22.5298 7.03391 21.7491C7.13104 21.4428 7.12731 21.4502 7.2319 21.4502C7.31035 21.4502 7.3365 21.5025 7.5457 22.1301Z" fill="white"/>
<path d="M25.9663 24.8123V31.4245H28.9549V28.3052L29.3695 27.8831C29.5974 27.6552 29.7954 27.4647 29.8066 27.4647C29.8216 27.4684 29.9037 27.5805 29.9859 27.7187C30.0718 27.8569 30.6173 28.746 31.2 29.6949L32.2609 31.4245H35.4886L35.2345 31.021C34.5248 29.9003 33.9607 29.0113 33.7365 28.6601C33.5983 28.4434 33.2808 27.9391 33.0268 27.5394C32.7727 27.1397 32.3954 26.542 32.1862 26.2132C31.977 25.8845 31.7977 25.5968 31.7828 25.5744C31.7716 25.552 32.6233 24.6965 33.7627 23.5945L35.765 21.6557L33.9196 21.6445L32.0742 21.6333L31.7193 22.0031C31.525 22.2086 30.8264 22.9333 30.169 23.6132L28.9736 24.8534L28.9623 21.5287L28.9549 18.2002H25.9663V24.8123Z" fill="white"/>
<path d="M20.1574 21.5061C19.216 21.6555 18.4389 22.0403 17.759 22.6978L17.5611 22.8846V21.6369H14.7967V31.4243H17.7478V28.9289C17.7478 25.2306 17.8001 24.8234 18.3381 24.2444C19.0777 23.4561 20.5459 23.3441 21.166 24.0352C21.3005 24.1808 21.4574 24.4648 21.4947 24.6254C21.5769 24.9616 21.5956 25.6602 21.5956 28.3536C21.5956 29.9786 21.6068 31.3384 21.618 31.3683C21.6367 31.4169 21.8421 31.4243 23.1123 31.4243H24.5841V28.1444C24.5841 24.7561 24.5655 24.1958 24.431 23.6765C24.1769 22.6716 23.5045 22.0104 22.3876 21.6593C21.7413 21.4575 20.8485 21.394 20.1574 21.5061Z" fill="white"/>
<path d="M39.6016 21.4727C39.3176 21.5063 38.7162 21.6482 38.4659 21.7379C37.7972 21.977 37.2892 22.3057 36.7587 22.8324C36.034 23.5534 35.6492 24.323 35.4475 25.4474C35.3466 26.019 35.3429 27.1135 35.4363 27.6888C35.6978 29.2877 36.5906 30.5354 37.9056 31.1443C38.6452 31.488 39.4932 31.6486 40.5429 31.6486C42.4519 31.6486 43.849 31.0024 44.7082 29.7248C44.8651 29.4932 45.1827 28.888 45.1603 28.8656C45.1416 28.8431 42.3323 28.3986 42.2315 28.3986C42.224 28.3986 42.1642 28.5032 42.1007 28.6302C41.7795 29.2765 41.3088 29.5567 40.5542 29.5567C39.9452 29.5567 39.4783 29.3661 39.0562 28.944C38.6938 28.5816 38.4958 28.1595 38.4286 27.6066L38.4024 27.39L41.7757 27.3825L45.149 27.3713L45.1603 27.0911C45.1789 26.6765 45.1042 25.8621 44.9996 25.3503C44.626 23.5011 43.6137 22.2385 42.0821 21.7192C41.5777 21.5474 41.1481 21.4839 40.4234 21.4689C40.0424 21.4614 39.6725 21.4652 39.6016 21.4727ZM40.9352 23.6319C41.4881 23.7813 41.9027 24.11 42.1418 24.6031C42.28 24.8833 42.4033 25.3279 42.4033 25.5445V25.6342H38.4398L38.4659 25.4362C38.5369 24.8572 38.705 24.4761 39.0412 24.1362C39.4222 23.7552 39.8444 23.587 40.4234 23.5833C40.599 23.5796 40.8269 23.602 40.9352 23.6319Z" fill="white"/>
<path d="M50.958 21.525C50.3977 21.6745 49.9868 21.9696 49.475 22.5897L49.3181 22.7765V22.2049L49.3143 21.6371H46.5499V31.4246H49.5385V29.228C49.5385 26.8969 49.5721 26.1498 49.6879 25.6903C49.8784 24.9507 50.323 24.4874 51.0141 24.3081C51.3577 24.2222 52.2207 24.2446 52.5756 24.3492C52.6354 24.3679 52.6391 24.2857 52.6391 22.9707V21.5736L52.4262 21.525C52.3066 21.5026 51.9928 21.4727 51.7238 21.4653C51.3204 21.4541 51.1896 21.4615 50.958 21.525Z" fill="white"/>
<path d="M61.1564 30.323C60.3308 30.4724 59.5987 31.1486 59.3596 31.9854C59.2849 32.2544 59.2923 32.9716 59.3782 33.2182C59.5688 33.7785 59.8676 34.1857 60.3159 34.4808C60.7455 34.7722 61.0033 34.8432 61.586 34.8432C61.9596 34.8432 62.1165 34.8282 62.2771 34.7722C63.0542 34.5107 63.6481 33.857 63.8237 33.08C64.1039 31.8173 63.2634 30.5472 61.997 30.323C61.6346 30.2595 61.5188 30.2595 61.1564 30.323Z" fill="white"/>
<path d="M33.3069 34.3344C32.9931 34.4764 32.9707 34.9433 33.2696 35.1077C33.4414 35.2011 33.7253 35.1637 33.8374 35.033C34.1587 34.6557 33.759 34.1252 33.3069 34.3344Z" fill="white"/>
<path d="M0.601074 37.1025V39.9043H1.32953V34.3008H0.601074V37.1025Z" fill="white"/>
<path d="M30.1876 34.7682C30.0943 34.7943 29.9486 34.8391 29.8626 34.8616L29.702 34.9026V35.8664L29.3957 35.8777L29.0856 35.8889L29.0744 36.1578L29.0632 36.4305H29.702V37.6745C29.702 38.4142 29.717 39.0082 29.7431 39.1389C29.8402 39.6694 30.1353 39.9383 30.6621 39.972C30.946 39.9906 31.2934 39.9608 31.3793 39.9085C31.4167 39.8823 31.4242 39.8188 31.4055 39.632L31.3793 39.3892L31.0917 39.3929C30.7443 39.4004 30.6023 39.3369 30.5014 39.1314C30.4379 39.0007 30.4305 38.8737 30.4193 37.7081L30.4081 36.4305H31.4578V35.8702H30.4118V35.2912C30.4118 34.9736 30.4006 34.7121 30.3856 34.7159C30.367 34.7159 30.281 34.7383 30.1876 34.7682Z" fill="white"/>
<path d="M54.1109 35.4407C53.2144 35.6349 52.5905 36.468 52.6503 37.3832C52.6951 38.1042 53.1583 38.7467 53.8233 39.012C54.0101 39.0904 54.1035 39.1016 54.5256 39.1016H55.0112L55.3064 38.9597C56.7334 38.2611 56.7222 36.2438 55.2877 35.5751C54.888 35.3846 54.5405 35.3473 54.1109 35.4407Z" fill="white"/>
<path d="M5.054 35.8548C4.94193 35.8847 4.76262 35.9669 4.65055 36.0416C4.45256 36.1724 4.22468 36.4189 4.22468 36.5011C4.22468 36.5235 4.20974 36.5422 4.18733 36.5422C4.16865 36.5422 4.14997 36.4525 4.14997 36.3442C4.14997 36.2396 4.13876 36.0864 4.12755 36.008L4.1014 35.8698H3.46634L3.48875 36.1201C3.5037 36.262 3.5149 37.1698 3.5149 38.1373V39.9043H4.22468V38.6529C4.22468 37.9095 4.23962 37.3304 4.26577 37.2184C4.31807 36.9718 4.53474 36.6692 4.76262 36.531C4.90831 36.4413 4.99797 36.4152 5.21837 36.4002C5.46119 36.3853 5.51723 36.3965 5.6928 36.4824C5.82355 36.5422 5.93189 36.6356 5.99539 36.7252C6.19338 37.0092 6.20833 37.1212 6.21206 38.5707L6.21953 39.9043H6.95173V38.623C6.95173 37.9207 6.93305 37.2258 6.91437 37.0839C6.86207 36.7215 6.66782 36.333 6.425 36.1163C6.09999 35.8249 5.55085 35.7203 5.054 35.8548Z" fill="white"/>
<path d="M10.4819 35.8737C10.2055 35.9633 9.93653 36.1576 9.77964 36.3817L9.66009 36.5498L9.62647 36.2099L9.59285 35.8699H8.95779L8.9802 36.1762C8.99514 36.3481 9.00635 37.2559 9.00635 38.1935V39.9045H9.71239L9.7236 38.5484C9.73481 37.2633 9.73854 37.1886 9.81326 37.0242C10 36.6245 10.3512 36.3929 10.7696 36.3929C11.1656 36.3967 11.4196 36.561 11.5914 36.9346C11.6774 37.1176 11.6774 37.1513 11.6886 38.511L11.6998 39.9045H12.4506L12.4357 38.4737C12.4208 37.1288 12.4133 37.0317 12.3386 36.7964C12.1219 36.1389 11.6437 35.7915 10.9638 35.7989C10.8144 35.7989 10.6127 35.8288 10.4819 35.8737Z" fill="white"/>
<path d="M15.6409 35.8555C14.961 36.0198 14.4081 36.6138 14.255 37.346C14.0869 38.1417 14.2961 38.986 14.7742 39.4604C15.1515 39.834 15.5662 39.9946 16.1415 39.9909C17.3369 39.9797 18.1251 39.1317 18.1214 37.8578C18.1177 37.1891 17.9159 36.6698 17.5125 36.2963C17.251 36.0497 17.0493 35.9377 16.7205 35.8517C16.4478 35.7845 15.9398 35.7845 15.6409 35.8555ZM16.5039 36.3747C16.87 36.4831 17.1912 36.8716 17.3182 37.346C17.393 37.6337 17.3892 38.1903 17.3145 38.4518C17.0978 39.1989 16.4852 39.5949 15.8352 39.4044C15.5924 39.3371 15.3047 39.098 15.159 38.8477C14.8004 38.2351 14.8602 37.2339 15.2898 36.7483C15.484 36.5279 15.6334 36.427 15.8389 36.371C16.0743 36.3075 16.2797 36.3075 16.5039 36.3747Z" fill="white"/>
<path d="M25.3686 35.8552C25.2341 35.8851 25.0212 35.956 24.8942 36.0158L24.6626 36.1241L24.7448 36.367L24.827 36.6098L25.0025 36.5201C25.3798 36.3296 25.9514 36.2661 26.2689 36.3744C26.5865 36.4902 26.7807 36.7704 26.7994 37.1589L26.8069 37.3457L26.3773 37.3719C25.7721 37.4055 25.3163 37.5288 24.9726 37.7492C24.4384 38.0928 24.233 38.7653 24.4907 39.3368C24.6551 39.7029 24.9278 39.9009 25.3761 39.9794C25.8281 40.0578 26.3287 39.9084 26.6686 39.5908C26.7695 39.4975 26.8629 39.4302 26.8741 39.4452C26.889 39.4564 26.9003 39.5385 26.9003 39.6282C26.9003 39.8972 26.9077 39.9046 27.2514 39.9046H27.554L27.5428 38.6457C27.5391 37.9509 27.5166 37.2486 27.498 37.0842C27.4345 36.565 27.173 36.1428 26.7882 35.9448C26.5005 35.7917 25.8431 35.7543 25.3686 35.8552ZM26.8255 38.2684C26.8255 38.6308 26.8143 38.7167 26.7359 38.8773C26.6313 39.1052 26.4109 39.3107 26.1793 39.4003C25.9365 39.4937 25.5405 39.4676 25.3761 39.348C25.0511 39.1164 25.0137 38.5411 25.3051 38.2311C25.5106 38.0069 25.9925 37.8575 26.5192 37.8538L26.8255 37.85V38.2684Z" fill="white"/>
<path d="M37.08 35.8662C36.3926 36.0642 35.9145 36.5648 35.7314 37.2895C35.6567 37.5771 35.6492 38.2271 35.7127 38.5036C35.9331 39.43 36.7438 40.0464 37.6777 39.9941C38.8731 39.9306 39.6576 39.0116 39.5904 37.7565C39.5269 36.5274 38.7797 35.7877 37.6142 35.799C37.4386 35.799 37.207 35.8288 37.08 35.8662ZM38.126 36.4415C38.5518 36.6582 38.8059 37.1251 38.8432 37.7565C38.8843 38.4812 38.6041 39.0826 38.0998 39.3516C37.9691 39.4188 37.8794 39.4375 37.6217 39.4375C37.3377 39.4375 37.2817 39.4263 37.1024 39.3254C36.628 39.0639 36.3553 38.4625 36.4001 37.7751C36.4599 36.8524 36.9642 36.2883 37.6964 36.3294C37.8607 36.3406 37.999 36.3742 38.126 36.4415Z" fill="white"/>
<path d="M43.001 35.8662C42.6611 35.9745 42.4257 36.1538 42.2091 36.4676L42.1456 36.561L42.1381 36.4116C42.1344 36.3294 42.1269 36.2435 42.1231 36.2248C42.1157 36.2024 42.1119 36.1165 42.1082 36.0268L42.1045 35.8699H41.4582L41.4806 36.4378C41.4956 36.7478 41.5068 37.6556 41.5068 38.455V39.9045H42.2128L42.224 38.5335C42.2352 37.1886 42.2352 37.155 42.3211 37.0018C42.5341 36.5984 42.8516 36.3929 43.2588 36.3929C43.6697 36.3967 43.9163 36.5573 44.0918 36.9346C44.1778 37.1177 44.1778 37.1513 44.189 38.5148L44.2002 39.9082L44.5551 39.897L44.91 39.8858L44.9062 38.4812C44.9062 37.0168 44.8875 36.8337 44.7344 36.5311C44.5663 36.2061 44.2674 35.9521 43.9387 35.855C43.6734 35.7765 43.2588 35.7803 43.001 35.8662Z" fill="white"/>
<path d="M47.7902 35.8512C47.4652 35.9408 47.1701 36.1762 47.0281 36.4489C46.931 36.6319 46.8936 37.0727 46.9571 37.2633C47.0692 37.6032 47.4241 37.8983 47.9433 38.0963C48.5037 38.3055 48.7166 38.511 48.7166 38.8472C48.7166 39.0676 48.6158 39.2469 48.4178 39.359C48.3094 39.4262 48.2235 39.4374 47.9135 39.4374C47.5399 39.4337 47.4951 39.4225 47.0094 39.2096C46.9833 39.1946 46.9347 39.288 46.8824 39.4561C46.7815 39.7662 46.7703 39.7475 47.1476 39.8745C47.5175 39.994 48.1824 40.0127 48.5186 39.9081C49.1388 39.7176 49.4638 39.2768 49.4189 38.6903C49.3741 38.1561 49.1163 37.8871 48.3094 37.5509C47.8985 37.3791 47.7379 37.2707 47.652 37.0989C47.5287 36.8598 47.6295 36.5684 47.8948 36.4153C48.0928 36.2957 48.5448 36.3107 48.866 36.4414C48.9968 36.4937 49.1089 36.5348 49.1126 36.5311C49.1537 36.4713 49.2695 36.0342 49.2471 36.0118C49.2284 35.9931 49.1163 35.9446 48.9931 35.8997C48.7054 35.7989 48.0778 35.769 47.7902 35.8512Z" fill="white"/>
<path d="M19.3915 35.9149C19.3915 35.956 20.1723 38.0331 20.7252 39.4638L20.897 39.9047H21.5881L21.745 39.5012C21.8309 39.2808 22.0626 38.698 22.2568 38.2049C22.4511 37.7118 22.7312 37.0058 22.8732 36.6359C23.0189 36.2661 23.1422 35.9411 23.1534 35.9149C23.1683 35.8813 23.0824 35.8701 22.7947 35.8701C22.5258 35.8701 22.41 35.8851 22.3988 35.9149C22.3913 35.9411 22.1485 36.6434 21.8608 37.4765C21.5732 38.3095 21.3266 39.0342 21.3117 39.0903C21.2855 39.2023 21.222 39.1949 21.222 39.0828C21.222 39.0268 20.5421 37.0244 20.176 35.9897L20.1312 35.8701H19.7614C19.4961 35.8701 19.3915 35.8813 19.3915 35.9149Z" fill="white"/>
<path d="M33.165 35.8923C33.15 35.9072 33.1388 36.815 33.1388 37.9133V39.9081L33.4937 39.8969L33.8524 39.8857V35.8885L33.5199 35.8773C33.3406 35.8736 33.1799 35.8773 33.165 35.8923Z" fill="white"/>
</g>
<defs>
<clipPath id="clip0_598_4998">
<rect width="66.6016" height="40" fill="white" transform="translate(0.601074)"/>
</clipPath>
</defs>
</svg>
