<svg id="Layer_1" data-name="Layer 1" xmlns="http://www.w3.org/2000/svg" viewBox="0 0 416.3 129.05">
    <defs>
        <style>.cls-1,.cls-3{fill:#fff;}.cls-1{fill-rule:evenodd;}.cls-2{fill:#fff;}</style>
    </defs>
    <path class="cls-1"
        d="M392.4,78.8V38l10.7.1v5.4l.5-.7a13,13,0,0,1,3.1-3.1l.3-.3a9.56,9.56,0,0,1,6.2-1.9h.6a5.28,5.28,0,0,1,1.2.1l1.3.2-.2,9.4a9.15,9.15,0,0,0-1.7-.1h-1.2a18,18,0,0,0-3.1.3,7.56,7.56,0,0,0-3.3,1.5,8.77,8.77,0,0,0-2.6,3.7,17.73,17.73,0,0,0-1,6.8V78.7H392.4Z" />
    <path class="cls-1"
        d="M38.6,79.6c-2.4,0-4.8-.1-7.2-.2s-4.9-.4-7.9-.7V21.8c1.7-.2,3.6-.5,5.6-.6,2.2-.2,5-.2,8.4-.2a42.48,42.48,0,0,1,8.2.7,21.18,21.18,0,0,1,6.7,2.4,12.14,12.14,0,0,1,4.5,4.5,13.68,13.68,0,0,1,1.6,7,14.46,14.46,0,0,1-.7,4.7,13.05,13.05,0,0,1-2,3.7A9.77,9.77,0,0,1,53,46.6a8.24,8.24,0,0,1-3.1,1.3v.6a18.7,18.7,0,0,1,4,1.1A16.13,16.13,0,0,1,58,52.1a14,14,0,0,1,3.1,4.3,15.55,15.55,0,0,1,1.2,6.4,15.7,15.7,0,0,1-1.9,8.3,13.41,13.41,0,0,1-5.2,5.1,22,22,0,0,1-7.6,2.6,42.46,42.46,0,0,1-9,.8m-4.1-9.2h.3a19.66,19.66,0,0,0,2.6.2,24.37,24.37,0,0,0,2.7.1,23.8,23.8,0,0,0,3.6-.3,10.53,10.53,0,0,0,3.5-1.3,7.46,7.46,0,0,0,2.7-2.6A8.18,8.18,0,0,0,51,62.1a10.14,10.14,0,0,0-.8-4.2,7,7,0,0,0-2.4-2.7,8.24,8.24,0,0,0-3.6-1.4,21.89,21.89,0,0,0-4.6-.4H34.5ZM38.6,29a37.93,37.93,0,0,0-3.8.2h-.2V45.1h3.8a15.81,15.81,0,0,0,3.8-.4,7.85,7.85,0,0,0,3.1-1.3,6.07,6.07,0,0,0,2.1-2.6,9.74,9.74,0,0,0,.7-4.1,7.51,7.51,0,0,0-.9-3.9,6.62,6.62,0,0,0-2.3-2.4,7.74,7.74,0,0,0-3.1-1.2c-1-.1-2.2-.2-3.2-.2" />
    <path class="cls-1"
        d="M67.4,78.8V38l10.8.1v5.4l.5-.8a12.6,12.6,0,0,1,3.1-3l.4-.3a9.56,9.56,0,0,1,6.2-1.9H89a5.28,5.28,0,0,1,1.2.1l1.3.2-.2,9.4a11.48,11.48,0,0,0-1.8-.1H88.2a18,18,0,0,0-3.1.3,7.08,7.08,0,0,0-3.3,1.5,8.77,8.77,0,0,0-2.6,3.7,17.73,17.73,0,0,0-1,6.8V78.7H67.4Z" />
    <path class="cls-1"
        d="M110.8,79.6a33.83,33.83,0,0,1-7.4-.7,18.39,18.39,0,0,1-5.7-2.3A11.5,11.5,0,0,1,94,72.4a13.36,13.36,0,0,1-1.3-6.3,11.35,11.35,0,0,1,1.6-6.3,13.37,13.37,0,0,1,4.1-4.1,17.81,17.81,0,0,1,5.7-2.2,33.76,33.76,0,0,1,6.3-.7c1.5,0,3.2.1,5.1.2h.3V51.7c0-4.3-3.4-6.7-9.5-6.7a25.45,25.45,0,0,0-10.2,2.1V37.8a35.71,35.71,0,0,1,11.6-1.9c6.5,0,12.1,1.6,14.8,4.4,2.5,2.5,3.7,6.6,3.7,13.1V77.1a56.23,56.23,0,0,1-6.5,1.6,34.35,34.35,0,0,1-8.9.9m.8-20.2a12.25,12.25,0,0,0-6.3,1.4,5.24,5.24,0,0,0-2.4,4.8,5.71,5.71,0,0,0,.9,3.4,5.06,5.06,0,0,0,2.2,1.7,7.67,7.67,0,0,0,2.7.7,22.63,22.63,0,0,0,2.5.1,19.42,19.42,0,0,0,2.4-.2c.8-.1,1.5-.3,2.1-.4h.2v-11h-.2q-.9-.15-2.1-.3a7.5,7.5,0,0,0-2-.2" />
    <path class="cls-1"
        d="M157.5,78.7v-23a14.07,14.07,0,0,0-1.4-6.8,5.2,5.2,0,0,0-4.8-2.5,10.12,10.12,0,0,0-2.9.4,6.27,6.27,0,0,0-2.7,1.6,7.57,7.57,0,0,0-1.9,3.3,17.11,17.11,0,0,0-.7,5.5V78.5H132.4V38h10.7v5.3l.5-.8a2.26,2.26,0,0,1,.6-.7l.5-.5a12.66,12.66,0,0,1,2.5-2.1,15.7,15.7,0,0,1,3.2-1.5,12.45,12.45,0,0,1,4-.6c4.6,0,8.1,1.3,10.4,3.7s3.5,6.5,3.5,11.8v26H157.5Z" />
    <path class="cls-1"
        d="M193.4,79.6a29.73,29.73,0,0,1-8-1.1,19.68,19.68,0,0,1-6.7-3.6,17,17,0,0,1-4.6-6.4,25,25,0,0,1-1.7-9.6,24.14,24.14,0,0,1,1.5-8.5,21,21,0,0,1,4.2-6.9,19.57,19.57,0,0,1,6.6-4.6,21.63,21.63,0,0,1,8.6-1.7c.9,0,1.8,0,3,.1a25,25,0,0,1,2.9.5l.4.1v-17h10.7V77.3a46.44,46.44,0,0,1-7.4,1.6,53.42,53.42,0,0,1-9.5.7m.6-34.3a9.89,9.89,0,0,0-4.7,1.1,8.64,8.64,0,0,0-3.3,3,12,12,0,0,0-1.9,4.3,21.57,21.57,0,0,0-.6,5.1,18,18,0,0,0,.8,5.6,8.09,8.09,0,0,0,2.3,3.7,9,9,0,0,0,3.4,2,14.21,14.21,0,0,0,4.2.6,20.08,20.08,0,0,0,2.5-.1,15.66,15.66,0,0,0,2.5-.5l.2-.1V46l-.2-.1a16.6,16.6,0,0,0-2.6-.5c-.7,0-1.5-.1-2.6-.1" />
    <path class="cls-1"
        d="M220.4,78.7V46.1h-6.5v-8h6.5V35.8a19.6,19.6,0,0,1,1.1-6.7,13.9,13.9,0,0,1,3.2-4.9,15.06,15.06,0,0,1,5-3.1,19.26,19.26,0,0,1,6.5-1.1h.9a14.67,14.67,0,0,1,3.1.2l3.3.7-1.6,8.4-1.5-.3a17.19,17.19,0,0,0-2.6-.2,7.72,7.72,0,0,0-4.7,1.4c-1.3,1-2,3-2,5.9v2h13.4a19,19,0,0,0-3.3,3,20.75,20.75,0,0,0-3,5h-7.1V78.7Z" />
    <path class="cls-1"
        d="M261.3,79.6a20.63,20.63,0,0,1-8.6-1.6,17,17,0,0,1-6-4.5,19.68,19.68,0,0,1-3.6-6.7,30,30,0,0,1,0-16.8,19.26,19.26,0,0,1,3.6-6.8,17,17,0,0,1,6-4.5,22.6,22.6,0,0,1,17.2,0,17.33,17.33,0,0,1,6.1,4.5,19.26,19.26,0,0,1,3.6,6.8,29.11,29.11,0,0,1,1.2,8.5,28.43,28.43,0,0,1-1.2,8.4,18.8,18.8,0,0,1-3.6,6.7,17.33,17.33,0,0,1-6.1,4.5,22.42,22.42,0,0,1-8.6,1.5m0-34.3a7.2,7.2,0,0,0-6.6,3.5c-1.3,2.2-2,5.5-2,9.7s.7,7.4,2,9.7a8.07,8.07,0,0,0,13.3,0c1.3-2.2,2-5.5,2-9.7s-.7-7.4-2-9.7a7.37,7.37,0,0,0-6.7-3.5" />
    <path class="cls-1"
        d="M299.2,79.2a14.08,14.08,0,0,1-9.7-3.3q-3.6-3.3-3.6-10.8V20.9h10.7V62.5a21,21,0,0,0,.3,4,6.57,6.57,0,0,0,.9,2.5,3.71,3.71,0,0,0,1.7,1.3,9,9,0,0,0,2.5.3,6.15,6.15,0,0,0,1.3-.1,24.68,24.68,0,0,0,5.9,7.1l-6.7,1.3a22.29,22.29,0,0,1-3.3.3" />
    <path class="cls-1"
        d="M328.2,79.7a29.73,29.73,0,0,1-8-1.1,19.68,19.68,0,0,1-6.7-3.6,17,17,0,0,1-4.6-6.4,24.62,24.62,0,0,1-1.7-9.6,24.14,24.14,0,0,1,1.5-8.5,21,21,0,0,1,4.2-6.9,19.57,19.57,0,0,1,6.6-4.6,21.63,21.63,0,0,1,8.6-1.7c1,0,2,0,3,.1a13.52,13.52,0,0,1,2.9.5l.4.1V21h10.7V77.4a46.44,46.44,0,0,1-7.4,1.6,54.17,54.17,0,0,1-9.5.7m.6-34.3a9.89,9.89,0,0,0-4.7,1.1,9.43,9.43,0,0,0-3.3,3,12,12,0,0,0-1.9,4.3,21.57,21.57,0,0,0-.6,5.1,18,18,0,0,0,.8,5.6,8.09,8.09,0,0,0,2.3,3.7,9,9,0,0,0,3.4,2,14.21,14.21,0,0,0,4.2.6,20.08,20.08,0,0,0,2.5-.1c.7-.1,1.6-.3,2.5-.5l.2-.1v-24L334,46a19.07,19.07,0,0,0-2.6-.5c-.7,0-1.6-.1-2.6-.1" />
    <path class="cls-1"
        d="M371.2,79.6a25.25,25.25,0,0,1-9.7-1.6,16.32,16.32,0,0,1-6.6-4.4,17.33,17.33,0,0,1-3.8-6.6,28.43,28.43,0,0,1-1.2-8.4,25.5,25.5,0,0,1,1.3-8.4,19.44,19.44,0,0,1,3.7-6.8,17.57,17.57,0,0,1,6.1-4.6,20.46,20.46,0,0,1,8.5-1.7,17.94,17.94,0,0,1,7.5,1.5,16.59,16.59,0,0,1,5.6,4.1,17.88,17.88,0,0,1,3.5,6.2,24.35,24.35,0,0,1,1.2,7.7c0,1,0,2-.1,3s-.2,1.6-.2,2.1H360.4V62c.2,3.3,1.4,5.7,3.5,7.2a13.6,13.6,0,0,0,8.1,2.2,22,22,0,0,0,5.6-.5l5.1-1.4,2.1,8.1a43.27,43.27,0,0,1-13.6,2m-1.8-34.5a8.54,8.54,0,0,0-6.3,2.3,11.07,11.07,0,0,0-2.6,6.5v.3h16.7v-.3a10.29,10.29,0,0,0-2.2-6.4,6.84,6.84,0,0,0-5.6-2.4" />
    <polygon class="cls-2"
        points="62.3 20.4 68.2 20.4 68.2 15.5 78.9 15.5 78.9 20.4 84.8 20.4 73.5 31.7 62.3 20.4" />
    <polygon class="cls-2"
        points="0 97.9 0 0 78.9 0 78.9 15.6 68.2 15.6 68.2 10.8 10.8 10.8 10.8 87.1 78.9 87.1 78.9 97.9 0 97.9" />
    <path class="cls-3"
        d="M207.15,108a6.69,6.69,0,0,0-1.62-1.35,4.54,4.54,0,0,0-2.33-.53,5.21,5.21,0,0,0-2.29.53,1.69,1.69,0,0,0-.94,1.58,1.74,1.74,0,0,0,.6,1.35,4.21,4.21,0,0,0,1.28.83,5.09,5.09,0,0,0,1.61.45l1.47.3a15.92,15.92,0,0,1,2.22.71,6.1,6.1,0,0,1,1.8,1.06,4.32,4.32,0,0,1,1.16,1.57,5.07,5.07,0,0,1,.42,2.3,5.35,5.35,0,0,1-.72,2.74,5.77,5.77,0,0,1-1.8,1.88,6.76,6.76,0,0,1-2.52,1,10.13,10.13,0,0,1-2.85.3,10.55,10.55,0,0,1-4.21-.71,8,8,0,0,1-3.27-2.67L198,117.1a11.71,11.71,0,0,0,2,1.58,5.64,5.64,0,0,0,2.67.71c.45,0,.94-.08,1.39-.11a4.19,4.19,0,0,0,1.27-.45,2.76,2.76,0,0,0,.87-.76,1.87,1.87,0,0,0,.34-1,2.11,2.11,0,0,0-.53-1.35,3.12,3.12,0,0,0-1.24-.83,8.46,8.46,0,0,0-1.5-.45l-1.39-.3c-.83-.19-1.51-.41-2.3-.64a5.85,5.85,0,0,1-1.87-1A4.84,4.84,0,0,1,196.4,111a4.33,4.33,0,0,1-.45-2.29,4.92,4.92,0,0,1,.64-2.56,4.79,4.79,0,0,1,1.69-1.8,7.48,7.48,0,0,1,2.4-1.13,10.91,10.91,0,0,1,2.67-.33,9.58,9.58,0,0,1,3.72.71,6,6,0,0,1,2.86,2.4Z" />
    <path class="cls-3"
        d="M212.22,103.19h3.46v3h.07a3.53,3.53,0,0,1,.64-1,9.2,9.2,0,0,1,1.28-1.16,8.26,8.26,0,0,1,1.88-.94,6.48,6.48,0,0,1,2.4-.41,7,7,0,0,1,3.61.86,6.31,6.31,0,0,1,2.4,2.67,6,6,0,0,1,2.67-2.67,7.14,7.14,0,0,1,3.5-.86,7.77,7.77,0,0,1,3.68.71,6.58,6.58,0,0,1,2.29,1.92,6.68,6.68,0,0,1,1.13,2.67,14.62,14.62,0,0,1,.3,3.15v11.09h-3.76V111.57c0-.71-.07-1.39-.11-2.1a4.65,4.65,0,0,0-.6-1.77,3.39,3.39,0,0,0-1.28-1.24,4.74,4.74,0,0,0-2.14-.45,4.3,4.3,0,0,0-3.8,1.62,6.8,6.8,0,0,0-1.16,4.13v10.52H225v-10c0-.83-.08-1.69-.12-2.52a6,6,0,0,0-.6-2A3.32,3.32,0,0,0,223,106.5a4.55,4.55,0,0,0-2.14-.45,4.43,4.43,0,0,0-1.92.41,3.79,3.79,0,0,0-1.61,1.17,5.71,5.71,0,0,0-1.13,2,9.17,9.17,0,0,0-.41,2.82v9.92h-3.69V103.23h.08Z" />
    <path class="cls-3"
        d="M244.2,105.52a11.18,11.18,0,0,1,3.61-2.1,12.66,12.66,0,0,1,4.09-.72,13.83,13.83,0,0,1,3.69.53,6.79,6.79,0,0,1,2.51,1.39,6,6,0,0,1,1.47,2,6.53,6.53,0,0,1,.45,2.41v9.73a14.47,14.47,0,0,0,.08,1.88c.07.6.07,1.13.11,1.61h-3.27c-.08-.94-.11-1.91-.11-2.93h-.08a7,7,0,0,1-2.93,2.63,8.58,8.58,0,0,1-3.87.75,9.76,9.76,0,0,1-2.56-.33,6.22,6.22,0,0,1-2.14-1.13,5.21,5.21,0,0,1-1.46-1.8,6.1,6.1,0,0,1-.53-2.45,5,5,0,0,1,.83-3.08,6,6,0,0,1,2.29-2,10.07,10.07,0,0,1,3.38-1.13,25.76,25.76,0,0,1,4.13-.33h2.75v-.83a3.9,3.9,0,0,0-.3-1.47,3.11,3.11,0,0,0-.87-1.27,4.07,4.07,0,0,0-1.39-.94,6.09,6.09,0,0,0-2-.34,8,8,0,0,0-1.88.22,7.1,7.1,0,0,0-1.46.53,4.81,4.81,0,0,0-1.17.71l-1,.76Zm10.37,7.59c-.86,0-1.8.08-2.67.12a9.58,9.58,0,0,0-2.52.52,4.26,4.26,0,0,0-1.8,1.13,2.55,2.55,0,0,0-.71,1.88,2.62,2.62,0,0,0,1.12,2.4,5.75,5.75,0,0,0,3,.72,6.58,6.58,0,0,0,2.55-.53,5.08,5.08,0,0,0,1.69-1.28,5.17,5.17,0,0,0,.94-1.8,6.76,6.76,0,0,0,.31-1.92v-1.24Z" />
    <path class="cls-3"
        d="M303.72,108a6.46,6.46,0,0,0-1.61-1.35,4.57,4.57,0,0,0-2.33-.53,5.21,5.21,0,0,0-2.29.53,1.81,1.81,0,0,0-.34,2.93,5.28,5.28,0,0,0,1.28.83,5.09,5.09,0,0,0,1.61.45l1.47.3a15.38,15.38,0,0,1,2.21.71,6,6,0,0,1,1.81,1.06,4.44,4.44,0,0,1,1.16,1.57,6,6,0,0,1-.3,5,5.77,5.77,0,0,1-1.8,1.88,6.76,6.76,0,0,1-2.52,1,10.13,10.13,0,0,1-2.85.3,10.55,10.55,0,0,1-4.21-.71,8,8,0,0,1-3.27-2.67l2.82-2.29a11.71,11.71,0,0,0,2,1.58,5.64,5.64,0,0,0,2.67.71c.45,0,.93-.08,1.39-.11a4.19,4.19,0,0,0,1.27-.45,2.76,2.76,0,0,0,.87-.76,1.87,1.87,0,0,0,.34-1,2.11,2.11,0,0,0-.53-1.35,3.12,3.12,0,0,0-1.24-.83,8.46,8.46,0,0,0-1.5-.45l-1.39-.3c-.83-.19-1.51-.41-2.3-.64a6,6,0,0,1-1.88-1A5,5,0,0,1,293,111a4.33,4.33,0,0,1-.45-2.29,5,5,0,0,1,2.33-4.36,7.48,7.48,0,0,1,2.4-1.13,9.4,9.4,0,0,1,2.67-.33,9.62,9.62,0,0,1,3.72.71,6,6,0,0,1,2.86,2.4Z" />
    <path class="cls-3"
        d="M308.91,91.81h3.68v14.31h.08a5.4,5.4,0,0,1,2.4-2.44,8.07,8.07,0,0,1,4-.94,8,8,0,0,1,2.67.42,8.34,8.34,0,0,1,2.29,1.27,5.58,5.58,0,0,1,1.5,2.3,8.9,8.9,0,0,1,.6,3.27v12.28h-3.61V111a8.45,8.45,0,0,0-.33-2.29,3.51,3.51,0,0,0-1-1.5,2.77,2.77,0,0,0-1.39-.83,3.59,3.59,0,0,0-1.62-.23,6.65,6.65,0,0,0-2.1.34,4,4,0,0,0-1.69,1.17,5.37,5.37,0,0,0-1.17,2,9.25,9.25,0,0,0-.41,2.86v9.8h-3.68Z" />
    <path class="cls-3"
        d="M331.91,114.05a5.28,5.28,0,0,0,.53,2.3,5.07,5.07,0,0,0,1.46,1.76,6.54,6.54,0,0,0,2.11,1.13,6.91,6.91,0,0,0,2.44.41,5.17,5.17,0,0,0,3-.82,12.4,12.4,0,0,0,2.33-2l2.82,2.1a10.18,10.18,0,0,1-8.57,3.91,11.36,11.36,0,0,1-4.14-.75,8.45,8.45,0,0,1-3.15-2.11,10.36,10.36,0,0,1-2-3.19,12.05,12.05,0,0,1-.71-4,10.69,10.69,0,0,1,.75-4,8.45,8.45,0,0,1,2.11-3.15,9,9,0,0,1,3.15-2.11,10.59,10.59,0,0,1,4-.75,9.28,9.28,0,0,1,4.36.86,8.93,8.93,0,0,1,2.94,2.33,8,8,0,0,1,1.61,3.2,13,13,0,0,1,.53,3.61v1.27Zm11.61-2.93a7.57,7.57,0,0,0-.41-2.21,5.8,5.8,0,0,0-1.05-1.77,4.36,4.36,0,0,0-1.77-1.17,5.84,5.84,0,0,0-2.44-.41,6,6,0,0,0-2.45.53,6.64,6.64,0,0,0-1.91,1.27,5.9,5.9,0,0,0-1.24,1.81,4.43,4.43,0,0,0-.42,1.91h11.69Z" />
    <path class="cls-3"
        d="M353.44,114.05a4.52,4.52,0,0,0,.6,2.3,5.21,5.21,0,0,0,1.47,1.76,6.59,6.59,0,0,0,2.1,1.13,7,7,0,0,0,2.45.41,5.12,5.12,0,0,0,3-.82,11.8,11.8,0,0,0,2.33-2l2.82,2.1a10.16,10.16,0,0,1-8.56,3.91,11.32,11.32,0,0,1-4.14-.75,8.57,8.57,0,0,1-3.16-2.11,10.52,10.52,0,0,1-2-3.19,12.05,12.05,0,0,1-.71-4,10.5,10.5,0,0,1,.75-4,8.45,8.45,0,0,1,2.11-3.15,9,9,0,0,1,3.15-2.11,10.59,10.59,0,0,1,4-.75,9.28,9.28,0,0,1,4.36.86,9.93,9.93,0,0,1,2.93,2.33,8,8,0,0,1,1.62,3.2,13,13,0,0,1,.53,3.61v1.27ZM365,111.12a6.23,6.23,0,0,0-1.47-4,4.29,4.29,0,0,0-1.77-1.17,5.81,5.81,0,0,0-2.44-.41,5.91,5.91,0,0,0-2.44.53,6.82,6.82,0,0,0-1.92,1.27,6.08,6.08,0,0,0-1.24,1.81,4.3,4.3,0,0,0-.41,1.91H365Z" />
    <path class="cls-3"
        d="M274.3,103.19a21.1,21.1,0,0,0-3.38-.22,5,5,0,0,0-2.63.71,6.35,6.35,0,0,0-1.39,1,4.57,4.57,0,0,0-1,1.39h-.11v-2.93h-3.69v19h3.69s-.12-7.89,0-9.73.45-3.91,1.46-4.85a4.14,4.14,0,0,1,2.82-1.36,11.41,11.41,0,0,1,2.74,0Z" />
    <path class="cls-3"
        d="M287.87,119.24a8.51,8.51,0,0,1-1.36.11,2.83,2.83,0,0,1-1.61-.34,2.61,2.61,0,0,1-.83-1,3.66,3.66,0,0,1-.3-1.39c0-.53-.08-1.06-.08-1.58v-8.76H289v-3.15h-5.27V97.78H280v5.38h-3.68l-1.39,3.15H280v9.92c0,.75.08,1.58.11,2.33a5.16,5.16,0,0,0,.64,2,4.18,4.18,0,0,0,1.69,1.51,7.72,7.72,0,0,0,3.27.6c.53,0,1.06-.08,1.62-.12a4.33,4.33,0,0,0,1.69-.52v-3.27A2.09,2.09,0,0,1,287.87,119.24Z" />
    <path class="cls-3"
        d="M381.89,119.24a8.39,8.39,0,0,1-1.35.11,2.86,2.86,0,0,1-1.62-.34,2.61,2.61,0,0,1-.83-1,3.86,3.86,0,0,1-.3-1.39c0-.53-.07-1.06-.07-1.58v-8.76H383v-3.15h-5.26V97.78H374v5.38h-3.69L369,106.31H374v9.92c0,.75.07,1.58.11,2.33a4.85,4.85,0,0,0,.64,2,4.06,4.06,0,0,0,1.69,1.51,7.66,7.66,0,0,0,3.27.6c.52,0,1.05-.08,1.61-.12a4.33,4.33,0,0,0,1.69-.52v-3.27A2.52,2.52,0,0,1,381.89,119.24Z" />
    <path class="cls-3"
        d="M162.2,109.84s1.24-1.87,2.93-1.87c2.56-.08,4.66,4.73,5,5.41a51.79,51.79,0,0,1,11.42-15.94H157.92v27.32a17.14,17.14,0,0,1-.3,3,53.91,53.91,0,0,0,9-2.33c7.18-2.67,10-5.49,10-5.49l.19-.19.11.23a18,18,0,0,0,1.8,3.16c1,1.24,1.51,1.35,1.88,1.24s.64-.83.75-1.92.19-3.57.19-6.61V99.55c-6.88,8.83-12,22.06-12,22.06S166.15,109.81,162.2,109.84Z" />
    <path class="cls-3"
        d="M110.49,122.83l-.4-23,3.62-.07.17,9.43a5.54,5.54,0,0,1,4.81-2.4c4.64-.08,7.2,3.4,7.28,7.94s-2.62,8.23-7.12,8.31A5.32,5.32,0,0,1,114,120.7l0,2.06ZM118,110.09c-2.35,0-4.13,1.82-4.08,4.9s1.9,4.85,4.25,4.81,4.12-1.91,4.07-5S120.46,110.05,118,110.09Z" />
    <path class="cls-3"
        d="M129.82,129.05l3.57-8.16-6.84-13.5,4.16-.07,4.62,9.7,4-9.85,3.91-.07L133.75,129Z" />
</svg>