<svg width="118" height="25" viewBox="0 0 118 25" fill="none" xmlns="http://www.w3.org/2000/svg">
<path d="M42.8311 20.9977L38.8899 15.2177C38.7439 15.004 38.6903 14.7415 38.7411 14.4886C38.7919 14.2356 38.9428 14.0132 39.1603 13.8709C40.9655 12.6751 42.0978 10.5358 42.0978 8.06813C42.0978 3.84272 38.5227 0.5 34.1175 0.5H24.6475C24.4756 0.5 24.3107 0.567607 24.1893 0.687918C24.0678 0.808229 23.9997 0.971366 24 1.14137V5.23742C23.9991 5.40617 24.132 5.54611 24.3023 5.55593C27.507 5.7266 30.0806 8.45839 30.0806 11.575C30.0806 14.721 27.4795 17.394 24.3023 17.5636C24.132 17.5734 23.9991 17.7134 24 17.8821V21.8553C24 22.209 24.2899 22.4956 24.6475 22.4956H30.1499C30.5075 22.4956 30.7974 22.209 30.7974 21.8553V19.941C30.7974 18.5768 31.9891 18.2463 32.9005 19.316L35.2092 22.1739C35.4166 22.3814 35.699 22.4987 35.9941 22.5H42.0231C42.3842 22.5018 42.7166 22.3055 42.8862 21.9903C43.0558 21.675 43.0346 21.2927 42.8311 20.9977Z" fill="white"/>
<path d="M46.6417 0.5H51.3594C51.7134 0.5006 52 0.787588 52 1.1414V21.8597C52 22.2133 51.7132 22.5 51.3594 22.5H46.6417C46.2877 22.5 46.0006 22.2135 46 21.8597V1.1414C46 0.787164 46.2873 0.5 46.6417 0.5Z" fill="white"/>
<path d="M59.6922 5.92907H54.6497C54.293 5.92908 54.003 5.6457 54 5.29419V1.1414C54 0.787588 54.2907 0.5006 54.6497 0.5H71.3503C71.7093 0.5006 72 0.787588 72 1.1414V5.29419C72 5.64782 71.7091 5.9345 71.3503 5.9345H66.4313C66.2533 5.93799 66.1099 6.07972 66.107 6.2552V21.8597C66.107 22.2133 65.8161 22.5 65.4573 22.5H60.6718C60.3128 22.5 60.0216 22.2135 60.021 21.8597V6.24977C60.018 6.07261 59.872 5.93022 59.6922 5.92907Z" fill="white"/>
<path d="M74.6607 0.5H90.0791C90.4441 0.500599 90.7398 0.787475 90.7398 1.14115V5.25535C90.7398 5.4251 90.6701 5.5879 90.5462 5.70794C90.4223 5.82797 90.2543 5.89541 90.0791 5.89541H80.5184C80.3326 5.89541 80.1819 6.04136 80.1819 6.22141V8.61213C80.1819 8.698 80.2176 8.78027 80.2809 8.84037C80.3442 8.90048 80.4298 8.93336 80.5184 8.93161H89.3948C89.7599 8.93221 90.0555 9.21909 90.0555 9.57276V13.2143C90.0555 13.5677 89.7597 13.8543 89.3948 13.8543H80.5184C80.3352 13.8543 80.1856 13.9963 80.1819 14.1738V16.8786C80.1856 17.0561 80.3352 17.1981 80.5184 17.198H90.3393C90.7044 17.1986 91 17.4855 91 17.8392V21.8599C91 22.2134 90.7042 22.5 90.3393 22.5H74.6607C74.2958 22.5 74 22.2134 74 21.8599V1.14115C73.9997 0.971203 74.0692 0.808123 74.1931 0.687853C74.3171 0.567584 74.4853 0.5 74.6607 0.5Z" fill="white"/>
<path d="M105.484 0.5C98.5594 0.5 93 5.66385 93 12.0154C93 18.3669 98.5594 23.5 105.484 23.5C112.441 23.5 118 18.3636 118 12.0154C118 5.66714 112.441 0.5 105.484 0.5ZM105.484 18.0791C103.844 18.0837 102.27 17.4466 101.111 16.3088C99.9514 15.171 99.3023 13.6265 99.3074 12.0176C99.3074 8.73249 102.071 5.92534 105.484 5.92534C108.897 5.92534 111.694 8.76435 111.694 12.0176C111.699 15.3016 108.877 18.0791 105.489 18.0791H105.484Z" fill="white"/>
<path d="M12.0849 0.5C15.533 0.5 18.6197 1.98494 20.8257 4.35267C20.9454 4.48373 21.0067 4.65851 20.9954 4.83635C20.984 5.01418 20.9009 5.17956 20.7655 5.29401L17.635 7.94017C17.3799 8.15264 17.0069 8.13643 16.7708 7.9026C15.52 6.66436 13.8407 5.96542 12.0882 5.95362C8.7485 5.95362 6.04519 8.52022 6.04519 12.016C6.04519 15.5118 8.7485 18.0475 12.0882 18.0475C13.8406 18.0352 15.5197 17.3364 16.7708 16.0985C17.0066 15.8643 17.3796 15.8477 17.635 16.0598L20.7677 18.706C20.9035 18.8201 20.987 18.9854 20.9986 19.1634C21.0102 19.3413 20.9489 19.5163 20.829 19.6473C18.623 22.0151 15.5363 23.5 12.0882 23.5C5.40661 23.5 0 18.6563 0 12.016C0 5.37577 5.40661 0.5 12.0849 0.5Z" fill="white"/>
</svg>
