<svg width="55" height="55" viewBox="0 0 55 55" fill="none" xmlns="http://www.w3.org/2000/svg">
<path d="M15 6.2069C15 2.77892 17.7789 0 21.2069 0H35C46.0457 0 55 8.95431 55 20C55 31.0457 46.0457 40 35 40H21.2069C17.7789 40 15 37.2211 15 33.7931V6.2069Z" fill="url(#paint0_linear_501_36834)"/>
<path fill-rule="evenodd" clip-rule="evenodd" d="M47.0019 36C46.5306 36.3541 46.0432 36.6879 45.5408 37H44C43.7239 37 43.5 36.7761 43.5 36.5C43.5 36.2239 43.7239 36 44 36H47.0019ZM49.2829 34C48.9438 34.3458 48.5923 34.6794 48.2291 35H44C43.7239 35 43.5 34.7761 43.5 34.5C43.5 34.2239 43.7239 34 44 34H49.2829ZM51.0015 32C50.7446 32.342 50.477 32.6755 50.1992 33H44C43.7239 33 43.5 32.7761 43.5 32.5C43.5 32.2239 43.7239 32 44 32H51C51.0005 32 51.001 32 51.0015 32ZM16.5 11.5C16.7761 11.5 17 11.2761 17 11V4C17 3.72386 16.7761 3.5 16.5 3.5C16.2239 3.5 16 3.72386 16 4V11C16 11.2761 16.2239 11.5 16.5 11.5ZM18.5 11.5C18.7761 11.5 19 11.2761 19 11V4C19 3.72386 18.7761 3.5 18.5 3.5C18.2239 3.5 18 3.72386 18 4V11C18 11.2761 18.2239 11.5 18.5 11.5ZM20.5 11.5C20.7761 11.5 21 11.2761 21 11V4C21 3.72386 20.7761 3.5 20.5 3.5C20.2239 3.5 20 3.72386 20 4V11C20 11.2761 20.2239 11.5 20.5 11.5ZM22.5 11.5C22.7761 11.5 23 11.2761 23 11V4C23 3.72386 22.7761 3.5 22.5 3.5C22.2239 3.5 22 3.72386 22 4V11C22 11.2761 22.2239 11.5 22.5 11.5ZM24.5 11.5C24.7761 11.5 25 11.2761 25 11V4C25 3.72386 24.7761 3.5 24.5 3.5C24.2239 3.5 24 3.72386 24 4V11C24 11.2761 24.2239 11.5 24.5 11.5ZM26.5 11.5C26.7761 11.5 27 11.2761 27 11V4C27 3.72386 26.7761 3.5 26.5 3.5C26.2239 3.5 26 3.72386 26 4V11C26 11.2761 26.2239 11.5 26.5 11.5ZM28.5 11.5C28.7761 11.5 29 11.2761 29 11V4C29 3.72386 28.7761 3.5 28.5 3.5C28.2239 3.5 28 3.72386 28 4V11C28 11.2761 28.2239 11.5 28.5 11.5ZM30.5 11.5C30.7761 11.5 31 11.2761 31 11V4C31 3.72386 30.7761 3.5 30.5 3.5C30.2239 3.5 30 3.72386 30 4V11C30 11.2761 30.2239 11.5 30.5 11.5ZM32 11C32 11.2761 32.2239 11.5 32.5 11.5C32.7005 11.5 32.8683 11.3433 32.8748 11.1429L33.1007 4.13043C33.1117 3.78777 32.8428 3.5 32.5 3.5C32.2239 3.5 32 3.72386 32 4V11ZM33.9425 11.5933C34.1397 11.619 34.3236 11.4864 34.3558 11.2901L35.4909 4.36462C35.5465 4.02565 35.3184 3.705 34.9778 3.66055C34.6372 3.6161 34.3313 3.86715 34.298 4.20902L33.6183 11.1939C33.599 11.3919 33.7452 11.5675 33.9425 11.5933ZM35.3516 11.8722C35.543 11.9234 35.7425 11.8166 35.8 11.6269L37.835 4.90991C37.9347 4.58082 37.7502 4.23251 37.4181 4.14369C37.0859 4.05487 36.7497 4.26404 36.6719 4.59898L35.0838 11.4354C35.0389 11.6285 35.1601 11.821 35.3516 11.8722ZM36.7101 12.3333C36.8934 12.4093 37.1057 12.3298 37.1877 12.1491L40.0879 5.75839C40.2301 5.4452 40.0927 5.07546 39.775 4.94369C39.4573 4.81193 39.0967 4.97523 38.9755 5.2971L36.5023 11.8649C36.4324 12.0505 36.5269 12.2573 36.7101 12.3333ZM37.9982 12.9698C38.1702 13.0693 38.3917 13.0182 38.4968 12.8495L42.2085 6.89323C42.3901 6.60168 42.3021 6.21744 42.0048 6.04539C41.7074 5.87335 41.3293 5.98794 41.1671 6.29076L37.8535 12.4773C37.7597 12.6525 37.8261 12.8702 37.9982 12.9698ZM39.1946 13.7708C39.3524 13.8921 39.5792 13.8703 39.7056 13.7165L44.161 8.29379C44.3788 8.02869 44.3413 7.63654 44.0693 7.42748C43.7972 7.21841 43.4081 7.2828 43.2081 7.56152L39.1153 13.2629C38.9992 13.4246 39.0367 13.6494 39.1946 13.7708ZM40.2782 14.7218C40.4191 14.8627 40.647 14.8706 40.7924 14.7344L45.9138 9.93578C46.164 9.70127 46.1776 9.3075 45.935 9.06497C45.6925 8.82245 45.2987 8.83595 45.0642 9.08624L40.2656 14.2076C40.1294 14.353 40.1373 14.5809 40.2782 14.7218ZM41.2292 15.8054C41.3506 15.9633 41.5754 16.0008 41.7371 15.8847L47.4385 11.7919C47.7172 11.5919 47.7816 11.2028 47.5725 10.9307C47.3635 10.6587 46.9713 10.6212 46.7062 10.839L41.2835 15.2944C41.1297 15.4208 41.1079 15.6476 41.2292 15.8054ZM42.0302 17.0018C42.1298 17.1739 42.3475 17.2403 42.5227 17.1465L48.7092 13.8329C49.0121 13.6707 49.1267 13.2926 48.9546 12.9952C48.7826 12.6979 48.3983 12.6099 48.1068 12.7915L42.1505 16.5032C41.9818 16.6083 41.9307 16.8298 42.0302 17.0018ZM42.6667 18.2899C42.7427 18.4731 42.9495 18.5676 43.1351 18.4977L49.7029 16.0245C50.0248 15.9032 50.1881 15.5427 50.0563 15.225C49.9245 14.9073 49.5548 14.7699 49.2416 14.912L42.8509 17.8123C42.6702 17.8943 42.5907 18.1066 42.6667 18.2899ZM43.1278 19.6484C43.179 19.8399 43.3715 19.9611 43.5646 19.9162L50.401 18.3281C50.736 18.2503 50.9451 17.9141 50.8563 17.5819C50.7675 17.2498 50.4192 17.0653 50.0901 17.165L43.3731 19.2C43.1834 19.2575 43.0766 19.457 43.1278 19.6484ZM43.4067 21.0575C43.4325 21.2548 43.6081 21.401 43.8061 21.3817L50.791 20.702C51.1329 20.6687 51.3839 20.3628 51.3395 20.0222C51.295 19.6816 50.9743 19.4535 50.6354 19.5091L43.7099 20.6442C43.5136 20.6764 43.381 20.8603 43.4067 21.0575ZM43.8571 22.1252C43.6567 22.1317 43.5 22.2994 43.5 22.5C43.5 22.7761 43.7239 23 44 23H51C51.2761 23 51.5 22.7761 51.5 22.5C51.5 22.1572 51.2122 21.8883 50.8696 21.8993L43.8571 22.1252ZM43.5 24.5C43.5 24.7761 43.7239 25 44 25H51C51.2761 25 51.5 24.7761 51.5 24.5C51.5 24.2239 51.2761 24 51 24H44C43.7239 24 43.5 24.2239 43.5 24.5ZM43.5 26.5C43.5 26.7761 43.7239 27 44 27H51C51.2761 27 51.5 26.7761 51.5 26.5C51.5 26.2239 51.2761 26 51 26H44C43.7239 26 43.5 26.2239 43.5 26.5ZM43.5 28.5C43.5 28.7761 43.7239 29 44 29H51C51.2761 29 51.5 28.7761 51.5 28.5C51.5 28.2239 51.2761 28 51 28H44C43.7239 28 43.5 28.2239 43.5 28.5ZM43.5 30.5C43.5 30.7761 43.7239 31 44 31H51C51.2761 31 51.5 30.7761 51.5 30.5C51.5 30.2239 51.2761 30 51 30H44C43.7239 30 43.5 30.2239 43.5 30.5Z" fill="#1D2132" style="mix-blend-mode:overlay"/>
<path d="M0 24C0 19.0294 4.02944 15 9 15H31C35.9706 15 40 19.0294 40 24V46C40 50.9706 35.9706 55 31 55H24C10.7452 55 0 44.2548 0 31V24Z" fill="#D9D9D9"/>
<path d="M0 24C0 19.0294 4.02944 15 9 15H31C35.9706 15 40 19.0294 40 24V46C40 50.9706 35.9706 55 31 55H24C10.7452 55 0 44.2548 0 31V24Z" fill="url(#paint1_linear_501_36834)"/>
<path fill-rule="evenodd" clip-rule="evenodd" d="M37.7411 51.963C38.0377 51.6279 38.3096 51.2703 38.5541 50.8931C37.879 50.9638 37.1937 51 36.5 51H23.5C12.7304 51 4 42.2696 4 31.5V16.5163C3.64824 16.7515 3.31414 17.0107 3 17.2918V31.5C3 42.8218 12.1782 52 23.5 52H36.5C36.9167 52 37.3306 51.9876 37.7411 51.963ZM5 15.9371V31.5C5 41.7173 13.2827 50 23.5 50H36.5C37.4011 50 38.2872 49.9356 39.1539 49.8111C39.3168 49.4626 39.4581 49.1019 39.5762 48.7305C38.5775 48.9076 37.5495 49 36.5 49H23.5C13.835 49 6 41.165 6 31.5V15.5142C5.65648 15.6356 5.32269 15.777 5 15.9371ZM7 15.2249V31.5C7 40.6127 14.3873 48 23.5 48H36.5C37.6462 48 38.7651 47.8831 39.8455 47.6606C39.856 47.6048 39.8659 47.5487 39.8754 47.4925C39.9198 47.2283 39.9484 46.9456 39.9668 46.6108C38.8522 46.8655 37.6918 47 36.5 47H23.5C14.9396 47 8 40.0604 8 31.5V15.0615C7.82486 15.0778 7.66299 15.0985 7.50753 15.1246C7.33664 15.1533 7.16741 15.1868 7 15.2249ZM9 15.011V31.5C9 39.5081 15.4919 46 23.5 46H36.5C37.7052 46 38.8761 45.853 39.9956 45.5759C39.9988 45.2715 39.9997 44.9302 39.9999 44.5419C38.8837 44.8407 37.7105 45 36.5 45H23.5C16.0442 45 10 38.9558 10 31.5V15.0008C9.62102 15.002 9.29195 15.0046 9 15.011ZM11 15V31.5C11 38.4036 16.5964 44 23.5 44H36.5C37.7149 44 38.8894 43.8267 40 43.5034V42.4577C38.8964 42.8099 37.7204 43 36.5 43H23.5C17.1487 43 12 37.8513 12 31.5V15H11Z" fill="#1D2132" style="mix-blend-mode:overlay"/>
<path d="M40 39.3699C38.4019 39.7812 36.7265 40 35 40C33.0148 40 31.1774 40 29.4879 40C24.3655 40 21.8042 40 19.8537 38.9869C18.21 38.1332 16.8698 36.7931 16.0158 35.1495C15.0025 33.1991 15.0021 30.6367 15.0014 25.512L15 15L25.51 15C30.6354 15 33.1981 15 35.1488 16.0133C36.7926 16.8672 38.1328 18.2074 38.9867 19.8512C40 21.8019 40 24.3648 40 29.4905C40 33.3344 40 37.0547 40 39.3699Z" fill="url(#paint2_linear_501_36834)"/>
<circle cx="27.5" cy="27.5" r="4.5" fill="#AAAAAA"/>
<defs>
<linearGradient id="paint0_linear_501_36834" x1="24" y1="30" x2="55" y2="8" gradientUnits="userSpaceOnUse">
<stop stop-color="#EEEEEE"/>
<stop offset="1" stop-color="#AAAAAA"/>
</linearGradient>
<linearGradient id="paint1_linear_501_36834" x1="4.25" y1="50" x2="40" y2="23" gradientUnits="userSpaceOnUse">
<stop stop-color="#AAAAAA"/>
<stop offset="1" stop-color="#EEEEEE"/>
</linearGradient>
<linearGradient id="paint2_linear_501_36834" x1="8" y1="36.5" x2="39.3093" y2="6.8727" gradientUnits="userSpaceOnUse">
<stop stop-color="white"/>
<stop offset="1" stop-color="white"/>
</linearGradient>
</defs>
</svg>
