<svg width="259" height="40" viewBox="0 0 259 40" fill="none" xmlns="http://www.w3.org/2000/svg">
<g clip-path="url(#clip0_598_4921)">
<path d="M50.333 11.029V20.2405H62.4638V22.3951H50.333V32.3423H47.8541V8.8877H63.9406V11.029H50.333Z" fill="white"/>
<path d="M69.0935 8.8877H71.5724V32.3318H69.0935V8.8877Z" fill="white"/>
<path d="M93.1574 32.3318L87.7987 24.7949C87.1761 24.8642 86.5501 24.8977 85.9237 24.8951H79.6262V32.3318H77.1473V8.8877H85.9343C91.8942 8.8877 95.5123 11.9019 95.5123 16.9257C95.5123 20.6176 93.5687 23.1888 90.1537 24.2938L95.8815 32.3318H93.1574ZM93.0229 16.9257C93.0229 13.173 90.544 11.029 85.8551 11.029H79.6262V22.7854H85.8551C90.544 22.7854 93.0229 20.6097 93.0229 16.9257Z" fill="white"/>
<path d="M99.7871 29.4839L100.76 27.5746C102.435 29.2175 105.415 30.4227 108.495 30.4227C112.883 30.4227 114.792 28.5767 114.792 26.2692C114.792 19.8399 100.357 23.7903 100.357 15.1168C100.357 11.6675 103.036 8.6875 108.999 8.6875C111.636 8.6875 114.392 9.45754 116.267 10.7629L115.428 12.7381C113.512 11.4942 111.283 10.8194 108.999 10.7919C104.711 10.7919 102.812 12.7038 102.812 15.0509C102.812 21.4802 117.248 17.5957 117.248 26.1268C117.248 29.5762 114.502 32.5245 108.505 32.5245C104.98 32.5324 101.53 31.293 99.7871 29.4839Z" fill="white"/>
<path d="M127.519 11.029H119.281V8.8877H138.237V11.029H129.998V32.3318H127.519V11.029Z" fill="white"/>
<path d="M144.584 20.3511C144.584 13.4023 150.046 8.30469 157.459 8.30469C164.872 8.30469 170.322 13.4023 170.322 20.3511C170.322 27.2999 164.861 32.3975 157.448 32.3975C150.035 32.3975 144.584 27.3026 144.584 20.3511ZM163.714 20.3511C163.714 16.3453 160.966 13.7319 157.459 13.7319C153.951 13.7319 151.203 16.3453 151.203 20.3511C151.203 24.3569 153.951 26.9703 157.459 26.9703C160.966 26.9703 163.714 24.3569 163.714 20.3511Z" fill="white"/>
<path d="M183.901 25.7787H180.328V31.9364H173.774V8.7666H184.365C190.694 8.7666 194.65 12.0446 194.65 17.3399C194.65 20.7497 192.996 23.2655 190.117 24.6553L195.111 31.9364H188.105L183.901 25.7787ZM183.967 13.9301H180.328V20.7154H183.967C186.683 20.7154 188.039 19.4575 188.039 17.3399C188.039 15.2223 186.673 13.9301 183.967 13.9301Z" fill="white"/>
<path d="M198.927 8.7666H205.481V31.9364H198.927V8.7666Z" fill="white"/>
<path d="M208.297 20.3511C208.297 13.4023 213.759 8.30469 221.172 8.30469C228.585 8.30469 234.046 13.4023 234.046 20.3511C234.046 27.2999 228.587 32.3975 221.172 32.3975C213.756 32.3975 208.297 27.3026 208.297 20.3511ZM227.427 20.3511C227.427 16.3453 224.682 13.7319 221.172 13.7319C217.662 13.7319 214.916 16.3453 214.916 20.3511C214.916 24.3569 217.664 26.9703 221.172 26.9703C224.679 26.9703 227.422 24.3569 227.422 20.3511H227.427Z" fill="white"/>
<path d="M258.864 8.7666V31.9364H253.469L243.242 19.5894V31.9364H236.82V8.7666H242.216L252.443 21.1136V8.7666H258.864Z" fill="white"/>
<path d="M17.849 0.34082H20.5019C20.5758 0.34082 20.6496 0.361917 20.7261 0.364554C21.7361 0.412022 22.7461 0.435757 23.7535 0.509596C24.8664 0.591347 25.9793 0.696832 27.0842 0.833963C28.2727 0.985158 29.4568 1.16097 30.6364 1.36139C32.3057 1.64884 33.9355 2.11824 35.5758 2.53227C35.6133 2.53691 35.6476 2.55605 35.6713 2.58562C35.6949 2.61518 35.7061 2.65282 35.7024 2.6905C35.7024 2.97267 35.734 3.25748 35.7366 3.54229C35.7551 4.59715 35.763 5.652 35.7788 6.72531C35.7788 6.82025 35.7947 6.91518 35.8026 7.01012V9.05126C35.8026 9.12773 35.7788 9.20157 35.7762 9.27805C35.7323 10.5569 35.6196 11.8325 35.4386 13.0992C35.1551 15.1398 34.6936 17.1517 34.0594 19.1119C33.0082 22.3953 31.478 25.5054 29.5183 28.3419C28.1863 30.2941 26.669 32.1134 24.9877 33.7743C24.9165 33.8429 24.8664 33.8983 24.7451 33.8403C18.992 31.2132 14.2789 26.7432 11.3511 21.1372C10.6317 19.7069 9.9994 18.2345 9.45766 16.7279C9.08582 15.8023 8.78783 14.8529 8.46082 13.9141C8.445 13.8614 8.42127 13.8113 8.39226 13.7401L5.33055 14.5101C7.62485 24.3387 13.1918 31.6066 22.0288 36.3983L21.9049 36.4985C20.7462 37.3996 19.5354 38.2317 18.2789 38.9906C18.2346 39.0202 18.1932 39.0538 18.1549 39.0908H18.0916C18.0468 39.0591 18.0046 39.0249 17.9571 38.9959C12.3977 35.6592 7.8387 30.8879 4.7583 25.1826C3.1037 22.1412 1.90507 18.8732 1.20081 15.4832C0.937096 14.22 0.747223 12.9489 0.604818 11.6673C0.591633 11.5513 0.652286 11.5302 0.7314 11.5011C2.50851 10.867 4.31739 10.3257 6.1507 9.87931L7.49036 9.56286L6.85745 6.46687C4.6238 6.89672 2.45081 7.52172 0.264628 8.16518C0.232983 7.86719 0.198701 7.57446 0.172329 7.28174C0.138047 6.88881 0.109038 6.4906 0.0773926 6.10031V4.91096C0.0889783 4.86762 0.0977867 4.82358 0.103764 4.77911C0.148595 4.31497 0.193426 3.8482 0.232983 3.38407C0.230181 3.33231 0.246293 3.2813 0.278315 3.24055C0.310337 3.19979 0.356085 3.17207 0.407034 3.16255C3.25483 2.27308 6.16327 1.59092 9.10956 1.12141C10.676 0.886706 12.2451 0.678372 13.8247 0.564976C15.1117 0.472676 16.4012 0.427846 17.6881 0.361917C17.7409 0.35928 17.7936 0.346095 17.849 0.34082ZM16.1876 21.1003L16.1665 21.1609C18.1458 24.2304 20.7902 26.8153 23.9038 28.7242C23.9381 28.6873 23.9619 28.6636 23.983 28.6372C24.5658 27.8856 25.1749 27.1551 25.7208 26.3798C27.6982 23.5798 29.2004 20.4729 30.167 17.1842C30.6243 15.6685 30.9568 14.118 31.1612 12.5481C31.2825 11.5724 31.3616 10.5887 31.4249 9.60769C31.4869 8.47617 31.4816 7.34196 31.4091 6.21107C31.4117 6.18532 31.4088 6.15932 31.4007 6.13474C31.3926 6.11017 31.3794 6.08758 31.362 6.06843C31.3446 6.04928 31.3234 6.03401 31.2997 6.0236C31.276 6.01319 31.2504 6.00788 31.2245 6.00801C30.1459 5.82341 29.0673 5.62299 27.9861 5.45158C26.2754 5.18494 24.5519 5.00889 22.8226 4.92415C21.4487 4.85558 20.0721 4.82658 18.6955 4.81866C17.7013 4.81866 16.7045 4.84767 15.7103 4.90833C14.5605 4.97689 13.4134 5.09029 12.2662 5.19314C11.8522 5.22742 11.4408 5.29071 11.0215 5.34345C11.0215 5.39092 11.0215 5.4252 11.0215 5.45949C11.2298 6.58818 11.4408 7.71423 11.6412 8.84292C11.6649 8.97478 11.7177 8.9906 11.8337 8.97478C12.4719 8.8983 13.1127 8.806 13.7535 8.75853C14.9798 8.6636 16.2034 8.56602 17.4455 8.52383C18.6111 8.48427 19.782 8.5001 20.9503 8.52383C21.7862 8.53965 22.6248 8.59503 23.4582 8.6636C24.3891 8.73744 25.3042 8.84028 26.2456 8.94577C26.8469 9.0117 27.4429 9.10927 28.0415 9.19102C28.118 9.19102 28.1575 9.22794 28.147 9.31761C28.1312 9.47583 28.147 9.63406 28.1127 9.78965C27.9668 10.8181 27.8173 11.8466 27.6644 12.8751C27.6354 13.0676 27.5879 13.2575 27.5484 13.4526C22.6879 12.6524 17.7379 12.5521 12.849 13.1546C12.8675 13.2153 12.8727 13.2548 12.8859 13.2918C13.3149 14.5084 13.7456 15.7223 14.1781 16.9336C14.1919 16.9566 14.2112 16.9759 14.2342 16.9897C14.2572 17.0035 14.2832 17.0114 14.31 17.0127C15.2963 16.9442 16.2825 16.8545 17.2715 16.7991C18.8804 16.7108 20.4935 16.7293 22.1001 16.8545C23.3395 16.9495 24.5737 17.1182 25.8105 17.2395C26.0426 17.2633 26.2773 17.3107 26.5093 17.3477C26.5116 17.3687 26.5116 17.3899 26.5093 17.411C26.0442 18.7537 25.4819 20.0608 24.8268 21.3218C24.8145 21.3518 24.7915 21.3761 24.7623 21.3903C24.7331 21.4044 24.6998 21.4072 24.6686 21.3983C24.2915 21.3482 23.9144 21.2954 23.5346 21.2585C22.1709 21.1121 20.8003 21.0382 19.4286 21.037C18.3395 21.0396 17.2636 21.0766 16.1876 21.1003Z" fill="white"/>
</g>
<defs>
<clipPath id="clip0_598_4921">
<rect width="258.983" height="40" fill="white" transform="translate(0.000244141)"/>
</clipPath>
</defs>
</svg>
