<svg class="navbar_logo__2T6AF" width="197" height="44" viewBox="0 0 197 44" fill="none" xmlns="http://www.w3.org/2000/svg"><path d="M23.0039 2.43485C23.4822 1.59784 24.4389 1 25.3956 1C26.4719 1 27.309 1.59784 27.7873 2.43485" stroke="white" stroke-width="2" stroke-miterlimit="10" stroke-linecap="round" stroke-linejoin="round"></path><path d="M5.78341 41.8939C5.30507 42.4918 4.58755 42.731 3.75046 42.731C2.19585 42.731 1 41.5352 1 39.9808C1 39.5025 1.11958 39.1438 1.35875 38.6655" stroke="white" stroke-width="2" stroke-miterlimit="10" stroke-linecap="round" stroke-linejoin="round"></path><path d="M48.9531 38.4263C49.3119 38.9046 49.4315 39.3828 49.4315 39.9807C49.4315 41.5352 48.2356 42.7309 46.681 42.7309C46.0831 42.7309 45.4852 42.4918 45.0068 42.133" stroke="white" stroke-width="2" stroke-miterlimit="10" stroke-linecap="round" stroke-linejoin="round"></path><path d="M23.0038 2.43506L1.23926 38.7852" stroke="white" stroke-width="2" stroke-miterlimit="10" stroke-linecap="round" stroke-linejoin="round"></path><path d="M27.9062 2.43506L49.0728 38.6657" stroke="white" stroke-width="2" stroke-miterlimit="10" stroke-linecap="round" stroke-linejoin="round"></path><path d="M41.6591 26.1102C36.1582 18.338 25.7543 24.0775 17.6225 30.5344C11.1649 35.7956 5.78354 42.0134 5.78354 42.0134C5.66396 42.133 5.90313 41.8938 5.78354 42.0134C17.7421 35.5565 33.049 35.9152 45.0075 42.3721" stroke="white" stroke-width="2" stroke-miterlimit="10" stroke-linecap="round" stroke-linejoin="round"></path><path d="M44.8879 42.2526C44.8879 42.2526 29.9398 28.2625 17.5029 30.5344" stroke="white" stroke-width="2" stroke-miterlimit="10" stroke-linecap="round" stroke-linejoin="round"></path><path d="M63.6631 31.2523V12.1206H67.3702V27.6651H76.5783V31.2523H63.6631Z" fill="white"></path><path d="M86.8625 31.2521V30.2956C86.0254 31.1326 84.8296 31.6108 83.275 31.6108C81.7204 31.6108 80.5245 31.2521 79.5678 30.4151C78.6111 29.5781 78.1328 28.502 78.1328 27.0671C78.1328 25.5126 78.7307 24.4365 79.807 23.5995C80.8833 22.7625 82.1987 22.4037 83.7533 22.4037C84.9492 22.4037 86.0254 22.6429 86.9821 23.0016V22.2842C86.9821 20.8493 86.145 20.1319 84.4708 20.1319C82.9162 20.1319 81.4812 20.6101 80.1658 21.5667L79.0895 18.697C80.7637 17.6208 82.5575 17.0229 84.8296 17.0229C85.5471 17.0229 86.2646 17.1425 86.8625 17.2621C87.4605 17.3816 88.0584 17.6208 88.6563 17.9795C89.2542 18.3382 89.7326 18.8165 90.0913 19.6535C90.4501 20.4905 90.5697 21.3276 90.5697 22.5233V31.3717H86.8625V31.2521ZM83.9925 28.502C85.0688 28.502 86.0254 28.1433 86.8625 27.3062V25.7518C86.145 25.3931 85.1883 25.2735 84.2317 25.2735C83.3946 25.2735 82.7966 25.393 82.3183 25.6322C81.84 25.8713 81.6008 26.3496 81.6008 26.8279C81.6008 27.3062 81.84 27.665 82.1987 27.9041C82.6771 28.3824 83.275 28.502 83.9925 28.502Z" fill="white"></path><path d="M102.767 31.252V23.5993C102.767 22.5232 102.528 21.6862 102.169 21.0883C101.811 20.61 101.213 20.3709 100.376 20.3709C98.5819 20.3709 97.7448 21.447 97.7448 23.4798V31.1324H94.1572V17.1424H97.7448V18.4577C98.5819 17.3815 99.8973 16.7837 101.452 16.7837C102.887 16.7837 103.963 17.262 104.92 18.099C105.877 18.936 106.355 20.3709 106.355 22.284V31.0128H102.767V31.252Z" fill="white"></path><path d="M115.444 31.6108C113.65 31.6108 112.215 31.0129 111.259 29.6976C110.182 28.3823 109.704 26.5887 109.704 24.3168C109.704 22.0449 110.302 20.3709 111.378 19.0556C112.455 17.7403 113.89 17.0229 115.564 17.0229C116.879 17.0229 117.836 17.5012 118.553 18.3382V13.1965L122.141 11.6421V31.252H118.553V30.2955C117.836 31.1325 116.76 31.6108 115.444 31.6108ZM115.923 28.1431C116.999 28.1431 117.836 27.7844 118.314 27.067V21.5666C117.716 20.8492 116.999 20.3709 115.923 20.3709C115.085 20.3709 114.368 20.7296 113.89 21.3275C113.411 22.0449 113.172 23.0015 113.172 24.1972C113.172 25.393 113.411 26.3496 113.89 27.067C114.368 27.7844 115.085 28.1431 115.923 28.1431Z" fill="white"></path><path d="M130.631 31.6108C129.555 31.6108 128.479 31.3717 127.402 30.8934C126.326 30.4151 125.609 29.8173 125.011 29.0998L127.402 27.0671C128.359 28.0237 129.435 28.6215 130.631 28.6215C132.066 28.6215 132.784 28.2628 132.784 27.4258C132.784 27.0671 132.545 26.7084 132.186 26.4692C131.827 26.2301 131.11 25.8714 130.153 25.5126C128.479 24.9148 127.283 24.3169 126.565 23.719C125.848 23.0016 125.37 22.1646 125.37 20.9688C125.37 19.7731 125.848 18.8165 126.805 18.0991C127.761 17.3817 128.957 17.0229 130.392 17.0229C132.545 17.0229 134.219 17.7404 135.534 19.2948L133.143 21.208C132.305 20.371 131.349 20.0123 130.392 20.0123C129.196 20.0123 128.598 20.371 128.598 21.0884C128.598 21.6863 129.555 22.2842 131.349 22.7624C132.784 23.2407 133.98 23.8386 134.697 24.4365C135.415 25.0343 135.893 26.1105 135.893 27.3062C135.893 28.6215 135.415 29.6977 134.458 30.4151C133.621 31.2521 132.305 31.6108 130.631 31.6108Z" fill="white"></path><path d="M144.982 31.6108C143.068 31.6108 141.514 31.013 140.318 29.6977C139.122 28.3824 138.644 26.5888 138.644 24.3169C138.644 22.045 139.241 20.2514 140.318 18.9361C141.514 17.6208 143.068 17.0229 144.982 17.0229C147.971 17.0229 149.885 18.3382 150.841 21.0884L147.493 22.1646C147.015 20.9688 146.297 20.371 145.101 20.371C144.264 20.371 143.547 20.7297 143.068 21.4471C142.59 22.1646 142.351 23.1212 142.351 24.3169C142.351 25.5126 142.59 26.4692 143.068 27.1867C143.547 27.9041 144.264 28.2628 145.101 28.2628C146.297 28.2628 147.134 27.5454 147.612 26.2301L150.961 27.1867C150.004 30.0564 148.091 31.6108 144.982 31.6108Z" fill="white"></path><path d="M162.082 31.2521V30.2956C161.245 31.1326 160.049 31.6108 158.495 31.6108C156.94 31.6108 155.744 31.2521 154.788 30.4151C153.831 29.5781 153.353 28.502 153.353 27.0671C153.353 25.5126 153.95 24.4365 155.027 23.5995C156.103 22.7625 157.418 22.4037 158.973 22.4037C160.169 22.4037 161.245 22.6429 162.202 23.0016V22.2842C162.202 20.8493 161.365 20.1319 159.691 20.1319C158.136 20.1319 156.701 20.6101 155.386 21.5667L154.309 18.697C155.983 17.6208 157.777 17.0229 160.049 17.0229C160.767 17.0229 161.484 17.1425 162.082 17.2621C162.68 17.3816 163.278 17.6208 163.876 17.9795C164.474 18.3382 164.952 18.8165 165.311 19.6535C165.67 20.4905 165.789 21.3276 165.789 22.5233V31.3717H162.082V31.2521ZM159.093 28.502C160.169 28.502 161.126 28.1433 161.963 27.3062V25.7518C161.245 25.3931 160.288 25.2735 159.332 25.2735C158.495 25.2735 157.897 25.393 157.418 25.6322C156.94 25.8713 156.701 26.3496 156.701 26.8279C156.701 27.3062 156.94 27.665 157.299 27.9041C157.777 28.3824 158.375 28.502 159.093 28.502Z" fill="white"></path><path d="M175.834 31.6108C174.519 31.6108 173.562 31.1325 172.844 30.2955V35.198L169.257 36.7524V17.3817H172.844V18.3383C173.562 17.5012 174.519 17.0229 175.834 17.0229C177.628 17.0229 178.943 17.6208 180.02 18.9361C181.096 20.2514 181.574 22.045 181.574 24.3169C181.574 26.5888 181.096 28.3824 180.02 29.5781C178.943 30.8934 177.508 31.6108 175.834 31.6108ZM175.356 28.1432C176.193 28.1432 176.91 27.7845 177.389 27.1866C177.867 26.4692 178.106 25.5126 178.106 24.3169C178.106 23.1212 177.867 22.1646 177.389 21.4471C176.91 20.7297 176.193 20.371 175.356 20.371C174.279 20.371 173.442 20.7297 172.964 21.4471V26.9475C173.323 27.7845 174.16 28.1432 175.356 28.1432Z" fill="white"></path><path d="M190.901 31.6109C188.868 31.6109 187.314 31.013 186.118 29.6977C184.922 28.3824 184.324 26.5888 184.324 24.3169C184.324 22.0451 184.922 20.2514 186.118 19.0557C187.314 17.86 188.868 17.1426 190.901 17.1426C192.695 17.1426 194.25 17.7404 195.326 18.8166C196.522 19.8927 197 21.5668 197 23.7191C197 24.5561 197 25.2735 196.881 25.8714H187.792C187.912 26.7084 188.151 27.4258 188.749 27.9041C189.347 28.3824 190.064 28.6215 190.782 28.6215C191.978 28.6215 193.054 28.1433 193.771 27.1867L195.924 29.339C194.728 30.7739 193.054 31.6109 190.901 31.6109ZM187.912 22.6429H193.652C193.532 21.8059 193.293 21.2081 192.815 20.7298C192.336 20.2515 191.738 20.0123 191.021 20.0123C189.108 20.1319 188.151 20.9689 187.912 22.6429Z" fill="white"></path></svg>