<?xml version="1.0" encoding="UTF-8"?>
<svg xmlns="http://www.w3.org/2000/svg" xmlns:xlink="http://www.w3.org/1999/xlink" width="563.75pt" height="161.68pt" viewBox="0 0 563.75 161.68" version="1.1">
<defs>
<clipPath id="clip1">
  <path d="M 445 46 L 538 46 L 538 161.679688 L 445 161.679688 Z M 445 46 "/>
</clipPath>
<clipPath id="clip2">
  <path d="M 543 46 L 563.75 46 L 563.75 67 L 543 67 Z M 543 46 "/>
</clipPath>
</defs>
<g id="surface1">
<path style=" stroke:none;fill-rule:nonzero;fill:#ffffff;fill-opacity:1;" d="M 114.058594 130.863281 L 114.058594 74.035156 C 114.058594 71.234375 111.65625 68.832031 108.855469 68.832031 L 81.640625 68.832031 L 81.640625 131.265625 L 57.226562 131.265625 L 57.226562 74.035156 C 57.226562 71.234375 54.828125 68.832031 52.027344 68.832031 L 24.8125 68.832031 L 24.8125 131.265625 L 0 131.265625 L 0 46.421875 L 24.8125 46.421875 L 24.8125 51.226562 L 63.632812 46.824219 C 66.03125 46.421875 68.035156 46.421875 70.433594 46.421875 C 74.4375 46.023438 78.039062 47.621094 80.039062 50.824219 L 120.460938 46.824219 C 122.859375 46.421875 124.863281 46.421875 127.261719 46.421875 C 134.464844 46.421875 138.46875 50.425781 138.46875 56.828125 L 138.46875 131.265625 L 114.058594 131.265625 L 114.058594 130.863281 "/>
<path style=" stroke:none;fill-rule:nonzero;fill:#ffffff;fill-opacity:1;" d="M 357.375 131.265625 L 357.375 118.058594 L 403 64.832031 L 360.179688 64.832031 L 360.179688 46.824219 L 434.613281 46.824219 L 434.613281 60.03125 L 388.191406 113.257812 L 435.015625 113.257812 L 435.015625 131.265625 L 357.375 131.265625 "/>
<g clip-path="url(#clip1)" clip-rule="nonzero">
<path style=" stroke:none;fill-rule:nonzero;fill:#ffffff;fill-opacity:1;" d="M 491.441406 161.679688 L 465.429688 161.679688 L 479.035156 130.0625 L 445.820312 46.421875 L 472.234375 46.421875 L 491.84375 102.449219 L 511.453125 46.421875 L 537.464844 46.421875 L 491.441406 161.679688 "/>
</g>
<path style=" stroke:none;fill-rule:nonzero;fill:#ffffff;fill-opacity:1;" d="M 221.710938 100.449219 C 221.710938 106.851562 216.507812 112.054688 210.105469 112.054688 L 176.085938 112.054688 L 176.085938 77.636719 C 176.085938 71.234375 181.289062 66.03125 187.691406 66.03125 L 221.710938 66.03125 Z M 187.292969 46.421875 C 170.085938 46.421875 156.078125 60.429688 156.078125 77.636719 L 156.078125 131.664062 L 210.105469 131.664062 C 227.3125 131.664062 241.320312 117.65625 241.320312 100.449219 L 241.320312 46.421875 L 187.292969 46.421875 "/>
<path style=" stroke:none;fill-rule:nonzero;fill:#ffffff;fill-opacity:1;" d="M 209.703125 96.847656 L 209.703125 78.4375 L 191.292969 78.4375 C 189.695312 78.4375 188.492188 79.640625 188.492188 81.238281 L 188.492188 100.050781 L 206.902344 100.050781 C 208.101562 100.050781 209.703125 98.847656 209.703125 96.847656 C 209.703125 97.246094 209.703125 97.246094 209.703125 96.847656 "/>
<path style=" stroke:none;fill-rule:nonzero;fill:#ffffff;fill-opacity:1;" d="M 316.554688 65.230469 L 290.144531 65.230469 C 284.539062 65.230469 282.941406 66.832031 282.941406 72.035156 L 282.941406 105.652344 C 282.941406 110.453125 284.539062 112.054688 288.941406 112.054688 C 290.144531 112.054688 291.746094 112.054688 292.945312 112.054688 L 316.554688 110.054688 Z M 316.554688 130.863281 L 316.554688 126.460938 L 284.941406 130.863281 C 282.539062 131.265625 279.738281 131.664062 277.335938 131.664062 C 265.332031 131.664062 258.527344 125.261719 258.527344 113.65625 L 258.527344 64.832031 C 258.527344 52.027344 264.53125 46.421875 278.539062 46.421875 L 316.15625 46.421875 L 316.15625 0 L 340.570312 0 L 340.570312 130.863281 L 316.554688 130.863281 "/>
<g clip-path="url(#clip2)" clip-rule="nonzero">
<path style=" stroke:none;fill-rule:nonzero;fill:#ffffff;fill-opacity:1;" d="M 553.433594 55.617188 C 553.847656 55.617188 554.238281 55.601562 554.605469 55.574219 C 554.976562 55.550781 555.304688 55.472656 555.59375 55.347656 C 555.878906 55.222656 556.109375 55.027344 556.28125 54.765625 C 556.453125 54.503906 556.539062 54.140625 556.539062 53.671875 C 556.539062 53.277344 556.460938 52.960938 556.308594 52.726562 C 556.15625 52.492188 555.957031 52.3125 555.714844 52.1875 C 555.472656 52.0625 555.191406 51.976562 554.875 51.929688 C 554.5625 51.886719 554.25 51.863281 553.945312 51.863281 L 551.515625 51.863281 L 551.515625 55.617188 Z M 554.242188 50.378906 C 555.644531 50.378906 556.6875 50.65625 557.359375 51.214844 C 558.035156 51.773438 558.375 52.617188 558.375 53.753906 C 558.375 54.816406 558.078125 55.59375 557.484375 56.089844 C 556.886719 56.585938 556.148438 56.878906 555.269531 56.96875 L 558.644531 62.175781 L 556.671875 62.175781 L 553.460938 57.101562 L 551.515625 57.101562 L 551.515625 62.175781 L 549.679688 62.175781 L 549.679688 50.378906 Z M 545.914062 59.679688 C 546.335938 60.734375 546.921875 61.648438 547.667969 62.421875 C 548.414062 63.195312 549.296875 63.800781 550.3125 64.242188 C 551.332031 64.683594 552.433594 64.90625 553.621094 64.90625 C 554.792969 64.90625 555.878906 64.683594 556.886719 64.242188 C 557.894531 63.800781 558.773438 63.195312 559.519531 62.421875 C 560.269531 61.648438 560.851562 60.734375 561.277344 59.679688 C 561.699219 58.628906 561.910156 57.480469 561.910156 56.238281 C 561.910156 55.03125 561.699219 53.90625 561.277344 52.863281 C 560.851562 51.820312 560.269531 50.914062 559.519531 50.148438 C 558.773438 49.382812 557.894531 48.78125 556.886719 48.339844 C 555.878906 47.898438 554.792969 47.679688 553.621094 47.679688 C 552.433594 47.679688 551.332031 47.898438 550.3125 48.339844 C 549.296875 48.78125 548.414062 49.382812 547.667969 50.148438 C 546.921875 50.914062 546.335938 51.820312 545.914062 52.863281 C 545.488281 53.90625 545.277344 55.03125 545.277344 56.238281 C 545.277344 57.480469 545.488281 58.628906 545.914062 59.679688 Z M 544.253906 52.269531 C 544.792969 51.046875 545.527344 49.984375 546.453125 49.082031 C 547.378906 48.183594 548.460938 47.476562 549.691406 46.964844 C 550.925781 46.449219 552.234375 46.195312 553.621094 46.195312 C 555.007812 46.195312 556.3125 46.449219 557.535156 46.964844 C 558.761719 47.476562 559.832031 48.183594 560.75 49.082031 C 561.667969 49.984375 562.394531 51.046875 562.9375 52.269531 C 563.476562 53.492188 563.746094 54.816406 563.746094 56.238281 C 563.746094 57.695312 563.476562 59.039062 562.9375 60.273438 C 562.394531 61.507812 561.667969 62.578125 560.75 63.488281 C 559.832031 64.394531 558.761719 65.101562 557.535156 65.605469 C 556.3125 66.109375 555.007812 66.363281 553.621094 66.363281 C 552.234375 66.363281 550.925781 66.109375 549.691406 65.605469 C 548.460938 65.101562 547.378906 64.394531 546.453125 63.488281 C 545.527344 62.578125 544.792969 61.507812 544.253906 60.273438 C 543.710938 59.039062 543.441406 57.695312 543.441406 56.238281 C 543.441406 54.816406 543.710938 53.492188 544.253906 52.269531 "/>
</g>
</g>
</svg>
