<?xml version="1.0" encoding="UTF-8"?>
<svg xmlns="http://www.w3.org/2000/svg" width="158" height="30" viewBox="0 0 158 30" fill="none">
  <path fill-rule="evenodd" clip-rule="evenodd" d="M156.585 13.2578C157.528 14.2226 158 15.529 158 17.1803V25.8838H154.503V18.1701C154.503 17.197 154.218 16.4292 153.649 15.8634C153.079 15.2998 152.304 15.0175 151.326 15.0175C150.168 15.0341 149.252 15.4175 148.575 16.1635C147.899 16.9105 147.561 17.8658 147.561 19.0296V25.8838H144.09V6.54736H147.561V14.6007C148.54 12.7754 150.258 11.8472 152.714 11.8117C154.352 11.8117 155.642 12.2941 156.585 13.2578ZM136.381 14.8091C135.223 14.8091 134.285 15.1904 133.564 15.9551C132.844 16.7198 132.483 17.7106 132.483 18.9264C132.483 20.1766 132.844 21.1841 133.565 21.9488C134.285 22.7135 135.224 23.0948 136.382 23.0948C138.09 23.0948 139.372 22.5478 140.227 21.4539L142.389 23.199C141.75 24.1016 140.874 24.8218 139.853 25.2847C138.802 25.7713 137.584 26.014 136.194 26.014C134.788 26.014 133.538 25.7192 132.443 25.1285C131.365 24.5537 130.48 23.6892 129.894 22.6385C129.288 21.5706 128.985 20.3423 128.985 18.9525C128.985 17.545 129.293 16.3031 129.907 15.2258C130.498 14.1713 131.387 13.3033 132.47 12.7244C133.564 12.1337 134.824 11.8388 136.248 11.8388C137.547 11.8388 138.709 12.0597 139.733 12.5025C140.756 12.9453 141.588 13.5756 142.23 14.3913L140.12 16.3458C139.158 15.3217 137.913 14.8091 136.382 14.8091H136.381ZM126.776 11.942V25.8838H123.304V23.6689C122.81 24.4139 122.125 25.0205 121.315 25.4285C120.505 25.8369 119.575 26.0401 118.525 26.0401C117.172 26.0401 115.985 25.74 114.96 25.141C113.936 24.5419 113.14 23.6991 112.57 22.6135C112.002 21.5279 111.717 20.2808 111.717 18.8733C111.717 17.4845 112.001 16.2552 112.571 15.1862C113.139 14.1184 113.936 13.288 114.961 12.6983C115.984 12.1076 117.163 11.8117 118.498 11.8117C119.549 11.8117 120.483 12.0159 121.302 12.4243C122.117 12.8294 122.807 13.436 123.304 14.183V11.943H126.776V11.942ZM122.049 22.1707C122.779 21.4841 123.197 20.5767 123.304 19.4473V18.4576C123.197 17.3272 122.779 16.4198 122.05 15.7343C121.319 15.0466 120.394 14.7049 119.272 14.7049C118.08 14.7049 117.11 15.0998 116.362 15.8905C115.615 16.6813 115.231 17.7012 115.215 18.9525C115.231 20.2027 115.615 21.2237 116.362 22.0144C117.11 22.8041 118.08 23.2 119.272 23.2C120.394 23.2 121.319 22.8562 122.049 22.1707ZM108.23 13.7402C109.378 15.0081 109.952 16.7886 109.952 19.0827C109.952 19.5349 109.943 19.8724 109.926 20.0985H99.3785C99.6101 21.0893 100.086 21.8665 100.807 22.4312C101.528 22.9958 102.414 23.2782 103.464 23.2782C104.184 23.2804 104.896 23.1429 105.56 22.8739C106.22 22.6104 106.816 22.2154 107.309 21.7144L109.177 23.6168C108.456 24.3876 107.566 24.9927 106.574 25.3879C105.55 25.8057 104.416 26.014 103.17 26.014C101.711 26.014 100.425 25.7192 99.3121 25.1285C98.2222 24.5599 97.3267 23.6945 96.7354 22.6385C96.1298 21.5706 95.8275 20.3423 95.8275 18.9525C95.8275 17.5627 96.1341 16.3291 96.7493 15.2519C97.3447 14.1928 98.2381 13.3204 99.3249 12.7369C100.429 12.1368 101.683 11.8378 103.089 11.8378C105.369 11.8378 107.082 12.4733 108.23 13.7402ZM106.775 17.8315C106.739 16.8063 106.392 15.9905 105.734 15.3821C105.075 14.7737 104.203 14.4695 103.117 14.4695C102.102 14.4695 101.252 14.7695 100.566 15.3696C99.8812 15.9687 99.4589 16.7886 99.2992 17.8315H106.775ZM92.0557 12.5546C92.8831 12.0764 93.8489 11.8295 94.9529 11.8117V15.0956C93.4737 15.0081 92.2958 15.3425 91.4147 16.0989C90.5336 16.8542 90.0931 17.8752 90.0931 19.1598V25.8838H86.6225V11.942H90.0931V14.6257C90.5733 13.7235 91.2282 13.0317 92.0546 12.5546H92.0557ZM84.0222 25.0222C82.8828 25.6994 81.6898 26.039 80.4443 26.039C79.216 26.039 78.2095 25.6869 77.4271 24.9836C76.6436 24.2794 76.2523 23.2417 76.2523 21.8696V8.68416L79.6962 8.2841V12.515H83.781V14.9914H79.6973V21.2716C79.6973 21.9144 79.8205 22.3707 80.0703 22.6395C80.32 22.9094 80.6919 23.0438 81.1914 23.0438C81.7252 23.0438 82.4026 22.8521 83.2204 22.4697L84.0222 25.0232V25.0222ZM69.8213 11.942H73.2651V19.7568C73.2651 24.3179 70.0024 26.014 66.6925 26.014C63.3816 26.014 60.12 24.3179 60.12 19.7568V11.943H63.5649V19.8776C63.5649 21.6258 64.9015 23.0438 66.6925 23.0438C68.4836 23.0438 69.8202 21.6269 69.8202 19.8776V11.942H69.8213ZM52.9836 8.63207C54.471 9.41682 55.7119 10.5787 56.5743 11.9941C57.4478 13.4183 57.883 14.9998 57.883 16.7375C57.883 18.4743 57.4478 20.0599 56.5753 21.4925C55.7125 22.9174 54.4726 24.0916 52.9847 24.893C51.4626 25.7265 49.7755 26.1432 47.9245 26.1432C46.0723 26.1432 44.3874 25.7265 42.8653 24.893C41.3769 24.0919 40.1366 22.9176 39.2736 21.4925C38.4011 20.0599 37.9648 18.4743 37.9648 16.7375C37.9648 14.9998 38.4011 13.4183 39.2725 11.9941C40.1351 10.5784 41.3764 9.41658 42.8643 8.63207C44.3863 7.81632 46.0723 7.40792 47.9234 7.40792C49.7755 7.40792 51.4616 7.81632 52.9836 8.63207ZM44.8 11.3565C43.8352 11.8898 43.0336 12.6628 42.4773 13.5964C41.9071 14.5445 41.6231 15.5905 41.6231 16.7375C41.6231 17.8836 41.9125 18.9358 42.4913 19.8901C43.0514 20.8282 43.852 21.6093 44.815 22.1572C45.7851 22.7135 46.8387 22.9906 47.9791 22.9906C49.0792 22.9963 50.1597 22.708 51.1025 22.1572C52.0553 21.6096 52.8427 20.8277 53.3855 19.8901C53.9477 18.93 54.238 17.8422 54.2269 16.7375C54.2269 15.5915 53.9461 14.5445 53.3855 13.5975C52.8417 12.6674 52.0539 11.8942 51.1025 11.3565C50.157 10.813 49.0776 10.529 47.9791 10.5345C46.8634 10.5286 45.7663 10.8124 44.8011 11.3565H44.8Z" fill="white"></path>
  <path fill-rule="evenodd" clip-rule="evenodd" d="M14.2706 0C19.185 0 26.6108 1.47107 30.0675 4.84453C30.9432 5.69987 32.089 7.37514 32.089 9.82866C32.089 14.1908 28.4876 20.8836 24.511 24.7654C22.4552 26.772 19.185 29.3943 14.7861 29.3943C10.4859 29.3943 7.20175 26.5438 6.25102 25.6156C2.60888 22.0608 0 16.6652 0 11.6342C0 8.45969 0.927149 5.6832 3.29272 3.37554C5.48358 1.2377 9.25863 0 14.2706 0ZM20.5321 17.5745C22.1913 15.9545 22.6383 13.9594 22.6383 12.8613C22.6383 12.0653 22.4239 10.8974 21.4035 9.90247C19.8386 8.37514 18.1054 7.94382 16.22 7.94382C13.832 7.94382 12.2274 8.6804 11.1588 9.72431C10.3206 10.5422 9.59603 11.7996 9.59603 13.5864C9.59603 15.3721 10.5714 17.0974 11.6347 18.134C12.6165 19.0925 14.16 19.802 15.7141 19.802C17.2683 19.802 18.8729 19.1946 20.5321 17.5745Z" fill="white"></path>
</svg>
