<svg width="103" height="40" viewBox="0 0 103 40" class="img" fill="none" xmlns="http://www.w3.org/2000/svg">
    <path d="M96.4712 28.934C94.5245 28.934 93.5229 30.2162 93.3671 30.411C92.8752 29.483 91.9726 28.934 90.7869 28.934C89.0738 28.934 88.097 29.9293 87.9377 30.0922C87.8669 29.8265 87.5165 29.0969 86.4087 29.0969C86.0901 29.0969 85.6194 29.1996 85.584 29.2067C85.63 29.4157 85.8388 30.4287 85.8388 31.8278V37.9873H88.0899V31.7073C88.1359 31.6684 88.9783 30.8148 89.9905 30.8148C91.0028 30.8148 91.5089 31.5727 91.5089 32.607V37.9873H93.7706V31.7073C93.8166 31.6648 94.6413 30.8148 95.6713 30.8148C96.7013 30.8148 97.1755 31.5727 97.1755 32.607V37.9873H99.4478V32.2528C99.4478 30.241 98.3046 28.9304 96.4677 28.9304L96.4712 28.934Z" fill="#FFFFFF"></path>
    <path d="M71.7652 36.3651C70.2327 36.3651 69.1425 35.1537 69.1425 33.5704C69.1425 31.8065 70.3849 30.7581 71.7652 30.7581C72.5121 30.7581 72.8235 30.9848 73.3155 30.9848C73.8429 30.9848 74.1225 30.7298 74.3844 30.2197C74.5295 29.9399 74.6145 29.777 74.6145 29.777C74.5012 29.7061 73.3615 28.9304 71.4219 28.9304C68.5798 28.9304 66.8809 30.9671 66.8809 33.5669C66.8809 36.404 68.824 38.1856 71.4219 38.1856C73.3049 38.1856 74.4446 37.417 74.6463 37.2718L73.8641 35.7275C73.6907 35.8373 72.8872 36.358 71.7617 36.358L71.7652 36.3651Z" fill="#FFFFFF"></path>
    <path d="M47.0463 28.9385C44.8872 28.9385 43.0645 30.6953 43.0645 33.5749C43.0645 36.4546 44.8306 38.1937 47.471 38.1937C49.5699 38.1937 50.6565 37.2763 50.7874 37.1913C50.7874 37.1913 50.5822 36.8584 50.5255 36.7663C50.2317 36.2846 49.8955 36.1287 49.5239 36.1287C48.7806 36.1287 48.685 36.4369 47.6798 36.4369C45.9526 36.4369 45.3544 35.0874 45.312 34.1877H51.0954V33.5183C51.0954 30.7591 49.5062 28.9385 47.0463 28.9385ZM45.3084 32.5867C45.3084 31.5737 46.0199 30.6351 47.0144 30.6351C48.1293 30.6351 48.7417 31.6021 48.7594 32.5867H45.3084Z" fill="#FFFFFF"></path>
    <path d="M54.9616 35.5039V26.277C54.9616 25.2357 54.2679 24.4281 53.1884 24.4281H52.707V36.4071C52.707 37.5087 53.3901 38.1958 54.5758 38.1958C56.0376 38.1958 56.4765 37.1545 56.4765 36.1733C56.4163 36.2052 56.1049 36.3327 55.7934 36.3327C55.2731 36.3327 54.9616 36.0281 54.9616 35.5039Z" fill="#FFFFFF"></path>
    <path d="M39.8869 35.1878V30.7993H41.7734L42.4282 29.1027H39.8869V26.4497C39.8869 26.4497 39.6851 26.4497 39.678 26.4497C38.6729 26.4497 37.6358 26.8747 37.6358 29.0814V29.1027H35.9688V30.7993H37.6358V35.967C37.6358 37.4299 38.4994 38.1914 39.7276 38.1914C40.7186 38.1914 41.9999 37.8903 41.9999 35.9245C41.922 35.9706 41.4407 36.2823 40.9133 36.2823C40.1806 36.2823 39.8904 35.836 39.8904 35.1878H39.8869Z" fill="#FFFFFF"></path>
    <path d="M61.1986 28.9385C59.0396 28.9385 57.2168 30.6953 57.2168 33.5749C57.2168 36.4546 58.983 38.1937 61.6234 38.1937C63.7222 38.1937 64.8088 37.2763 64.9398 37.1913C64.9398 37.1913 64.7345 36.8584 64.6779 36.7663C64.3841 36.2846 64.0478 36.1287 63.6762 36.1287C62.9329 36.1287 62.8374 36.4369 61.8322 36.4369C60.1049 36.4369 59.5068 35.0874 59.4643 34.1877H65.2477V33.5183C65.2477 30.7591 63.6585 28.9385 61.1986 28.9385ZM59.4572 32.5867C59.4572 31.5737 60.1687 30.6351 61.1632 30.6351C62.2781 30.6351 62.8905 31.6021 62.9082 32.5867H59.4572Z" fill="#FFFFFF"></path>
    <path d="M79.8152 38.1892C77.0545 38.1892 75.3945 36.3651 75.3945 33.5633C75.3945 30.7616 77.0333 28.9304 79.8152 28.9304C82.5972 28.9304 84.2395 30.7723 84.2395 33.5633C84.2395 36.2021 82.7282 38.1892 79.8152 38.1892ZM79.8152 36.4536C81.1992 36.4536 81.9955 35.2635 81.9955 33.5669C81.9955 31.8703 81.2168 30.6695 79.8152 30.6695C78.4136 30.6695 77.6385 31.849 77.6385 33.5669C77.6385 35.2848 78.4172 36.4536 79.8152 36.4536Z" fill="#FFFFFF"></path>
    <path d="M7.19915 28.1216C5.83648 27.484 4.72157 26.9704 4.72157 25.9291C4.72157 25.1321 5.35866 24.5548 6.61515 24.5548C7.07881 24.5548 7.45399 24.6079 7.84686 24.6823C8.05215 24.7177 8.26805 24.7461 8.44856 24.7461C9.54578 24.7461 10.1652 24.0908 10.5793 22.8476L10.7492 22.3411C10.5722 22.2702 8.78126 21.4803 6.44172 21.4803C2.7218 21.4803 0.757433 23.8676 0.757433 26.3435C0.757433 27.5938 1.14677 28.497 1.75908 29.2125C2.54837 30.1299 3.67036 30.732 4.72511 31.2421C6.25767 31.993 7.64158 32.5491 7.64158 33.6683C7.64158 34.6566 6.61869 35.2197 5.25248 35.2197C3.38013 35.2197 1.74493 34.1501 1.5361 34.019L0 36.9022C0.272534 37.058 2.2546 38.3154 5.51085 38.3154C8.98301 38.3154 11.6128 36.3213 11.6128 33.2575C11.6128 30.1936 9.17414 29.0779 7.20269 28.1216H7.19915Z" fill="#FFFFFF"></path>
    <path d="M20.7758 29.5472L27.0724 21.8186H22.5845L17.5621 28.4882H17.4877V21.8186H13.7891V38.1897H14.0085C15.6083 38.1897 17.5125 37.4494 17.5125 34.7752V31.0172H17.5868L22.7084 37.9843H27.4158L20.7758 29.5472Z" fill="#FFFFFF"></path>
    <path d="M27.2834 4.29285C25.9809 4.53724 24.0519 5.72027 24.0554 7.81359C24.059 9.71209 25.6128 10.8632 25.6163 13.3533C25.6234 15.227 24.5934 16.4879 23.4785 17.1857C23.928 17.1467 24.4235 17.1184 24.9651 17.1184C26.1048 17.1184 26.7914 17.2247 26.8339 17.2317L32.6774 10.0592C31.0564 7.6294 29.1593 5.74152 27.2834 4.29285Z" fill="#FFFFFF"></path>
    <path d="M32.1926 23.6634C32.9288 22.5193 33.0209 20.6917 33.0846 18.8321C33.1518 17.0965 33.5164 15.7931 35.8347 15.7825C36.3479 15.7825 36.8363 15.8498 37.7247 15.8498C41.1226 15.8356 43.3418 14.6632 44.7186 13.8946C41.9012 12.0952 37.7849 10.2605 32.6811 10.0515C32.3484 10.9901 29.7611 18.1875 29.5664 18.7719C29.5947 18.8073 30.0478 19.3138 30.6141 20.3056C31.4494 21.6657 31.8953 22.8204 32.1926 23.6634Z" fill="#FFFFFF"></path>
    <path d="M19.8628 17.7808C19.569 17.7808 19.4204 17.586 19.3814 17.246C19.3425 16.9095 17.8843 3.53137 17.6648 1.50535C17.633 1.21136 17.5586 0.665895 17.5586 0.474627C17.5551 0.162932 17.7604 0 17.9975 0C18.6912 0 22.4643 0.881956 26.4673 3.69076C25.3135 4.01662 23.2288 5.21735 23.2358 7.70383C23.2429 9.90341 24.818 11.1148 24.825 13.3214C24.8392 16.913 20.7122 17.7808 19.8593 17.7808H19.8628Z" fill="#FFFFFF"></path>
    <path d="M32.5312 24.6204C32.595 24.7869 32.6516 24.9285 32.7118 25.0242C32.8038 25.18 32.9241 25.2509 33.0728 25.2509C33.1648 25.2509 33.2816 25.219 33.4055 25.1623C33.7134 25.0206 45.9137 19.3357 47.7542 18.4892C48.0197 18.3617 48.5258 18.135 48.6922 18.0358C48.8656 17.9366 48.9435 17.795 48.9435 17.6462C48.9435 17.5647 48.9187 17.4833 48.8727 17.4053C48.6426 17.0334 47.464 15.7796 45.489 14.4088C43.9211 15.2731 41.4753 16.6084 37.8368 16.6226C36.9449 16.6226 36.7431 16.5623 36.1344 16.5659C34.3576 16.573 33.9152 17.331 33.8479 18.8894C33.8373 19.1834 33.8338 19.5801 33.8161 20.0158C33.7594 21.4078 33.5966 23.3311 32.5312 24.6168V24.6204Z" fill="#FFFFFF"></path>
    </svg>