<?xml version="1.0" encoding="utf-8"?>
<!-- Generator: Adobe Illustrator 16.0.3, SVG Export Plug-In . SVG Version: 6.00 Build 0)  -->
<!DOCTYPE svg PUBLIC "-//W3C//DTD SVG 1.1//EN" "http://www.w3.org/Graphics/SVG/1.1/DTD/svg11.dtd">
<svg version="1.1" id="Layer_1" xmlns="http://www.w3.org/2000/svg" xmlns:xlink="http://www.w3.org/1999/xlink" x="0px" y="0px"
	 width="592.533px" height="75.418px" viewBox="1.372 766.472 592.533 75.418"
	 enable-background="new 1.372 766.472 592.533 75.418" xml:space="preserve">
<path fill="#FFFFFF" d="M58.736,766.607H30.494c-4.188,0-14.555,0.889-18.185,11.771c-3.857,11.549-2.6,17.961-2.6,18.977
	c0,1.011,0.572,6.534,8.988,9.671c1.796,0.67,8.242,3.018,9.949,3.641c4.439,1.617,9.302,4.209,7.263,11.584
	c-1.844,6.611-3.771,7.064-9.928,7.064H3.541l-2.169,12.567h37.777c2.813,0,13.104-1.072,16.525-13.979
	c3.133-11.797,2.33-17.312,2.164-18.25c-0.166-0.936-0.428-6.429-8.984-9.674c-2.392-0.908-11.21-4.078-12.583-4.562
	c-1.714-0.602-6.828-2.985-4.789-10.356c1.365-4.995,3.302-5.851,7.944-6.015c0.385-0.016,17.338,0,17.338,0L58.736,766.607z
	 M169.62,766.607h-28.242c-4.184,0-14.555,0.889-18.182,11.771c-3.853,11.549-2.6,17.961-2.6,18.977
	c0,1.011,0.573,6.534,8.985,9.671c1.796,0.67,8.242,3.018,9.949,3.641c4.437,1.617,9.305,4.209,7.263,11.584
	c-1.844,6.611-3.767,7.064-9.924,7.064h-22.441l-2.167,12.567h37.777c2.812,0,13.104-1.072,16.525-13.979
	c3.129-11.797,2.33-17.312,2.161-18.25c-0.166-0.936-0.425-6.429-8.981-9.674c-2.395-0.908-11.209-4.078-12.582-4.562
	c-1.714-0.602-6.831-2.985-4.793-10.356c1.369-4.995,3.302-5.851,7.944-6.015c0.388-0.016,17.338,0,17.338,0L169.62,766.607z
	 M593.905,766.607h-30.062c0,0-10.421,0.665-16.752,7.059c0,0-7.332,6.17-10.953,27.912c0,0-2.969,13.55-2.334,23.207
	c0.894,13.295,12.747,17.103,19.756,17.103h32.967l2.167-12.563h-23.812c-2.591-0.107-9.964-1.258-9.397-11.057
	c0.796-13.537,2.714-21.038,6.819-31.898c2.637-6.972,10.997-7.315,10.997-7.315h18.597L593.905,766.607z M532.544,766.607h-20.673
	l-12.686,75.279h20.696L532.544,766.607z M96.787,813.859l-4.498,28.03H71.487l5.034-31.387l-14.512-44.027H82.29l8.466,25.697
	l15.045-25.697h19.82L96.787,813.859z M230.924,779.068h-17.836l-10.723,62.818h-20.778l10.724-62.818h-20.033l1.956-12.593h58.653
	L230.924,779.068z M502.491,779.068h-17.839l-10.721,62.818h-20.777l10.72-62.818h-20.028l1.959-12.593h58.643L502.491,779.068z
	 M287.203,779.113h-31.188l-2.582,15.893h23.071l-1.995,12.531h-23.074l-3.529,21.713h31.188l-1.999,12.641h-52.074l12.103-75.418
	h52.074L287.203,779.113z M311.598,791.363h0.295v0.094h-0.295V791.363z M352.661,766.607l-20.902,47.691l-5.992-47.691H294.91
	l-12.078,75.282h19.298l8.04-49.237l6.188,49.237h17.736l22.385-51.075l-0.544,3.389c-0.003,0.066-0.012,0.119-0.021,0.168
	l-7.623,47.519h19.168l12.077-75.282H352.661z M403.615,812.641l13.677-28.868l4.818,28.868H403.615z M434.119,766.607h-27.753
	l-35.663,75.282h19.063l8.813-18.608h25.396l3.146,18.608h19.733L434.119,766.607z"/>
</svg>
