<svg
   version="1.1"
   id="svg2"
   width="337.32001"
   height="69.239998"
   viewBox="0 0 337.32001 69.239998"
   xmlns="http://www.w3.org/2000/svg"
   xmlns:svg="http://www.w3.org/2000/svg">
  <g
     id="g8"
     transform="matrix(1.3333333,0,0,-1.3333333,0,69.24)">
    <g
       id="g10"
       transform="scale(0.1)">
      <path
         d="m 10.8477,75.7031 c 0,-20.625 17.4336,-36.3672 38.9218,-36.3672 20.4141,0 40.6172,15.0977 40.6172,36.3672 V 156.719 L 101.016,167.57 H 68.2734 l 10.836,-10.851 V 75.7031 c 0,-14.4609 -11.4766,-25.957 -25.9414,-25.957 -14.668,0 -27.6446,11.2891 -27.6446,25.957 V 156.719 L 36.3672,167.57 H 0 L 10.8477,156.719 Z M 152.055,52.9492 V 146.945 L 219.371,42.1016 h 4.352 V 156.719 L 234.57,167.57 H 201.816 L 212.66,156.719 V 76.9727 L 156.098,167.57 h -25.946 l 10.633,-10.851 V 52.9492 L 130.152,42.1016 h 32.754 z m 116.754,114.6208 9.996,-10 V 52.0898 l -9.996,-9.9882 h 33.812 l -10,9.9882 V 157.57 l 10,10 z m 97.386,0 h -35.504 l 10.211,-10 35.293,-115.4684 h 6.387 l 36.359,115.4684 10.215,10 h -30.207 l 9.785,-9.789 -26.582,-86.7537 -25.73,86.7537 z M 528.891,42.1016 V 65.0703 L 515.492,51.4531 h -38.066 v 52.7379 h 28.281 l 10,-9.9801 v 29.3361 l -10,-9.992 h -28.281 v 44.66 h 38.066 l 13.399,-13.399 v 22.754 h -75.067 l 9.785,-10 V 52.0898 l -9.785,-9.9882 z m 56.347,9.9882 v 48.4842 h 18.938 l 30.398,-58.4724 h 20.852 l -9.785,9.9882 -28.078,51.4762 c 14.042,4.247 23.613,17.43 23.613,29.344 0,21.262 -19.774,34.66 -40.625,34.66 h -38.906 l 9.777,-10 V 52.0898 l -9.777,-9.9882 h 33.593 z m 0,106.1252 h 15.313 c 13.398,0 24.043,-11.485 24.043,-25.09 0,-12.977 -10.86,-23.184 -24.043,-23.184 H 585.238 Z M 746.449,76.9727 c 0,12.3437 -5.75,19.9921 -11.699,24.0433 l -25.527,18.496 c -9.141,6.582 -13.817,15.09 -13.817,21.484 0,13.176 11.27,17.852 18.074,17.852 3.614,0 6.165,-1.485 8.079,-1.485 l 11.062,-11.914 11.692,17.442 -24.875,4.679 c -1.7,0.426 -2.762,0.645 -5.958,0.645 -21.914,0 -31.902,-18.711 -31.902,-30.844 0,-9.566 4.891,-20.418 16.16,-28.699 L 723.48,90.168 c 7.012,-4.8946 8.926,-12.1211 8.926,-18.3008 0,-10.625 -6.601,-22.1211 -20.84,-22.1211 -3.398,0 -6.386,0.6445 -8.718,1.707 l -11.914,14.0352 -10.84,-19.5586 24.031,-4.6875 c 0,0 4.043,-0.8399 7.441,-0.8399 15.098,0 34.883,12.754 34.883,36.5704 m 36.348,90.5973 10,-10 V 52.0898 l -10,-9.9882 h 33.828 l -10,9.9882 V 157.57 l 10,10 z M 896.586,52.0898 V 158.215 h 23.809 l 13.398,-13.399 v 22.754 h -88.25 v -22.754 l 13.613,13.399 H 882.75 V 52.0898 l -9.777,-9.9882 h 33.593 z M 962.711,157.57 994.398,100.371 V 52.0898 l -9.988,-9.9882 h 33.81 l -9.99,9.9882 v 48.2812 l 32.32,56.992 10.42,10.207 h -31.04 l 9.78,-9.789 -26.38,-46.988 -25.092,46.988 9.785,9.789 h -35.519 z m 204.729,-36.027 c -4.6,0 -11.83,-2.109 -19.08,-6.355 -12.19,-7.247 -25.44,-23.6724 -25.44,-48.4028 0,-12.3711 5.82,-26.1485 22.26,-26.1485 7.77,0 18.91,5.125 26.33,11.836 11.66,10.5937 18.54,28.7968 18.54,44.5195 0,14.6678 -7.78,24.5508 -22.61,24.5508 m -30.21,-50.5157 c 0,26.1407 13.24,40.2817 18.73,42.5777 1.57,0.704 4.06,1.415 5.83,1.415 8.83,0 13.96,-6.719 13.96,-20.3208 0.35,-22.9687 -11.66,-43.8203 -19.08,-46.2929 -1.43,-0.5235 -3.72,-1.2266 -5.47,-1.2266 -9.91,0 -13.97,10.5937 -13.97,23.8476 m 79.49,46.2777 -4.75,-4.59 0.52,-1.766 h 14.67 c -2.3,-15.8982 -4.42,-29.6795 -7.78,-51.9334 -4.77,-33.039 -8.83,-44.707 -12.19,-47.5312 -1.06,-1.0547 -2.82,-1.58206 -4.41,-1.58206 -2.13,0 -5.48,1.58206 -7.78,2.64846 -2.12,1.0547 -3.88,-0.1797 -4.95,-1.25 -1.41,-1.58205 -2.99,-4.05471 -2.99,-5.99611 0,-3.53516 4.59,-5.30469 7.59,-5.30469 3.36,0 11.84,2.82422 19.44,12.1875 5.99,7.4219 14.13,24.5508 21.01,64.4844 1.24,7.4297 2.66,14.8437 5.67,34.2771 l 18,1.766 3.9,4.59 h -20.85 c 5.3,32.695 9.72,42.578 17.31,42.578 5.31,0 9.72,-2.11 13.61,-5.82 1.23,-1.239 3.18,-1.239 4.94,0.175 1.42,1.231 3.54,4.063 3.54,6.535 0.17,3.536 -4.59,7.411 -10.6,7.411 -10.25,0 -21.03,-6.004 -28.45,-14.832 -6.89,-8.301 -11.48,-21.731 -13.95,-36.047 z m 185.96,-75.2034 28.71,90.8084 27.86,-90.8084 h 6.38 L 1502,157.57 l 10.2,10 h -30.19 l 9.77,-9.789 -26.58,-86.7537 -25.73,86.7537 9.78,9.789 h -35.51 l 10,-10 2.54,-8.293 -24.03,-78.2497 -25.73,86.7537 9.78,9.789 h -35.51 l 10.21,-10 35.3,-115.4684 z m 133.41,9.7851 9.14,26.5821 h 41.48 l 8.71,-26.5821 -9.77,-9.7851 h 35.51 l -9.99,10.2148 -39.13,115.2536 h -6.39 L 1525.87,52.3164 1515.68,42.1016 h 30.19 z m 30.2,87.8203 17.23,-51.8828 h -35.1 z m 140.38,-62.7343 c 0,12.3437 -5.75,19.9921 -11.69,24.0433 l -25.52,18.496 c -9.15,6.582 -13.83,15.09 -13.83,21.484 0,13.176 11.27,17.852 18.08,17.852 3.61,0 6.16,-1.485 8.07,-1.485 l 11.07,-11.914 11.7,17.442 -24.89,4.679 c -1.7,0.426 -2.76,0.645 -5.95,0.645 -21.91,0 -31.9,-18.711 -31.9,-30.844 0,-9.566 4.88,-20.418 16.15,-28.699 l 25.74,-18.504 c 7.02,-4.8946 8.93,-12.1211 8.93,-18.3008 0,-10.625 -6.59,-22.1211 -20.83,-22.1211 -3.41,0 -6.39,0.6445 -8.74,1.707 l -11.9,14.0352 -10.84,-19.5586 24.02,-4.6875 c 0,0 4.05,-0.8399 7.46,-0.8399 15.09,0 34.87,12.754 34.87,36.5704 m 56.57,28.0783 h 52.73 V 52.0898 l -9.99,-9.9882 h 33.81 l -9.99,9.9882 V 157.57 l 9.99,10 h -33.81 l 9.99,-10 v -43.164 h -52.73 v 43.164 l 9.99,10 h -33.61 l 9.8,-10 V 52.0898 l -9.8,-9.9882 h 33.61 l -9.99,9.9882 z m 111.43,62.519 9.99,-10 V 52.0898 l -9.99,-9.9882 h 33.8 l -9.98,9.9882 V 157.57 l 9.98,10 z m 89.95,-114.6208 v 93.9958 l 66.02,-104.8942 5.65,0.0508 V 156.719 l 10.85,10.851 h -32.75 l 10.84,-10.851 V 76.9727 l -56.57,90.5973 h -25.95 l 10.63,-10.851 V 52.9492 l -10.63,-10.8476 h 32.76 z m 186.04,46.1446 V 58.6914 c -2.98,-2.9883 -8.94,-8.9453 -20.63,-8.9453 -27.86,0 -41.89,28.0781 -41.89,55.0899 0,27.215 17.66,55.074 41.89,55.074 6.38,0 11.06,-1.48 15.32,-5.957 l 13.82,-13.601 v 21.691 c -7.45,3.824 -14.89,7.234 -29.14,7.234 -34.23,0 -58.27,-30.625 -58.27,-64.441 0,-33.1758 24.04,-64.4337 58.27,-64.4337 19.36,0 27.65,4.6758 34.46,9.1407 v 49.5508 l 9.77,9.9882 h -33.59 z m 92.9,-47.004 V 158.215 h 23.81 l 13.4,-13.399 v 22.754 h -88.26 v -22.754 l 13.62,13.399 h 23.6 V 52.0898 l -9.78,-9.9882 h 33.59 z m 56.74,52.7462 c 0,-31.8946 18.06,-65.5001 50.18,-65.5001 32.33,0 50.4,33.6055 50.4,65.5001 0,31.902 -18.07,65.496 -50.4,65.496 -32.12,0 -50.18,-33.594 -50.18,-65.496 m 50.18,-55.9297 c -25.09,0 -33.81,29.9921 -33.81,55.9297 0,25.945 8.72,55.937 33.81,55.937 25.31,0 34.03,-29.992 34.03,-55.937 0,-25.9376 -8.72,-55.9297 -34.03,-55.9297 m 96.94,4.0429 v 93.9958 l 65.25,-104.8434 h 6.41 V 156.719 l 10.85,10.851 h -32.76 l 10.85,-10.851 V 76.9727 l -56.56,90.5973 h -25.96 l 10.64,-10.851 V 52.9492 L 2425.5,42.1016 h 32.77 l -10.85,10.8476"
         style="fill:#ffffff;fill-opacity:1;fill-rule:nonzero;stroke:none"
         id="path12" />
      <path
         d="m 1096.74,519.348 v -41.68 h 26.41 l 46.37,-186.25 h 65.02 l 30.89,116.551 29.63,-116.551 h 65.03 l 48.93,186.25 h 25.12 v 41.68 h -89.51 v -41.68 h 29.61 l -32.18,-121.215 -39.93,162.895 h -41.2 l -43.78,-164.18 -31.55,122.5 h 32.2 v 41.68 h -121.06"
         style="fill:#ffffff;fill-opacity:1;fill-rule:nonzero;stroke:none"
         id="path14" />
    </g>
  </g>
</svg>
