<svg class="header__logo" version="1.1" xmlns="https://www.w3.org/2000/svg" xmlns:xlink="https://www.w3.org/1999/xlink" x="0px" y="0px" viewBox="0 0 285 76" enable-background="new 0 0 285 76" xml:space="preserve">
    <g>
        <defs>
            <rect id="SVGID_1_453593823" x="-41" y="-42.173" width="364.879" height="155.173"></rect>
        </defs>
        <clipPath id="SVGID_2_453593823">
            <use xlink:href="#SVGID_1_453593823" overflow="visible"></use>
        </clipPath>
        <path clip-path="url(#SVGID_2_453593823)" fill="currentcolor" d="M166.836,67.444L166.836,67.444c-10.614,0-19.964-7.498-19.964-21.034V18.656
            h11.103v28.533c0,6.233,3.214,10.323,8.959,10.323s8.959-4.09,8.959-10.323V18.656h11.102V46.41
            C186.994,59.946,177.451,67.444,166.836,67.444"></path>
        <path clip-path="url(#SVGID_2_453593823)" fill="currentcolor" d="M70.166,4.454H59.29v13.11C64.913,15.468,69.126,10.511,70.166,4.454"></path>
        <path clip-path="url(#SVGID_2_453593823)" fill="currentcolor" d="M59.29,19.748v46.625h11.102V34.992C70.078,27.983,65.56,22.085,59.29,19.748"></path>
        <path clip-path="url(#SVGID_2_453593823)" fill="currentcolor" d="M97.598,18.655c-9.441,0.01-17.092,7.666-17.092,17.11v30.609h10.896V37.165
            c0-4.725,3.831-8.555,8.556-8.555h3.98v-9.955H97.598z"></path>
        <path clip-path="url(#SVGID_2_453593823)" fill="currentcolor" d="M217.724,37.743l-7.499-1.753c-0.341-0.076-0.673-0.169-0.992-0.278
            c-2.169-0.724-3.748-2.181-3.748-4.24c0-2.446,2.447-4.502,6.559-4.502c5.382,0,9.101,3.132,11.255,6.068l6.888-7.568
            c-4.381-4.576-9.834-7.983-17.817-7.983c-10.03,0-17.432,5.356-17.432,14.218c0,8.277,5.551,12.854,14.51,15.095l6.33,1.559
            c0.79,0.202,1.476,0.421,2.068,0.657c2.604,1.026,3.455,2.379,3.455,4.058c0,2.348-1.664,4.893-7.438,4.893
            c-5.675,0-10.272-2.348-13.797-6.944l-6.979,7.172c3.7,4.675,9.836,9.252,19.866,9.252c12.562,0,18.989-6.525,18.989-14.803
            C231.941,44.268,225.903,39.69,217.724,37.743"></path>
        <path clip-path="url(#SVGID_2_453593823)" fill="currentcolor" d="M139.697,56.346c-0.325,0.025-2.568,0.192-3.56,0.192
            c-0.005,0-0.009-0.001-0.014-0.001c-0.009,0-0.02,0.001-0.029,0.001c-6.232,0-7.791-1.754-7.791-8.667V28.589h0.044h11.35v-9.933
            h-11.35h-0.044V4.445h-10.961v14.211h-7.011v9.933h7.011v20.938c0,12.076,3.993,16.944,16.458,16.944
            c3.502,0,5.592-0.166,5.897-0.19V56.346z"></path>
        <polygon clip-path="url(#SVGID_2_453593823)" fill="currentcolor" points="51.591,18.656 34.646,66.374 22.571,66.374 5.626,18.656 
            17.021,18.656 28.609,53.644 40.208,18.656 	"></polygon>
        <path clip-path="url(#SVGID_2_453593823)" fill="currentcolor" d="M266.346,62.673c0.146-0.119,0.299-0.254,0.437-0.374v4.074h10.471v-30.87
            c0-12.173-8.474-18.016-20.354-18.016c-7.302,0-15.093,3.214-18.891,9.932l7.469,6.984c3.033-5.481,7.634-6.901,11.354-6.949
            c5.906-0.076,9.964,3.873,9.964,8.767l-0.008,2.603c-0.199-0.07-0.414-0.14-0.636-0.21v0.006c-0.331-0.11-0.717-0.229-1.14-0.349
            c-0.097-0.027-0.194-0.056-0.294-0.082c-0.065-0.019-0.132-0.036-0.199-0.054c-0.115-0.03-0.23-0.062-0.348-0.092
            c-0.111-0.028-0.225-0.057-0.338-0.085c-0.054-0.013-0.106-0.026-0.159-0.04c-2.077-0.503-4.71-0.954-7.163-0.954
            c-11.004,0-19.866,5.064-19.866,15.971c0,9.154,7.401,14.511,16.068,14.511C258.847,67.445,263.327,65.302,266.346,62.673
             M254.815,58.101c-5.202,0-7.699-2.706-7.699-5.932c0-4.162,3.641-6.347,9.053-6.347c4.266,0,7.595,0.936,10.613,2.081v5.827
            C264.18,56.228,259.394,58.101,254.815,58.101"></path>
    </g>
</svg>