<svg xmlns="http://www.w3.org/2000/svg" xmlns:v="https://vecta.io/nano" viewBox="0 0 781 182" fill="#fff"><path d="M46.1 22.8C43 17.2 36 15.2 30.4 18.2c-5.6 3.1-7.6 10.1-4.6 15.6l32.3 58.8c2.1 3.8 6 6 10.1 6 1.9 0 3.8-.5 5.5-1.4 5.6-3.1 7.6-10.1 4.6-15.7L46.1 22.8zm172.7 84.9l-50.7-85.3c-1.3-2.2-3.3-3.8-5.5-4.7-.3-.1-.7-.3-1-.4-.1 0-.1 0-.2-.1-.3-.1-.5-.1-.8-.2-.1 0-.3-.1-.4-.1-.2 0-.4-.1-.7-.1-.2 0-.3 0-.5-.1h-.6-.6-.5c-.2 0-.4 0-.7.1-.1 0-.3 0-.4.1-.3 0-.5.1-.8.1-.1 0-.2 0-.3.1l-.9.3h-.1c-2.6.9-4.9 2.7-6.3 5.3l-22.2 40.4-22.2-40.4c-3.1-5.6-10.1-7.6-15.6-4.6-5.6 3.1-7.6 10.1-4.6 15.6l29.2 53.2-29.2 53.2c-3.1 5.6-1 12.6 4.6 15.7 1.8 1 3.7 1.4 5.5 1.4 4.1 0 8-2.2 10.1-6l22.2-40.4 22.2 40.4c2.1 3.8 6 6 10.1 6 1.9 0 3.8-.5 5.5-1.4 5.6-3.1 7.6-10.1 4.6-15.7l-29.2-53.2 19.5-35.6 40.4 68c2.2 3.6 6 5.6 9.9 5.6 2 0 4-.5 5.9-1.6 5.8-3 7.6-10.1 4.3-15.6m8.5 24.4c-6.4 0-11.5 5.2-11.5 11.5 0 6.4 5.2 11.5 11.5 11.5 6.4 0 11.5-5.2 11.5-11.5.1-6.4-5.1-11.5-11.5-11.5M339.8 99l14-53.9h15.5L347.8 123h-15.6l-17.8-55.5-17.8 55.5h-15.9l-21.6-77.9h16l14.3 53.6 17.3-53.6h15.7zm48.7-14.7c-2.5 2.8-3.8 6.7-3.8 11.5s1.3 8.7 3.8 11.7 5.8 4.5 9.7 4.5 7.1-1.5 9.6-4.5 3.7-6.9 3.7-11.7-1.2-8.7-3.7-11.5-5.7-4.2-9.6-4.2-7.1 1.4-9.7 4.2m23.2 32v-.7c-1.2 2.6-3.1 4.8-5.8 6.4s-5.8 2.5-9.3 2.5c-7.8 0-14.2-2.7-19.1-8.2s-7.4-12.3-7.4-20.6c0-8.1 2.4-14.8 7.3-20.2 4.8-5.4 11.1-8.1 18.8-8.1 4.3 0 7.8.9 10.3 2.6 2.6 1.7 4.3 3.6 5.2 5.7V69h14.2v44.3c0 3.3.1 6.6.4 9.8h-14c-.5-2.1-.6-4.4-.6-6.8m47.8 28.1H444l12.7-28.2L433.8 69h16.3l14.4 31.6L477.8 69h15.7zM590.4 123h-14.9V68.4L553 123h-12.6L518 68.8V123h-14.5V45.1h20l23.4 56.3 22.8-56.3h20.7zm31-15.7c2.7 2.7 5.9 4.1 9.7 4.1s7.1-1.4 9.7-4.1c2.7-2.7 4-6.5 4-11.3s-1.3-8.6-4-11.3-5.9-4.1-9.7-4.1-7.1 1.4-9.7 4.1c-2.7 2.7-4 6.5-4 11.3s1.3 8.6 4 11.3m-10.6-31.9c5.4-5.4 12.1-8.1 20.3-8.1 8.1 0 14.9 2.7 20.3 8.1s8.1 12.3 8.1 20.6-2.7 15.1-8.1 20.6c-5.4 5.4-12.1 8.1-20.3 8.1-8.1 0-14.9-2.7-20.3-8.1s-8.1-12.3-8.1-20.6 2.7-15.1 8.1-20.6m93.2-6.7v14.7c-1.5-.3-2.9-.4-4.4-.4-4.2 0-7.5 1.2-10.1 3.6s-3.8 6.3-3.8 11.7V123H671V69h14.2v8c2.6-5.6 7.8-8.5 15.4-8.5.8 0 1.9.1 3.4.2m20.4 21.1h24.2a11.18 11.18 0 0 0-3.2-7.6c-2-2-5-3.1-8.8-3.1-3.5 0-6.4 1.1-8.6 3.3-2.3 2.3-3.4 4.7-3.6 7.4m25.6 14.1l12.2 3.6c-1.5 5-4.3 9.1-8.6 12.3s-9.6 4.8-16 4.8c-7.8 0-14.4-2.6-19.8-7.9-5.4-5.2-8.1-12.3-8.1-21.1 0-8.4 2.6-15.2 7.9-20.5s11.5-8 18.7-8c8.4 0 14.9 2.5 19.6 7.5s7.1 11.8 7.1 20.6c0 .6 0 1.2-.1 2 0 .7-.1 1.3-.1 1.8l-.1.8H724c.1 3.5 1.5 6.4 4.2 8.8 2.6 2.3 5.8 3.5 9.5 3.5 6.2.1 10.4-2.7 12.3-8.2"></path></svg>