<svg xmlns="http://www.w3.org/2000/svg" viewBox="0 0 1020 520" width="1020" height="520">
<defs>
  <marker id="arr" markerWidth="10" markerHeight="7" refX="9" refY="3.5" orient="auto">
    <polygon points="0 0, 10 3.5, 0 7" fill="#adb5bd" />
  </marker>
  <style>text { font-family: "DM Sans", "Segoe UI", system-ui, -apple-system, sans-serif; }</style>
</defs>

<!-- Title -->
<text x="510" y="28" font-size="22" fill="#1971c2" text-anchor="middle" font-weight="600">inspect-mlflow Architecture</text>

<!-- Left: Inspect AI -->
<rect x="40" y="56" width="200" height="240" rx="8" fill="rgba(24,100,171,0.12)" stroke="#1864ab" stroke-width="2" />
<text x="140" y="76" font-size="14" fill="#4dabf7" text-anchor="middle" font-weight="600">Inspect AI</text>

<rect x="60" y="92" width="160" height="36" rx="6" fill="#1971c2" />
<text x="140" y="114" font-size="14" fill="#f8f9fa" text-anchor="middle">eval(task, model)</text>

<rect x="60" y="140" width="160" height="36" rx="6" fill="#3b5bdb" />
<text x="140" y="162" font-size="14" fill="#f8f9fa" text-anchor="middle">Lifecycle Hooks</text>

<rect x="60" y="188" width="160" height="36" rx="6" fill="#3b5bdb" />
<text x="140" y="210" font-size="14" fill="#f8f9fa" text-anchor="middle">Samples + Scores</text>

<rect x="60" y="236" width="160" height="36" rx="6" fill="#3b5bdb" />
<text x="140" y="258" font-size="14" fill="#f8f9fa" text-anchor="middle">.eval Log Files</text>

<!-- Middle: inspect-mlflow package -->
<rect x="310" y="56" width="240" height="296" rx="8" fill="rgba(24,100,171,0.12)" stroke="#1864ab" stroke-width="2" />
<text x="430" y="76" font-size="14" fill="#4dabf7" text-anchor="middle" font-weight="600">inspect-mlflow</text>

<rect x="330" y="92" width="200" height="36" rx="6" fill="#1971c2" />
<text x="430" y="114" font-size="14" fill="#f8f9fa" text-anchor="middle">Tracking Hook</text>

<rect x="330" y="140" width="200" height="36" rx="6" fill="#1971c2" />
<text x="430" y="162" font-size="14" fill="#f8f9fa" text-anchor="middle">Tracing Hook</text>

<rect x="330" y="188" width="200" height="36" rx="6" fill="#3b5bdb" />
<text x="430" y="210" font-size="14" fill="#f8f9fa" text-anchor="middle">Autolog (9 providers)</text>

<rect x="330" y="236" width="200" height="36" rx="6" fill="#3b5bdb" />
<text x="430" y="258" font-size="14" fill="#f8f9fa" text-anchor="middle">Artifact Tables</text>

<rect x="330" y="284" width="200" height="36" rx="6" fill="#3b5bdb" />
<text x="430" y="306" font-size="14" fill="#f8f9fa" text-anchor="middle">compare_evals()</text>

<!-- Right: MLflow -->
<rect x="620" y="56" width="200" height="188" rx="8" fill="rgba(24,100,171,0.12)" stroke="#1864ab" stroke-width="2" />
<text x="720" y="76" font-size="14" fill="#4dabf7" text-anchor="middle" font-weight="600">MLflow Server</text>

<rect x="640" y="92" width="160" height="36" rx="6" fill="#087f5b" />
<text x="720" y="114" font-size="14" fill="#f8f9fa" text-anchor="middle">Runs + Metrics</text>

<rect x="640" y="140" width="160" height="36" rx="6" fill="#087f5b" />
<text x="720" y="162" font-size="14" fill="#f8f9fa" text-anchor="middle">Traces + Spans</text>

<rect x="640" y="188" width="160" height="36" rx="6" fill="#087f5b" />
<text x="720" y="210" font-size="14" fill="#f8f9fa" text-anchor="middle">Artifacts + Tables</text>

<!-- Bottom right: Scout -->
<rect x="620" y="280" width="200" height="72" rx="8" fill="rgba(24,100,171,0.12)" stroke="#1864ab" stroke-width="2" />
<text x="720" y="300" font-size="14" fill="#4dabf7" text-anchor="middle" font-weight="600">Inspect Scout</text>

<rect x="640" y="312" width="160" height="28" rx="6" fill="#495057" />
<text x="720" y="330" font-size="13" fill="#f8f9fa" text-anchor="middle">Safety Scanners</text>

<!-- Bottom: Comparison output -->
<rect x="330" y="388" width="200" height="44" rx="8" fill="#087f5b" />
<text x="430" y="414" font-size="14" fill="#f8f9fa" text-anchor="middle">ComparisonResult</text>

<!-- Arrows: Inspect AI -> inspect-mlflow -->
<path d="M 220 110 L 326 110" stroke="#adb5bd" fill="none" stroke-width="2" marker-end="url(#arr)" />
<text x="273" y="102" font-size="13" fill="#adb5bd" text-anchor="middle">events</text>

<path d="M 220 158 L 326 158" stroke="#adb5bd" fill="none" stroke-width="2" marker-end="url(#arr)" />
<text x="273" y="150" font-size="13" fill="#adb5bd" text-anchor="middle">spans</text>

<!-- Arrow: .eval logs -> compare_evals -->
<path d="M 220 254 L 270 254 L 270 302 L 326 302" stroke="#adb5bd" fill="none" stroke-width="2" marker-end="url(#arr)" />
<text x="256" y="284" font-size="13" fill="#adb5bd">.eval</text>

<!-- Arrows: inspect-mlflow -> MLflow (all labeled) -->
<path d="M 530 110 L 636 110" stroke="#adb5bd" fill="none" stroke-width="2" marker-end="url(#arr)" />
<text x="583" y="102" font-size="13" fill="#adb5bd" text-anchor="middle">runs</text>

<path d="M 530 158 L 636 158" stroke="#adb5bd" fill="none" stroke-width="2" marker-end="url(#arr)" />
<text x="583" y="150" font-size="13" fill="#adb5bd" text-anchor="middle">traces</text>

<path d="M 530 254 L 580 254 L 580 206 L 636 206" stroke="#adb5bd" fill="none" stroke-width="2" marker-end="url(#arr)" />
<text x="566" y="244" font-size="13" fill="#adb5bd">tables</text>

<!-- Arrow: inspect-mlflow -> Scout (from container edge) -->
<path d="M 550 170 L 580 170 L 580 326 L 636 326" stroke="#adb5bd" fill="none" stroke-width="2" marker-end="url(#arr)" />
<text x="596" y="260" font-size="13" fill="#adb5bd">import</text>

<!-- Arrow: compare_evals -> ComparisonResult -->
<path d="M 430 320 L 430 384" stroke="#adb5bd" fill="none" stroke-width="2" marker-end="url(#arr)" />
<text x="460" y="358" font-size="13" fill="#adb5bd">output</text>

<!-- Bottom annotation -->
<text x="430" y="460" font-size="14" fill="#4dabf7" text-anchor="middle">Auto-registers via Python entry points. No code changes needed.</text>

<!-- Right-side annotations (closer to boxes) -->
<text x="840" y="114" font-size="13" fill="#adb5bd">MlflowClient</text>
<text x="840" y="162" font-size="13" fill="#adb5bd">start_span()</text>
<text x="840" y="210" font-size="13" fill="#adb5bd">log_table()</text>

<!-- Regressions annotation under ComparisonResult -->
<text x="430" y="480" font-size="13" fill="#adb5bd" text-anchor="middle">regressions, significance, effect size</text>
</svg>
