<svg xmlns="http://www.w3.org/2000/svg" width="880" height="780" viewBox="60 -10 880 880">
<defs>
  <marker id="arrow-495057" markerWidth="10" markerHeight="7" refX="9" refY="3.5" orient="auto"><polygon points="0 0, 10 3.5, 0 7" fill="#495057" /></marker>
  <style>text { font-family: "Segoe UI", system-ui, -apple-system, sans-serif; }</style>
</defs>

<!-- Title -->
<text x="500" y="32" font-size="22" fill="#1971c2" text-anchor="middle" font-weight="600">inspect-mlflow: Evaluation Tracking Pipeline</text>

<!-- Row 1: Inspect AI container -->
<rect x="240" y="52" width="520" height="176" rx="8" stroke="#1971c2" fill="none" stroke-width="1.5" stroke-dasharray="8,4" />
<text x="256" y="72" font-size="11" fill="#1971c2" font-weight="600">Inspect AI</text>

<rect x="300" y="84" width="400" height="48" rx="8" fill="#1971c2" />
<text x="500" y="112" font-size="15" fill="#f8f9fa" text-anchor="middle">Evaluation Run (tasks, samples, scoring)</text>

<rect x="300" y="148" width="400" height="48" rx="8" fill="#3b5bdb" />
<text x="500" y="176" font-size="15" fill="#f8f9fa" text-anchor="middle">Hooks: on_run, on_task, on_sample, on_event</text>

<!-- Arrow 1: Inspect AI -> inspect-mlflow -->
<path d="M 500 228 L 500 272" stroke="#495057" fill="none" stroke-width="2" marker-end="url(#arrow-495057)" />
<text x="520" y="256" font-size="11" fill="#868e96">events</text>

<!-- Row 2: inspect-mlflow hooks container -->
<rect x="140" y="276" width="720" height="200" rx="8" stroke="#087f5b" fill="none" stroke-width="1.5" stroke-dasharray="8,4" />
<text x="156" y="296" font-size="11" fill="#087f5b" font-weight="600">inspect-mlflow hooks (auto-registered via entry points)</text>

<!-- Tracking Hook -->
<rect x="180" y="312" width="300" height="48" rx="8" fill="#087f5b" />
<text x="330" y="340" font-size="14" fill="#f8f9fa" text-anchor="middle">Tracking Hook</text>

<text x="330" y="388" font-size="12" fill="#495057" text-anchor="middle">Hierarchical runs, per-sample metrics,</text>
<text x="330" y="404" font-size="12" fill="#495057" text-anchor="middle">token usage, eval artifacts</text>

<!-- Tracing Hook -->
<rect x="520" y="312" width="300" height="48" rx="8" fill="#087f5b" />
<text x="670" y="340" font-size="14" fill="#f8f9fa" text-anchor="middle">Tracing Hook</text>

<text x="670" y="388" font-size="12" fill="#495057" text-anchor="middle">Span tree: LLM, TOOL, EVALUATOR</text>
<text x="670" y="404" font-size="12" fill="#495057" text-anchor="middle">Token counts, inputs/outputs</text>

<text x="500" y="460" font-size="11" fill="#868e96" text-anchor="middle">No code changes needed. Set MLFLOW_TRACKING_URI to enable.</text>

<!-- Arrow 2: Tracking -> MLflow (left side, avoids text) -->
<path d="M 220 360 L 220 528" stroke="#495057" fill="none" stroke-width="2" marker-end="url(#arrow-495057)" />

<!-- Arrow 3: Tracing -> MLflow (right side, avoids text) -->
<path d="M 780 360 L 780 528" stroke="#495057" fill="none" stroke-width="2" marker-end="url(#arrow-495057)" />

<!-- Row 3: MLflow container -->
<rect x="140" y="528" width="720" height="120" rx="8" stroke="#1971c2" fill="none" stroke-width="1.5" stroke-dasharray="8,4" />
<text x="156" y="548" font-size="11" fill="#1971c2" font-weight="600">MLflow</text>

<rect x="180" y="564" width="200" height="48" rx="8" fill="#1971c2" />
<text x="280" y="592" font-size="14" fill="#f8f9fa" text-anchor="middle">Experiment Runs</text>

<rect x="400" y="564" width="200" height="48" rx="8" fill="#1971c2" />
<text x="500" y="592" font-size="14" fill="#f8f9fa" text-anchor="middle">Trace Spans</text>

<rect x="620" y="564" width="200" height="48" rx="8" fill="#1971c2" />
<text x="720" y="592" font-size="14" fill="#f8f9fa" text-anchor="middle">Artifacts</text>

<!-- Arrow 4: MLflow -> Scout (separate manual step, dashed to show it's optional/manual) -->
<path d="M 500 648 L 500 700" stroke="#495057" fill="none" stroke-width="2" stroke-dasharray="6,4" marker-end="url(#arrow-495057)" />
<text x="520" y="680" font-size="11" fill="#868e96">import_mlflow_traces()</text>

<!-- Row 4: Scout container (dashed border to indicate optional) -->
<rect x="240" y="704" width="520" height="100" rx="8" stroke="#1864ab" fill="none" stroke-width="1.5" stroke-dasharray="8,4" />
<text x="256" y="724" font-size="11" fill="#1864ab" font-weight="600">Inspect Scout (optional, manual import)</text>

<rect x="300" y="740" width="200" height="44" rx="8" fill="#1864ab" />
<text x="400" y="766" font-size="14" fill="#f8f9fa" text-anchor="middle">Transcript DB</text>

<rect x="520" y="740" width="200" height="44" rx="8" fill="#1864ab" />
<text x="620" y="766" font-size="14" fill="#f8f9fa" text-anchor="middle">Safety Scanners</text>

<!-- Legend -->
<rect x="220" y="840" width="16" height="16" rx="4" stroke="#1971c2" fill="none" stroke-width="1.5" stroke-dasharray="4,2" />
<text x="244" y="853" font-size="12" fill="#868e96">Inspect AI / MLflow</text>

<rect x="420" y="840" width="16" height="16" rx="4" stroke="#087f5b" fill="none" stroke-width="1.5" stroke-dasharray="4,2" />
<text x="444" y="853" font-size="12" fill="#868e96">inspect-mlflow hooks</text>

<rect x="620" y="840" width="16" height="16" rx="4" stroke="#1864ab" fill="none" stroke-width="1.5" stroke-dasharray="4,2" />
<text x="644" y="853" font-size="12" fill="#868e96">Inspect Scout (optional)</text>
</svg>
