<svg width="960" height="640" viewBox="0 0 960 640" xmlns="http://www.w3.org/2000/svg">
  <defs>
    <linearGradient id="cardBlue" x1="0" y1="0" x2="0" y2="1">
      <stop offset="0%" stop-color="#9ecbfa"/>
      <stop offset="100%" stop-color="#90c2f2"/>
    </linearGradient>
    <linearGradient id="cardGreen" x1="0" y1="0" x2="0" y2="1">
      <stop offset="0%" stop-color="#c8efb7"/>
      <stop offset="100%" stop-color="#b8e7a8"/>
    </linearGradient>
    <linearGradient id="cardGray" x1="0" y1="0" x2="0" y2="1">
      <stop offset="0%" stop-color="#e7e7e7"/>
      <stop offset="100%" stop-color="#dcdcdc"/>
    </linearGradient>
    <marker id="arrowBlue" markerWidth="10" markerHeight="10" refX="8" refY="5" orient="auto">
      <path d="M0,0 L10,5 L0,10 z" fill="#8ab7e3"/>
    </marker>
    <marker id="arrowGreen" markerWidth="10" markerHeight="10" refX="8" refY="5" orient="auto">
      <path d="M0,0 L10,5 L0,10 z" fill="#a8d39a"/>
    </marker>
    <marker id="arrowGray" markerWidth="10" markerHeight="10" refX="8" refY="5" orient="auto">
      <path d="M0,0 L10,5 L0,10 z" fill="#c9c9c9"/>
    </marker>
    <style>
      text { font-family: "Segoe UI", Arial, Helvetica, sans-serif; }
      .title { fill: #111827; font-size: 25px; font-weight: 700; }
      .body { fill: #1f2937; font-size: 14px; }
      .cardTitle { fill: #111827; font-size: 23px; font-weight: 700; }
      .icon { fill: none; stroke: #111827; stroke-width: 2.1; stroke-linecap: round; stroke-linejoin: round; }
    </style>
  </defs>

  <rect width="960" height="640" fill="none"/>

  <rect x="58" y="34" width="844" height="572" rx="42" fill="#f8fafc" stroke="#374151" stroke-width="2.5"/>
  <line x1="58" y1="102" x2="902" y2="102" stroke="#374151" stroke-width="2.5"/>
  <text x="106" y="82" class="title">MLflow Tracking Server</text>

  <path d="M190 156 H480" stroke="#8ab7e3" stroke-width="2.5" fill="none"/>
  <path d="M480 156 H770" stroke="#a8d39a" stroke-width="2.5" fill="none"/>
  <path d="M190 156 V228" stroke="#8ab7e3" stroke-width="2.5" fill="none" marker-end="url(#arrowBlue)"/>
  <path d="M480 156 V228" stroke="#c9c9c9" stroke-width="2.5" fill="none" marker-end="url(#arrowGray)"/>
  <path d="M770 156 V228" stroke="#a8d39a" stroke-width="2.5" fill="none" marker-end="url(#arrowGreen)"/>

  <rect x="82" y="228" width="230" height="350" rx="18" fill="url(#cardBlue)"/>
  <rect x="365" y="228" width="230" height="350" rx="18" fill="url(#cardGray)"/>
  <rect x="648" y="228" width="230" height="350" rx="18" fill="url(#cardGreen)"/>

  <text x="197" y="272" text-anchor="middle" class="cardTitle">team-a</text>
  <text x="480" y="272" text-anchor="middle" class="cardTitle">team-b</text>
  <text x="763" y="272" text-anchor="middle" class="cardTitle">default</text>

  <g transform="translate(108 316)">
    <path class="icon" d="M7 0 H21"/>
    <path class="icon" d="M11 0 V9 L4 24 A3 3 0 0 0 7 28 H21 A3 3 0 0 0 24 24 L17 9 V0"/>
    <path class="icon" d="M10 21 H18"/>
    <circle cx="12" cy="17" r="1.3" fill="#111827"/>
    <circle cx="18" cy="22" r="1.3" fill="#111827"/>
  </g>
  <text x="158" y="338" class="body">Experiments</text>

  <g transform="translate(108 370)">
    <rect x="6" y="4" width="16" height="7" rx="1.5" class="icon"/>
    <rect x="3" y="12" width="16" height="7" rx="1.5" class="icon"/>
    <rect x="6" y="20" width="16" height="7" rx="1.5" class="icon"/>
  </g>
  <text x="158" y="392" class="body">Registered models</text>

  <g transform="translate(108 424)">
    <path class="icon" d="M4 7 A4 4 0 0 1 8 3 H20 A4 4 0 0 1 24 7 V17 A4 4 0 0 1 20 21 H12 L7 26 V21 H8 A4 4 0 0 1 4 17 Z"/>
    <path class="icon" d="M9 9 H19"/>
    <path class="icon" d="M9 14 H16"/>
  </g>
  <text x="158" y="446" class="body">Prompts</text>

  <g transform="translate(108 478)">
    <path class="icon" d="M5 15 H23"/>
    <path class="icon" d="M17 8 L24 15 L17 22"/>
    <path class="icon" d="M11 8 L4 15 L11 22"/>
  </g>
  <text x="158" y="500" class="body">Gateway</text>

  <g transform="translate(108 532)">
    <ellipse cx="14" cy="6" rx="11" ry="5" class="icon"/>
    <path class="icon" d="M3 6 V23"/>
    <path class="icon" d="M25 6 V23"/>
    <path class="icon" d="M3 15 C3 21 25 21 25 15"/>
    <path class="icon" d="M3 23 C3 29 25 29 25 23"/>
  </g>
  <text x="158" y="554" class="body">Artifact isolation</text>

  <g transform="translate(391 316)">
    <path class="icon" d="M7 0 H21"/>
    <path class="icon" d="M11 0 V9 L4 24 A3 3 0 0 0 7 28 H21 A3 3 0 0 0 24 24 L17 9 V0"/>
    <path class="icon" d="M10 21 H18"/>
    <circle cx="12" cy="17" r="1.3" fill="#111827"/>
    <circle cx="18" cy="22" r="1.3" fill="#111827"/>
  </g>
  <text x="441" y="338" class="body">Experiments</text>

  <g transform="translate(391 370)">
    <rect x="6" y="4" width="16" height="7" rx="1.5" class="icon"/>
    <rect x="3" y="12" width="16" height="7" rx="1.5" class="icon"/>
    <rect x="6" y="20" width="16" height="7" rx="1.5" class="icon"/>
  </g>
  <text x="441" y="392" class="body">Registered models</text>

  <g transform="translate(391 424)">
    <path class="icon" d="M4 7 A4 4 0 0 1 8 3 H20 A4 4 0 0 1 24 7 V17 A4 4 0 0 1 20 21 H12 L7 26 V21 H8 A4 4 0 0 1 4 17 Z"/>
    <path class="icon" d="M9 9 H19"/>
    <path class="icon" d="M9 14 H16"/>
  </g>
  <text x="441" y="446" class="body">Prompts</text>

  <g transform="translate(391 478)">
    <path class="icon" d="M5 15 H23"/>
    <path class="icon" d="M17 8 L24 15 L17 22"/>
    <path class="icon" d="M11 8 L4 15 L11 22"/>
  </g>
  <text x="441" y="500" class="body">Gateway</text>

  <g transform="translate(391 532)">
    <ellipse cx="14" cy="6" rx="11" ry="5" class="icon"/>
    <path class="icon" d="M3 6 V23"/>
    <path class="icon" d="M25 6 V23"/>
    <path class="icon" d="M3 15 C3 21 25 21 25 15"/>
    <path class="icon" d="M3 23 C3 29 25 29 25 23"/>
  </g>
  <text x="441" y="554" class="body">Artifact isolation</text>

  <g transform="translate(674 316)">
    <path class="icon" d="M7 0 H21"/>
    <path class="icon" d="M11 0 V9 L4 24 A3 3 0 0 0 7 28 H21 A3 3 0 0 0 24 24 L17 9 V0"/>
    <path class="icon" d="M10 21 H18"/>
    <circle cx="12" cy="17" r="1.3" fill="#111827"/>
    <circle cx="18" cy="22" r="1.3" fill="#111827"/>
  </g>
  <text x="724" y="338" class="body">Experiments</text>

  <g transform="translate(674 370)">
    <rect x="6" y="4" width="16" height="7" rx="1.5" class="icon"/>
    <rect x="3" y="12" width="16" height="7" rx="1.5" class="icon"/>
    <rect x="6" y="20" width="16" height="7" rx="1.5" class="icon"/>
  </g>
  <text x="724" y="392" class="body">Registered models</text>

  <g transform="translate(674 424)">
    <path class="icon" d="M4 7 A4 4 0 0 1 8 3 H20 A4 4 0 0 1 24 7 V17 A4 4 0 0 1 20 21 H12 L7 26 V21 H8 A4 4 0 0 1 4 17 Z"/>
    <path class="icon" d="M9 9 H19"/>
    <path class="icon" d="M9 14 H16"/>
  </g>
  <text x="724" y="446" class="body">Prompts</text>

  <g transform="translate(674 478)">
    <path class="icon" d="M5 15 H23"/>
    <path class="icon" d="M17 8 L24 15 L17 22"/>
    <path class="icon" d="M11 8 L4 15 L11 22"/>
  </g>
  <text x="724" y="500" class="body">Gateway</text>

  <g transform="translate(674 532)">
    <ellipse cx="14" cy="6" rx="11" ry="5" class="icon"/>
    <path class="icon" d="M3 6 V23"/>
    <path class="icon" d="M25 6 V23"/>
    <path class="icon" d="M3 15 C3 21 25 21 25 15"/>
    <path class="icon" d="M3 23 C3 29 25 29 25 23"/>
  </g>
  <text x="724" y="554" class="body">Artifact isolation</text>
</svg>
