<svg width="48" height="48" viewBox="0 0 48 48" fill="none" xmlns="http://www.w3.org/2000/svg">
<g clip-path="url(#clip0_1407_5612)">
<path fill-rule="evenodd" clip-rule="evenodd" d="M8.25 10.5C6.17893 10.5 4.5 12.1789 4.5 14.25C4.5 16.321 6.17893 18 8.25 18C10.3211 18 12 16.321 12 14.25C12 12.1789 10.3211 10.5 8.25 10.5ZM0 14.25C0 9.69361 3.69365 5.99996 8.25 5.99996C11.3305 5.99996 14.0166 7.68828 15.4336 10.1901L28.5497 7.33879C29.0032 3.21121 32.5015 0 36.7499 0C41.3063 0 44.9999 3.69365 44.9999 8.25C44.9999 11.6306 42.9666 14.5362 40.0563 15.8107L40.9024 22.5798C44.9132 23.1405 47.9999 26.5847 47.9999 30.75C47.9999 35.3063 44.3062 39 39.7499 39C37.1686 39 34.8643 37.8145 33.3515 35.9583L25.4925 39.3966C25.4974 39.5138 25.4999 39.6316 25.4999 39.75C25.4999 44.3063 21.8062 48 17.2499 48C12.6935 48 8.9999 44.3063 8.9999 39.75C8.9999 37.0707 10.277 34.6898 12.2557 33.1828L9.03965 22.4627C8.77976 22.4873 8.51635 22.5 8.25 22.5C3.69365 22.5 0 18.8063 0 14.25ZM16.396 15.5635C16.4483 15.2365 16.4814 14.9032 16.4941 14.5646L29.2923 11.7825C30.4585 14.2401 32.8038 16.0296 35.5974 16.4201L36.4435 23.1892C35.3126 23.6845 34.314 24.4261 33.5158 25.3462L16.396 15.5635ZM14.484 19.6538C14.112 20.0826 13.6964 20.4727 13.2441 20.8172L16.4602 31.5373C16.7201 31.5126 16.9835 31.5 17.2499 31.5C20.0845 31.5 22.5852 32.9295 24.0704 35.107L31.5694 31.8262C31.5236 31.4739 31.4999 31.1147 31.4999 30.75C31.4999 30.303 31.5354 29.8643 31.6039 29.4365L14.484 19.6538ZM35.9999 30.75C35.9999 28.6789 37.6788 27 39.7499 27C41.821 27 43.4999 28.6789 43.4999 30.75C43.4999 32.821 41.821 34.5 39.7499 34.5C37.6788 34.5 35.9999 32.821 35.9999 30.75ZM17.2499 36C15.1788 36 13.4999 37.6789 13.4999 39.75C13.4999 41.821 15.1788 43.5 17.2499 43.5C19.321 43.5 20.9999 41.821 20.9999 39.75C20.9999 37.6789 19.321 36 17.2499 36ZM32.9999 8.25C32.9999 6.17893 34.6788 4.5 36.7499 4.5C38.821 4.5 40.4999 6.17893 40.4999 8.25C40.4999 10.3211 38.821 12 36.7499 12C34.6788 12 32.9999 10.3211 32.9999 8.25Z" fill="#43C9ED"/>
</g>
<defs>
<clipPath id="clip0_1407_5612">
<rect width="48" height="48" fill="white"/>
</clipPath>
</defs>
</svg>
