<svg width="48" height="48" viewBox="0 0 48 48" fill="none" xmlns="http://www.w3.org/2000/svg">
<g clip-path="url(#clip0_3_12)">
<path fill-rule="evenodd" clip-rule="evenodd" d="M7.5 24C7.5 14.8873 14.8873 7.5 24 7.5C33.1127 7.5 40.5 14.8873 40.5 24C40.5 33.1127 33.1127 40.5 24 40.5C14.8873 40.5 7.5 33.1127 7.5 24ZM24 3C12.402 3 3 12.402 3 24C3 35.598 12.402 45 24 45C28.9869 45 33.5677 43.2617 37.1698 40.3581L44.8194 48.0092L48.0017 44.8275L40.3525 37.1768C43.2595 33.5737 45 28.9901 45 24C45 12.402 35.598 3 24 3Z" fill="#43C9ED"/>
</g>
<defs>
<clipPath id="clip0_3_12">
<rect width="48" height="48" fill="white"/>
</clipPath>
</defs>
</svg>
