<svg width="48" height="48" viewBox="0 0 48 48" fill="none" xmlns="http://www.w3.org/2000/svg">
<path d="M10.1812 16.7592C11.7388 10.576 17.3336 6 24 6C31.6513 6 37.8941 12.0301 38.2353 19.5972C42.4773 20.1567 45.9742 23.0797 47.3599 27H42.3633C41.1525 25.191 39.0903 24 36.75 24H36C34.7574 24 33.75 22.9926 33.75 21.75V20.25C33.75 14.8652 29.3848 10.5 24 10.5C19.0239 10.5 14.9156 14.2297 14.3235 19.045C14.1912 20.1205 13.3111 20.949 12.2295 21.0161C7.91675 21.2834 4.5 24.8686 4.5 29.25C4.5 33.5534 7.7962 37.0888 12 37.4665V42C11.8154 42 11.6359 41.9778 11.4642 41.9358C5.02534 41.29 0 35.8578 0 29.25C0 23.0881 4.37007 17.9484 10.1812 16.7592Z" fill="#43C9ED"/>
<path fill-rule="evenodd" clip-rule="evenodd" d="M24 21C27.7279 21 30.75 24.0221 30.75 27.75C30.75 28.7921 30.5139 29.779 30.0922 30.6602L31.5898 32.1578C32.471 31.7361 33.4579 31.5 34.5 31.5C38.2279 31.5 41.25 34.5221 41.25 38.25C41.25 41.9779 38.2279 45 34.5 45C30.7721 45 27.75 41.9779 27.75 38.25C27.75 37.2079 27.9861 36.221 28.4078 35.3398L26.9102 33.8422C26.029 34.2639 25.0421 34.5 24 34.5C20.2721 34.5 17.25 31.4779 17.25 27.75C17.25 24.0221 20.2721 21 24 21ZM26.25 27.75C26.25 26.5074 25.2426 25.5 24 25.5C22.7574 25.5 21.75 26.5074 21.75 27.75C21.75 28.9926 22.7574 30 24 30C25.2426 30 26.25 28.9926 26.25 27.75ZM36.75 38.25C36.75 37.0074 35.7426 36 34.5 36C33.2574 36 32.25 37.0074 32.25 38.25C32.25 39.4926 33.2574 40.5 34.5 40.5C35.7426 40.5 36.75 39.4926 36.75 38.25Z" fill="#43C9ED"/>
</svg>
