<svg width="49" height="48" viewBox="0 0 49 48" fill="none" xmlns="http://www.w3.org/2000/svg">
<path fill-rule="evenodd" clip-rule="evenodd" d="M41.0752 8.01552C42.8834 8.57526 44.3044 10.2185 44.7884 12.3095C45.663 16.0957 45.6666 24 45.6666 24C45.6666 24 45.6666 31.9044 44.7884 35.6906C44.3044 37.7816 42.8834 39.4248 41.0752 39.9844C37.8012 41 24.6666 41 24.6666 41C24.6666 41 11.5321 41 8.25799 39.9844C6.44981 39.4248 5.02883 37.7816 4.54479 35.6906C3.66663 31.9044 3.66663 24 3.66663 24C3.66663 24 3.66663 16.0957 4.54479 12.3095C5.02883 10.2185 6.44981 8.57526 8.25799 8.01552C11.5321 7 24.6666 7 24.6666 7C24.6666 7 37.8012 7 41.0752 8.01552ZM31.6934 24.0006L20.2623 30.5998V17.4013L31.6934 24.0006Z" fill="white"/>
</svg>
