<svg width="60" height="60" xmlns="http://www.w3.org/2000/svg">
    <path d="M46.48 28.743c-1.573.332-2.057-1.033-3.367-1.896-1.313-.865-2.518-1.196-3.733-2.404-.489-.488-.614-1.319-1.1-1.828-.646-.688-1.04-.876-1.919-1.22-1.541-.597-2.865-1.04-4.146-2.094-.216-.176-.726-.41-1.2-.499-.204-.044-.295-.01-.363.066-.191.246-.366.543-.536.821-.047.077-.205.3-.333.42-.247.223-.556.51-.794.642-1.288.788-2.987 1.454-3.72 2.772-.136.242-1.542.898-1.866 1.151-.511.421-1.012.832-1.537 1.22-.492.366-1.171.93-1.684 1.307a4.815 4.815 0 0 0-.803-.231c-.604-.123-1.111-.589-1.63-.898-.666-.421-.616-.465-.826-.588-.184-.1-.274-.166-.345-.199-.495-.29-.525 0-1.227.432-.586.355-1.26.953-1.764 1.43-.401.376-.81.775-1.229 1.185.601-9.064 8.269-16.221 17.644-16.221 9.28 0 16.887 7.024 17.62 15.954-.286.378-.692.579-1.141.678zM29.99 10c-10.35 0-18.74 8.359-18.74 18.67 0 4.295 1.458 8.237 3.904 11.393l.513-.421a17.15 17.15 0 0 1-2.914-6.233c.158.033.35.088.664.187 1.042.333 3.006.973 4.42.333.899-.421 2.464-.765 3.065-.997.568-.233 1.769.287.351-.643h-.007a.386.386 0 0 0-.072-.033.653.653 0 0 0-.146-.044c-.139-.033-1.275.187-1.527.154a.927.927 0 0 1-.229-.088c-.616-.332 2.015-2.38 2.101-2.891-.755.08-1.378.555-2.054.853-.794.344-1.666.355-2.516.366-.973 0-1.73.753-2.586 1.097-.447.188-1.18.355-1.676.674-.036-.209-.069-.42-.096-.63.016-.366.055-.809.146-1.318.195-1.108.646-1.971 1.65-3.3 0 0 .98-1.172 1.55-1.55.222-.155.462-.364.698-.222.25.157-.069 1.12.599 1.285.403.088.047.753.187 1.141.147.41-1.662 1.992-1.185 2.181.266.11 1.465-.497 2.101-.698.561-.176 1.159-.187 1.774-.764a6.682 6.682 0 0 1 1.26-.92c.515-.431 1.015-.874 1.524-1.306.495-.432.97-.874 1.45-1.318.3-.286 1.66-1.04 1.78-1.295.632-1.362 2.283-2.16 3.51-3.023.226-.155.47-.487.609-.674.14-.19.286-.476.367-.566.156-.177.195-.31.37-.397.07-.035.347-.035.466.1.4.42.945.786.965 1.228.033.686 1.961 1.285 2.4 1.816.182.22.287.432.362.641a4.426 4.426 0 0 1-.961-.508c-.195-.144-.648-.11-.88-.144-.667-.123-.513.187-.144.564.377.399.815.731 1.16 1.164.397.487.36.885.468 1.471.118.622.49 1.164.796 1.717.31.553.29 1.14.461 1.738.186.597.697 1.097 1.12 1.54.36.375 1.181 1.296 1.63 1.096.476-.199 1.068.376 1.246.211.18-.156-.477-.92-.225-1.152.253-.234 1.348.132 1.573.83.256.82.229.886.189 1.472-.028.388-.18.699-.442.974-.325.322-1.078.864-.93 1.408.69-.366 1.442-.399 2.214-.377.747.022 1.298-.289 1.799-.819.221-.234.857-.974 1.219-.597.22.22-.423 1.127.282.94.469-.123.887-.487 1.312-.72.114-.067.219-.132.31-.198a17.198 17.198 0 0 1-2.979 6.332l.513.42a18.558 18.558 0 0 0 3.971-11.48C48.73 18.358 40.337 10 29.99 10zm-6.687 29.695c-.03.197-.305 1.896-.606 3.772a6.312 6.312 0 0 1-1.716-.67c-.613-.34-1.078-.689-1.47-1.094 1.438-1.25 2.736-2.38 2.896-2.512.388-.329.577-.405.758-.307.177.098.214.307.138.811zm1.02-2.732s-.045-.033-.098-.057c-.05-.022-.087-.044-.091-.055l.004.01c-.879-.485-1.748-.463-2.747.267-1.38.993-8.025 6.594-8.025 6.594l1.917 1.624s1.066-.927 2.372-2.055a12.54 12.54 0 0 0 2.17 1.525c.804.442 1.625.783 2.44 1.016l-.502 3.104 2.393.762s1.269-8.583 1.39-10.273c.09-1.226-.35-1.977-1.222-2.462zM28.68 50h2.52V37.739h-2.52V50zm10.11-7.192a6.342 6.342 0 0 1-1.716.66c-.297-1.877-.564-3.576-.6-3.773-.073-.504-.037-.702.143-.81.176-.1.37-.023.752.306.166.142 1.465 1.272 2.898 2.522a6.333 6.333 0 0 1-1.476 1.095zm-3.238-5.955c-.004.01-.044.033-.097.055-.05.024-.087.046-.087.046-.875.486-1.324 1.235-1.236 2.461.123 1.702 1.376 10.283 1.376 10.283l2.397-.762-.494-3.092a12.753 12.753 0 0 0 2.446-1.027 11.962 11.962 0 0 0 2.162-1.525 925.804 925.804 0 0 1 2.375 2.077l1.918-1.624s-6.636-5.622-8.014-6.615c-.995-.73-1.868-.752-2.746-.277zm-2.207-4.446c-.213-.187-.665-.596-.895-1.293-.22-.662-.553-1.192-1.11-1.623-.993-.774-3.343-1.946-3.18-3.528.073-.706.928-.851 1.278-1.37.212-.297.242-.706.492-.983.282-.321-.113-.321-.39-.343-.59-.022-1.032.62-1.523.884-.804.42-1.528 1.018-2.435 1.216-.266.055-1.62.475-.737.698.605.153 1.283.11 1.784.54.644.552 1.168 1.26 1.815 1.813.328.277.647.54.913.884.308.398.268.851.496 1.26.22.398.653.044.924.266.884.728-.346 1.082-.663 1.425-.415.454-.496.741-1.256 1.05-.336.134-2.516.397-2.782.598-.269.198-.127.264-.058.34.07.08.444.2.61.211.917.088 3.734.619 4.312-.098.394-.497.98-.555 1.629-.376.456.12 1.361.033 2.147-.288.454-.187 1.711-.199 1.359-.388-.434-.84-1.957-.187-2.73-.895z" fill="#D31145" fill-rule="evenodd"/>
</svg>
