<svg xmlns="http://www.w3.org/2000/svg" width="124.5" height="57.5" viewBox="0 0 124.5 57.5">
  <g id="amd-logo" transform="translate(-2.2 -1.3)">
    <path id="Path_3561" data-name="Path 3561" d="M5.4,38.5a3.159,3.159,0,0,1-3.2-3.2,3.429,3.429,0,0,1,.4-1.6L15.9,4A4.205,4.205,0,0,1,20,1.3h.3a4.312,4.312,0,0,1,4,2.7L37.8,34.2a3.553,3.553,0,0,1,.2,1,1.7,1.7,0,0,1-.1.7l-.2.4a3.493,3.493,0,0,1-3.1,2.2h-.1a3.124,3.124,0,0,1-3-2.1l-.1-.3-2.9-6.7-2.4-5.6L20,10,14,23.9l-2.4,5.6-3,6.9a3.486,3.486,0,0,1-3.2,2.1" fill="#0c97dd"/>
    <path id="Path_3562" data-name="Path 3562" d="M93,38.5h-.5a3.762,3.762,0,0,1-2.9-2.3l-2.9-6.7-2.4-5.6L78.3,10l-6,13.9-2.4,5.6-3,6.9a3.493,3.493,0,0,1-3.1,2.2,3.455,3.455,0,0,1-3.1-2.1l-.1-.1a.1.1,0,0,0-.1-.1l-2.9-6.7L55.2,24l-6-13.9L43.2,24l-1,2.3-3.5-7.8L45.1,4a4.205,4.205,0,0,1,4.1-2.7h.3a4.312,4.312,0,0,1,4,2.7L63.9,27.2,74.2,4a4.205,4.205,0,0,1,4.1-2.7h.3a4.167,4.167,0,0,1,4,2.7L95.2,32.1h12.3c7.3,0,12.1-4.7,12.1-11.8s-5-12-12.1-12H96.6a3.159,3.159,0,0,1-3.2-3.2V4.8h0V4.7a.756.756,0,0,1,.1-.4V4.2a3.713,3.713,0,0,1,3.4-2.3h10.5c11.2,0,19.3,7.6,19.3,18.1v.1c0,10.6-8.1,18.2-19.3,18.2H93Z" fill="#0c97dd"/>
    <path id="dot" d="M20.1,24.8a3.8,3.8,0,1,0,3.8,3.8,3.8,3.8,0,0,0-3.8-3.8" fill="#ed1d24"/>
    <path id="Path_3563" data-name="Path 3563" d="M5.3,51.5h-2a.7.7,0,0,1,0-1.4H8.9a.7.7,0,0,1,0,1.4H6.8v6.4a.7.7,0,1,1-1.4,0V51.5Z" fill="#0c97dd"/>
    <path id="Path_3564" data-name="Path 3564" d="M21.8,57.8V50.9a.684.684,0,0,1,.7-.7h4.9a.7.7,0,0,1,0,1.4H23.3v2.2h3.6a.684.684,0,0,1,.7.7c0,.4-.3.6-.7.6H23.3v2.3h4.2a.7.7,0,1,1,0,1.4H22.6a1.15,1.15,0,0,1-.8-1" fill="#0c97dd"/>
    <path id="Path_3565" data-name="Path 3565" d="M40.7,50.9a.7.7,0,1,1,1.4,0v6.4h3.8a.7.7,0,0,1,0,1.4H41.4a.684.684,0,0,1-.7-.7Z" fill="#0c97dd"/>
    <path id="Path_3566" data-name="Path 3566" d="M58.9,57.8V50.9a.684.684,0,0,1,.7-.7h4.9a.7.7,0,0,1,0,1.4H60.3v2.2H64a.684.684,0,0,1,.7.7c0,.4-.3.6-.7.6H60.4v2.3h4.2a.7.7,0,0,1,0,1.4H59.7a1.15,1.15,0,0,1-.8-1" fill="#0c97dd"/>
    <path id="Path_3567" data-name="Path 3567" d="M77.4,54.4h0A4.29,4.29,0,0,1,81.7,50a5,5,0,0,1,2.9.9.6.6,0,0,1,.3.6.684.684,0,0,1-.7.7c-.2,0-.3-.1-.4-.1a2.973,2.973,0,0,0-2-.8,2.845,2.845,0,0,0-2.8,3h0a2.906,2.906,0,0,0,2.8,3,3.037,3.037,0,0,0,2.1-.8.758.758,0,0,1,.4-.2.684.684,0,0,1,.7.7.764.764,0,0,1-.2.5,4.248,4.248,0,0,1-3,1.1,4.1,4.1,0,0,1-4.4-4.2" fill="#0c97dd"/>
    <path id="Path_3568" data-name="Path 3568" d="M96.8,54.4h0a4.4,4.4,0,0,1,8.8-.1h0a4.232,4.232,0,0,1-4.4,4.3,4.1,4.1,0,0,1-4.4-4.2m7.2,0h0a2.865,2.865,0,0,0-2.9-3,2.786,2.786,0,0,0-2.8,3h0a2.854,2.854,0,1,0,5.7,0" fill="#0c97dd"/>
    <path id="Path_3569" data-name="Path 3569" d="M118.1,50.9a.684.684,0,0,1,.7-.7h.2a1.012,1.012,0,0,1,.7.4l2.5,4,2.6-4a.755.755,0,0,1,.7-.4h.2a.684.684,0,0,1,.7.7v7a.7.7,0,1,1-1.4,0v-5L122.9,56c-.2.2-.3.4-.6.4a.548.548,0,0,1-.6-.4l-2-3.1v5a.7.7,0,1,1-1.4,0v-7Z" fill="#0c97dd"/>
  </g>
</svg>
