<svg xmlns="http://www.w3.org/2000/svg" viewBox="0 0 108 30">
  <path d="M72.831 29.063l3.781-17.72 1.44 17.72h8.159L82.429.938h-8.725L69.63 17.811 65.56.937h-8.726l-3.781 28.125h8.144l1.454-17.718 3.781 17.718zM90 .938v28.125h18v-5.907H97.594V.938zM8.768.938L0 29.063h8.768L9.938 24h7.598l1.17 5.063h8.768L18.706.938H8.768zm4.969 6.187l2.63 11.531h-5.26l2.63-11.531zM47.789 8.883c-7.273-6.202-18.623-3.68-18.735 1.998C27.404.346 40.472-1.854 47.788 1.463c.13 1.692.261 3.513.001 7.42zm-6.035 3.36c2.997 1.14 8.377 2.583 8.377 8.625 0 3.714-3.675 7.194-7.928 8.469-5.262 1.578-10.511.018-13.734-1.335v-6.848c2.723 1.889 5.111 2.9 8.081 2.96 1.788.038 4.506-.834 4.506-3.246 0-2.065-1.96-2.703-3.088-3.304C31.493 14.114 33.445 7.171 39.3 6.6c-1.7.55-2.05 1.45-2.048 2.28.004 2.032 2.67 2.666 4.502 3.363z" fill="#0f0698"/>
</svg>