<?xml version="1.0" encoding="UTF-8"?> <svg xmlns="http://www.w3.org/2000/svg" id="Layer_1" data-name="Layer 1" width="217.5" height="84" viewBox="0 0 217.5 84"><defs><style>.cls-1{fill:#6d6e70;}.cls-2{fill:#f1801f;}.cls-3{fill:#fff;}</style></defs><title>logo-hipotecario_02</title><path class="cls-1" d="M53.31973,32.211h1.70336c1.33771,0,2.14935-.63747,2.14935-1.85824a1.932,1.932,0,0,0-2.16482-1.87383h-1.6879Zm0-4.52891h1.39559a1.64174,1.64174,0,0,0,1.72609-1.648A1.557,1.557,0,0,0,54.7399,24.5087H53.31973Zm-.95634-3.54627c0-.33235.1595-.50519.58527-.50519h1.71446c2.057,0,2.73317,1.30137,2.73317,2.36475a1.91835,1.91835,0,0,1-1.34075,1.97836v.02775a2.24512,2.24512,0,0,1,2.07258,2.377,2.66313,2.66313,0,0,1-3.001,2.70873H52.94866c-.4271,0-.58527-.17034-.58527-.50387V24.13578"></path><path class="cls-1" d="M63.4688,24.799h-.02775l-1.96488,5.35363h3.958Zm-2.93457,7.93074c-.12131.23945-.20073.4382-.53374.4382a.37807.37807,0,0,1-.42445-.37239,1.2324,1.2324,0,0,1,.09409-.39935l3.0424-8.15459c.11748-.30526.26456-.69112.74266-.69112s.624.38587.74332.69112l3.0424,8.15459a1.22784,1.22784,0,0,1,.0929.39935.37867.37867,0,0,1-.42392.37239c-.33367,0-.44-.19875-.53308-.4382l-.62386-1.70019H61.15744l-.6232,1.70019"></path><path class="cls-1" d="M70.12182,32.55811c0,.39816-.17166.61038-.4781.61038-.30513,0-.47678-.21223-.47678-.61038V24.10737c0-.36974.21289-.55752.47678-.55752a.671.671,0,0,1,.55937.34649L75.278,31.32122h.02326v-7.159c0-.39935.17417-.61236.48061-.61236.3046,0,.4781.213.4781.61236v8.42113c0,.45234-.18514.58514-.45167.58514-.25161,0-.35745-.11933-.518-.34583l-5.1414-7.519h-.02709v7.25442"></path><path class="cls-1" d="M85.42512,24.97134a.45932.45932,0,0,1-.4271.50519c-.39683,0-.88855-1.04911-2.45712-1.04911-1.99,0-3.0675,2.13839-3.0675,4.06243,0,1.9551.95621,3.80118,3.24167,3.80118,1.659,0,2.16614-.9311,2.50932-.9311.23879,0,.40014.1484.40014.48009,0,.411-1.22407,1.32846-2.96166,1.32846-2.89651,0-4.22642-2.15186-4.22642-4.67863,0-2.48091,1.32992-4.94,4.11793-4.94,1.59447,0,2.87074.957,2.87074,1.42149"></path><path class="cls-1" d="M94.07143,28.3589c0-1.77895-.75693-3.93081-2.97527-3.93081-2.217,0-2.97461,2.15186-2.97461,3.93081,0,1.78027.75759,3.9328,2.97461,3.9328,2.21833,0,2.97527-2.15253,2.97527-3.9328m-2.97527-4.80906c2.6675,0,4.01089,2.40545,4.01089,4.80906s-1.3434,4.81024-4.01089,4.81024c-2.668,0-4.01142-2.40677-4.01142-4.81024s1.3434-4.80906,4.01142-4.80906"></path><path class="cls-1" d="M55.26637,61.03212c0,1.1498-.55805,1.74274-1.4466,1.74274-.88591,0-1.44475-.59294-1.44475-1.74274V40.72882c0-1.14716.55885-1.74089,1.44475-1.74089.88855,0,1.4466.59373,1.4466,1.74089V49.599h10.222V40.72882c0-1.14716.5607-1.74089,1.4466-1.74089.88855,0,1.44409.59373,1.44409,1.74089v20.3033c0,1.1498-.55554,1.74274-1.44409,1.74274-.88591,0-1.4466-.59294-1.4466-1.74274v-8.936h-10.222v8.936"></path><path class="cls-1" d="M75.69812,61.22955a1.45044,1.45044,0,1,1-2.89466,0V46.4444a1.45031,1.45031,0,1,1,2.89466,0ZM74.25006,38.9874A1.77406,1.77406,0,1,1,72.47574,40.763a1.76778,1.76778,0,0,1,1.77432-1.77565"></path><path class="cls-1" d="M87.459,60.27585c3.54878,0,4.796-3.48165,4.796-6.43881,0-2.9565-1.24719-6.4396-4.796-6.4396-3.54825,0-4.79492,3.4831-4.79492,6.4396,0,2.95716,1.24666,6.43881,4.79492,6.43881M80.06765,46.44374a1.44873,1.44873,0,1,1,2.89135,0V47.3h.06449c.82274-1.57822,2.36541-2.399,4.667-2.399,4.72964,0,7.45713,4.30439,7.45713,8.936,0,4.63277-2.72749,8.93716-7.45713,8.93716a5.7084,5.7084,0,0,1-4.667-2.36673H82.959v7.721a1.44886,1.44886,0,1,1-2.89135,0V46.44374"></path><path class="cls-1" d="M105.38959,60.27585c3.54825,0,4.79677-3.48165,4.79677-6.43881,0-2.9565-1.24852-6.4396-4.79677-6.4396-3.54759,0-4.79544,3.4831-4.79544,6.4396,0,2.95716,1.24785,6.43881,4.79544,6.43881m0-15.37479c4.92706,0,7.68746,4.30439,7.68746,8.936,0,4.63277-2.7604,8.93716-7.68746,8.93716-4.929,0-7.68746-4.30439-7.68746-8.93716,0-4.63158,2.75841-8.936,7.68746-8.936"></path><path class="cls-1" d="M117.26886,41.32057a1.44772,1.44772,0,1,1,2.88911,0v3.77726h1.18588c.95238,0,1.44475.46,1.44475,1.24918,0,.78851-.49238,1.24719-1.44475,1.24719H120.158V61.22889a1.44784,1.44784,0,1,1-2.88911,0V47.5942h-1.1831c-.95105,0-1.44462-.45868-1.44462-1.24719,0-.78918.49357-1.24918,1.44462-1.24918h1.1831V41.32057"></path><path class="cls-1" d="M136.7181,52.78648c0-2.49769-1.44343-5.389-4.63026-5.389-3.581-.131-4.86376,2.72749-4.96063,5.389Zm-9.59089,2.16878a4.97257,4.97257,0,0,0,5.15805,5.32059c3.84241,0,4.82835-2.36356,5.91247-2.36356a1.1455,1.1455,0,0,1,1.05294,1.28089c0,1.413-3.583,3.58168-7.00083,3.58168-5.584,0-8.014-4.30505-8.014-8.93782,0-4.7303,2.95716-8.936,7.852-8.936,4.76452,0,7.52228,4.30505,7.52228,8.51073,0,1.01752-.35944,1.54346-1.60861,1.54346H127.12721"></path><path class="cls-1" d="M150.25473,44.90107c2.95782,0,4.699,1.01885,4.699,2.20089a1.22818,1.22818,0,0,1-1.18178,1.21759c-1.11888,0-1.54664-.92211-3.5172-.92211-3.57983,0-4.99261,3.4831-4.99261,6.4396,0,2.95716,1.41277,6.43881,4.99261,6.43881,2.035,0,2.561-.984,3.48112-.984a1.08271,1.08271,0,0,1,1.12007,1.21495c0,1.08465-1.61112,2.26736-4.60119,2.26736-5.32324,0-7.88555-4.30439-7.88555-8.93716,0-4.63158,2.56231-8.936,7.88555-8.936"></path><path class="cls-1" d="M164.85977,60.27585c3.54891,0,4.79611-3.48165,4.79611-6.43881,0-2.95531-1.24719-6.4396-4.79611-6.4396-3.54812,0-4.79544,3.48429-4.79544,6.4396,0,2.95716,1.24733,6.43881,4.79544,6.43881m7.5236,1.08465a1.34178,1.34178,0,0,1-1.3467,1.4137,1.32406,1.32406,0,0,1-1.34723-1.4137V60.1449h-.06383a5.6667,5.6667,0,0,1-4.76584,2.62931c-4.92706,0-7.68614-4.30307-7.68614-8.93716,0-4.63158,2.75908-8.93663,7.68614-8.93663a6.11626,6.11626,0,0,1,4.76584,2.33383h.06383V46.3141a1.32406,1.32406,0,0,1,1.34723-1.4137,1.34178,1.34178,0,0,1,1.3467,1.4137v15.0464"></path><path class="cls-1" d="M176.70189,46.44374a1.44829,1.44829,0,1,1,2.89043,0v1.47964h.06739c.65756-1.34736,2.26551-3.02231,3.93993-3.02231a1.47012,1.47012,0,0,1,1.61152,1.48017c0,.8201-.59082,1.34591-1.80511,1.57624-1.71248.29495-3.81373,1.577-3.81373,4.96195v8.30947a1.44846,1.44846,0,1,1-2.89043,0V46.44374"></path><path class="cls-1" d="M191.06246,61.22955a1.44858,1.44858,0,1,1-2.89069,0V46.4444a1.44846,1.44846,0,1,1,2.89069,0ZM189.61652,38.9874a1.77406,1.77406,0,1,1-1.77313,1.77565,1.76805,1.76805,0,0,1,1.77313-1.77565"></path><path class="cls-1" d="M201.93675,60.27585c3.54957,0,4.79677-3.48165,4.79677-6.43881,0-2.9565-1.24719-6.4396-4.79677-6.4396-3.54878,0-4.79663,3.4831-4.79663,6.4396,0,2.95716,1.24785,6.43881,4.79663,6.43881m0-15.37479c4.92719,0,7.68746,4.30439,7.68746,8.936,0,4.63277-2.76026,8.93716-7.68746,8.93716-4.92891,0-7.68865-4.30439-7.68865-8.93716,0-4.63158,2.75974-8.936,7.68865-8.936"></path><path class="cls-2" d="M7.87645,6.40893V57.02321l5.48776-3.16556,5.18528-2.9972,5.82711-3.361.07559-.03621c.0851-.04453.169-.07929.25676-.11483.07479-.02907.14708-.06066.22319-.08259.08206-.02445.162-.04.24262-.05682.08391-.01612.16783-.03092.24843-.04057.08523-.0078.16518-.00648.25042-.00648.08259,0,.16518-.00132.24711.00648.08259.00965.1632.02445.24711.04057.08391.01678.16386.03238.24645.05682.07493.02194.14774.05352.22068.08259a2.70994,2.70994,0,0,1,.25808.11483l.07678.03621,5.82592,3.361,5.18461,2.9972,5.48644,3.16423V6.40893H7.87645"></path><path class="cls-2" d="M32.79508,56.85221l-5.83226-3.36814-.02194-.01678a2.60423,2.60423,0,0,0-2.56033.01678l-5.83041,3.36814-5.18528,2.99007-5.48908,3.17V77.59107H43.46745V63.011L37.9797,59.84228l-5.18461-2.99007"></path><path class="cls-3" d="M43.46679,63.01048l-5.48644-3.1682-5.1858-2.99073-5.83239-3.36748-.02061-.01678a2.6051,2.6051,0,0,0-2.56165.01678l-5.83041,3.36748-5.18528,2.99073L7.87645,63.01167V57.02321l5.48776-3.16556,5.18528-2.9972,5.82777-3.36166.07493-.03555c.0851-.04453.169-.0781.25676-.11483a2.13734,2.13734,0,0,1,.22319-.08127,2.19581,2.19581,0,0,1,.24328-.05814c.08325-.01612.16716-.03092.24777-.04057a2.29647,2.29647,0,0,1,.25042-.00648,2.25682,2.25682,0,0,1,.24777.00648c.08259.00965.16254.02445.24645.04057a2.207,2.207,0,0,1,.24645.05814,2.32235,2.32235,0,0,1,.22134.08127c.08774.03674.17417.0703.25808.11483l.07612.03555,5.82473,3.36166,5.1858,2.9972,5.48644,3.16423v5.98859"></path></svg> 