<svg width="100%" height="100%" viewBox="0 0 925 266" fill="none" xmlns="http://www.w3.org/2000/svg">
    <path
        d="M113.1 0.200011C62.4 0.100011 21.2 41.2 21.1 92C21 142.8 62.1 183.9 112.9 184C163.7 184.1 204.8 143 204.9 92.2C204.9 59.4 187.4 29 159 12.6C145.1 4.50001 129.2 0.200011 113.1 0.200011M113.1 0.200011V6.10001C160.6 6.10001 199 44.6 199 92.1C199 139.6 160.5 178 113 178C65.5 178 27.1 139.5 27.1 92C27.1 77 31.1 62.2 38.6 49.1C54 22.5 82.4 6.10001 113.1 6.10001V0.200011Z"
        fill="#CCC4BE"></path>
    <path
        d="M108.4 26C48.6 26 0.0999835 74.6 0.199983 134.4C0.199983 194.2 48.8 242.7 108.6 242.7C168.4 242.7 216.9 194.1 216.9 134.3C216.9 115.3 211.9 96.7 202.4 80.2C183.1 46.6 147.2 25.9 108.4 26M108.4 26V43.7C158.5 43.6 199.1 84.1 199.2 134.2C199.3 184.3 158.8 225 108.7 225C58.6 225 18 184.6 17.9 134.5C17.8 102.1 35.1 72.1 63.2 55.9C77 48 92.6 43.8 108.4 43.7V26Z"
        fill="#CCC4BE"></path>
    <path
        d="M154.4 37.4C91.4 37.4 40.4 88.4 40.4 151.4C40.4 214.4 91.4 265.4 154.4 265.4C217.4 265.4 268.4 214.4 268.4 151.4C268.4 88.4 217.4 37.4 154.4 37.4M154.4 66.9C201.1 66.9 238.9 104.7 238.9 151.4C238.9 198.1 201.1 235.9 154.4 235.9C107.7 235.9 69.9 198.1 69.9 151.4C70 104.8 107.8 66.9 154.4 66.9Z"
        fill="#F5673E"></path>
    <g fill="#000">
        <path
            d="M389 179.6C389 177 388.5 174.3 387.6 171.9C386.7 169.5 385.3 167.2 383.6 165.2C381.9 163.3 379.9 161.7 377.6 160.6C375.3 159.5 372.7 158.9 370.2 158.9H329.3V200.1H369.1C371.8 200.1 374.5 199.5 377 198.4C379.4 197.3 381.5 195.7 383.2 193.8C385 191.9 386.4 189.6 387.4 187.2C388.4 184.8 389 182.2 389 179.6M329.3 112.5V152.7H366.2C368.8 152.7 371.4 152.2 373.7 151C375.9 149.9 377.9 148.4 379.6 146.5C381.3 144.6 382.6 142.4 383.5 140.1C384.4 137.7 384.9 135.2 384.9 132.6C384.9 130 384.5 127.4 383.5 124.9C382.7 122.6 381.4 120.4 379.8 118.5C378.3 116.7 376.4 115.2 374.2 114.1C372 113 369.5 112.4 367 112.5H329.3ZM396.2 180.5C396.2 184 395.5 187.5 394.1 190.8C392.7 193.9 390.7 196.7 388.3 199.1C385.8 201.5 382.9 203.4 379.7 204.6C376.4 205.9 372.8 206.6 369.2 206.6H322V106H369C372.3 106 375.6 106.7 378.5 108.3C381.3 109.8 383.7 111.8 385.7 114.2C387.7 116.6 389.3 119.4 390.3 122.4C391.4 125.4 391.9 128.5 391.9 131.7C391.9 136.6 390.6 141.5 388.1 145.7C385.6 149.9 381.9 153.1 377.5 155.1C383 156.6 387.8 160 391.2 164.7C394.5 169.2 396.3 174.8 396.2 180.5"></path>
        <path d="M413.8 132.9H420.9V206.6H413.8V132.9ZM413.8 103.2H420.9V116.2H413.8V103.2Z"></path>
        <path
            d="M474.6 201.7C477.7 201.7 480.8 201.1 483.7 199.9C486.6 198.8 489.3 197.2 491.8 195.3C494.1 193.5 496.1 191.4 497.8 188.9C499.3 186.8 500.3 184.4 500.7 181.8V157.6C499.6 154.8 498 152.1 496.2 149.7C494.4 147.3 492.2 145.3 489.7 143.5C487.3 141.8 484.7 140.5 481.9 139.5C479.2 138.5 476.3 138 473.5 138C469.4 137.9 465.3 138.9 461.6 140.8C458.2 142.6 455.2 145.1 452.7 148.2C450.3 151.3 448.4 154.8 447.2 158.5C445.9 162.2 445.3 166.1 445.3 170.1C445.3 174.2 446 178.3 447.6 182.1C449.1 185.8 451.2 189.2 453.8 192.2C456.4 195.1 459.6 197.5 463.2 199.1C466.7 200.8 470.6 201.7 474.6 201.7M472.9 207.8C468 207.8 463.3 206.8 458.9 204.6C454.7 202.5 451 199.6 447.9 196.1C444.8 192.5 442.3 188.4 440.7 184C439 179.5 438.1 174.8 438.1 170C438.1 165.1 438.9 160.2 440.6 155.5C442.2 151 444.5 146.9 447.6 143.2C450.6 139.7 454.3 136.8 458.5 134.8C462.9 132.7 467.7 131.6 472.5 131.7C478.5 131.6 484.4 133.3 489.3 136.7C494 140 498.1 144.2 501.4 149V133H507.9V208.1C508 212.7 507 217.2 505.1 221.3C503.3 225 500.7 228.2 497.5 230.7C494.2 233.3 490.4 235.2 486.4 236.4C482.1 237.7 477.6 238.3 473.1 238.3C469.2 238.3 465.4 237.9 461.6 237.1C458.5 236.4 455.4 235.2 452.6 233.7C450 232.3 447.7 230.4 445.7 228.3C443.7 226.2 441.9 223.8 440.4 221.3L445.2 218C447.9 222.8 452.1 226.7 457.1 229C462.1 231.3 467.6 232.5 473.1 232.5C476.7 232.5 480.3 232 483.8 230.9C487 229.9 490 228.4 492.6 226.3C495.1 224.2 497.2 221.7 498.6 218.7C500.1 215.4 500.9 211.7 500.8 208.1V191.9C497.8 196.7 493.7 200.7 488.8 203.5C483.8 206.3 478.4 207.8 472.9 207.8"></path>
        <path
            d="M562.8 203.1C562.4 203.3 561.8 203.6 560.9 204.2C559.8 204.8 558.7 205.3 557.5 205.7C556 206.2 554.5 206.6 552.9 207C551.1 207.4 549.2 207.6 547.4 207.6C545.5 207.6 543.6 207.3 541.8 206.7C540.1 206.2 538.5 205.3 537.2 204.1C535.9 203 534.8 201.6 534.1 200C533.3 198.2 532.9 196.3 533 194.3V138.7H522.6V132.9H532.9V107.7H540V132.9H557.2V138.7H540V192.6C539.8 195 540.9 197.3 542.8 198.8C544.6 200.2 546.9 200.9 549.2 200.9C551.8 201 554.4 200.5 556.8 199.4C558.9 198.4 560.2 197.8 560.7 197.5L562.8 203.1Z"></path>
        <path d="M575.2 132.9H582.3V206.6H575.2V132.9ZM575.2 103.2H582.3V116.2H575.2V103.2Z"></path>
        <path
            d="M664.8 206.6H657.7V165.5C657.7 156 656.4 149 653.7 144.7C651 140.4 646.8 138.2 640.9 138.2C637.7 138.2 634.6 138.8 631.6 139.9C628.5 141 625.6 142.7 623 144.7C620.3 146.8 618 149.3 616.1 152C614.1 154.7 612.7 157.8 611.7 161V206.6H604.6V132.9H611.3V150.5C612.8 147.7 614.7 145.1 616.9 142.8C619.1 140.5 621.6 138.5 624.4 136.9C627.2 135.2 630.1 134 633.3 133.1C636.4 132.2 639.7 131.7 642.9 131.7C650.9 131.7 656.6 134.5 659.9 140.1C663.2 145.7 664.9 153.8 664.9 164.3L664.8 206.6Z"></path>
        <path
            d="M681.1 169.5C681.1 164.5 682 159.5 683.8 154.8C685.5 150.3 688 146.2 691.3 142.7C698.1 135.5 707.5 131.5 717.4 131.6C723.6 131.5 729.7 133 735.1 136.1C740.1 139 744.1 143.4 746.6 148.7L739.6 151C737.5 147 734.3 143.7 730.3 141.4C726.3 139.1 721.7 137.9 717.1 137.9C713.2 137.9 709.3 138.7 705.8 140.3C702.3 141.9 699.2 144.2 696.6 147C693.9 149.9 691.8 153.3 690.4 157C685.8 169 688.2 182.5 696.7 192.2C699.3 195.1 702.4 197.4 705.9 199.1C711.8 201.9 718.5 202.4 724.7 200.5C727.1 199.8 729.5 198.8 731.7 197.5C733.7 196.3 735.6 194.9 737.2 193.2C738.6 191.7 739.7 190 740.4 188L747.4 190C746.4 192.6 744.9 195.1 743.1 197.2C741.1 199.5 738.8 201.4 736.2 202.9C733.5 204.6 730.5 205.8 727.4 206.7C724.2 207.6 720.8 208.1 717.5 208.1C712.5 208.2 707.6 207.1 703 205.1C698.6 203.1 694.7 200.3 691.5 196.7C684.8 189.3 681.1 179.6 681.1 169.5"></path>
        <path
            d="M783 202.4C788.2 202.5 793.3 201.4 798.1 199.3C802.3 197.5 805.9 194.7 808.7 191.1C810.1 189.5 810.9 187.5 811 185.4V172.4C807.6 171.1 804 170.1 800.4 169.4C796.6 168.7 792.8 168.4 788.9 168.4C785.5 168.4 782.1 168.8 778.8 169.6C776 170.3 773.4 171.4 771 172.9C768.9 174.2 767.2 176 766 178.1C764.8 180.1 764.2 182.5 764.2 184.8C764.2 187.2 764.7 189.6 765.6 191.8C766.5 193.9 767.9 195.8 769.6 197.4C771.3 199 773.4 200.2 775.6 201.1C778 202 780.5 202.4 783 202.4ZM781.6 208.1C775.2 208.1 769.1 205.8 764.4 201.5C762.2 199.5 760.4 197 759.2 194.3C758 191.5 757.3 188.4 757.4 185.3C757.4 182.2 758.1 179.2 759.7 176.5C761.3 173.8 763.4 171.4 766 169.6C769 167.5 772.2 166 775.7 165.1C779.8 164 784 163.4 788.2 163.5C792.2 163.5 796.2 163.9 800.2 164.6C803.9 165.2 807.6 166.2 811.1 167.5V160.3C811.1 153.3 809.1 147.8 805.1 143.7C801.1 139.6 795.7 137.5 788.9 137.5C785 137.6 781.1 138.3 777.5 139.8C773.2 141.5 769.1 143.7 765.2 146.3L762.5 141.5C771.9 135.1 780.9 131.9 789.4 131.9C798.3 131.9 805.3 134.5 810.4 139.6C815.5 144.7 818.1 151.9 818 160.9V196.9C818 199.3 819 200.4 821.1 200.4V206.8C820.6 206.9 820.1 207 819.6 207C819.1 207 818.6 207.1 818.3 207.1C816.6 207.2 814.9 206.5 813.8 205.2C812.7 203.9 812 202.3 811.8 200.6V194.5C808.4 198.9 803.9 202.5 798.8 204.7C793.3 206.9 787.5 208.1 781.6 208.1"></path>
        <path
            d="M899.8 206.6H892.7V165.5C892.7 156 891.4 149 888.7 144.7C886 140.4 881.8 138.2 875.9 138.2C872.7 138.2 869.6 138.8 866.6 139.9C863.5 141 860.6 142.7 858 144.7C855.3 146.8 853 149.3 851 152C849 154.7 847.6 157.8 846.6 161V206.6H839.5V132.9H846.2V150.5C847.7 147.7 849.6 145.1 851.8 142.8C854 140.5 856.5 138.5 859.3 136.9C862.1 135.3 865.1 134 868.2 133.1C871.3 132.2 874.6 131.7 877.8 131.7C885.8 131.7 891.5 134.5 894.8 140.1C898.1 145.7 899.8 153.8 899.8 164.3V206.6Z"></path>
        <path
            d="M912 102.5C919.2 102.5 924.5 107.8 924.5 115C924.5 122.2 919.2 127.5 912 127.5C904.8 127.5 899.5 122.2 899.5 115C899.5 107.8 904.8 102.5 912 102.5ZM912 125.6C918 125.6 922.5 121.1 922.5 115C922.5 108.9 918 104.4 912 104.4C906 104.4 901.5 108.9 901.5 115C901.5 121.1 906 125.6 912 125.6ZM915.8 121.5L912.1 115.6H909.4V121.5H907.4V107.8H912.3C914.9 107.8 916.7 109.3 916.7 111.7C916.7 113.3 915.8 114.6 914.3 115.2L918.2 121.5H915.8ZM912.1 113.7C913.7 113.7 914.6 113 914.6 111.7C914.6 110.4 913.7 109.7 912.1 109.7H909.4V113.6L912.1 113.7Z"></path>
    </g>
</svg>