<svg id="Calque_1" data-name="Calque 1" xmlns="http://www.w3.org/2000/svg" viewBox="0 0 213 52.27"><defs><style>.cls-1{fill:#000;}.cls-2{fill:#00aec9;}</style></defs><path id="Tracé_3853" data-name="Tracé 3853" class="cls-1" d="M3.33,32.61,0,20.56H41.64c-.13.48-.25,1-.39,1.42-.58,2.13-1.18,4.27-1.77,6.4-.13.48-.28.95-.39,1.43a.49.49,0,0,1-.4.4c-1.7.43-3.39.88-5.09,1.3a.53.53,0,0,0-.45.46c-.44,1.75-.91,3.5-1.37,5.24Q30.88,40.63,30,44a.53.53,0,0,1-.31.31l-4.57,1.21a.64.64,0,0,0-.33.23L22,49.66l-1.83,2.61c-.45-.53-.89-1-1.3-1.54-1.29-1.61-2.61-3.2-3.84-4.86a25.35,25.35,0,0,1-3.79-6.75c-.52-1.51-.94-3-1.42-4.58a.83.83,0,0,0-.21-.39c-1.51-1.36-3-2.72-4.53-4.07L5,30,3.43,32.63ZM20.9,21.73H1.66l2.15,7.63L4.71,28l1.53,1.39C7.53,30.61,8.8,31.84,10.12,33a2.73,2.73,0,0,1,1.24,2.32l0,.16a21.52,21.52,0,0,0,2.51,6.42,48,48,0,0,0,5.37,7.59c.26.31.54.61.87,1a1.85,1.85,0,0,0,0-.23c-.28-1.81-.57-3.62-.85-5.43a6.39,6.39,0,0,1-.18-1.85c.43-2.77.94-5.53,1.41-8.3a1.68,1.68,0,0,0,0-.74c-.42-1.54-.87-3.08-1.3-4.62a1.76,1.76,0,0,1-.08-1c.39-1.39.75-2.79,1.12-4.19.22-.79.43-1.56.64-2.37Z"/><path id="Tracé_3854" data-name="Tracé 3854" class="cls-2" d="M1.08,18.8,15.92,0l1,1.31L22.55,8.6c.48.62.47.6,1.21.3,1.84-.75,3.69-1.5,5.54-2.23a.41.41,0,0,1,.35.09l4.29,4.73,3.75,4.11,2.61,2.89c.08.09.14.18.24.31Zm15.79-1.2C18,17,19,16.32,20.14,15.69a.46.46,0,0,1,.38,0c1.29.63,2.56,1.29,3.85,1.92a1.47,1.47,0,0,0,.65.15H37.57v-.07l-11.82-4a2.39,2.39,0,0,1,.22-.23c.8-.63,1.62-1.25,2.42-1.89a.64.64,0,0,0,.26-.38c.08-1.19.12-2.38.18-3.64-.15.07-.25.1-.34.15l-5.4,2.93a.94.94,0,0,1-.4.13c-1.47.05-2.95.11-4.43.15-.53,0-1.06,0-1.6,0a.52.52,0,0,1,0-.11c.07-1.35.13-2.7.22-4A2.91,2.91,0,0,0,16.3,4.2s0,0,0,0l-.89-1.29L3.66,17.74l.22,0"/><path id="Tracé_3855" data-name="Tracé 3855" class="cls-1" d="M148.33,11.33c.81,0,1.55,0,2.28,0,.08,0,.19.14.21.23q.72,2.58,1.42,5.16L154,23.16a19.3,19.3,0,0,0,.58,1.88c0-.11.07-.21.1-.32q1.22-4.12,2.41-8.26c.48-1.62,1-3.23,1.42-4.85a.33.33,0,0,1,.36-.29h0c.65,0,1.3,0,2,0,.33,0,.45.12.53.41.3,1.06.61,2.13.92,3.19q1.19,4.08,2.38,8.17c.17.56.33,1.13.49,1.7l.12.3c.06-.19.1-.28.12-.37q1.33-4.86,2.66-9.7c.31-1.15.64-2.28.94-3.43.05-.21.14-.28.35-.27h2.16c-.15.53-.28,1-.42,1.49l-1.47,5.08L167,27.14c-.11.4-.24.8-.34,1.2a.3.3,0,0,1-.34.26c-.65,0-1.3,0-2,0a.27.27,0,0,1-.31-.22v0q-1.26-4.35-2.55-8.7c-.46-1.58-.93-3.17-1.4-4.75a2.39,2.39,0,0,0-.12-.34c-.05.1-.09.21-.13.31-.54,1.84-1.07,3.69-1.6,5.53-.78,2.64-1.55,5.29-2.33,7.94,0,.1-.16.23-.24.23-.76,0-1.52,0-2.3,0Z"/><path id="Tracé_3856" data-name="Tracé 3856" class="cls-1" d="M210.67,25.38V11.79c0-.46,0-.47.46-.47H213V28.57l-.31,0c-.79,0-1.59,0-2.38,0a.51.51,0,0,1-.38-.18c-1.36-2-2.72-4-4.08-6.06l-5.12-7.62c0-.06-.09-.11-.2-.24,0,.2,0,.33,0,.47v13.2c0,.44,0,.44-.44.44s-1,0-1.57,0c-.28,0-.35-.1-.35-.36,0-1.72,0-3.43,0-5.14V11.78c0-.45,0-.46.45-.46H201a.43.43,0,0,1,.4.2c1.15,1.75,2.32,3.5,3.48,5.24q1.54,2.31,3.07,4.62l2.54,3.82a1.49,1.49,0,0,0,.15.2Z"/><path id="Tracé_3857" data-name="Tracé 3857" class="cls-1" d="M59.52,19.43a4.1,4.1,0,0,1,2.84,1.86,4.49,4.49,0,0,1-1.26,6.22l0,0a7,7,0,0,1-3.84,1.06H51.55c-.29,0-.38-.07-.38-.37q0-8.27,0-16.52c0-.3.08-.39.39-.39,1.92,0,3.85,0,5.78,0a6.25,6.25,0,0,1,2.9.68,3.75,3.75,0,0,1,2.08,3.17,3.51,3.51,0,0,1-1,3.05,11.4,11.4,0,0,1-1.52,1.05A1.87,1.87,0,0,1,59.52,19.43Zm-6,7.1a31.84,31.84,0,0,0,4.78-.17,2.65,2.65,0,0,0,2-1.57A2.85,2.85,0,0,0,59.08,21a3,3,0,0,0-1-.29,39.12,39.12,0,0,0-4.46-.1s0,0-.07.05Zm0-13.13v5.1c.93,0,1.84,0,2.76,0a10.35,10.35,0,0,0,1.36-.09,2.39,2.39,0,0,0,2.07-1.66,2.49,2.49,0,0,0-1.49-3.19,2.34,2.34,0,0,0-.87-.14H53.55Z"/><path id="Tracé_3858" data-name="Tracé 3858" class="cls-1" d="M132.39,20v8.58H130V11.35l.31,0c.54,0,1.07,0,1.6,0,.33,0,.43.07.43.41,0,2.22,0,4.43,0,6.65,0,.14,0,.27,0,.48a3.48,3.48,0,0,0,.28-.22l5.9-5.82L140,11.47a.5.5,0,0,1,.31-.14c1,0,2,0,3,.07l-8.2,7.91,8.8,9.25-.33,0c-.93,0-1.85,0-2.78,0a.75.75,0,0,1-.47-.21q-3.3-3.54-6.59-7.1c-.35-.38-.69-.76-1-1.13l-.21-.18Z"/><path id="Tracé_3859" data-name="Tracé 3859" class="cls-1" d="M120.45,24.51l2,1.49a6.92,6.92,0,0,1-2.71,2.2,8.65,8.65,0,0,1-5.88.59,8.13,8.13,0,0,1-4.91-3.31,9.27,9.27,0,0,1-.91-9.54,8,8,0,0,1,6.72-5,8.81,8.81,0,0,1,4.86.65,5.92,5.92,0,0,1,2.47,2l-1.9,1.46c-.32-.32-.65-.62-1-.91a5.49,5.49,0,0,0-5-.78,6.06,6.06,0,0,0-4.07,3.94,7.83,7.83,0,0,0,0,5.48,6.13,6.13,0,0,0,6.24,4,5.24,5.24,0,0,0,4-2.12C120.33,24.64,120.38,24.6,120.45,24.51Z"/><path id="Tracé_3860" data-name="Tracé 3860" class="cls-1" d="M73.57,26.39H81.4v2.18l-.3,0H71.6c-.29,0-.37-.08-.37-.37q0-8.27,0-16.53c0-.31.1-.39.39-.38.55,0,1.09,0,1.64,0,.26,0,.33.08.32.34,0,1.95,0,3.9,0,5.86v8.86Z"/><path id="Tracé_3861" data-name="Tracé 3861" class="cls-2" d="M178.62,28.58V26.4h10.62c.31,0,.42.08.4.4,0,.53,0,1.05,0,1.58,0,.18-.06.25-.24.25H178.74A.27.27,0,0,1,178.62,28.58Z"/><path id="Tracé_3862" data-name="Tracé 3862" class="cls-2" d="M88.61,13.51V11.36h11v2.15Z"/><path id="Tracé_3863" data-name="Tracé 3863" class="cls-2" d="M88.61,28.56V26.4h11v2.16Z"/><path id="Tracé_3864" data-name="Tracé 3864" class="cls-2" d="M189.58,13.54h-11c0-.69,0-1.36,0-2,0,0,.09-.11.14-.13a.77.77,0,0,1,.26,0h10.18c.44,0,.44,0,.44.45s0,1.1,0,1.64C189.62,13.47,189.6,13.49,189.58,13.54Z"/><path id="Tracé_3865" data-name="Tracé 3865" class="cls-2" d="M97.46,21.05H88.62V18.87l.31,0H97.1c.31,0,.38.1.37.4C97.45,19.83,97.46,20.44,97.46,21.05Z"/><path id="Tracé_3866" data-name="Tracé 3866" class="cls-2" d="M187.44,18.9v2.15h-8.83V18.9Z"/></svg>