<svg width="300" height="90" viewBox="0 0 300 90" fill="none" xmlns="http://www.w3.org/2000/svg">
<path d="M107.464 34.4C108.857 34.4 110.143 34.5 111.429 34.8C112.607 35 113.679 35.4 114.643 35.9V39.5C113.464 39.1 112.286 38.7 111.107 38.5C110.036 38.3 108.964 38.2 107.893 38.2C106.714 38.2 105.536 38.4 104.464 38.7C103.286 39.1 102.214 39.7 101.357 40.5C100.393 41.4 99.6428 42.5 99.1071 43.8C98.4642 45.4 98.25 47.1 98.25 48.8C98.25 50.2 98.4642 51.5 98.8928 52.8C99.3214 54 99.8571 55 100.714 56C101.571 56.9 102.643 57.6 103.821 58.1C105.214 58.6 106.607 58.9 108.107 58.8C109.286 58.8 110.464 58.7 111.643 58.4C112.821 58.2 114 57.8 115.071 57.4V61C114.643 61.2 114.214 61.4 113.679 61.6C113.036 61.8 112.5 62 111.857 62.1C111.107 62.2 110.464 62.4 109.714 62.4C108.964 62.5 108.214 62.5 107.464 62.5C105.643 62.5 103.714 62.2 102 61.7C100.286 61.2 98.7857 60.3 97.5 59.2C96.2142 58 95.1428 56.5 94.5 54.9C93.75 52.9 93.3214 50.8 93.4285 48.8C93.4285 47.2 93.6428 45.6 94.0714 44C94.3928 42.7 94.9285 41.4 95.6785 40.3C96.3214 39.3 97.1785 38.4 98.0357 37.6C98.8928 36.9 99.8571 36.2 100.929 35.8C102 35.3 103.071 35 104.143 34.8C105.321 34.6 106.393 34.4 107.464 34.4Z" fill="#59595C"/>
<path d="M139.821 59H139.714C139.286 59.5 138.75 59.9 138.214 60.3C137.571 60.8 136.929 61.2 136.179 61.5C135.429 61.9 134.571 62.1 133.714 62.3C132.75 62.5 131.786 62.6 130.821 62.6C129.536 62.6 128.25 62.4 126.964 62C125.893 61.6 124.821 61.1 123.964 60.3C123.107 59.5 122.464 58.6 122.036 57.6C121.607 56.4 121.286 55.2 121.286 54C121.286 52.8 121.5 51.5 122.036 50.4C122.571 49.4 123.321 48.5 124.179 47.7C125.143 46.9 126.321 46.4 127.5 46C128.893 45.6 130.393 45.4 131.786 45.4C133.179 45.4 134.571 45.5 135.964 45.8C137.143 46 138.214 46.3 139.393 46.7H139.5V44.8C139.5 44.1 139.5 43.5 139.393 42.9C139.286 42.4 139.179 41.9 138.857 41.4C138.321 40.4 137.357 39.7 136.393 39.2C135.214 38.6 133.714 38.3 131.679 38.3C130.286 38.3 128.893 38.4 127.607 38.7C126.321 39 125.036 39.3 123.75 39.8V36C124.286 35.8 124.821 35.5 125.464 35.4C126.107 35.2 126.857 35 127.5 34.9C128.25 34.8 129 34.7 129.857 34.6C130.607 34.5 131.464 34.5 132.321 34.5C135.214 34.5 137.571 35 139.393 35.9C141.107 36.7 142.5 38.1 143.357 39.7C143.679 40.3 143.893 41 144 41.7C144.107 42.5 144.214 43.3 144.214 44.1V62H140.357L139.821 59ZM139.607 50.2C138.75 50 137.679 49.8 136.5 49.5C135.214 49.3 133.929 49.2 132.536 49.2C130.5 49.2 129 49.6 127.821 50.4C126.75 51.2 126.107 52.4 126.107 54C126.107 54.7 126.214 55.5 126.536 56.2C126.75 56.8 127.179 57.3 127.714 57.8C128.25 58.2 128.786 58.5 129.429 58.7C130.179 58.9 130.821 59 131.571 59C132.536 59 133.5 58.9 134.357 58.6C135.107 58.4 135.964 58 136.714 57.6C137.357 57.3 137.893 56.9 138.429 56.5C138.857 56.1 139.286 55.8 139.5 55.6L139.607 50.2Z" fill="#59595C"/>
<path d="M176.786 48.2C176.786 49.9 176.571 51.5 176.143 53.2C175.821 54.5 175.286 55.8 174.536 57C173.893 58 173.143 58.9 172.286 59.7C171.429 60.4 170.571 61 169.607 61.4C168.75 61.8 167.786 62.2 166.821 62.4C165.964 62.6 165 62.7 164.143 62.7C162.536 62.7 161.036 62.5 159.536 61.9C158.25 61.3 156.964 60.5 156 59.5H155.893V75H151.286V35.1H154.821L155.786 38.1H155.893C156.214 37.7 156.536 37.3 156.857 37C157.393 36.6 157.929 36.2 158.571 35.9C159.321 35.5 160.179 35.1 161.036 34.8C162.107 34.5 163.179 34.4 164.25 34.4C165.857 34.4 167.464 34.7 168.964 35.2C170.464 35.7 171.857 36.5 172.928 37.6C174.107 38.8 175.071 40.3 175.714 41.9C176.464 43.9 176.786 46.1 176.786 48.2ZM171.857 48.3C171.857 46.9 171.643 45.5 171.321 44.1C171 43 170.464 41.9 169.714 40.9C169.071 40 168.107 39.4 167.143 38.9C166.071 38.4 164.786 38.2 163.607 38.2C162.75 38.2 161.786 38.3 160.929 38.6C160.179 38.8 159.429 39.1 158.786 39.5C158.143 39.8 157.607 40.3 157.071 40.7C156.643 41.1 156.321 41.4 155.893 41.9V55.9C156.857 56.8 158.036 57.6 159.321 58.1C160.607 58.6 162 58.9 163.393 58.9C164.357 58.9 165.321 58.7 166.179 58.4C167.25 58.1 168.214 57.5 168.964 56.7C169.929 55.8 170.571 54.7 171 53.4C171.643 51.8 171.964 50.1 171.857 48.3Z" fill="#59595C"/>
<path d="M183.643 28.9V24H188.357V28.9H183.643ZM183.75 61.9V35.1H188.464V61.9H183.75Z" fill="#59595C"/>
<path d="M196.607 61.9V21.1H201.321V61.9H196.607Z" fill="#59595C"/>
<path d="M208.714 61.9V21.1H213.429V61.9H208.714Z" fill="#59595C"/>
<path d="M238.821 59H238.714C238.286 59.5 237.75 59.9 237.214 60.3C236.571 60.8 235.929 61.2 235.179 61.5C234.429 61.9 233.571 62.1 232.714 62.3C231.75 62.5 230.786 62.6 229.821 62.6C228.536 62.6 227.25 62.4 225.964 62C224.893 61.6 223.821 61.1 222.964 60.3C222.107 59.5 221.464 58.6 221.036 57.6C220.607 56.4 220.286 55.2 220.393 54C220.393 52.8 220.607 51.5 221.143 50.4C221.679 49.4 222.429 48.5 223.286 47.7C224.25 46.9 225.429 46.4 226.607 46C228 45.6 229.5 45.4 230.893 45.4C232.286 45.4 233.679 45.5 235.071 45.8C236.25 46 237.321 46.3 238.5 46.7H238.607V44.8C238.607 44.1 238.607 43.5 238.5 42.9C238.393 42.4 238.286 41.9 237.964 41.4C237.429 40.4 236.464 39.7 235.5 39.2C234.321 38.6 232.821 38.3 230.786 38.3C229.393 38.3 228 38.4 226.714 38.7C225.429 39 224.143 39.3 222.857 39.8V36C223.393 35.8 223.929 35.5 224.571 35.4C225.214 35.2 225.964 35 226.607 34.9C227.357 34.8 228.107 34.7 228.964 34.6C229.821 34.5 230.571 34.5 231.429 34.5C234.321 34.5 236.679 35 238.5 35.9C240.214 36.7 241.607 38.1 242.464 39.7C242.786 40.3 243 41 243.107 41.7C243.214 42.5 243.321 43.3 243.321 44.1V62H239.357L238.821 59ZM238.607 50.2C237.75 50 236.679 49.8 235.5 49.5C234.214 49.3 232.929 49.2 231.536 49.2C229.5 49.2 228 49.6 226.929 50.4C225.75 51.2 225.214 52.4 225.214 54C225.214 54.7 225.321 55.5 225.643 56.2C225.857 56.8 226.286 57.3 226.821 57.7C227.357 58.1 227.893 58.4 228.536 58.6C229.179 58.8 229.929 58.9 230.679 58.9C231.643 58.9 232.607 58.8 233.464 58.5C234.214 58.3 235.071 57.9 235.821 57.5C236.464 57.2 237 56.8 237.536 56.4C237.964 56 238.393 55.7 238.607 55.5V50.2Z" fill="#59595C"/>
<path d="M266.571 38.7H266.25C265.179 38.7 264.107 38.8 263.036 39C261.964 39.2 261 39.5 260.036 39.9C259.179 40.3 258.321 40.7 257.464 41.3C256.714 41.9 256.071 42.5 255.536 43.3V62H250.821V35.1H254.464L255.429 39.4H255.536C255.964 38.7 256.607 38 257.25 37.5C258.643 36.2 260.464 35.3 262.286 34.9C263.357 34.6 264.429 34.5 265.5 34.5H266.143C266.357 34.5 266.571 34.5 266.679 34.5L266.571 38.7Z" fill="#59595C"/>
<path d="M271.607 35.1H276.321L285.214 56.1H285.429L294.536 35.1H299.25L281.464 75H276.857L282.964 61.4L271.607 35.1Z" fill="#59595C"/>
<path fill-rule="evenodd" clip-rule="evenodd" d="M43.1786 25.6999C44.6786 26.6999 46.6072 27.8999 48.2143 29.0999C68.5714 18.9999 81.5357 35.6999 68.8929 46.2999C67.2857 47.5999 65.4643 48.7999 63.5357 49.6999C57.1072 53.0999 47.4643 57.7999 45.3214 65.1999C44.1429 69.0999 45.4286 73.6999 48.8572 76.0999C51.4286 77.8999 54.8572 78.2999 57.9643 77.6999C69.75 75.3999 72.9643 63.6999 69.4286 54.4999L69.3214 54.5999C71.0357 53.5999 72.6429 52.4999 74.25 51.2999C102.321 29.6999 75.3214 5.49994 43.1786 25.6999ZM63.2143 57.8999C64.3929 68.5999 52.5 74.6999 47.8929 71.4999C43.3929 68.2999 54.6429 62.1999 60.5357 59.2999L63.2143 57.8999Z" fill="url(#paint0_linear_6101_34095)"/>
<path fill-rule="evenodd" clip-rule="evenodd" d="M62.1429 26.1V18.5C56.3572 19.3 49.9286 21.6 43.1786 25.8C44.6786 26.8 46.6072 28 48.2143 29.2C53.3572 26.5 58.1786 25.7 62.1429 26.1Z" fill="url(#paint1_linear_6101_34095)"/>
<path fill-rule="evenodd" clip-rule="evenodd" d="M69.5356 54.5L63.2142 57.9C63.4285 59.5 63.2142 61.2 62.7856 62.8V76C70.4999 71.9 72.5356 62.3 69.5356 54.5Z" fill="url(#paint2_linear_6101_34095)"/>
<path fill-rule="evenodd" clip-rule="evenodd" d="M48.9643 29.7C47.0357 28.3 45.3214 26.9 43.2857 25.6C9.5357 4.19998 -18.75 32.8 17.4643 54.8C18.3214 52.6 19.3928 50.4 20.6786 48.3C3.10713 38.1 16.9286 18.3 38.4643 29.1C39.9643 29.8 56.8928 39.2 61.1786 51.1C62.8928 50.2 64.7143 49.3 66.5357 48.2C63.2143 42.4 56.1428 35.1 48.9643 29.7Z" fill="url(#paint3_linear_6101_34095)"/>
<path fill-rule="evenodd" clip-rule="evenodd" d="M57.9642 37.5C57.75 37.7 57.5357 38 57.2143 38.2C56.8928 38.5 56.5714 38.7 56.1428 39C55.8214 39.2 55.3928 39.5 55.0714 39.7L54 40.4H53.8928C57 43.5 59.7857 47.2 61.1785 51C62.8928 50.1 64.7142 49.2 66.5357 48.1C64.6071 44.9 61.6071 41.1 57.9642 37.5Z" fill="url(#paint4_linear_6101_34095)"/>
<path fill-rule="evenodd" clip-rule="evenodd" d="M13.1786 40C12.5357 40.6 11.7857 41.1 10.9286 41.5C10.1786 42 9.32143 42.4 8.46429 42.8C8.03571 43 7.60714 43.2 7.28571 43.5C7.07143 43.6 6.85714 43.7 6.64286 43.8C6.42857 43.9 6.21429 44 6 44.1C5.78571 44.2 5.46429 44.4 5.25 44.6C7.92857 48 11.8929 51.4 17.3571 54.7C18.2143 52.5 19.2857 50.3 20.5714 48.2C16.5 45.9 14.1429 42.9 13.1786 40Z" fill="url(#paint5_linear_6101_34095)"/>
<path fill-rule="evenodd" clip-rule="evenodd" d="M13.1786 40C12.5357 40.6 11.7857 41.1 10.9286 41.5C10.1786 42 9.32143 42.4 8.46429 42.8C8.03571 43 7.60714 43.2 7.28571 43.5C7.07143 43.6 6.85714 43.7 6.64286 43.8C6.42857 43.9 6.21429 44 6 44.1C5.78571 44.2 5.46429 44.4 5.25 44.6C7.92857 48 11.8929 51.4 17.3571 54.7C18.2143 52.5 19.2857 50.3 20.5714 48.2C16.5 45.9 14.1429 42.9 13.1786 40Z" fill="url(#paint6_linear_6101_34095)"/>
<path fill-rule="evenodd" clip-rule="evenodd" d="M26.1429 51.2C26.25 50.9 26.4643 50.7 26.5715 50.4C29.7857 44 36.75 36.8 43.5 32C43.1786 31.8 42.5358 31.3 42.2143 31.1C41.0358 30.3 39.8572 29.7 38.6786 29.1C33.9643 32.7 28.7143 37.6 25.5 41.5C21.1072 46.8 15.8572 53.6 15.8572 62.3C15.8572 69.4 19.8215 75.9 28.8215 77.6C31.9286 78.3 35.5715 77.9 38.25 76C41.6786 73.6 43.0715 68.9 41.7857 65.1C39.1072 57.7 26.1429 51.2 26.1429 51.2ZM39.1072 71.2C35.3572 74.9 24.1072 69.8 23.4643 60.8C23.3572 59.9 23.4643 59 23.6786 58.1C25.5 58.9 43.2857 67 39.1072 71.2Z" fill="url(#paint7_linear_6101_34095)"/>
<path fill-rule="evenodd" clip-rule="evenodd" d="M29.7857 37.7C30.3214 38.1 30.9643 38.5 31.6071 39C32.25 39.4 32.7857 39.8 33.4286 40.2C33.5357 40.3 33.75 40.4 33.8571 40.5C36.75 37.4 39.9643 34.5999 43.3929 32.0999C43.0714 31.8999 42.4286 31.4 42.1071 31.2C40.9286 30.4 39.75 29.8 38.5714 29.2C35.25 31.7 32.1429 34.5 29.25 37.4C29.4643 37.4 29.6786 37.6 29.7857 37.7Z" fill="url(#paint8_linear_6101_34095)"/>
<path fill-rule="evenodd" clip-rule="evenodd" d="M26.1429 51.2C25.0714 53.4 24.2143 55.6999 23.6786 58.0999C24.6429 58.4999 30.3214 61.1 34.6072 64H41.1429C37.6072 56.9 26.1429 51.2 26.1429 51.2Z" fill="url(#paint9_linear_6101_34095)"/>
<path fill-rule="evenodd" clip-rule="evenodd" d="M26.1429 51.2C25.0714 53.4 24.2143 55.6999 23.6786 58.0999C24.6429 58.4999 30.3214 61.1 34.6072 64H41.1429C37.6072 56.9 26.1429 51.2 26.1429 51.2Z" fill="url(#paint10_linear_6101_34095)"/>
<defs>
<linearGradient id="paint0_linear_6101_34095" x1="73.2031" y1="3.26184" x2="51.1322" y2="82.9216" gradientUnits="userSpaceOnUse">
<stop stop-color="#F05A24"/>
<stop offset="0.2" stop-color="#F05D24"/>
<stop offset="0.32" stop-color="#F58E16"/>
<stop offset="0.52" stop-color="#FDDB00"/>
<stop offset="0.55" stop-color="#EAD707"/>
<stop offset="0.65" stop-color="#AACA1F"/>
<stop offset="0.75" stop-color="#78C031"/>
<stop offset="0.83" stop-color="#54B83F"/>
<stop offset="0.9" stop-color="#3EB447"/>
<stop offset="0.94" stop-color="#36B24A"/>
</linearGradient>
<linearGradient id="paint1_linear_6101_34095" x1="46.5543" y1="30.8651" x2="57.5086" y2="20.5629" gradientUnits="userSpaceOnUse">
<stop stop-color="#CF4F27"/>
<stop offset="0.32" stop-color="#D95226" stop-opacity="0.69"/>
<stop offset="1" stop-color="#F05A24" stop-opacity="0"/>
</linearGradient>
<linearGradient id="paint2_linear_6101_34095" x1="61.8215" y1="57.4643" x2="65.1804" y2="64.3698" gradientUnits="userSpaceOnUse">
<stop stop-color="#76933C"/>
<stop offset="1" stop-color="#2E9C48" stop-opacity="0"/>
</linearGradient>
<linearGradient id="paint3_linear_6101_34095" x1="18.4734" y1="12.0914" x2="37.3458" y2="55.427" gradientUnits="userSpaceOnUse">
<stop stop-color="#1687C8"/>
<stop offset="0.29" stop-color="#1687C8"/>
<stop offset="0.3" stop-color="#1688C7"/>
<stop offset="0.46" stop-color="#22979A"/>
<stop offset="0.61" stop-color="#2AA377"/>
<stop offset="0.76" stop-color="#31AB5E"/>
<stop offset="0.89" stop-color="#35B04F"/>
<stop offset="1" stop-color="#36B24A"/>
</linearGradient>
<linearGradient id="paint4_linear_6101_34095" x1="58.5285" y1="41.8514" x2="64.5488" y2="51.6434" gradientUnits="userSpaceOnUse">
<stop stop-color="#36B24A" stop-opacity="0"/>
<stop offset="0.14" stop-color="#2DAF4A" stop-opacity="0.21"/>
<stop offset="0.46" stop-color="#1AA84A" stop-opacity="0.63"/>
<stop offset="0.68" stop-color="#0EA44A" stop-opacity="0.9"/>
<stop offset="0.8" stop-color="#09A24A"/>
</linearGradient>
<linearGradient id="paint5_linear_6101_34095" x1="25.444" y1="53.2091" x2="5.98677" y2="40.3334" gradientUnits="userSpaceOnUse">
<stop offset="0.26" stop-color="#0EAB4B"/>
<stop offset="0.39" stop-color="#10A366" stop-opacity="0.78"/>
<stop offset="0.67" stop-color="#148FAB" stop-opacity="0.23"/>
<stop offset="0.78" stop-color="#1687C8" stop-opacity="0"/>
</linearGradient>
<linearGradient id="paint6_linear_6101_34095" x1="25.444" y1="53.2091" x2="5.98677" y2="40.3334" gradientUnits="userSpaceOnUse">
<stop offset="0.26" stop-color="#038A45"/>
<stop offset="0.41" stop-color="#088968" stop-opacity="0.73"/>
<stop offset="0.76" stop-color="#1587C2" stop-opacity="0.05"/>
<stop offset="0.78" stop-color="#1687C8" stop-opacity="0"/>
</linearGradient>
<linearGradient id="paint7_linear_6101_34095" x1="45.6422" y1="81.4867" x2="28.1713" y2="41.1895" gradientUnits="userSpaceOnUse">
<stop stop-color="#FDDB00"/>
<stop offset="0.34" stop-color="#FDD901"/>
<stop offset="0.52" stop-color="#FCD104"/>
<stop offset="0.67" stop-color="#FAC308"/>
<stop offset="0.79" stop-color="#F8B00F"/>
<stop offset="0.9" stop-color="#F69818"/>
<stop offset="0.98" stop-color="#F38020"/>
</linearGradient>
<linearGradient id="paint8_linear_6101_34095" x1="40.105" y1="29.8516" x2="35.2122" y2="37.1114" gradientUnits="userSpaceOnUse">
<stop stop-color="#CF4F27"/>
<stop offset="0.18" stop-color="#D75226" stop-opacity="0.75"/>
<stop offset="0.38" stop-color="#E05525" stop-opacity="0.48"/>
<stop offset="0.58" stop-color="#E75725" stop-opacity="0.27"/>
<stop offset="0.75" stop-color="#EC5924" stop-opacity="0.12"/>
<stop offset="0.9" stop-color="#EF5A24" stop-opacity="0.03"/>
<stop offset="1" stop-color="#F05A24" stop-opacity="0"/>
</linearGradient>
<linearGradient id="paint9_linear_6101_34095" x1="24.4289" y1="53.266" x2="35.534" y2="64.2714" gradientUnits="userSpaceOnUse">
<stop stop-color="#67BB46"/>
<stop offset="0.38" stop-color="#A9D033"/>
<stop offset="0.56" stop-color="#CBDB2A"/>
<stop offset="0.71" stop-color="#D8D91F"/>
<stop offset="0.98" stop-color="#FAD502"/>
<stop offset="1" stop-color="#FDD500"/>
</linearGradient>
<linearGradient id="paint10_linear_6101_34095" x1="24.4289" y1="53.266" x2="35.534" y2="64.2714" gradientUnits="userSpaceOnUse">
<stop stop-color="#029347"/>
<stop offset="0.17" stop-color="#3DA83E" stop-opacity="0.7"/>
<stop offset="0.34" stop-color="#70BA37" stop-opacity="0.45"/>
<stop offset="0.51" stop-color="#98C931" stop-opacity="0.25"/>
<stop offset="0.67" stop-color="#B4D32D" stop-opacity="0.11"/>
<stop offset="0.84" stop-color="#C5D92B" stop-opacity="0.03"/>
<stop offset="1" stop-color="#CBDB2A" stop-opacity="0"/>
</linearGradient>
</defs>
</svg>
