<svg fill="none" height="59" viewBox="0 0 118 59" width="118" xmlns="http://www.w3.org/2000/svg"><g clip-rule="evenodd" fill-rule="evenodd"><path d="m70.8481 3.44019c.8964 1.80619.3685 4.17861-.5643 5.80245l-7.242 16.29026-.0615.0729-2.6181-16.52247c-.2092-1.58546 1.4876-2.26302 2.4838-3.02503-.0499-.23417-.3091-.22074-.4684-.33206l-2.4472-.02496-.073-.07293c.0115-2.0538 1.1191-3.94636 2.9886-4.942547 1.954-1.130546 4.7084-.823437 6.4032.627657.6891.61422 1.2668 1.32633 1.5989 2.12673z" fill="#645faa"/><path d="m57.5092 2.87432c.5893 1.09408.9348 2.33595.7255 3.71219l-2.9501 18.92179c.0115.0249-.0135.0499-.0365.0614l-.7639-1.524-7.4014-16.52443c-.6871-2.12673-.048-4.35136 1.501-5.87731 1.5605-1.5854475 4.1307-2.015401 6.171-1.153575 1.0826.466423 2.1152 1.326325 2.7544 2.383935z" fill="#c9234a"/><path d="m81.5556 10.8409c.9962 1.6968.7754 4.2669-.3321 5.8409-.6872 1.1056-1.8196 1.6584-2.7774 2.3839l-15.3305 10.5243h-.0365l.1708-.5048 8.1269-18.3422c1.2169-2.16508 3.5394-3.25724 6.0002-2.92709 1.6833.30902 3.3666 1.4031 4.1786 3.02499z" fill="#0089cf"/><path d="m46.7276 10.7429 8.459 18.8469h-.1363l-17.0522-11.7546c-1.7333-1.4607-2.4454-3.6508-1.8561-5.8639.4434-1.6584 1.8196-3.20735 3.455-3.82157 2.6795-.98467 5.7045.0595 7.1306 2.59317z" fill="#f36f21"/><path d="m86.0068 24.1434c.8484 1.7947.5163 4.2535-.7006 5.7775-1.2054 1.4645-2.8158 2.263-4.7103 2.2131l-18.1809.0134 15.2307-10.5991c1.4895-.9578 3.7506-1.1305 5.3725-.3551 1.2553.4914 2.4358 1.7198 2.9886 2.9502z" fill="#0db14b"/><path d="m32.1708 24.1434c-.8484 1.7947-.5164 4.2535.7006 5.7775 1.2054 1.4645 2.8158 2.263 4.7083 2.2131l18.1847.0134-15.2326-10.5991c-1.4875-.9578-3.7506-1.1305-5.3744-.3551-1.2534.4914-2.4338 1.7198-2.9866 2.9502z" fill="#fdb913"/><g fill="#000"><path d="m26.5944 56.8992c-3.8623 0-7.0046-3.1434-7.0046-7.0036 0-3.859 3.1423-7.0013 7.0046-7.0013 3.8624 0 7.0047 3.1423 7.0047 7.0013 0 3.8602-3.1423 7.0036-7.0047 7.0036zm0-15.7236c-4.8074 0-8.7189 3.9115-8.7189 8.72 0 4.8075 3.9115 8.7223 8.7189 8.7223 4.8075 0 8.719-3.9148 8.719-8.7223 0-4.8085-3.9115-8.72-8.719-8.72z"/><path d="m101.777 50.0067c-.469-.2459-3.3132-1.711-3.723-1.9241-1.4925-.7605-2.0224-1.4368-2.0224-2.5796 0-1.5854 1.3035-2.6113 3.3237-2.6113 1.1867 0 2.3337.5222 3.0047.9003.123.0677.267.1038.417.1038.472 0 .857-.3835.857-.8566 0-.3169-.173-.5944-.429-.7419-.847-.472-2.292-1.121-3.8497-1.121-2.9675 0-5.0401 1.7798-5.0401 4.3267 0 2.289 1.5034 3.3685 2.9762 4.1202.4108.2097 3.2886 1.6935 3.7216 1.9208 1.136.5954 1.764 1.4881 1.764 2.5151 0 1.3778-1.165 2.8408-3.3255 2.8408-2.0989 0-3.7302-1.4084-4.1814-1.841l-.1333-.129-1.2696 1.156.1497.1475c.5627.5605 2.6222 2.3841 5.4346 2.3841 3.1545 0 5.0405-2.3185 5.0405-4.5584 0-1.6727-.989-3.151-2.715-4.0524z"/><path d="m8.71786 42.8935c1.87164 0 3.63184.7276 4.95274 2.0486.3136.3125.9036.3125 1.2128 0 .1639-.1595.2513-.3748.2513-.6053 0-.2284-.0874-.4458-.2513-.6053l-.1038-.1082c-1.6334-1.5788-3.788-2.4474-6.06174-2.4474-4.80744 0-8.71786 3.9104-8.71786 8.719 0 4.8085 3.91042 8.7222 8.71786 8.7222 2.53814 0 4.82384-1.0893 6.41684-2.8255l-1.2128-1.2149c-1.2838 1.4247-3.1401 2.3217-5.20404 2.3217-3.86125 0-7.00357-3.1423-7.00357-7.0035 0-3.8591 3.14232-7.0014 7.00357-7.0014z"/><path d="m67.8259 42.8938c1.8705 0 3.6318.7277 4.9517 2.0487.3146.3124.9046.3124 1.2138 0 .1639-.1596.2535-.3748.2535-.6053 0-.2284-.0896-.4458-.2535-.6053l-.1038-.1082c-1.6356-1.5788-3.7869-2.4474-6.0617-2.4474-4.8075 0-8.719 3.9104-8.719 8.7189 0 4.8086 3.9115 8.7223 8.719 8.7223 2.5359 0 4.8227-1.0894 6.4168-2.8255l-1.2138-1.215c-1.2828 1.4248-3.1391 2.3218-5.203 2.3218-3.8624 0-7.0047-3.1423-7.0047-7.0036 0-3.859 3.1423-7.0014 7.0047-7.0014z"/><path d="m53.0563 41.1759c-.3223 0-.5758.2076-.7145.4764-.141.2677-5.1309 12.6108-5.1309 12.6108s-4.9899-12.3431-5.1308-12.6108c-.1399-.2688-.3923-.4764-.7157-.4764-.3759 0-.6588.2753-.7583.625-.0994.3507-2.915 15.8864-2.915 15.8864-.0099.0502-.0153.1027-.0153.1562 0 .4272.3485.7736.7746.7736.3759 0 .6917-.2699.7594-.6261l2.4376-13.2904s4.7047 11.622 4.8424 11.8995c.1387.2754.3933.4895.7211.4895.3267 0 .5824-.2141.72-.4895.1388-.2775 4.8424-11.8995 4.8424-11.8995l2.5349 13.8192h1.5722s-2.9653-16.3682-3.0647-16.7189c-.1005-.3497-.3835-.625-.7594-.625z"/><path d="m81.465 50.3772 2.5916-6.3764 2.596 6.3764zm2.5916-9.2018c-.3256 0-.5769.2119-.72.4894-.1399.2765-6.4573 15.8766-6.4573 15.8766-.0382.0929-.059.1956-.059.3016 0 .4283.3464.7746.7736.7746.3256 0 .6053-.2043.7189-.4916l2.4529-6.0323h6.5851l2.6157 6.4267h1.6706s-6.7217-16.5791-6.8605-16.8556c-.1387-.2775-.3922-.4894-.72-.4894z"/><path d="m118 42.1268c0-.4742-.386-.8577-.858-.8577h-9.709c-.473 0-.857.3835-.857.8577 0 .4731.384.8566.857.8566h4.07v15.5368h1.571v-15.5368h4.068c.472 0 .858-.3835.858-.8566z"/></g></g></svg>