<svg width="382" height="60" viewBox="0 0 382 60" fill="none" xmlns="http://www.w3.org/2000/svg">
<path d="M74.2408 16.8069V30.3939H92.1338V33.5718H74.2408V48.244H70.5845V13.6484H94.312V16.8069H74.2408Z" fill="#071D49"/>
<path d="M101.913 13.6484H105.569V48.2284H101.913V13.6484Z" fill="#071D49"/>
<path d="M137.407 48.2284L129.503 37.1115C128.584 37.2138 127.661 37.2631 126.737 37.2593H117.448V48.2284H113.792V13.6484H126.753C135.544 13.6484 140.88 18.0944 140.88 25.5044C140.88 30.9501 138.014 34.7426 132.976 36.3724L141.425 48.2284H137.407ZM137.208 25.5044C137.208 19.9693 133.552 16.8069 126.636 16.8069H117.448V34.1475H126.636C133.552 34.1475 137.208 30.9384 137.208 25.5044Z" fill="#071D49"/>
<path d="M147.186 44.0277L148.621 41.2115C151.091 43.6348 155.486 45.4125 160.03 45.4125C166.502 45.4125 169.318 42.6896 169.318 39.2861C169.318 29.8028 148.026 35.6297 148.026 22.8363C148.026 17.7485 151.978 13.353 160.772 13.353C164.662 13.353 168.727 14.4888 171.493 16.4143L170.256 19.3277C167.43 17.493 164.141 16.4975 160.772 16.4571C154.448 16.4571 151.647 19.2771 151.647 22.739C151.647 32.2223 172.94 26.4927 172.94 39.076C172.94 44.1638 168.89 48.5126 160.045 48.5126C154.844 48.5243 149.757 46.6961 147.186 44.0277Z" fill="#071D49"/>
<path d="M188.091 16.8069H175.939V13.6484H203.899V16.8069H191.747V48.2284H188.091V16.8069Z" fill="#071D49"/>
<path d="M213.261 30.5575C213.261 20.308 221.317 12.7891 232.251 12.7891C243.185 12.7891 251.225 20.308 251.225 30.5575C251.225 40.807 243.17 48.3259 232.235 48.3259C221.301 48.3259 213.261 40.8109 213.261 30.5575ZM241.478 30.5575C241.478 24.649 237.424 20.7942 232.251 20.7942C227.078 20.7942 223.025 24.649 223.025 30.5575C223.025 36.4661 227.078 40.3208 232.251 40.3208C237.424 40.3208 241.478 36.4661 241.478 30.5575Z" fill="#071D49"/>
<path d="M271.254 38.5626H265.983V47.6452H256.317V13.4697H271.938C281.274 13.4697 287.108 18.3047 287.108 26.1153C287.108 31.1448 284.669 34.8556 280.422 36.9056L287.789 47.6452H277.454L271.254 38.5626ZM271.351 21.0859H265.983V31.0942H271.351C275.357 31.0942 277.357 29.2388 277.357 26.1153C277.357 22.9919 275.342 21.0859 271.351 21.0859Z" fill="#071D49"/>
<path d="M293.417 13.4697H303.084V47.6452H293.417V13.4697Z" fill="#071D49"/>
<path d="M307.238 30.5575C307.238 20.308 315.293 12.7891 326.228 12.7891C337.162 12.7891 345.217 20.308 345.217 30.5575C345.217 40.807 337.166 48.3259 326.228 48.3259C315.29 48.3259 307.238 40.8109 307.238 30.5575ZM335.454 30.5575C335.454 24.649 331.405 20.7942 326.228 20.7942C321.05 20.7942 317.001 24.649 317.001 30.5575C317.001 36.4661 321.054 40.3208 326.228 40.3208C331.401 40.3208 335.446 36.4661 335.446 30.5575H335.454Z" fill="#071D49"/>
<path d="M381.824 13.4697V47.6452H373.866L358.781 29.4333V47.6452H349.31V13.4697H357.268L372.353 31.6816V13.4697H381.824Z" fill="#071D49"/>
<path d="M26.3269 1.04199H30.24C30.3489 1.04199 30.4578 1.07311 30.5706 1.077C32.0604 1.14702 33.5502 1.18202 35.0361 1.29094C36.6776 1.41152 38.319 1.56711 39.9488 1.76938C41.7018 1.99239 43.4483 2.25171 45.1884 2.54733C47.6506 2.97132 50.0544 3.66369 52.4739 4.27439C52.5293 4.28122 52.5799 4.30946 52.6147 4.35307C52.6496 4.39668 52.6661 4.4522 52.6606 4.50777C52.6606 4.92398 52.7073 5.34407 52.7112 5.76417C52.7384 7.32007 52.7501 8.87598 52.7734 10.4591C52.7734 10.5991 52.7967 10.7392 52.8084 10.8792V13.8899C52.8084 14.0027 52.7734 14.1116 52.7695 14.2244C52.7047 16.1107 52.5385 17.9922 52.2716 19.8607C51.8533 22.8705 51.1726 25.8381 50.2373 28.7293C48.6867 33.5723 46.4296 38.1598 43.5391 42.3435C41.5743 45.2231 39.3364 47.9065 36.8565 50.3564C36.7515 50.4576 36.6776 50.5392 36.4986 50.4537C28.0128 46.5788 21.061 39.9855 16.7425 31.7167C15.6814 29.607 14.7487 27.4352 13.9497 25.213C13.4012 23.8477 12.9617 22.4474 12.4793 21.0626C12.456 20.9848 12.421 20.9109 12.3782 20.8059L7.86218 21.9417C11.2463 36.4388 19.4576 47.159 32.4922 54.2267L32.3093 54.3746C30.6002 55.7037 28.8143 56.9311 26.9609 58.0504C26.8957 58.0941 26.8345 58.1436 26.7781 58.1982H26.6847C26.6186 58.1515 26.5564 58.1009 26.4864 58.0582C18.2863 53.1366 11.5617 46.099 7.0181 37.6836C4.57758 33.1975 2.80959 28.3772 1.77081 23.377C1.38183 21.5138 1.10177 19.639 0.891722 17.7485C0.872274 17.5774 0.961738 17.5463 1.07843 17.5035C3.69967 16.5681 6.36776 15.7696 9.0719 15.1113L11.0479 14.6445L10.1144 10.0779C6.81972 10.7119 3.61456 11.6338 0.389942 12.5829C0.343265 12.1434 0.292699 11.7116 0.253801 11.2799C0.203234 10.7003 0.160447 10.1129 0.11377 9.53724V7.78295C0.130859 7.71902 0.143851 7.65406 0.152667 7.58847C0.218793 6.90387 0.284919 6.21538 0.343266 5.53078C0.339133 5.45444 0.362897 5.3792 0.41013 5.31909C0.457363 5.25898 0.524841 5.21809 0.59999 5.20404C4.80048 3.89208 9.09043 2.88589 13.4362 2.19336C15.7467 1.84717 18.0611 1.53988 20.3911 1.37262C22.2893 1.23648 24.1914 1.17035 26.0896 1.07311C26.1674 1.06922 26.2452 1.04977 26.3269 1.04199ZM23.8763 31.6622L23.8452 31.7517C26.7647 36.2791 30.6651 40.0918 35.2578 42.9075C35.3084 42.8531 35.3434 42.8181 35.3745 42.7792C36.2341 41.6706 37.1327 40.5931 37.9378 39.4495C40.8545 35.3195 43.0703 30.7368 44.496 25.8859C45.1705 23.6503 45.6609 21.3633 45.9624 19.0477C46.1413 17.6085 46.258 16.1576 46.3514 14.7106C46.4428 13.0416 46.435 11.3687 46.3281 9.70061C46.3319 9.66263 46.3277 9.62428 46.3157 9.58803C46.3037 9.55179 46.2843 9.51846 46.2586 9.49022C46.2329 9.46198 46.2016 9.43945 46.1667 9.42409C46.1317 9.40874 46.0939 9.4009 46.0558 9.4011C44.4649 9.12881 42.8739 8.83319 41.2791 8.58036C38.7559 8.18707 36.2136 7.92739 33.663 7.8024C31.6364 7.70127 29.606 7.65848 27.5755 7.64681C26.1091 7.64681 24.6387 7.6896 23.1723 7.77906C21.4764 7.8802 19.7843 8.04746 18.0923 8.19916C17.4816 8.24973 16.8748 8.34308 16.2563 8.42088C16.2563 8.49089 16.2563 8.54146 16.2563 8.59202C16.5636 10.2568 16.8748 11.9178 17.1704 13.5826C17.2054 13.7771 17.2832 13.8004 17.4543 13.7771C18.3957 13.6643 19.3409 13.5281 20.2861 13.4581C22.0948 13.3181 23.8997 13.1742 25.7318 13.1119C27.451 13.0536 29.1781 13.0769 30.9013 13.1119C32.1343 13.1353 33.3713 13.217 34.6004 13.3181C35.9735 13.427 37.3233 13.5787 38.7119 13.7343C39.5988 13.8315 40.4779 13.9755 41.3608 14.096C41.4736 14.096 41.532 14.1505 41.5164 14.2828C41.4931 14.5161 41.5164 14.7495 41.4659 14.979C41.2506 16.496 41.0302 18.013 40.8046 19.53C40.7618 19.814 40.6918 20.0941 40.6334 20.3819C33.4643 19.2016 26.163 19.0536 18.9519 19.9424C18.9791 20.0318 18.9869 20.0902 19.0064 20.1446C19.6391 21.9391 20.2744 23.7297 20.9123 25.5164C20.9327 25.5503 20.9611 25.5787 20.995 25.599C21.0289 25.6194 21.0673 25.6311 21.1068 25.6331C22.5616 25.5319 24.0164 25.3997 25.475 25.318C27.8483 25.1877 30.2276 25.2149 32.5972 25.3997C34.4254 25.5397 36.2458 25.7887 38.0701 25.9676C38.4124 26.0026 38.7586 26.0726 39.1009 26.1271C39.1043 26.1581 39.1043 26.1894 39.1009 26.2204C38.4148 28.201 37.5854 30.1289 36.6192 31.989C36.601 32.0332 36.5671 32.0691 36.524 32.0899C36.481 32.1107 36.4318 32.1149 36.3858 32.1018C35.8296 32.0279 35.2733 31.9501 34.7132 31.8956C32.7016 31.6797 30.68 31.5706 28.6569 31.5689C27.0504 31.5728 25.4634 31.6272 23.8763 31.6622Z" fill="#071D49"/>
</svg>
