<svg width="132" height="90" viewBox="0 0 132 90" fill="none" xmlns="http://www.w3.org/2000/svg">
<g clip-path="url(#clip0_48_2840)">
<path d="M28.5236 89.8336C25.1999 89.4978 22.0892 88.6445 19.362 87.3296C14.8877 85.1614 12.7855 82.2938 12.3452 77.7476C12.1089 75.4919 12.4967 73.2153 13.4673 71.159C15.4417 66.9905 19.3904 64.0109 25.7538 61.8707C35.7393 58.5275 46.4634 57.842 60.7668 59.6325C62.5281 59.8564 65.5252 60.2201 67.4427 60.4579C72.613 61.1013 75.8089 61.521 80.8656 62.2204C90.2971 63.5073 94.5583 63.857 100.893 63.871C109.259 63.885 114.174 63.0597 118.861 60.8775C121.475 59.6465 122.966 58.5974 124.983 56.5411C125.722 55.7857 126.432 55.1562 126.546 55.1562C126.929 55.1562 128.52 56.1914 129.33 56.9608C130.385 57.9529 131.162 59.1958 131.588 60.5698C131.958 61.6888 132 61.9686 132 63.7591C132 66.389 131.801 67.2143 131.006 67.9696C130.324 68.6271 128.023 69.7881 126.319 70.3337C123.563 71.215 120.239 71.8584 116.021 72.32C112.399 72.7117 101.802 72.6698 96.277 72.2501C86.2631 71.4807 77.3856 70.4036 66.4627 68.6551C53.1677 66.5288 44.1623 66.0253 36.6768 66.9905C27.16 68.2075 21.308 71.9004 21.0239 76.8523C20.9529 78.2651 21.2938 79.0765 22.4159 80.0976C24.9442 82.4197 29.7026 83.3569 34.3757 82.4896C38.85 81.6503 43.6225 78.7547 47.3724 74.5722C48.6508 73.1454 50.1848 71.159 50.7814 70.1518C51.0229 69.7462 51.2075 69.5783 51.378 69.6203C51.5058 69.6622 53.3665 69.8861 55.5113 70.1379C57.6562 70.3757 59.4743 70.6414 59.5453 70.6974C59.7157 70.8513 58.1959 73.9287 57.1874 75.4674C55.4829 78.0973 52.9688 80.825 50.3837 82.8533C46.094 86.2245 40.4834 88.8264 35.6967 89.6377C34.1058 89.9175 30.3133 90.0154 28.5236 89.8336Z" fill="#43C4F4"/>
<path d="M0.186307 68.305C-0.0693657 68.0392 -0.0551617 67.9833 0.314144 66.7943C3.12655 57.7997 9.54679 36.2855 9.46156 36.1876C9.43315 36.1596 7.45879 36.5093 5.07251 36.9709C0.825491 37.7962 0.75447 37.8102 0.399368 37.5444C0.206338 37.4076 0.0661317 37.2104 0.00165462 36.9849C-0.0267535 36.817 0.314144 35.614 0.75447 34.2991C1.33684 32.5785 1.64933 31.8651 1.86239 31.7253C2.03284 31.6273 4.26287 31.1377 6.8054 30.6621L11.4501 29.7948L12.4586 26.3957C15.0438 17.7928 17.3874 11.2042 18.8931 8.23866C21.1515 3.81831 25.6116 0.866751 30.9097 0.293225C33.6227 -0.000532597 36.5771 0.559005 39.2475 1.85993C41.023 2.72721 42.2161 3.66444 43.0542 4.89542C43.9774 6.2523 44.3325 7.3434 44.3183 8.99403C44.3183 11.7777 43.04 13.9599 40.7957 15.0091C38.5089 16.0862 35.313 15.6665 34.1908 14.1278C33.3102 12.9248 33.1397 11.2042 33.7789 9.91727C34.1198 9.20386 35.0715 8.23866 35.6397 8.00086C35.8669 7.91693 36.0516 7.79103 36.0516 7.73508C36.0516 7.67912 35.7107 7.48328 35.313 7.30143C34.1908 6.81184 32.3159 6.82583 31.2222 7.32941C28.9921 8.36456 27.4155 10.5887 25.4695 15.4287C24.6315 17.485 21.2793 27.3189 21.2793 27.6826C21.2793 27.7945 21.322 27.8784 21.393 27.8784C21.4498 27.8784 22.8134 27.6266 24.4042 27.3189C28.1257 26.6055 28.2819 26.6055 28.6513 27.2769C28.7933 27.5567 28.6939 27.9624 28.0121 30.0047C27.5717 31.3336 27.1314 32.5086 27.032 32.6205C26.9184 32.7324 25.2281 33.1241 23.0548 33.5438C20.9811 33.9354 19.2198 34.3271 19.1629 34.397C18.9357 34.6209 17.0749 40.552 14.3904 49.5605C12.9416 54.4425 11.578 58.9468 11.3791 59.5622C9.88768 64.0945 6.50712 67.2139 1.8908 68.305C0.484593 68.6407 0.498797 68.6407 0.186307 68.305Z" fill="#43C4F4"/>
<path d="M88.1095 59.5613C85.1266 59.2116 83.4932 58.9878 83.3937 58.8759C83.3653 58.8479 84.2318 55.8124 85.3397 52.1334C86.4476 48.4405 88.493 41.5582 89.8992 36.8301C91.3054 32.102 92.5412 28.1433 92.6406 28.0314C92.9247 27.7516 100.68 26.3388 100.993 26.4926C101.504 26.7584 101.547 27.0941 101.177 28.1712C100.978 28.7448 100.836 29.2763 100.851 29.3743C100.879 29.4582 101.461 29.1784 102.214 28.7168C106.021 26.3528 109.06 26.003 111.745 27.6257C114.643 29.3743 116.049 33.0532 115.609 37.6974C115.296 41.0266 114.373 44.5797 113.265 46.7199C112.295 48.6065 110.933 50.2705 109.266 51.6034C107.599 52.9363 105.666 53.9082 103.592 54.4555C102.2 54.8332 99.4017 54.9871 98.2654 54.7493C96.6603 54.4275 94.9843 53.3364 94.5723 52.3433C94.4729 52.1194 94.3451 51.9796 94.2883 52.0355C94.2314 52.0915 93.6491 53.896 93.0099 56.0362L91.831 59.911L91.3906 59.897C91.1492 59.897 89.6719 59.7431 88.1095 59.5613ZM101.788 49.7834C106.774 47.1955 109.97 38.7185 107.74 33.9904C106.362 31.0529 103.024 30.899 99.9273 33.6267C99.4017 34.1023 99.3733 34.1443 97.47 40.7189C95.6945 46.8878 95.5666 47.3774 95.7371 47.825C96.114 48.7576 96.8064 49.5334 97.6972 50.0212C98.4074 50.3849 98.5921 50.4129 99.6148 50.3709C100.595 50.3149 100.893 50.245 101.788 49.7834V49.7834Z" fill="#43C4F4"/>
<path d="M60.696 56.3305C59.375 56.1487 57.5995 55.9109 56.7756 55.8129L55.27 55.6451L57.1734 49.2803C58.2245 45.7832 60.0568 39.5864 61.2499 35.5157C62.4573 31.4591 63.5084 28.0599 63.5794 27.9899C63.7214 27.8501 70.8519 26.4792 71.5905 26.4512C72.0734 26.4372 72.4143 26.703 72.4143 27.0947C72.4143 27.2765 72.2581 27.878 72.0592 28.4376C71.8604 28.9971 71.7325 29.4867 71.7609 29.5147C71.7893 29.5427 72.2723 29.2769 72.8404 28.9132C74.1756 28.0599 76.2352 27.1227 77.3857 26.8289C78.0814 26.6557 78.8008 26.5943 79.5164 26.647C80.5817 26.689 80.8657 26.7729 81.9737 27.3045C83.6071 28.0739 84.7719 29.1929 85.5105 30.6757C86.4195 32.5082 86.5474 33.1936 86.5332 36.2711C86.5332 39.1947 86.3059 40.6914 85.411 43.7549C83.8628 49.0425 80.0703 52.8334 74.758 54.4001C73.6075 54.7498 73.2524 54.7918 71.278 54.7918C69.3604 54.8058 68.9769 54.7638 68.2667 54.498C67.102 54.0784 66.1929 53.3929 65.6958 52.6096C65.4259 52.1899 65.2271 51.9801 65.1845 52.092C65.156 52.2039 64.8294 53.267 64.46 54.4561C63.8493 56.4564 63.7782 56.6243 63.4516 56.6522C63.2669 56.6662 62.0312 56.5124 60.696 56.3305ZM72.5564 49.8958C75.8091 48.3711 78.6073 44.0487 79.3175 39.4605C79.8572 35.9773 78.9198 33.0957 76.8886 32.0326C76.4483 31.7948 76.0648 31.7249 75.1699 31.7249C74.1472 31.7249 73.9342 31.7808 72.9683 32.2424C72.2968 32.5835 71.6717 33.0065 71.1075 33.5014L70.3121 34.2428L68.4372 40.8453L66.548 47.4479L66.9316 48.2172C67.3577 49.0705 68.3236 49.9937 69.0338 50.2316C69.2894 50.3155 69.9854 50.3714 70.5678 50.3575C71.42 50.3295 71.8177 50.2455 72.5564 49.8958Z" fill="#43C4F4"/>
<path d="M48.4088 52.9179C45.3691 52.5402 43.409 50.6798 43.1959 47.98C43.0965 46.6091 43.3095 45.504 44.1618 42.9581C45.1703 39.9786 46.1077 36.8592 47.4145 32.229C48.0395 30.0328 48.5934 28.2003 48.6645 28.1304C48.7355 28.0605 50.5394 27.6688 52.6842 27.2491C56.1784 26.5777 56.6045 26.5217 56.9028 26.7036C57.0022 26.7697 57.083 26.8596 57.1376 26.9647C57.1923 27.0699 57.219 27.187 57.2153 27.3051C57.2153 27.5289 56.6329 29.6551 55.9227 32.0192C53.1671 41.2516 51.3916 47.6023 51.3916 48.2038C51.3916 48.6235 51.4769 48.8892 51.6473 49.0431C51.9882 49.3509 52.812 49.3509 53.437 49.0431C53.8915 48.8333 53.9484 48.8333 54.2893 49.0571C54.7864 49.3649 54.7722 49.9244 54.2609 50.6238C52.9541 52.4003 50.8377 53.2257 48.4088 52.9179Z" fill="#43C4F4"/>
<path d="M32.3724 52.6943C30.4975 52.2047 28.793 50.8199 28.2816 49.393C28.0828 48.8195 28.0259 48.274 28.0402 47.043C28.0544 45.6721 28.1112 45.2385 28.4805 44.1054C30.2418 38.608 31.1224 35.7403 33.2815 28.3265C34.9291 22.6192 35.824 19.7935 35.9944 19.6257C36.1933 19.4578 37.3864 19.178 40.071 18.6605C44.105 17.9051 44.3464 17.9051 44.5027 18.5486C44.5595 18.7304 43.5652 22.2835 42.017 27.4592C37.8552 41.3637 36.1791 47.1969 36.0939 48.0641C35.966 49.3511 36.4916 49.6728 38.125 49.2671C40.0568 48.7775 39.2045 51.1836 37.0455 52.2886C35.8098 52.9181 33.8638 53.086 32.3724 52.6943Z" fill="#43C4F4"/>
<path d="M54.1614 24.1993C53.2098 23.8776 52.7268 23.5838 52.1303 22.9124C51.7636 22.4996 51.4869 22.017 51.3175 21.4945C51.1482 20.9721 51.0896 20.4209 51.1456 19.8752C51.2015 19.3296 51.3707 18.801 51.6427 18.3225C51.9148 17.8439 52.2838 17.4255 52.7268 17.0932C54.829 15.5125 57.7551 16.2399 58.9482 18.6319C59.6158 19.9468 59.3033 21.8073 58.2238 23.0243C57.3005 24.0455 55.3972 24.591 54.1614 24.1993Z" fill="#43C4F4"/>
</g>
<defs>
<clipPath id="clip0_48_2840">
<rect width="132" height="89.7087" fill="white" transform="translate(0 0.216797)"/>
</clipPath>
</defs>
</svg>
