<svg width="197" height="42" viewBox="0 0 197 42" fill="none" xmlns="http://www.w3.org/2000/svg">
<path d="M155.975 32.584C155.975 37.5999 151.91 41.666 146.894 41.666C141.878 41.666 137.812 37.5999 137.812 32.584C137.812 27.5684 141.878 23.5023 146.894 23.5023C151.91 23.5023 155.975 27.5684 155.975 32.584Z" fill="#ED2724"/>
<path d="M176.469 32.584C176.469 37.5999 172.403 41.666 167.387 41.666C162.372 41.666 158.305 37.5999 158.305 32.584C158.305 27.5684 162.372 23.5023 167.387 23.5023C172.403 23.5023 176.469 27.5684 176.469 32.584Z" fill="#F9AF0D"/>
<path d="M196.953 32.584C196.953 37.5999 192.887 41.666 187.871 41.666C182.855 41.666 178.789 37.5999 178.789 32.584C178.789 27.5684 182.855 23.5023 187.871 23.5023C192.887 23.5023 196.953 27.5684 196.953 32.584Z" fill="#3E8BD1"/>
<path d="M15.1083 23.4587H9.11285V41.2812H2.49447V23.4587H0V17.8055H2.49447V10.2838C2.49447 6.88278 3.40565 4.34322 5.18045 2.66621C6.95457 0.941956 9.11285 0.0797195 11.6552 0.0797195C12.9501 0.0797195 14.1013 0.319305 15.1083 0.846272V6.83456C14.0055 6.25938 13.0459 5.97254 12.1351 5.97254C9.97633 5.97254 9.11285 7.45732 9.11285 11.2421V17.8055H15.1083V23.4587Z" fill="#161616"/>
<path d="M18.1797 41.2812V17.8061H24.7987V21.351C26.4292 18.4766 28.6836 17.0395 31.609 17.0395C32.5205 17.0395 33.4801 17.2309 34.4871 17.6144L33.5759 23.7945C32.5684 23.2675 31.5134 22.9801 30.41 22.9801C26.6691 22.9801 24.7987 25.328 24.7987 30.0224V41.2812H18.1797Z" fill="#161616"/>
<path d="M53.525 24.9446C52.2301 23.6507 50.6953 22.9803 48.9202 22.9803C47.0497 22.9803 45.515 23.6033 44.2201 24.8964C42.973 26.1894 42.3495 27.7229 42.3495 29.5439C42.3495 31.3639 42.973 32.8967 44.2201 34.1908C45.515 35.4843 47.0497 36.1074 48.9202 36.1074C50.6953 36.1074 52.2301 35.4843 53.525 34.1908C54.8199 32.8967 55.4912 31.3639 55.4912 29.5912C55.4912 27.7708 54.8199 26.2381 53.525 24.9446ZM54.7719 17.8059H61.3909V41.2815H54.7719V38.2152C52.7574 40.754 50.2155 42 47.098 42C43.7886 42 41.0541 40.8018 38.848 38.4065C36.6419 36.0108 35.5391 33.0413 35.5391 29.4956C35.5391 25.9981 36.6419 23.028 38.8002 20.6325C40.9584 18.2371 43.6928 17.0397 46.9539 17.0397C49.9756 17.0397 52.6137 18.2849 54.7719 20.8241V17.8059Z" fill="#161616"/>
<path d="M84.3659 24.9446C82.6869 23.6507 80.8643 22.9803 78.9939 22.9803C75.1573 22.9803 72.2792 25.7112 72.2792 29.5439C72.2792 33.3764 75.1573 36.1074 78.9939 36.1074C80.8643 36.1074 82.6869 35.4365 84.3659 34.1431V40.6106C82.3033 41.5199 80.2888 42 78.3226 42C74.6295 42 71.5599 40.8018 69.114 38.4539C66.6679 36.1074 65.4688 33.1369 65.4688 29.6394C65.4688 26.0464 66.7155 23.0759 69.1617 20.6803C71.6557 18.2371 74.7252 17.0397 78.4188 17.0397C80.577 17.0397 82.5432 17.5186 84.3659 18.4767V24.9446Z" fill="#161616"/>
<path d="M90.4067 23.459H87.8164V17.8059H90.4067V9.80529H97.0255V17.8059H101.63V23.459H97.0255V30.4538C97.0255 34.4783 97.6012 36.2031 99.903 36.2031C100.239 36.2031 100.671 36.1549 101.102 36.1075V41.8557C100.383 41.9519 99.4238 42 98.3203 42C93.3321 42 90.4067 38.3587 90.4067 32.8018V23.459Z" fill="#161616"/>
<path d="M121.627 24.9446C120.331 23.6507 118.797 22.9803 117.023 22.9803C115.152 22.9803 113.617 23.6033 112.322 24.8964C111.074 26.1894 110.452 27.7229 110.452 29.5439C110.452 31.3639 111.074 32.8967 112.322 34.1908C113.617 35.4843 115.152 36.1074 117.023 36.1074C118.797 36.1074 120.331 35.4843 121.627 34.1908C122.922 32.8967 123.593 31.3639 123.593 29.5912C123.593 27.7708 122.922 26.2381 121.627 24.9446ZM122.874 17.8059H129.493V41.2815H122.874V38.2152C120.86 40.754 118.317 42 115.2 42C111.891 42 109.156 40.8018 106.95 38.4065C104.744 36.0108 103.641 33.0413 103.641 29.4956C103.641 25.9981 104.744 23.028 106.902 20.6325C109.061 18.2371 111.794 17.0397 115.056 17.0397C118.077 17.0397 120.715 18.2849 122.874 20.8241V17.8059Z" fill="#161616"/>
<path d="M144.124 36.2048C141.823 36.2048 141.058 34.3343 141.058 30.452V0.653805H134.438V32.5152C134.438 38.263 137.217 41.999 142.832 41.999C143.551 41.999 144.316 41.9527 145.039 41.8542V36.1064C144.607 36.1533 144.269 36.2048 144.124 36.2048Z" fill="#161616"/>
</svg>
