<svg width="217" height="65" viewBox="0 0 217 65" fill="none" xmlns="http://www.w3.org/2000/svg">
<g clip-path="url(#clip0_48_2857)">
<path fill-rule="evenodd" clip-rule="evenodd" d="M35.7608 45.2678C37.1568 45.2678 37.6237 45.8177 37.6237 47.0053C37.6237 56.6053 29.4284 64.7427 18.8118 64.7427C8.19528 64.7427 0 56.6053 0 47.0053C0 45.8177 0.46452 45.2678 1.86289 45.2678H5.77641C7.26865 45.2678 7.73317 45.8177 7.73317 47.0977C8.01236 52.8577 12.7611 57.6127 18.8143 57.6127C25.0528 57.6127 29.6161 52.8577 29.8953 47.0977C29.8953 45.8177 30.3623 45.2678 31.8521 45.2678H35.7632H35.7608ZM18.8118 36.1253C24.865 36.1253 29.8015 31.2802 29.8015 25.3377C29.8015 19.3952 24.8626 14.5478 18.8118 14.5478C12.7586 14.5478 7.82222 19.3952 7.82222 25.3377C7.82222 31.2802 12.7562 36.1253 18.8118 36.1253ZM38.4613 5.40526L40.8825 7.96526C41.5324 8.69771 41.7201 8.9703 41.7201 9.52023C41.7201 9.88526 41.6287 10.4328 40.9764 10.9827L35.2481 16.4275C36.826 19.1385 37.6457 22.213 37.6237 25.3377C37.6237 35.8527 28.9615 43.2577 18.8118 43.2577C8.6598 43.2577 0 35.8527 0 25.3377C0 14.8227 8.6598 7.41771 18.8118 7.41771C22.9444 7.41771 26.8266 8.64319 29.9844 10.8073L29.8929 10.7078L35.4816 5.49771C36.1314 4.85771 36.5045 4.67519 37.0653 4.67519C37.5298 4.67519 37.9029 4.85534 38.4613 5.40526ZM197.804 36.1253C203.857 36.1253 208.793 31.2802 208.793 25.3377C208.793 19.3952 203.859 14.5478 197.804 14.5478C191.75 14.5478 186.814 19.3952 186.814 25.3377C186.814 31.2802 191.75 36.1253 197.804 36.1253ZM197.804 7.41771C207.956 7.41771 216.615 14.8227 216.615 25.3377C216.615 35.8527 207.956 43.2577 197.804 43.2577C187.654 43.2577 178.992 35.8527 178.992 25.3377C178.992 14.8227 187.654 7.41771 197.804 7.41771ZM174.708 35.9427L176.012 38.9602C176.197 39.5078 176.291 39.6903 176.291 40.1478C176.291 40.6053 176.012 40.9703 175.266 41.3377C173.032 42.4352 169.865 43.2577 167.258 43.2577C160.274 43.2577 155.152 40.1478 155.152 31.8278V2.75756C155.152 1.29267 155.71 0.745117 157.2 0.745117H160.926C162.416 0.745117 162.974 1.29267 162.974 2.75756V8.32793H171.916C173.405 8.32793 173.961 8.87786 173.961 10.3404V13.2654C173.961 14.7303 173.405 15.2779 171.916 15.2779H162.974V32.0079C162.974 35.2079 164.837 36.1229 167.817 36.1229C169.309 36.1229 170.89 35.6654 172.101 35.1179C172.751 34.8429 173.032 34.7504 173.405 34.7504C173.961 34.7504 174.337 35.0254 174.708 35.9404V35.9427ZM138.761 21.9576C144.906 24.1502 149.099 26.6201 149.099 32.6527C149.099 38.9626 144.162 43.2601 136.061 43.2601C131.125 43.2601 126.655 41.5226 123.396 38.3226C122.835 37.7727 122.556 37.4076 122.556 36.9501C122.556 36.4927 122.835 36.1276 123.115 35.7626L125.257 33.295C125.724 32.7451 126.003 32.4701 126.561 32.4701C127.12 32.4701 127.493 32.8376 127.957 33.2026C130.939 35.855 133.546 36.8601 136.246 36.8601C139.32 36.8601 141.277 35.6702 141.277 33.295C141.277 30.4601 137.924 29.3602 133.731 27.8076C126.934 25.2476 124.231 22.8702 124.231 17.6601C124.231 10.8927 130.099 7.42008 136.061 7.42008C140.903 7.42008 143.789 8.60764 146.863 10.7102C147.513 11.1676 147.794 11.4426 147.794 11.9902C147.794 12.3576 147.609 12.6302 147.144 13.3626L145.373 15.8278C145 16.3777 144.627 16.5602 144.256 16.5602C143.698 16.5602 143.325 16.1928 142.86 15.9202C140.53 14.3653 138.576 13.8177 136.434 13.8177C133.731 13.8177 131.777 14.7327 131.777 17.1078C131.777 19.7602 133.919 20.2177 138.761 21.9552V21.9576ZM115.48 8.32793C116.967 8.32793 117.526 8.87786 117.526 10.3404V28.2604C117.526 37.9528 110.823 43.2553 102.067 43.2553C93.3131 43.2553 86.6101 37.9528 86.6101 28.2604V10.3427C86.6101 8.88023 87.1684 8.3303 88.6559 8.3303H92.3817C93.8739 8.3303 94.4323 8.88023 94.4323 10.3427V28.2627C94.4323 33.9327 97.785 36.1253 102.067 36.1253C106.259 36.1253 109.704 33.9327 109.704 28.2627V10.3427C109.704 8.88023 110.264 8.3303 111.754 8.3303H115.48V8.32793ZM61.9279 36.1253C67.9811 36.1253 72.9176 31.2802 72.9176 25.3377C72.9176 19.3952 67.9811 14.5478 61.9279 14.5478C55.8747 14.5478 50.9383 19.3952 50.9383 25.3377C50.9383 31.2802 55.8723 36.1253 61.9279 36.1253ZM61.9279 7.41771C72.0776 7.41771 80.7398 14.8227 80.7398 25.3377C80.7398 35.8527 72.0776 43.2577 61.9279 43.2577C51.7759 43.2577 43.1161 35.8527 43.1161 25.3377C43.1161 14.8227 51.7759 7.41771 61.9279 7.41771Z" fill="#FE0133"/>
</g>
<defs>
<clipPath id="clip0_48_2857">
<rect width="216.615" height="64" fill="white" transform="translate(0 0.745117)"/>
</clipPath>
</defs>
</svg>
