<svg width="163" height="65" viewBox="0 0 163 65" fill="none" xmlns="http://www.w3.org/2000/svg">
<g clip-path="url(#clip0_48_2868)">
<path d="M156.763 24.5797C152.95 20.7689 147.947 18.6697 142.672 18.6697C138.815 18.6697 134.939 20.1067 132.809 21.5252C128.398 24.4628 124.774 27.6516 118.248 36.0826V42.143C123.785 34.9303 129.024 29.2464 133.001 26.1205C135.615 24.0214 139.325 22.7208 142.672 22.7208C151.313 22.7208 158.617 30.0212 158.617 38.6665V42.3139C158.617 46.5857 156.94 50.5989 153.883 53.6199C150.858 56.6128 146.873 58.2607 142.672 58.2607C135.571 58.2607 129.32 53.3862 127.621 46.7296L124.767 50.1899C126.849 57.1646 134.368 62.3106 142.672 62.3106C147.947 62.3106 152.95 60.2083 156.763 56.405C160.571 52.5941 162.667 47.5909 162.667 42.3139V38.6665C162.667 33.3916 160.571 28.3862 156.763 24.5797ZM70.0063 22.7208C72.7579 22.7208 75.1372 23.3116 77.285 24.5278C78.2946 23.2661 79.3138 22.2415 80.0734 21.483C77.8012 19.7474 73.9535 18.6697 70.0063 18.6697C64.3809 18.6697 59.2728 20.6985 55.6253 24.3849C52.0049 28.0378 50.0053 33.1092 50.0053 38.6665V62.3106H54.0553V38.6665C54.0553 29.2778 60.6145 22.7208 70.0063 22.7208ZM108.494 62.3106V38.6665C108.494 31.3975 102.799 25.7018 95.5289 25.7018C92.1433 25.7018 88.9113 27.0727 86.4205 29.5602C83.9351 32.0456 82.5653 35.283 82.5653 38.6665V42.3139C82.5653 49.3394 88.5045 55.2797 95.5289 55.2797C97.4549 55.2797 100.077 54.8058 101.681 53.489V49.2085C100.105 50.4756 97.8163 51.2297 95.5289 51.2297C90.5322 51.2297 86.6153 47.3107 86.6153 42.3139V38.6665C86.6153 33.6686 90.5322 29.7561 95.5289 29.7561C100.53 29.7561 104.444 33.6686 104.444 38.6665V62.3106H108.494ZM0 36.3196V37.6277C0 44.65 2.66392 51.2027 7.50377 56.0761C12.3317 60.9386 18.8032 63.6123 25.726 63.6123C31.2919 63.6123 36.2204 62.3528 40.3808 59.8783C43.8108 57.8333 45.331 55.7666 45.4619 55.5773V33.7747H24.7424V37.8268H41.4119V54.3189L41.3957 54.3329C39.4438 56.2881 34.8106 59.5591 25.726 59.5591C19.8063 59.5591 14.3259 57.3031 10.2845 53.1968C6.26377 49.1101 4.04998 43.5799 4.04998 37.6277V36.3196C4.04998 30.6996 6.58514 25.0926 11.0019 20.9441C15.5118 16.7167 21.3871 14.3861 27.5492 14.3861C33.2957 14.3861 37.2992 15.2582 40.515 17.2058V12.6602C37.1672 11.2363 33.1659 10.5968 27.5492 10.5968C12.6174 10.5968 0 22.3789 0 36.3196ZM70.0063 29.7561C71.5428 29.7561 72.8445 30.0103 73.881 30.5146C74.3853 29.2573 74.9025 28.2207 75.6566 26.9623C74.5551 26.1746 71.9334 25.7018 70.0063 25.7018C62.6162 25.7018 57.0416 31.2752 57.0416 38.6665V62.3106H61.0916V38.6665C61.0916 33.4176 64.7586 29.7561 70.0063 29.7561ZM40.515 25.0006V20.2116C36.8502 18.2456 32.851 17.3692 27.5492 17.3692C22.1391 17.3692 17.0103 19.3547 13.1021 22.9513C9.19062 26.5609 7.03417 31.3088 7.03417 36.3196V37.6277C7.03417 48.0789 15.4176 56.5803 25.726 56.5803C34.1105 56.5803 37.5524 53.8363 38.4288 52.9685V40.8088H24.7424V44.8577H34.6396V50.9506L34.6039 50.9625C33.3304 51.4699 30.6859 52.5281 25.726 52.5281C21.7939 52.5281 18.1151 50.9993 15.3646 48.2152C12.6011 45.4215 11.0842 41.6593 11.0842 37.6277V36.3196C11.0842 28.2434 18.6247 21.4213 27.5492 21.4213C33.7231 21.4213 37.3739 22.4211 40.515 25.0006ZM136.121 32.631C137.948 30.8078 140.341 29.7561 142.672 29.7561C147.669 29.7561 151.588 33.6686 151.588 38.6665V42.3139C151.588 47.3107 147.669 51.2297 142.672 51.2297C140.253 51.2297 137.916 49.8999 136.085 47.4968C134.462 45.3717 133.41 42.4968 133.248 39.9129L129.968 43.9175C130.612 46.9807 132.214 49.9162 134.476 51.9796C136.811 54.1046 139.722 55.2797 142.672 55.2797C149.823 55.2797 155.636 49.4628 155.636 42.3139V38.6665C155.636 35.283 154.266 32.0456 151.781 29.5602C149.291 27.0727 146.058 25.7018 142.672 25.7018C140.532 25.7018 137.128 26.4689 133.072 30.1164L133.057 30.1304C131.972 31.2168 129.423 33.766 127.872 35.5838C125.265 38.4284 121.476 42.7229 118.248 47.0196V53.344C121.831 48.7411 123.893 46.1627 127.26 42.2739C130.276 38.7552 134.009 34.4791 136.121 32.631ZM75.5344 42.3139C75.5344 47.5909 77.6324 52.5941 81.44 56.405C85.2508 60.2083 90.2552 62.3106 95.5289 62.3106C97.7633 62.3106 100.058 61.8335 101.681 61.0339V56.9871C99.7855 57.7813 97.4949 58.2607 95.5289 58.2607C86.8879 58.2607 79.5822 50.9592 79.5822 42.3139V38.6665C79.5822 30.0212 86.8879 22.7208 95.5289 22.7208C99.8256 22.7208 103.842 24.3655 106.838 27.3616C109.831 30.3544 111.476 34.3698 111.476 38.6665V62.3106H115.526V37.8874C115.273 32.7273 113.071 27.8993 109.324 24.2897C105.571 20.6661 100.666 18.6697 95.5289 18.6697C90.2552 18.6697 85.2508 20.7689 81.44 24.5797C77.6324 28.3862 75.5344 33.3916 75.5344 38.6665V42.3139ZM122.418 26.6345C123.658 25.1456 124.941 23.6329 126.463 22.3562V0.961498H122.418V26.6345ZM129.447 20.6985V0.961498H133.495V17.921C132.395 18.4761 130.859 19.5321 129.447 20.6985Z" fill="#1AAE48"/>
</g>
<defs>
<clipPath id="clip0_48_2868">
<rect width="162.667" height="64" fill="white" transform="translate(0 0.745117)"/>
</clipPath>
</defs>
</svg>
