<svg width="272" height="65" viewBox="0 0 272 65" fill="none" xmlns="http://www.w3.org/2000/svg">
<g clip-path="url(#clip0_48_2859)">
<path d="M82.2109 47.5458C81.2445 47.1317 80.5543 46.3724 80.5543 45.268C80.5543 43.9564 81.6587 42.921 82.9012 42.921C83.3153 42.921 83.5914 42.9901 83.8675 43.1281C85.5242 43.8874 87.3189 44.3706 89.5277 44.3706C93.5313 44.3706 95.395 42.4379 95.395 38.7794V37.8131C93.6693 39.8839 91.8056 41.1264 88.6994 41.1264C83.9366 41.1264 79.5879 37.675 79.5879 31.6007V31.5316C79.5879 25.3883 84.0056 22.006 88.6994 22.006C91.8746 22.006 93.7384 23.3175 95.326 25.0431V24.9051C95.326 23.3175 96.6375 22.006 98.2251 22.006C99.8127 22.006 101.124 23.3175 101.124 24.9051V38.0892C101.124 41.7476 100.227 44.4396 98.5012 46.1653C96.5684 48.098 93.6693 48.9264 89.6658 48.9264C86.9737 48.9954 84.6268 48.5122 82.2109 47.5458ZM95.395 31.5316V31.4626C95.395 28.7016 93.1861 26.6998 90.356 26.6998C87.526 26.6998 85.3861 28.6325 85.3861 31.4626V31.5316C85.3861 34.3617 87.526 36.2945 90.356 36.2945C93.1861 36.2945 95.395 34.2927 95.395 31.5316ZM104.368 24.9741C104.368 23.3865 105.68 22.075 107.268 22.075C108.855 22.075 110.167 23.3865 110.167 24.9741V25.8715C110.995 23.8697 112.376 22.075 114.101 22.075C115.896 22.075 116.931 23.2484 116.931 24.9051C116.931 26.4237 115.965 27.321 114.722 27.5971C111.754 28.2874 110.167 30.5653 110.167 34.6378V40.091C110.167 41.6786 108.855 42.9901 107.268 42.9901C105.68 42.9901 104.368 41.6786 104.368 40.091V24.9741ZM116.31 36.8467V36.7777C116.31 32.2909 119.692 30.2201 124.593 30.2201C126.664 30.2201 128.183 30.5653 129.632 31.0485V30.7033C129.632 28.2874 128.114 26.9759 125.215 26.9759C123.627 26.9759 122.315 27.183 121.211 27.5281C120.866 27.6662 120.659 27.6662 120.383 27.6662C119.071 27.6662 117.967 26.6308 117.967 25.3192C117.967 24.2838 118.588 23.3865 119.554 23.0414C121.418 22.3511 123.351 21.9369 126.112 21.9369C129.287 21.9369 131.565 22.7653 133.015 24.2148C134.533 25.7334 135.223 28.0113 135.223 30.7724V40.091C135.223 41.6786 133.981 42.852 132.393 42.852C130.737 42.852 129.632 41.6786 129.632 40.4361V40.3671C128.252 41.9547 126.25 42.9901 123.42 42.9901C119.485 43.1281 116.31 40.9193 116.31 36.8467ZM129.632 35.5352V34.4998C128.666 34.0166 127.354 33.7405 125.905 33.7405C123.42 33.7405 121.901 34.7069 121.901 36.5706V36.6396C121.901 38.2272 123.213 39.1246 125.076 39.1246C127.769 39.1246 129.632 37.675 129.632 35.5352ZM138.261 24.9741C138.261 23.3865 139.572 22.075 141.16 22.075C142.747 22.075 144.059 23.3865 144.059 24.9741V25.1812C145.37 23.4555 147.165 21.8679 150.133 21.8679C152.825 21.8679 154.827 23.0414 155.931 25.1122C157.726 23.0414 159.866 21.8679 162.627 21.8679C166.976 21.8679 169.53 24.4909 169.53 29.3918V40.091C169.53 41.6786 168.218 42.9901 166.631 42.9901C165.043 42.9901 163.731 41.6786 163.731 40.091V31.3246C163.731 28.5635 162.489 27.183 160.349 27.183C158.14 27.183 156.829 28.6325 156.829 31.3246V40.091C156.829 41.6786 155.517 42.9901 153.93 42.9901C152.342 42.9901 151.03 41.6786 151.03 40.091V31.3246C151.03 28.5635 149.788 27.183 147.648 27.183C145.439 27.183 144.128 28.6325 144.128 31.3246V40.091C144.128 41.6786 142.816 42.9901 141.229 42.9901C139.641 42.9901 138.33 41.6786 138.33 40.091V24.9741H138.261ZM172.636 24.9741C172.636 23.3865 173.947 22.075 175.535 22.075C177.123 22.075 178.434 23.3865 178.434 24.9741V25.1812C179.746 23.4555 181.54 21.8679 184.508 21.8679C187.2 21.8679 189.202 23.0414 190.307 25.1122C192.101 23.0414 194.241 21.8679 197.002 21.8679C201.351 21.8679 203.905 24.4909 203.905 29.3918V40.091C203.905 41.6786 202.593 42.9901 201.006 42.9901C199.418 42.9901 198.107 41.6786 198.107 40.091V31.3246C198.107 28.5635 196.864 27.183 194.724 27.183C192.516 27.183 191.204 28.6325 191.204 31.3246V40.091C191.204 41.6786 189.893 42.9901 188.305 42.9901C186.717 42.9901 185.406 41.6786 185.406 40.091V31.3246C185.406 28.5635 184.163 27.183 182.023 27.183C179.815 27.183 178.503 28.6325 178.503 31.3246V40.091C178.503 41.6786 177.192 42.9901 175.604 42.9901C174.016 42.9901 172.705 41.6786 172.705 40.091V24.9741H172.636ZM205.838 36.8467V36.7777C205.838 32.2909 209.22 30.2201 214.121 30.2201C216.192 30.2201 217.71 30.5653 219.16 31.0485V30.7033C219.16 28.2874 217.641 26.9759 214.742 26.9759C213.155 26.9759 211.843 27.183 210.739 27.5281C210.393 27.6662 210.186 27.6662 209.91 27.6662C208.599 27.6662 207.494 26.6308 207.494 25.3192C207.494 24.2838 208.116 23.3865 209.082 23.0414C210.946 22.3511 212.878 21.9369 215.639 21.9369C218.815 21.9369 221.093 22.7653 222.542 24.2148C224.061 25.7334 224.751 28.0113 224.751 30.7724V40.091C224.751 41.6786 223.508 42.852 221.921 42.852C220.264 42.852 219.16 41.6786 219.16 40.4361V40.3671C217.71 41.9547 215.778 42.9901 212.947 42.9901C209.013 43.1281 205.838 40.9193 205.838 36.8467ZM219.16 35.5352V34.4998C218.193 34.0166 216.882 33.7405 215.432 33.7405C212.947 33.7405 211.429 34.7069 211.429 36.5706V36.6396C211.429 38.2272 212.74 39.1246 214.604 39.1246C217.365 39.1246 219.16 37.675 219.16 35.5352ZM227.788 24.9741C227.788 23.3865 229.1 22.075 230.687 22.075C232.275 22.075 233.586 23.3865 233.586 24.9741V25.8715C234.415 23.8697 235.795 22.075 237.521 22.075C239.316 22.075 240.351 23.2484 240.351 24.9051C240.351 26.4237 239.385 27.321 238.142 27.5971C235.174 28.2874 233.586 30.5653 233.586 34.6378V40.091C233.586 41.6786 232.275 42.9901 230.687 42.9901C229.1 42.9901 227.788 41.6786 227.788 40.091V24.9741ZM242.146 17.5192C242.146 15.9316 243.457 14.6201 245.045 14.6201C246.632 14.6201 247.944 15.9316 247.944 17.5192V40.091C247.944 41.6786 246.632 42.9901 245.045 42.9901C243.457 42.9901 242.146 41.6786 242.146 40.091V17.5192ZM252.569 48.4432C251.74 48.1671 250.705 47.4768 250.705 46.0272C250.705 44.5777 251.809 43.6803 252.983 43.6803C253.466 43.6803 253.742 43.7494 253.949 43.8184C254.432 43.9564 254.778 44.0255 255.192 44.0255C256.227 44.0255 256.71 43.8184 257.263 42.783L257.47 42.2998L250.498 26.0785C250.36 25.6644 250.222 25.1122 250.222 24.767C250.222 23.1104 251.464 22.006 253.121 22.006C254.571 22.006 255.399 22.8343 255.882 24.2148L260.3 36.1564L264.579 24.2838C265.063 23.0414 265.891 22.075 267.34 22.075C268.859 22.075 270.102 23.2484 270.102 24.767C270.102 25.2502 269.963 25.8715 269.825 26.1476L262.647 43.3352C260.921 47.4768 259.195 49.0644 255.744 49.0644C254.432 48.9954 253.535 48.7883 252.569 48.4432Z" fill="#4C4C4C"/>
<path d="M31.7523 64.2496C49.2886 64.2496 63.5045 50.0337 63.5045 32.4974C63.5045 14.9611 49.2886 0.745117 31.7523 0.745117C14.216 0.745117 0 14.9611 0 32.4974C0 50.0337 14.216 64.2496 31.7523 64.2496Z" fill="#2BB673"/>
<path d="M38.0339 36.7788C36.7224 36.7788 35.687 37.9522 35.8941 39.3328C36.1012 40.3682 37.0676 41.0584 38.103 41.0584H41.4162L43.349 40.7823C40.2428 45.3381 34.9277 47.4089 29.0605 46.4425C24.2976 45.6832 20.225 42.439 18.4994 37.9522C14.5649 27.7363 22.0197 17.9345 31.7525 17.9345C36.7915 17.9345 41.2782 20.9026 43.8322 24.492V24.5611C44.5224 25.5274 45.8339 25.8035 46.8003 25.1133C47.6977 24.492 47.9738 23.2496 47.4216 22.2832C43.9012 16.761 37.5507 13.2407 30.441 13.7239C21.1914 14.4832 13.6675 22.0761 13.1153 31.3947C12.4941 42.2319 21.0534 50.9983 31.7525 50.9983C37.3437 50.9983 42.3826 48.5823 45.7649 44.5788L45.3508 46.8567V48.9275C45.3508 49.9629 46.041 50.9292 47.0764 51.1363C48.457 51.4124 49.6304 50.308 49.6304 48.9965V36.7788H38.0339Z" fill="white"/>
</g>
<defs>
<clipPath id="clip0_48_2859">
<rect width="271.238" height="64" fill="white" transform="translate(0 0.745117)"/>
</clipPath>
</defs>
</svg>
