<svg width="354" height="78" viewBox="0 0 354 78" fill="none" xmlns="http://www.w3.org/2000/svg">
<path d="M92.5557 17.0596H98.4557V33.4689C100.853 29.9658 104.171 28.1221 108.043 28.1221C113.39 28.1221 116.524 31.0721 116.524 36.9721V57.0689H110.624V38.6314C110.624 34.5752 109.149 33.4689 106.199 33.4689C104.356 33.4689 102.696 34.5752 101.037 36.6033C99.3775 38.8158 98.64 41.5814 98.64 45.0846V57.0689H92.74L92.5557 17.0596Z" fill="#3A3938"/>
<path d="M146.026 44.3508H125.929C125.929 48.7758 128.51 52.2789 132.935 52.2789C136.069 52.2789 139.019 50.4352 140.31 47.4852L145.288 49.5133C142.338 55.0445 139.019 57.4414 132.751 57.4414C123.347 57.4414 119.476 49.5133 119.476 42.6914C119.476 35.8695 123.347 27.9414 132.751 27.9414C141.785 27.9414 145.841 35.3164 145.841 41.7695V44.3508H146.026ZM126.113 39.557H139.941C139.388 36.0539 136.991 33.2883 133.119 33.2883C129.247 33.2883 126.851 35.8695 126.113 39.557Z" fill="#3A3938"/>
<path d="M192.118 28.1248C193.593 28.1248 194.884 28.4936 196.543 29.2311C198.018 29.9686 199.125 30.7061 199.862 31.6279V16.8779H205.762V56.8873H199.862V53.5686C198.756 55.4123 195.621 57.2561 192.118 57.2561C183.821 57.2561 179.396 51.9092 179.396 42.5061C179.396 33.6561 183.821 28.1248 192.118 28.1248ZM185.481 42.6904C185.481 45.6404 186.218 47.8529 187.509 49.6967C188.8 51.3561 190.643 52.2779 192.671 52.2779C194.884 52.2779 196.543 51.3561 197.834 49.6967C199.125 48.0373 199.862 45.6404 199.862 42.6904C199.862 39.7404 199.125 37.5279 197.834 35.8686C196.543 34.2092 194.7 33.2873 192.671 33.2873C190.459 33.2873 188.8 34.2092 187.509 35.8686C186.218 37.5279 185.481 39.9248 185.481 42.6904Z" fill="#3A3938"/>
<path d="M228.07 32.548L224.383 35.8668C223.092 34.2074 221.433 33.2855 219.405 33.2855C217.745 33.2855 216.639 34.3918 216.639 36.0512C216.639 36.6043 216.823 37.3418 217.377 37.7105C218.298 38.6324 219.22 39.1855 221.802 40.1074C223.83 40.8449 224.567 41.2137 226.227 42.1355C228.439 43.4262 229.545 45.2699 229.73 48.2199C229.73 50.8012 228.808 52.8293 226.964 54.673C225.12 56.3324 222.723 57.2543 219.773 57.2543C214.427 57.2543 210.555 53.7512 208.711 49.6949L213.689 46.9293C215.164 50.4324 217.377 52.0918 219.958 52.0918C222.539 52.0918 223.83 50.8012 223.83 48.4043C223.83 47.4824 223.461 46.7449 222.355 46.1918C221.802 45.823 221.433 45.6387 220.88 45.4543C219.958 45.0855 217.93 44.348 217.008 43.9793C212.952 42.3199 210.923 39.7387 210.923 36.2355C210.923 34.023 211.845 31.9949 213.32 30.5199C214.98 28.8605 217.008 28.123 219.589 28.123C223.092 28.123 226.227 29.7824 228.07 32.548Z" fill="#3A3938"/>
<path d="M246.877 57.4387C243.559 57.4387 240.609 55.7793 239.318 53.7512V68.5012H233.418V28.4918H239.318V31.8105C240.424 29.9668 243.559 28.123 247.062 28.123C255.359 28.123 259.784 33.4699 259.784 42.873C259.599 51.723 255.174 57.4387 246.877 57.4387ZM253.515 42.6887C253.515 39.7387 252.777 37.5262 251.487 35.8668C250.196 34.2074 248.352 33.2855 246.324 33.2855C244.112 33.2855 242.452 34.2074 241.162 35.8668C239.871 37.5262 239.134 39.923 239.134 42.6887C239.134 45.6387 239.871 47.8512 241.162 49.6949C242.452 51.3543 244.296 52.2762 246.324 52.2762C248.537 52.2762 250.196 51.3543 251.487 49.6949C252.777 48.0355 253.515 45.6387 253.515 42.6887Z" fill="#3A3938"/>
<path d="M317.678 49.5133C315.281 54.6758 311.225 57.4414 305.325 57.4414C301.084 57.4414 297.765 55.9664 295.368 53.2008C292.971 50.4352 291.865 46.932 291.865 42.6914C291.865 38.4508 292.971 34.9477 295.368 32.182C297.765 29.4164 301.084 27.9414 305.325 27.9414C311.225 27.9414 315.281 30.5227 317.678 35.8695L312.515 38.082C311.04 34.7633 308.643 33.1039 305.509 33.1039C300.715 33.1039 298.318 36.9758 298.318 42.507C298.318 48.2227 300.715 51.9102 305.509 51.9102C308.643 51.9102 311.04 50.2508 312.515 46.932L317.678 49.5133Z" fill="#3A3938"/>
<path d="M346.071 44.3508H325.975C325.975 48.7758 328.556 52.2789 332.981 52.2789C336.115 52.2789 339.065 50.4352 340.356 47.4852L345.334 49.5133C342.384 55.0445 339.065 57.4414 332.796 57.4414C323.393 57.4414 319.521 49.5133 319.521 42.6914C319.521 35.8695 323.393 27.9414 332.796 27.9414C341.831 27.9414 345.887 35.3164 345.887 41.7695V44.3508H346.071ZM326.159 39.557H339.987C339.434 36.0539 337.037 33.2883 333.165 33.2883C329.293 33.2883 326.712 35.8695 326.159 39.557Z" fill="#3A3938"/>
<path d="M162.248 28.123C163.723 28.123 165.014 28.4918 166.673 29.2293C168.148 29.9668 169.254 30.7043 169.992 31.6262V28.4918H175.892V57.0699H170.914L169.992 53.7512C168.885 55.5949 165.751 57.4387 162.248 57.4387C153.951 57.4387 149.526 52.0918 149.526 42.6887C149.342 33.8387 153.767 28.123 162.248 28.123ZM155.61 42.873C155.61 45.823 156.348 48.0355 157.639 49.8793C158.929 51.5387 160.773 52.4605 162.801 52.4605C165.014 52.4605 166.673 51.5387 167.964 49.8793C169.254 48.2199 169.992 45.823 169.992 42.873C169.992 39.923 169.254 37.7105 167.964 36.0512C166.673 34.3918 164.829 33.4699 162.801 33.4699C160.589 33.4699 158.929 34.3918 157.639 36.0512C156.348 37.5262 155.61 39.923 155.61 42.873Z" fill="#3A3938"/>
<path d="M275.271 28.123C276.746 28.123 278.037 28.4918 279.696 29.2293C281.171 29.9668 282.278 30.7043 283.015 31.6262V28.4918H288.915V57.0699H283.937L283.015 53.7512C281.909 55.5949 278.774 57.4387 275.271 57.4387C266.974 57.4387 262.549 52.0918 262.549 42.6887C262.365 33.8387 266.79 28.123 275.271 28.123ZM268.634 42.873C268.634 45.823 269.371 48.0355 270.662 49.8793C271.953 51.5387 273.796 52.4605 275.825 52.4605C278.037 52.4605 279.696 51.5387 280.987 49.8793C282.278 48.2199 283.015 45.823 283.015 42.873C283.015 39.923 282.278 37.7105 280.987 36.0512C279.696 34.3918 277.853 33.4699 275.825 33.4699C273.612 33.4699 271.953 34.3918 270.662 36.0512C269.187 37.5262 268.634 39.923 268.634 42.873Z" fill="#3A3938"/>
<path d="M74.3031 39.1858C75.225 51.3546 69.5094 58.1764 66.1906 62.9702C61.0281 68.5014 54.2062 76.0608 37.4281 76.4296C23.0469 76.9827 16.0406 70.7139 10.1406 65.1827C2.39688 56.7014 0.36875 51.5389 0 39.1858C0 31.4421 2.95 23.8827 8.1125 17.0608C15.3031 6.92019 26.7344 3.41706 37.4281 2.67956C48.4906 2.31081 57.3406 7.84206 63.425 13.9264C71.1688 22.2233 73.5656 29.2296 74.3031 39.1858Z" fill="#FF7E1D"/>
<path d="M352.156 29.2255C351.972 29.0411 351.787 28.8568 351.603 28.6724C351.419 28.488 351.05 28.3036 350.866 28.3036C350.128 28.1193 349.206 28.1193 348.469 28.6724C348.284 28.8568 348.1 29.0411 347.916 29.2255C347.731 29.4099 347.731 29.7786 347.547 29.963C347.362 30.7005 347.362 31.6224 347.916 32.1755C348.1 32.3599 348.284 32.5443 348.469 32.7286C348.653 32.913 349.022 33.0974 349.206 33.0974C349.391 33.0974 349.759 33.2818 349.944 33.2818C350.497 33.2818 351.05 33.0974 351.419 32.7286C351.603 32.5443 351.787 32.3599 351.972 32.1755C352.156 31.9911 352.156 31.6224 352.341 31.438C352.709 30.7005 352.525 29.7786 352.156 29.2255ZM351.603 31.9911C351.419 32.1755 351.234 32.3599 351.234 32.5443C351.05 32.7286 350.866 32.7286 350.681 32.913C349.944 33.0974 349.391 33.0974 348.837 32.5443C348.653 32.3599 348.469 32.1755 348.469 31.9911C348.284 31.8068 348.284 31.6224 348.1 31.438C348.1 31.2536 347.916 31.0693 347.916 30.7005C347.916 30.3318 348.1 29.7786 348.284 29.4099C348.469 29.2255 348.653 29.0411 348.837 28.8568C349.022 28.6724 349.206 28.6724 349.391 28.488C350.128 28.3036 350.681 28.3036 351.234 28.8568C351.419 29.0411 351.603 29.2255 351.603 29.4099C351.787 29.5943 351.787 29.7786 351.972 29.963C352.156 30.7005 351.972 31.438 351.603 31.9911Z" fill="#3A3938"/>
<path d="M350.312 30.8869C350.496 30.8869 350.681 30.8869 350.865 30.7025C351.234 30.3338 351.234 29.7807 351.05 29.5963C350.681 29.2275 350.496 29.2275 350.128 29.2275H349.021V32.1775H349.39V30.8869H349.943L350.681 32.1775H351.234L350.312 30.8869ZM349.943 30.5182H349.39V29.5963H350.496C350.681 29.7807 350.681 29.965 350.681 30.1494C350.681 30.3338 350.496 30.3338 350.312 30.3338C350.128 30.5182 350.128 30.5182 349.943 30.5182Z" fill="#3A3938"/>
</svg>
