<svg width="186" height="50" viewBox="0 0 186 50" fill="none" xmlns="http://www.w3.org/2000/svg"><path fill-rule="evenodd" clip-rule="evenodd" d="M19.648 0H9.82v9.81h9.828V0zM9.82 39.238H0V9.811h9.821v9.807h9.828V9.811h9.825v29.427H19.65v-9.812H9.82v9.812h9.827v9.808H9.82v-9.808zm72.414-23.14h2.802v16.74h-2.802v-16.74zm-44.656.686h2.8v6.672h7.716v-6.672h2.802v16.054h-2.802v-6.767h-7.716v6.767h-2.8V16.784zm22.694 16.33a6.504 6.504 0 01-2.436-.46 5.903 5.903 0 01-1.976-1.286 5.959 5.959 0 01-1.32-1.982 6.515 6.515 0 01-.483-2.556v-.054a6.849 6.849 0 01.434-2.453c.28-.74.697-1.421 1.23-2.006a5.74 5.74 0 011.873-1.353 6.19 6.19 0 014.926.037 5.217 5.217 0 011.815 1.42 6.06 6.06 0 011.09 2.075c.247.807.37 1.648.362 2.493 0 .121 0 .247-.014.379a4.14 4.14 0 00-.014.174c-.005.076-.01.152-.02.232h-8.913c.15.996.545 1.758 1.184 2.286.653.525 1.472.8 2.309.773a4.082 4.082 0 001.789-.363 5.888 5.888 0 001.494-1.08l1.625 1.443a6.66 6.66 0 01-2.08 1.661 6.226 6.226 0 01-2.875.62zm2.756-7.178a4.786 4.786 0 00-.299-1.25 3.231 3.231 0 00-.621-1.014 2.963 2.963 0 00-.93-.678 2.865 2.865 0 00-1.229-.249 2.796 2.796 0 00-2.123.88 3.964 3.964 0 00-1.016 2.307l6.218.004zm12.976 5.411v1.491l2.762-.014v-7.18c0-1.618-.439-2.88-1.31-3.774-.874-.894-2.214-1.34-4.018-1.34a10.259 10.259 0 00-2.55.275 12.97 12.97 0 00-2.07.736l.76 2.232c.528-.221 1.07-.405 1.624-.55a7.604 7.604 0 011.84-.203c.964-.001 1.702.22 2.215.666.513.445.77 1.087.77 1.927v.231c-.485-.158-.98-.281-1.482-.37a10.893 10.893 0 00-1.87-.135 7.7 7.7 0 00-1.968.24 4.456 4.456 0 00-1.56.733c-.432.327-.78.752-1.015 1.24a3.926 3.926 0 00-.367 1.753v.048a3.447 3.447 0 001.3 2.783c.404.323.868.566 1.364.714a5.664 5.664 0 001.653.24 5.01 5.01 0 002.339-.505 5.225 5.225 0 001.583-1.238zm-1.183-3.92c.428.074.848.188 1.255.34l-.006.681a2.23 2.23 0 01-.244 1.041c-.16.32-.393.597-.678.812a3.2 3.2 0 01-1.016.515 4.268 4.268 0 01-1.275.182 2.89 2.89 0 01-1.665-.458 1.5 1.5 0 01-.676-1.33v-.041a1.577 1.577 0 01.735-1.376c.487-.334 1.172-.507 2.045-.507a8.008 8.008 0 011.525.14zm16.5 5.434c.458.125.93.186 1.404.18.464.015.928-.033 1.38-.141a4.85 4.85 0 001.123-.456v-2.272a3.783 3.783 0 01-1.722.405 1.559 1.559 0 01-1.1-.357c-.262-.235-.39-.62-.39-1.158v-5.937h3.259v-2.396h-3.26v-3.325h-2.801v12.084a4.91 4.91 0 00.252 1.688c.146.419.398.793.73 1.087.325.282.71.486 1.126.598zm6.734-16.763h2.802v6.53c.197-.288.416-.559.656-.812a4.223 4.223 0 011.851-1.154 4.244 4.244 0 011.271-.175c1.375 0 2.437.418 3.186 1.262.749.844 1.123 1.972 1.123 3.392v7.708h-2.804v-6.875c0-.945-.223-1.677-.672-2.184-.449-.507-1.078-.77-1.903-.77a2.585 2.585 0 00-1.955.79c-.502.527-.753 1.262-.753 2.21v6.819h-2.802V16.098zm18.011 14.555v2.006h8.751v-2.351h-4.806l1.657-1.38c.509-.422.936-.79 1.303-1.123a7.37 7.37 0 00.959-1.051c.25-.34.446-.718.58-1.118.134-.43.199-.877.193-1.326a3.675 3.675 0 00-.3-1.495 3.414 3.414 0 00-.839-1.165 3.814 3.814 0 00-1.277-.744 4.923 4.923 0 00-1.606-.256 5.472 5.472 0 00-1.422.17 4.527 4.527 0 00-2.127 1.295c-.304.327-.586.674-.845 1.038l-.175.244 1.878 1.462.191-.245a5.97 5.97 0 011.18-1.205 1.947 1.947 0 011.18-.363c.398-.014.786.122 1.088.381a1.313 1.313 0 01.406 1.057c.003.212-.03.423-.095.625a2.381 2.381 0 01-.321.608 5.311 5.311 0 01-.609.702c-.26.25-.585.542-.963.858l-3.981 3.376zm21.86 2.412a10.089 10.089 0 01-3.562-.63 9.731 9.731 0 01-3.147-1.938l1.702-2.018a9.946 9.946 0 002.365 1.544c.855.37 1.779.553 2.711.537.873 0 1.565-.184 2.077-.552a1.717 1.717 0 00.772-1.466v-.047a1.87 1.87 0 00-.151-.767 1.701 1.701 0 00-.55-.63 4.479 4.479 0 00-1.109-.55 14.786 14.786 0 00-1.827-.503 18.38 18.38 0 01-2.29-.678 6.316 6.316 0 01-1.682-.919 3.602 3.602 0 01-1.037-1.316 4.514 4.514 0 01-.355-1.885v-.044a4.325 4.325 0 011.533-3.351 5.263 5.263 0 011.725-.952 6.818 6.818 0 012.206-.343 9.3 9.3 0 013.181.514c.96.356 1.858.862 2.658 1.5l-1.519 2.137a9.84 9.84 0 00-2.186-1.234 5.973 5.973 0 00-2.183-.418c-.827 0-1.47.184-1.927.55a1.67 1.67 0 00-.69 1.353v.049c-.006.279.05.556.162.811.131.266.334.489.587.643.367.23.762.41 1.175.538.496.168 1.131.343 1.899.527.759.19 1.505.427 2.233.712a5.638 5.638 0 011.625.952c.418.358.752.805.976 1.308a4.13 4.13 0 01.335 1.73v.047a4.672 4.672 0 01-.42 2.016 4.35 4.35 0 01-1.171 1.516 5.23 5.23 0 01-1.81.94 8.028 8.028 0 01-2.306.317zm9.66 3.318c.506.136 1.028.2 1.551.193.445.007.888-.054 1.314-.182a3.112 3.112 0 001.058-.587c.346-.297.642-.648.875-1.04.295-.507.547-1.037.753-1.585l4.827-12.453h-2.894l-3.147 8.99-3.452-8.99h-2.966l5.056 12.11a2.724 2.724 0 01-.735 1.098 1.582 1.582 0 01-.989.3c-.284 0-.567-.042-.839-.126a4.452 4.452 0 01-.79-.334l-.94 2.067c.42.225.861.406 1.318.54zm12.757-15.654h2.804v1.899c.198-.286.417-.557.654-.812a4.237 4.237 0 011.853-1.154 4.24 4.24 0 011.271-.174c1.375 0 2.437.417 3.186 1.261.749.844 1.121 1.972 1.121 3.392v7.708h-2.802v-6.874c0-.946-.225-1.678-.672-2.185-.447-.507-1.08-.769-1.903-.769a2.593 2.593 0 00-1.957.79c-.502.527-.751 1.26-.751 2.208v6.82h-2.804v-12.11zm17.437 11.919a6.3 6.3 0 002.436.467c1.177 0 2.148-.213 2.919-.641a7.535 7.535 0 002.043-1.641l-1.669-1.63c-.422.425-.9.791-1.421 1.088a3.727 3.727 0 01-3.206.114 3.575 3.575 0 01-1.146-.836 3.867 3.867 0 01-.751-1.24 4.326 4.326 0 01-.262-1.51v-.05a4.261 4.261 0 01.262-1.486 3.86 3.86 0 01.727-1.23 3.42 3.42 0 011.103-.825 3.191 3.191 0 011.401-.31c.62-.02 1.235.127 1.78.424.503.3.962.666 1.367 1.089l1.722-1.856a6.7 6.7 0 00-1.988-1.513c-.756-.383-1.709-.574-2.861-.574a6.256 6.256 0 00-2.514.489 6.335 6.335 0 00-2.008 1.365 6.21 6.21 0 00-1.318 2.028 6.39 6.39 0 00-.477 2.434v.045a6.293 6.293 0 00.477 2.434 6.074 6.074 0 001.318 1.994 6.294 6.294 0 002.066 1.371z" fill="#2BB59B"/></svg>