<svg xmlns="http://www.w3.org/2000/svg" width="190.123" height="45.999" viewBox="0 0 190.123 45.999">
  <g id="logo-intertec" transform="translate(-76.453 -968.331)">
    <g id="Group_721" data-name="Group 721" transform="translate(136.576 982.33)">
      <path id="Path_565" data-name="Path 565" d="M316.889,1015.633v16.761h-2.628v-16.761Z" transform="translate(-314.262 -1015.1)" fill="#1f1f1f"/>
      <g id="Group_719" data-name="Group 719" transform="translate(5.28 0.53)">
        <path id="Path_566" data-name="Path 566" d="M359.8,1032.382h-2.658v-8.04a6.113,6.113,0,0,0-12.225,0v8.04h-2.658v-8.04a8.77,8.77,0,0,1,17.541,0Z" transform="translate(-342.256 -1015.614)" fill="#1f1f1f"/>
      </g>
      <path id="Path_567" data-name="Path 567" d="M438.364,1015.633v2.615h7.456v14.146h2.628v-14.146h7.456v-2.615Z" transform="translate(-415.083 -1015.1)" fill="#1f1f1f"/>
      <path id="Path_568" data-name="Path 568" d="M652,1020.58a8.775,8.775,0,0,0-16.212,4.612v8.04h2.658v-8.04a6.117,6.117,0,0,1,11.744-2.366Z" transform="translate(-575.465 -1015.773)" fill="#1f1f1f"/>
      <path id="Path_569" data-name="Path 569" d="M543.885,1015.45h8.08V1012.8h-8.08a8.729,8.729,0,1,0,0,17.458h8.08v-2.645h-8.08a6.115,6.115,0,0,1-5.967-4.776H546.1v-2.615h-8.182A6.114,6.114,0,0,1,543.885,1015.45Z" transform="translate(-493.682 -1012.805)" fill="#1f1f1f"/>
      <path id="Path_570" data-name="Path 570" d="M832.9,1015.45h8.079V1012.8H832.9a8.729,8.729,0,1,0,0,17.458h8.079v-2.645H832.9a6.115,6.115,0,0,1-5.967-4.776h8.182v-2.615h-8.182A6.114,6.114,0,0,1,832.9,1015.45Z" transform="translate(-728.57 -1012.805)" fill="#1f1f1f"/>
      <g id="Group_720" data-name="Group 720" transform="translate(113.149)">
        <path id="Path_571" data-name="Path 571" d="M934.256,1012.8v2.645h-8.08a6.084,6.084,0,1,0,0,12.168h8.08v2.645h-8.08a8.729,8.729,0,1,1,0-17.458Z" transform="translate(-917.405 -1012.805)" fill="#1f1f1f"/>
      </g>
      <path id="Path_572" data-name="Path 572" d="M726.665,1015.633v2.615h7.456v14.146h2.628v-14.146h7.456v-2.615Z" transform="translate(-649.301 -1015.1)" fill="#1f1f1f"/>
    </g>
    <g id="Group_723" data-name="Group 723" transform="translate(76.453 968.331)">
      <path id="Path_573" data-name="Path 573" d="M99.663,968.331a23.225,23.225,0,0,0-4.537,46v-3.969A19.366,19.366,0,0,1,99.9,972.179v1.855a17.51,17.51,0,0,0-4.772,34.406v-3.232H104.2v9.123a23.225,23.225,0,0,0-4.537-46Zm0,32.768a9.545,9.545,0,1,1,9.54-9.546A9.543,9.543,0,0,1,99.663,1001.1Z" transform="translate(-76.453 -968.331)" fill="#b0113d"/>
      <g id="Group_722" data-name="Group 722" transform="translate(16.593 17.712)">
        <path id="Path_574" data-name="Path 574" d="M156.479,1038.388a9.538,9.538,0,0,1-14.394,12.391l6.77,6.774h4.37v4.372l3.688,3.69a23.282,23.282,0,0,0,13.494-13.519Z" transform="translate(-142.085 -1038.388)" fill="#871038"/>
      </g>
    </g>
  </g>
</svg>
