<svg width="248" height="50" viewBox="0 0 248 50" fill="none" xmlns="http://www.w3.org/2000/svg">
<g clip-path="url(#clip0_48_2916)">
<path d="M127.315 28.6838C127.315 40.6648 137.377 49.4287 150.16 49.4287C162.943 49.4287 173.016 40.6648 173.016 28.6838V1.15757H160.638V27.2648C160.638 33.7321 156.096 38.0868 150.127 38.0868C144.158 38.0868 139.616 33.7538 139.616 27.2648V1.15757H127.239L127.315 28.6838ZM206.085 12.1744H220.854V48.5197H233.23V12.1744H248V1.13586H206.084L206.085 12.1744ZM198.086 1.13586H185.71V48.5186H198.086V1.13586ZM77.3131 12.1744H92.082V48.5197H104.459V12.1744H119.217V1.13586H77.3131V12.1744ZM12.3789 1.13586H0.00195312V48.5186H12.3789V1.13586ZM70.7953 20.9275C70.7953 8.94624 60.7334 0.193359 47.9398 0.193359C35.1459 0.193359 25.0843 8.94624 25.0843 20.9275V48.5186H37.4613V22.4113C37.4613 15.9441 42.0041 11.5894 47.973 11.5894C53.9418 11.5894 58.4846 15.9224 58.4846 22.4113V48.5186H70.8616L70.7848 20.9275H70.7953Z" fill="#236CFF"/>
</g>
<defs>
<clipPath id="clip0_48_2916">
<rect width="248" height="49.2353" fill="white" transform="translate(0 0.193359)"/>
</clipPath>
</defs>
</svg>
