<svg xmlns="http://www.w3.org/2000/svg" width="112" height="48" viewBox="0 0 112 48"><defs><style>.cls-1{fill:#00acf0}</style></defs><g id="Group_15529" transform="translate(-99.748 -108.23)"><g id="Group_79" transform="translate(99.748 108.23)"><path id="Path_236" d="M174.1 315.7l-.054.018h.056z" class="cls-1" transform="translate(-161.82 -281.6)"/><path id="Rectangle_34" d="M0 0H.749V.75H0z" class="cls-1" transform="translate(0)"/><path id="Rectangle_35" d="M0 0H.749V.75H0z" class="cls-1" transform="translate(2.768 1.006)"/><path id="Rectangle_36" d="M0 0H.75V.75H0z" class="cls-1" transform="translate(5.645 2.076)"/><path id="Rectangle_37" d="M0 0H.75V.749H0z" class="cls-1" transform="translate(8.559 3.165)"/><path id="Rectangle_38" d="M0 0H.751V.75H0z" class="cls-1" transform="translate(11.447 4.236)"/><path id="Rectangle_39" d="M0 0H.75V.749H0z" class="cls-1" transform="translate(14.263 5.265)"/><path id="Rectangle_40" d="M0 0H.75V.75H0z" class="cls-1" transform="translate(16.967 6.23)"/><path id="Rectangle_41" d="M0 0H.75V.75H0z" class="cls-1" transform="translate(19.541 7.12)"/><path id="Rectangle_42" d="M0 0H.751V.749H0z" class="cls-1" transform="translate(21.967 7.927)"/><path id="Rectangle_43" d="M0 0H.75V.75H0z" class="cls-1" transform="translate(3.01 2.693)"/><path id="Rectangle_44" d="M0 0H.75V.749H0z" class="cls-1" transform="translate(5.47 3.521)"/><path id="Rectangle_45" d="M0 0H.75V.749H0z" class="cls-1" transform="translate(8.034 4.409)"/><path id="Rectangle_46" d="M0 0H.75V.749H0z" class="cls-1" transform="translate(10.643 5.321)"/><path id="Rectangle_47" d="M0 0H.751V.749H0z" class="cls-1" transform="translate(13.243 6.228)"/><path id="Rectangle_48" d="M0 0H.75V.749H0z" class="cls-1" transform="translate(15.794 7.105)"/><path id="Rectangle_49" d="M0 0H.749V.75H0z" class="cls-1" transform="translate(18.261 7.935)"/><path id="Rectangle_50" d="M0 0H.75V.75H0z" class="cls-1" transform="translate(20.623 8.705)"/><path id="Rectangle_51" d="M0 0H.751V.749H0z" class="cls-1" transform="translate(22.863 9.406)"/><path id="Rectangle_52" d="M0 0H.75V.749H0z" class="cls-1" transform="translate(5.72 5.213)"/><path id="Rectangle_53" d="M0 0H.75V.749H0z" class="cls-1" transform="translate(7.923 5.892)"/><path id="Rectangle_54" d="M0 0H.75V.75H0z" class="cls-1" transform="translate(10.221 6.627)"/><path id="Rectangle_55" d="M0 0H.75V.75H0z" class="cls-1" transform="translate(12.566 7.387)"/><path id="Rectangle_56" d="M0 0H.751V.75H0z" class="cls-1" transform="translate(14.914 8.149)"/><path id="Rectangle_57" d="M0 0H.749V.75H0z" class="cls-1" transform="translate(17.229 8.892)"/><path id="Rectangle_58" d="M0 0H.749V.75H0z" class="cls-1" transform="translate(19.479 9.598)"/><path id="Rectangle_59" d="M0 0H.75V.749H0z" class="cls-1" transform="translate(21.646 10.258)"/><path id="Rectangle_60" d="M0 0H.75V.75H0z" class="cls-1" transform="translate(23.714 10.859)"/><path id="Rectangle_61" d="M0 0H.75V.75H0z" class="cls-1" transform="translate(8.135 7.564)"/><path id="Rectangle_62" d="M0 0H.75V.749H0z" class="cls-1" transform="translate(10.124 8.121)"/><path id="Rectangle_63" d="M0 0H.75V.749H0z" class="cls-1" transform="translate(12.197 8.725)"/><path id="Rectangle_64" d="M0 0H.75V.75H0z" class="cls-1" transform="translate(14.316 9.356)"/><path id="Rectangle_65" d="M0 0H.751V.749H0z" class="cls-1" transform="translate(16.443 9.992)"/><path id="Rectangle_66" d="M0 0H.749V.75H0z" class="cls-1" transform="translate(18.55 10.615)"/><path id="Rectangle_67" d="M0 0H.75V.75H0z" class="cls-1" transform="translate(20.606 11.211)"/><path id="Rectangle_68" d="M0 0H.75V.749H0z" class="cls-1" transform="translate(22.598 11.769)"/><path id="Rectangle_69" d="M0 0H.751V.75H0z" class="cls-1" transform="translate(24.508 12.28)"/><path id="Rectangle_70" d="M0 0H.749V.75H0z" class="cls-1" transform="translate(10.269 9.753)"/><path id="Rectangle_71" d="M0 0H.75V.75H0z" class="cls-1" transform="translate(12.078 10.207)"/><path id="Rectangle_72" d="M0 0H.75V.75H0z" class="cls-1" transform="translate(13.962 10.703)"/><path id="Rectangle_73" d="M0 0H.75V.75H0z" class="cls-1" transform="translate(15.887 11.223)"/><path id="Rectangle_74" d="M0 0H.751V.75H0z" class="cls-1" transform="translate(17.824 11.75)"/><path id="Rectangle_75" d="M0 0H.749V.75H0z" class="cls-1" transform="translate(19.748 12.268)"/><path id="Rectangle_76" d="M0 0H.75V.75H0z" class="cls-1" transform="translate(21.634 12.766)"/><path id="Rectangle_77" d="M0 0H.75V.75H0z" class="cls-1" transform="translate(23.468 13.233)"/><path id="Rectangle_78" d="M0 0H.751V.75H0z" class="cls-1" transform="translate(25.236 13.663)"/><path id="Rectangle_79" d="M0 0H.749V.75H0z" class="cls-1" transform="translate(12.134 11.79)"/><path id="Rectangle_80" d="M0 0H.749V.75H0z" class="cls-1" transform="translate(13.796 12.158)"/><path id="Rectangle_81" d="M0 0H.75V.75H0z" class="cls-1" transform="translate(15.519 12.563)"/><path id="Rectangle_82" d="M0 0H.75V.75H0z" class="cls-1" transform="translate(17.28 12.988)"/><path id="Rectangle_83" d="M0 0H.751V.75H0z" class="cls-1" transform="translate(19.053 13.421)"/><path id="Rectangle_84" d="M0 0H.75V.749H0z" class="cls-1" transform="translate(20.819 13.849)"/><path id="Rectangle_85" d="M0 0H.75V.75H0z" class="cls-1" transform="translate(22.555 14.26)"/><path id="Rectangle_86" d="M0 0H.75V.75H0z" class="cls-1" transform="translate(24.25 14.648)"/><path id="Rectangle_87" d="M0 0H.751V.75H0z" class="cls-1" transform="translate(25.892 15.005)"/><path id="Rectangle_88" d="M0 0H.75V.749H0z" class="cls-1" transform="translate(13.748 13.683)"/><path id="Rectangle_89" d="M0 0H.75V.749H0z" class="cls-1" transform="translate(15.286 13.98)"/><path id="Rectangle_90" d="M0 0H.75V.75H0z" class="cls-1" transform="translate(16.876 14.307)"/><path id="Rectangle_91" d="M0 0H.75V.749H0z" class="cls-1" transform="translate(18.498 14.653)"/><path id="Rectangle_92" d="M0 0H.751V.749H0z" class="cls-1" transform="translate(20.132 15.006)"/><path id="Rectangle_93" d="M0 0H.75V.75H0z" class="cls-1" transform="translate(21.761 15.355)"/><path id="Rectangle_94" d="M0 0H.75V.749H0z" class="cls-1" transform="translate(23.368 15.692)"/><path id="Rectangle_95" d="M0 0H.75V.749H0z" class="cls-1" transform="translate(24.942 16.011)"/><path id="Rectangle_96" d="M0 0H.751V.749H0z" class="cls-1" transform="translate(26.472 16.304)"/><path id="Rectangle_97" d="M0 0H.749V.75H0z" class="cls-1" transform="translate(15.132 15.443)"/><path id="Rectangle_98" d="M0 0H.75V.75H0z" class="cls-1" transform="translate(16.567 15.681)"/><path id="Rectangle_99" d="M0 0H.75V.75H0z" class="cls-1" transform="translate(18.046 15.944)"/><path id="Rectangle_100" d="M0 0H.75V.75H0z" class="cls-1" transform="translate(19.551 16.223)"/><path id="Rectangle_101" d="M0 0H.751V.75H0z" class="cls-1" transform="translate(21.066 16.507)"/><path id="Rectangle_102" d="M0 0H.75V.749H0z" class="cls-1" transform="translate(22.579 16.79)"/><path id="Rectangle_103" d="M0 0H.75V.749H0z" class="cls-1" transform="translate(24.074 17.063)"/><path id="Rectangle_104" d="M0 0H.75V.749H0z" class="cls-1" transform="translate(25.544 17.321)"/><path id="Rectangle_105" d="M0 0H.751V.75H0z" class="cls-1" transform="translate(26.978 17.559)"/><path id="Rectangle_106" d="M0 0H.749V.749H0z" class="cls-1" transform="translate(16.305 17.082)"/><path id="Rectangle_107" d="M0 0H.749V.749H0z" class="cls-1" transform="translate(17.656 17.272)"/><path id="Rectangle_108" d="M0 0H.75V.749H0z" class="cls-1" transform="translate(19.041 17.481)"/><path id="Rectangle_109" d="M0 0H.75V.749H0z" class="cls-1" transform="translate(20.449 17.704)"/><path id="Rectangle_110" d="M0 0H.751V.749H0z" class="cls-1" transform="translate(21.865 17.931)"/><path id="Rectangle_111" d="M0 0H.75V.749H0z" class="cls-1" transform="translate(23.279 18.157)"/><path id="Rectangle_112" d="M0 0H.749V.75H0z" class="cls-1" transform="translate(24.679 18.376)"/><path id="Rectangle_113" d="M0 0H.75V.748H0z" class="cls-1" transform="translate(26.059 18.583)"/><path id="Rectangle_114" d="M0 0H.751V.749H0z" class="cls-1" transform="translate(27.41 18.773)"/><path id="Rectangle_115" d="M0 0H.75V.749H0z" class="cls-1" transform="translate(17.289 18.612)"/><path id="Rectangle_116" d="M0 0H.75V.749H0z" class="cls-1" transform="translate(18.57 18.761)"/><path id="Rectangle_117" d="M0 0H.75V.749H0z" class="cls-1" transform="translate(19.878 18.927)"/><path id="Rectangle_118" d="M0 0H.75V.749H0z" class="cls-1" transform="translate(21.204 19.102)"/><path id="Rectangle_119" d="M0 0H.751V.749H0z" class="cls-1" transform="translate(22.537 19.282)"/><path id="Rectangle_120" d="M0 0H.749V.749H0z" class="cls-1" transform="translate(23.869 19.461)"/><path id="Rectangle_121" d="M0 0H.75V.749H0z" class="cls-1" transform="translate(25.189 19.633)"/><path id="Rectangle_122" d="M0 0H.75V.749H0z" class="cls-1" transform="translate(26.493 19.796)"/><path id="Rectangle_123" d="M0 0H.751V.748H0z" class="cls-1" transform="translate(27.773 19.946)"/><path id="Rectangle_124" d="M0 0H.749V.749H0z" class="cls-1" transform="translate(18.103 20.044)"/><path id="Rectangle_125" d="M0 0H.75V.75H0z" class="cls-1" transform="translate(19.326 20.16)"/><path id="Rectangle_126" d="M0 0H.75V.75H0z" class="cls-1" transform="translate(20.571 20.289)"/><path id="Rectangle_127" d="M0 0H.75V.749H0z" class="cls-1" transform="translate(21.829 20.427)"/><path id="Rectangle_128" d="M0 0H.751V.749H0z" class="cls-1" transform="translate(23.093 20.567)"/><path id="Rectangle_129" d="M0 0H.75V.75H0z" class="cls-1" transform="translate(24.357 20.706)"/><path id="Rectangle_130" d="M0 0H.75V.749H0z" class="cls-1" transform="translate(25.61 20.84)"/><path id="Rectangle_131" d="M0 0H.75V.75H0z" class="cls-1" transform="translate(26.85 20.966)"/><path id="Rectangle_132" d="M0 0H.75V.749H0z" class="cls-1" transform="translate(28.072 21.083)"/><path id="Rectangle_133" d="M0 0H.75V.749H0z" class="cls-1" transform="translate(18.766 21.39)"/><path id="Rectangle_134" d="M0 0H.749V.75H0z" class="cls-1" transform="translate(19.943 21.48)"/><path id="Rectangle_135" d="M0 0H.75V.75H0z" class="cls-1" transform="translate(21.136 21.579)"/><path id="Rectangle_136" d="M0 0H.751V.75H0z" class="cls-1" transform="translate(22.339 21.684)"/><path id="Rectangle_137" d="M0 0H.75V.75H0z" class="cls-1" transform="translate(23.547 21.792)"/><path id="Rectangle_138" d="M0 0H.75V.75H0z" class="cls-1" transform="translate(24.753 21.898)"/><path id="Rectangle_139" d="M0 0H.75V.749H0z" class="cls-1" transform="translate(25.951 22.001)"/><path id="Rectangle_140" d="M0 0H.75V.75H0z" class="cls-1" transform="translate(27.139 22.097)"/><path id="Rectangle_141" d="M0 0H.751V.749H0z" class="cls-1" transform="translate(28.312 22.185)"/><path id="Rectangle_142" d="M0 0H.75V.75H0z" class="cls-1" transform="translate(19.299 22.661)"/><path id="Rectangle_143" d="M0 0H.75V.75H0z" class="cls-1" transform="translate(20.438 22.729)"/><path id="Rectangle_144" d="M0 0H.75V.75H0z" class="cls-1" transform="translate(21.589 22.804)"/><path id="Rectangle_145" d="M0 0H.75V.75H0z" class="cls-1" transform="translate(22.747 22.883)"/><path id="Rectangle_146" d="M0 0H.751V.75H0z" class="cls-1" transform="translate(23.908 22.965)"/><path id="Rectangle_147" d="M0 0H.75V.75H0z" class="cls-1" transform="translate(25.069 23.045)"/><path id="Rectangle_148" d="M0 0H.75V.75H0z" class="cls-1" transform="translate(26.222 23.121)"/><path id="Rectangle_149" d="M0 0H.75V.75H0z" class="cls-1" transform="translate(27.367 23.193)"/><path id="Rectangle_150" d="M0 0H.751V.75H0z" class="cls-1" transform="translate(28.5 23.258)"/><path id="Rectangle_151" d="M0 0H.749V.75H0z" class="cls-1" transform="translate(19.718 23.866)"/><path id="Rectangle_152" d="M0 0H.749V.75H0z" class="cls-1" transform="translate(20.827 23.917)"/><path id="Rectangle_153" d="M0 0H.75V.749H0z" class="cls-1" transform="translate(21.944 23.973)"/><path id="Rectangle_154" d="M0 0H.751V.75H0z" class="cls-1" transform="translate(23.066 24.032)"/><path id="Rectangle_155" d="M0 0H.751V.749H0z" class="cls-1" transform="translate(24.191 24.092)"/><path id="Rectangle_156" d="M0 0H.75V.75H0z" class="cls-1" transform="translate(25.314 24.15)"/><path id="Rectangle_157" d="M0 0H.75V.75H0z" class="cls-1" transform="translate(26.432 24.207)"/><path id="Rectangle_158" d="M0 0H.75V.75H0z" class="cls-1" transform="translate(27.543 24.258)"/><path id="Rectangle_159" d="M0 0H.75V.75H0z" class="cls-1" transform="translate(28.643 24.305)"/><path id="Rectangle_160" d="M0 0H.749V.75H0z" class="cls-1" transform="translate(20.041 25.017)"/><path id="Rectangle_161" d="M0 0H.749V.75H0z" class="cls-1" transform="translate(21.126 25.054)"/><path id="Rectangle_162" d="M0 0H.75V.75H0z" class="cls-1" transform="translate(22.217 25.094)"/><path id="Rectangle_163" d="M0 0H.75V.75H0z" class="cls-1" transform="translate(23.311 25.137)"/><path id="Rectangle_164" d="M0 0H.751V.75H0z" class="cls-1" transform="translate(24.406 25.18)"/><path id="Rectangle_165" d="M0 0H.749V.75H0z" class="cls-1" transform="translate(25.5 25.222)"/><path id="Rectangle_166" d="M0 0H.749V.749H0z" class="cls-1" transform="translate(26.589 25.262)"/><path id="Rectangle_167" d="M0 0H.75V.75H0z" class="cls-1" transform="translate(27.672 25.298)"/><path id="Rectangle_168" d="M0 0H.751V.751H0z" class="cls-1" transform="translate(28.749 25.33)"/><path id="Rectangle_169" d="M0 0H.749V.749H0z" class="cls-1" transform="translate(20.284 26.122)"/><path id="Rectangle_170" d="M0 0H.749V.75H0z" class="cls-1" transform="translate(21.35 26.148)"/><path id="Rectangle_171" d="M0 0H.75V.749H0z" class="cls-1" transform="translate(22.419 26.176)"/><path id="Rectangle_172" d="M0 0H.75V.749H0z" class="cls-1" transform="translate(23.492 26.206)"/><path id="Rectangle_173" d="M0 0H.751V.749H0z" class="cls-1" transform="translate(24.564 26.236)"/><path id="Rectangle_174" d="M0 0H.75V.75H0z" class="cls-1" transform="translate(25.635 26.265)"/><path id="Rectangle_175" d="M0 0H.75V.75H0z" class="cls-1" transform="translate(26.702 26.292)"/><path id="Rectangle_176" d="M0 0H.75V.75H0z" class="cls-1" transform="translate(27.766 26.317)"/><path id="Rectangle_177" d="M0 0H.751V.749H0z" class="cls-1" transform="translate(28.822 26.338)"/><path id="Rectangle_178" d="M0 0H.75V.749H0z" class="cls-1" transform="translate(20.46 27.188)"/><path id="Rectangle_179" d="M0 0H.75V.749H0z" class="cls-1" transform="translate(21.512 27.206)"/><path id="Rectangle_180" d="M0 0H.75V.75H0z" class="cls-1" transform="translate(22.566 27.225)"/><path id="Rectangle_181" d="M0 0H.75V.749H0z" class="cls-1" transform="translate(23.621 27.246)"/><path id="Rectangle_182" d="M0 0H.751V.75H0z" class="cls-1" transform="translate(24.676 27.266)"/><path id="Rectangle_183" d="M0 0H.75V.749H0z" class="cls-1" transform="translate(25.73 27.285)"/><path id="Rectangle_184" d="M0 0H.75V.749H0z" class="cls-1" transform="translate(26.781 27.303)"/><path id="Rectangle_185" d="M0 0H.75V.749H0z" class="cls-1" transform="translate(27.829 27.318)"/><path id="Rectangle_186" d="M0 0H.751V.749H0z" class="cls-1" transform="translate(28.872 27.332)"/><path id="Rectangle_187" d="M0 0H.75V.749H0z" class="cls-1" transform="translate(20.584 28.224)"/><path id="Rectangle_188" d="M0 0H.75V.75H0z" class="cls-1" transform="translate(21.625 28.235)"/><path id="Rectangle_189" d="M0 0H.75V.75H0z" class="cls-1" transform="translate(22.667 28.248)"/><path id="Rectangle_190" d="M0 0H.75V.75H0z" class="cls-1" transform="translate(23.71 28.261)"/><path id="Rectangle_191" d="M0 0H.751V.749H0z" class="cls-1" transform="translate(24.752 28.275)"/><path id="Rectangle_192" d="M0 0H.75V.749H0z" class="cls-1" transform="translate(25.794 28.287)"/><path id="Rectangle_193" d="M0 0H.75V.749H0z" class="cls-1" transform="translate(26.832 28.297)"/><path id="Rectangle_194" d="M0 0H.75V.749H0z" class="cls-1" transform="translate(27.869 28.307)"/><path id="Rectangle_195" d="M0 0H.751V.75H0z" class="cls-1" transform="translate(28.902 28.314)"/><path id="Rectangle_196" d="M0 0H.75V.75H0z" class="cls-1" transform="translate(20.666 29.236)"/><path id="Rectangle_197" d="M0 0H.749V.749H0z" class="cls-1" transform="translate(21.7 29.243)"/><path id="Rectangle_198" d="M0 0H.75V.75H0z" class="cls-1" transform="translate(22.733 29.251)"/><path id="Rectangle_199" d="M0 0H.75V.749H0z" class="cls-1" transform="translate(23.767 29.259)"/><path id="Rectangle_200" d="M0 0H.751V.749H0z" class="cls-1" transform="translate(24.8 29.267)"/><path id="Rectangle_201" d="M0 0H.75V.75H0z" class="cls-1" transform="translate(25.833 29.274)"/><path id="Rectangle_202" d="M0 0H.75V.749H0z" class="cls-1" transform="translate(26.863 29.28)"/><path id="Rectangle_203" d="M0 0H.75V.749H0z" class="cls-1" transform="translate(27.893 29.285)"/><path id="Rectangle_204" d="M0 0H.751V.75H0z" class="cls-1" transform="translate(28.919 29.288)"/><path id="Rectangle_205" d="M0 0H.75V.749H0z" class="cls-1" transform="translate(20.718 30.231)"/><path id="Rectangle_206" d="M0 0H.749V.75H0z" class="cls-1" transform="translate(21.746 30.235)"/><path id="Rectangle_207" d="M0 0H.75V.749H0z" class="cls-1" transform="translate(22.773 30.239)"/><path id="Rectangle_208" d="M0 0H.75V.749H0z" class="cls-1" transform="translate(23.801 30.244)"/><path id="Rectangle_209" d="M0 0H.751V.75H0z" class="cls-1" transform="translate(24.828 30.248)"/><path id="Rectangle_210" d="M0 0H.75V.749H0z" class="cls-1" transform="translate(25.855 30.252)"/><path id="Rectangle_211" d="M0 0H.75V.749H0z" class="cls-1" transform="translate(26.88 30.255)"/><path id="Rectangle_212" d="M0 0H.75V.749H0z" class="cls-1" transform="translate(27.905 30.257)"/><path id="Rectangle_213" d="M0 0H.751V.75H0z" class="cls-1" transform="translate(28.928 30.258)"/><path id="Rectangle_214" d="M0 0H.749V.749H0z" class="cls-1" transform="translate(20.747 31.213)"/><path id="Rectangle_215" d="M0 0H.75V.749H0z" class="cls-1" transform="translate(21.771 31.215)"/><path id="Rectangle_216" d="M0 0H.75V.749H0z" class="cls-1" transform="translate(22.795 31.217)"/><path id="Rectangle_217" d="M0 0H.751V.749H0z" class="cls-1" transform="translate(23.819 31.219)"/><path id="Rectangle_218" d="M0 0H.751V.749H0z" class="cls-1" transform="translate(24.842 31.221)"/><path id="Rectangle_219" d="M0 0H.75V.749H0z" class="cls-1" transform="translate(25.866 31.223)"/><path id="Rectangle_220" d="M0 0H.749V.75H0z" class="cls-1" transform="translate(26.888 31.224)"/><path id="Rectangle_221" d="M0 0H.75V.75H0z" class="cls-1" transform="translate(27.91 31.224)"/><path id="Rectangle_222" d="M0 0H.751V.749H0z" class="cls-1" transform="translate(28.931 31.225)"/><path id="Rectangle_223" d="M0 0H.749V.75H0z" class="cls-1" transform="translate(20.762 32.186)"/><path id="Rectangle_224" d="M0 0H.749V.75H0z" class="cls-1" transform="translate(21.784 32.187)"/><path id="Rectangle_225" d="M0 0H.749V.75H0z" class="cls-1" transform="translate(22.806 32.188)"/><path id="Rectangle_226" d="M0 0H.75V.75H0z" class="cls-1" transform="translate(23.827 32.188)"/><path id="Rectangle_227" d="M0 0H.75V.75H0z" class="cls-1" transform="translate(24.849 32.189)"/><path id="Rectangle_228" d="M0 0H.749V.75H0z" class="cls-1" transform="translate(25.871 32.189)"/><path id="Rectangle_229" d="M0 0H.75V.75H0z" class="cls-1" transform="translate(26.89 32.19)"/><path id="Rectangle_230" d="M0 0H.75V.75H0z" class="cls-1" transform="translate(27.911 32.19)"/><path id="Rectangle_231" d="M0 0H.751V.75H0z" class="cls-1" transform="translate(28.931 32.19)"/><path id="Rectangle_232" d="M0 0H.75V.75H0z" class="cls-1" transform="translate(20.768 33.154)"/><path id="Rectangle_233" d="M0 0H.75V.75H0z" class="cls-1" transform="translate(21.789 33.155)"/><path id="Rectangle_234" d="M0 0H.75V.75H0z" class="cls-1" transform="translate(22.81 33.155)"/><path id="Rectangle_235" d="M0 0H.75V.75H0z" class="cls-1" transform="translate(23.83 33.155)"/><path id="Rectangle_236" d="M0 0H.751V.75H0z" class="cls-1" transform="translate(24.85 33.155)"/><path id="Rectangle_237" d="M0 0H.749V.75H0z" class="cls-1" transform="translate(25.872 33.155)"/><path id="Rectangle_238" d="M0 0H.75V.75H0z" class="cls-1" transform="translate(26.891 33.155)"/><path id="Rectangle_239" d="M0 0H.75V.75H0z" class="cls-1" transform="translate(27.912 33.155)"/><path id="Rectangle_240" d="M0 0H.751V.75H0z" class="cls-1" transform="translate(28.931 33.155)"/><path id="Path_237" d="M160.557 319.668l-.351.116h.351z" class="cls-1" transform="translate(-150.259 -284.914)"/><path id="Path_238" d="M164.731 318.077v-.451l-.75.247v.2z" class="cls-1" transform="translate(-153.413 -283.207)"/><path id="Path_239" d="M170.93 316.857c-.044-.327-.069-.676-.137-.69a2.243 2.243.0 0 0-.612.149v.54z" class="cls-1" transform="translate(-158.593 -281.987)"/><path id="Rectangle_241" d="M0 0H.75V.75H0z" class="cls-1" transform="translate(20.769 34.12)"/><path id="Rectangle_242" d="M0 0H.749V.75H0z" class="cls-1" transform="translate(21.79 34.12)"/><path id="Rectangle_243" d="M0 0H.75V.75H0z" class="cls-1" transform="translate(22.811 34.12)"/><path id="Rectangle_244" d="M0 0H.75V.75H0z" class="cls-1" transform="translate(23.831 34.12)"/><path id="Rectangle_245" d="M0 0H.751V.75H0z" class="cls-1" transform="translate(24.851 34.12)"/><path id="Rectangle_246" d="M0 0H.749V.75H0z" class="cls-1" transform="translate(25.872 34.12)"/><path id="Rectangle_247" d="M0 0H.75V.75H0z" class="cls-1" transform="translate(26.891 34.12)"/><path id="Rectangle_248" d="M0 0H.75V.75H0z" class="cls-1" transform="translate(27.912 34.12)"/><path id="Rectangle_249" d="M0 0H.751V.75H0z" class="cls-1" transform="translate(28.931 34.12)"/><path id="Path_240" d="M142.6 325.8l-.224.074h.224z" class="cls-1" transform="translate(-135.364 -290.037)"/><path id="Path_241" d="M146.125 324.166v-.409l-.75.247v.162z" class="cls-1" transform="translate(-137.868 -288.331)"/><path id="Path_242" d="M152.326 322.458v-.745l-.751.247v.5z" class="cls-1" transform="translate(-143.048 -286.622)"/><path id="Rectangle_250" d="M0 0H.75V.75H0z" class="cls-1" transform="translate(9.547 35.085)"/><path id="Rectangle_251" d="M0 0H.75V.75H0z" class="cls-1" transform="translate(10.568 35.085)"/><path id="Rectangle_252" d="M0 0H.749V.75H0z" class="cls-1" transform="translate(11.588 35.085)"/><path id="Path_243" d="M176.444 325.355c-.021-.059-.041-.117-.06-.176v.176z" class="cls-1" transform="translate(-163.775 -289.519)"/><path id="Path_244" d="M224.036 323.8c-.018.138-.039.271-.061.4h.061z" class="cls-1" transform="translate(-203.535 -288.37)"/><path id="Rectangle_253" d="M0 0H.749V.75H0z" class="cls-1" transform="translate(20.77 35.085)"/><path id="Rectangle_254" d="M0 0H.75V.75H0z" class="cls-1" transform="translate(21.79 35.085)"/><path id="Rectangle_255" d="M0 0H.75V.75H0z" class="cls-1" transform="translate(22.811 35.085)"/><path id="Rectangle_256" d="M0 0H.75V.75H0z" class="cls-1" transform="translate(23.831 35.085)"/><path id="Rectangle_257" d="M0 0H.751V.75H0z" class="cls-1" transform="translate(24.851 35.085)"/><path id="Rectangle_258" d="M0 0H.749V.75H0z" class="cls-1" transform="translate(25.872 35.085)"/><path id="Rectangle_259" d="M0 0H.75V.75H0z" class="cls-1" transform="translate(26.891 35.085)"/><path id="Rectangle_260" d="M0 0H.75V.75H0z" class="cls-1" transform="translate(27.912 35.085)"/><path id="Rectangle_261" d="M0 0H.751V.75H0z" class="cls-1" transform="translate(28.931 35.085)"/><path id="Path_245" d="M124.651 331.928l-.094.03h.094z" class="cls-1" transform="translate(-120.475 -295.159)"/><path id="Path_246" d="M127.525 330.249v-.367l-.75.247v.119z" class="cls-1" transform="translate(-122.328 -293.449)"/><path id="Path_247" d="M133.723 328.541v-.7l-.751.247v.455z" class="cls-1" transform="translate(-127.506 -291.741)"/><path id="Rectangle_262" d="M0 0H.75V.749H0z" class="cls-1" transform="translate(6.487 36.05)"/><path id="Rectangle_263" d="M0 0H.75V.749H0z" class="cls-1" transform="translate(7.507 36.05)"/><path id="Rectangle_264" d="M0 0H.751V.749H0z" class="cls-1" transform="translate(8.527 36.05)"/><path id="Rectangle_265" d="M0 0H.75V.749H0z" class="cls-1" transform="translate(9.547 36.05)"/><path id="Rectangle_266" d="M0 0H.75V.749H0z" class="cls-1" transform="translate(10.568 36.05)"/><path id="Rectangle_267" d="M0 0H.749V.749H0z" class="cls-1" transform="translate(11.588 36.05)"/><path id="Path_248" d="M176.384 328.3h.5a5.943 5.943.0 0 1-.361-.749h-.142z" class="cls-1" transform="translate(-163.775 -291.504)"/><path id="Path_249" d="M222.8 327.554h-.1a5.846 5.846.0 0 1-.2.749h.3z" class="cls-1" transform="translate(-202.303 -291.504)"/><path id="Rectangle_268" d="M0 0H.749V.749H0z" class="cls-1" transform="translate(20.77 36.05)"/><path id="Rectangle_269" d="M0 0H.75V.749H0z" class="cls-1" transform="translate(21.79 36.05)"/><path id="Rectangle_270" d="M0 0H.75V.749H0z" class="cls-1" transform="translate(22.811 36.05)"/><path id="Rectangle_271" d="M0 0H.75V.749H0z" class="cls-1" transform="translate(23.831 36.05)"/><path id="Rectangle_272" d="M0 0H.751V.749H0z" class="cls-1" transform="translate(24.851 36.05)"/><path id="Rectangle_273" d="M0 0H.749V.749H0z" class="cls-1" transform="translate(25.872 36.05)"/><path id="Rectangle_274" d="M0 0H.75V.749H0z" class="cls-1" transform="translate(26.891 36.05)"/><path id="Rectangle_275" d="M0 0H.75V.749H0z" class="cls-1" transform="translate(27.912 36.05)"/><path id="Path_250" d="M275.593 327.554v.749h.69a6.967 6.967.0 0 0 .061-.749z" class="cls-1" transform="translate(-246.662 -291.504)"/><path id="Path_251" d="M121.533 333.424h-.556a.153.153.0 0 0-.15.178c.033.193.068.383.1.572h.6z" class="cls-1" transform="translate(-117.357 -296.409)"/><path id="Rectangle_276" d="M0 0H.75V.75H0z" class="cls-1" transform="translate(4.447 37.015)"/><path id="Rectangle_277" d="M0 0H.751V.75H0z" class="cls-1" transform="translate(5.466 37.015)"/><path id="Rectangle_278" d="M0 0H.75V.75H0z" class="cls-1" transform="translate(6.487 37.015)"/><path id="Rectangle_279" d="M0 0H.75V.75H0z" class="cls-1" transform="translate(7.507 37.015)"/><path id="Rectangle_280" d="M0 0H.751V.75H0z" class="cls-1" transform="translate(8.527 37.015)"/><path id="Rectangle_281" d="M0 0H.75V.75H0z" class="cls-1" transform="translate(9.547 37.015)"/><path id="Rectangle_282" d="M0 0H.75V.75H0z" class="cls-1" transform="translate(10.568 37.015)"/><path id="Rectangle_283" d="M0 0H.749V.75H0z" class="cls-1" transform="translate(11.588 37.015)"/><path id="Path_252" d="M176.384 334.174h.75v-.574c-.041-.059-.08-.118-.118-.178h-.632z" class="cls-1" transform="translate(-163.775 -296.409)"/><path id="Path_253" d="M182.781 336.866c-.069-.071-.136-.144-.2-.22v.22z" class="cls-1" transform="translate(-168.953 -299.101)"/><path id="Path_254" d="M220.538 334.174v-.75h-.385a3.411 3.411.0 0 1-.365.681v.068z" class="cls-1" transform="translate(-200.038 -296.409)"/><path id="Rectangle_284" d="M0 0H.749V.75H0z" class="cls-1" transform="translate(20.77 37.015)"/><path id="Rectangle_285" d="M0 0H.75V.75H0z" class="cls-1" transform="translate(21.79 37.015)"/><path id="Rectangle_286" d="M0 0H.75V.75H0z" class="cls-1" transform="translate(22.811 37.015)"/><path id="Rectangle_287" d="M0 0H.75V.75H0z" class="cls-1" transform="translate(23.831 37.015)"/><path id="Rectangle_288" d="M0 0H.751V.75H0z" class="cls-1" transform="translate(24.851 37.015)"/><path id="Rectangle_289" d="M0 0H.749V.75H0z" class="cls-1" transform="translate(25.872 37.015)"/><path id="Rectangle_290" d="M0 0H.75V.75H0z" class="cls-1" transform="translate(26.891 37.015)"/><path id="Rectangle_291" d="M0 0H.75V.75H0z" class="cls-1" transform="translate(27.912 37.015)"/><path id="Path_255" d="M275.593 334.174h.557a5.583 5.583.0 0 0 .114-.75h-.672z" class="cls-1" transform="translate(-246.662 -296.409)"/><path id="Path_256" d="M122.3 339.3h-.557q.078.381.171.75h.386z" class="cls-1" transform="translate(-118.127 -301.315)"/><path id="Rectangle_292" d="M0 0H.75V.75H0z" class="cls-1" transform="translate(4.447 37.98)"/><path id="Rectangle_293" d="M0 0H.751V.75H0z" class="cls-1" transform="translate(5.466 37.98)"/><path id="Rectangle_294" d="M0 0H.75V.75H0z" class="cls-1" transform="translate(6.487 37.98)"/><path id="Rectangle_295" d="M0 0H.75V.75H0z" class="cls-1" transform="translate(7.507 37.98)"/><path id="Rectangle_296" d="M0 0H.751V.75H0z" class="cls-1" transform="translate(8.527 37.98)"/><path id="Rectangle_297" d="M0 0H.75V.75H0z" class="cls-1" transform="translate(9.547 37.98)"/><path id="Rectangle_298" d="M0 0H.75V.75H0z" class="cls-1" transform="translate(10.568 37.98)"/><path id="Rectangle_299" d="M0 0H.749V.75H0z" class="cls-1" transform="translate(11.588 37.98)"/><path id="Rectangle_300" d="M0 0H.75V.75H0z" class="cls-1" transform="translate(12.609 37.98)"/><path id="Path_257" d="M182.581 340.045h.751v-.488a4.044 4.044.0 0 1-.327-.261h-.424z" class="cls-1" transform="translate(-168.953 -301.315)"/><path id="Path_258" d="M189.451 342.274a3.715 3.715.0 0 1-.667-.311v.311z" class="cls-1" transform="translate(-174.135 -303.544)"/><path id="Path_259" d="M211.256 343.576c-.044.017-.09.031-.136.046h.136z" class="cls-1" transform="translate(-192.796 -304.892)"/><path id="Path_260" d="M214.338 340.267v-.706a2.669 2.669.0 0 1-.751.542v.164z" class="cls-1" transform="translate(-194.857 -301.537)"/><path id="Rectangle_301" d="M0 0H.75V.75H0z" class="cls-1" transform="translate(19.75 37.98)"/><path id="Rectangle_302" d="M0 0H.749V.75H0z" class="cls-1" transform="translate(20.77 37.98)"/><path id="Rectangle_303" d="M0 0H.75V.75H0z" class="cls-1" transform="translate(21.79 37.98)"/><path id="Rectangle_304" d="M0 0H.75V.75H0z" class="cls-1" transform="translate(22.811 37.98)"/><path id="Rectangle_305" d="M0 0H.75V.75H0z" class="cls-1" transform="translate(23.831 37.98)"/><path id="Rectangle_306" d="M0 0H.751V.75H0z" class="cls-1" transform="translate(24.851 37.98)"/><path id="Rectangle_307" d="M0 0H.749V.75H0z" class="cls-1" transform="translate(25.872 37.98)"/><path id="Rectangle_308" d="M0 0H.75V.75H0z" class="cls-1" transform="translate(26.891 37.98)"/><path id="Rectangle_309" d="M0 0H.75V.75H0z" class="cls-1" transform="translate(27.912 37.98)"/><path id="Path_261" d="M275.593 340.045h.316q.1-.369.193-.75h-.509z" class="cls-1" transform="translate(-246.662 -301.315)"/><path id="Path_262" d="M123.443 345.164h-.332c.068.256.142.5.219.75h.113z" class="cls-1" transform="translate(-119.267 -306.219)"/><path id="Rectangle_310" d="M0 0H.75V.75H0z" class="cls-1" transform="translate(4.447 38.945)"/><path id="Rectangle_311" d="M0 0H.751V.75H0z" class="cls-1" transform="translate(5.466 38.945)"/><path id="Rectangle_312" d="M0 0H.75V.75H0z" class="cls-1" transform="translate(6.487 38.945)"/><path id="Rectangle_313" d="M0 0H.75V.75H0z" class="cls-1" transform="translate(7.507 38.945)"/><path id="Rectangle_314" d="M0 0H.751V.75H0z" class="cls-1" transform="translate(8.527 38.945)"/><path id="Rectangle_315" d="M0 0H.75V.75H0z" class="cls-1" transform="translate(9.547 38.945)"/><path id="Rectangle_316" d="M0 0H.75V.75H0z" class="cls-1" transform="translate(10.568 38.945)"/><path id="Rectangle_317" d="M0 0H.749V.75H0z" class="cls-1" transform="translate(11.588 38.945)"/><path id="Rectangle_318" d="M0 0H.75V.75H0z" class="cls-1" transform="translate(12.609 38.945)"/><path id="Rectangle_319" d="M0 0H.751V.75H0z" class="cls-1" transform="translate(13.628 38.945)"/><path id="Rectangle_320" d="M0 0H.75V.75H0z" class="cls-1" transform="translate(14.649 38.945)"/><path id="Path_263" d="M194.987 345.914h.75v-.748h-.75z" class="cls-1" transform="translate(-179.318 -306.219)"/><path id="Path_264" d="M201.935 345.914v-.75h-.372c-.122.006-.248.01-.378.01v.74z" class="cls-1" transform="translate(-184.496 -306.219)"/><path id="Rectangle_321" d="M0 0H.75V.75H0z" class="cls-1" transform="translate(17.709 38.945)"/><path id="Rectangle_322" d="M0 0H.751V.75H0z" class="cls-1" transform="translate(18.73 38.945)"/><path id="Rectangle_323" d="M0 0H.75V.75H0z" class="cls-1" transform="translate(19.75 38.945)"/><path id="Rectangle_324" d="M0 0H.749V.75H0z" class="cls-1" transform="translate(20.77 38.945)"/><path id="Rectangle_325" d="M0 0H.75V.75H0z" class="cls-1" transform="translate(21.79 38.945)"/><path id="Rectangle_326" d="M0 0H.75V.75H0z" class="cls-1" transform="translate(22.811 38.945)"/><path id="Rectangle_327" d="M0 0H.75V.75H0z" class="cls-1" transform="translate(23.831 38.945)"/><path id="Rectangle_328" d="M0 0H.751V.75H0z" class="cls-1" transform="translate(24.851 38.945)"/><path id="Rectangle_329" d="M0 0H.749V.75H0z" class="cls-1" transform="translate(25.872 38.945)"/><path id="Rectangle_330" d="M0 0H.75V.75H0z" class="cls-1" transform="translate(26.891 38.945)"/><path id="Rectangle_331" d="M0 0H.75V.75H0z" class="cls-1" transform="translate(27.912 38.945)"/><path id="Path_265" d="M275.593 345.914h.006c.089-.246.173-.5.25-.75h-.256z" class="cls-1" transform="translate(-246.662 -306.219)"/><path id="Path_266" d="M124.868 351.035l.043.134v-.134z" class="cls-1" transform="translate(-120.735 -311.125)"/><path id="Rectangle_332" d="M0 0H.75V.75H0z" class="cls-1" transform="translate(4.447 39.91)"/><path id="Rectangle_333" d="M0 0H.751V.75H0z" class="cls-1" transform="translate(5.466 39.91)"/><path id="Rectangle_334" d="M0 0H.75V.75H0z" class="cls-1" transform="translate(6.487 39.91)"/><path id="Rectangle_335" d="M0 0H.75V.75H0z" class="cls-1" transform="translate(7.507 39.91)"/><path id="Rectangle_336" d="M0 0H.751V.75H0z" class="cls-1" transform="translate(8.527 39.91)"/><path id="Rectangle_337" d="M0 0H.75V.75H0z" class="cls-1" transform="translate(9.547 39.91)"/><path id="Rectangle_338" d="M0 0H.75V.75H0z" class="cls-1" transform="translate(10.568 39.91)"/><path id="Rectangle_339" d="M0 0H.749V.75H0z" class="cls-1" transform="translate(11.588 39.91)"/><path id="Rectangle_340" d="M0 0H.75V.75H0z" class="cls-1" transform="translate(12.609 39.91)"/><path id="Rectangle_341" d="M0 0H.751V.75H0z" class="cls-1" transform="translate(13.628 39.91)"/><path id="Rectangle_342" d="M0 0H.75V.75H0z" class="cls-1" transform="translate(14.649 39.91)"/><path id="Rectangle_343" d="M0 0H.75V.75H0z" class="cls-1" transform="translate(15.669 39.91)"/><path id="Rectangle_344" d="M0 0H.75V.75H0z" class="cls-1" transform="translate(16.689 39.91)"/><path id="Rectangle_345" d="M0 0H.75V.75H0z" class="cls-1" transform="translate(17.709 39.91)"/><path id="Rectangle_346" d="M0 0H.751V.75H0z" class="cls-1" transform="translate(18.73 39.91)"/><path id="Rectangle_347" d="M0 0H.75V.75H0z" class="cls-1" transform="translate(19.75 39.91)"/><path id="Rectangle_348" d="M0 0H.749V.75H0z" class="cls-1" transform="translate(20.77 39.91)"/><path id="Rectangle_349" d="M0 0H.75V.75H0z" class="cls-1" transform="translate(21.79 39.91)"/><path id="Rectangle_350" d="M0 0H.75V.75H0z" class="cls-1" transform="translate(22.811 39.91)"/><path id="Rectangle_351" d="M0 0H.75V.75H0z" class="cls-1" transform="translate(23.831 39.91)"/><path id="Rectangle_352" d="M0 0H.751V.75H0z" class="cls-1" transform="translate(24.851 39.91)"/><path id="Rectangle_353" d="M0 0H.749V.75H0z" class="cls-1" transform="translate(25.872 39.91)"/><path id="Rectangle_354" d="M0 0H.75V.75H0z" class="cls-1" transform="translate(26.891 39.91)"/><path id="Path_267" d="M269.4 351.035v.75h.635l.115-.263v-.487z" class="cls-1" transform="translate(-241.484 -311.125)"/><path id="Path_268" d="M127.747 356.91h-.706c.1.256.215.506.333.749h.373z" class="cls-1" transform="translate(-122.551 -316.034)"/><path id="Rectangle_355" d="M0 0H.751V.75H0z" class="cls-1" transform="translate(5.466 40.876)"/><path id="Rectangle_356" d="M0 0H.75V.75H0z" class="cls-1" transform="translate(6.487 40.876)"/><path id="Rectangle_357" d="M0 0H.75V.75H0z" class="cls-1" transform="translate(7.507 40.876)"/><path id="Rectangle_358" d="M0 0H.751V.75H0z" class="cls-1" transform="translate(8.527 40.876)"/><path id="Rectangle_359" d="M0 0H.75V.75H0z" class="cls-1" transform="translate(9.547 40.876)"/><path id="Rectangle_360" d="M0 0H.75V.75H0z" class="cls-1" transform="translate(10.568 40.876)"/><path id="Rectangle_361" d="M0 0H.749V.75H0z" class="cls-1" transform="translate(11.588 40.876)"/><path id="Rectangle_362" d="M0 0H.75V.75H0z" class="cls-1" transform="translate(12.609 40.876)"/><path id="Rectangle_363" d="M0 0H.751V.75H0z" class="cls-1" transform="translate(13.628 40.876)"/><path id="Rectangle_364" d="M0 0H.75V.75H0z" class="cls-1" transform="translate(14.649 40.876)"/><path id="Rectangle_365" d="M0 0H.75V.75H0z" class="cls-1" transform="translate(15.669 40.876)"/><path id="Rectangle_366" d="M0 0H.75V.75H0z" class="cls-1" transform="translate(16.689 40.876)"/><path id="Rectangle_367" d="M0 0H.75V.75H0z" class="cls-1" transform="translate(17.709 40.876)"/><path id="Rectangle_368" d="M0 0H.751V.75H0z" class="cls-1" transform="translate(18.73 40.876)"/><path id="Rectangle_369" d="M0 0H.75V.75H0z" class="cls-1" transform="translate(19.75 40.876)"/><path id="Rectangle_370" d="M0 0H.749V.75H0z" class="cls-1" transform="translate(20.77 40.876)"/><path id="Rectangle_371" d="M0 0H.75V.75H0z" class="cls-1" transform="translate(21.79 40.876)"/><path id="Rectangle_372" d="M0 0H.75V.75H0z" class="cls-1" transform="translate(22.811 40.876)"/><path id="Rectangle_373" d="M0 0H.75V.75H0z" class="cls-1" transform="translate(23.831 40.876)"/><path id="Rectangle_374" d="M0 0H.751V.75H0z" class="cls-1" transform="translate(24.851 40.876)"/><path id="Rectangle_375" d="M0 0H.749V.75H0z" class="cls-1" transform="translate(25.872 40.876)"/><path id="Rectangle_376" d="M0 0H.75V.75H0z" class="cls-1" transform="translate(26.891 40.876)"/><path id="Path_269" d="M269.4 357.659h.153c.135-.245.265-.493.386-.749h-.54z" class="cls-1" transform="translate(-241.484 -316.034)"/><path id="Path_270" d="M129.718 362.781q.128.253.266.5v-.5z" class="cls-1" transform="translate(-124.787 -320.94)"/><path id="Rectangle_377" d="M0 0H.751V.749H0z" class="cls-1" transform="translate(5.466 41.841)"/><path id="Rectangle_378" d="M0 0H.75V.749H0z" class="cls-1" transform="translate(6.487 41.841)"/><path id="Rectangle_379" d="M0 0H.75V.749H0z" class="cls-1" transform="translate(7.507 41.841)"/><path id="Rectangle_380" d="M0 0H.751V.749H0z" class="cls-1" transform="translate(8.527 41.841)"/><path id="Rectangle_381" d="M0 0H.75V.749H0z" class="cls-1" transform="translate(9.547 41.841)"/><path id="Rectangle_382" d="M0 0H.75V.749H0z" class="cls-1" transform="translate(10.568 41.841)"/><path id="Rectangle_383" d="M0 0H.749V.749H0z" class="cls-1" transform="translate(11.588 41.841)"/><path id="Rectangle_384" d="M0 0H.75V.749H0z" class="cls-1" transform="translate(12.609 41.841)"/><path id="Rectangle_385" d="M0 0H.751V.749H0z" class="cls-1" transform="translate(13.628 41.841)"/><path id="Rectangle_386" d="M0 0H.75V.749H0z" class="cls-1" transform="translate(14.649 41.841)"/><path id="Rectangle_387" d="M0 0H.75V.749H0z" class="cls-1" transform="translate(15.669 41.841)"/><path id="Rectangle_388" d="M0 0H.75V.749H0z" class="cls-1" transform="translate(16.689 41.841)"/><path id="Rectangle_389" d="M0 0H.75V.749H0z" class="cls-1" transform="translate(17.709 41.841)"/><path id="Rectangle_390" d="M0 0H.751V.749H0z" class="cls-1" transform="translate(18.73 41.841)"/><path id="Rectangle_391" d="M0 0H.75V.749H0z" class="cls-1" transform="translate(19.75 41.841)"/><path id="Rectangle_392" d="M0 0H.749V.749H0z" class="cls-1" transform="translate(20.77 41.841)"/><path id="Rectangle_393" d="M0 0H.75V.749H0z" class="cls-1" transform="translate(21.79 41.841)"/><path id="Rectangle_394" d="M0 0H.75V.749H0z" class="cls-1" transform="translate(22.811 41.841)"/><path id="Rectangle_395" d="M0 0H.75V.749H0z" class="cls-1" transform="translate(23.831 41.841)"/><path id="Rectangle_396" d="M0 0H.751V.749H0z" class="cls-1" transform="translate(24.851 41.841)"/><path id="Rectangle_397" d="M0 0H.749V.749H0z" class="cls-1" transform="translate(25.872 41.841)"/><path id="Path_271" d="M263.192 362.781v.749h.586c.056-.083.109-.17.163-.254v-.495z" class="cls-1" transform="translate(-236.301 -320.94)"/><path id="Path_272" d="M269.4 362.837l.031-.056h-.031z" class="cls-1" transform="translate(-241.484 -320.94)"/><path id="Path_273" d="M133.768 368.652h-.742c.162.258.331.509.509.749h.233z" class="cls-1" transform="translate(-127.551 -325.846)"/><path id="Rectangle_398" d="M0 0H.75V.749H0z" class="cls-1" transform="translate(6.487 42.806)"/><path id="Rectangle_399" d="M0 0H.75V.749H0z" class="cls-1" transform="translate(7.507 42.806)"/><path id="Rectangle_400" d="M0 0H.751V.749H0z" class="cls-1" transform="translate(8.527 42.806)"/><path id="Rectangle_401" d="M0 0H.75V.749H0z" class="cls-1" transform="translate(9.547 42.806)"/><path id="Rectangle_402" d="M0 0H.75V.749H0z" class="cls-1" transform="translate(10.568 42.806)"/><path id="Rectangle_403" d="M0 0H.749V.749H0z" class="cls-1" transform="translate(11.588 42.806)"/><path id="Rectangle_404" d="M0 0H.75V.749H0z" class="cls-1" transform="translate(12.609 42.806)"/><path id="Rectangle_405" d="M0 0H.751V.749H0z" class="cls-1" transform="translate(13.628 42.806)"/><path id="Rectangle_406" d="M0 0H.75V.749H0z" class="cls-1" transform="translate(14.649 42.806)"/><path id="Rectangle_407" d="M0 0H.75V.749H0z" class="cls-1" transform="translate(15.669 42.806)"/><path id="Rectangle_408" d="M0 0H.75V.749H0z" class="cls-1" transform="translate(16.689 42.806)"/><path id="Rectangle_409" d="M0 0H.75V.749H0z" class="cls-1" transform="translate(17.709 42.806)"/><path id="Rectangle_410" d="M0 0H.751V.749H0z" class="cls-1" transform="translate(18.73 42.806)"/><path id="Rectangle_411" d="M0 0H.75V.749H0z" class="cls-1" transform="translate(19.75 42.806)"/><path id="Rectangle_412" d="M0 0H.749V.749H0z" class="cls-1" transform="translate(20.77 42.806)"/><path id="Rectangle_413" d="M0 0H.75V.749H0z" class="cls-1" transform="translate(21.79 42.806)"/><path id="Rectangle_414" d="M0 0H.75V.749H0z" class="cls-1" transform="translate(22.811 42.806)"/><path id="Rectangle_415" d="M0 0H.75V.749H0z" class="cls-1" transform="translate(23.831 42.806)"/><path id="Rectangle_416" d="M0 0H.751V.749H0z" class="cls-1" transform="translate(24.851 42.806)"/><path id="Rectangle_417" d="M0 0H.749V.749H0z" class="cls-1" transform="translate(25.872 42.806)"/><path id="Path_274" d="M263.192 369.221q.225-.278.432-.569h-.432z" class="cls-1" transform="translate(-236.301 -325.846)"/><path id="Path_275" d="M137.141 374.52l.065.083v-.083z" class="cls-1" transform="translate(-130.989 -330.75)"/><path id="Path_276" d="M139.926 374.52h-.75v.406c.1.117.2.231.31.343h.44z" class="cls-1" transform="translate(-132.689 -330.75)"/><path id="Rectangle_418" d="M0 0H.75V.749H0z" class="cls-1" transform="translate(7.507 43.77)"/><path id="Rectangle_419" d="M0 0H.751V.749H0z" class="cls-1" transform="translate(8.527 43.77)"/><path id="Rectangle_420" d="M0 0H.75V.749H0z" class="cls-1" transform="translate(9.547 43.77)"/><path id="Rectangle_421" d="M0 0H.75V.749H0z" class="cls-1" transform="translate(10.568 43.77)"/><path id="Rectangle_422" d="M0 0H.749V.749H0z" class="cls-1" transform="translate(11.588 43.77)"/><path id="Rectangle_423" d="M0 0H.75V.749H0z" class="cls-1" transform="translate(12.609 43.77)"/><path id="Rectangle_424" d="M0 0H.751V.749H0z" class="cls-1" transform="translate(13.628 43.77)"/><path id="Rectangle_425" d="M0 0H.75V.749H0z" class="cls-1" transform="translate(14.649 43.77)"/><path id="Rectangle_426" d="M0 0H.75V.749H0z" class="cls-1" transform="translate(15.669 43.77)"/><path id="Rectangle_427" d="M0 0H.75V.749H0z" class="cls-1" transform="translate(16.689 43.77)"/><path id="Rectangle_428" d="M0 0H.75V.749H0z" class="cls-1" transform="translate(17.709 43.77)"/><path id="Rectangle_429" d="M0 0H.751V.749H0z" class="cls-1" transform="translate(18.73 43.77)"/><path id="Rectangle_430" d="M0 0H.75V.749H0z" class="cls-1" transform="translate(19.75 43.77)"/><path id="Rectangle_431" d="M0 0H.749V.749H0z" class="cls-1" transform="translate(20.77 43.77)"/><path id="Rectangle_432" d="M0 0H.75V.749H0z" class="cls-1" transform="translate(21.79 43.77)"/><path id="Rectangle_433" d="M0 0H.75V.749H0z" class="cls-1" transform="translate(22.811 43.77)"/><path id="Rectangle_434" d="M0 0H.75V.749H0z" class="cls-1" transform="translate(23.831 43.77)"/><path id="Rectangle_435" d="M0 0H.751V.749H0z" class="cls-1" transform="translate(24.851 43.77)"/><path id="Path_277" d="M257 375.236c.239-.228.467-.468.686-.716H257z" class="cls-1" transform="translate(-231.124 -330.75)"/><path id="Path_278" d="M142.324 380.391c.076.076.154.149.232.221v-.221z" class="cls-1" transform="translate(-135.319 -335.656)"/><path id="Path_279" d="M146.125 380.391h-.75v.468c.11.1.221.191.335.282h.415z" class="cls-1" transform="translate(-137.868 -335.656)"/><path id="Rectangle_436" d="M0 0H.751V.749H0z" class="cls-1" transform="translate(8.527 44.735)"/><path id="Rectangle_437" d="M0 0H.75V.749H0z" class="cls-1" transform="translate(9.547 44.735)"/><path id="Rectangle_438" d="M0 0H.75V.749H0z" class="cls-1" transform="translate(10.568 44.735)"/><path id="Rectangle_439" d="M0 0H.749V.749H0z" class="cls-1" transform="translate(11.588 44.735)"/><path id="Rectangle_440" d="M0 0H.75V.749H0z" class="cls-1" transform="translate(12.609 44.735)"/><path id="Rectangle_441" d="M0 0H.751V.749H0z" class="cls-1" transform="translate(13.628 44.735)"/><path id="Rectangle_442" d="M0 0H.75V.749H0z" class="cls-1" transform="translate(14.649 44.735)"/><path id="Rectangle_443" d="M0 0H.75V.749H0z" class="cls-1" transform="translate(15.669 44.735)"/><path id="Rectangle_444" d="M0 0H.75V.749H0z" class="cls-1" transform="translate(16.689 44.735)"/><path id="Rectangle_445" d="M0 0H.75V.749H0z" class="cls-1" transform="translate(17.709 44.735)"/><path id="Rectangle_446" d="M0 0H.751V.749H0z" class="cls-1" transform="translate(18.73 44.735)"/><path id="Rectangle_447" d="M0 0H.75V.749H0z" class="cls-1" transform="translate(19.75 44.735)"/><path id="Rectangle_448" d="M0 0H.749V.749H0z" class="cls-1" transform="translate(20.77 44.735)"/><path id="Rectangle_449" d="M0 0H.75V.749H0z" class="cls-1" transform="translate(21.79 44.735)"/><path id="Rectangle_450" d="M0 0H.75V.749H0z" class="cls-1" transform="translate(22.811 44.735)"/><path id="Rectangle_451" d="M0 0H.75V.749H0z" class="cls-1" transform="translate(23.831 44.735)"/><path id="Path_280" d="M250.79 381.009c.26-.195.507-.4.747-.618h-.747z" class="cls-1" transform="translate(-225.939 -335.656)"/><path id="Path_281" d="M149.143 386.262l.13.1v-.1z" class="cls-1" transform="translate(-141.016 -340.562)"/><path id="Path_282" d="M151.575 386.262v.282q.364.244.751.46v-.743z" class="cls-1" transform="translate(-143.048 -340.562)"/><path id="Rectangle_452" d="M0 0H.75V.749H0z" class="cls-1" transform="translate(9.547 45.7)"/><path id="Rectangle_453" d="M0 0H.75V.749H0z" class="cls-1" transform="translate(10.568 45.7)"/><path id="Rectangle_454" d="M0 0H.749V.749H0z" class="cls-1" transform="translate(11.588 45.7)"/><path id="Rectangle_455" d="M0 0H.75V.749H0z" class="cls-1" transform="translate(12.609 45.7)"/><path id="Rectangle_456" d="M0 0H.751V.749H0z" class="cls-1" transform="translate(13.628 45.7)"/><path id="Rectangle_457" d="M0 0H.75V.749H0z" class="cls-1" transform="translate(14.649 45.7)"/><path id="Rectangle_458" d="M0 0H.75V.749H0z" class="cls-1" transform="translate(15.669 45.7)"/><path id="Rectangle_459" d="M0 0H.75V.749H0z" class="cls-1" transform="translate(16.689 45.7)"/><path id="Rectangle_460" d="M0 0H.75V.749H0z" class="cls-1" transform="translate(17.709 45.7)"/><path id="Rectangle_461" d="M0 0H.751V.749H0z" class="cls-1" transform="translate(18.73 45.7)"/><path id="Rectangle_462" d="M0 0H.75V.749H0z" class="cls-1" transform="translate(19.75 45.7)"/><path id="Rectangle_463" d="M0 0H.749V.749H0z" class="cls-1" transform="translate(20.77 45.7)"/><path id="Rectangle_464" d="M0 0H.75V.749H0z" class="cls-1" transform="translate(21.79 45.7)"/><path id="Path_283" d="M238.392 386.262v.749h.278c.161-.082.316-.168.472-.256v-.494z" class="cls-1" transform="translate(-215.581 -340.562)"/><path id="Path_284" d="M244.59 386.6q.272-.163.532-.338h-.532z" class="cls-1" transform="translate(-220.759 -340.562)"/><path id="Path_285" d="M158.7 392.133q.292.145.6.275v-.275z" class="cls-1" transform="translate(-149.002 -345.468)"/><path id="Path_286" d="M163.981 392.133v.388c.244.1.494.185.75.268v-.655z" class="cls-1" transform="translate(-153.413 -345.468)"/><path id="Path_287" d="M170.931 392.133h-.749v.739l.033.01h.717z" class="cls-1" transform="translate(-158.594 -345.468)"/><path id="Rectangle_465" d="M0 0H.75V.749H0z" class="cls-1" transform="translate(12.609 46.665)"/><path id="Rectangle_466" d="M0 0H.751V.749H0z" class="cls-1" transform="translate(13.628 46.665)"/><path id="Rectangle_467" d="M0 0H.75V.749H0z" class="cls-1" transform="translate(14.649 46.665)"/><path id="Rectangle_468" d="M0 0H.75V.749H0z" class="cls-1" transform="translate(15.669 46.665)"/><path id="Rectangle_469" d="M0 0H.75V.749H0z" class="cls-1" transform="translate(16.689 46.665)"/><path id="Rectangle_470" d="M0 0H.75V.749H0z" class="cls-1" transform="translate(17.709 46.665)"/><path id="Rectangle_471" d="M0 0H.751V.749H0z" class="cls-1" transform="translate(18.73 46.665)"/><path id="Rectangle_472" d="M0 0H.75V.749H0z" class="cls-1" transform="translate(19.75 46.665)"/><path id="Path_288" d="M225.988 392.133v.7q.383-.112.749-.242v-.453z" class="cls-1" transform="translate(-205.218 -345.468)"/><path id="Path_289" d="M232.19 392.133v.356c.255-.1.506-.2.75-.307v-.049z" class="cls-1" transform="translate(-210.4 -345.468)"/><path id="Path_290" d="M176.384 398v.031c.246.052.495.1.75.14V398z" class="cls-1" transform="translate(-163.775 -350.373)"/><path id="Path_291" d="M182.581 398v.21c.246.034.5.062.751.085V398z" class="cls-1" transform="translate(-168.953 -350.373)"/><path id="Path_292" d="M188.784 398v.32q.369.027.75.039V398z" class="cls-1" transform="translate(-174.135 -350.373)"/><path id="Path_293" d="M194.987 398v.364c.115.0.229.006.346.006.137.0.269-.005.4-.008V398z" class="cls-1" transform="translate(-179.318 -350.373)"/><path id="Path_294" d="M201.185 398v.356c.253-.009.5-.023.75-.04V398z" class="cls-1" transform="translate(-184.496 -350.373)"/><path id="Path_295" d="M207.386 398v.3q.38-.034.75-.082V398z" class="cls-1" transform="translate(-189.677 -350.373)"/><path id="Path_296" d="M213.587 398v.172q.381-.057.751-.13V398z" class="cls-1" transform="translate(-194.857 -350.373)"/></g><path id="Path_297" d="M347.393 253.677c-.016 4.274-2.363 7.665-7.608 7.645-5.177-.019-7.5-3.157-7.483-7.667l.05-13.5-2.3-.009-.051 13.6c-.021 5.62 3.212 9.7 9.776 9.729 6.6.024 9.9-4.473 9.916-9.656l.051-13.6-2.3-.008z" class="cls-1" transform="translate(-192.369 -110.237)"/><path id="Path_298" d="M512.527 240.115l-2.436-.009-.091 23.006 16.445.058.008-2.064-14.008-.049z" class="cls-1" transform="translate(-342.754 -110.2)"/><path id="Path_299" d="M645.951 236.9A12.048 12.048.0 1 0 658 249.023a11.771 11.771.0 0 0-12.049-12.123zm-.081 21.894a9.828 9.828.0 1 1 9.822-9.774 9.514 9.514.0 0 1-9.822 9.769z" class="cls-1" transform="translate(-446.252 -107.516)"/></g></svg>