<svg class="select-none h-full " width="auto" height="auto" viewBox="0 0 108 25" fill="none"
    xmlns="http://www.w3.org/2000/svg">
    <path
        d="M99.7483 10.2383H95.9349V6.93096H99.7483V1.60341H103.944V6.93096H108V10.2383H103.944V18.5251C103.944 20.3013 104.637 21.3102 106.37 21.3102C106.787 21.3102 107.237 21.2759 107.619 21.206V24.3748C107.238 24.5146 106.267 24.6886 105.157 24.6886C101.621 24.6886 99.7483 22.9124 99.7483 19.1171V10.2383ZM87.0936 24.3748H91.3232V0.0024541H87.0936V24.3748ZM76.6239 15.9483C76.6239 12.5356 74.7868 10.2726 72.2905 10.2726C69.7943 10.2726 67.818 12.6398 67.818 15.9483C67.818 19.4297 69.7943 21.6583 72.2905 21.6583C74.7868 21.6583 76.6239 19.3255 76.6239 15.9483ZM63.5871 15.9483C63.5871 9.96004 67.4005 6.92974 71.3531 6.92974C73.8835 6.92974 75.5131 8.25243 76.5189 9.88894C76.3798 9.33117 76.3798 8.77464 76.3798 8.2181V7.52182H80.6094V24.3736H76.3798V23.6773C76.3798 23.0509 76.3798 22.6672 76.5189 22.0408C75.8256 23.2593 74.3693 25 71.2835 25C66.8109 25 63.5859 21.9354 63.5859 15.9471M55.8896 15.9471C55.8896 12.5343 54.0525 10.2015 51.4512 10.2015C48.85 10.2015 47.0483 12.5343 47.0483 15.9471C47.0483 19.3599 48.8854 21.6571 51.4512 21.6571C54.0171 21.6571 55.8896 19.2888 55.8896 15.9471ZM47.152 22.0408C47.2558 22.7028 47.2912 23.1208 47.2912 23.643V24.3736H43.0616V0.00122705H47.2912V8.14823C47.2912 8.74032 47.2216 9.26253 47.152 9.81907C48.2275 8.07836 49.9254 6.82431 52.5267 6.82431C56.6183 6.82431 60.1546 10.2714 60.1546 15.9471C60.1546 21.6228 56.965 24.9657 52.5962 24.9657C49.7533 24.9657 48.0883 23.6773 47.1533 22.0408M34.8098 16.017C34.8098 12.3615 33.0411 10.307 30.5107 10.307C27.9802 10.307 26.1773 12.3615 26.1773 16.017C26.1773 19.6725 27.9106 21.6571 30.5107 21.6571C33.1107 21.6571 34.8098 19.6026 34.8098 16.017ZM21.9123 16.017C21.9123 10.481 25.4485 6.96406 30.5107 6.96406C35.5728 6.96406 39.1091 10.481 39.1091 16.017C39.1091 21.5529 35.5032 24.9301 30.5107 24.9301C25.5181 24.9301 21.9123 21.5529 21.9123 16.017ZM7.7659 10.2371H11.7526L19.5539 0H14.4576L6.65631 10.2371H4.22962V0H0V24.3724H4.22962V12.4644L14.7701 24.3724H20.2827L7.7659 10.2359V10.2371Z"
        fill="black"></path>
</svg>