<svg width="318" height="69" viewBox="0 0 318 69" fill="none" xmlns="http://www.w3.org/2000/svg">
<path d="M316.636 31.7439V26.1754H309.721V17.5185L309.488 17.5902L302.993 19.5774L302.865 19.6163V26.1757H292.613V22.5216C292.613 20.8201 292.994 19.518 293.743 18.6496C294.488 17.7917 295.553 17.3555 296.911 17.3555C297.888 17.3555 298.899 17.5856 299.916 18.0392L300.172 18.1531V12.2887L300.052 12.2446C299.102 11.9034 297.811 11.7316 296.211 11.7316C294.194 11.7316 292.361 12.1705 290.763 13.0404C289.164 13.9115 287.906 15.1551 287.025 16.7362C286.147 18.3155 285.701 20.1395 285.701 22.158V26.1754H280.886V31.7439H285.701V55.2031H292.613V31.7439H302.865V46.6518C302.865 52.7916 305.761 55.903 311.472 55.903C312.411 55.903 313.399 55.793 314.407 55.5777C315.434 55.3565 316.133 55.1357 316.545 54.8998L316.636 54.8459V49.226L316.355 49.4119C315.979 49.6618 315.512 49.8661 314.965 50.0181C314.415 50.1727 313.955 50.2502 313.599 50.2502C312.261 50.2502 311.271 49.8897 310.657 49.1782C310.036 48.4602 309.721 47.2047 309.721 45.4484V31.7439H316.636ZM265.45 50.2511C262.941 50.2511 260.963 49.4192 259.569 47.7805C258.166 46.1336 257.455 43.7855 257.455 40.8021C257.455 37.7241 258.166 35.3151 259.569 33.639C260.964 31.974 262.923 31.1289 265.393 31.1289C267.79 31.1289 269.698 31.936 271.065 33.529C272.438 35.1304 273.135 37.5201 273.135 40.634C273.135 43.7861 272.48 46.2074 271.187 47.8271C269.903 49.4346 267.973 50.2511 265.45 50.2511ZM265.757 25.4761C260.97 25.4761 257.168 26.8787 254.458 29.6449C251.749 32.4114 250.375 36.2398 250.375 41.0248C250.375 45.5697 251.716 49.2254 254.361 51.8886C257.005 54.5528 260.604 55.9024 265.057 55.9024C269.697 55.9024 273.423 54.4802 276.132 51.6757C278.842 48.8743 280.214 45.082 280.214 40.4088C280.214 35.7929 278.926 32.11 276.385 29.4645C273.842 26.8177 270.266 25.4761 265.757 25.4761ZM239.231 25.4761C235.975 25.4761 233.281 26.309 231.224 27.951C229.154 29.6029 228.104 31.7694 228.104 34.391C228.104 35.7537 228.331 36.9642 228.777 37.9909C229.225 39.021 229.92 39.9279 230.842 40.6891C231.758 41.4441 233.171 42.235 235.044 43.0396C236.618 43.6875 237.792 44.2354 238.538 44.6673C239.267 45.0906 239.784 45.5161 240.077 45.9305C240.361 46.336 240.505 46.891 240.505 47.5759C240.505 49.5261 239.044 50.4751 236.039 50.4751C234.924 50.4751 233.653 50.2423 232.26 49.7834C230.877 49.3315 229.572 48.6697 228.39 47.8213L228.103 47.6154V54.2704L228.209 54.3194C229.187 54.7709 230.42 55.1516 231.873 55.4512C233.324 55.7511 234.642 55.9036 235.787 55.9036C239.32 55.9036 242.165 55.0668 244.241 53.4149C246.331 51.7517 247.39 49.5341 247.39 46.8218C247.39 44.8652 246.82 43.1873 245.696 41.834C244.58 40.4918 242.643 39.2596 239.942 38.1704C237.79 37.3066 236.411 36.5896 235.843 36.0392C235.294 35.5074 235.016 34.7555 235.016 33.8032C235.016 32.959 235.36 32.2827 236.065 31.7351C236.776 31.1846 237.766 30.9047 239.007 30.9047C240.158 30.9047 241.337 31.0866 242.509 31.4431C243.68 31.7997 244.708 32.2772 245.567 32.8613L245.849 33.0543V26.7415L245.741 26.6949C244.949 26.3552 243.904 26.0645 242.635 25.8287C241.373 25.5944 240.227 25.4761 239.231 25.4761ZM210.084 50.2511C207.576 50.2511 205.597 49.4192 204.203 47.7805C202.801 46.1336 202.091 43.7861 202.091 40.8021C202.091 37.7241 202.802 35.3151 204.205 33.639C205.599 31.974 207.557 31.1289 210.029 31.1289C212.425 31.1289 214.333 31.936 215.7 33.529C217.073 35.1304 217.77 37.5201 217.77 40.634C217.77 43.7861 217.114 46.2074 215.822 47.8271C214.538 49.4346 212.609 50.2511 210.084 50.2511ZM210.392 25.4761C205.605 25.4761 201.802 26.8787 199.093 29.6449C196.384 32.4114 195.01 36.2398 195.01 41.0248C195.01 45.5715 196.352 49.2254 198.996 51.8886C201.641 54.5528 205.239 55.9024 209.692 55.9024C214.331 55.9024 218.058 54.4802 220.768 51.6757C223.476 48.8743 224.85 45.082 224.85 40.4088C224.85 35.7929 223.561 32.11 221.019 29.4645C218.476 26.8177 214.9 25.4761 210.392 25.4761ZM184.517 31.2024V26.1754H177.689V55.2025H184.517V40.354C184.517 37.8292 185.09 35.7549 186.219 34.1882C187.335 32.6402 188.821 31.8557 190.635 31.8557C191.25 31.8557 191.941 31.9571 192.688 32.1577C193.429 32.3571 193.965 32.5737 194.281 32.8016L194.568 33.0096V26.1258L194.457 26.0783C193.821 25.8082 192.922 25.6719 191.783 25.6719C190.067 25.6719 188.532 26.2232 187.217 27.3087C186.062 28.2628 185.228 29.571 184.59 31.2024H184.517ZM165.462 25.4761C162.329 25.4761 159.535 26.1478 157.158 27.472C154.777 28.7992 152.935 30.6939 151.682 33.1033C150.435 35.5068 149.801 38.3144 149.801 41.4454C149.801 44.188 150.415 46.7048 151.629 48.923C152.844 51.1449 154.563 52.8832 156.738 54.0888C158.911 55.2928 161.423 55.9033 164.203 55.9033C167.448 55.9033 170.219 55.2545 172.44 53.9751L172.53 53.9237V47.6681L172.243 47.8776C171.237 48.6106 170.112 49.1956 168.902 49.6171C167.695 50.0383 166.595 50.2511 165.63 50.2511C162.951 50.2511 160.8 49.4128 159.239 47.76C157.674 46.1051 156.881 43.7812 156.881 40.8569C156.881 37.9143 157.708 35.5307 159.339 33.7719C160.964 32.0184 163.119 31.1289 165.743 31.1289C167.987 31.1289 170.174 31.8888 172.243 33.3897L172.53 33.5977V27.0064L172.437 26.9543C171.659 26.5185 170.597 26.1586 169.278 25.8857C167.966 25.6134 166.682 25.4761 165.462 25.4761ZM145.098 26.1757H138.27V55.2025H145.098V26.1757ZM141.754 13.8101C140.63 13.8101 139.65 14.1927 138.845 14.9508C138.036 15.711 137.626 16.6682 137.626 17.7978C137.626 18.9097 138.032 19.8494 138.833 20.5894C139.628 21.3273 140.611 21.7013 141.755 21.7013C142.897 21.7013 143.884 21.3273 144.69 20.5907C145.5 19.8494 145.911 18.91 145.911 17.7978C145.911 16.7077 145.511 15.7603 144.723 14.9814C143.935 14.204 142.936 13.8101 141.754 13.8101ZM124.718 24.0341V55.2025H131.686V14.6987H122.042L109.783 44.7837L97.8867 14.6987H87.8496V55.2022H94.398V24.031H94.6228L107.185 55.2025H112.127L124.493 24.0341H124.718Z" fill="#706D6E"/>
<path d="M32.121 33.2848H0V1.16382H32.121V33.2848Z" fill="#F1511B"/>
<path d="M67.5862 33.2848H35.4658V1.16382H67.5862V33.2848Z" fill="#80CC28"/>
<path d="M32.1201 68.7624H0V36.6417H32.1201V68.7624Z" fill="#00ADEF"/>
<path d="M67.5862 68.7624H35.4658V36.6417H67.5862V68.7624Z" fill="#FBBC09"/>
</svg>
