<svg width="376" height="65" viewBox="0 0 376 65" fill="none" xmlns="http://www.w3.org/2000/svg">
<g clip-path="url(#clip0_438_122)">
<path d="M40.9749 54.4382L44.3778 39.9644L36.8305 7.86743C36.3738 5.92725 34.9816 0 30.5781 0V10.2118L39.1973 46.865L40.9749 54.4382Z" fill="#13294E"/>
<path d="M81.7244 52.4431L80.4292 46.8715L71.2433 7.86743C70.7868 5.92725 69.3945 0 64.9877 0V10.2118L73.6069 46.865L75.2746 53.9435C75.3739 54.3678 75.3884 54.8074 75.3173 55.2373C75.2462 55.6671 75.0908 56.0788 74.8601 56.4485C74.6294 56.8184 74.3278 57.1391 73.9729 57.3922C73.6178 57.6454 73.2161 57.8262 72.7912 57.9241C72.5409 57.9843 72.2843 58.0146 72.0269 58.0146C71.2814 58.009 70.5592 57.7539 69.9758 57.2903C69.3924 56.8265 68.9814 56.1811 68.8085 55.4568L68.6304 54.7035L66.8042 46.865L61.4908 24.2846L58.1818 10.2118L54.7788 24.6856L59.9983 46.865L62.3716 56.9604C62.6692 58.2294 63.2143 59.4277 63.9756 60.4862C64.7368 61.545 65.6994 62.4436 66.8085 63.1308C67.9174 63.8179 69.151 64.2802 70.4389 64.4913C71.7268 64.7023 73.0438 64.6579 74.3145 64.3606C75.5852 64.0634 76.7848 63.519 77.8449 62.7589C78.905 61.9985 79.8048 61.0371 80.4929 59.9296C81.1809 58.822 81.6438 57.5901 81.8551 56.3039C82.0664 55.0177 82.022 53.7024 81.7244 52.4334V52.4431Z" fill="#13294E"/>
<path d="M32.392 46.8644L23.8278 10.4473L20.4248 24.9178L25.5859 46.8644L27.9172 56.7754C28.1666 57.833 28.6912 60.0609 29.8244 61.875C32.6025 60.5556 33.6806 56.4942 34.108 54.6963L34.1728 54.4312L32.392 46.8644Z" fill="#13294E"/>
<path d="M81.7244 52.4431L80.4292 46.8715L71.2433 7.86743C70.7868 5.92725 69.3945 0 64.9877 0V10.2118L73.6069 46.865L75.2746 53.9435C75.3739 54.3678 75.3884 54.8074 75.3173 55.2373C75.2462 55.6671 75.0908 56.0788 74.8601 56.4485C74.6294 56.8184 74.3278 57.1391 73.9729 57.3922C73.6178 57.6454 73.2161 57.8262 72.7912 57.9241C72.5409 57.9843 72.2843 58.0146 72.0269 58.0146C71.2814 58.009 70.5592 57.7539 69.9758 57.2903C69.3924 56.8265 68.9814 56.1811 68.8085 55.4568L68.6304 54.7035L66.8042 46.865L61.4908 24.2846L58.1818 10.2118L54.7788 24.6856L59.9983 46.865L62.3716 56.9604C62.6692 58.2294 63.2143 59.4277 63.9756 60.4862C64.7368 61.545 65.6994 62.4436 66.8085 63.1308C67.9174 63.8179 69.151 64.2802 70.4389 64.4913C71.7268 64.7023 73.0438 64.6579 74.3145 64.3606C75.5852 64.0634 76.7848 63.519 77.8449 62.7589C78.905 61.9985 79.8048 61.0371 80.4929 59.9296C81.1809 58.822 81.6438 57.5901 81.8551 56.3039C82.0664 55.0177 82.022 53.7024 81.7244 52.4334V52.4431Z" fill="url(#paint0_linear_438_122)"/>
<path d="M36.8305 7.86743C36.3738 5.92725 34.9816 0 30.5781 0V10.2118L39.1973 46.865L40.9749 54.4318L44.3778 39.958L36.8305 7.86743Z" fill="url(#paint1_linear_438_122)"/>
<path d="M23.8278 10.4473L20.4248 24.9178L25.5859 46.8644L27.9172 56.7754C28.1666 57.833 28.6912 60.0609 29.8244 61.875C32.6025 60.5556 33.6806 56.4942 34.108 54.6963L34.1728 54.4312L32.392 46.8644L23.8278 10.4473Z" fill="url(#paint2_linear_438_122)"/>
<path d="M120.202 22.5737C116.12 22.5737 114.08 25.8462 113.895 30.91V48.5108H105.855V16.3975H113.911V25.2286L115.828 17.8203C116.819 16.8923 118.92 15.2334 122.754 15.2334C128.443 15.2334 132.522 18.8778 133.513 24.8697L135.246 17.8299C136.359 16.6562 138.645 15.2431 142.11 15.2431C149.233 15.2431 153.488 19.7701 153.488 27.9674V48.5302H145.432V29.2448C145.432 24.7985 143.454 22.5737 139.866 22.5737C135.725 22.5737 133.682 25.539 133.682 30.7872V48.5108H125.645V29.3062C125.645 25.9076 124.221 22.5737 120.202 22.5737Z" fill="#EE3932"/>
<path d="M194.408 32.3329C194.408 42.3376 186.925 49.4388 176.847 49.4388C166.767 49.4388 159.284 42.3247 159.284 32.3329C159.284 22.3409 166.767 15.2236 176.847 15.2236C186.925 15.2236 194.408 22.3279 194.408 32.3329ZM176.847 42.0887C182.102 42.0887 186.061 38.3215 186.061 32.3329C186.061 26.3441 182.102 22.5738 176.847 22.5738C171.527 22.5738 167.631 26.3408 167.631 32.3329C167.631 38.3247 171.591 42.0887 176.847 42.0887Z" fill="#EE3932"/>
<path d="M227.236 24.4268L219.693 27.2691C219.446 23.5019 216.85 21.4486 212.705 21.4486C209.367 21.4486 207.389 22.9328 207.389 25.1544C207.389 31.1463 227.609 26.2667 227.609 39.1755C227.609 46.215 221.302 49.4261 213.573 49.4261C205.407 49.4261 199.472 46.0922 198.297 39.9773L205.902 36.705C206.227 41.3969 209.551 43.1269 213.573 43.1269C216.538 43.1269 219.077 41.953 219.077 39.667C219.077 33.3679 199.168 38.5577 199.168 25.6491C199.168 19.5957 205.41 15.2109 212.709 15.2109C220.628 15.2239 226.006 18.8068 227.236 24.4268Z" fill="#EE3932"/>
<path d="M266.758 34.1238L271.644 48.5103H263.178L259.399 36.8401L258.841 44.9241C256.494 47.6404 253.091 49.4319 248.157 49.4319C238.572 49.4319 231.893 42.1433 231.893 32.4489C231.893 22.6283 238.511 15.2168 248.082 15.2168C252.722 15.2168 256.245 17.0082 258.719 19.7439V16.3971H266.758V34.1238ZM249.63 42.1498C254.762 42.1498 259.02 38.3825 259.02 32.4489C259.02 26.3954 254.753 22.5053 249.63 22.5053C244.249 22.5053 240.241 26.5184 240.241 32.4489C240.231 38.2597 244.249 42.1498 249.63 42.1498Z" fill="#EE3932"/>
<path d="M276.716 3.12012H285.062V11.1492H276.716V3.12012ZM284.872 16.3974V48.5106H276.832V16.3974H284.872Z" fill="#EE3932"/>
<path d="M323.463 24.3651L316.339 28.5042C315.597 24.8598 312.256 22.5738 308.3 22.5738C303.045 22.5738 299.334 26.1566 299.334 32.3329C299.334 38.509 302.984 42.0887 308.3 42.0887C312.133 42.0887 315.424 39.5568 316.339 36.3458L323.265 40.3587C321.103 45.4873 315.471 49.4388 308.3 49.4388C297.975 49.4388 290.988 42.4605 290.988 32.3329C290.988 22.2665 298.22 15.2236 308.3 15.2236C315.427 15.2236 321.361 19.1784 323.463 24.3651Z" fill="#EE3932"/>
<path d="M336.11 2.13965L341.41 20.3029L346.714 2.13965H354.728V26.4566H349.758V7.16796L344.159 26.2238H338.461L332.895 7.14531V26.4663H327.934V2.14935L336.11 2.13965Z" fill="#EE3932"/>
<path d="M359.694 2.13965H364.798V21.7257H375.995V26.4566H359.694V2.13965Z" fill="#EE3932"/>
<path d="M64.9869 0C60.5834 0 59.1912 5.92079 58.7348 7.86743L58.181 10.2118L47.781 54.4382C47.7649 54.519 47.7422 54.6128 47.7194 54.7035C47.2888 56.5012 46.2139 60.5628 43.4326 61.882C44.3877 63.4115 45.7702 64.65 47.7842 64.65C52.1878 64.65 53.58 58.7293 54.0366 56.7826L54.5255 54.7035L64.9869 10.2118C65.3723 8.57882 66.4149 4.15521 69.3387 2.77446C68.3835 1.23848 67.001 0 64.9869 0Z" fill="#EE3932"/>
<path d="M34.9654 2.76799C34.0103 1.23848 32.6276 0 30.6138 0C26.2102 0 24.8179 5.92079 24.3614 7.86743L23.8109 10.2118L13.3462 54.7035L13.1713 55.4568C12.9973 56.1806 12.586 56.8254 12.0028 57.289C11.4197 57.7524 10.6981 58.0078 9.95286 58.0146C9.69545 58.0149 9.43893 57.9845 9.18873 57.9241C8.33394 57.7235 7.59375 57.1923 7.1306 56.4473C6.66745 55.7021 6.51915 54.804 6.71823 53.95L17.0049 10.2118C17.387 8.57882 18.4296 4.15521 21.3533 2.77446C20.3982 1.24495 19.0189 0.00646371 17.0049 0.00646371C12.5982 0.00646371 11.2059 5.92725 10.7494 7.8739L10.1989 10.2183L0.261932 52.4431C-0.339183 55.0061 0.103797 57.7025 1.49341 59.9393C2.88304 62.1762 5.10547 63.77 7.67179 64.3704C10.2381 64.9707 12.9381 64.5282 15.1779 63.1405C17.4177 61.7527 19.0135 59.5332 19.6146 56.9701L20.1457 54.7067L30.6073 10.215C30.9989 8.57884 32.0417 4.15523 34.9654 2.76799Z" fill="#EE3932"/>
<path d="M55.7274 2.76799C54.7723 1.23848 53.3896 0 51.3758 0C46.9723 0 45.5799 5.92079 45.1234 7.86743L44.5729 10.2118L34.1729 54.4382L34.1081 54.7035C33.6807 56.5012 32.6026 60.5628 29.8213 61.882C30.7764 63.4115 32.1589 64.65 34.1729 64.65C38.5764 64.65 39.9688 58.7293 40.4253 56.7826L40.9142 54.7035L51.379 10.2118C51.761 8.57882 52.8035 4.15521 55.7274 2.76799Z" fill="#EE3932"/>
</g>
<defs>
<linearGradient id="paint0_linear_438_122" x1="57.4113" y1="29.0995" x2="68.0292" y2="32.2954" gradientUnits="userSpaceOnUse">
<stop stop-color="#070D19"/>
<stop offset="1" stop-color="#13294E" stop-opacity="0"/>
</linearGradient>
<linearGradient id="paint1_linear_438_122" x1="4570.71" y1="14832.1" x2="5026.75" y2="14870.1" gradientUnits="userSpaceOnUse">
<stop stop-color="#070D19"/>
<stop offset="1" stop-color="#13294E" stop-opacity="0"/>
</linearGradient>
<linearGradient id="paint2_linear_438_122" x1="4392.29" y1="15746.8" x2="4846.39" y2="15786.6" gradientUnits="userSpaceOnUse">
<stop stop-color="#070D19"/>
<stop offset="1" stop-color="#13294E" stop-opacity="0"/>
</linearGradient>
<clipPath id="clip0_438_122">
<rect width="375.994" height="64.65" fill="white"/>
</clipPath>
</defs>
</svg>
