<svg
   version="1.1"
   id="svg2"
   width="1106.4532"
   height="184.67999"
   viewBox="0 0 1106.4532 184.67999"
   xmlns="http://www.w3.org/2000/svg"
   xmlns:svg="http://www.w3.org/2000/svg">
  <g
     id="g8"
     transform="matrix(1.3333333,0,0,-1.3333333,0,184.68)">
    <g
       id="g10"
       transform="scale(0.1)">
      <path
         d="m 3375.16,979.168 h -255.5 c -7.95,0 -15.38,-3.965 -19.82,-10.566 L 2910.15,686.023 2720.46,968.602 c -4.43,6.601 -11.87,10.566 -19.82,10.566 h -253.75 c -19.12,0 -30.47,-21.348 -19.8,-37.203 L 2731.17,490.594 2420.54,58.9883 c -11.37,-15.7891 -0.08,-37.8086 19.37,-37.8086 h 257.67 c 7.72,0 14.96,3.7305 19.44,10.0195 L 2911.89,304.738 3106.76,31.1992 c 4.48,-6.289 11.72,-10.0195 19.44,-10.0195 h 255.94 c 19.45,0 30.73,22.0195 19.37,37.8086 l -310.64,431.6057 304.08,451.371 c 10.68,15.855 -0.68,37.203 -19.79,37.203"
         style="fill:#84cd27;fill-opacity:1;fill-rule:nonzero;stroke:none"
         id="path12" />
      <path
         d="M 3953.86,408.203 V 749.25 h 210.21 c 13.19,0 23.87,10.684 23.87,23.867 v 182.184 c 0,13.179 -10.68,23.867 -23.87,23.867 h -210.21 v 242.452 c 0,13.18 -10.68,23.86 -23.86,23.86 h -217.42 c -13.18,0 -23.86,-10.74 -23.86,-23.92 0,-269.622 22.13,-242.349 -174.39,-242.349 -17.08,0 -31.06,-13.816 -31.06,-30.898 -0.01,-43.961 -0.01,-124.157 -0.01,-168.149 0,-17.133 13.9,-30.914 31.04,-30.914 h 174.43 V 356.469 c 0,-233.739 164.5,-346.77759 369.64,-346.77759 63.48,0 111.1,5.69919 150.33,15.88669 10.61,2.7617 18.04,12.2422 18.04,23.211 V 230.57 c 0,15.621 -14.62,26.621 -29.82,23.039 -23.33,-5.507 -49.09,-8.257 -78.56,-8.257 -114.18,0 -164.5,45.98 -164.5,162.851"
         style="fill:#84cd27;fill-opacity:1;fill-rule:nonzero;stroke:none"
         id="path14" />
      <path
         d="m 4818.88,239.602 c -145.15,0 -243.85,111.128 -243.85,260.57 0,149.449 98.7,260.574 243.85,260.574 145.14,0 243.84,-111.125 243.84,-260.574 0,-149.442 -98.7,-260.57 -243.84,-260.57 z m 222.56,632.261 c -42.57,61.313 -145.15,128.377 -278.69,128.377 -257.39,0 -454.79,-227.998 -454.79,-500.068 0,-272.07 197.4,-500.070437 454.79,-500.070437 133.54,0 236.12,67.070337 278.69,128.378437 V 52.2109 c 0,-17.1406 13.89,-31.0312 31.03,-31.0312 h 210.24 c 13.17,0 23.86,10.6797 23.86,23.8711 V 1361.27 c 0,13.18 -10.69,23.86 -23.86,23.86 H 5065.3 c -13.18,0 -23.86,-10.68 -23.86,-23.86 V 871.863"
         style="fill:#84cd27;fill-opacity:1;fill-rule:nonzero;stroke:none"
         id="path16" />
      <path
         d="m 8209.33,990.66 c -108.38,0 -207.09,-70.898 -239.98,-164.789 v 129.43 c 0,13.179 -10.68,23.867 -23.86,23.867 h -217.41 c -13.18,0 -23.86,-10.688 -23.86,-23.867 V 45.0508 c 0,-13.1914 10.68,-23.8711 23.86,-23.8711 h 217.41 c 13.18,0 23.86,10.6797 23.86,23.8711 V 479.094 c 0,157.113 83.22,254.824 209.01,254.824 31.91,0 60.56,-4.301 90.02,-12.105 15.13,-4.008 29.97,7.265 29.97,22.91 v 215.89 c 0,11.364 -8.12,21.024 -19.23,23.414 -25.16,5.411 -48.1,6.633 -69.79,6.633"
         style="fill:#84cd27;fill-opacity:1;fill-rule:nonzero;stroke:none"
         id="path18" />
      <path
         d="m 5947.14,245.352 c -139.34,0 -241.91,107.289 -241.91,254.82 0,147.531 102.57,254.824 241.91,254.824 139.34,0 239.98,-107.293 239.98,-254.824 0,-147.531 -100.64,-254.82 -239.98,-254.82 z m 0,754.888 c -280.62,0 -508.98,-220.334 -508.98,-500.068 0,-279.731 228.36,-500.070437 508.98,-500.070437 280.62,0 508.98,220.339437 508.98,500.070437 0,279.734 -228.36,500.068 -508.98,500.068"
         style="fill:#84cd27;fill-opacity:1;fill-rule:nonzero;stroke:none"
         id="path20" />
      <path
         d="m 7063.64,245.352 c -139.33,0 -241.91,107.289 -241.91,254.82 0,147.531 102.58,254.824 241.91,254.824 139.35,0 239.98,-107.293 239.98,-254.824 0,-147.531 -100.63,-254.82 -239.98,-254.82 z m 0,754.888 c -280.61,0 -508.98,-220.334 -508.98,-500.068 0,-279.731 228.37,-500.070437 508.98,-500.070437 280.62,0 508.99,220.339437 508.99,500.070437 0,279.734 -228.37,500.068 -508.99,500.068"
         style="fill:#84cd27;fill-opacity:1;fill-rule:nonzero;stroke:none"
         id="path22" />
      <path
         d="m 809.336,1011.8 c -178.188,0 -330.012,-81.843 -415.191,-207.011 -7.098,-10.43 -19.133,-32.707 -35.336,-32.836 -77.957,-0.598 -82.786,95.504 -85.258,181.164 -0.367,12.598 -11.215,22.965 -23.821,22.965 L 23.9688,977.34 C 10.6328,977.34 -0.308594,966.328 0.00390625,953 4.98047,743.621 43.5156,601.441 297.168,544.895 c 13.906,-3.094 23.594,-15.684 23.594,-29.93 0,-86.953 0,-383.774 0,-470.0744 0,-13.1797 10.683,-23.7109 23.863,-23.7109 h 219.27 c 13.179,0 23.863,10.6797 23.863,23.8711 V 530.57 c 0,107.871 76.519,230.313 221.578,230.313 138.152,0 221.564,-122.442 221.564,-230.313 V 45.0508 c 0,-13.1914 10.69,-23.8711 23.87,-23.8711 h 219.27 c 13.18,0 23.86,10.6797 23.86,23.8711 V 566.594 c 0,249.39 -212.84,445.206 -488.564,445.206"
         style="fill:#84cd27;fill-opacity:1;fill-rule:nonzero;stroke:none"
         id="path24" />
      <path
         d="m 1676.32,617.047 c 25.15,116.875 135.47,166.691 234.16,166.691 98.7,0 195.47,-53.648 218.69,-166.691 z m 241.91,383.193 c -294.17,0 -508.98,-216.502 -508.98,-500.068 0,-302.723 224.54,-494.66028 512.85,-500.070437 226.34,-4.242193 377.06,125.410437 412.92,170.789437 8.17,10.328 5.5,25.57 -5.1,33.379 l -150.59,117.621 c -16.38,16.257 -29.03,7.449 -38.87,-0.5 -24.12,-19.481 -70.05,-75.84 -216.43,-81.789 -127.62,-5.192 -241.91,70.886 -257.39,199.261 h 701.82 c 12.55,0 22.97,9.883 23.85,22.399 2,28.304 2,49.211 2,67.652 0,310.387 -222.56,471.326 -476.08,471.326"
         style="fill:#84cd27;fill-opacity:1;fill-rule:nonzero;stroke:none"
         id="path26" />
    </g>
  </g>
</svg>
