<svg width="334" height="65" viewBox="0 0 334 65" fill="none" xmlns="http://www.w3.org/2000/svg">
<g clip-path="url(#clip0_48_3043)">
<path d="M328.606 29.9157C330.538 31.9571 331.531 34.7157 331.531 38.2467V56.7295H324.303V40.3433C324.303 38.3019 323.696 36.6467 322.538 35.433C321.379 34.2192 319.779 33.6123 317.738 33.6123C315.365 33.6674 313.434 34.4399 312.055 36.0399C310.675 37.6399 309.958 39.6261 309.958 42.1088V56.6743H302.786V15.6261H309.958V32.7295C312 28.8674 315.531 26.8812 320.606 26.8261C323.972 26.8812 326.62 27.8743 328.606 29.9157ZM286.896 33.2261C284.524 33.2261 282.593 34.0536 281.103 35.6536C279.613 37.2536 278.896 39.4054 278.896 41.9433C278.896 44.5916 279.669 46.7433 281.103 48.3433C282.593 49.9433 284.524 50.7709 286.896 50.7709C290.427 50.7709 293.075 49.6123 294.841 47.295L299.31 50.9916C297.986 52.9226 296.165 54.4123 294.069 55.4054C291.917 56.4536 289.379 56.9502 286.51 56.9502C283.586 56.9502 281.048 56.3433 278.786 55.0743C276.579 53.8605 274.758 52.0399 273.544 49.7778C272.275 47.5157 271.669 44.9226 271.669 41.9433C271.669 38.964 272.331 36.3157 273.544 34.0536C274.758 31.7916 276.579 29.9709 278.841 28.7571C281.103 27.4881 283.696 26.8812 286.62 26.8812C289.324 26.8812 291.696 27.3226 293.793 28.3157C295.889 29.3088 297.6 30.5778 298.924 32.3433L294.62 36.4812C292.634 34.3295 290.041 33.2261 286.896 33.2261ZM267.089 27.1571V56.7295H259.917V52.0399C258.924 53.6399 257.489 54.9088 255.834 55.7916C254.179 56.6743 252.248 57.1157 250.096 57.1157C247.282 57.1157 244.855 56.4536 242.758 55.1847C240.662 53.9157 239.007 52.1502 237.848 49.833C236.689 47.5157 236.082 44.8674 236.082 41.8881C236.082 38.964 236.689 36.3157 237.848 34.0536C239.007 31.7916 240.662 30.0261 242.758 28.7571C244.855 27.4881 247.282 26.8812 250.041 26.8812C252.193 26.8812 254.124 27.3226 255.834 28.2054C257.489 29.0881 258.924 30.3571 259.972 31.9571V27.2123L267.089 27.1571ZM257.324 48.8398C258.813 47.4054 259.696 45.4743 259.917 43.0467V40.9502C259.696 38.5778 258.813 36.6467 257.324 35.1571C255.834 33.7226 253.903 32.9502 251.586 32.9502C249.103 32.9502 247.117 33.7778 245.572 35.4881C244.027 37.1433 243.255 39.3502 243.2 41.9985C243.255 44.6467 244.027 46.7985 245.572 48.5088C247.117 50.164 249.103 51.0467 251.586 51.0467C253.903 51.0467 255.834 50.3295 257.324 48.8398ZM228.8 30.964C231.172 33.6674 232.331 37.4192 232.331 42.3295C232.331 43.2674 232.331 43.9847 232.275 44.4812H210.538C211.034 46.5778 211.972 48.233 213.462 49.4467C214.951 50.6605 216.772 51.2674 218.924 51.2674C220.413 51.2674 221.903 50.9916 223.227 50.3847C224.606 49.833 225.82 49.0054 226.813 47.9019L230.675 51.9295C229.186 53.5847 227.365 54.8536 225.324 55.6812C223.227 56.564 220.855 57.0054 218.317 57.0054C215.282 57.0054 212.634 56.3985 210.372 55.1295C208.11 53.9157 206.289 52.095 205.075 49.833C203.806 47.5709 203.2 44.9778 203.2 41.9985C203.2 39.0743 203.806 36.426 205.075 34.164C206.289 31.9019 208.165 30.0812 210.372 28.8123C212.634 27.5433 215.227 26.8812 218.151 26.8812C222.896 26.9364 226.427 28.2605 228.8 30.964ZM225.82 39.6261C225.765 37.4743 225.048 35.7088 223.669 34.4398C222.289 33.1709 220.524 32.5088 218.262 32.5088C216.165 32.5088 214.4 33.1709 213.02 34.4398C211.586 35.7088 210.758 37.4743 210.427 39.6812H225.82V39.6261ZM195.475 28.4261C197.186 27.4329 199.172 26.8812 201.434 26.8261V33.7778C198.4 33.6123 195.972 34.2743 194.151 35.9295C192.331 37.5295 191.448 39.6812 191.448 42.4398V56.7295H184.275V27.1571H191.448V32.8398C192.386 30.9088 193.765 29.4743 195.475 28.4261ZM178.869 54.9088C176.496 56.3433 174.069 57.0605 171.475 57.0605C168.938 57.0605 166.841 56.2881 165.241 54.7985C163.641 53.3088 162.813 51.1019 162.813 48.1778V20.2054L169.931 19.3778V28.3709H178.372V33.6123H169.931V46.964C169.931 48.3433 170.206 49.2812 170.703 49.8881C171.2 50.4398 171.972 50.7709 173.02 50.7709C174.124 50.7709 175.503 50.3847 177.213 49.5571L178.869 54.9088ZM149.572 27.1571H156.689V43.764C156.689 53.4192 149.958 57.0605 143.117 57.0605C136.275 57.0605 129.544 53.4743 129.544 43.764V27.1571H136.662V43.9847C136.662 47.6812 139.42 50.7157 143.117 50.7157C146.813 50.7157 149.572 47.6812 149.572 43.9847V27.1571ZM114.869 20.095C117.958 21.7502 120.496 24.233 122.262 27.2123C124.082 30.2467 124.965 33.6123 124.965 37.2536C124.965 40.9502 124.082 44.3157 122.262 47.3502C120.496 50.3847 117.903 52.8674 114.869 54.5778C111.724 56.3433 108.248 57.2261 104.441 57.2261C100.634 57.2261 97.1582 56.3433 94.0134 54.5778C90.9237 52.8674 88.3858 50.3847 86.6203 47.3502C84.7996 44.3157 83.9168 40.9502 83.9168 37.2536C83.9168 33.5571 84.7996 30.1916 86.6203 27.2123C88.3858 24.233 90.9789 21.7502 94.0134 20.095C97.1582 18.3847 100.634 17.5019 104.441 17.5019C108.248 17.5019 111.724 18.3847 114.869 20.095ZM97.9306 25.8881C95.9444 27.0467 94.2892 28.6467 93.1306 30.6329C91.972 32.6192 91.3651 34.8812 91.3651 37.3088C91.3651 39.7364 91.972 41.9985 93.1306 43.9847C94.2892 45.9709 95.9444 47.626 97.9306 48.7847C99.9168 49.9433 102.124 50.5502 104.441 50.5502C106.703 50.5502 108.965 49.9433 110.896 48.7847C112.882 47.626 114.482 45.9709 115.586 43.9847C116.744 41.9433 117.351 39.6261 117.296 37.3088C117.296 34.8812 116.689 32.6743 115.586 30.6329C114.482 28.6467 112.827 26.9916 110.896 25.8881C108.965 24.7295 106.703 24.1226 104.441 24.1226C102.234 24.1226 99.972 24.7295 97.9306 25.8881ZM29.903 0.950195C40.0547 0.950195 55.3375 4.09503 62.5099 11.2123C64.3306 13.033 66.703 16.564 66.703 21.8054C66.703 31.0743 59.2547 45.2536 51.0892 53.5295C46.8409 57.7778 40.1099 63.3502 31.0064 63.3502C22.1237 63.3502 15.3375 57.2812 13.4064 55.3502C5.90299 47.7916 0.496094 36.3709 0.496094 25.6674C0.496094 18.9364 2.42713 13.033 7.2823 8.12261C11.8064 3.5433 19.5858 0.950195 29.903 0.950195ZM42.4823 37.8605C45.903 34.4398 46.8409 30.1916 46.8409 27.8743C46.8409 26.164 46.3996 23.6812 44.303 21.5847C41.0478 18.3295 37.5168 17.4467 33.5995 17.4467C28.6892 17.4467 25.3789 18.9916 23.172 21.1985C21.4616 22.9088 19.972 25.6123 19.972 29.4192C19.972 33.2261 21.9582 36.8674 24.1651 39.0743C26.2064 41.1157 29.3513 42.6054 32.6064 42.6054C35.8616 42.6054 39.0616 41.2812 42.4823 37.8605Z" fill="#5952FF"/>
</g>
<defs>
<clipPath id="clip0_48_3043">
<rect width="333.241" height="64" fill="white" transform="translate(0 0.0712891)"/>
</clipPath>
</defs>
</svg>
