<?xml version="1.0" encoding="UTF-8"?>
<svg xmlns="http://www.w3.org/2000/svg" id="Calque_1" viewBox="0 0 343.59 83.51">
  <g>
    <g>
      <path d="m100.34,74.96c-1.66,0-3.15-.26-4.47-.77-1.32-.51-2.44-1.26-3.36-2.25s-1.62-2.2-2.11-3.63-.74-3.07-.74-4.92.28-3.49.85-4.92c.56-1.43,1.34-2.64,2.32-3.63.98-.99,2.13-1.74,3.45-2.25s2.74-.77,4.25-.77c.92,0,1.75.07,2.49.21.75.14,1.4.29,1.95.46.55.17,1.01.35,1.37.54.36.19.62.33.77.42l-1.18,3.29c-.51-.32-1.24-.62-2.19-.91-.95-.29-1.98-.43-3.08-.43-.96,0-1.85.17-2.68.49-.83.33-1.55.83-2.16,1.49-.61.66-1.08,1.49-1.42,2.49-.34,1-.51,2.16-.51,3.48,0,1.17.13,2.25.4,3.23.27.98.68,1.83,1.23,2.54.55.71,1.26,1.27,2.11,1.66.85.39,1.88.59,3.07.59,1.43,0,2.59-.14,3.48-.43.89-.29,1.59-.56,2.08-.82l1.09,3.29c-.26.17-.6.34-1.04.51-.44.17-.95.34-1.55.5s-1.27.29-2.01.38c-.75.1-1.54.14-2.4.14Z"></path>
      <path d="m115.84,57.35c1.28,0,2.35.16,3.23.48s1.57.77,2.09,1.34c.52.58.89,1.27,1.12,2.09.22.82.34,1.72.34,2.7v10.13c-.6.13-1.5.28-2.7.46s-2.56.27-4.07.27c-1,0-1.92-.1-2.75-.29s-1.54-.5-2.12-.93c-.59-.43-1.04-.98-1.37-1.66-.33-.68-.5-1.52-.5-2.52s.19-1.77.56-2.43c.37-.66.88-1.2,1.52-1.61.64-.42,1.38-.71,2.22-.89.84-.18,1.72-.27,2.64-.27.43,0,.87.03,1.34.08s.97.14,1.5.27v-.64c0-.45-.05-.87-.16-1.28-.11-.4-.29-.76-.56-1.07s-.62-.55-1.05-.72c-.44-.17-.99-.26-1.65-.26-.89,0-1.71.06-2.46.19-.75.13-1.35.28-1.82.45l-.48-3.13c.49-.17,1.2-.34,2.14-.51.94-.17,1.94-.26,3-.26Zm.32,14.41c1.19,0,2.1-.06,2.72-.19v-4.28c-.21-.06-.52-.13-.93-.19-.4-.06-.85-.1-1.34-.1-.43,0-.86.03-1.29.1-.44.06-.83.18-1.18.35-.35.17-.63.41-.85.72-.21.31-.32.7-.32,1.17,0,.92.29,1.55.86,1.9.57.35,1.35.53,2.33.53Z"></path>
      <path d="m141.98,66.14c0,1.28-.17,2.45-.49,3.52-.33,1.07-.8,1.98-1.42,2.75s-1.39,1.36-2.32,1.79c-.93.43-1.98.64-3.15.64-.79,0-1.51-.1-2.17-.29-.66-.19-1.2-.4-1.63-.64v6.49h-3.87v-22.08c.79-.21,1.76-.42,2.91-.61,1.15-.19,2.37-.29,3.64-.29s2.5.2,3.55.61c1.04.4,1.93.99,2.67,1.74.74.76,1.3,1.67,1.69,2.75.39,1.08.59,2.29.59,3.63Zm-3.96.06c0-1.73-.39-3.07-1.17-4.03-.78-.96-2.03-1.44-3.75-1.44-.36,0-.74.02-1.13.05-.39.03-.78.1-1.17.21v9.55c.34.23.79.45,1.36.65.56.2,1.17.3,1.81.3,1.41,0,2.43-.48,3.08-1.44.65-.96.97-2.25.97-3.87Z"></path>
      <path d="m159.36,72.79c0,2.66-.68,4.61-2.03,5.85-1.35,1.24-3.43,1.85-6.22,1.85-1.02,0-2.02-.09-2.99-.26-.97-.17-1.85-.39-2.64-.67l.7-3.29c.66.28,1.41.5,2.25.67.84.17,1.75.26,2.73.26,1.55,0,2.66-.32,3.32-.96.66-.64.99-1.59.99-2.84v-.64c-.38.19-.89.38-1.52.58-.63.19-1.35.29-2.16.29-1.07,0-2.04-.17-2.92-.51s-1.64-.84-2.27-1.5c-.63-.66-1.12-1.49-1.47-2.48-.35-.99-.53-2.13-.53-3.43,0-1.21.19-2.33.56-3.36.37-1.02.92-1.9,1.63-2.62s1.58-1.29,2.6-1.69,2.18-.61,3.48-.61,2.45.1,3.58.29c1.13.19,2.09.39,2.88.61v14.48Zm-10.77-7.09c0,1.64.36,2.84,1.07,3.59.71.76,1.63,1.13,2.76,1.13.62,0,1.2-.08,1.74-.26s.98-.37,1.33-.61v-8.66c-.28-.06-.62-.12-1.02-.18-.4-.05-.92-.08-1.53-.08-1.41,0-2.48.46-3.23,1.39-.75.93-1.12,2.15-1.12,3.66Z"></path>
      <path d="m162.94,66.2c0-1.47.22-2.76.66-3.87.44-1.11,1.02-2.03,1.74-2.76.72-.73,1.55-1.29,2.49-1.66.94-.37,1.9-.56,2.88-.56,2.3,0,4.1.71,5.38,2.14,1.29,1.43,1.93,3.56,1.93,6.39,0,.21,0,.45-.02.72-.01.27-.03.51-.05.72h-11.02c.11,1.34.58,2.38,1.42,3.12s2.06,1.1,3.66,1.1c.94,0,1.79-.09,2.57-.26.78-.17,1.39-.35,1.84-.54l.51,3.16c-.21.11-.51.22-.88.34-.37.12-.8.22-1.28.32s-1,.18-1.55.24c-.55.06-1.12.1-1.69.1-1.47,0-2.75-.22-3.83-.66-1.09-.44-1.98-1.04-2.68-1.82-.7-.78-1.23-1.69-1.57-2.75-.34-1.05-.51-2.21-.51-3.47Zm11.22-1.73c0-.53-.07-1.04-.22-1.52-.15-.48-.37-.89-.66-1.25s-.64-.63-1.05-.83-.91-.3-1.49-.3-1.12.11-1.57.34c-.45.22-.83.52-1.13.88-.31.36-.55.78-.72,1.25-.17.47-.29.95-.35,1.44h7.19Z"></path>
      <path d="m191.22,65.69c0-1.75-.22-3.01-.66-3.79s-1.25-1.17-2.45-1.17c-.43,0-.89.03-1.41.1-.51.06-.89.12-1.15.16v13.48h-3.87v-16.17c.75-.21,1.72-.42,2.92-.61,1.2-.19,2.48-.29,3.82-.29,1.15,0,2.09.15,2.83.45.73.3,1.35.69,1.84,1.18.23-.17.53-.35.89-.54s.77-.37,1.22-.53c.45-.16.92-.29,1.42-.4.5-.11,1.01-.16,1.52-.16,1.3,0,2.37.19,3.21.56.84.37,1.5.89,1.98,1.57.48.67.81,1.48.99,2.43.18.95.27,1.99.27,3.12v9.39h-3.87v-8.79c0-1.75-.21-3.01-.64-3.79s-1.25-1.17-2.46-1.17c-.62,0-1.2.1-1.76.3-.55.2-.97.4-1.25.59.17.53.29,1.1.35,1.69.06.6.1,1.24.1,1.92v9.23h-3.87v-8.79Z"></path>
      <path d="m213.24,52.88c0,.73-.23,1.3-.7,1.73-.47.43-1.02.64-1.66.64s-1.23-.21-1.69-.64c-.47-.43-.7-1-.7-1.73s.23-1.33.7-1.76c.47-.43,1.03-.64,1.69-.64s1.19.21,1.66.64c.47.43.7,1.01.7,1.76Zm-.42,21.6h-3.87v-16.71h3.87v16.71Z"></path>
      <path d="m217.33,58.31c.75-.21,1.71-.42,2.91-.61,1.19-.19,2.51-.29,3.96-.29,1.36,0,2.5.19,3.42.56.92.37,1.65.89,2.19,1.57.54.67.93,1.48,1.15,2.43s.33,1.99.33,3.12v9.39h-3.87v-8.79c0-.89-.06-1.66-.18-2.29-.12-.63-.31-1.14-.57-1.53-.27-.39-.63-.68-1.09-.86-.46-.18-1.02-.27-1.68-.27-.49,0-1,.03-1.53.1-.53.06-.93.12-1.18.16v13.48h-3.87v-16.17Z"></path>
      <path d="m239.92,52.88c0,.73-.23,1.3-.7,1.73-.47.43-1.02.64-1.66.64s-1.23-.21-1.69-.64c-.47-.43-.7-1-.7-1.73s.23-1.33.7-1.76c.47-.43,1.03-.64,1.69-.64s1.19.21,1.66.64c.47.43.7,1.01.7,1.76Zm-.42,21.6h-3.87v-16.71h3.87v16.71Z"></path>
      <path d="m251.23,52.34h4.03v22.14h-4.03v-22.14Z"></path>
      <path d="m259.95,58.31c.75-.21,1.71-.42,2.91-.61,1.19-.19,2.51-.29,3.96-.29,1.36,0,2.5.19,3.42.56.92.37,1.65.89,2.19,1.57.54.67.93,1.48,1.15,2.43s.33,1.99.33,3.12v9.39h-3.87v-8.79c0-.89-.06-1.66-.18-2.29-.12-.63-.31-1.14-.57-1.53-.27-.39-.63-.68-1.09-.86-.46-.18-1.02-.27-1.68-.27-.49,0-1,.03-1.53.1-.53.06-.93.12-1.18.16v13.48h-3.87v-16.17Z"></path>
      <path d="m282.09,74.48c-1.07-2.19-2.17-4.71-3.29-7.56-1.12-2.84-2.14-5.9-3.06-9.16h4.12c.23.94.51,1.94.82,3.02.31,1.08.64,2.15.99,3.23.35,1.08.72,2.12,1.09,3.13.37,1.01.72,1.92,1.04,2.73.32-.81.66-1.72,1.03-2.73.36-1.01.72-2.06,1.07-3.13s.69-2.15,1.01-3.23c.32-1.07.6-2.08.83-3.02h4c-.92,3.26-1.94,6.31-3.06,9.16-1.12,2.84-2.22,5.36-3.29,7.56h-3.31Z"></path>
      <path d="m292.86,66.2c0-1.47.22-2.76.66-3.87.44-1.11,1.02-2.03,1.74-2.76.72-.73,1.55-1.29,2.49-1.66.94-.37,1.9-.56,2.88-.56,2.3,0,4.1.71,5.38,2.14,1.29,1.43,1.93,3.56,1.93,6.39,0,.21,0,.45-.02.72-.01.27-.03.51-.05.72h-11.02c.11,1.34.58,2.38,1.42,3.12s2.06,1.1,3.66,1.1c.94,0,1.79-.09,2.57-.26.78-.17,1.39-.35,1.84-.54l.51,3.16c-.21.11-.51.22-.88.34-.37.12-.8.22-1.28.32-.48.1-1,.18-1.55.24-.55.06-1.12.1-1.69.1-1.47,0-2.75-.22-3.83-.66-1.09-.44-1.98-1.04-2.68-1.82-.7-.78-1.23-1.69-1.57-2.75s-.51-2.21-.51-3.47Zm11.22-1.73c0-.53-.08-1.04-.22-1.52-.15-.48-.37-.89-.66-1.25s-.64-.63-1.05-.83c-.41-.2-.91-.3-1.49-.3s-1.12.11-1.57.34c-.45.22-.83.52-1.13.88-.31.36-.55.78-.72,1.25-.17.47-.29.95-.35,1.44h7.19Z"></path>
      <path d="m311.62,58.31c.75-.21,1.71-.42,2.91-.61,1.19-.19,2.51-.29,3.96-.29,1.36,0,2.5.19,3.42.56.92.37,1.65.89,2.19,1.57.54.67.93,1.48,1.15,2.43s.33,1.99.33,3.12v9.39h-3.87v-8.79c0-.89-.06-1.66-.18-2.29-.12-.63-.31-1.14-.57-1.53-.27-.39-.63-.68-1.09-.86-.46-.18-1.02-.27-1.68-.27-.49,0-1,.03-1.53.1-.53.06-.93.12-1.18.16v13.48h-3.87v-16.17Z"></path>
      <path d="m329.71,53.36l3.87-.64v5.05h5.94v3.23h-5.94v6.81c0,1.34.21,2.3.64,2.88.43.58,1.15.86,2.17.86.7,0,1.33-.07,1.87-.22.54-.15.97-.29,1.29-.41l.64,3.07c-.45.19-1.03.39-1.76.59-.73.2-1.58.3-2.56.3-1.19,0-2.19-.16-2.99-.48-.8-.32-1.43-.78-1.9-1.39-.47-.61-.8-1.34-.99-2.2s-.29-1.85-.29-2.96v-14.47Z"></path>
    </g>
    <g>
      <path d="m7.71,56c2.56,0,4.53.49,5.91,1.46,1.38.97,2.07,2.43,2.07,4.35,0,1.05-.19,1.95-.57,2.7-.38.75-.92,1.35-1.63,1.82-.71.47-1.57.8-2.59,1.01-1.02.21-2.17.32-3.45.32h-2.03v6.76h-2.55v-17.97c.72-.18,1.52-.29,2.41-.36.89-.06,1.7-.09,2.43-.09Zm.21,2.24c-1.09,0-1.92.03-2.5.08v7.16h1.92c.88,0,1.67-.06,2.37-.17.7-.11,1.29-.31,1.78-.58.48-.27.85-.64,1.12-1.12.26-.47.39-1.08.39-1.82s-.14-1.28-.41-1.74c-.27-.46-.64-.82-1.11-1.09-.47-.27-1-.46-1.62-.57-.61-.11-1.26-.16-1.95-.16Z"></path>
      <path d="m22.63,60.39c.98,0,1.81.13,2.49.38s1.22.61,1.63,1.08c.41.47.71,1.02.88,1.66.17.64.26,1.35.26,2.12v8.55c-.21.03-.5.08-.88.15s-.8.12-1.28.17-.99.1-1.54.15c-.55.04-1.1.07-1.64.07-.77,0-1.48-.08-2.13-.24s-1.21-.41-1.68-.75c-.47-.34-.84-.79-1.11-1.35s-.39-1.24-.39-2.03.15-1.4.46-1.95c.31-.54.72-.98,1.25-1.32s1.14-.58,1.84-.74,1.44-.24,2.21-.24c.25,0,.5.01.76.04.26.03.51.06.75.1.24.04.44.08.62.12.18.04.3.06.37.08v-.68c0-.4-.04-.8-.13-1.2-.09-.39-.25-.75-.47-1.05-.23-.31-.54-.55-.93-.74-.39-.18-.91-.28-1.54-.28-.81,0-1.51.06-2.12.17s-1.06.23-1.36.36l-.29-2.03c.32-.14.84-.28,1.58-.41s1.54-.2,2.39-.2Zm.21,12.26c.58,0,1.09-.01,1.54-.04s.82-.07,1.12-.15v-4.08c-.18-.09-.46-.16-.86-.22-.39-.06-.87-.09-1.43-.09-.37,0-.76.03-1.17.08-.41.05-.79.16-1.13.33-.34.17-.63.4-.85.68-.23.29-.34.67-.34,1.14,0,.88.28,1.49.84,1.83.56.34,1.32.51,2.29.51Z"></path>
      <path d="m37,60.44c.21,0,.45.01.72.04.27.03.54.06.8.11.26.04.5.09.72.13.22.04.38.08.49.12l-.42,2.13c-.19-.07-.51-.15-.96-.25-.45-.1-1.02-.14-1.72-.14-.46,0-.91.05-1.36.14-.45.1-.74.16-.88.2v11.5h-2.45v-13.11c.58-.21,1.3-.41,2.16-.59.86-.18,1.82-.28,2.89-.28Z"></path>
      <path d="m44.39,60.73h5.18v2.05h-5.18v6.32c0,.68.05,1.25.16,1.7.11.45.26.8.47,1.05.21.26.47.44.79.54.32.11.68.16,1.11.16.74,0,1.33-.08,1.78-.25s.76-.29.93-.36l.47,2.03c-.25.12-.68.28-1.29.46-.61.18-1.32.28-2.1.28-.93,0-1.7-.12-2.3-.36s-1.09-.59-1.46-1.07c-.37-.47-.63-1.06-.78-1.75-.15-.69-.22-1.5-.22-2.41v-12.21l2.45-.42v4.24Z"></path>
      <path d="m70.84,67.57c0,1.09-.16,2.07-.47,2.95-.32.88-.76,1.63-1.33,2.26s-1.25,1.12-2.04,1.46c-.79.34-1.65.51-2.58.51s-1.79-.17-2.58-.51c-.79-.34-1.47-.83-2.04-1.46-.57-.63-1.01-1.38-1.33-2.26-.32-.88-.47-1.86-.47-2.95s.16-2.05.47-2.93c.32-.89.76-1.64,1.33-2.28.57-.63,1.25-1.12,2.04-1.46.79-.34,1.65-.51,2.58-.51s1.79.17,2.58.51c.79.34,1.47.83,2.04,1.46s1.01,1.39,1.33,2.28c.32.89.47,1.86.47,2.93Zm-2.55,0c0-1.54-.35-2.77-1.04-3.67-.69-.9-1.64-1.36-2.83-1.36s-2.14.45-2.83,1.36c-.69.9-1.04,2.13-1.04,3.67s.35,2.77,1.04,3.67c.69.9,1.64,1.36,2.83,1.36s2.14-.45,2.83-1.36c.69-.9,1.04-2.13,1.04-3.67Z"></path>
      <path d="m79.63,54c.72,0,1.34.05,1.86.16.52.1.88.2,1.09.29l-.45,2.11c-.21-.11-.51-.21-.89-.3s-.86-.15-1.42-.15c-1.14,0-1.94.31-2.4.93-.46.62-.68,1.46-.68,2.51v1.18h5.26v2.05h-5.26v11.63h-2.45v-14.92c0-1.75.43-3.11,1.29-4.07.86-.96,2.21-1.43,4.05-1.43Z"></path>
    </g>
  </g>
  <g>
    <path d="m341.61,19.2c0-3.14-.71-8.65-.71-8.65h-4.53s.46,5.31.46,8.65c0,7.1-4.64,12.85-11.73,12.85s-11.73-5.75-11.73-12.85c0-3.34.46-8.65.46-8.65h-4.53s-.71,5.51-.71,8.65c0,8.01,4.6,14.77,11.65,16.91-2.28,2.4-4.32,3.64-6.5,3.64-2.45,0-4.51-.98-6.28-2.94l-2.26,2.78c2.21,2.6,5.16,4.04,8.59,4.04,3.95,0,7.12-1.85,11.3-5.9.38-.39.68-.69.91-.93,9.24-.48,15.59-8.17,15.59-17.6"></path>
    <path d="m65.19,23.89c0,5.55-3.12,8.57-7.99,8.57-4.43,0-6.97-2.53-6.97-7.6v-14.32h-4.68v14.86c0,7.6,4.43,11.25,11.11,11.25,3.65,0,6.87-1.51,8.77-4.19v3.9h4.43V10.55h-4.68v13.35Z"></path>
    <path d="m129.44,10.3c-4.09,0-7.4,1.51-9.3,4.14v-3.9h-4.48v25.82h4.68v-13.3c0-5.6,3.21-8.57,8.18-8.57,4.43,0,6.97,2.48,6.97,7.55v14.32h4.68v-14.86c0-7.6-4.43-11.2-10.72-11.2"></path>
    <path d="m207.81,10.3c-4.38,0-7.99,1.85-9.94,4.77-1.7-3.21-5.02-4.77-8.96-4.77s-7.06,1.46-8.91,4.09v-3.85h-4.48v25.82h4.68v-13.3c0-5.6,3.07-8.57,7.74-8.57,4.24,0,6.67,2.48,6.67,7.55v14.32h4.68v-13.3c0-5.6,3.07-8.57,7.74-8.57,4.24,0,6.67,2.48,6.67,7.55v14.32h4.68v-14.86c0-7.6-4.29-11.2-10.57-11.2"></path>
    <path d="m291.95,14.88v-4.34h-4.48v25.82h4.68v-12.86c0-5.65,3.12-8.72,8.13-8.72.34,0,.68,0,1.07.05v-4.53c-4.53,0-7.75,1.56-9.4,4.58"></path>
    <path d="m161.5,32.71c-2.58,0-4.04-1.56-4.04-4.34v-13.98h7.4v-3.85h-7.4v-5.65h-4.68v5.65h-4.38v3.85h4.38v14.17c0,5.21,2.97,8.09,8.18,8.09,2.09,0,4.24-.58,5.65-1.8l-1.46-3.36c-.97.78-2.29,1.22-3.65,1.22"></path>
    <path d="m240.25,10.3c-7.45,0-12.96,5.5-12.96,13.15s5.55,13.2,13.88,13.2c4.29,0,7.84-1.46,10.18-4.19l-2.58-3.02h0c-1.9,2.09-4.43,3.12-7.45,3.12-5.11,0-8.77-3.02-9.35-7.55h20.95c.05-.44.1-1.02.1-1.41,0-7.94-5.31-13.3-12.76-13.3m-8.28,11.35c.49-4.38,3.8-7.4,8.28-7.4s7.79,3.07,8.28,7.4h-16.56Z"></path>
    <path d="m273.45,32.71c-2.58,0-4.04-1.56-4.04-4.34v-13.98h7.4v-3.85h-7.4v-5.65h-4.68v5.65h-4.38v3.85h4.38v14.17c0,5.21,2.97,8.09,8.18,8.09,2.09,0,4.24-.58,5.65-1.8l-1.46-3.36c-.97.78-2.29,1.22-3.65,1.22"></path>
    <path d="m99.71,14.6c-2.14-2.78-5.2-4.3-8.85-4.3-7.55,0-12.9,5.26-12.9,13.15s5.35,13.2,12.9,13.2c3.8,0,6.95-1.62,9.05-4.54v4.25h4.48V10.55h-4.68v4.05Zm-8.46,17.96c-4.97,0-8.56-3.6-8.56-9.11s3.59-9.06,8.56-9.06,8.51,3.56,8.51,9.06-3.59,9.11-8.51,9.11"></path>
    <path d="m30.42,39.75c-2.18,0-4.21-1.23-6.48-3.62,7.36-2.11,12.75-8.89,12.75-16.93,0-9.73-7.89-17.62-17.62-17.62S1.45,9.46,1.45,19.2s7.4,17.12,16.71,17.6c.24.24.53.54.91.93,4.19,4.05,7.36,5.9,11.3,5.9,3.43,0,6.38-1.44,8.59-4.04l-2.26-2.78c-1.77,1.96-3.83,2.94-6.28,2.94M6.22,19.2c0-7.1,5.75-12.85,12.85-12.85s12.85,5.75,12.85,12.85-5.75,12.85-12.85,12.85-12.85-5.75-12.85-12.85"></path>
  </g>
</svg>
