<svg width="225" height="64" viewBox="0 0 225 64" fill="none" xmlns="http://www.w3.org/2000/svg">
<g clip-path="url(#clip0_48_3096)">
<path d="M38.3064 0.127878L0 17.8674L9.54479 54.1918L16.8089 53.2997L14.8116 30.4601L17.1968 29.3977L21.3155 52.7451L33.7301 51.221L31.5232 26.0117L33.8852 24.9609L38.415 50.647L50.9732 49.1034L48.557 21.4703L50.9459 20.4075L55.8988 48.4986L68.3132 46.9741V7.64409L38.3064 0.127878ZM39.2064 55.2194L39.8385 58.7953L68.3132 63.5423V51.6437L39.2217 55.2194H39.2064V55.2194ZM95.2445 47.7653V52.6637H101.283C101.284 53.6573 101.027 54.6338 100.538 55.4987C100.027 56.3605 99.2713 57.0506 98.3664 57.4808C97.2847 57.9748 96.1038 58.2137 94.9147 58.1786C93.542 58.2168 92.1898 57.8381 91.0365 57.0925C89.9098 56.3109 89.0407 55.212 88.5386 53.9357C87.913 52.3397 87.6138 50.6348 87.6585 48.921C87.6126 47.2207 87.9188 45.5293 88.5579 43.9528C89.0807 42.6967 89.9563 41.619 91.079 40.8505C92.2109 40.1153 93.5383 39.7397 94.8875 39.7721C95.5899 39.766 96.2898 39.8587 96.9662 40.0477C97.5683 40.22 98.1364 40.4941 98.6457 40.8581C99.1294 41.2066 99.547 41.6388 99.8789 42.1341C100.226 42.6637 100.488 43.2449 100.655 43.8562H107.353C107.177 42.4505 106.721 41.0943 106.011 39.8691C105.304 38.6598 104.377 37.5942 103.276 36.7276C102.124 35.8266 100.823 35.1322 99.4329 34.676C97.9231 34.1847 96.3436 33.9409 94.7556 33.9547C92.898 33.9391 91.0546 34.2814 89.3261 34.9627C87.6655 35.6244 86.1638 36.6303 84.9202 37.9145C83.6191 39.2713 82.6141 40.8841 81.9686 42.6496C81.232 44.6932 80.8731 46.8539 80.9098 49.0257C80.9098 52.113 81.4969 54.7749 82.6707 57.0115C83.7806 59.1655 85.4901 60.9527 87.5924 62.158C91.9124 64.4628 97.0693 64.5837 101.492 62.4835C103.38 61.5263 104.951 60.045 106.018 58.2174C107.117 56.3586 107.665 54.1349 107.663 51.5468V47.7613L95.2445 47.7653L95.2445 47.7653ZM178.64 63.5928V34.3346H198.679V39.7489H185.253V46.2488H196.108V51.663H185.253V58.1786H198.711V63.5928H178.64ZM218.133 42.9213C218.074 41.9038 217.572 40.9627 216.76 40.346C215.95 39.7293 214.821 39.423 213.39 39.423C212.563 39.3955 211.739 39.5271 210.962 39.811C210.376 40.0245 209.862 40.398 209.477 40.8893C209.143 41.3375 208.963 41.8814 208.961 42.4404C208.943 42.8861 209.049 43.3275 209.268 43.7164C209.498 44.1027 209.817 44.4286 210.198 44.6666C210.646 44.9566 211.128 45.19 211.633 45.361C212.222 45.5663 212.823 45.7355 213.433 45.8688L216.004 46.466C217.264 46.7343 218.493 47.1348 219.669 47.6606C220.69 48.1155 221.632 48.728 222.462 49.4757C223.221 50.1677 223.827 51.012 224.238 51.9539C224.668 52.9702 224.881 54.0657 224.862 55.1689C224.906 56.8395 224.426 58.4817 223.489 59.8657C222.5 61.2402 221.132 62.2978 219.553 62.9103C217.584 63.6705 215.484 64.0342 213.374 63.9807C211.233 64.0263 209.104 63.6561 207.103 62.8907C205.419 62.2366 203.97 61.0906 202.946 59.602C201.956 58.1385 201.439 56.313 201.394 54.1257H207.767C207.783 55.8557 208.874 57.3929 210.501 57.9809C211.397 58.3214 212.35 58.4872 213.309 58.4695C214.188 58.4888 215.064 58.3453 215.892 58.0467C216.546 57.816 217.125 57.4144 217.571 56.8833C217.964 56.3895 218.179 55.7771 218.18 55.1459C218.186 54.5797 217.99 54.0303 217.629 53.5946C217.186 53.1112 216.636 52.738 216.024 52.5046C215.158 52.1522 214.264 51.8744 213.351 51.6746L210.222 50.9184C207.726 50.3237 205.758 49.3851 204.315 48.103C202.872 46.8203 202.156 45.0829 202.166 42.8904C202.12 41.2081 202.628 39.5567 203.609 38.1896C204.637 36.7995 206.021 35.7128 207.615 35.0444C209.454 34.2646 211.436 33.88 213.433 33.9158C215.42 33.8712 217.394 34.2563 219.219 35.0444C220.769 35.7186 222.1 36.812 223.063 38.2012C223.988 39.5931 224.474 41.2307 224.459 42.902L218.133 42.9213ZM173.924 63.5928H167.382V41.3504L166.71 41.3427L160.102 63.5928H153.563L147.133 41.3427L146.299 41.3504V63.5928H139.756V34.3346H150.875L156.491 53.9434H157.17L162.785 34.3346H173.924V63.5928ZM129.455 63.5928H136.541L126.717 34.3383H117.739L107.9 63.5928H114.997L116.909 57.1782H127.543L129.455 63.5928ZM118.429 52.0742L121.617 41.3504H122.819L126.023 52.0742H118.429ZM109.528 0.399228H116.141V29.6574H109.528V0.399228ZM147.544 15.0281C147.544 18.2394 146.935 20.9545 145.717 23.1727C144.586 25.3145 142.864 27.087 140.757 28.2807C136.356 30.6284 131.075 30.6284 126.674 28.2807C124.566 27.0827 122.845 25.3062 121.714 23.1611C120.496 20.9221 119.887 18.2073 119.887 15.0168C119.887 11.8261 120.496 9.10487 121.714 6.85267C122.843 4.71764 124.559 2.94941 126.659 1.75661C131.061 -0.585537 136.339 -0.585537 140.741 1.75661C142.849 2.95002 144.57 4.72254 145.702 6.8643C146.919 9.09845 147.528 11.8196 147.528 15.0281M140.799 15.0281C140.85 13.3067 140.556 11.5926 139.935 9.98655C139.443 8.73104 138.589 7.65082 137.48 6.88388C135.166 5.46164 132.249 5.46164 129.936 6.88388C128.826 7.65144 127.969 8.73104 127.473 9.98655C126.307 13.2465 126.307 16.8102 127.473 20.0701C127.967 21.3265 128.825 22.4067 129.936 23.1727C132.249 24.595 135.166 24.595 137.48 23.1727C138.589 22.4073 139.444 21.3265 139.935 20.0701C140.555 18.4637 140.849 16.7496 140.799 15.0281ZM95.6324 19.4573L99.0297 29.6574H106.286L102.509 18.6702H97.3777L97.0711 17.7236C98.0482 17.5337 99.7201 17.2391 101.202 16.2307C103.308 14.7975 104.576 12.4217 104.595 9.87397C104.639 8.14061 104.202 6.42867 103.331 4.92903C102.48 3.47712 101.216 2.31095 99.7005 1.57826C97.9237 0.755632 95.9799 0.357023 94.0226 0.41484H82.221V29.6574H88.8375V19.4573H95.6324V19.4573ZM95.5082 13.4034C94.6075 13.7344 93.6515 13.8898 92.6925 13.8608H88.8375V5.77063H92.6808C93.6408 5.74309 94.5965 5.90646 95.4926 6.25153C96.2011 6.5336 96.7998 7.03684 97.199 7.68662C97.6062 8.3416 97.8087 9.10335 97.7809 9.87397C97.8124 10.6333 97.6123 11.384 97.2067 12.0264C96.8056 12.6582 96.209 13.1415 95.5082 13.4034M148.168 0.399228V5.82906H159.532L159.842 6.77895C158.88 6.96526 157.255 7.25221 155.797 8.21403V29.6653H162.339V5.81346H169.949V0.383629L148.168 0.399228Z" fill="#E4142C"/>
</g>
<defs>
<clipPath id="clip0_48_3096">
<rect width="224.865" height="64" fill="white"/>
</clipPath>
</defs>
</svg>
