<svg width="262" height="65" viewBox="0 0 262 65" fill="none" xmlns="http://www.w3.org/2000/svg">
<g clip-path="url(#clip0_48_3176)">
<path d="M33.5556 20.3725C33.0326 21.5679 32.2293 22.517 31.1694 23.1931C30.2336 23.7906 29.1904 24.1129 28.069 24.1523C27.6092 24.1637 27.1912 23.79 27.1755 23.305C27.1589 22.8208 27.5322 22.4139 28.01 22.3975C28.8218 22.3688 29.5757 22.1361 30.2498 21.707C31.0132 21.2194 31.5941 20.5302 31.9755 19.6592C32.2015 19.1457 32.1636 18.5736 31.8724 18.0885C31.5858 17.61 31.1092 17.318 30.5662 17.2861C29.3995 17.2188 28.4346 17.5747 27.6754 18.345C26.4482 19.5906 25.9474 21.8139 25.7336 22.763C25.5495 23.5773 23.5071 32.3808 22.6815 35.94C22.552 36.5001 22.0656 36.8925 21.4976 36.8925H21.4968C20.9295 36.8925 20.4425 36.5001 20.3118 35.94L20.0138 34.6535C19.0762 30.6116 17.4263 23.4913 17.2622 22.7693C17.0467 21.8138 16.546 19.5906 15.318 18.3443C14.5591 17.5746 13.5858 17.2197 12.4286 17.2861C11.8842 17.318 11.4082 17.6101 11.121 18.0885C10.8311 18.5727 10.793 19.1457 11.0179 19.6592C11.4001 20.5302 11.9818 21.2194 12.7446 21.707C13.4189 22.1361 14.1724 22.3688 14.9847 22.3975C15.4622 22.414 15.8353 22.8208 15.8189 23.305C15.8031 23.79 15.3924 24.1659 14.9252 24.1523C13.8037 24.1129 12.7608 23.7907 11.8249 23.1931C10.7652 22.5177 9.96225 21.5686 9.43804 20.3725C8.98531 19.339 9.06309 18.1435 9.6451 17.1744C10.2234 16.2111 11.2272 15.5975 12.3296 15.533C13.9849 15.4332 15.4353 15.9804 16.5412 17.1031C18.1205 18.7057 18.7 21.2749 18.9472 22.3708C19.1002 23.0483 20.543 29.2749 21.4971 33.3869C22.4512 29.2742 23.8944 23.0497 24.0459 22.3765C24.2945 21.2749 24.8739 18.7057 26.4532 17.1031C27.5595 15.9796 29.0149 15.4346 30.6649 15.533C31.7679 15.5975 32.7711 16.2111 33.3502 17.1751C33.9318 18.1443 34.0088 19.3396 33.5556 20.3725ZM25.8246 6.49023C24.6657 6.49023 23.4853 6.6908 22.3181 7.08592C21.7863 7.26593 21.2076 7.26594 20.6768 7.08661C19.5089 6.6909 18.3289 6.49033 17.1697 6.49033C10.5149 6.49033 4.89258 13.243 4.89258 21.2372C4.89258 30.1361 11.5982 37.9934 21.199 40.342C21.3927 40.39 21.6015 40.39 21.7953 40.342C31.396 37.9933 38.1014 30.1361 38.1014 21.2372C38.1014 13.2429 32.4793 6.49023 25.8246 6.49023Z" fill="#00263E"/>
<path d="M22.2012 42.0505C21.9722 42.1065 21.7357 42.1358 21.4979 42.1358C21.2605 42.1358 21.0244 42.1065 20.7949 42.0505C10.4141 39.5107 3.16379 30.9513 3.16379 21.2389C3.16379 12.2935 9.57866 4.73619 17.1707 4.73619C18.5161 4.73619 19.8806 4.9675 21.225 5.42266C21.4012 5.48211 21.5943 5.48211 21.7719 5.42237C23.1164 4.9675 24.4797 4.73619 25.8256 4.73619C33.4176 4.73619 39.832 12.2935 39.832 21.2389C39.8319 30.9512 32.582 39.5107 22.2012 42.0505ZM38.8145 39.6382C38.8145 40.1217 38.4274 40.5155 37.9504 40.5155C37.4727 40.5155 37.0856 40.1217 37.0856 39.6382V38.4126C37.0856 37.927 37.4727 37.5353 37.9504 37.5353C38.4274 37.5353 38.8145 37.927 38.8145 38.4126V39.6382ZM38.8145 45.2042C38.8145 45.6891 38.4274 46.0831 37.9504 46.0831C37.4727 46.0831 37.0856 45.6891 37.0856 45.2042V43.9786C37.0856 43.4945 37.4727 43.1027 37.9504 43.1027C38.4274 43.1027 38.8145 43.4945 38.8145 43.9786V45.2042ZM33.3306 47.9883C33.3306 48.4725 32.9426 48.8657 32.4656 48.8657C31.9886 48.8657 31.6015 48.4725 31.6015 47.9883V46.7628C31.6015 46.2793 31.9886 45.8853 32.4656 45.8853C32.9426 45.8853 33.3306 46.2793 33.3306 46.7628V47.9883ZM33.3306 53.5545C33.3306 54.0414 32.9426 54.4334 32.4656 54.4334C31.9886 54.4334 31.6015 54.0415 31.6015 53.5545V52.3311C31.6015 51.8455 31.9886 51.453 32.4656 51.453C32.9426 51.453 33.3306 51.8455 33.3306 52.3311V53.5545ZM27.8465 50.7717C27.8465 51.2568 27.4594 51.6493 26.9823 51.6493C26.5045 51.6493 26.1171 51.2568 26.1171 50.7717V49.5477C26.1171 49.062 26.5045 48.6688 26.9823 48.6688C27.4594 48.6688 27.8465 49.062 27.8465 49.5477V50.7717ZM27.8465 56.3393C27.8465 56.8242 27.4594 57.2167 26.9823 57.2167C26.5045 57.2167 26.1171 56.8242 26.1171 56.3393V55.1137C26.1171 54.6296 26.5045 54.2362 26.9823 54.2362C27.4594 54.2362 27.8465 54.6296 27.8465 55.1137V56.3393ZM22.3631 47.9883C22.3631 48.4725 21.9757 48.8657 21.4979 48.8657C21.0204 48.8657 20.6333 48.4725 20.6333 47.9883V46.7628C20.6333 46.2793 21.0204 45.8853 21.4979 45.8853C21.9757 45.8853 22.3631 46.2793 22.3631 46.7628V47.9883ZM22.3631 53.5545C22.3631 54.0414 21.9757 54.4334 21.4979 54.4334C21.0204 54.4334 20.6333 54.0415 20.6333 53.5545V52.3311C20.6333 51.8455 21.0204 51.453 21.4979 51.453C21.9757 51.453 22.3631 51.8455 22.3631 52.3311V53.5545ZM16.8787 50.7717C16.8787 51.2568 16.4917 51.6493 16.0145 51.6493C15.5372 51.6493 15.1497 51.2568 15.1497 50.7717V49.5477C15.1497 49.062 15.5372 48.6688 16.0145 48.6688C16.4917 48.6688 16.8787 49.062 16.8787 49.5477V50.7717ZM16.8787 56.3393C16.8787 56.8242 16.4917 57.2167 16.0145 57.2167C15.5372 57.2167 15.1497 56.8242 15.1497 56.3393V55.1137C15.1497 54.6296 15.5372 54.2362 16.0145 54.2362C16.4917 54.2362 16.8787 54.6296 16.8787 55.1137V56.3393ZM11.395 47.9883C11.395 48.4725 11.0076 48.8657 10.5297 48.8657C10.0523 48.8657 9.66517 48.4725 9.66517 47.9883V46.7628C9.66517 46.2793 10.0523 45.8853 10.5297 45.8853C11.0076 45.8853 11.395 46.2793 11.395 46.7628V47.9883ZM11.395 53.5545C11.395 54.0414 11.0076 54.4334 10.5297 54.4334C10.0523 54.4334 9.66517 54.0415 9.66517 53.5545V52.3311C9.66517 51.8455 10.0523 51.453 10.5297 51.453C11.0076 51.453 11.395 51.8455 11.395 52.3311V53.5545ZM5.91054 39.6382C5.91054 40.1217 5.52337 40.5155 5.04639 40.5155C4.56903 40.5155 4.18157 40.1217 4.18157 39.6382V38.4126C4.18157 37.927 4.56903 37.5353 5.04639 37.5353C5.52337 37.5353 5.91054 37.927 5.91054 38.4126V39.6382ZM5.91054 45.2042C5.91054 45.6891 5.52337 46.0831 5.04639 46.0831C4.56903 46.0831 4.18157 45.6891 4.18157 45.2042V43.9786C4.18157 43.4945 4.56903 43.1027 5.04639 43.1027C5.52337 43.1027 5.91054 43.4945 5.91054 43.9786V45.2042ZM21.4979 0.261719C9.62512 0.261719 0 10.0329 0 22.0861V40.9424C0 52.9944 9.62512 62.7662 21.4979 62.7662C33.3714 62.7662 42.9962 52.9944 42.9962 40.9424V22.0861C42.9962 10.0329 33.3713 0.261719 21.4979 0.261719Z" fill="#00263E"/>
<path d="M67.8244 30.5547C63.8858 29.5489 62.2642 28.9329 62.2642 26.6925C62.2642 25.0715 63.7315 23.8353 66.2802 23.8353C68.9053 23.8353 70.5269 24.9169 71.7635 26.5384L74.9305 23.9113C72.9213 21.2875 70.2182 19.8193 66.2032 19.8193C61.1826 19.8193 57.8608 22.6765 57.8608 26.8465C57.8608 31.3274 60.8737 33.257 65.894 34.648C70.2962 35.8836 72.0726 36.8103 72.0726 39.0516C72.0726 41.1336 70.2182 42.4481 66.9756 42.4481C63.5761 42.4481 61.0277 40.9046 59.4835 38.3547L56.0859 40.7477C58.4019 44.3025 62.1087 46.4635 66.9756 46.4635C72.9986 46.4635 76.6286 43.6071 76.6286 38.8181C76.6287 34.1832 73.2309 31.9433 67.8244 30.5547Z" fill="#00263E"/>
<path d="M94.5443 42.2928C89.524 42.2928 86.2034 38.5101 86.2034 33.1806C86.2034 27.7741 89.524 23.9909 94.5443 23.9909C99.4873 23.9909 102.73 27.7741 102.73 33.1806C102.73 38.5101 99.4873 42.2928 94.5443 42.2928ZM102.576 24.7623C100.799 21.5963 97.7875 19.8193 93.6166 19.8193C86.5886 19.8193 81.2598 25.5344 81.2598 33.1806C81.2598 40.7477 86.5886 46.4635 93.6166 46.4635C97.7875 46.4635 100.799 44.6872 102.576 41.5214V45.847H107.287V20.4375H102.576V24.7623Z" fill="#00263E"/>
<path d="M144.047 19.8193C139.954 19.8193 137.097 21.3651 135.088 24.5303C133.544 21.365 130.842 19.8193 127.442 19.8193C123.966 19.8193 121.264 21.2878 119.873 23.9135V20.439H115.162V45.8478H119.873V31.2503C119.873 26.616 122.268 24.069 126.44 24.069C130.067 24.069 131.845 26.2298 131.845 30.2459V45.8477H136.555V31.0962C136.555 26.6159 138.874 24.0689 143.121 24.0689C146.672 24.0689 148.526 26.1518 148.526 30.1699V45.8476H153.238V29.629C153.238 23.4494 149.377 19.8193 144.047 19.8193Z" fill="#00263E"/>
<path d="M170.225 30.5547C166.285 29.5489 164.663 28.9329 164.663 26.6925C164.663 25.0715 166.131 23.8353 168.679 23.8353C171.305 23.8353 172.927 24.9169 174.163 26.5384L177.33 23.9113C175.321 21.2875 172.617 19.8193 168.602 19.8193C163.581 19.8193 160.261 22.6765 160.261 26.8465C160.261 31.3274 163.273 33.257 168.294 34.648C172.696 35.8836 174.472 36.8103 174.472 39.0516C174.472 41.1336 172.617 42.4481 169.374 42.4481C165.975 42.4481 163.428 40.9046 161.884 38.3547L158.486 40.7477C160.802 44.3025 164.509 46.4635 169.374 46.4635C175.399 46.4635 179.029 43.6071 179.029 38.8181C179.029 34.1832 175.631 31.9433 170.225 30.5547Z" fill="#00263E"/>
<path d="M196.942 42.2928C191.922 42.2928 188.601 38.5101 188.601 33.1806C188.601 27.7741 191.922 23.9909 196.942 23.9909C201.886 23.9909 205.128 27.7741 205.128 33.1806C205.128 38.5101 201.886 42.2928 196.942 42.2928ZM204.974 24.7623C203.199 21.5963 200.186 19.8193 196.017 19.8193C188.987 19.8193 183.658 25.5344 183.658 33.1806C183.658 40.7477 188.987 46.4635 196.017 46.4635C200.186 46.4635 203.199 44.6872 204.974 41.5214V45.847H209.686V20.4375H204.974V24.7623Z" fill="#00263E"/>
<path d="M247.847 42.2928C242.827 42.2928 239.506 38.5101 239.506 33.1806C239.506 27.7741 242.827 23.9909 247.847 23.9909C252.791 23.9909 256.033 27.7741 256.033 33.1806C256.033 38.5101 252.791 42.2928 247.847 42.2928ZM255.879 20.4374V24.7623C254.103 21.5963 251.09 19.8193 246.922 19.8193C239.892 19.8193 234.562 25.5344 234.562 33.1806C234.562 40.7477 239.891 46.4635 246.922 46.4635C251.09 46.4635 254.103 44.6872 255.879 41.5214V45.847H260.59V20.4375H255.879V20.4374Z" fill="#00263E"/>
<path d="M222.273 26.3071V20.4389H217.562V45.8469H222.273V32.6139L232.702 23.3448L229.571 19.8193L222.273 26.3071Z" fill="#00263E"/>
</g>
<defs>
<clipPath id="clip0_48_3176">
<rect width="261.486" height="64" fill="white" transform="translate(0 0.261719)"/>
</clipPath>
</defs>
</svg>
