<svg width="284" height="65" viewBox="0 0 284 65" fill="none" xmlns="http://www.w3.org/2000/svg">
<g clip-path="url(#clip0_48_3156)">
<path d="M6.13283 31.8945C7.15374 33.1268 8.44372 34.1086 9.90356 34.7642C11.3634 35.4198 12.9542 35.7319 14.5535 35.6763C15.8205 35.7434 17.0873 35.5423 18.2712 35.0861C19.4551 34.6299 20.5294 33.9289 21.4237 33.029C22.2392 32.1969 22.8819 31.2115 23.3146 30.1297C23.7473 29.0479 23.9615 27.8911 23.9448 26.7261C23.9993 25.6186 23.8096 24.5126 23.3892 23.4866C22.9687 22.4606 22.3278 21.5395 21.5119 20.7887C20.1174 19.4443 18.2676 18.6746 16.331 18.6331C15.5711 18.6561 14.8154 18.7533 14.0745 18.9233C13.486 19.0947 12.8823 19.2087 12.2719 19.2635C10.9356 19.2635 10.2675 18.4567 10.2675 16.8431C10.2675 14.1287 11.6205 11.7966 14.3266 9.84693C15.0995 9.29131 15.9127 8.7941 16.7595 8.35943C19.4038 7.21531 22.2616 6.64801 25.1424 6.69542C30.9593 6.60368 36.6693 8.264 41.53 11.4605L37.95 16.6037L42.9166 19.8811L49.6481 10.2755L47.4799 8.57367C41.1521 3.46796 33.2344 0.742533 25.1046 0.871568C11.9945 0.871568 2.83008 8.91405 2.83008 20.4358V20.5868C2.83008 20.8012 2.83008 21.028 2.83008 21.2549C2.84437 25.7805 3.98985 29.3605 6.13283 31.8943V31.8945Z" fill="#1E7B85"/>
<path d="M40.0174 28.8798C38.7504 28.8127 37.4836 29.0137 36.2997 29.4699C35.1158 29.9261 34.0415 30.6271 33.1472 31.5271C32.3316 32.3592 31.689 33.3446 31.2562 34.4264C30.8235 35.5082 30.6094 36.6649 30.626 37.83C30.5787 38.9322 30.7731 40.0313 31.1956 41.0505C31.618 42.0696 32.2583 42.984 33.0715 43.7295C34.4739 45.1071 36.3501 45.8963 38.3156 45.9355C39.0754 45.9129 39.8311 45.8159 40.572 45.6458C41.1604 45.4743 41.7642 45.3604 42.3747 45.3057C43.7109 45.3057 44.379 46.1124 44.379 47.726C44.3797 48.2943 44.3162 48.861 44.1899 49.4151C41.9712 54.8609 36.2607 57.9871 28.0165 57.9871C21.1083 58.0135 14.3773 55.8023 8.83053 51.6842L13.3182 46.4402L8.57837 42.7845L0.498047 52.3523L2.55278 54.1928C9.54471 60.4201 18.5905 63.8454 27.9535 63.811C29.0124 63.811 30.0335 63.811 31.0294 63.6724C36.4448 63.4811 41.6353 61.4592 45.753 57.9368C49.6776 54.3987 51.6399 49.5118 51.6399 43.2761C51.6399 38.7548 50.5726 35.2252 48.438 32.6872C47.4196 31.4503 46.1307 30.4638 44.6707 29.8038C43.2108 29.1437 41.6187 28.8278 40.0174 28.8803L40.0174 28.8798Z" fill="#1E7B85"/>
<path d="M199.859 15.644H196.141V48.5453H199.859V15.644Z" fill="#00293F"/>
<path d="M233.178 31.54C234.739 30.9669 236.081 29.9197 237.017 28.5453C237.953 27.1709 238.435 25.5381 238.397 23.8757C238.397 18.8333 234.161 15.644 227.682 15.644H213.664V48.5453H228.287C235.485 48.5453 240.225 45.2047 240.225 39.5194C240.225 34.9057 237.073 32.7123 233.178 31.54ZM217.32 18.9846H227.404C232.106 18.9846 234.691 21.1023 234.691 24.3924C234.691 28.3003 231.59 30.3173 227.127 30.3173H217.32V18.972V18.9846ZM228.362 45.2173H217.32V33.6452H227.707C233.443 33.6452 236.455 35.7125 236.455 39.3304C236.455 42.9483 233.367 45.2173 228.388 45.2173H228.362Z" fill="#00293F"/>
<path d="M131.07 45.6851C123.834 45.6851 118.325 39.7099 118.325 32.0582C118.325 24.4064 123.783 18.5196 131.07 18.5196C133.008 18.5321 134.924 18.9387 136.701 19.7144C138.478 20.4902 140.079 21.619 141.406 23.0324L143.928 20.3096C142.27 18.5941 140.272 17.2438 138.062 16.3451C135.852 15.4465 133.479 15.0192 131.095 15.0907C121.413 15.0907 114.455 22.7551 114.455 32.1591C114.455 41.563 121.514 49.1139 130.981 49.1139C133.473 49.1713 135.947 48.6844 138.231 47.6872C140.515 46.6901 142.553 45.2067 144.205 43.3404L141.684 40.9453C138.545 43.9455 135.582 45.6851 131.07 45.6851Z" fill="#00293F"/>
<path d="M93.8813 30.3178C86.633 28.7672 84.9564 27.0276 84.9564 23.8762C84.9564 20.7247 87.6667 18.5187 91.9526 18.5187C95.4436 18.523 98.8152 19.7901 101.445 22.0861L103.613 19.2246C100.388 16.5006 96.2731 15.06 92.0535 15.1781C85.7505 15.1781 81.2377 18.9599 81.2377 24.2039C81.2377 29.4479 84.7169 32.1077 92.2804 33.7465C99.1884 35.2088 100.84 36.9484 100.84 40.0494C100.84 43.39 97.9278 45.6968 93.5032 45.6968C91.3965 45.724 89.306 45.3261 87.3566 44.5269C85.4073 43.7276 83.6391 42.5435 82.1579 41.0452L79.9141 43.7303C83.5395 47.1754 88.3634 49.0743 93.3644 49.0248C99.8943 49.0248 104.596 45.3565 104.596 39.6712C104.596 34.5911 101.205 31.9187 93.8813 30.3178Z" fill="#00293F"/>
<path d="M181.153 25.4782C181.153 19.5534 176.501 15.6582 169.253 15.6582H155.109V48.5595H158.828V35.7645H168.232L177.775 48.5468H182.338L172.253 35.0964C177.396 34.1762 181.153 30.9743 181.153 25.4782ZM158.828 32.3861V19.0744H168.988C174.295 19.0744 177.409 21.5199 177.409 25.6042C177.409 29.6885 173.867 32.3861 168.925 32.3861H158.841H158.828Z" fill="#00293F"/>
<path d="M266.19 15.644H254.77V48.5453H266.19C276.527 48.5453 283.675 41.3473 283.675 32.0442C283.675 22.7411 276.565 15.644 266.19 15.644ZM266.19 45.1165H258.476V19.0728H266.19C274.51 19.0728 279.817 24.8085 279.817 32.1451C279.817 39.4817 274.51 45.1165 266.19 45.1165Z" fill="#00293F"/>
</g>
<defs>
<clipPath id="clip0_48_3156">
<rect width="283.676" height="64" fill="white" transform="translate(0 0.5625)"/>
</clipPath>
</defs>
</svg>
