<svg fill="none" xmlns="http://www.w3.org/2000/svg" width="179" height="20">
    <path fill-rule="evenodd" clip-rule="evenodd"
        d="M31.72.2c1.21 0 2.19 1 2.19 2.23a2.2 2.2 0 0 1-2.19 2.22H19.26V17.8a2.2 2.2 0 0 1-2.18 2.22c-1.2 0-2.18-1-2.18-2.22V4.65H2.43c-1.2 0-2.18-1-2.18-2.22A2.2 2.2 0 0 1 2.43.21h29.3Zm144.43.03a2.2 2.2 0 0 1 2.4 2.2v13.35c0 1.28-.54 2.53-1.54 3.3a3.85 3.85 0 0 1-4.26.34L149.34 5.75a.87.87 0 0 0-1.3.78V17.8a2.2 2.2 0 0 1-2.4 2.2c-1.14-.1-1.97-1.14-1.97-2.3V4.35c0-1.28.54-2.53 1.54-3.3a3.86 3.86 0 0 1 4.16-.4l.1.06 23.4 13.66a.87.87 0 0 0 1.32-.77V2.54c0-1.16.83-2.2 1.96-2.31ZM88.9.55c.9-.8 2.28-.72 3.08.2.8.92.71 2.33-.2 3.14a32.23 32.23 0 0 1-9.8 6.11 32.21 32.21 0 0 1 9.8 6.11c.91.82 1 2.22.2 3.14a2.16 2.16 0 0 1-3.08.2c-8.42-7.56-17.12-7.13-19-6.94v5.2a2.2 2.2 0 0 1-2.19 2.23c-1.2 0-2.18-1-2.18-2.22V2.43A2.2 2.2 0 0 1 67.71.21c1.2 0 2.18 1 2.18 2.22v5.06c.83.08 2.97.2 5.8-.3 4.83-.88 9.28-3.1 13.21-6.64ZM59.74.21c1.2 0 2.18 1 2.18 2.22a2.2 2.2 0 0 1-2.04 2.22H45.66a5.38 5.38 0 0 0-5.33 5.42 5.38 5.38 0 0 0 5.14 5.42h14.27c1.2 0 2.18 1 2.18 2.23a2.2 2.2 0 0 1-2.04 2.21H45.66a9.78 9.78 0 0 1-9.7-9.86c0-5.36 4.22-9.73 9.46-9.86h14.32ZM98.7.2c1.2 0 2.18 1 2.18 2.22v15.29a2.2 2.2 0 0 1-2.18 2.22c-1.2 0-2.18-1-2.18-2.22V2.43A2.2 2.2 0 0 1 98.7.21Zm32.18 0a9.24 9.24 0 0 1 9.16 9.31v1.1c0 5.14-4.1 9.32-9.16 9.32h-16.8a9.24 9.24 0 0 1-9.14-9.31v-1.1c0-5.14 4.1-9.32 9.15-9.32h16.8Zm0 4.44h-16.8a4.83 4.83 0 0 0-4.78 4.87v1.1a4.83 4.83 0 0 0 4.79 4.88h16.8a4.83 4.83 0 0 0 4.78-4.87v-1.1a4.83 4.83 0 0 0-4.78-4.88ZM57.9 7.85c1.2 0 2.18 1 2.18 2.22a2.2 2.2 0 0 1-2.05 2.22H45.68c-1.21 0-2.19-1-2.19-2.22 0-1.18.9-2.14 2.05-2.21H57.9Z"
        fill="#05DEBA"></path>
</svg>