<svg width="300" height="38" viewBox="0 0 300 38" fill="none" xmlns="http://www.w3.org/2000/svg">
<path d="M55.4932 32.7429C50.9825 32.7429 48.7482 30.1678 48.7482 25.8712V14.5278H44.6663V10.1002H48.7482V4.43152L54.1198 3.09851V10.1002H59.7495V14.5278H54.1197V25.3959C54.1197 27.1165 54.893 27.8475 56.6101 27.8475C57.7276 27.8475 58.6313 27.804 60.0929 27.631V32.1441C58.5882 32.5292 57.0848 32.7429 55.4932 32.7429Z" fill="black"/>
<path d="M76.1592 32.4446V18.6519C76.1592 16.0752 75.3014 14.4852 72.4665 14.4852C69.2395 14.4852 67.8678 17.9217 67.8678 20.6715V32.4446H62.4972V1.42529H67.8678V12.4646C69.1582 10.574 71.6482 9.54273 73.9668 9.54273C78.7375 9.54273 81.532 12.9372 81.532 17.5369V32.4446H76.1592Z" fill="black"/>
<path d="M104.6 22.9489H89.6501C89.6084 24.6663 90.2077 26.2998 91.2797 27.33C92.0515 28.0609 93.1281 28.7073 94.5897 28.7073C96.1358 28.7073 97.0805 28.4055 97.8577 27.6304C98.326 27.1584 98.7146 26.5581 98.9292 25.7404H104.083C103.955 27.0744 103.054 28.8371 102.193 29.8668C100.307 32.0995 97.5107 33.0016 94.6779 33.0016C91.6267 33.0016 89.3889 31.9288 87.6294 30.2512C85.3961 28.1042 84.1921 24.9675 84.1921 21.3178C84.1921 17.7483 85.2659 14.572 87.4151 12.3774C89.0906 10.6615 91.495 9.54321 94.5455 9.54321C97.8577 9.54321 100.863 10.8756 102.707 13.6671C104.342 16.1165 104.728 18.6517 104.644 21.4448C104.644 21.4448 104.6 22.4784 104.6 22.9489ZM97.8989 15.1307C97.1674 14.3558 96.0497 13.8397 94.5016 13.8397C92.8694 13.8397 91.5408 14.5272 90.7632 15.5599C89.9948 16.5468 89.6499 17.5791 89.6081 19.038H99.2733C99.2325 17.364 98.7572 16.0743 97.8989 15.1307Z" fill="black"/>
<path d="M115.9 7.13681V32.4442H110.358V7.13681H101.336V1.98169H124.921V7.13681H115.9Z" fill="black"/>
<path d="M134.109 14.8707C130.332 14.8707 128.353 17.5786 128.353 21.188V32.4447H122.943V10.1009H127.496L127.967 13.4539C128.998 10.8765 131.66 9.8031 134.284 9.8031C134.841 9.8031 135.401 9.84596 135.959 9.93093V15.0864C135.358 14.957 134.713 14.8707 134.109 14.8707Z" fill="black"/>
<path d="M154.13 32.7875C151.811 32.7875 150.523 31.3262 150.35 29.6527C149.319 31.4555 146.741 33.0021 143.562 33.0021C138.236 33.0021 135.484 29.6527 135.484 25.9992C135.484 21.7459 138.793 19.2986 143.046 18.9983L149.622 18.5217V17.1491C149.622 15.0424 148.888 13.6275 145.839 13.6275C143.346 13.6275 141.886 14.7426 141.757 16.805H136.559C136.858 11.7745 140.854 9.5437 145.839 9.5437C149.664 9.5437 152.929 10.7475 154.217 14.0979C154.775 15.5168 154.863 17.1064 154.863 18.6095V26.9016C154.863 27.9324 155.206 28.3204 156.109 28.3204C156.451 28.3204 156.796 28.2333 156.796 28.2333V32.1848C155.893 32.5742 155.421 32.7875 154.13 32.7875ZM149.623 22.5182L143.948 22.9491C142.316 23.0778 140.727 24.0675 140.727 25.8712C140.727 27.5891 142.23 28.6627 143.905 28.6627C147.258 28.6627 149.623 26.859 149.623 23.5503V22.5182Z" fill="black"/>
<path d="M173.808 32.4447L173.466 29.9964C172.132 32.0584 169.64 32.96 167.192 32.96C164.957 32.96 163.111 32.183 161.736 31.0715C159.07 28.8788 157.782 25.5271 157.782 21.3181C157.782 16.9332 159.113 13.541 161.777 11.3471C163.152 10.2321 164.957 9.54345 167.235 9.54345C170.072 9.54345 172.132 10.4891 173.079 11.6474V1.42468H178.447V32.4447H173.808ZM168.267 14.0569C166.593 14.0569 165.429 14.8271 164.658 15.8166C163.54 17.2781 163.241 19.2986 163.241 21.2338C163.241 23.1635 163.54 25.225 164.658 26.6863C165.429 27.6728 166.593 28.4476 168.267 28.4476C172.476 28.4476 173.337 24.4508 173.337 21.2338C173.337 18.0063 172.476 14.0569 168.267 14.0569Z" fill="black"/>
<path d="M201.863 22.9492H186.912C186.869 24.6666 187.471 26.3 188.545 27.3302C189.315 28.0611 190.391 28.7075 191.851 28.7075C193.399 28.7075 194.343 28.4058 195.118 27.6306C195.589 27.1586 195.977 26.5583 196.189 25.7406H201.348C201.217 27.0747 200.314 28.8373 199.459 29.867C197.568 32.0998 194.775 33.0018 191.937 33.0018C188.888 33.0018 186.654 31.9291 184.892 30.2514C182.657 28.1044 181.456 24.9677 181.456 21.3181C181.456 17.7485 182.527 14.5722 184.678 12.3776C186.354 10.6617 188.758 9.54346 191.808 9.54346C195.118 9.54346 198.126 10.8759 199.972 13.6673C201.605 16.1167 201.99 18.6519 201.906 21.445C201.906 21.445 201.863 22.4786 201.863 22.9492ZM195.162 15.131C194.43 14.356 193.313 13.84 191.764 13.84C190.133 13.84 188.802 14.5274 188.03 15.5602C187.254 16.5471 186.912 17.5793 186.869 19.0382H196.534C196.491 17.3643 196.019 16.0746 195.162 15.131Z" fill="black"/>
<path d="M225.406 29.1788C223.386 31.2856 220.336 32.4434 216.855 32.4434H204.999V1.98303H216.855C220.336 1.98303 223.386 3.14077 225.406 5.24756C228.54 8.47012 228.972 12.9827 228.972 17.1936C228.972 21.404 228.54 25.955 225.406 29.1788ZM221.152 8.68412C220.122 7.65362 218.617 6.96495 216.855 6.96495H210.541V27.4595H216.855C218.617 27.4595 220.122 26.7734 221.152 25.7407C223.3 23.5923 223.342 19.985 223.342 17.1935C223.342 14.3976 223.3 10.8311 221.152 8.68412Z" fill="black"/>
<path d="M250.881 22.9492H235.929C235.886 24.6666 236.487 26.3 237.564 27.3302C238.337 28.0611 239.408 28.7075 240.871 28.7075C242.418 28.7075 243.363 28.4058 244.137 27.6306C244.61 27.1586 244.994 26.5583 245.211 25.7406H250.365C250.237 27.0747 249.334 28.8373 248.474 29.867C246.585 32.0998 243.792 33.0018 240.955 33.0018C237.903 33.0018 235.672 31.9291 233.907 30.2514C231.675 28.1044 230.472 24.9677 230.472 21.3181C230.472 17.7485 231.547 14.5722 233.693 12.3776C235.369 10.6617 237.777 9.54346 240.826 9.54346C244.136 9.54346 247.142 10.8759 248.991 13.6673C250.622 16.1167 251.01 18.6519 250.924 21.445C250.924 21.445 250.881 22.4786 250.881 22.9492ZM244.18 15.131C243.448 14.356 242.33 13.84 240.786 13.84C239.153 13.84 237.819 14.5274 237.046 15.5602C236.273 16.5471 235.929 17.5793 235.886 19.0382H245.553C245.511 17.3643 245.037 16.0746 244.18 15.131Z" fill="black"/>
<path d="M274.038 1.42529V32.4446H279.407V26.5592L282.973 22.6935L289.245 32.4446H295.475L286.625 18.74L294.616 10.1003H287.872L279.407 19.1687V1.42529H274.038Z" fill="black"/>
<path d="M265.058 19.2104C262.865 18.8675 262.306 18.8253 260.288 18.5644C259.084 18.3937 257.711 17.9219 257.711 16.3345C257.711 15.1709 258.485 14.3561 259.429 13.9667C260.247 13.6274 260.977 13.6274 261.747 13.6274C262.865 13.6274 264.028 14.0123 264.67 14.6579C265.187 15.2167 265.573 15.9046 265.573 16.7626H270.683C270.683 15.1311 269.915 13.4541 268.709 12.1623C267.077 10.4029 264.37 9.54285 261.706 9.54285C258.914 9.54285 256.551 10.3614 254.919 11.7742C253.587 12.9386 252.644 14.5276 252.644 16.8062C252.644 19.6404 254.704 22.1329 257.756 22.7786C259.73 23.2078 261.963 23.336 263.939 23.6368C265.318 23.8527 266.176 24.7134 266.176 25.9984C266.176 28.4467 263.425 28.8374 261.62 28.8374C260.075 28.8374 259.084 28.5315 258.228 27.8477C257.652 27.3813 257.219 26.5534 257.082 25.7189H252.027C252.181 27.6158 253.171 29.2763 254.36 30.4246C256.208 32.1829 258.742 33.002 261.58 33.002C264.63 33.002 267.421 32.2319 269.225 30.4246C270.385 29.2656 271.159 27.6727 271.159 25.5272C271.159 22.0038 268.583 19.7696 265.058 19.2104Z" fill="black"/>
<path d="M8.80371 0V5.77271H14.7077V20.8386H20.3901V5.68241V0H8.80371Z" fill="#0099FA"/>
<path d="M5.68478 19.4986C5.68478 15.0047 8.18202 11.0942 11.8645 9.08079L3.43256 9.0802C1.27611 11.9937 0 15.5957 0 19.4986C0 27.2426 5.01665 33.8132 11.9759 36.1429V29.9753C8.23286 27.9787 5.68478 24.0375 5.68478 19.4986Z" fill="#0099FA"/>
<path d="M23.2346 2.89478V9.0795C26.9178 11.0939 29.418 15.0038 29.418 19.4994C29.418 26.0508 24.1031 31.3643 17.5497 31.3643C16.5722 31.3643 15.6226 31.2454 14.714 31.023V36.8196C15.6378 36.9684 16.5839 37.0487 17.5497 37.0487C27.2417 37.0487 35.0998 29.1913 35.0998 19.4996C35.0997 11.7958 30.1365 5.25679 23.2346 2.89478Z" fill="#0099FA"/>
<path d="M297.932 11.4476C296.746 11.4476 295.864 10.5197 295.864 9.34541C295.864 8.17112 296.746 7.23743 297.932 7.23743C299.118 7.23743 300 8.16551 300 9.33964C300 10.5141 299.118 11.4476 297.932 11.4476ZM297.932 7.60408C296.918 7.60408 296.248 8.34285 296.248 9.34541C296.248 10.3478 296.918 11.081 297.932 11.081C298.946 11.081 299.616 10.3422 299.616 9.33964C299.616 8.33738 298.946 7.60408 297.932 7.60408ZM298.396 10.4052L298.029 9.59752H297.6V10.4052H297.216V8.21147H298.023C298.441 8.21147 298.802 8.45191 298.802 8.89881C298.802 9.18521 298.676 9.41442 298.407 9.53457L298.814 10.4053L298.396 10.4052ZM298.023 8.56629H297.594V9.2424H298.023C298.253 9.2424 298.402 9.13925 298.402 8.89866C298.402 8.67521 298.23 8.56629 298.023 8.56629Z" fill="#231F20"/>
</svg>
