<svg width="352" height="59" viewBox="0 0 352 59" fill="none" xmlns="http://www.w3.org/2000/svg">
<g clip-path="url(#clip0_48_3189)">
<path d="M43.2654 53.8344C38.6304 51.0124 35.2173 41.2726 35.2173 29.7017C35.2173 29.277 35.2191 28.8578 35.2302 28.4403L35.2357 28.4457C22.3463 26.4766 13.0321 21.0799 12.7943 14.6996L12.7556 14.773C9.60054 18.584 7.8 22.9899 7.8 27.6842C7.8 41.4984 23.3967 52.8167 43.1806 53.8183L43.2654 53.8344ZM1.8418 28.6929C1.8418 13.2357 21.6275 0.702637 46.0353 0.702637C70.4431 0.702637 90.2288 13.2357 90.2288 28.6929C90.2288 44.1501 70.4431 56.6832 46.0353 56.6832C21.6275 56.6832 1.8418 44.1501 1.8418 28.6929ZM46.0353 4.74118C50.7477 4.74118 54.7542 11.6895 56.2396 21.3863L56.2451 21.372C65.4119 19.9852 71.8308 16.7833 71.8308 13.0601C71.8308 8.06124 60.2812 4.01553 46.0353 4.01553C31.7894 4.01553 20.2398 8.06303 20.2398 13.0601C20.2398 16.7833 26.6569 19.9834 35.8255 21.372L35.831 21.3863C37.3164 11.6913 41.3248 4.74118 46.0353 4.74118ZM48.8882 53.8183C68.672 52.8167 84.2706 41.4984 84.2706 27.6842C84.2706 22.9899 82.4682 18.584 79.315 14.773L79.2763 14.6996C79.0385 21.0799 69.7262 26.4766 56.8349 28.4457L56.8404 28.4403C56.8496 28.8578 56.8533 29.277 56.8533 29.7017C56.8533 41.2726 53.4365 51.0124 48.8052 53.8344L48.8882 53.8183ZM46.0353 22.1066C48.1473 22.1066 50.1985 22.0188 52.1612 21.8503L52.1594 21.8521C51.1826 15.6366 48.8089 11.2505 46.0353 11.2505C43.2617 11.2505 40.8898 15.6366 39.9112 21.8521L39.9094 21.8503C41.8721 22.0188 43.9233 22.1066 46.0353 22.1066ZM46.0353 45.123C49.5829 45.123 52.4763 37.9454 52.6312 28.9438L52.6496 28.9491C50.5118 29.1409 48.3003 29.243 46.0353 29.243C43.7703 29.243 41.5588 29.1427 39.421 28.9491L39.4413 28.9438C39.5943 37.9472 42.4877 45.123 46.0353 45.123Z" fill="#FF0000"/>
<path d="M227.346 28.6878C227.346 16.8731 237.198 7.29639 249.348 7.29639C261.504 7.29639 271.355 16.8749 271.355 28.6878C271.355 40.5042 261.503 50.0791 249.348 50.0791C237.198 50.0791 227.346 40.5024 227.346 28.6878ZM249.348 42.235C256.136 42.235 261.637 36.1682 261.637 28.686C261.637 21.2055 256.136 15.137 249.348 15.137C242.565 15.137 237.065 21.2037 237.065 28.686C237.065 36.1682 242.566 42.235 249.348 42.235Z" fill="#FF0000"/>
<path d="M296.325 16.2097V49.1094H287.055V16.2097H287.086H274.121V8.77051H309.258V16.2079H296.358H296.325V16.2097Z" fill="#FF0000"/>
<path d="M320.471 40.0325L320.462 40.0414L316.905 49.1094H306.078L323.195 8.77051H328.967H334.734L351.853 49.1094H341.024L337.467 40.0414L337.458 40.0325H328.967H320.471ZM328.967 33.2239H334.8L334.797 33.2257L329.006 18.4619H328.925L323.131 33.2257L323.129 33.2239H328.967Z" fill="#FF0000"/>
<path d="M125.424 16.2097V49.1094H116.152V16.2097H116.184H103.217V8.77051H138.356V16.2079H125.455H125.424V16.2097Z" fill="#FF0000"/>
<path d="M140.729 28.6878C140.729 16.8731 150.581 7.29639 162.735 7.29639C174.887 7.29639 184.74 16.8749 184.74 28.6878C184.74 40.5042 174.887 50.0791 162.735 50.0791C150.581 50.0791 140.729 40.5024 140.729 28.6878ZM162.735 42.235C169.519 42.235 175.022 36.1682 175.022 28.686C175.022 21.2055 169.521 15.137 162.735 15.137C155.949 15.137 150.448 21.2037 150.448 28.686C150.448 36.1682 155.949 42.235 162.735 42.235Z" fill="#FF0000"/>
<path d="M206.041 49.1094H210.742V33.9818V33.7919L226.916 8.77051H216.09L206.041 25.7256L195.993 8.77051H185.164L201.339 33.7919V33.98V49.1076H206.041V49.1094Z" fill="#FF0000"/>
</g>
<defs>
<clipPath id="clip0_48_3189">
<rect width="352" height="58.3425" fill="white" transform="translate(0 0.276855)"/>
</clipPath>
</defs>
</svg>
