<svg xmlns="http://www.w3.org/2000/svg" width="46" height="40" viewBox="0 0 46 40" fill="none">
  <g clip-path="url(#clip0_716_400)">
    <path d="M30.9258 0.00585938H0.99292V25.0338L15.9594 40.0002V9.94156L30.9258 24.908V0.00585938Z" fill="white"/>
    <path d="M30.9254 25.0336L15.959 40V9.94141L30.9254 25.0336Z" fill="#C5CED4"/>
    <path d="M157.449 2.14551C151.412 2.14551 151.411 6.54642 151.411 11.1998C151.411 15.8533 151.412 20.2542 157.449 20.2542C163.486 20.2542 163.487 15.8533 163.487 11.1998C163.487 6.54642 163.486 2.14551 157.449 2.14551ZM46.1437 2.52134L41.3635 20.0036H44.886L45.8932 16.1053H50.9239L51.9286 20.0036H55.8269L51.0492 2.52134H46.1437ZM58.8458 2.52134V20.0036H65.2595C66.7687 20.0036 70.6685 19.7531 70.6685 15.3512C70.6685 12.9616 70.0402 11.3266 67.399 10.9493C69.4113 10.572 70.418 9.06081 70.418 7.04851C70.418 3.27546 68.1542 2.52134 65.3872 2.52134H58.8458ZM74.9451 2.52134V20.0036H78.3399V7.17624H78.4652L83.2454 20.0036H88.0256V2.52134H84.6283V14.5946L79.9759 2.52134H74.9451ZM102.111 2.52134L97.3304 20.0036H100.853L101.86 16.1053H106.891L107.895 20.0036H111.794L106.891 2.52134H102.111ZM114.687 2.52134V20.0036H118.21V6.5474H118.335L121.479 20.0036H124.999L128.397 6.5474V20.0036H131.917V2.52134H126.257L123.366 14.4693L120.598 2.52134H114.687ZM136.697 2.64661V20.0036H140.345V12.7081H141.349C144.116 12.7081 143.992 14.4708 143.992 16.6089C143.992 17.7408 143.865 18.8717 144.368 20.0036H147.891C147.513 19.249 147.513 15.9795 147.513 14.8476C147.513 11.7034 145.123 11.4504 144.368 11.4504C146.758 11.0731 147.638 9.44007 147.638 7.17624C147.638 4.1578 146.004 2.64662 143.489 2.64662L136.697 2.64661ZM157.449 4.91142C159.461 4.91142 159.714 6.79745 159.714 11.3251C159.714 15.8528 159.587 17.7388 157.449 17.7388C155.436 17.7388 155.184 15.8528 155.184 11.3251C155.184 6.79745 155.436 4.91142 157.449 4.91142ZM62.4936 5.16197H64.7584C66.0161 5.16197 66.8955 6.1691 66.8955 7.42679C66.8955 9.06178 65.7636 9.6916 65.009 9.6916H62.4936V5.16197ZM140.345 5.16197H141.978C143.11 5.16197 143.865 5.7918 143.865 7.42679C143.865 8.5587 143.487 9.94215 141.978 9.94215H140.345V5.16197ZM48.2808 5.91855L50.1673 13.4646H46.6473L48.2808 5.91855ZM104.248 5.91855L106.134 13.4646H102.614L104.248 5.91855ZM93.8301 7.57417L91.5186 9.88811L93.8325 12.1996L96.144 9.88566L93.8301 7.57417ZM62.4936 12.3322H64.6307C66.5172 12.3322 67.0208 13.3384 67.0208 14.8476C67.0208 17.2372 65.26 17.363 64.5054 17.363H62.4936V12.3322Z" fill="white"/>
  </g>
  <defs>
    <clipPath id="clip0_716_400">
      <rect width="162.927" height="40" fill="white" transform="translate(0.785645)"/>
    </clipPath>
  </defs>
</svg>