<svg width="1456" height="56" viewBox="0 0 1456 56" fill="none" xmlns="http://www.w3.org/2000/svg">
<rect x="0.5" y="0.5" width="1455" height="55" rx="7.5" stroke="url(#paint0_linear_479_2501)"/>
<path d="M22.96 22.8L26.896 33.84V34H24.48L23.712 31.648H19.328L18.56 34H16.256V33.84L20.176 22.8H22.96ZM19.968 29.712H23.072L21.552 25.04H21.488L19.968 29.712ZM28.1166 34V22.16H30.2606V34H28.1166ZM35.6218 34.144C33.0458 34.144 31.6058 32.256 31.6058 29.856C31.6058 27.488 32.9178 25.536 35.5898 25.536C38.0698 25.536 39.4618 27.328 39.4618 29.6V30.432H33.7978C33.8138 31.568 34.3898 32.368 35.6218 32.368C36.5818 32.368 37.0938 31.92 37.2538 31.408H39.3498C39.1258 32.912 37.7658 34.144 35.6218 34.144ZM33.8138 29.008H37.2698C37.2378 28.064 36.7098 27.328 35.5898 27.328C34.3898 27.328 33.8618 28.064 33.8138 29.008ZM40.9448 34V25.68H42.7528L42.9128 26.944H42.9768C43.3448 26.16 44.0807 25.552 45.1368 25.552H45.7448V27.536H44.9928C43.7128 27.536 42.9768 28.416 42.9768 29.92V34H40.9448ZM50.7903 34.144C48.9503 34.144 48.1823 33.088 48.1823 31.616V27.504H46.8223V25.68H48.2623V23.936L50.1663 23.488H50.3263V25.68H52.3263V27.504H50.3263V31.152C50.3263 31.936 50.6623 32.272 51.3983 32.272C51.7023 32.272 51.9583 32.224 52.1983 32.144H52.3583V33.936C52.1023 34.016 51.4943 34.144 50.7903 34.144ZM62.0403 34.144C60.2003 34.144 59.4323 33.088 59.4323 31.616V27.504H58.0723V25.68H59.5123V23.936L61.4163 23.488H61.5763V25.68H63.5763V27.504H61.5763V31.152C61.5763 31.936 61.9123 32.272 62.6483 32.272C62.9523 32.272 63.2083 32.224 63.4483 32.144H63.6083V33.936C63.3523 34.016 62.7443 34.144 62.0403 34.144ZM66.3921 24.64C65.5121 24.64 65.0641 24.144 65.0641 23.328C65.0641 22.544 65.5121 22.048 66.3921 22.048C67.2401 22.048 67.7201 22.544 67.7201 23.328C67.7201 24.144 67.2401 24.64 66.3921 24.64ZM65.3041 34V25.68H67.4481V34H65.3041ZM72.6653 34.144C70.8253 34.144 70.0573 33.088 70.0573 31.616V27.504H68.6973V25.68H70.1373V23.936L72.0413 23.488H72.2013V25.68H74.2013V27.504H72.2013V31.152C72.2013 31.936 72.5373 32.272 73.2733 32.272C73.5773 32.272 73.8333 32.224 74.0733 32.144H74.2333V33.936C73.9773 34.016 73.3693 34.144 72.6653 34.144ZM75.9291 34V22.16H78.0731V34H75.9291ZM83.4343 34.144C80.8583 34.144 79.4183 32.256 79.4183 29.856C79.4183 27.488 80.7303 25.536 83.4023 25.536C85.8823 25.536 87.2743 27.328 87.2743 29.6V30.432H81.6103C81.6263 31.568 82.2023 32.368 83.4343 32.368C84.3943 32.368 84.9063 31.92 85.0663 31.408H87.1623C86.9383 32.912 85.5783 34.144 83.4343 34.144ZM81.6263 29.008H85.0823C85.0503 28.064 84.5223 27.328 83.4023 27.328C82.2023 27.328 81.6743 28.064 81.6263 29.008Z" fill="#43C9ED"/>
<path d="M141.696 34.144C139.072 34.144 137.44 32.624 137.44 30.048V22.8H138.832V30.016C138.832 31.744 139.776 32.864 141.696 32.864C143.648 32.864 144.576 31.744 144.576 30.016V22.8H145.984V30.048C145.984 32.624 144.368 34.144 141.696 34.144ZM151.566 34.144C149.63 34.144 148.27 33.088 148.222 31.296H149.566C149.566 32.384 150.398 32.944 151.566 32.944C152.718 32.944 153.438 32.56 153.438 31.776C153.438 31.232 153.07 30.8 152.19 30.608L150.558 30.304C149.214 30.032 148.478 29.216 148.478 28.016C148.478 26.656 149.646 25.68 151.454 25.68C153.294 25.68 154.606 26.688 154.606 28.32H153.294C153.246 27.28 152.478 26.816 151.454 26.816C150.462 26.816 149.774 27.216 149.774 28.016C149.774 28.656 150.302 29.024 151.198 29.168L152.478 29.408C154.014 29.76 154.798 30.368 154.798 31.776C154.798 33.28 153.326 34.144 151.566 34.144ZM160.106 34.144C157.69 34.144 156.394 32.32 156.394 29.92C156.394 27.552 157.562 25.68 160.09 25.68C162.394 25.68 163.626 27.392 163.626 29.664V30.32H157.802C157.802 31.872 158.586 32.944 160.106 32.944C161.178 32.944 161.946 32.496 162.17 31.632H163.514C163.29 33.136 161.85 34.144 160.106 34.144ZM157.818 29.2H162.234C162.234 27.904 161.546 26.88 160.09 26.88C158.554 26.88 157.866 27.92 157.818 29.2ZM173.379 34.144C171.763 34.144 171.219 33.312 171.219 31.952V26.96H169.859V25.824H171.251V24.08L172.403 23.632H172.563V25.824H174.563V26.96H172.563V31.84C172.563 32.624 172.899 32.96 173.635 32.96C174.019 32.96 174.259 32.912 174.435 32.864H174.595V34.016C174.339 34.08 173.891 34.144 173.379 34.144ZM176.753 34V22.16H178.097V27.104H178.161C178.593 26.272 179.393 25.68 180.657 25.68C182.465 25.68 183.553 26.816 183.553 28.688V34H182.209V28.896C182.209 27.616 181.585 26.88 180.289 26.88C178.961 26.88 178.097 27.872 178.097 29.52V34H176.753ZM186.94 24.256C186.316 24.256 186.012 23.888 186.012 23.312C186.012 22.752 186.316 22.384 186.94 22.384C187.548 22.384 187.868 22.752 187.868 23.312C187.868 23.888 187.548 24.256 186.94 24.256ZM186.268 34V25.824H187.612V34H186.268ZM193.035 34.144C191.099 34.144 189.739 33.088 189.691 31.296H191.035C191.035 32.384 191.867 32.944 193.035 32.944C194.187 32.944 194.907 32.56 194.907 31.776C194.907 31.232 194.539 30.8 193.659 30.608L192.027 30.304C190.683 30.032 189.947 29.216 189.947 28.016C189.947 26.656 191.115 25.68 192.923 25.68C194.763 25.68 196.075 26.688 196.075 28.32H194.763C194.715 27.28 193.947 26.816 192.923 26.816C191.931 26.816 191.243 27.216 191.243 28.016C191.243 28.656 191.771 29.024 192.667 29.168L193.947 29.408C195.483 29.76 196.267 30.368 196.267 31.776C196.267 33.28 194.795 34.144 193.035 34.144ZM206.019 34.144C204.403 34.144 203.859 33.312 203.859 31.952V26.96H202.499V25.824H203.891V24.08L205.043 23.632H205.203V25.824H207.203V26.96H205.203V31.84C205.203 32.624 205.539 32.96 206.275 32.96C206.659 32.96 206.899 32.912 207.075 32.864H207.235V34.016C206.979 34.08 206.531 34.144 206.019 34.144ZM212.465 34.144C210.049 34.144 208.753 32.32 208.753 29.92C208.753 27.552 209.921 25.68 212.449 25.68C214.753 25.68 215.985 27.392 215.985 29.664V30.32H210.161C210.161 31.872 210.945 32.944 212.465 32.944C213.537 32.944 214.305 32.496 214.529 31.632H215.873C215.649 33.136 214.209 34.144 212.465 34.144ZM210.177 29.2H214.593C214.593 27.904 213.905 26.88 212.449 26.88C210.913 26.88 210.225 27.92 210.177 29.2ZM216.785 34V33.84L219.649 29.888L216.881 25.984V25.824H218.321L220.481 28.976H220.545L222.689 25.824H224.145V25.984L221.361 29.856L224.193 33.84V34H222.785L220.545 30.768H220.481L218.209 34H216.785ZM228.519 34.144C226.903 34.144 226.359 33.312 226.359 31.952V26.96H224.999V25.824H226.391V24.08L227.543 23.632H227.703V25.824H229.703V26.96H227.703V31.84C227.703 32.624 228.039 32.96 228.775 32.96C229.159 32.96 229.399 32.912 229.575 32.864H229.735V34.016C229.479 34.08 229.031 34.144 228.519 34.144ZM238.898 34.144C237.122 34.144 236.05 33.04 236.05 31.616C236.05 30.24 237.026 29.056 239.426 29.056C240.29 29.056 240.93 29.2 241.442 29.344V28.528C241.442 27.616 240.882 26.832 239.554 26.832C238.354 26.832 237.762 27.504 237.746 28.288H236.45C236.45 26.72 237.762 25.68 239.554 25.68C241.65 25.68 242.754 26.944 242.754 28.496V34H241.618L241.522 32.848H241.458C240.962 33.68 240.05 34.144 238.898 34.144ZM239.138 33.024C240.53 33.024 241.442 32.016 241.442 30.832V30.416C240.77 30.208 240.146 30.128 239.426 30.128C238.098 30.128 237.41 30.64 237.41 31.6C237.41 32.416 237.954 33.024 239.138 33.024ZM245.471 34V25.824H246.639L246.751 27.2H246.815C247.151 26.288 247.967 25.728 248.975 25.728H249.711V27.024H249.071C247.519 27.024 246.815 28.112 246.815 30.032V34H245.471ZM254.465 34.144C252.049 34.144 250.753 32.32 250.753 29.92C250.753 27.552 251.921 25.68 254.449 25.68C256.753 25.68 257.985 27.392 257.985 29.664V30.32H252.161C252.161 31.872 252.945 32.944 254.465 32.944C255.537 32.944 256.305 32.496 256.529 31.632H257.873C257.649 33.136 256.209 34.144 254.465 34.144ZM252.177 29.2H256.593C256.593 27.904 255.905 26.88 254.449 26.88C252.913 26.88 252.225 27.92 252.177 29.2ZM262.429 34.144C260.653 34.144 259.581 33.04 259.581 31.616C259.581 30.24 260.557 29.056 262.957 29.056C263.821 29.056 264.461 29.2 264.973 29.344V28.528C264.973 27.616 264.413 26.832 263.085 26.832C261.885 26.832 261.293 27.504 261.277 28.288H259.981C259.981 26.72 261.293 25.68 263.085 25.68C265.181 25.68 266.285 26.944 266.285 28.496V34H265.149L265.053 32.848H264.989C264.493 33.68 263.581 34.144 262.429 34.144ZM262.669 33.024C264.061 33.024 264.973 32.016 264.973 30.832V30.416C264.301 30.208 263.677 30.128 262.957 30.128C261.629 30.128 260.941 30.64 260.941 31.6C260.941 32.416 261.485 33.024 262.669 33.024ZM276.519 34.144C274.903 34.144 274.359 33.312 274.359 31.952V26.96H272.999V25.824H274.391V24.08L275.543 23.632H275.703V25.824H277.703V26.96H275.703V31.84C275.703 32.624 276.039 32.96 276.775 32.96C277.159 32.96 277.399 32.912 277.575 32.864H277.735V34.016C277.479 34.08 277.031 34.144 276.519 34.144ZM282.949 34.144C280.389 34.144 279.253 32.272 279.253 29.92C279.253 27.568 280.421 25.68 282.949 25.68C285.477 25.68 286.645 27.568 286.645 29.92C286.645 32.256 285.509 34.144 282.949 34.144ZM282.949 32.944C284.613 32.944 285.285 31.68 285.285 29.92C285.285 28.16 284.613 26.88 282.949 26.88C281.285 26.88 280.613 28.176 280.613 29.92C280.613 31.68 281.301 32.944 282.949 32.944ZM293.674 37.664V25.824H294.842L295.018 26.96H295.082C295.514 26.24 296.33 25.68 297.546 25.68C299.69 25.68 301.002 27.28 301.018 29.92C301.002 32.336 299.85 34.144 297.546 34.144C296.33 34.144 295.514 33.584 295.082 32.864H295.018V37.664H293.674ZM297.322 32.944C299.018 32.944 299.658 31.552 299.658 29.92C299.658 28.272 299.018 26.88 297.322 26.88C295.69 26.88 294.986 28.288 294.986 29.92C294.986 31.536 295.69 32.944 297.322 32.944ZM303.253 34V25.824H304.421L304.533 27.2H304.597C304.933 26.288 305.749 25.728 306.757 25.728H307.493V27.024H306.853C305.301 27.024 304.597 28.112 304.597 30.032V34H303.253ZM312.23 34.144C309.67 34.144 308.534 32.272 308.534 29.92C308.534 27.568 309.702 25.68 312.23 25.68C314.758 25.68 315.926 27.568 315.926 29.92C315.926 32.256 314.79 34.144 312.23 34.144ZM312.23 32.944C313.894 32.944 314.566 31.68 314.566 29.92C314.566 28.16 313.894 26.88 312.23 26.88C310.566 26.88 309.894 28.176 309.894 29.92C309.894 31.68 310.582 32.944 312.23 32.944ZM320.02 34L316.804 25.984V25.824H318.196L320.708 32.432H320.772L323.188 25.824H324.58V25.984L321.412 34H320.02ZM327.018 24.256C326.394 24.256 326.09 23.888 326.09 23.312C326.09 22.752 326.394 22.384 327.018 22.384C327.626 22.384 327.946 22.752 327.946 23.312C327.946 23.888 327.626 24.256 327.018 24.256ZM326.346 34V25.824H327.69V34H326.346ZM333.241 34.144C331.097 34.144 329.785 32.544 329.769 29.904C329.785 27.488 330.937 25.68 333.241 25.68C334.457 25.68 335.273 26.24 335.705 26.96H335.769V22.16H337.113V34H335.945L335.769 32.864H335.705C335.273 33.584 334.457 34.144 333.241 34.144ZM333.465 32.944C335.097 32.944 335.801 31.536 335.801 29.904C335.801 28.288 335.097 26.88 333.465 26.88C331.769 26.88 331.129 28.272 331.129 29.904C331.129 31.552 331.769 32.944 333.465 32.944ZM342.903 34.144C340.487 34.144 339.191 32.32 339.191 29.92C339.191 27.552 340.359 25.68 342.887 25.68C345.191 25.68 346.423 27.392 346.423 29.664V30.32H340.599C340.599 31.872 341.383 32.944 342.903 32.944C343.975 32.944 344.743 32.496 344.967 31.632H346.311C346.087 33.136 344.647 34.144 342.903 34.144ZM340.615 29.2H345.031C345.031 27.904 344.343 26.88 342.887 26.88C341.351 26.88 340.663 27.92 340.615 29.2ZM355.664 34.144C353.888 34.144 352.816 33.04 352.816 31.616C352.816 30.24 353.792 29.056 356.192 29.056C357.056 29.056 357.696 29.2 358.208 29.344V28.528C358.208 27.616 357.648 26.832 356.32 26.832C355.12 26.832 354.528 27.504 354.512 28.288H353.216C353.216 26.72 354.528 25.68 356.32 25.68C358.416 25.68 359.52 26.944 359.52 28.496V34H358.384L358.288 32.848H358.224C357.728 33.68 356.816 34.144 355.664 34.144ZM355.904 33.024C357.296 33.024 358.208 32.016 358.208 30.832V30.416C357.536 30.208 356.912 30.128 356.192 30.128C354.864 30.128 354.176 30.64 354.176 31.6C354.176 32.416 354.72 33.024 355.904 33.024ZM369.738 34.144C367.802 34.144 366.442 33.088 366.394 31.296H367.738C367.738 32.384 368.57 32.944 369.738 32.944C370.89 32.944 371.61 32.56 371.61 31.776C371.61 31.232 371.242 30.8 370.362 30.608L368.73 30.304C367.386 30.032 366.65 29.216 366.65 28.016C366.65 26.656 367.818 25.68 369.626 25.68C371.466 25.68 372.778 26.688 372.778 28.32H371.466C371.418 27.28 370.65 26.816 369.626 26.816C368.634 26.816 367.946 27.216 367.946 28.016C367.946 28.656 368.474 29.024 369.37 29.168L370.65 29.408C372.186 29.76 372.97 30.368 372.97 31.776C372.97 33.28 371.498 34.144 369.738 34.144ZM375.206 34V22.16H376.55V27.104H376.614C377.046 26.272 377.846 25.68 379.11 25.68C380.918 25.68 382.006 26.816 382.006 28.688V34H380.662V28.896C380.662 27.616 380.038 26.88 378.742 26.88C377.414 26.88 376.55 27.872 376.55 29.52V34H375.206ZM387.777 34.144C385.217 34.144 384.081 32.272 384.081 29.92C384.081 27.568 385.249 25.68 387.777 25.68C390.305 25.68 391.473 27.568 391.473 29.92C391.473 32.256 390.337 34.144 387.777 34.144ZM387.777 32.944C389.441 32.944 390.113 31.68 390.113 29.92C390.113 28.16 389.441 26.88 387.777 26.88C386.113 26.88 385.441 28.176 385.441 29.92C385.441 31.68 386.129 32.944 387.777 32.944ZM393.706 34V25.824H394.874L394.986 27.2H395.05C395.386 26.288 396.202 25.728 397.21 25.728H397.946V27.024H397.306C395.754 27.024 395.05 28.112 395.05 30.032V34H393.706ZM402.66 34.144C401.044 34.144 400.5 33.312 400.5 31.952V26.96H399.14V25.824H400.532V24.08L401.684 23.632H401.844V25.824H403.844V26.96H401.844V31.84C401.844 32.624 402.18 32.96 402.916 32.96C403.3 32.96 403.54 32.912 403.716 32.864H403.876V34.016C403.62 34.08 403.172 34.144 402.66 34.144ZM413.535 34.144C411.599 34.144 410.239 33.088 410.191 31.296H411.535C411.535 32.384 412.367 32.944 413.535 32.944C414.687 32.944 415.407 32.56 415.407 31.776C415.407 31.232 415.039 30.8 414.159 30.608L412.527 30.304C411.183 30.032 410.447 29.216 410.447 28.016C410.447 26.656 411.615 25.68 413.423 25.68C415.263 25.68 416.575 26.688 416.575 28.32H415.263C415.215 27.28 414.447 26.816 413.423 26.816C412.431 26.816 411.743 27.216 411.743 28.016C411.743 28.656 412.271 29.024 413.167 29.168L414.447 29.408C415.983 29.76 416.767 30.368 416.767 31.776C416.767 33.28 415.295 34.144 413.535 34.144ZM419.003 34V25.824H420.171L420.283 27.104H420.347C420.779 26.272 421.611 25.68 422.875 25.68C424.683 25.68 425.739 26.816 425.739 28.688V34H424.395V28.896C424.395 27.616 423.803 26.88 422.507 26.88C421.147 26.88 420.347 27.84 420.347 29.488V34H419.003ZM429.128 24.256C428.504 24.256 428.2 23.888 428.2 23.312C428.2 22.752 428.504 22.384 429.128 22.384C429.736 22.384 430.056 22.752 430.056 23.312C430.056 23.888 429.736 24.256 429.128 24.256ZM428.456 34V25.824H429.8V34H428.456ZM432.518 37.664V25.824H433.686L433.862 26.96H433.926C434.358 26.24 435.174 25.68 436.39 25.68C438.534 25.68 439.846 27.28 439.862 29.92C439.846 32.336 438.694 34.144 436.39 34.144C435.174 34.144 434.358 33.584 433.926 32.864H433.862V37.664H432.518ZM436.166 32.944C437.862 32.944 438.502 31.552 438.502 29.92C438.502 28.272 437.862 26.88 436.166 26.88C434.534 26.88 433.83 28.288 433.83 29.92C433.83 31.536 434.534 32.944 436.166 32.944ZM442.096 37.664V25.824H443.264L443.44 26.96H443.504C443.936 26.24 444.752 25.68 445.968 25.68C448.112 25.68 449.424 27.28 449.44 29.92C449.424 32.336 448.272 34.144 445.968 34.144C444.752 34.144 443.936 33.584 443.504 32.864H443.44V37.664H442.096ZM445.744 32.944C447.44 32.944 448.08 31.552 448.08 29.92C448.08 28.272 447.44 26.88 445.744 26.88C444.112 26.88 443.408 28.288 443.408 29.92C443.408 31.536 444.112 32.944 445.744 32.944ZM454.746 34.144C452.33 34.144 451.034 32.32 451.034 29.92C451.034 27.552 452.202 25.68 454.73 25.68C457.034 25.68 458.266 27.392 458.266 29.664V30.32H452.442C452.442 31.872 453.226 32.944 454.746 32.944C455.818 32.944 456.586 32.496 456.81 31.632H458.154C457.93 33.136 456.49 34.144 454.746 34.144ZM452.458 29.2H456.874C456.874 27.904 456.186 26.88 454.73 26.88C453.194 26.88 452.506 27.92 452.458 29.2ZM463.223 34.144C461.607 34.144 461.062 33.312 461.062 31.952V26.96H459.703V25.824H461.095V24.08L462.247 23.632H462.407V25.824H464.407V26.96H462.407V31.84C462.407 32.624 462.743 32.96 463.479 32.96C463.863 32.96 464.103 32.912 464.279 32.864H464.439V34.016C464.183 34.08 463.735 34.144 463.223 34.144ZM474.449 34.144C471.889 34.144 470.753 32.272 470.753 29.92C470.753 27.568 471.921 25.68 474.449 25.68C476.977 25.68 478.145 27.568 478.145 29.92C478.145 32.256 477.009 34.144 474.449 34.144ZM474.449 32.944C476.113 32.944 476.785 31.68 476.785 29.92C476.785 28.16 476.113 26.88 474.449 26.88C472.785 26.88 472.113 28.176 472.113 29.92C472.113 31.68 472.801 32.944 474.449 32.944ZM480.89 34V26.944H479.434V25.824H480.89V24.4C480.89 22.992 481.802 22 483.274 22C483.706 22 484.01 22.048 484.298 22.112V23.232C484.058 23.184 483.77 23.152 483.498 23.152C482.698 23.152 482.234 23.6 482.234 24.4V25.824H484.218V26.944H482.234V34H480.89ZM494.168 34.144C491.72 34.144 490.456 32.496 490.456 29.92C490.456 27.376 491.72 25.68 494.152 25.68C496.344 25.68 497.4 26.976 497.512 28.624H496.168C496.088 27.536 495.336 26.88 494.152 26.88C492.472 26.88 491.816 28.24 491.816 29.92C491.816 31.632 492.472 32.96 494.152 32.96C495.368 32.96 496.088 32.336 496.2 31.248H497.544C497.384 32.976 496.296 34.144 494.168 34.144ZM502.84 34.144C500.28 34.144 499.144 32.272 499.144 29.92C499.144 27.568 500.312 25.68 502.84 25.68C505.368 25.68 506.536 27.568 506.536 29.92C506.536 32.256 505.4 34.144 502.84 34.144ZM502.84 32.944C504.504 32.944 505.176 31.68 505.176 29.92C505.176 28.16 504.504 26.88 502.84 26.88C501.176 26.88 500.504 28.176 500.504 29.92C500.504 31.68 501.192 32.944 502.84 32.944ZM508.768 34V25.824H509.936L510.048 27.104H510.112C510.544 26.272 511.376 25.68 512.64 25.68C514.448 25.68 515.504 26.816 515.504 28.688V34H514.16V28.896C514.16 27.616 513.568 26.88 512.272 26.88C510.912 26.88 510.112 27.84 510.112 29.488V34H508.768ZM520.941 34.144C519.325 34.144 518.781 33.312 518.781 31.952V26.96H517.421V25.824H518.813V24.08L519.965 23.632H520.125V25.824H522.125V26.96H520.125V31.84C520.125 32.624 520.461 32.96 521.197 32.96C521.581 32.96 521.821 32.912 521.997 32.864H522.157V34.016C521.901 34.08 521.453 34.144 520.941 34.144ZM527.387 34.144C524.971 34.144 523.675 32.32 523.675 29.92C523.675 27.552 524.843 25.68 527.371 25.68C529.675 25.68 530.907 27.392 530.907 29.664V30.32H525.083C525.083 31.872 525.867 32.944 527.387 32.944C528.459 32.944 529.227 32.496 529.451 31.632H530.795C530.571 33.136 529.131 34.144 527.387 34.144ZM525.099 29.2H529.515C529.515 27.904 528.827 26.88 527.371 26.88C525.835 26.88 525.147 27.92 525.099 29.2ZM533.143 34V25.824H534.311L534.423 27.104H534.487C534.919 26.272 535.751 25.68 537.015 25.68C538.823 25.68 539.879 26.816 539.879 28.688V34H538.535V28.896C538.535 27.616 537.943 26.88 536.647 26.88C535.287 26.88 534.487 27.84 534.487 29.488V34H533.143ZM545.316 34.144C543.7 34.144 543.156 33.312 543.156 31.952V26.96H541.796V25.824H543.188V24.08L544.34 23.632H544.5V25.824H546.5V26.96H544.5V31.84C544.5 32.624 544.836 32.96 545.572 32.96C545.956 32.96 546.196 32.912 546.372 32.864H546.532V34.016C546.276 34.08 545.828 34.144 545.316 34.144ZM553.999 34V26.944H552.543V25.824H553.999V24.4C553.999 22.992 554.911 22 556.383 22C556.815 22 557.119 22.048 557.407 22.112V23.232C557.167 23.184 556.879 23.152 556.607 23.152C555.807 23.152 555.343 23.6 555.343 24.4V25.824H557.327V26.944H555.343V34H553.999ZM562.309 34.144C559.749 34.144 558.613 32.272 558.613 29.92C558.613 27.568 559.781 25.68 562.309 25.68C564.837 25.68 566.005 27.568 566.005 29.92C566.005 32.256 564.869 34.144 562.309 34.144ZM562.309 32.944C563.973 32.944 564.645 31.68 564.645 29.92C564.645 28.16 563.973 26.88 562.309 26.88C560.645 26.88 559.973 28.176 559.973 29.92C559.973 31.68 560.661 32.944 562.309 32.944ZM568.237 34V25.824H569.405L569.517 27.2H569.581C569.917 26.288 570.733 25.728 571.741 25.728H572.477V27.024H571.837C570.285 27.024 569.581 28.112 569.581 30.032V34H568.237ZM581.988 34.144C580.372 34.144 579.828 33.312 579.828 31.952V26.96H578.468V25.824H579.86V24.08L581.012 23.632H581.172V25.824H583.172V26.96H581.172V31.84C581.172 32.624 581.508 32.96 582.244 32.96C582.628 32.96 582.868 32.912 583.044 32.864H583.204V34.016C582.948 34.08 582.5 34.144 581.988 34.144ZM585.362 34V22.16H586.706V27.104H586.77C587.202 26.272 588.002 25.68 589.266 25.68C591.074 25.68 592.162 26.816 592.162 28.688V34H590.818V28.896C590.818 27.616 590.194 26.88 588.898 26.88C587.57 26.88 586.706 27.872 586.706 29.52V34H585.362ZM595.549 24.256C594.926 24.256 594.622 23.888 594.622 23.312C594.622 22.752 594.926 22.384 595.549 22.384C596.158 22.384 596.478 22.752 596.478 23.312C596.478 23.888 596.158 24.256 595.549 24.256ZM594.878 34V25.824H596.222V34H594.878ZM601.644 34.144C599.708 34.144 598.348 33.088 598.3 31.296H599.644C599.644 32.384 600.476 32.944 601.644 32.944C602.796 32.944 603.516 32.56 603.516 31.776C603.516 31.232 603.148 30.8 602.268 30.608L600.636 30.304C599.292 30.032 598.556 29.216 598.556 28.016C598.556 26.656 599.724 25.68 601.532 25.68C603.372 25.68 604.684 26.688 604.684 28.32H603.372C603.324 27.28 602.556 26.816 601.532 26.816C600.54 26.816 599.852 27.216 599.852 28.016C599.852 28.656 600.38 29.024 601.276 29.168L602.556 29.408C604.092 29.76 604.876 30.368 604.876 31.776C604.876 33.28 603.404 34.144 601.644 34.144ZM614.117 34.144C612.341 34.144 611.269 33.04 611.269 31.616C611.269 30.24 612.245 29.056 614.645 29.056C615.509 29.056 616.149 29.2 616.661 29.344V28.528C616.661 27.616 616.101 26.832 614.773 26.832C613.573 26.832 612.981 27.504 612.965 28.288H611.669C611.669 26.72 612.981 25.68 614.773 25.68C616.869 25.68 617.973 26.944 617.973 28.496V34H616.837L616.741 32.848H616.677C616.181 33.68 615.269 34.144 614.117 34.144ZM614.357 33.024C615.749 33.024 616.661 32.016 616.661 30.832V30.416C615.989 30.208 615.365 30.128 614.645 30.128C613.317 30.128 612.629 30.64 612.629 31.6C612.629 32.416 613.173 33.024 614.357 33.024ZM620.69 34V22.16H622.034V34H620.69ZM627.825 34.144C625.409 34.144 624.113 32.32 624.113 29.92C624.113 27.552 625.281 25.68 627.809 25.68C630.113 25.68 631.345 27.392 631.345 29.664V30.32H625.521C625.521 31.872 626.305 32.944 627.825 32.944C628.897 32.944 629.665 32.496 629.889 31.632H631.233C631.009 33.136 629.569 34.144 627.825 34.144ZM625.537 29.2H629.953C629.953 27.904 629.265 26.88 627.809 26.88C626.273 26.88 625.585 27.92 625.537 29.2ZM633.581 34V25.824H634.749L634.861 27.2H634.925C635.261 26.288 636.077 25.728 637.085 25.728H637.821V27.024H637.181C635.629 27.024 634.925 28.112 634.925 30.032V34H633.581ZM642.535 34.144C640.919 34.144 640.375 33.312 640.375 31.952V26.96H639.015V25.824H640.407V24.08L641.559 23.632H641.719V25.824H643.719V26.96H641.719V31.84C641.719 32.624 642.055 32.96 642.791 32.96C643.175 32.96 643.415 32.912 643.591 32.864H643.751V34.016C643.495 34.08 643.047 34.144 642.535 34.144Z" fill="#C5CED4"/>
<g clip-path="url(#clip0_479_2501)">
<rect x="1309" y="20" width="16" height="16" rx="8" fill="#43EDBC"/>
<path d="M1317 24L1321 28M1321 28L1317 32M1321 28H1312.5" stroke="#0C1519"/>
</g>
<path d="M1337.43 34V29.424L1333.34 22.96V22.8H1335.5L1338.36 27.568H1338.42L1341.24 22.8H1343.38V22.96L1339.32 29.408V34H1337.43ZM1346.67 34.144C1344.04 34.144 1342.76 32.304 1342.76 29.872C1342.76 27.456 1344.08 25.6 1346.67 25.6C1349.26 25.6 1350.57 27.456 1350.57 29.872C1350.57 32.288 1349.29 34.144 1346.67 34.144ZM1346.67 32.528C1348.06 32.528 1348.72 31.536 1348.72 29.872C1348.72 28.224 1348.06 27.216 1346.67 27.216C1345.28 27.216 1344.62 28.24 1344.62 29.872C1344.62 31.536 1345.29 32.528 1346.67 32.528ZM1357.56 25.744H1359.38V30.864C1359.38 32.704 1358.15 34.128 1355.83 34.128C1353.52 34.128 1352.28 32.704 1352.28 30.864V25.744H1354.1V30.576C1354.1 31.728 1354.6 32.448 1355.83 32.448C1357.06 32.448 1357.56 31.728 1357.56 30.576V25.744ZM1361.62 34V25.744H1363.16L1363.32 27.056H1363.38C1363.72 26.208 1364.49 25.632 1365.53 25.632H1366.2V27.328H1365.49C1364.1 27.328 1363.38 28.288 1363.38 29.968V34H1361.62ZM1377.25 34.144C1373.86 34.144 1372.1 31.728 1372.1 28.416C1372.1 25.056 1373.87 22.656 1377.25 22.656C1380.02 22.656 1381.73 24.384 1381.94 26.752H1380.02C1379.87 25.408 1378.99 24.384 1377.25 24.384C1374.96 24.384 1374.02 26.16 1374.02 28.416C1374.02 30.672 1374.96 32.432 1377.25 32.432C1378.93 32.432 1379.79 31.488 1380.03 30.16H1381.94C1381.66 32.464 1380 34.144 1377.25 34.144ZM1386.34 34V24.496H1382.96V22.8H1391.6V24.496H1388.23V34H1386.34ZM1397.73 22.8L1401.75 33.84V34H1399.7L1398.82 31.408H1394.25L1393.37 34H1391.38V33.84L1395.38 22.8H1397.73ZM1394.81 29.76H1398.26L1396.57 24.768H1396.5L1394.81 29.76ZM1407.93 34V22.16H1409.76V26.816H1409.82C1410.27 26.112 1411.04 25.6 1412.22 25.6C1414.06 25.6 1415.21 26.736 1415.21 28.608V34H1413.39V29.056C1413.39 27.904 1412.85 27.248 1411.69 27.248C1410.56 27.248 1409.76 28.08 1409.76 29.456V34H1407.93ZM1420.75 34.144C1418.23 34.144 1416.84 32.272 1416.84 29.872C1416.84 27.504 1418.11 25.6 1420.71 25.6C1423.13 25.6 1424.44 27.344 1424.44 29.616V30.384H1418.73C1418.73 31.696 1419.4 32.608 1420.75 32.608C1421.75 32.608 1422.36 32.16 1422.55 31.488H1424.33C1424.11 32.992 1422.71 34.144 1420.75 34.144ZM1418.75 29.088H1422.57C1422.55 28 1421.96 27.152 1420.71 27.152C1419.39 27.152 1418.79 28.016 1418.75 29.088ZM1426.25 34V25.744H1427.78L1427.94 27.056H1428.01C1428.34 26.208 1429.11 25.632 1430.15 25.632H1430.82V27.328H1430.12C1428.73 27.328 1428.01 28.288 1428.01 29.968V34H1426.25ZM1435.67 34.144C1433.16 34.144 1431.76 32.272 1431.76 29.872C1431.76 27.504 1433.03 25.6 1435.64 25.6C1438.05 25.6 1439.36 27.344 1439.36 29.616V30.384H1433.65C1433.65 31.696 1434.32 32.608 1435.67 32.608C1436.68 32.608 1437.28 32.16 1437.48 31.488H1439.25C1439.03 32.992 1437.64 34.144 1435.67 34.144ZM1433.67 29.088H1437.49C1437.48 28 1436.88 27.152 1435.64 27.152C1434.31 27.152 1433.72 28.016 1433.67 29.088Z" fill="white"/>
<defs>
<linearGradient id="paint0_linear_479_2501" x1="-1.91295e-05" y1="1.04348" x2="0.554769" y2="68.0504" gradientUnits="userSpaceOnUse">
<stop stop-color="#43C9ED"/>
<stop offset="1" stop-color="#0194E2"/>
</linearGradient>
<clipPath id="clip0_479_2501">
<rect x="1309" y="20" width="16" height="16" rx="8" fill="white"/>
</clipPath>
</defs>
</svg>
