<svg width="126" height="24" viewBox="0 0 126 24" fill="none" xmlns="http://www.w3.org/2000/svg">
<g clip-path="url(#clip0_11838_1317)">
<path d="M17.4854 8.85333L9.24668 13.4915L0.424773 8.53547L0 8.76456V12.3632L9.24668 17.5473L17.4844 12.9273V14.8316L9.24668 19.4707L0.424773 14.5147L0 14.7438V15.3605L9.24668 20.5456L18.4752 15.3605V11.7628L18.0505 11.5337L9.24668 16.4716L0.989864 11.8516V9.94629L9.24668 14.5663L18.4752 9.3831V5.83601L18.0151 5.5716L9.24668 10.4923L1.41464 6.11856L9.24668 1.72765L15.6813 5.34251L16.2473 5.0256V4.5846L9.24668 0.652832L0 5.83697V6.40206L9.24668 11.5871L17.4844 6.94806L17.4854 8.85333Z" fill="#EE3D2C"/>
<path d="M35.7468 17.6047V1.76782H33.307V7.69269C33.307 7.78146 33.2535 7.85209 33.1657 7.88741C33.1264 7.90115 33.084 7.90342 33.0434 7.89396C33.0028 7.88449 32.9658 7.86368 32.9366 7.83396C32.1052 6.86414 30.8147 6.31719 29.4 6.31719C26.377 6.31719 24.0068 8.85628 24.0068 12.1017C24.0068 13.6891 24.5557 15.1534 25.5627 16.2292C26.0526 16.7562 26.6467 17.1756 27.3073 17.4609C27.9679 17.7461 28.6805 17.891 29.4 17.8863C30.7965 17.8863 32.0871 17.304 32.9357 16.2998C32.9891 16.2292 33.0951 16.211 33.1647 16.2292C33.2535 16.2645 33.3079 16.3342 33.3079 16.423V17.6047H35.7468ZM29.9307 15.6822C27.9854 15.6822 26.4657 14.113 26.4657 12.1027C26.4657 10.0915 27.9854 8.52219 29.9307 8.52219C31.8761 8.52219 33.3957 10.0915 33.3957 12.1017C33.3957 14.112 31.8752 15.6813 29.9307 15.6813M48.7945 17.6056V6.58255H46.3728V7.69364C46.3728 7.78241 46.3193 7.85209 46.2306 7.88741C46.1902 7.90367 46.1454 7.90563 46.1037 7.89295C46.0621 7.88028 46.026 7.85374 46.0015 7.81773C45.1882 6.84696 43.9148 6.3 42.4649 6.3C39.4418 6.3 37.0727 8.84005 37.0727 12.0845C37.0727 15.33 39.4418 17.8691 42.4658 17.8691C43.8623 17.8691 45.1529 17.2868 46.0015 16.2655C46.054 16.1939 46.1599 16.1767 46.2306 16.1939C46.3193 16.2292 46.3728 16.2998 46.3728 16.3886V17.5875H48.7945V17.6056ZM43.0137 15.6832C41.0684 15.6832 39.5487 14.113 39.5487 12.1036C39.5487 10.0924 41.0684 8.52314 43.0137 8.52314C44.9591 8.52314 46.4787 10.0924 46.4787 12.1027C46.4787 14.113 44.9582 15.6832 43.0137 15.6832ZM69.532 17.6056V6.58255H67.1093V7.69364C67.1093 7.78241 67.0568 7.85209 66.9681 7.88741C66.8793 7.92273 66.7915 7.88741 66.739 7.81773C65.9247 6.84696 64.6523 6.3 63.2024 6.3C60.1612 6.3 57.8102 8.84005 57.8102 12.1036C57.8102 15.3653 60.1793 17.8882 63.2024 17.8882C64.5989 17.8882 65.8894 17.3059 66.738 16.2826C66.7915 16.212 66.8974 16.1939 66.9681 16.212C67.0568 16.2473 67.1093 16.317 67.1093 16.4058V17.6047L69.532 17.6056ZM63.7503 15.6832C61.8059 15.6832 60.2853 14.113 60.2853 12.1036C60.2853 10.0924 61.8059 8.52314 63.7503 8.52314C65.6947 8.52314 67.2153 10.0924 67.2153 12.1027C67.2153 14.113 65.6947 15.6832 63.7503 15.6832ZM73.9697 16.2998C73.9878 16.2998 74.0231 16.2817 74.0403 16.2817C74.0937 16.2817 74.1644 16.317 74.1997 16.3523C75.0302 17.3221 76.3207 17.8691 77.7353 17.8691C80.7584 17.8691 83.1285 15.33 83.1285 12.0845C83.1285 10.4971 82.5797 9.03382 81.5726 7.95805C81.0828 7.43088 80.4888 7.01128 79.8282 6.72585C79.1676 6.44042 78.4549 6.29541 77.7353 6.3C76.3388 6.3 75.0483 6.88228 74.1997 7.88741C74.1462 7.95805 74.0584 7.97523 73.9706 7.95805C73.8818 7.92273 73.8284 7.85209 73.8284 7.76332V1.76782H71.3886V17.6037H73.8284V16.4945C73.8284 16.4058 73.8818 16.3351 73.9697 16.2998ZM73.7215 12.1027C73.7215 10.0924 75.243 8.52314 77.1874 8.52314C79.1318 8.52314 80.6524 10.0924 80.6524 12.1027C80.6524 14.113 79.1318 15.6822 77.1874 15.6822C75.243 15.6822 73.7215 14.0958 73.7215 12.1027ZM90.1826 8.84196C90.4117 8.84196 90.6246 8.86009 90.7649 8.89541V6.39069C90.631 6.36689 90.4952 6.35507 90.3592 6.35537C89.0858 6.35537 87.9194 7.00828 87.3008 8.04873C87.2474 8.13655 87.1586 8.17282 87.0708 8.13655C87.0269 8.12571 86.9877 8.101 86.959 8.06609C86.9302 8.03118 86.9136 7.98793 86.9114 7.94278V6.58446H84.4897V17.6247H86.9295V12.7565C86.9295 10.3415 88.1666 8.84291 90.1826 8.84291M94.7787 6.5835H92.3036V17.6238H94.7787V6.5835ZM93.5054 1.785C93.3053 1.77996 93.1063 1.815 92.92 1.88807C92.7337 1.96113 92.5639 2.07075 92.4206 2.21045C92.2774 2.35016 92.1635 2.51713 92.0858 2.70152C92.008 2.88592 91.968 3.084 91.968 3.28412C91.968 3.48423 92.008 3.68232 92.0858 3.86671C92.1635 4.05111 92.2774 4.21808 92.4206 4.35778C92.5639 4.49749 92.7337 4.6071 92.92 4.68017C93.1063 4.75324 93.3053 4.78828 93.5054 4.78323C93.7067 4.79042 93.9074 4.75697 94.0955 4.6849C94.2836 4.61282 94.4552 4.50358 94.6002 4.36371C94.7451 4.22384 94.8604 4.0562 94.9391 3.8708C95.0179 3.6854 95.0585 3.48603 95.0585 3.28459C95.0585 3.08316 95.0179 2.88379 94.9391 2.69839C94.8604 2.51299 94.7451 2.34535 94.6002 2.20548C94.4552 2.06561 94.2836 1.95637 94.0955 1.88429C93.9074 1.81222 93.7067 1.77877 93.5054 1.78596M102.028 6.3C98.6332 6.3 96.1752 8.73409 96.1752 12.1036C96.1752 13.7426 96.7594 15.2059 97.8018 16.2655C98.8632 17.3231 100.348 17.9054 102.009 17.9054C103.389 17.9054 104.449 17.641 106.465 16.1585L105.069 14.6952C104.078 15.3481 103.159 15.665 102.258 15.665C100.206 15.665 98.6685 14.1311 98.6685 12.1027C98.6685 10.0743 100.206 8.54032 102.258 8.54032C103.229 8.54032 104.131 8.85819 105.033 9.51014L106.588 8.04682C104.768 6.49473 103.123 6.3 102.028 6.3ZM110.761 12.7546C110.78 12.7366 110.802 12.7227 110.826 12.7137C110.851 12.7046 110.877 12.7007 110.903 12.7021H110.92C110.974 12.7021 111.026 12.7375 111.08 12.7718L114.986 17.6047H117.992L112.936 11.5023C112.865 11.4145 112.865 11.2904 112.953 11.2207L117.603 6.58159H114.615L110.602 10.6031C110.549 10.6556 110.461 10.6737 110.372 10.6556C110.336 10.6379 110.305 10.6105 110.283 10.5763C110.261 10.5421 110.249 10.5024 110.248 10.4618V1.785H107.791V17.6219H110.231V13.3188C110.231 13.2663 110.248 13.1947 110.302 13.1603L110.761 12.7546Z" fill="white"/>
<path d="M121.968 17.8873C123.966 17.8873 125.999 16.6703 125.999 14.3603C125.999 12.8435 125.044 11.8021 123.1 11.1683L121.773 10.7273C120.872 10.4275 120.447 10.0037 120.447 9.42239C120.447 8.7523 121.049 8.29316 121.897 8.29316C122.71 8.29316 123.435 8.82294 123.895 9.7393L125.858 8.68167C125.133 7.20021 123.63 6.28289 121.897 6.28289C119.705 6.28289 118.114 7.69371 118.114 9.61617C118.114 11.1501 119.034 12.1734 120.924 12.7728L122.287 13.2138C123.241 13.5136 123.648 13.9011 123.648 14.5187C123.648 15.4542 122.781 15.7883 122.038 15.7883C121.049 15.7883 120.165 15.1535 119.741 14.113L117.743 15.1716C118.397 16.8468 120.005 17.8873 121.968 17.8873ZM55.583 17.7813C56.3609 17.7813 57.0511 17.7107 57.4396 17.6573V15.542C57.0342 15.5838 56.6271 15.607 56.2197 15.6117C55.2298 15.6117 54.47 15.436 54.47 13.3017V8.76948C54.47 8.64539 54.5578 8.55757 54.6819 8.55757H57.0683V6.56448H54.6819C54.6539 6.56555 54.6259 6.56083 54.5998 6.55061C54.5736 6.5404 54.5499 6.52492 54.53 6.50513C54.5101 6.48533 54.4946 6.46166 54.4842 6.43558C54.4739 6.4095 54.469 6.38157 54.47 6.35353V3.17871H52.0302V6.37071C52.0302 6.4948 51.9414 6.58262 51.8173 6.58262H50.1201V8.57571H51.8173C51.9414 8.57571 52.0302 8.66353 52.0302 8.78666V13.9193C52.0302 17.7813 54.6113 17.7813 55.583 17.7813Z" fill="white"/>
</g>
<defs>
<clipPath id="clip0_11838_1317">
<rect width="126" height="23" fill="white" transform="translate(0 0.5)"/>
</clipPath>
</defs>
</svg>
