<svg width="1462" height="7" viewBox="0 0 1462 7" fill="none" xmlns="http://www.w3.org/2000/svg">
<mask maskUnits="userSpaceOnUse" x="0" y="0" width="0" height="0" fill="black">
<rect fill="white" width="0" height="0"/>
</mask>
<path d="M1461.17 3.5C1461.17 2.02724 1459.97 0.833333 1458.5 0.833333C1457.03 0.833333 1455.83 2.02724 1455.83 3.5C1455.83 4.97276 1457.03 6.16667 1458.5 6.16667C1459.97 6.16667 1461.17 4.97276 1461.17 3.5ZM6.16663 3.5C6.16663 2.02724 4.97278 0.833333 3.5 0.833333C2.02722 0.833333 0.833374 2.02724 0.833374 3.5C0.833374 4.97276 2.02722 6.16667 3.5 6.16667C4.97278 6.16667 6.16663 4.97276 6.16663 3.5ZM1458.5 3L3.5 3V4L1458.5 4V3Z" fill="#43C9ED" mask="url(#)"/>
</svg>
