<svg width="356" height="692" viewBox="0 0 356 692" fill="none" xmlns="http://www.w3.org/2000/svg">
<path d="M6.14002e-05 691.333C2.94558 691.333 5.33339 688.946 5.33339 686C5.33339 683.054 2.94558 680.667 6.06701e-05 680.667C-2.94546 680.667 -5.33327 683.054 -5.33327 686C-5.33327 688.946 -2.94546 691.333 6.14002e-05 691.333ZM5.71693e-05 629.515C2.94558 629.515 5.33339 627.127 5.33339 624.182C5.33339 621.236 2.94558 618.848 5.64392e-05 618.848C-2.94546 618.848 -5.33328 621.236 -5.33328 624.182C-5.33328 627.127 -2.94546 629.515 5.71693e-05 629.515ZM5.29384e-05 567.697C2.94557 567.697 5.33339 565.309 5.33339 562.364C5.33339 559.418 2.94557 557.03 5.22083e-05 557.03C-2.94547 557.03 -5.33328 559.418 -5.33328 562.364C-5.33328 565.309 -2.94547 567.697 5.29384e-05 567.697ZM4.87075e-05 505.879C2.94557 505.879 5.33338 503.491 5.33338 500.545C5.33338 497.6 2.94557 495.212 4.79774e-05 495.212C-2.94547 495.212 -5.33329 497.6 -5.33329 500.545C-5.33328 503.491 -2.94547 505.879 4.87075e-05 505.879ZM4.44766e-05 444.061C2.94556 444.061 5.33338 441.673 5.33338 438.727C5.33338 435.782 2.94556 433.394 4.37465e-05 433.394C-2.94547 433.394 -5.33329 435.782 -5.33329 438.727C-5.33329 441.673 -2.94547 444.061 4.44766e-05 444.061ZM4.02457e-05 382.242C2.94556 382.242 5.33337 379.855 5.33337 376.909C5.33337 373.964 2.94556 371.576 3.95156e-05 371.576C-2.94548 371.576 -5.33329 373.964 -5.33329 376.909C-5.33329 379.855 -2.94548 382.242 4.02457e-05 382.242ZM3.59986e-05 320.188C2.94555 320.188 5.33337 317.801 5.33337 314.855C5.33337 311.909 2.94555 309.522 3.52686e-05 309.522C-2.94548 309.522 -5.3333 311.909 -5.3333 314.855C-5.3333 317.801 -2.94548 320.188 3.59986e-05 320.188ZM3.17677e-05 258.37C2.94555 258.37 5.33337 255.982 5.33336 253.037C5.33336 250.091 2.94555 247.703 3.10377e-05 247.703C-2.94549 247.703 -5.3333 250.091 -5.3333 253.037C-5.3333 255.982 -2.94549 258.37 3.17677e-05 258.37ZM2.7553e-05 196.788C2.94555 196.788 5.33336 194.4 5.33336 191.455C5.33336 188.509 2.94555 186.121 2.68229e-05 186.121C-2.94549 186.121 -5.33331 188.509 -5.33331 191.455C-5.33331 194.4 -2.94549 196.788 2.7553e-05 196.788ZM2.3322e-05 134.97C2.94554 134.97 5.33336 132.582 5.33336 129.636C5.33336 126.691 2.94554 124.303 2.2592e-05 124.303C-2.9455 124.303 -5.33331 126.691 -5.33331 129.636C-5.33331 132.582 -2.9455 134.97 2.3322e-05 134.97ZM1.91073e-05 73.3875C2.94554 73.3875 5.33335 70.9996 5.33335 68.0541C5.33335 65.1086 2.94554 62.7208 1.83773e-05 62.7208C-2.9455 62.7208 -5.33331 65.1086 -5.33331 68.0541C-5.33331 70.9996 -2.9455 73.3875 1.91073e-05 73.3875ZM1.48602e-05 11.3333C2.94553 11.3333 5.33335 8.9455 5.33335 6C5.33335 3.0545 2.94553 0.666687 1.41302e-05 0.666687C-2.9455 0.666687 -5.33332 3.0545 -5.33332 6C-5.33332 8.9455 -2.9455 11.3333 1.48602e-05 11.3333ZM356 345C308.478 345 272.629 366.427 243.07 398.447C213.542 430.432 190.235 473.049 167.771 515.533C145.278 558.072 123.637 600.461 97.407 632.238C71.2025 663.985 40.5311 685 6.09667e-05 685L6.11036e-05 687C41.349 687 72.5327 665.515 98.9494 633.512C125.341 601.539 147.087 558.928 169.539 516.467C192.02 473.951 215.216 431.568 244.539 399.803C273.832 368.073 309.182 347 356 347L356 345ZM356 345C261.051 345 212.721 415.064 167.815 484.548C145.319 519.358 123.69 554.02 97.4742 580.006C71.2966 605.953 40.6087 623.182 5.67358e-05 623.182L5.68727e-05 625.182C41.2714 625.182 72.4385 607.638 98.8822 581.426C125.288 555.252 147.046 520.369 169.495 485.634C214.48 416.027 262.269 347 356 347L356 345ZM356 345C261.164 345 212.839 399.442 167.886 453.543C122.88 507.707 81.3385 561.364 5.25049e-05 561.364L5.26418e-05 563.364C82.4216 563.364 124.54 508.838 169.424 454.821C214.361 400.74 262.156 347 356 347L356 345ZM356 345C308.682 345 272.93 354.692 243.363 369.251C213.812 383.801 190.477 403.195 168.003 422.514C123.048 461.159 81.4728 499.545 4.8274e-05 499.545L4.84109e-05 501.545C82.2873 501.545 124.372 462.659 169.307 424.031C191.778 404.714 214.945 385.472 244.246 371.045C273.53 356.626 308.978 347 356 347L356 345ZM356 345C261.44 345 213.217 368.254 168.197 391.475C123.278 414.643 81.6281 437.727 4.40431e-05 437.727L4.418e-05 439.727C82.132 439.727 124.142 416.448 169.113 393.252C213.983 370.11 261.88 347 356 347L356 345ZM356 345C261.587 345 213.468 352.735 168.486 360.469C123.56 368.193 81.7951 375.909 3.98122e-05 375.909L3.99491e-05 377.909C81.965 377.909 123.861 370.171 168.825 362.44C213.732 354.719 261.733 347 356 347L356 345ZM356 345C261.734 345 213.733 337.222 168.826 329.442C123.862 321.653 81.9656 313.855 3.55652e-05 313.855L3.5702e-05 315.855C81.7945 315.855 123.558 323.63 168.484 331.413C213.467 339.206 261.587 347 356 347L356 345ZM356 345C261.881 345 213.984 321.832 169.114 298.63C124.143 275.376 82.1326 252.037 3.13342e-05 252.037L3.14711e-05 254.037C81.6274 254.037 123.277 277.18 168.196 300.407C213.217 323.687 261.439 347 356 347L356 345ZM356 345C308.978 345 273.53 335.374 244.246 320.955C214.945 306.528 191.778 287.286 169.307 267.969C124.372 229.341 82.2873 190.455 2.71195e-05 190.455L2.72564e-05 192.455C81.4728 192.455 123.048 230.841 168.003 269.486C190.477 288.805 213.812 308.199 243.363 322.749C272.93 337.308 308.682 347 356 347L356 345ZM356 345C262.156 345 214.361 291.26 169.424 237.179C124.54 183.162 82.4216 128.636 2.28886e-05 128.636L2.30255e-05 130.636C81.3385 130.636 122.88 184.293 167.886 238.457C212.839 292.558 261.164 347 356 347L356 345ZM356 345C262.269 345 214.479 276.031 169.495 206.484C147.046 171.778 125.288 136.924 98.8818 110.773C72.4381 84.5834 41.271 67.0541 1.86738e-05 67.0541L1.88107e-05 69.0541C40.609 69.0541 71.297 86.2681 97.4745 112.194C123.69 138.157 145.319 172.79 167.815 207.57C212.721 276.996 261.051 347 356 347L356 345ZM356 345C309.182 345 273.832 323.927 244.539 292.197C215.216 260.432 192.02 218.049 169.539 175.533C147.087 133.072 125.341 90.4612 98.9494 58.4884C72.5326 26.4849 41.349 5 1.44268e-05 5L1.45637e-05 7C40.531 7 71.2024 28.0151 97.4069 59.7616C123.637 91.5388 145.278 133.928 167.771 176.467C190.235 218.951 213.542 261.568 243.07 293.553C272.629 325.573 308.478 347 356 347L356 345Z" fill="url(#paint0_linear_480_3619)"/>
<defs>
<linearGradient id="paint0_linear_480_3619" x1="6.04975e-05" y1="432.328" x2="356" y2="432.328" gradientUnits="userSpaceOnUse">
<stop stop-color="#43C9ED"/>
<stop offset="1" stop-color="#0194E2"/>
</linearGradient>
</defs>
</svg>
