<svg viewBox="0 0 247 544" fill="none" xmlns="http://www.w3.org/2000/svg" preserveAspectRatio="none">
<path d="M3.65019e-07 543.333C2.94552 543.333 5.33333 540.946 5.33333 538C5.33333 535.054 2.94552 532.667 -3.65019e-07 532.667C-2.94552 532.667 -5.33333 535.054 -5.33333 538C-5.33333 540.946 -2.94552 543.333 3.65019e-07 543.333ZM-2.94504e-06 494.97C2.94552 494.97 5.33333 492.582 5.33333 489.636C5.33333 486.691 2.94552 484.303 -3.67508e-06 484.303C-2.94552 484.303 -5.33334 486.691 -5.33334 489.636C-5.33334 492.582 -2.94552 494.97 -2.94504e-06 494.97ZM-6.2551e-06 446.606C2.94551 446.606 5.33333 444.218 5.33333 441.273C5.33333 438.327 2.94551 435.939 -6.98514e-06 435.939C-2.94553 435.939 -5.33334 438.327 -5.33334 441.273C-5.33334 444.218 -2.94552 446.606 -6.2551e-06 446.606ZM-9.56516e-06 398.242C2.94551 398.242 5.33332 395.855 5.33332 392.909C5.33332 389.964 2.94551 387.576 -1.02952e-05 387.576C-2.94553 387.576 -5.33334 389.964 -5.33334 392.909C-5.33334 395.855 -2.94553 398.242 -9.56516e-06 398.242ZM-1.28752e-05 349.879C2.94551 349.879 5.33332 347.491 5.33332 344.545C5.33332 341.6 2.94551 339.212 -1.36053e-05 339.212C-2.94553 339.212 -5.33335 341.6 -5.33335 344.545C-5.33335 347.491 -2.94553 349.879 -1.28752e-05 349.879ZM-1.61853e-05 301.515C2.9455 301.515 5.33332 299.127 5.33332 296.182C5.33332 293.236 2.9455 290.848 -1.69153e-05 290.848C-2.94554 290.848 -5.33335 293.236 -5.33335 296.182C-5.33335 299.127 -2.94553 301.515 -1.61853e-05 301.515ZM-1.9508e-05 252.967C2.9455 252.967 5.33331 250.579 5.33331 247.634C5.33331 244.688 2.9455 242.3 -2.0238e-05 242.3C-2.94554 242.3 -5.33335 244.688 -5.33335 247.634C-5.33335 250.579 -2.94554 252.967 -1.9508e-05 252.967ZM-2.2818e-05 204.603C2.9455 204.603 5.33331 202.215 5.33331 199.27C5.33331 196.324 2.9455 193.937 -2.35481e-05 193.937C-2.94554 193.937 -5.33336 196.324 -5.33336 199.27C-5.33336 202.215 -2.94554 204.603 -2.2818e-05 204.603ZM-2.61155e-05 156.424C2.94549 156.424 5.33331 154.036 5.33331 151.091C5.33331 148.145 2.94549 145.758 -2.68455e-05 145.758C-2.94555 145.758 -5.33336 148.145 -5.33336 151.091C-5.33336 154.036 -2.94554 156.424 -2.61155e-05 156.424ZM-2.94255e-05 108.061C2.94549 108.061 5.3333 105.673 5.3333 102.727C5.3333 99.7817 2.94549 97.3939 -3.01556e-05 97.3939C-2.94555 97.3939 -5.33336 99.7817 -5.33336 102.727C-5.33336 105.673 -2.94555 108.061 -2.94255e-05 108.061ZM-3.27229e-05 59.8816C2.94549 59.8816 5.3333 57.4937 5.3333 54.5482C5.3333 51.6027 2.94549 49.2149 -3.3453e-05 49.2149C-2.94555 49.2149 -5.33337 51.6027 -5.33337 54.5482C-5.33337 57.4937 -2.94555 59.8816 -3.27229e-05 59.8816ZM-3.60456e-05 11.3333C2.94548 11.3333 5.3333 8.9455 5.3333 6C5.3333 3.0545 2.94548 0.666687 -3.67757e-05 0.666687C-2.94556 0.666687 -5.33337 3.0545 -5.33337 6C-5.33337 8.9455 -2.94555 11.3333 -3.60456e-05 11.3333ZM247 271C213.872 271 188.914 287.85 168.383 312.929C147.875 337.978 131.694 371.344 116.111 404.575C100.501 437.865 85.4946 471.007 67.3111 495.847C49.1407 520.669 27.9438 537 -6.84411e-08 537L6.84411e-08 539C28.8662 539 50.5856 522.081 68.9249 497.028C87.251 471.993 102.348 438.635 117.922 405.425C133.522 372.156 149.606 339.022 169.93 314.196C190.231 289.4 214.673 273 247 273L247 271ZM247 271C213.95 271 189.008 284.753 168.45 305.298C147.925 325.81 131.732 353.131 116.149 380.321C100.535 407.564 85.5408 434.657 67.3727 454.964C49.2363 475.235 28.0287 488.636 -3.3785e-06 488.636L-3.24162e-06 490.636C28.7813 490.636 50.4899 476.833 68.8632 456.297C87.2048 435.797 102.314 408.481 117.884 381.315C133.484 354.096 149.556 327.008 169.863 306.713C190.137 286.452 214.595 273 247 273L247 271ZM247 271C180.996 271 147.381 313.744 116.211 356.043C84.9451 398.473 56.2162 440.273 -6.68856e-06 440.273L-6.55168e-06 442.273C57.4038 442.273 86.7199 399.436 117.821 357.23C149.019 314.893 182.094 273 247 273L247 271ZM247 271C181.137 271 147.546 301.469 116.32 331.736C85.1104 361.989 56.3573 391.909 -9.99862e-06 391.909L-9.86174e-06 393.909C57.2626 393.909 86.5546 363.375 117.712 333.173C148.854 302.986 181.953 273 247 273L247 271ZM247 271C181.297 271 147.773 289.228 116.513 307.408C85.352 325.532 56.527 343.545 -1.33087e-05 343.545L-1.31718e-05 345.545C57.0929 345.545 86.3129 327.286 117.519 309.137C148.627 291.045 181.793 273 247 273L247 271ZM247 271C181.463 271 148.051 277.056 116.826 283.109C85.663 289.151 56.7142 295.182 -1.66187e-05 295.182L-1.64819e-05 297.182C56.9057 297.182 86.002 291.122 117.207 285.073C148.349 279.035 181.627 273 247 273L247 271ZM247 271C181.628 271 148.35 264.919 117.208 258.835C86.0032 252.74 56.9064 246.634 -1.99414e-05 246.634L-1.98045e-05 248.634C56.7135 248.634 85.6617 254.711 116.825 260.798C148.05 266.898 181.462 273 247 273L247 271ZM247 271C181.794 271 148.628 252.909 117.52 234.771C86.314 216.576 57.0936 198.27 -2.32515e-05 198.27L-2.31146e-05 200.27C56.5263 200.27 85.3509 218.329 116.513 236.499C147.772 254.726 181.296 273 247 273L247 271ZM247 271C181.953 271 148.854 241.014 117.712 210.827C86.5545 180.625 57.2626 150.091 -2.65489e-05 150.091L-2.6412e-05 152.091C56.3573 152.091 85.1104 182.011 116.32 212.263C147.546 242.531 181.137 273 247 273L247 271ZM247 271C182.094 271 149.019 229.107 117.821 186.77C86.7199 144.564 57.4037 101.727 -2.9859e-05 101.727L-2.97221e-05 103.727C56.2162 103.727 84.9451 145.527 116.211 187.957C147.381 230.256 180.996 273 247 273L247 271ZM247 271C214.595 271 190.137 257.559 169.863 237.316C149.555 217.038 133.484 189.972 117.884 162.777C102.314 135.634 87.2046 108.341 68.8629 87.858C50.4895 67.3394 28.7809 53.5482 -3.31564e-05 53.5482L-3.30195e-05 55.5482C28.029 55.5482 49.2367 68.9384 67.373 89.1921C85.541 109.481 100.535 136.552 116.149 163.772C131.732 190.939 147.925 218.236 168.45 238.731C189.008 259.259 213.95 273 247 273L247 271ZM247 271C214.673 271 190.231 254.6 169.93 229.804C149.606 204.978 133.522 171.844 117.922 138.575C102.348 105.365 87.251 72.0067 68.9248 46.9718C50.5855 21.9189 28.8662 5 -3.64791e-05 5L-3.63422e-05 7C27.9437 7 49.1406 23.3311 67.311 48.1532C85.4946 72.9933 100.5 106.135 116.111 139.425C131.694 172.656 147.875 206.022 168.383 231.071C188.914 256.15 213.872 273 247 273L247 271Z" fill="url(#paint0_linear_480_3623)"/>
<defs>
<linearGradient id="paint0_linear_480_3623" x1="-1.91011e-06" y1="339.539" x2="247" y2="339.539" gradientUnits="userSpaceOnUse">
<stop stop-color="#43C9ED"/>
<stop offset="1" stop-color="#0194E2"/>
</linearGradient>
</defs>
</svg>
