<svg width="356" height="692" viewBox="0 0 356 692" fill="none" xmlns="http://www.w3.org/2000/svg">
<path d="M356 0.666667C353.054 0.666666 350.667 3.05448 350.667 6C350.667 8.94552 353.054 11.3333 356 11.3333C358.946 11.3333 361.333 8.94552 361.333 6C361.333 3.05448 358.946 0.666667 356 0.666667ZM356 62.4849C353.054 62.4849 350.667 64.8727 350.667 67.8182C350.667 70.7637 353.054 73.1515 356 73.1515C358.946 73.1515 361.333 70.7637 361.333 67.8182C361.333 64.8727 358.946 62.4849 356 62.4849ZM356 124.303C353.054 124.303 350.667 126.691 350.667 129.636C350.667 132.582 353.054 134.97 356 134.97C358.946 134.97 361.333 132.582 361.333 129.636C361.333 126.691 358.946 124.303 356 124.303ZM356 186.121C353.054 186.121 350.667 188.509 350.667 191.455C350.667 194.4 353.054 196.788 356 196.788C358.946 196.788 361.333 194.4 361.333 191.455C361.333 188.509 358.946 186.121 356 186.121ZM356 247.939C353.054 247.939 350.667 250.327 350.667 253.273C350.667 256.218 353.054 258.606 356 258.606C358.946 258.606 361.333 256.218 361.333 253.273C361.333 250.327 358.946 247.939 356 247.939ZM356 309.758C353.054 309.758 350.667 312.145 350.667 315.091C350.667 318.036 353.054 320.424 356 320.424C358.946 320.424 361.333 318.036 361.333 315.091C361.333 312.145 358.946 309.758 356 309.758ZM356 371.812C353.054 371.812 350.667 374.199 350.667 377.145C350.667 380.091 353.054 382.478 356 382.478C358.946 382.478 361.333 380.091 361.333 377.145C361.333 374.199 358.946 371.812 356 371.812ZM356 433.63C353.054 433.63 350.667 436.018 350.667 438.963C350.667 441.909 353.054 444.297 356 444.297C358.945 444.297 361.333 441.909 361.333 438.963C361.333 436.018 358.946 433.63 356 433.63ZM356 495.212C353.054 495.212 350.667 497.6 350.667 500.545C350.667 503.491 353.054 505.879 356 505.879C358.945 505.879 361.333 503.491 361.333 500.545C361.333 497.6 358.945 495.212 356 495.212ZM356 557.03C353.054 557.03 350.667 559.418 350.667 562.364C350.667 565.309 353.054 567.697 356 567.697C358.945 567.697 361.333 565.309 361.333 562.364C361.333 559.418 358.945 557.03 356 557.03ZM356 618.613C353.054 618.613 350.667 621 350.667 623.946C350.667 626.891 353.054 629.279 356 629.279C358.945 629.279 361.333 626.891 361.333 623.946C361.333 621 358.945 618.613 356 618.613ZM356 680.667C353.054 680.667 350.667 683.055 350.667 686C350.667 688.945 353.054 691.333 356 691.333C358.945 691.333 361.333 688.945 361.333 686C361.333 683.055 358.945 680.667 356 680.667ZM1.5612e-05 347C47.5222 347 83.3716 325.573 112.93 293.553C142.458 261.568 165.765 218.951 188.229 176.467C210.722 133.928 232.363 91.5388 258.593 59.7616C284.798 28.0151 315.469 7 356 7L356 5C314.651 5 283.467 26.4849 257.051 58.4884C230.659 90.4612 208.913 133.072 186.461 175.533C163.98 218.049 140.784 260.432 111.461 292.197C82.1684 323.927 46.8178 345 1.56994e-05 345L1.5612e-05 347ZM1.5612e-05 347C94.9492 347 143.28 276.936 188.185 207.452C210.681 172.642 232.31 137.98 258.526 111.994C284.703 86.0466 315.391 68.8182 356 68.8182L356 66.8182C314.729 66.8182 283.562 84.3625 257.118 110.574C230.712 136.748 208.954 171.631 186.505 206.366C141.52 275.973 93.7308 345 1.56994e-05 345L1.5612e-05 347ZM1.5612e-05 347C94.8364 347 143.161 292.558 188.114 238.457C233.12 184.293 274.662 130.636 356 130.636L356 128.636C273.578 128.636 231.46 183.162 186.576 237.179C141.639 291.26 93.8436 345 1.56994e-05 345L1.5612e-05 347ZM1.5612e-05 347C47.3178 347 83.0696 337.308 112.637 322.749C142.188 308.199 165.523 288.805 187.997 269.486C232.952 230.841 274.527 192.455 356 192.455L356 190.455C273.713 190.455 231.628 229.341 186.693 267.969C164.222 287.286 141.055 306.528 111.754 320.955C82.4704 335.374 47.0222 345 1.56994e-05 345L1.5612e-05 347ZM1.5612e-05 347C94.5601 347 142.783 323.746 187.803 300.525C232.722 277.357 274.372 254.273 356 254.273L356 252.273C273.868 252.273 231.858 275.552 186.887 298.748C142.017 321.89 94.1199 345 1.56994e-05 345L1.5612e-05 347ZM1.5612e-05 347C94.4129 347 142.532 339.265 187.514 331.531C232.441 323.807 274.205 316.091 356 316.091L356 314.091C274.035 314.091 232.139 321.829 187.176 329.56C142.268 337.281 94.2671 345 1.56994e-05 345L1.5612e-05 347ZM1.5612e-05 347C94.2666 347 142.267 354.778 187.174 362.558C232.138 370.347 274.034 378.145 356 378.145L356 376.145C274.206 376.145 232.442 368.37 187.516 360.587C142.533 352.794 94.4135 345 1.56994e-05 345L1.5612e-05 347ZM1.5612e-05 347C94.1194 347 142.016 370.168 186.886 393.37C231.857 416.624 273.867 439.963 356 439.963L356 437.963C274.373 437.963 232.723 414.82 187.804 391.593C142.784 368.313 94.5607 345 1.56994e-05 345L1.5612e-05 347ZM1.5612e-05 347C47.0222 347 82.4704 356.626 111.754 371.045C141.055 385.472 164.222 404.714 186.693 424.031C231.628 462.659 273.713 501.545 356 501.545L356 499.545C274.527 499.545 232.952 461.159 187.997 422.514C165.523 403.195 142.188 383.801 112.637 369.251C83.0696 354.692 47.3178 345 1.56994e-05 345L1.5612e-05 347ZM1.5612e-05 347C93.8436 347 141.639 400.74 186.576 454.821C231.46 508.838 273.578 563.364 356 563.364L356 561.364C274.662 561.364 233.12 507.707 188.114 453.543C143.161 399.442 94.8364 345 1.56994e-05 345L1.5612e-05 347ZM1.5612e-05 347C93.7312 347 141.521 415.968 186.505 485.516C208.954 520.222 230.712 555.076 257.118 581.227C283.562 607.417 314.729 624.946 356 624.946L356 622.946C315.391 622.946 284.703 605.732 258.526 579.806C232.31 553.843 210.681 519.21 188.185 484.43C143.279 415.004 94.9488 345 1.56994e-05 345L1.5612e-05 347ZM1.5612e-05 347C46.8178 347 82.1684 368.073 111.461 399.803C140.784 431.568 163.98 473.951 186.461 516.467C208.913 558.928 230.659 601.539 257.051 633.512C283.467 665.515 314.651 687 356 687L356 685C315.469 685 284.798 663.985 258.593 632.238C232.363 600.461 210.722 558.072 188.229 515.533C165.765 473.049 142.458 430.432 112.93 398.447C83.3716 366.427 47.5222 345 1.56994e-05 345L1.5612e-05 347Z" fill="url(#paint0_linear_480_3621)"/>
<defs>
<linearGradient id="paint0_linear_480_3621" x1="356" y1="419.047" x2="1.21036e-05" y2="419.047" gradientUnits="userSpaceOnUse">
<stop stop-color="#43C9ED"/>
<stop offset="1" stop-color="#0194E2"/>
</linearGradient>
</defs>
</svg>
