<svg width="96" height="96" viewBox="0 0 96 96" fill="none" xmlns="http://www.w3.org/2000/svg">
<rect width="96" height="96" rx="48" fill="#43C9ED"/>
<path d="M22.044 52V43.6H23.46V52H22.044ZM27.9239 52.108C26.0159 52.108 24.9719 50.824 24.9719 48.904C24.9719 46.996 25.9919 45.7 27.8879 45.7C29.6279 45.7 30.4919 46.732 30.5759 48.064H29.2079C29.1479 47.368 28.6559 46.912 27.8879 46.912C26.8319 46.912 26.3639 47.704 26.3639 48.904C26.3639 50.128 26.8319 50.908 27.8879 50.908C28.6679 50.908 29.1479 50.464 29.2199 49.756H30.5879C30.4799 51.124 29.6159 52.108 27.9239 52.108ZM34.4507 52.108C32.4827 52.108 31.5227 50.728 31.5227 48.904C31.5227 47.092 32.5067 45.7 34.4507 45.7C36.3947 45.7 37.3787 47.092 37.3787 48.904C37.3787 50.716 36.4187 52.108 34.4507 52.108ZM34.4507 50.896C35.4947 50.896 35.9867 50.152 35.9867 48.904C35.9867 47.668 35.4947 46.912 34.4507 46.912C33.4067 46.912 32.9147 47.68 32.9147 48.904C32.9147 50.152 33.4187 50.896 34.4507 50.896ZM38.7276 52V45.808H39.9396L40.0476 46.612H40.0956C40.4316 46.084 41.0196 45.7 41.9076 45.7C43.2876 45.7 44.1396 46.552 44.1396 47.956V52H42.7716V48.292C42.7716 47.428 42.3756 46.936 41.5116 46.936C40.6476 46.936 40.0956 47.548 40.0956 48.58V52H38.7276ZM49.2627 52V43.12H50.6307V46.612H50.6787C51.0147 46.084 51.5907 45.7 52.4787 45.7C53.8587 45.7 54.7227 46.552 54.7227 47.956V52H53.3547V48.292C53.3547 47.428 52.9467 46.936 52.0827 46.936C51.2307 46.936 50.6307 47.56 50.6307 48.592V52H49.2627ZM58.8726 52.108C56.9886 52.108 55.9446 50.704 55.9446 48.904C55.9446 47.128 56.8926 45.7 58.8486 45.7C60.6606 45.7 61.6446 47.008 61.6446 48.712V49.288H57.3606C57.3606 50.272 57.8646 50.956 58.8726 50.956C59.6286 50.956 60.0846 50.62 60.2286 50.116H61.5606C61.3926 51.244 60.3486 52.108 58.8726 52.108ZM57.3726 48.316H60.2406C60.2286 47.5 59.7846 46.864 58.8486 46.864C57.8526 46.864 57.4086 47.512 57.3726 48.316ZM62.9971 52V45.808H64.1491L64.2691 46.792H64.3171C64.5691 46.156 65.1451 45.724 65.9251 45.724H66.4291V46.996H65.9011C64.8571 46.996 64.3171 47.716 64.3171 48.976V52H62.9971ZM70.064 52.108C68.18 52.108 67.136 50.704 67.136 48.904C67.136 47.128 68.084 45.7 70.04 45.7C71.852 45.7 72.836 47.008 72.836 48.712V49.288H68.552C68.552 50.272 69.056 50.956 70.064 50.956C70.82 50.956 71.276 50.62 71.42 50.116H72.752C72.584 51.244 71.54 52.108 70.064 52.108ZM68.564 48.316H71.432C71.42 47.5 70.976 46.864 70.04 46.864C69.044 46.864 68.6 47.512 68.564 48.316Z" fill="black"/>
</svg>
