<svg width="115" height="12" viewBox="0 0 115 12" fill="none" xmlns="http://www.w3.org/2000/svg">
<path d="M103.667 6.00001C103.667 8.94553 106.054 11.3333 109 11.3333C111.946 11.3333 114.333 8.94553 114.333 6.00001C114.333 3.05449 111.946 0.666676 109 0.666676C106.054 0.666675 103.667 3.05449 103.667 6.00001ZM0.666667 6C0.666666 8.94552 3.05448 11.3333 6 11.3333C8.94552 11.3333 11.3333 8.94552 11.3333 6C11.3333 3.05448 8.94552 0.666667 6 0.666667C3.05448 0.666666 0.666667 3.05448 0.666667 6ZM109 5.00001L6 5L6 7L109 7.00001L109 5.00001Z" fill="#43C9ED"/>
</svg>
