<svg width="580" height="7" viewBox="0 0 580 7" fill="none" xmlns="http://www.w3.org/2000/svg">
<mask maskUnits="userSpaceOnUse" x="0" y="0" width="0" height="0" fill="black">
<rect fill="white" width="0" height="0"/>
</mask>
<path d="M579.167 3.5C579.167 2.02724 577.973 0.833333 576.5 0.833333C575.027 0.833333 573.833 2.02724 573.833 3.5C573.833 4.97276 575.027 6.16667 576.5 6.16667C577.973 6.16667 579.167 4.97276 579.167 3.5ZM6.16669 3.5C6.16669 2.02724 4.97278 0.833333 3.5 0.833333C2.02722 0.833333 0.833313 2.02724 0.833313 3.5C0.833313 4.97276 2.02722 6.16667 3.5 6.16667C4.97278 6.16667 6.16669 4.97276 6.16669 3.5ZM576.5 3L3.5 3V4L576.5 4V3Z" fill="#43C9ED" mask="url(#)"/>
</svg>
