<svg width="114" height="12" viewBox="0 0 114 12" fill="none" xmlns="http://www.w3.org/2000/svg">
<path d="M102.667 6.00001C102.667 8.94553 105.054 11.3333 108 11.3333C110.946 11.3333 113.333 8.94553 113.333 6.00001C113.333 3.05449 110.946 0.666676 108 0.666675C105.054 0.666675 102.667 3.05449 102.667 6.00001ZM0.666667 6C0.666666 8.94552 3.05448 11.3333 6 11.3333C8.94552 11.3333 11.3333 8.94552 11.3333 6C11.3333 3.05448 8.94552 0.666667 6 0.666667C3.05448 0.666666 0.666667 3.05448 0.666667 6ZM108 5.00001L6 5L6 7L108 7.00001L108 5.00001Z" fill="#43C9ED"/>
</svg>
