<svg width="324" height="324" viewBox="0 0 324 324" fill="none" xmlns="http://www.w3.org/2000/svg">
<rect x="1" y="1" width="322" height="322" rx="161" stroke="#43C9ED" stroke-width="2"/>
<path d="M228.24 66.6196C200.209 46.3229 164.677 39.8923 131.711 49.1363C82.9527 63.2033 47.2232 109.424 48.0128 163.481C48.4076 190.208 57.488 214.524 72.2931 234.017L107.233 207.893C97.363 195.634 91.4409 179.96 91.2435 162.878C90.8487 122.285 122.63 89.1268 162.505 88.5239L161.716 116.256L228.24 66.6196Z" fill="#43C9ED"/>
<path d="M253.909 92.5495C252.725 90.9419 251.541 89.3342 250.356 87.7266L216.798 112.846C228.247 125.708 235.354 142.588 235.551 161.277C235.946 201.87 204.164 235.028 164.289 235.631L165.079 207.899L97.7654 258.138C136.653 284.866 189.557 285.469 229.629 255.526C280.361 217.344 291.415 144.397 253.909 92.5495Z" fill="#0194E2"/>
</svg>
