<svg width="48" height="48" viewBox="0 0 48 48" fill="none" xmlns="http://www.w3.org/2000/svg">
<path fill-rule="evenodd" clip-rule="evenodd" d="M9.90566 12.1205C9.76298 12.253 9.75993 12.3234 9.75993 12.3327C9.75993 12.3419 9.76298 12.4123 9.90566 12.5449C10.0479 12.6769 10.2845 12.8271 10.6335 12.9839C11.3283 13.2962 12.3639 13.5892 13.681 13.8396C16.3072 14.3387 19.9558 14.6506 24 14.6506C28.0442 14.6506 31.6928 14.3387 34.319 13.8396C35.6361 13.5892 36.6717 13.2962 37.3665 12.9839C37.7155 12.8271 37.9521 12.6769 38.0943 12.5449C38.237 12.4123 38.2401 12.3419 38.2401 12.3327C38.2401 12.3234 38.237 12.253 38.0943 12.1205C37.9521 11.9884 37.7155 11.8382 37.3665 11.6814C36.6717 11.3691 35.6361 11.0761 34.319 10.8257C31.6928 10.3266 28.0442 10.0147 24 10.0147C19.9558 10.0147 16.3072 10.3266 13.681 10.8257C12.3639 11.0761 11.3283 11.3691 10.6335 11.6814C10.2845 11.8382 10.0479 11.9884 9.90566 12.1205ZM13.5017 9.88264C16.2031 9.36916 19.9145 9.05469 24 9.05469C28.0855 9.05469 31.7969 9.36916 34.4983 9.88264C35.845 10.1386 36.9651 10.4485 37.76 10.8057C38.1559 10.9836 38.4977 11.1849 38.7477 11.4171C38.9972 11.6488 39.2001 11.9556 39.2001 12.3327C39.2001 12.7097 38.9972 13.0165 38.7477 13.2482C38.4977 13.4804 38.1559 13.6817 37.76 13.8596C36.9651 14.2168 35.845 14.5267 34.4983 14.7827C31.7969 15.2961 28.0855 15.6106 24 15.6106C19.9145 15.6106 16.2031 15.2961 13.5017 14.7827C12.155 14.5267 11.0348 14.2168 10.2399 13.8596C9.84407 13.6817 9.50228 13.4804 9.25231 13.2482C9.00283 13.0165 8.79993 12.7097 8.79993 12.3327C8.79993 11.9556 9.00283 11.6488 9.25231 11.4171C9.50228 11.1849 9.84407 10.9836 10.2399 10.8057C11.0348 10.4485 12.155 10.1386 13.5017 9.88264Z" fill="#43EDBC"/>
<path fill-rule="evenodd" clip-rule="evenodd" d="M39.2001 12.1807V17.0113C39.2001 17.3884 38.9971 17.6951 38.7477 17.9269C38.4977 18.159 38.1559 18.3603 37.7601 18.5382C36.9652 18.8954 35.8451 19.2053 34.4984 19.4613C31.7971 19.9748 28.0856 20.2893 24 20.2893C19.9144 20.2893 16.2029 19.9748 13.5016 19.4613C12.1549 19.2053 11.0348 18.8954 10.2399 18.5382C10.0688 18.4613 9.90778 18.38 9.75993 18.2938V21.69C9.75993 21.6992 9.76295 21.7696 9.90564 21.9021C10.0478 22.0342 10.2844 22.1843 10.6334 22.3412C11.3283 22.6534 12.3638 22.9464 13.6809 23.1968C16.3071 23.696 19.9556 24.008 24 24.008C28.0443 24.008 31.6929 23.696 34.3191 23.1968C35.6362 22.9464 36.6717 22.6534 37.3666 22.3412C37.7156 22.1843 37.9521 22.0342 38.0943 21.9021C38.237 21.7696 38.2401 21.6992 38.2401 21.69H39.2001V26.3686C39.2001 26.7457 38.9971 27.0524 38.7477 27.2842C38.4977 27.5163 38.1559 27.7176 37.7601 27.8955C36.9652 28.2527 35.8451 28.5626 34.4984 28.8186C31.7971 29.3321 28.0856 29.6466 24 29.6466C19.9144 29.6466 16.2029 29.3321 13.5016 28.8186C12.1549 28.5626 11.0348 28.2527 10.2399 27.8955C10.0688 27.8186 9.90778 27.7373 9.75993 27.6511V31.0473C9.75993 31.0565 9.76295 31.1269 9.90564 31.2594C10.0478 31.3915 10.2844 31.5416 10.6334 31.6985C11.3283 32.0107 12.3638 32.3037 13.6809 32.5541C16.3071 33.0533 19.9556 33.3653 24 33.3653C28.0443 33.3653 31.6929 33.0533 34.3191 32.5541C35.6362 32.3037 36.6717 32.0107 37.3666 31.6985C37.7156 31.5416 37.9521 31.3915 38.0943 31.2594C38.237 31.1269 38.2401 31.0565 38.2401 31.0473H39.2001V35.7259C39.2001 36.103 38.9971 36.4097 38.7477 36.6414C38.4977 36.8736 38.1559 37.0749 37.7601 37.2528C36.9652 37.61 35.8451 37.9199 34.4984 38.1759C31.7971 38.6894 28.0856 39.0039 24 39.0039C19.9144 39.0039 16.2029 38.6894 13.5016 38.1759C12.1549 37.9199 11.0348 37.61 10.2399 37.2528C9.84404 37.0749 9.50227 36.8736 9.25231 36.6414C9.00284 36.4097 8.79993 36.103 8.79993 35.7259V34.1467H9.75993V35.7259C9.75993 35.7352 9.76295 35.8055 9.90564 35.9381C10.0478 36.0701 10.2844 36.2203 10.6334 36.3771C11.3283 36.6894 12.3638 36.9824 13.6809 37.2328C16.3071 37.732 19.9556 38.0439 24 38.0439C28.0443 38.0439 31.6929 37.732 34.3191 37.2328C35.6362 36.9824 36.6717 36.6894 37.3666 36.3771C37.7156 36.2203 37.9521 36.0701 38.0943 35.9381C38.237 35.8055 38.2401 35.7352 38.2401 35.7259V32.3297C38.0922 32.416 37.9312 32.4972 37.7601 32.5741C36.9652 32.9313 35.8451 33.2412 34.4984 33.4972C31.7971 34.0107 28.0856 34.3253 24 34.3253C19.9144 34.3253 16.2029 34.0107 13.5016 33.4972C12.1549 33.2412 11.0348 32.9313 10.2399 32.5741C9.84404 32.3962 9.50227 32.195 9.25231 31.9628C9.00284 31.7311 8.79993 31.4243 8.79993 31.0473V26.3686H9.75993C9.75993 26.3779 9.76295 26.4482 9.90564 26.5808C10.0478 26.7128 10.2844 26.863 10.6334 27.0198C11.3283 27.3321 12.3638 27.6251 13.6809 27.8755C16.3071 28.3747 19.9556 28.6866 24 28.6866C28.0443 28.6866 31.6929 28.3747 34.3191 27.8755C35.6362 27.6251 36.6717 27.3321 37.3666 27.0198C37.7156 26.863 37.9521 26.7128 38.0943 26.5808C38.237 26.4482 38.2401 26.3779 38.2401 26.3686V22.9724C38.0922 23.0587 37.9312 23.1399 37.7601 23.2168C36.9652 23.574 35.8451 23.8839 34.4984 24.1399C31.7971 24.6534 28.0856 24.968 24 24.968C19.9144 24.968 16.2029 24.6534 13.5016 24.1399C12.1549 23.8839 11.0348 23.574 10.2399 23.2168C9.84404 23.0389 9.50227 22.8377 9.25231 22.6055C9.00284 22.3738 8.79993 22.067 8.79993 21.69V17.0113H9.75993C9.75993 17.0206 9.76295 17.0909 9.90564 17.2235C10.0478 17.3555 10.2844 17.5057 10.6334 17.6625C11.3283 17.9748 12.3638 18.2678 13.6809 18.5182C16.3071 19.0174 19.9556 19.3293 24 19.3293C28.0443 19.3293 31.6929 19.0174 34.3191 18.5182C35.6362 18.2678 36.6717 17.9748 37.3666 17.6625C37.7156 17.5057 37.9521 17.3555 38.0943 17.2235C38.237 17.0909 38.2401 17.0206 38.2401 17.0113V12.1807H39.2001Z" fill="#43EDBC"/>
</svg>
