<svg width="104" height="40" viewBox="0 0 104 40" fill="none" xmlns="http://www.w3.org/2000/svg">
<path d="M0.49231 30.4811V15.5169H3.83956V17.4188C4.68286 15.8867 6.52515 15.0811 8.1858 15.0811C10.1189 15.0811 11.8055 15.966 12.5969 17.7226C13.7386 15.7546 15.4641 15.0811 17.3713 15.0811C20.0309 15.0811 22.5608 16.798 22.5608 20.7735V30.4811H19.1746V21.3547C19.1746 19.5981 18.3054 18.2773 16.3334 18.2773C14.4911 18.2773 13.2845 19.7565 13.2845 21.5924V30.4811H9.84645V21.3547C9.84645 19.6377 9.00315 18.2773 7.00518 18.2773C5.13695 18.2773 3.95633 19.6905 3.95633 21.5924V30.4811H0.49231Z" fill="white"/>
<path d="M26.8418 30.4814V8.22656H30.3447V30.4814H26.8418Z" fill="white"/>
<path d="M28.9443 38.6304C29.7357 38.8549 30.4363 38.987 31.9413 38.987C34.7307 38.987 38.026 37.3888 38.8953 32.885L42.4761 14.8302H47.6786L48.457 11.8321H43.0729L43.7864 8.23964C44.3443 5.45284 45.8493 4.03962 48.2883 4.03962C48.9241 4.03962 48.7424 4.09245 49.3133 4.21132L50.0917 1.13395C49.3522 0.909419 48.6776 0.777344 47.2245 0.777344C45.6157 0.777344 44.1237 1.26603 42.9431 2.20377C41.5809 3.27358 40.6857 4.84529 40.2705 6.89247L39.2585 11.8321H34.4842L34.095 14.8302H38.6617L35.3794 31.5247C35.0291 33.4133 33.9652 35.6851 30.9293 35.6851C30.2417 35.6851 30.4882 35.6322 29.8655 35.5266L28.9443 38.6304Z" fill="#0194E2"/>
<path d="M68.4358 16.4678C66.5935 15.1338 64.2582 14.7112 62.0916 15.3187C58.8871 16.2433 56.5388 19.281 56.5907 22.8339C56.6166 24.5905 57.2134 26.1886 58.1865 27.4697L60.4828 25.7527C59.8341 24.9471 59.4449 23.9169 59.432 22.7942C59.406 20.1263 61.4948 17.947 64.1155 17.9074L64.0636 19.7301L68.4358 16.4678Z" fill="#43C9ED"/>
<path d="M50.9609 30.3621H47.458L52.2583 7.90918H55.7613L50.9609 30.3621Z" fill="#0194E2"/>
<path d="M70.1229 18.1715C70.0451 18.0658 69.9672 17.9602 69.8894 17.8545L67.6838 19.5054C68.4363 20.3507 68.9034 21.4602 68.9163 22.6885C68.9423 25.3564 66.8535 27.5357 64.2328 27.5753L64.2847 25.7526L59.8606 29.0545C62.4164 30.8112 65.8934 30.8508 68.5271 28.8828C71.8614 26.3734 72.5879 21.579 70.1229 18.1715Z" fill="#0194E2"/>
<path d="M74.3779 15.5166H78.2052L78.9836 25.7393L84.4327 15.5166L88.0653 15.5694L89.4925 25.7393L94.2928 15.5166L97.7957 15.5694L90.5304 30.494H87.0274L85.3408 19.7959L79.7621 30.494H76.1294L74.3779 15.5166Z" fill="#0194E2"/>
<path d="M99.2617 15.6489H98.5352V15.3848H100.287V15.6489H99.5601V17.815H99.2617V15.6489Z" fill="#0194E2"/>
<path d="M100.715 15.3848H101.078L101.532 16.6791C101.584 16.8508 101.649 17.0225 101.701 17.181H101.714C101.766 17.0093 101.818 16.8376 101.883 16.6791L102.337 15.3848H102.7V17.815H102.415V16.481C102.415 16.2697 102.441 15.9791 102.454 15.7678H102.441L102.246 16.3225L101.792 17.5772H101.597L101.143 16.3225L100.949 15.7678H100.936C100.949 15.9791 100.975 16.2697 100.975 16.481V17.815H100.702V15.3848H100.715Z" fill="#0194E2"/>
</svg>
