<svg width="32" height="32" viewBox="0 0 32 32" fill="none" xmlns="http://www.w3.org/2000/svg">
<path d="M5.81095 9.15918H3.18408L4.85572 15.4477L0 21.8955H2.70647L5.89055 17.4378L7.00497 21.8955H9.63184L7.8806 15.5273L12.5771 9.15918H9.87065L6.76617 13.6965L5.81095 9.15918Z" fill="#189FDD"/>
<path d="M18.3084 9C20.2189 9 21.6517 9.37148 22.1293 9.63682L21.4925 11.5473C21.4925 11.5473 20.6169 11.2289 18.4676 11.2289C14.8855 11.2289 14.1691 15.8458 14.1691 17.8358C14.1691 19.8259 15.602 19.8259 16.1592 19.8259C16.6049 19.8259 17.0348 19.7197 17.194 19.6667L17.8308 16.9602H16.6368L17.194 14.8905H20.8557L19.2636 21.4975C18.786 21.6833 17.385 22.0547 15.602 22.0547C13.3731 22.0547 11.4626 21.0199 11.4626 17.995C11.4626 10.99 15.602 9 18.3084 9Z" fill="#189FDD"/>
<path fill-rule="evenodd" clip-rule="evenodd" d="M21.2537 21.8955L24.1989 9.15918H28.7362C29.9303 9.15918 31.9999 9.63679 31.9999 12.0249C31.9999 13.9353 30.5671 14.9967 29.8507 15.2885C30.2487 15.5273 31.0447 16.3393 31.0447 17.6766C31.0447 19.3482 29.9303 21.8955 26.2686 21.8955H21.2537ZM25.5522 14.4129L26.3482 11.388H28.3382C28.8955 11.388 29.4527 11.786 29.4527 12.5025C29.4527 13.2189 28.8159 14.4129 27.5422 14.4129H25.5522ZM24.2785 19.6666L25.0746 16.4826H27.1442C28.179 16.4826 28.4178 17.2786 28.4178 17.6766C28.4178 18.0746 28.2586 19.6666 26.587 19.6666H24.2785Z" fill="#189FDD"/>
</svg>
