<svg width="331" height="128" viewBox="0 0 331 128" fill="none" xmlns="http://www.w3.org/2000/svg">
<path d="M1.91394 97.538V49.6525H12.6251V55.7386C15.3237 50.8359 21.219 48.2578 26.5331 48.2578C32.719 48.2578 38.1162 51.0895 40.6486 56.7107C44.3021 50.4133 49.8237 48.2578 55.9266 48.2578C64.4375 48.2578 72.5332 53.7522 72.5332 66.4737V97.538H61.6974V68.3334C61.6974 62.7122 58.9158 58.4858 52.6053 58.4858C46.71 58.4858 42.849 63.2194 42.849 69.0941V97.538H31.8472V68.3334C31.8472 62.839 29.1486 58.4858 22.7551 58.4858C16.7768 58.4858 12.9988 63.0081 12.9988 69.0941V97.538H1.91394Z" fill="#0C1519"/>
<path d="M86.2325 97.5396V26.3242H97.4419V97.5396H86.2325Z" fill="#0C1519"/>
<path d="M92.9606 123.616C95.4931 124.334 97.7349 124.757 102.551 124.757C111.477 124.757 122.022 119.643 124.804 105.231L136.262 47.4556H152.91L155.401 37.8616H138.172L140.455 26.3657C142.24 17.4479 147.056 12.9256 154.861 12.9256C156.896 12.9256 156.314 13.0947 158.141 13.4751L160.632 3.62746C158.266 2.90897 156.107 2.48633 151.457 2.48633C146.309 2.48633 141.535 4.05011 137.757 7.05088C133.397 10.4743 130.533 15.5037 129.204 22.0547L125.966 37.8616H110.688L109.443 47.4556H124.056L113.553 100.878C112.432 106.922 109.027 114.191 99.3126 114.191C97.1122 114.191 97.901 114.022 95.9082 113.684L92.9606 123.616Z" fill="#0194E2"/>
<path d="M219.333 52.6954C213.438 48.4267 205.965 47.0742 199.032 49.0184C188.777 51.9769 181.263 61.6977 181.429 73.0668C181.512 78.6879 183.422 83.8019 186.535 87.9016L193.884 82.4072C191.808 79.8291 190.563 76.5324 190.521 72.94C190.438 64.4026 197.122 57.429 205.508 57.3022L205.342 63.1347L219.333 52.6954Z" fill="#43C9ED"/>
<path d="M163.414 97.158H152.204L167.565 25.3086H178.775L163.414 97.158Z" fill="#0194E2"/>
<path d="M224.732 58.1491C224.483 57.811 224.234 57.4729 223.985 57.1348L216.927 62.4178C219.335 65.1227 220.829 68.6729 220.871 72.6035C220.954 81.1409 214.27 88.1145 205.884 88.2413L206.05 82.4088L191.893 92.9749C200.071 98.5961 211.198 98.7229 219.625 92.4255C230.295 84.3953 232.62 69.0533 224.732 58.1491Z" fill="#0194E2"/>
<path d="M238.348 49.6523H250.595L253.086 82.3649L270.523 49.6523L282.148 49.8214L286.715 82.3649L302.076 49.6523L313.285 49.8214L290.036 97.5801H278.827L273.429 63.346L255.577 97.5801H243.953L238.348 49.6523Z" fill="#0194E2"/>
<path d="M317.976 50.0758H315.651V49.2305H321.256V50.0758H318.931V57.0071H317.976V50.0758Z" fill="#0194E2"/>
<path d="M322.627 49.2305H323.79L325.243 53.3724C325.409 53.9218 325.616 54.4712 325.782 54.9784H325.824C325.99 54.429 326.156 53.8795 326.364 53.3724L327.817 49.2305H328.979V57.0071H328.066V52.7384C328.066 52.0622 328.149 51.1324 328.19 50.4561H328.149L327.526 52.2312L326.073 56.2463H325.45L323.997 52.2312L323.374 50.4561H323.333C323.375 51.1324 323.458 52.0622 323.458 52.7384V57.0071H322.586V49.2305H322.627Z" fill="#0194E2"/>
</svg>
