<svg width="32" height="32" viewBox="0 0 32 32" fill="none" xmlns="http://www.w3.org/2000/svg">
<path d="M25.7075 9.40224L23.3854 11.7279C27.2559 15.5972 27.2559 21.9062 23.3854 25.7755C19.5113 29.6509 13.2071 29.6509 9.33177 25.7755C5.46368 21.9074 5.46368 15.5972 9.33177 11.7279L15.528 5.53173L16.304 4.64656V0L6.89815 9.40224C5.66305 10.6259 4.68264 12.0822 4.01357 13.6869C3.34449 15.2917 3 17.0131 3 18.7517C3 20.4904 3.34449 22.2118 4.01357 23.8165C4.68264 25.4213 5.66305 26.8776 6.89815 28.1012C8.12185 29.3365 9.5782 30.3171 11.1831 30.9863C12.7879 31.6555 14.5095 32 16.2483 32C17.987 32 19.7086 31.6555 21.3134 30.9863C22.9183 30.3171 24.3747 29.3365 25.5984 28.1012C30.9082 22.9005 30.9082 14.4938 25.7075 9.40224Z" fill="#EE4C2C"/>
<path d="M22.8312 6.96627C22.8191 7.42793 22.6273 7.86663 22.2965 8.18888C21.9657 8.51114 21.5221 8.69148 21.0603 8.69148C20.5984 8.69148 20.1549 8.51114 19.8241 8.18888C19.4933 7.86663 19.3014 7.42793 19.2893 6.96627C19.2893 6.49658 19.4759 6.04613 19.808 5.71401C20.1401 5.38189 20.5906 5.19531 21.0603 5.19531C21.5299 5.19531 21.9804 5.38189 22.3125 5.71401C22.6446 6.04613 22.8312 6.49658 22.8312 6.96627Z" fill="#EE4C2C"/>
</svg>
