<svg width="32" height="32" viewBox="0 0 32 32" fill="none" xmlns="http://www.w3.org/2000/svg">
<path d="M24.8949 21.303C24.9913 21.1972 25.0831 21.0915 25.1738 20.9845C25.1877 20.9683 25.2005 20.952 25.2145 20.9357C25.4051 20.7045 25.5817 20.4708 25.7398 20.2326C25.7421 20.2291 25.7456 20.2245 25.7479 20.221C25.8281 20.1001 25.9037 19.9781 25.9757 19.856C25.9792 19.8502 25.9815 19.8456 25.985 19.8398C26.6289 18.7322 26.8892 17.5781 26.5882 16.4693C26.5673 16.3903 26.5417 16.3124 26.515 16.2334C26.5127 16.2276 26.5104 16.2218 26.5092 16.2159C26.4836 16.1439 26.4557 16.0718 26.4255 15.9998C26.4209 15.9893 26.4162 15.9789 26.4116 15.9684C26.3825 15.9021 26.3511 15.8359 26.3186 15.7708C26.3116 15.7557 26.3035 15.7406 26.2953 15.7255C26.264 15.6651 26.2291 15.6035 26.1942 15.543C26.1838 15.5244 26.1722 15.5058 26.1617 15.4872C26.1268 15.4303 26.0908 15.3745 26.0524 15.3176C26.0385 15.2966 26.0245 15.2757 26.0094 15.2536C25.9722 15.2002 25.9316 15.1467 25.8909 15.0932C25.8735 15.0712 25.8572 15.0479 25.8398 15.0258C25.7968 14.9724 25.7514 14.9189 25.7049 14.8654C25.6863 14.8445 25.6701 14.8236 25.6515 14.8027C25.5852 14.7295 25.5167 14.6562 25.4446 14.5842C24.8298 13.9694 24.172 13.5893 23.4944 13.4092C23.413 13.6161 23.3561 13.8171 23.3235 14.0112C23.2573 14.4075 23.2933 14.7667 23.4363 15.1107C23.7303 15.2467 24.0127 15.4535 24.2928 15.7336C24.3568 15.7975 24.4149 15.8603 24.4707 15.9242C24.4788 15.9335 24.4881 15.9428 24.4962 15.9533C24.5497 16.016 24.6008 16.08 24.6462 16.1427C24.6508 16.1497 24.6554 16.1567 24.6613 16.1636C24.7589 16.3008 24.8402 16.4379 24.9042 16.5786C25.0843 16.9737 25.1308 17.3851 25.0483 17.8326C24.996 18.1162 24.8937 18.4102 24.7449 18.7136C24.6392 18.9297 24.5102 19.1506 24.3579 19.3725C24.3533 19.3795 24.3486 19.3853 24.344 19.3923C24.2975 19.4597 24.2498 19.526 24.1999 19.5934C24.194 19.6003 24.1894 19.6073 24.1847 19.6143C24.0778 19.7561 23.9616 19.899 23.8372 20.0431C23.8221 20.0606 23.8059 20.0792 23.7896 20.0966C23.7431 20.1501 23.6943 20.2024 23.6455 20.2558C23.6269 20.2756 23.6094 20.2954 23.5909 20.3151C23.5258 20.3848 23.4584 20.4546 23.3886 20.5231C22.4577 21.4541 21.5267 22.0282 20.6981 22.1816C19.924 22.3246 19.2581 22.0852 18.6003 21.4274C17.9424 20.7695 17.6763 20.0652 17.81 19.2575C17.9494 18.416 18.5212 17.456 19.422 16.5565C20.0344 15.944 20.6737 15.4837 21.285 15.2083C21.1641 14.6481 21.1653 14.0658 21.2885 13.4731C20.2402 13.7857 19.2069 14.4715 18.2725 15.4059C16.0655 17.6129 15.2426 20.3709 17.4508 22.578C19.6591 24.785 22.3333 23.882 24.5416 21.6737C24.6473 21.568 24.7496 21.4611 24.8484 21.353C24.8646 21.3355 24.8809 21.3181 24.8972 21.3007L24.8949 21.303Z" fill="#C5CED4"/>
<path d="M23.5537 10.1234C23.4479 10.2292 23.3456 10.3373 23.2457 10.4453C23.2294 10.4628 23.2131 10.4802 23.1969 10.4988C23.1016 10.6046 23.0086 10.7115 22.9203 10.8196C22.9063 10.8358 22.8935 10.8533 22.8796 10.8696C22.6901 11.1032 22.5158 11.3403 22.3601 11.5808C22.3577 11.5843 22.3554 11.5878 22.3531 11.5925C22.2741 11.7145 22.1997 11.8388 22.1299 11.962C22.1265 11.9679 22.123 11.9737 22.1206 11.9795C21.9068 12.3607 21.7394 12.7489 21.6232 13.1394C21.4024 13.8774 21.3664 14.6224 21.5593 15.3453C21.5802 15.4255 21.6058 15.5068 21.6325 15.5859C21.6383 15.6033 21.6453 15.6196 21.6511 15.637C21.6732 15.6997 21.6976 15.7625 21.7232 15.8253C21.7325 15.8485 21.7441 15.8718 21.7534 15.895C21.7778 15.9508 21.8034 16.0066 21.8312 16.0624C21.844 16.0891 21.858 16.1158 21.8719 16.1426C21.8987 16.1949 21.9277 16.246 21.9579 16.2983C21.9742 16.3262 21.9905 16.3552 22.0079 16.3831C22.0381 16.4331 22.0707 16.4819 22.1032 16.5319C22.1218 16.561 22.1416 16.5889 22.1613 16.6179C22.1962 16.6667 22.2322 16.7167 22.2694 16.7655C22.2903 16.7934 22.3112 16.8213 22.3333 16.848C22.3752 16.9003 22.4182 16.9515 22.4635 17.0026C22.4844 17.0258 22.503 17.0503 22.5239 17.0735C22.5902 17.1479 22.6599 17.2223 22.7331 17.2955C23.3328 17.8952 23.9663 18.2636 24.6159 18.4403C24.7112 18.2183 24.7798 18.001 24.8193 17.7918C24.8879 17.4198 24.86 17.0816 24.7287 16.7562C24.4404 16.6249 24.1615 16.4227 23.8849 16.146C23.821 16.0821 23.7617 16.0182 23.7048 15.9531C23.6966 15.9438 23.6873 15.9334 23.6792 15.9241C23.6246 15.8601 23.5723 15.7951 23.5246 15.73C23.52 15.7242 23.5165 15.7183 23.5118 15.7125C23.4119 15.5731 23.3282 15.4324 23.2608 15.2895C23.0702 14.8781 23.0156 14.448 23.0934 13.9762C23.1376 13.7065 23.2271 13.4253 23.3572 13.137C23.3886 13.0662 23.4235 12.9964 23.4607 12.9244C23.4677 12.9116 23.4735 12.8988 23.4804 12.8872C23.5153 12.8198 23.5525 12.7535 23.592 12.6861C23.5955 12.6815 23.5978 12.6756 23.6013 12.671C23.6443 12.5966 23.6908 12.5234 23.7396 12.449C23.7454 12.4397 23.7524 12.4304 23.7594 12.42C23.8001 12.3572 23.8431 12.2956 23.8884 12.2328C23.9 12.2166 23.9116 12.1991 23.9244 12.1829C23.9721 12.1166 24.022 12.0504 24.0743 11.9853C24.079 11.9795 24.0825 11.9737 24.0871 11.969C24.1429 11.8981 24.2022 11.8272 24.2626 11.7563C24.2777 11.7389 24.2928 11.7215 24.3079 11.704C24.3556 11.6494 24.4032 11.5959 24.4532 11.5413C24.4707 11.5216 24.4893 11.5018 24.5078 11.482C24.5729 11.4123 24.6392 11.3437 24.7077 11.274C25.6073 10.3744 26.5673 9.80147 27.4088 9.662C28.2165 9.52834 28.9057 9.77939 29.5786 10.4523C30.2516 11.1252 30.4759 11.7772 30.3329 12.5501C30.1795 13.3788 29.6065 14.3097 28.6744 15.2407C28.0608 15.8543 27.4483 16.3111 26.8648 16.5958C26.9904 17.1618 26.9845 17.7499 26.8486 18.3531C27.8771 18.0219 28.8929 17.3234 29.825 16.3913C32.0321 14.1842 32.9363 11.5088 30.7292 9.30055C28.5222 7.09349 25.7642 7.91518 23.5571 10.1222L23.5537 10.1234Z" fill="#C5CED4"/>
<path d="M15.1635 22.1015C15.4715 21.747 14.9067 21.747 14.2535 21.1636C14.5894 21.8191 14.1396 21.8005 13.3644 21.4576C12.5892 21.1148 9.58717 19.9619 7.1465 18.1604C3.4576 15.4385 4.14913 13.5011 4.34089 13.114C4.34322 13.1082 4.3467 13.1024 4.34903 13.0978C4.36762 13.0617 4.38041 13.0431 4.38041 13.0431C4.36995 13.0594 4.35949 13.078 4.34903 13.0978C4.3467 13.1024 4.34322 13.1082 4.34089 13.114C3.99804 13.8311 4.47687 16.0266 7.1895 17.878C9.9986 19.7945 11.893 20.5128 13.4516 21.238C14.3639 21.6622 14.1071 21.3368 13.5015 20.1699C9.95559 13.2791 8.07163 13.1408 6.70485 11.5892C6.02263 10.8152 5.11145 8.24316 3.01131 8.24316C0.911173 8.24316 0.962311 9.54137 0.962311 9.54137C-0.821701 10.692 0.403282 12.6236 0.497422 12.6131C0.591562 12.6027 0.476502 12.2122 0.603184 11.8216C0.805411 11.3742 1.36793 11.0523 1.50972 10.8489C1.21684 10.4758 1.50972 10.1213 1.50972 10.1213C1.44463 10.5943 1.86885 11.0523 2.12221 11.4056C2.37557 11.7589 2.2303 11.9669 2.2303 11.9669C2.2303 11.9669 2.25587 11.8251 2.05596 11.5915C1.86768 11.373 1.66778 11.0464 1.64221 11.0046C1.62362 11.0232 1.54458 11.0848 1.27495 11.2789C0.928607 11.5276 0.781004 11.8356 0.729866 11.9727C1.21103 12.426 2.16637 12.2331 2.16637 12.2331C2.16637 12.2331 2.78003 12.7003 3.04269 14.9039C3.37509 17.6897 4.76859 18.6032 5.66583 19.2413C5.48103 21.2252 6.08771 21.3995 6.08771 21.3995C6.11445 22.2177 5.44384 22.27 4.87435 22.0911C4.30486 21.9121 3.96085 21.8691 3.82952 22.1073C3.27514 22.1073 3.18564 22.4025 3.20192 22.714C3.37044 22.4874 3.69237 22.5559 3.69237 22.5559C3.69237 22.5559 3.69237 22.6187 3.92482 22.7675C3.81441 23.0208 4.01431 23.1742 4.01431 23.1742C4.01431 23.1742 4.05615 23.0162 4.31997 22.8256C4.61518 23.1638 4.88481 22.9999 5.04288 22.8779C5.20094 22.757 5.38573 22.6303 6.19813 22.6303C5.83435 22.9 5.99241 23.28 5.99241 23.28C5.99241 23.28 6.2144 22.9848 6.46195 22.9848C6.7095 22.9848 6.7467 23.1801 7.00587 23.1801C7.26505 23.1801 7.33827 22.9372 7.82408 22.8209C7.4603 23.0162 7.53352 23.4171 7.61836 23.5706C7.67647 23.423 7.87173 23.423 7.87173 23.423C7.87173 23.423 8.15647 23.6926 8.4203 23.3172C8.68412 22.943 9.22804 22.8372 9.50698 22.8372C9.78591 22.8372 10.109 23.28 10.2613 22.9848C10.4147 22.6896 10.6204 22.9743 10.8889 22.9313C10.6669 22.5559 10.2868 22.3886 10.0974 22.3886C9.90794 22.3886 9.81264 22.5466 9.59065 22.5466C9.36867 22.5466 9.08393 22.277 9.06765 21.9446C9.47908 21.897 9.55811 21.1845 9.55811 20.7254C9.87424 20.9474 10.8249 20.8684 12.3289 21.2635C12.9623 22.356 13.4376 22.6245 13.9281 22.6408C15.0206 23.1952 14.9892 22.7837 14.9892 22.7837C14.9892 22.7837 15.2425 22.9104 15.7969 22.9267C16.3513 22.943 15.6075 22.4037 15.1635 22.1038V22.1015ZM2.52434 10.1202C2.25354 10.1202 2.03388 9.90049 2.03388 9.6297C2.03388 9.3589 2.25354 9.13924 2.52434 9.13924C2.79514 9.13924 3.0148 9.3589 3.0148 9.6297C3.0148 9.90049 2.79514 10.1202 2.52434 10.1202ZM7.49517 22.456C7.25342 21.8307 7.02563 22.1968 6.7804 22.1712C6.45963 22.1375 6.52703 21.833 6.59328 21.6564C7.20229 21.7889 7.49517 20.2478 7.49517 20.2478C7.78107 21.3112 8.17042 21.7738 8.47841 21.9202C8.50049 22.5071 7.92054 22.4339 7.49517 22.456Z" fill="#43EDBC"/>
</svg>
