<svg width="48" height="48" viewBox="0 0 48 48" fill="none" xmlns="http://www.w3.org/2000/svg">
<path fill-rule="evenodd" clip-rule="evenodd" d="M7.85986 9.84067C7.85986 8.67463 8.80696 7.72754 9.973 7.72754H38.5583C39.7244 7.72754 40.6715 8.67463 40.6715 9.84067V26.6221H8.81986V29.6778C8.81986 30.3137 9.33715 30.831 9.973 30.831H21.8768V31.791H9.973C8.80696 31.791 7.85986 30.8439 7.85986 29.6778V25.6621H39.7115V9.84067C39.7115 9.20482 39.1942 8.68754 38.5583 8.68754H9.973C9.33715 8.68754 8.81986 9.20482 8.81986 9.84067V24.1751H7.85986V9.84067Z" fill="#43EDBC"/>
<path fill-rule="evenodd" clip-rule="evenodd" d="M40.6687 27.8887V29.6779C40.6687 30.8439 39.7216 31.791 38.5556 31.791H24.7429V36.0018H17.9046C16.8166 36.0018 15.9322 36.8842 15.9322 37.9742V38.8797H32.5964V37.9742C32.5964 36.8862 31.7141 36.0018 30.624 36.0018H26.2408V35.0418H30.624C32.2449 35.0418 33.5564 36.3567 33.5564 37.9742V39.8397H14.9722V37.9742C14.9722 36.3533 16.2871 35.0418 17.9046 35.0418H23.7829V30.831H38.5556C39.1914 30.831 39.7087 30.3138 39.7087 29.6779V27.8887H40.6687Z" fill="#43EDBC"/>
<path fill-rule="evenodd" clip-rule="evenodd" d="M22.7712 28.96H25.7568V29.92H22.7712V28.96Z" fill="#43EDBC"/>
</svg>
