<svg width="32" height="32" viewBox="0 0 32 32" fill="none" xmlns="http://www.w3.org/2000/svg">
<path d="M15.9023 26.7679C19.0067 26.7679 21.984 25.5347 24.1792 23.3396C26.3743 21.1444 27.6075 18.1671 27.6075 15.0627C27.6075 11.9583 26.3743 8.98098 24.1792 6.78581C21.984 4.59065 19.0067 3.35742 15.9023 3.35742C12.7979 3.35742 9.82058 4.59065 7.62541 6.78581C5.43025 8.98098 4.19702 11.9583 4.19702 15.0627C4.19702 18.1671 5.43025 21.1444 7.62541 23.3396C9.82058 25.5347 12.7979 26.7679 15.9023 26.7679Z" fill="#FFD21E"/>
<path d="M27.6076 15.0634C27.6076 11.9589 26.3744 8.98167 24.1792 6.7865C21.9841 4.59134 19.0068 3.35811 15.9024 3.35811C12.7979 3.35811 9.82065 4.59134 7.62549 6.7865C5.43033 8.98167 4.1971 11.9589 4.1971 15.0634C4.1971 18.1678 5.43033 21.1451 7.62549 23.3402C9.82065 25.5354 12.7979 26.7686 15.9024 26.7686C19.0068 26.7686 21.9841 25.5354 24.1792 23.3402C26.3744 21.1451 27.6076 18.1678 27.6076 15.0634ZM2.84973 15.0634C2.84973 13.3493 3.18735 11.652 3.8433 10.0683C4.49926 8.48473 5.46071 7.04582 6.67276 5.83377C7.88481 4.62172 9.32372 3.66027 10.9073 3.00431C12.491 2.34836 14.1883 2.01074 15.9024 2.01074C17.6165 2.01074 19.3138 2.34836 20.8974 3.00431C22.481 3.66027 23.9199 4.62172 25.132 5.83377C26.344 7.04582 27.3055 8.48473 27.9614 10.0683C28.6174 11.652 28.955 13.3493 28.955 15.0634C28.955 18.5251 27.5798 21.8451 25.132 24.293C22.6841 26.7408 19.3641 28.116 15.9024 28.116C12.4406 28.116 9.1206 26.7408 6.67276 24.293C4.22492 21.8451 2.84973 18.5251 2.84973 15.0634Z" fill="#FF9D0B"/>
<path d="M19.7053 11.8798C20.1364 12.0281 20.3049 12.9106 20.7394 12.6815C21.0336 12.5253 21.2749 12.2854 21.4328 11.992C21.5906 11.6986 21.6579 11.3651 21.6262 11.0334C21.5944 10.7018 21.465 10.3871 21.2544 10.129C21.0437 9.87092 20.7613 9.68111 20.4428 9.58358C20.1242 9.48604 19.7839 9.48515 19.4649 9.58103C19.1458 9.67691 18.8624 9.86525 18.6504 10.1222C18.4384 10.3792 18.3074 10.6933 18.2739 11.0247C18.2405 11.3562 18.306 11.6901 18.4623 11.9843C18.6678 12.3716 19.3213 11.7417 19.7087 11.8765L19.7053 11.8798ZM11.7727 11.8798C11.3415 12.0281 11.1697 12.9106 10.7386 12.6815C10.4443 12.5253 10.203 12.2854 10.0452 11.992C9.88733 11.6986 9.82003 11.3651 9.85179 11.0334C9.88354 10.7018 10.0129 10.3871 10.2236 10.129C10.4342 9.87092 10.7167 9.68111 11.0352 9.58358C11.3537 9.48604 11.694 9.48515 12.0131 9.58103C12.3321 9.67691 12.6155 9.86525 12.8275 10.1222C13.0395 10.3792 13.1705 10.6933 13.204 11.0247C13.2375 11.3562 13.1719 11.6901 13.0156 11.9843C12.8101 12.3716 12.1533 11.7417 11.7693 11.8765L11.7727 11.8798Z" fill="#3A3B45"/>
<path d="M15.8181 19.9613C19.1292 19.9613 20.197 17.0106 20.197 15.4948C20.197 14.7066 19.6682 14.9558 18.8193 15.3735C18.0345 15.7609 16.9802 16.2965 15.8215 16.2965C13.3996 16.2965 11.4425 13.979 11.4425 15.4948C11.4425 17.0106 12.5069 19.9613 15.8215 19.9613H15.8181Z" fill="#FF323D"/>
<path fill-rule="evenodd" clip-rule="evenodd" d="M13.2817 19.1896C13.4595 18.8284 13.7097 18.5077 14.0169 18.2475C14.324 17.9873 14.6815 17.7932 15.067 17.6772C15.2017 17.6368 15.3398 17.8692 15.4847 18.1084C15.6194 18.3374 15.7609 18.5698 15.9024 18.5698C16.0539 18.5698 16.2055 18.3408 16.3504 18.1151C16.5019 17.8793 16.6502 17.6503 16.795 17.6941C17.5186 17.9238 18.1233 18.4281 18.4792 19.0987C19.7356 18.1084 20.1971 16.4915 20.1971 15.4945C20.1971 14.7063 19.6683 14.9555 18.8194 15.3732L18.7723 15.3968C17.9942 15.7842 16.9567 16.2962 15.8182 16.2962C14.6796 16.2962 13.6455 15.7842 12.8641 15.3968C11.9883 14.9623 11.4392 14.6894 11.4392 15.4945C11.4392 16.5218 11.931 18.2094 13.2817 19.1896Z" fill="#3A3B45"/>
<path d="M23.8182 13.4629C24.1085 13.4629 24.387 13.3476 24.5923 13.1423C24.7976 12.937 24.9129 12.6585 24.9129 12.3682C24.9129 12.0778 24.7976 11.7994 24.5923 11.5941C24.387 11.3888 24.1085 11.2734 23.8182 11.2734C23.5278 11.2734 23.2494 11.3888 23.0441 11.5941C22.8388 11.7994 22.7234 12.0778 22.7234 12.3682C22.7234 12.6585 22.8388 12.937 23.0441 13.1423C23.2494 13.3476 23.5278 13.4629 23.8182 13.4629ZM8.155 13.4629C8.44535 13.4629 8.7238 13.3476 8.9291 13.1423C9.1344 12.937 9.24974 12.6585 9.24974 12.3682C9.24974 12.0778 9.1344 11.7994 8.9291 11.5941C8.7238 11.3888 8.44535 11.2734 8.155 11.2734C7.86466 11.2734 7.58621 11.3888 7.38091 11.5941C7.17561 11.7994 7.06027 12.0778 7.06027 12.3682C7.06027 12.6585 7.17561 12.937 7.38091 13.1423C7.58621 13.3476 7.86466 13.4629 8.155 13.4629ZM5.90153 17.1682C5.35585 17.1682 4.87079 17.3905 4.53058 17.7981C4.24048 18.1564 4.08231 18.6035 4.08258 19.0646C3.87049 19.0008 3.65056 18.9668 3.42911 18.9635C2.907 18.9635 2.43542 19.1623 2.10195 19.5227C1.80444 19.8316 1.61686 20.2299 1.56816 20.656C1.51946 21.0822 1.61234 21.5125 1.83248 21.8806C1.53437 22.124 1.32288 22.4571 1.22953 22.8305C1.14869 23.1336 1.06785 23.7736 1.499 24.4271C1.33737 24.6756 1.24119 24.9609 1.2194 25.2566C1.19761 25.5522 1.25092 25.8486 1.37437 26.1181C1.71795 26.8995 2.5769 27.5126 4.24427 28.1728C5.27837 28.5838 6.22827 28.8465 6.235 28.8499C7.43496 29.1823 8.67179 29.3634 9.91669 29.3888C11.8906 29.3888 13.302 28.7825 14.1137 27.5901C15.4207 25.6734 15.2354 23.9185 13.5411 22.2275C12.6081 21.2911 11.9849 19.9134 11.8569 19.6103C11.5942 18.7143 10.9003 17.7172 9.75164 17.7172C9.44606 17.7221 9.14605 17.7998 8.87655 17.9439C8.60705 18.088 8.37584 18.2944 8.20216 18.5459C7.86532 18.1214 7.53521 17.788 7.23879 17.596C6.84324 17.3282 6.37907 17.1797 5.90153 17.1682ZM5.90153 18.5155C6.07332 18.5155 6.28553 18.5896 6.51458 18.7345C7.23542 19.1926 8.61985 21.5741 9.12848 22.5004C9.2969 22.8103 9.58995 22.9416 9.84932 22.9416C10.3714 22.9416 10.7756 22.4263 9.89985 21.7694C8.57942 20.7825 9.0409 19.169 9.67079 19.0713C9.69774 19.0646 9.72806 19.0646 9.75164 19.0646C10.3243 19.0646 10.5769 20.0515 10.5769 20.0515C10.5769 20.0515 11.318 21.9109 12.5912 23.1842C13.8611 24.4541 13.9285 25.4747 13.0022 26.8322C12.3689 27.7585 11.1596 28.0381 9.91669 28.0381C8.63332 28.0381 7.3129 27.7349 6.57521 27.5463C6.53816 27.5362 2.04469 26.2663 2.61395 25.1884C2.70827 25.0065 2.86658 24.9324 3.06532 24.9324C3.867 24.9324 5.32216 26.1248 5.95206 26.1248C6.09016 26.1248 6.18785 26.0675 6.23164 25.9227C6.49774 24.9627 2.16932 24.5585 2.53311 23.1707C2.60048 22.9248 2.77227 22.8271 3.01816 22.8271C4.07585 22.8271 6.45395 24.6899 6.95248 24.6899C6.98953 24.6899 7.01985 24.6798 7.03332 24.6562C7.28258 24.252 7.14448 23.969 5.38279 22.9046C3.62785 21.8402 2.39164 21.2002 3.09227 20.4355C3.17311 20.348 3.28764 20.3075 3.42911 20.3075C4.4969 20.3075 7.01985 22.6048 7.01985 22.6048C7.01985 22.6048 7.70027 23.3122 8.11458 23.3122C8.2089 23.3122 8.28974 23.2785 8.34364 23.1842C8.63332 22.6924 5.62869 20.4153 5.46027 19.4755C5.34574 18.8355 5.54111 18.5155 5.90153 18.5155Z" fill="#FF9D0B"/>
<path d="M13.0021 26.8321C13.9284 25.4713 13.8611 24.4507 12.5912 23.1808C11.3179 21.9109 10.5769 20.0481 10.5769 20.0481C10.5769 20.0481 10.3007 18.9702 9.67076 19.0713C9.04087 19.1724 8.5794 20.7825 9.89982 21.7694C11.2169 22.7564 9.63708 23.4267 9.12845 22.5004C8.62319 21.574 7.2354 19.1926 6.51455 18.7345C5.79708 18.2797 5.29182 18.5324 5.46024 19.4755C5.62866 20.4153 8.63666 22.6924 8.34361 23.1808C8.05055 23.6759 7.01982 22.6048 7.01982 22.6048C7.01982 22.6048 3.79624 19.6709 3.09224 20.4355C2.39161 21.2001 3.62782 21.8401 5.38276 22.9046C7.14445 23.969 7.28255 24.2519 7.03329 24.6561C6.78066 25.0604 2.89687 21.7829 2.53308 23.174C2.16929 24.5585 6.49771 24.9593 6.23161 25.9193C5.96213 26.8793 3.17982 24.1071 2.61392 25.185C2.04129 26.2662 6.53813 27.5361 6.57519 27.5462C8.02361 27.9235 11.712 28.7218 13.0021 26.8321Z" fill="#FFD21E"/>
<path d="M26.0716 17.168C26.6173 17.168 27.1057 17.3903 27.4426 17.7979C27.7327 18.1562 27.8909 18.6033 27.8906 19.0644C28.1038 19.0003 28.3248 18.9663 28.5474 18.9633C29.0695 18.9633 29.5411 19.1621 29.8746 19.5225C30.1721 19.8314 30.3597 20.2297 30.4084 20.6558C30.4571 21.082 30.3642 21.5123 30.1441 21.8804C30.4409 22.1243 30.6512 22.4574 30.7436 22.8303C30.8245 23.1334 30.9053 23.7734 30.4742 24.4269C30.6358 24.6754 30.732 24.9607 30.7538 25.2564C30.7755 25.552 30.7222 25.8484 30.5988 26.1179C30.2552 26.8993 29.3963 27.5124 27.7323 28.1726C26.6948 28.5835 25.7449 28.8463 25.7382 28.8497C24.5382 29.1821 23.3014 29.3632 22.0565 29.3886C20.0826 29.3886 18.6712 28.7823 17.8594 27.5899C16.5525 25.6732 16.7377 23.9183 18.4321 22.2273C19.3685 21.2909 19.9916 19.9132 20.1196 19.6101C20.3824 18.7141 21.0729 17.717 22.2215 17.717C22.5271 17.7219 22.8271 17.7996 23.0966 17.9437C23.3661 18.0878 23.5973 18.2942 23.771 18.5457C24.1078 18.1212 24.438 17.7878 24.7377 17.5958C25.1323 17.3286 25.5953 17.1801 26.0716 17.168ZM26.0716 18.5153C25.8998 18.5153 25.691 18.5894 25.4586 18.7343C24.7411 19.1924 23.3533 21.5739 22.8447 22.5002C22.776 22.6324 22.6726 22.7433 22.5456 22.821C22.4186 22.8988 22.2728 22.9404 22.1238 22.9414C21.6051 22.9414 21.1975 22.4261 22.0767 21.7692C23.3937 20.7823 22.9323 19.1688 22.3024 19.0711C22.2756 19.0668 22.2486 19.0645 22.2215 19.0644C21.6489 19.0644 21.3963 20.0513 21.3963 20.0513C21.3963 20.0513 20.6552 21.9107 19.3853 23.184C18.1121 24.4539 18.0447 25.4745 18.9744 26.832C19.6043 27.7583 20.8169 28.0379 22.0565 28.0379C23.3432 28.0379 24.6603 27.7347 25.4013 27.5461C25.435 27.536 29.9318 26.2661 29.3626 25.1882C29.2649 25.0063 29.11 24.9322 28.9112 24.9322C28.1095 24.9322 26.651 26.1246 26.0245 26.1246C25.883 26.1246 25.7853 26.0673 25.7449 25.9225C25.4754 24.9625 29.8038 24.5583 29.4401 23.1705C29.3761 22.9246 29.2043 22.8269 28.955 22.8269C27.8973 22.8269 25.5192 24.6897 25.0207 24.6897C24.987 24.6897 24.9567 24.6795 24.9432 24.656C24.694 24.2518 24.8287 23.9688 26.587 22.9044C28.3487 21.84 29.5849 21.2 28.8775 20.4353C28.8001 20.3478 28.6855 20.3073 28.5474 20.3073C27.4763 20.3073 24.9533 22.6046 24.9533 22.6046C24.9533 22.6046 24.2729 23.312 23.8619 23.312C23.8156 23.314 23.7697 23.3032 23.7292 23.2805C23.6888 23.2579 23.6554 23.2245 23.6329 23.184C23.3398 22.6922 26.3445 20.4151 26.5129 19.4753C26.6274 18.8353 26.4321 18.5153 26.0716 18.5153Z" fill="#FF9D0B"/>
<path d="M18.9744 26.8321C18.048 25.4713 18.112 24.4507 19.3853 23.1808C20.6552 21.9109 21.3962 20.0481 21.3962 20.0481C21.3962 20.0481 21.6725 18.9702 22.3057 19.0713C22.9322 19.1724 23.3937 20.7825 22.0767 21.7694C20.7562 22.7564 22.3394 23.4267 22.8447 22.5004C23.3533 21.574 24.7411 19.1926 25.4586 18.7345C26.176 18.2797 26.6847 18.5324 26.5129 19.4755C26.3445 20.4153 23.3398 22.6924 23.6329 23.1808C23.9226 23.6759 24.9533 22.6048 24.9533 22.6048C24.9533 22.6048 28.1802 19.6709 28.8809 20.4355C29.5815 21.2001 28.3487 21.8401 26.5904 22.9046C24.8287 23.969 24.6939 24.2519 24.9398 24.6561C25.1925 25.0604 29.0763 21.7829 29.44 23.174C29.8038 24.5585 25.4788 24.9593 25.7449 25.9193C26.0144 26.8793 28.7933 24.1071 29.3626 25.185C29.9318 26.2662 25.4384 27.5361 25.4013 27.5462C23.9495 27.9235 20.2611 28.7218 18.9744 26.8321Z" fill="#FFD21E"/>
</svg>
