<svg xmlns="http://www.w3.org/2000/svg" width="27" height="32" viewBox="0 0 27 32" fill="none">
  <path d="M22.7075 9.40224L20.3854 11.7279C24.2559 15.5972 24.2559 21.9062 20.3854 25.7755C16.5113 29.6509 10.2071 29.6509 6.33177 25.7755C2.46368 21.9074 2.46368 15.5972 6.33177 11.7279L12.528 5.53173L13.304 4.64656V0L3.89815 9.40224C2.66305 10.6259 1.68264 12.0822 1.01357 13.6869C0.344488 15.2917 0 17.0131 0 18.7517C0 20.4904 0.344488 22.2118 1.01357 23.8165C1.68264 25.4213 2.66305 26.8776 3.89815 28.1012C5.12185 29.3365 6.5782 30.3171 8.18306 30.9863C9.78792 31.6555 11.5095 32 13.2483 32C14.987 32 16.7086 31.6555 18.3134 30.9863C19.9183 30.3171 21.3747 29.3365 22.5984 28.1012C27.9082 22.9005 27.9082 14.4938 22.7075 9.40224Z" fill="#EE4C2C"/>
  <path d="M19.8312 6.96627C19.8191 7.42793 19.6273 7.86663 19.2965 8.18888C18.9657 8.51114 18.5221 8.69148 18.0603 8.69148C17.5984 8.69148 17.1549 8.51114 16.8241 8.18888C16.4933 7.86663 16.3014 7.42793 16.2893 6.96627C16.2893 6.49658 16.4759 6.04613 16.808 5.71401C17.1401 5.38189 17.5906 5.19531 18.0603 5.19531C18.5299 5.19531 18.9804 5.38189 19.3125 5.71401C19.6446 6.04613 19.8312 6.49658 19.8312 6.96627Z" fill="#EE4C2C"/>
</svg>