<svg xmlns="http://www.w3.org/2000/svg" width="32" height="32" viewBox="0 0 32 32" fill="none">
  <path fill-rule="evenodd" clip-rule="evenodd" d="M24.6195 25.6567C24.5359 25.4896 24.5081 25.4061 24.4802 25.3504C23.3943 23.2898 22.3083 21.2293 21.2223 19.1687C21.1109 18.9738 21.1388 18.8346 21.278 18.6675C23.0044 16.6626 24.703 14.6299 26.4294 12.625C26.4851 12.5415 26.5408 12.4858 26.5686 12.3465C26.0674 12.4858 25.5662 12.5971 25.065 12.7364C22.9766 13.2933 20.8881 13.8502 18.8276 14.4071C18.6327 14.4628 18.5491 14.4071 18.4377 14.24C17.2682 12.263 16.0709 10.286 14.8735 8.33678C14.8178 8.22539 14.7343 8.14186 14.6229 8.05832C14.5394 8.58739 14.428 9.11645 14.3444 9.64552C14.0103 11.5112 13.6761 13.349 13.342 15.2146C13.3141 15.4096 13.2585 15.6045 13.2306 15.8272C13.2028 16.0222 13.1192 16.0778 12.9522 16.1335C10.5017 16.9132 8.05134 17.6929 5.60093 18.4447C5.48955 18.4726 5.37816 18.5283 5.26678 18.6396C7.27166 19.4472 9.27655 20.2268 11.3093 21.0344C11.2257 21.09 11.1979 21.1457 11.1422 21.1736C9.88915 21.9811 8.6361 22.7886 7.38305 23.5961C7.24382 23.7075 7.10459 23.7075 6.93751 23.624C5.43385 22.9557 3.9302 22.2874 2.42654 21.6191C1.75824 21.3128 1.14564 20.923 0.672261 20.3382C-0.385871 19.0295 -0.190952 17.5537 1.22917 16.6348C1.70255 16.3285 2.23161 16.1057 2.76068 15.9386C5.1554 15.1589 7.57796 14.4071 9.97268 13.6553C10.1676 13.5996 10.279 13.4882 10.3068 13.2933C10.641 11.4276 10.9473 9.56198 11.3093 7.72417C11.4763 6.72173 11.5877 5.71929 12.0611 4.80039C12.256 4.4384 12.4788 4.10425 12.7294 3.8258C13.6761 2.76766 15.0127 2.71197 16.043 3.74226C16.3772 4.0764 16.6835 4.49409 16.9341 4.91177C18.0479 6.72173 19.1339 8.55954 20.2477 10.3973C20.3869 10.6201 20.4983 10.648 20.7211 10.5923C23.4221 9.86828 26.0953 9.17214 28.7963 8.44816C29.3532 8.30893 29.9101 8.25324 30.4949 8.36462C31.7479 8.58739 32.277 9.53414 31.8593 10.7315C31.6644 11.2884 31.3302 11.7339 30.9682 12.1795C29.1026 14.3793 27.2091 16.6069 25.3434 18.8067C25.1764 18.9738 25.1764 19.113 25.2877 19.3079C26.4016 21.4242 27.5154 23.5405 28.6571 25.6846C28.9355 26.1858 29.1304 26.7149 29.1304 27.2996C29.1304 28.6362 28.1837 29.7222 26.8471 29.9171C26.0953 30.0285 25.427 29.8614 24.7308 29.6665C23.0323 29.1374 21.3615 28.6362 19.6629 28.135C19.4959 28.0793 19.4402 28.0236 19.4123 27.8565C19.2174 26.6592 18.9946 25.4896 18.7997 24.2923C18.7997 24.2644 18.7997 24.2366 18.7997 24.1531C20.7211 24.5707 22.6146 25.0998 24.6195 25.6567Z" fill="#E26A1A"/>
</svg>