<svg width="12" height="94" viewBox="0 0 12 94" fill="none" xmlns="http://www.w3.org/2000/svg">
<path d="M6 11.3333C8.94552 11.3333 11.3333 8.94552 11.3333 6C11.3333 3.05448 8.94552 0.666664 6 0.666664C3.05449 0.666664 0.66667 3.05448 0.66667 6C0.66667 8.94552 3.05448 11.3333 6 11.3333ZM6 93.3333C8.94552 93.3333 11.3333 90.9455 11.3333 88C11.3333 85.0545 8.94552 82.6667 6 82.6667C3.05448 82.6667 0.666667 85.0545 0.666667 88C0.666666 90.9455 3.05448 93.3333 6 93.3333ZM5 6L5 88L7 88L7 6L5 6Z" fill="#43C9ED"/>
</svg>
