<svg xmlns="http://www.w3.org/2000/svg" width="32" height="14" viewBox="0 0 32 14" fill="none">
  <path d="M5.81095 0.15918H3.18408L4.85572 6.44774L0 12.8955H2.70647L5.89055 8.43779L7.00497 12.8955H9.63184L7.8806 6.52734L12.5771 0.15918H9.87065L6.76617 4.69649L5.81095 0.15918Z" fill="#189FDD"/>
  <path d="M18.3084 0C20.2189 0 21.6517 0.371476 22.1293 0.636816L21.4925 2.54726C21.4925 2.54726 20.6169 2.22886 18.4676 2.22886C14.8855 2.22886 14.1691 6.84577 14.1691 8.83582C14.1691 10.8259 15.602 10.8259 16.1592 10.8259C16.6049 10.8259 17.0348 10.7197 17.194 10.6667L17.8308 7.9602H16.6368L17.194 5.89055H20.8557L19.2636 12.4975C18.786 12.6833 17.385 13.0547 15.602 13.0547C13.3731 13.0547 11.4626 12.0199 11.4626 8.99502C11.4626 1.99005 15.602 0 18.3084 0Z" fill="#189FDD"/>
  <path fill-rule="evenodd" clip-rule="evenodd" d="M21.2537 12.8955L24.1989 0.15918H28.7362C29.9303 0.15918 31.9999 0.636792 31.9999 3.02485C31.9999 4.9353 30.5671 5.99666 29.8507 6.28853C30.2487 6.52734 31.0447 7.33928 31.0447 8.67659C31.0447 10.3482 29.9303 12.8955 26.2686 12.8955H21.2537ZM25.5522 5.41291L26.3482 2.38804H28.3382C28.8955 2.38804 29.4527 2.78605 29.4527 3.50246C29.4527 4.21888 28.8159 5.41291 27.5422 5.41291H25.5522ZM24.2785 10.6666L25.0746 7.48256H27.1442C28.179 7.48256 28.4178 8.27858 28.4178 8.67659C28.4178 9.0746 28.2586 10.6666 26.587 10.6666H24.2785Z" fill="#189FDD"/>
</svg>